<?xml version="1.0" encoding="utf-8"?>
<!-- Generator: Adobe Illustrator 19.0.0, SVG Export Plug-In . SVG Version: 6.00 Build 0)  -->
<svg version="1.1" id="Layer_1" xmlns="http://www.w3.org/2000/svg" xmlns:xlink="http://www.w3.org/1999/xlink" x="0px" y="0px"
	 viewBox="-155 247 300 300" style="enable-background:new -155 247 300 300;" xml:space="preserve">
<style type="text/css">
	.st0{fill:#EB1C2D;}
	.st1{fill:#FFFFFF;}
</style>
<rect x="-155" y="247" class="st0" width="300" height="300"/>
<path class="st1" d="M-118.5,285.1c2.9-3.7,6.1-7.2,9.2-10.8c2.7,0,5.3,0,8,0c0,19.8,0,39.7,0,59.5c-3.3,0-6.7,0-10,0
	c0-15.2,0-30.4,0-45.6c-2.4,2.5-4.8,5-7.2,7.4C-118.5,292.1-118.6,288.6-118.5,285.1z"/>
<path class="st1" d="M-68.2,274.8c1.4,0,2.8,0,4.1,0c1.5,4.7,3,9.4,4.5,14.1c0-4.7,0-9.4,0-14.1c1.2,0,2.3,0,3.5,0
	c0,8.3,0,16.6,0,24.9c-1.2,0-2.5,0-3.7,0c-1.6-5.1-3.2-10.3-4.9-15.5c0,5.2,0,10.3,0,15.5c-1.2,0-2.4,0-3.6,0
	C-68.2,291.4-68.2,283.1-68.2,274.8z"/>
<path class="st1" d="M-49.8,274.9c3.1-1,7.4,0,8.4,3.5c0.8,3.1,0.2,6.5,0.4,9.7c-0.2,2.9,0.5,5.9-0.6,8.7c-2.1,5-11,4.3-11.8-1.3
	c-0.5-4.7-0.1-9.4-0.2-14.1C-53.8,278.7-52.6,275.6-49.8,274.9 M-48.6,278.4c-1,0.8-0.8,2.2-0.9,3.4c0.1,4.4-0.1,8.8,0.1,13.1
	c0.3,2.2,4,2,4.1-0.3c0.2-4.8,0.1-9.6,0-14.4C-45.1,278.5-47.2,277.4-48.6,278.4z"/>
<path class="st1" d="M-68.2,309.6c3.1,0.2,6.4-0.5,9.4,0.6c2.5,1,2.8,4,2.6,6.3c-0.2,2.6,0.6,5.6-1.1,7.9c-1.6,1.9-4.4,1.7-6.7,1.7
	c0,2.8,0,5.6,0,8.4c-1.4,0-2.8,0-4.2,0C-68.2,326.3-68.2,318-68.2,309.6 M-63.9,313.1c0,3.3,0,6.6,0,9.8c1.2-0.1,3.1,0.2,3.4-1.3
	c0.2-2.3,0.2-4.7,0-7C-60.6,312.8-62.7,313.1-63.9,313.1z"/>
<path class="st1" d="M-50.2,309.7c2.6-0.7,5.9-0.4,7.6,1.9c1.8,2.5,1.2,5.7,1.3,8.5c-0.2,3.6,0.4,7.3-0.4,10.9
	c-1.5,5.5-10.9,5.2-12-0.4c-0.6-4.8-0.1-9.6-0.3-14.4C-54.2,313.5-52.9,310.5-50.2,309.7 M-48.6,313.1c-1.3,0.6-1.2,2.2-1.2,3.4
	c0.1,4.4-0.1,8.8,0.1,13.2c0.2,2.3,4.1,2.1,4.1-0.2c0.1-4.8,0.1-9.7,0-14.5C-45.6,313.4-47.3,312.4-48.6,313.1z"/>
<path class="st1" d="M-40.4,309.6c1.4,0,2.9,0,4.3,0c1,5.7,1.9,11.4,2.9,17.2c1.1-5.7,1.9-11.4,2.9-17.2c1.3,0,2.6,0,4,0
	c-1.6,8.2-3.1,16.5-4.7,24.7c-1.4,0.5-3.1,0.1-4.6,0.1C-37.2,326.2-38.8,317.9-40.4,309.6z"/>
<path class="st1" d="M-24.6,309.6c3.3,0,6.7,0,10,0c0,1.1,0,2.3,0,3.4c-1.9,0-3.9,0-5.8,0c0,2.4,0,4.7,0,7.1c1.4,0,2.8,0,4.1,0
	c0,1.1,0,2.3,0,3.4c-1.4,0-2.8,0-4.1,0c0,2.5,0,5,0,7.5c1.9,0,3.9,0,5.8,0c0,1.1,0,2.3,0,3.4c-3.4,0-6.7,0-10,0
	C-24.6,326.3-24.6,318-24.6,309.6z"/>
<path class="st1" d="M-12.4,309.6c3.3,0.3,6.9-0.7,9.9,0.9c2.7,1.8,1.9,5.5,2,8.3c0.1,2.1-1.3,3.9-3.3,4.5c1.3,3.7,2.7,7.5,4,11.2
	c-1.5,0-3,0-4.4,0c-1.3-3.7-2.5-7.4-3.9-11.1c-0.1,3.7,0,7.4,0,11.1c-1.4,0-2.8,0-4.2,0C-12.4,326.3-12.4,318-12.4,309.6
	 M-8.2,313.1c0,2.6,0,5.2,0,7.8c1.1-0.1,2.8,0.2,3.2-1.1c0.3-1.8,0.3-3.6,0.1-5.4C-5.2,312.9-7,313.1-8.2,313.1z"/>
<path class="st1" d="M0.9,309.6c3.7,0,7.4,0,11.2,0c0,1.1,0,2.3,0,3.4c-1.2,0-2.3,0-3.5,0c0,7.2,0,14.3,0,21.5c-1.4,0-2.8,0-4.2,0
	c0-7.2,0-14.3,0-21.5c-1.2,0-2.3,0-3.5,0C0.9,311.9,0.9,310.8,0.9,309.6z"/>
<path class="st1" d="M13.2,309.7c1.5,0,2.9,0,4.4,0c0.9,3.1,1.7,6.3,2.6,9.4c0.9-3.1,1.7-6.3,2.5-9.4c1.3,0,2.7,0,4,0
	c-1.5,5.1-3.1,10.1-4.5,15.1c-0.3,3.3,0,6.5-0.1,9.8c-1.4,0-2.8,0-4.2,0c-0.1-3.2,0.1-6.5-0.1-9.7C16.4,319.8,14.7,314.8,13.2,309.7
	z"/>
<path class="st1" d="M-99.8,382.4c5.8-1.9,12,4,10.2,9.8c-1.2,5.9-9.3,8.3-13.6,4.1C-107.7,392.3-105.7,383.8-99.8,382.4z"/>
<path class="st1" d="M80.7,382.3c3.1-0.9,6.6,0.2,8.6,2.8c2.4,2.8,2.4,7.3,0.1,10.2c-2,2.7-5.9,3.9-9.1,2.7
	c-3.4-1.1-5.8-4.5-5.6-8.1C74.8,386.5,77.3,383.2,80.7,382.3z"/>
<path class="st1" d="M-29.9,387c3.5-1,7.4,0.9,8.9,4.1c1.7,3.3,0.6,7.6-2.4,9.7c-3.2,2.4-8.1,1.7-10.6-1.4
	C-37.6,395.3-35.2,388.1-29.9,387z"/>
<path class="st1" d="M16.6,387c3.2-0.8,6.7,0.6,8.4,3.5c1.9,3,1.4,7.2-1.2,9.6c-2.4,2.4-6.4,2.9-9.3,1.2c-2.6-1.4-4.2-4.5-3.9-7.4
	C10.9,390.6,13.4,387.7,16.6,387z"/>
<path class="st1" d="M-116.9,411.8c0.2-5.4,4.9-10.2,10.4-10.3c6,0,12,0,18,0c5.5,0,10.4,4.8,10.5,10.3c0,7.4,0,14.8,0,22.2
	c1-0.6,2.4-1.1,3.4-0.2c2.2,2.4,3,6.1,5.8,7.8c3.1,0.3,6.3,0.2,9.4,0c3-1.7,3.7-5.6,6-8c1-0.8,2.2-0.3,3.2,0.1
	c2-7.1,4.3-14,6.4-21.1c1-3.3,3.8-6.8,7.5-6.9c5.5,0,11,0,16.5,0c3.7-0.1,6.4,3.2,7.6,6.4c2.1,6.8,4.2,13.5,6.2,20.3
	c0.6,1.8,0.3,4.3-1.7,5c-1.9,0.9-4-0.4-4.5-2.3c-1.9-6.1-3.6-12.3-5.5-18.3c-0.5-1.4-2.2-0.2-1.7,0.9c2.9,11,6.1,22,9,33
	c-2.8,0-5.6,0-8.4,0c0,7.8,0,15.6,0,23.4c0.1,2.3-1.9,4.2-4.2,4.1c-2.1,0-4-2-3.9-4.1c0-7.8,0-15.6,0-23.4c-0.8,0-1.5,0-2.2,0
	c0,7.8,0,15.6,0,23.4c0.1,2.2-1.8,4.2-4,4.1c-2.2,0.1-4.2-1.9-4-4.1c0-7.8,0-15.6,0-23.4c-2.8,0-5.6,0-8.4,0c3-11,6.1-21.9,9-32.9
	c0.6-1.1-1-2.3-1.6-1.1c-2.2,6.3-3.7,12.8-5.9,19.1c-1,2.4-4.3,2.4-5.8,0.4c-2,4.1-4.4,7.9-6.5,11.9c-0.7,1.5-0.6,3.2-0.2,4.7
	c1.1,3.9,2.2,7.9,3.2,11.8c-1.2,0-2.3,0-3.5,0c-0.1,3.8,0.2,7.5-0.1,11.3c-0.7,3-5.5,2.9-6.1-0.1c-0.3-3.7,0-7.5-0.1-11.2
	c-0.6,0-1.2,0-1.9,0c-0.1,3.8,0.2,7.5-0.1,11.3c-0.7,2.9-5.4,2.9-6.1-0.1c-0.3-3.7,0-7.5-0.1-11.2c-1.1,0-2.3,0-3.4,0
	c1-3.9,2.1-7.8,3.2-11.6c0.4-1.7,0.5-3.7-0.4-5.3c-2.1-3.8-4.2-7.5-6.3-11.3c-1.5,2.3-5.6,1.9-6-1c-0.2-6.8,0-13.5-0.1-20.3
	c0.2-1.2-1.6-2.1-2.4-1c-0.5,1.2-0.3,2.5-0.3,3.7c0,18.6,0,37.3,0,55.9c0.1,2.4-2.2,4.5-4.6,4.4c-2.4,0-4.5-2.1-4.5-4.4
	c-0.1-11.3,0.1-22.7-0.1-34c0-1.4-2.5-1.4-2.4,0c-0.1,11.3,0,22.7-0.1,34c0,2.4-2.2,4.5-4.7,4.4c-2.4,0-4.5-2.1-4.5-4.4
	c-0.1-19.5,0-39.1-0.1-58.6c0.3-1.9-2.8-1.8-2.6,0c-0.1,6.6,0,13.3-0.1,19.9c0,1.2-0.9,2.1-1.8,2.8c-2.4,13-4.9,26.1-7.4,39.1
	c-0.2,2-3.6,1.7-3.4-0.4c2.3-13,4.9-26,7.3-39.1c-0.6-0.8-1.2-1.7-1.1-2.8C-117,427.2-117,419.5-116.9,411.8z"/>
<path class="st1" d="M71.7,401.8c6.4-0.7,12.9-0.1,19.4-0.3c5.7-0.3,11.1,4.6,11.2,10.3c0,7.9,0.1,15.9,0,23.8
	c-0.3,3.3-5.7,3.5-6.2,0.2c-0.3-6.9,0.1-13.9-0.2-20.8c-0.2-1.6-2.8-1.3-2.5,0.4c-0.1,19.5,0,39.1-0.1,58.6c0,2.4-2.2,4.5-4.6,4.4
	c-2.4,0.1-4.6-2-4.5-4.4c0-11.2,0-22.4,0-33.6c0.4-1.6-2.4-2-2.5-0.4c-0.2,11.3,0,22.7-0.1,34c0,2.4-2.2,4.5-4.6,4.4
	c-2.4,0.1-4.6-2-4.5-4.4c0-19.5,0.1-39.1-0.1-58.6c0.3-1.7-2.3-1.9-2.5-0.4c-0.3,7,0.2,14-0.2,20.9c-0.6,3.2-5.9,3-6.2-0.3
	c-0.1-7.8,0-15.6-0.1-23.4C63.4,407.4,67,402.9,71.7,401.8z"/>
<path class="st1" d="M2.7,412.5c1.1-3.2,3.9-6.5,7.5-6.5c5.5,0,11,0,16.5,0c3.7,0,6.4,3.3,7.5,6.5c2.1,6.8,4.2,13.6,6.2,20.4
	c0.6,1.8,0.2,4.3-1.9,4.9c-1.8,0.8-3.7-0.5-4.2-2.3c-1.9-6.1-3.6-12.3-5.5-18.3c-0.4-1.5-2.4-0.3-1.7,0.9c2.9,11,6,21.9,9,32.9
	c-2.8,0-5.6,0-8.4,0c0,7.8,0,15.6,0,23.3c0.1,2.2-1.9,4.2-4.1,4.1c-2.2,0-4.1-1.9-4-4.1c0-7.8,0-15.6,0-23.4c-0.7,0-1.5,0-2.2,0
	c0,7.8,0,15.6,0,23.4c0.1,2.3-2,4.3-4.2,4.1c-2.1-0.1-3.9-2-3.9-4.1c0-7.8,0-15.6,0-23.4c-2.8,0-5.6,0-8.4,0c3-11,6.1-21.9,9-32.9
	c0.6-1.2-1.3-2.4-1.7-0.9c-1.9,6.1-3.6,12.2-5.5,18.3c-0.5,1.8-2.4,3.1-4.2,2.3c-2.1-0.6-2.6-3.2-1.9-5
	C-1.5,426,0.6,419.2,2.7,412.5z"/>
<path class="st1" d="M-64.2,424.9c4.8-0.4,8.4,5.5,5.8,9.7c-2.2,4.3-9,4.3-11.2,0.1C-72.2,430.7-69,424.8-64.2,424.9z"/>
<path class="st1" d="M51.8,424.9c4-0.4,7.5,3.6,6.7,7.5c-0.4,3.4-3.9,6-7.3,5.4c-3.1-0.4-5.7-3.3-5.6-6.4
	C45.6,428,48.5,425,51.8,424.9z"/>
<path class="st1" d="M42.6,443.4c0.8-1.6,2.4-3.1,4.3-3c3.8,0,7.6-0.2,11.3,0.1c2,0.1,3.6,1.6,4.3,3.4c1.6,4.3,3.5,8.6,5.1,13
	c0.8,1.9-1.6,4.1-3.4,2.9c-1.9-3.7-2.7-7.8-4.5-11.6c-0.3,9.2,0.1,18.4-0.2,27.6c-0.4,3.2-5.6,3.5-6.4,0.4
	c-0.5-4.1,0.1-8.2-0.3-12.3c-0.2-1-1.9-0.8-1.8,0.2c-0.2,4,0.2,8-0.2,11.9c-0.8,3.2-5.9,3-6.4-0.2c-0.3-9.2,0.1-18.4-0.2-27.6
	c-1.9,3.8-2.5,8.1-4.1,11.9c-0.9,1.5-3.6,1-3.8-0.8c-0.1-1.4,0.6-2.7,1-3.9C39.2,451.5,40.5,447.3,42.6,443.4z"/>
</svg>
