<?xml version="1.0" encoding="utf-8"?>
<!-- Generator: Adobe Illustrator 19.0.0, SVG Export Plug-In . SVG Version: 6.00 Build 0)  -->
<svg version="1.1" id="Layer_1" xmlns="http://www.w3.org/2000/svg" xmlns:xlink="http://www.w3.org/1999/xlink" x="0px" y="0px"
	 viewBox="312 247 300 300" style="enable-background:new 312 247 300 300;" xml:space="preserve">
<style type="text/css">
	.st0{fill:#E11484;}
	.st1{fill:#FFFFFF;}
</style>
<g>
	<rect x="312" y="247" class="st0" width="300" height="300"/>
	<path class="st1" d="M374.3,273.4c5.5-0.3,11.3,2.3,13.5,7.6c1.4,2.9,1.7,6.2,1.7,9.4c0,9.8,0.1,19.5,0,29.3
		c-0.1,5.4-2.6,11.2-7.8,13.4c-5,2.1-11.1,2-15.7-0.9c-4.4-2.8-6.1-8.2-6.1-13.2c0-9.9,0-19.8,0-29.7c0-4.6,1.4-9.7,5.1-12.7
		C367.5,274.3,370.9,273.4,374.3,273.4 M373.4,281.9c-2.6,0.5-3.6,3.4-3.5,5.7c0,10.4,0,20.9,0,31.3c0,1.7,0,3.5,0.8,5
		c1.5,2.9,6.5,2.9,7.9-0.1c1-2,0.8-4.3,0.8-6.5c-0.1-10.2,0.1-20.5-0.1-30.7C379.4,283.6,376.5,281,373.4,281.9z"/>
	<path class="st1" d="M344.9,274.1c2.7,0,5.3,0,8,0c0,19.9,0,39.8,0,59.6c-3.4,0-6.7,0-10.1,0c0-15.2,0-30.4,0-45.6
		c-2.4,2.5-4.8,5-7.2,7.4c0-3.3,0-6.6,0-9.9c-0.1-0.8,0.5-1.4,1-1.9C339.4,280.5,342.1,277.3,344.9,274.1z"/>
	<path class="st1" d="M423.8,274.2c3.3,0,6.7,0,10.1,0c0,1.2,0,2.3,0,3.5c-1.9,0-3.9,0-5.8,0c0,2.4,0,4.7,0,7.1c1.4,0,2.8,0,4.1,0
		c0,1.1,0,2.3,0,3.4c-1.4,0-2.8,0-4.1,0c0,2.5,0,5,0,7.5c1.9,0,3.9,0,5.8,0c0,1.2,0,2.3,0,3.5c-3.4,0-6.7,0-10.1,0
		C423.8,290.8,423.8,282.5,423.8,274.2z"/>
	<path class="st1" d="M450.9,274.2c1.4,0,2.8,0,4.2,0c0.1,6.6-0.1,13.2,0.1,19.7c-0.2,2.4,3.8,2.7,3.9,0.3c0.2-6.7,0-13.4,0.1-20.1
		c1.3,0,2.6,0,3.9,0c0,6.5,0,12.9,0,19.4c0,2.1-0.8,4.4-2.8,5.3c-2.1,0.9-4.6,0.8-6.6-0.1c-2-1-2.8-3.4-2.8-5.6
		C450.9,286.8,450.9,280.5,450.9,274.2z"/>
	<path class="st1" d="M465.7,278.4c0.7-4.6,7-5.8,10.3-3.2c2.1,2,1.6,5.3,1.7,7.9c-1.3,0-2.6,0-3.9,0c-0.1-1.6,0.2-3.2-0.3-4.7
		c-0.8-1.8-3.9-1-3.8,1c-0.1,4.8-0.1,9.7,0,14.5c-0.1,2,2.9,2.7,3.8,1c0.5-2,0.2-4,0.3-6c1.3,0,2.6,0,3.9,0
		c-0.1,2.7,0.4,5.6-0.9,8.1c-1.6,2.7-5.4,2.9-8.1,1.9c-2.6-1-3.4-4-3.3-6.5C465.6,287.7,465.2,283,465.7,278.4z"/>
	<path class="st1" d="M409.7,274.2c3.2,0.2,6.6-0.6,9.6,0.7c3,1.7,2.3,5.6,2.3,8.5c0.1,2.1-1.2,4-3.3,4.6c1.3,3.7,2.7,7.4,3.9,11.2
		c-1.5,0-3,0-4.5,0c-1.3-3.7-2.5-7.4-3.9-11.1c-0.1,3.7,0,7.4,0,11.1c-1.4,0-2.8,0-4.2,0C409.7,290.8,409.7,282.5,409.7,274.2
		 M413.9,277.6c0,2.6,0,5.2,0,7.8c1.1-0.1,2.8,0.2,3.3-1.2c0.3-1.8,0.2-3.6,0-5.3C416.9,277.4,415.1,277.7,413.9,277.6z"/>
	<path class="st1" d="M436,274.2c2.9,0.1,5.8-0.3,8.7,0.3c2.6,0.6,3.8,3.3,3.9,5.7c0.1,4.3,0.1,8.6,0,12.9c0,2.4-1.3,5.1-3.9,5.7
		c-2.9,0.5-5.8,0.1-8.7,0.3C436,290.8,436,282.5,436,274.2 M440.3,277.6c0,6,0,12,0,18.1c1.5,0,3.8,0.2,4-1.8
		c0.1-4.8,0.1-9.6,0-14.4C444.1,277.5,441.8,277.6,440.3,277.6z"/>
	<path class="st1" d="M479.9,274.2c3.4,0,6.7,0,10.1,0c0,1.2,0,2.3,0,3.5c-1.9,0-3.9,0-5.8,0c0,2.4,0,4.7,0,7.1c1.4,0,2.8,0,4.1,0
		c0,1.1,0,2.3,0,3.4c-1.4,0-2.8,0-4.1,0c0,2.5,0,5,0,7.5c1.9,0,3.9,0,5.8,0c0,1.2,0,2.3,0,3.5c-3.4,0-6.7,0-10.1,0
		C479.9,290.8,479.9,282.5,479.9,274.2z"/>
	<path class="st1" d="M492.1,274.2c2.9,0.1,6-0.3,8.9,0.3c2.5,0.6,3.7,3.3,3.7,5.7c0.1,4.3,0.1,8.6,0,12.9c0,2.5-1.4,5.3-4,5.8
		c-2.8,0.5-5.7,0.1-8.5,0.2C492.1,290.8,492.1,282.5,492.1,274.2 M496.3,277.6c0,6,0,12,0,18.1c1.5,0,3.8,0.2,4-1.8
		c0.1-4.8,0.1-9.6,0-14.4C500.2,277.4,497.8,277.6,496.3,277.6z"/>
	<path class="st1" d="M444.4,310.3c3.2-3,9.9-1.8,10.7,2.9c0.5,4.6,0.1,9.2,0.2,13.8c0.2,2.4-0.7,4.9-2.8,6.3
		c0.9,0.2,1.9,0.4,2.8,0.5c0,1.1,0,2.1,0,3.2c-2.6-0.5-5.3-1-7.9-1.5c0-0.5-0.1-1.1-0.1-1.6c-2.4-0.5-4.4-2.5-4.6-5
		c-0.2-4.3,0-8.6-0.1-12.9C442.6,314.1,442.9,311.8,444.4,310.3 M448.5,312.3c-1.6,0.3-1.6,2.1-1.6,3.4c0.1,4.5-0.2,9,0.1,13.5
		c0.2,2.3,4,2.1,4-0.2c0.2-4.8,0.1-9.7,0-14.5C451.2,313.1,449.9,311.9,448.5,312.3z"/>
	<path class="st1" d="M536.2,311.4c1.6-3.1,5.9-3.3,8.7-2.1c2.6,1.3,2.6,4.6,2.5,7.1c-1.3,0-2.6,0-3.9,0c0-1.1,0.1-2.1-0.2-3.2
		c-0.6-1.7-3.7-1.4-3.7,0.5c-0.5,2.2,1.4,3.7,2.8,5.1c2,2.2,4.9,4.2,5.2,7.4c0.2,2.5,0.1,5.7-2.4,7.1c-2.5,1.3-5.9,1.3-8.1-0.6
		c-2-2-1.4-5.1-1.5-7.6c1.3,0,2.6,0,3.9,0c0,1.5-0.2,3,0.2,4.5c0.7,1.7,3.8,1.3,3.7-0.7c0.8-3.8-3.2-5.8-5.2-8.2
		C535.6,318.5,534.9,314.6,536.2,311.4z"/>
	<path class="st1" d="M409.7,309c1.4,0,2.8,0,4.2,0c0,8.3,0,16.6,0,25c-1.4,0-2.8,0-4.2,0C409.7,325.7,409.7,317.3,409.7,309z"/>
	<path class="st1" d="M416.3,309c1.4,0,2.8,0,4.2,0c1.5,4.6,2.9,9.3,4.4,13.9c0.1-4.6,0-9.3,0-13.9c1.2,0,2.3,0,3.5,0
		c0,8.3,0,16.6,0,25c-1.2,0-2.5,0-3.7,0c-1.6-5.1-3.2-10.2-4.8-15.3c-0.1,5.1,0,10.2,0,15.3c-1.2,0-2.4,0-3.6,0
		C416.3,325.7,416.3,317.3,416.3,309z"/>
	<path class="st1" d="M430.8,309c3.3,0,6.7,0,10,0c0,1.2,0,2.3,0,3.5c-1.9,0-3.8,0-5.8,0c0,2.4,0,4.7,0,7.1c1.4,0,2.7,0,4.1,0
		c0,1.1,0,2.3,0,3.4c-1.4,0-2.7,0-4.1,0c0,2.5,0,5,0,7.5c1.9,0,3.8,0,5.8,0c0,1.2,0,2.3,0,3.5c-3.3,0-6.7,0-10,0
		C430.8,325.7,430.8,317.3,430.8,309z"/>
	<path class="st1" d="M457.7,309c1.4,0,2.8,0,4.2,0c0.1,6.7-0.1,13.4,0.1,20c0.1,2.2,3.8,2.2,3.9,0c0.2-6.7,0-13.4,0.1-20
		c1.3,0,2.6,0,3.9,0c0,6.6,0,13.1,0,19.7c0.1,2.6-1.7,5.2-4.4,5.5c-3.3,0.8-7.5-0.9-7.7-4.7C457.6,322.6,457.8,315.8,457.7,309z"/>
	<path class="st1" d="M475.7,309c1.6,0,3.2,0,4.9,0.1c1.5,8.3,3.2,16.6,4.7,24.9c-1.5,0-2.9,0-4.4,0c-0.3-1.5-0.5-3-0.8-4.5
		c-1.5,0-2.9,0-4.4,0c-0.2,1.5-0.5,3-0.7,4.5c-1.3,0-2.7,0-4,0C472.5,325.7,474.1,317.3,475.7,309 M477.9,316.4
		c-0.6,3.2-1.1,6.4-1.6,9.6c1.1,0,2.1,0,3.2,0C479,322.8,478.5,319.6,477.9,316.4z"/>
	<path class="st1" d="M486.9,309c1.4,0,2.8,0,4.3,0c0,7.2,0,14.3,0,21.5c1.6,0,3.3,0,5,0c-0.1,1.1,0.3,2.5-0.2,3.4c-3,0.2-6,0-9,0.1
		C486.9,325.7,486.9,317.3,486.9,309z"/>
	<path class="st1" d="M498,309c1.4,0,2.8,0,4.2,0c0,8.3,0,16.6,0,25c-1.4,0-2.8,0-4.2,0C498,325.7,498,317.3,498,309z"/>
	<path class="st1" d="M504.1,309c3.7,0,7.5,0,11.2,0c0,1.2,0,2.3,0,3.5c-1.1,0-2.3,0-3.4,0c0,7.2,0,14.3,0,21.5c-1.4,0-2.8,0-4.3,0
		c0-7.2,0-14.3,0-21.5c-1.2,0-2.3,0-3.5,0C504.1,311.3,504.1,310.2,504.1,309z"/>
	<path class="st1" d="M517.2,309c1.4,0,2.8,0,4.3,0c0,8.3,0,16.6,0,25c-1.4,0-2.8,0-4.3,0C517.2,325.7,517.2,317.3,517.2,309z"/>
	<path class="st1" d="M523.8,309c3.3,0,6.7,0,10,0c0,1.2,0,2.3,0,3.5c-1.9,0-3.9,0-5.8,0c0,2.4,0,4.7,0,7.1c1.4,0,2.8,0,4.2,0
		c0,1.1,0,2.3,0,3.4c-1.4,0-2.8,0-4.2,0c0,2.5,0,5,0,7.5c1.9,0,3.9,0,5.8,0c0,1.2,0,2.3,0,3.5c-3.3,0-6.7,0-10,0
		C523.8,325.7,523.8,317.3,523.8,309z"/>
	<path class="st1" d="M425.6,374.6c12.7-7.4,27.7-10.8,42.3-9.6c15.8,1.2,31.1,7.8,42.8,18.4c1,0.8,1,2.4,0,3.3
		c-2.6,2.6-5.2,5.2-7.9,7.8c-0.9,0.9-2.4,0.9-3.2,0c-9.1-8.1-20.8-13.4-32.9-14.7c-14.7-1.6-29.9,2.5-41.7,11.4
		c-10.6,7.9-18.4,19.4-21.8,32.1c-4.8,17.4-0.9,36.9,10.1,51.1c7.4,10.5,18.1,18.6,30.2,22.9c12.9,4.6,27.4,4.8,40.4,0.5
		c13.3-4.3,25.1-13.3,32.8-25c10.7-16.1,13.4-37.2,6.7-55.4c-2.2-6.2-5.5-12-8.7-17.7c11.8,14.6,16.6,34.3,13.6,52.7
		c-3.4,22.6-19,42.8-39.9,51.9c-19.5,8.8-43.2,7.6-61.7-3.1c-10.8-6.3-20.3-15.2-26.8-25.9c-7.6-12.5-11.3-27.4-10.5-42.1
		C390.8,409.4,404.8,386.6,425.6,374.6z"/>
	<path class="st1" d="M432.8,419.3c20.1-0.2,40.2-0.2,60.3,0c0.1,4.8,0,9.6,0,14.5c-17.3,0.4-34.6,0.1-51.9,0.2
		c-2.8-0.1-5.7,0.2-8.5-0.2C432.8,429,432.7,424.1,432.8,419.3z"/>
	<path class="st1" d="M432.8,445.4c-0.1-0.7,0.4-1.2,1.1-1.1c19.3,0,38.6,0,57.9,0c0.5,0,1.5-0.1,1.4,0.7c0,4.6,0.1,9.3,0,13.9
		c-20.1,0.1-40.2,0.1-60.2,0C432.7,454.5,432.8,449.9,432.8,445.4z"/>
</g>
</svg>
