<?xml version="1.0" encoding="utf-8"?>
<!-- Generator: Adobe Illustrator 19.0.0, SVG Export Plug-In . SVG Version: 6.00 Build 0)  -->
<svg version="1.1" id="Layer_1" xmlns="http://www.w3.org/2000/svg" xmlns:xlink="http://www.w3.org/1999/xlink" x="0px" y="0px"
	 viewBox="0 0 200 100" style="enable-background:new 0 0 200 100;" xml:space="preserve">
<style type="text/css">
	.st0{fill:#FFFFFF;}
	.st1{fill:#E11484;}
</style>
<g id="XMLID_1_">
	<g id="XMLID_2_">
		<rect id="XMLID_39_" class="st0" width="100" height="100"/>
		<path id="XMLID_36_" class="st1" d="M20.2,8.8c1.5-0.1,3.1,0.1,4.2,1.2c1.1,1.1,1.5,2.7,1.5,4.2c0,3.2,0,6.4,0,9.7
			c0,1.5-0.4,3-1.6,4c-1.1,1-2.6,1.3-4,1.1c-1.2-0.1-2.3-0.5-3.1-1.4c-0.9-1-1.3-2.5-1.3-3.9c0-3.3,0-6.5,0-9.8
			c0-1.4,0.3-2.8,1.2-3.8C17.9,9.4,19,8.9,20.2,8.8 M20.3,11.7c-0.8,0.2-1.1,1.2-1.1,1.9c0,3.6,0,7.2,0,10.7c0,0.7,0.1,1.5,0.8,1.8
			c0.6,0.3,1.6,0.3,2-0.3c0.3-0.5,0.4-1,0.4-1.6c0-3.5,0-7,0-10.5c0-0.6-0.1-1.2-0.5-1.6C21.6,11.6,20.9,11.5,20.3,11.7z"/>
		<path id="XMLID_35_" class="st1" d="M11,9c0.9,0,1.8,0,2.7,0c0,6.6,0,13.2,0,19.9c-1.1,0-2.2,0-3.4,0c0-5.1,0-10.1,0-15.2
			c-0.8,0.8-1.6,1.7-2.4,2.5c0-1.1,0-2.2,0-3.3c0-0.2,0.1-0.4,0.2-0.5C9.1,11.3,10,10.1,11,9z"/>
		<path id="XMLID_34_" class="st1" d="M52.4,9.1c0.8-0.2,1.8-0.2,2.4,0.4c0.6,0.7,0.4,1.7,0.4,2.5c-0.4,0-0.8,0-1.3,0
			c0-0.5,0.1-1-0.1-1.5c-0.2-0.6-1.3-0.4-1.3,0.3c0,1.6,0,3.2,0,4.9c0,0.7,1,0.9,1.3,0.3c0.2-0.6,0-1.3,0.1-2c0.4,0,0.8,0,1.3,0
			c0,0.9,0.2,1.9-0.3,2.8c-0.5,0.8-1.7,0.9-2.5,0.6c-0.8-0.2-1.2-1.1-1.2-1.9c0-1.4,0-2.9,0-4.3C51.1,10.3,51.5,9.4,52.4,9.1z"/>
		<path id="XMLID_31_" class="st1" d="M32.6,9.1c0.8,0,1.7,0,2.5,0c0.6,0,1.2,0.4,1.4,1.1c0.2,0.7,0.1,1.5,0.1,2.2
			c0,0.6-0.5,1.1-1.1,1.2c0.4,1.2,0.9,2.5,1.3,3.7c-0.5,0-1,0-1.5,0c-0.4-1.2-0.8-2.5-1.3-3.7c0,1.2,0,2.5,0,3.7c-0.5,0-0.9,0-1.4,0
			C32.6,14.6,32.6,11.8,32.6,9.1 M34,10.2c0,0.9,0,1.7,0,2.6c0.4,0,1,0.1,1.1-0.4c0.1-0.6,0.1-1.2,0-1.7C35,10.1,34.4,10.2,34,10.2z
			"/>
		<path id="XMLID_30_" class="st1" d="M37.3,9.1c1.1,0,2.2,0,3.3,0c0,0.4,0,0.8,0,1.1c-0.6,0-1.3,0-1.9,0c0,0.8,0,1.6,0,2.4
			c0.5,0,0.9,0,1.4,0c0,0.4,0,0.8,0,1.1c-0.5,0-0.9,0-1.4,0c0,0.8,0,1.7,0,2.5c0.6,0,1.3,0,1.9,0c0,0.4,0,0.8,0,1.1
			c-1.1,0-2.2,0-3.3,0C37.3,14.6,37.3,11.8,37.3,9.1z"/>
		<path id="XMLID_27_" class="st1" d="M41.4,9.1c1.1,0.1,2.3-0.3,3.4,0.3c0.6,0.4,0.8,1.2,0.8,2c0,1.4,0,2.8,0,4.2
			c0,0.8-0.6,1.7-1.4,1.8c-0.9,0.1-1.8,0-2.7,0C41.3,14.6,41.3,11.8,41.4,9.1 M42.8,10.2c0,2,0,4,0,6c0.5,0,1.3,0.1,1.3-0.6
			c0.1-1.4,0-2.9,0-4.3c0-0.3,0-0.7-0.3-1C43.5,10.1,43.1,10.2,42.8,10.2z"/>
		<path id="XMLID_26_" class="st1" d="M46.3,9.1c0.5,0,0.9,0,1.4,0c0,2.2,0,4.3,0,6.5c0,0.4,0.3,0.8,0.7,0.8c0.4,0,0.7-0.4,0.6-0.8
			c0-2.2,0-4.3,0-6.5c0.4,0,0.9,0,1.3,0c0,2.1,0,4.3,0,6.4c0,0.7-0.2,1.5-0.9,1.8c-0.7,0.3-1.6,0.3-2.3-0.1
			c-0.6-0.3-0.9-1.1-0.9-1.7C46.3,13.3,46.3,11.2,46.3,9.1z"/>
		<path id="XMLID_25_" class="st1" d="M56,9.1c1.1,0,2.2,0,3.3,0c0,0.4,0,0.8,0,1.1c-0.6,0-1.3,0-1.9,0c0,0.8,0,1.6,0,2.4
			c0.5,0,0.9,0,1.4,0c0,0.4,0,0.8,0,1.1c-0.5,0-0.9,0-1.4,0c0,0.8,0,1.7,0,2.5c0.6,0,1.3,0,1.9,0c0,0.4,0,0.8,0,1.1
			c-1.1,0-2.2,0-3.3,0C56,14.6,56,11.8,56,9.1z"/>
		<path id="XMLID_22_" class="st1" d="M60,9.1c1.1,0.1,2.2-0.2,3.2,0.2c0.7,0.3,0.9,1.1,0.9,1.8c0,1.4,0,2.7,0,4.1
			c0,0.7-0.2,1.5-0.9,1.9c-1,0.5-2.2,0.2-3.3,0.2C60,14.6,60,11.8,60,9.1 M61.4,10.2c0,2,0,4,0,6c0.5,0,1.3,0.1,1.3-0.6
			c0.1-1.4,0-2.9,0-4.3c0-0.3,0-0.8-0.3-1C62.2,10.1,61.8,10.2,61.4,10.2z"/>
		<path id="XMLID_19_" class="st1" d="M44.6,20.8c0.7-0.3,1.5-0.3,2.2,0.1c0.7,0.4,1,1.2,0.9,1.9c0,1.4,0,2.9,0,4.3
			c0,0.7-0.4,1.4-1,1.7c0.3,0.1,0.7,0.1,1,0.2c0,0.3,0,0.7,0,1c-0.9-0.2-1.8-0.3-2.6-0.5c0-0.2,0-0.4,0-0.5
			c-0.9-0.1-1.5-0.9-1.6-1.8c0-1.5,0-3,0-4.5C43.5,22,43.9,21.1,44.6,20.8 M45.3,21.8c-0.4,0.2-0.4,0.6-0.4,0.9c0,1.5,0,3,0,4.5
			c0,0.4,0.3,0.8,0.7,0.7c0.4,0,0.7-0.4,0.7-0.8c0-1.6,0-3.1,0-4.7C46.4,21.9,45.8,21.6,45.3,21.8z"/>
		<path id="XMLID_18_" class="st1" d="M75.3,20.9c0.8-0.4,1.7-0.4,2.5,0.1c0.7,0.5,0.7,1.5,0.6,2.2c-0.4,0-0.9,0-1.3,0
			c0-0.4,0.1-0.8-0.1-1.1c-0.3-0.5-1.2-0.4-1.2,0.2c-0.2,0.8,0.6,1.3,1.1,1.8c0.6,0.7,1.5,1.3,1.6,2.3c0.1,0.8,0.1,1.9-0.7,2.4
			c-0.8,0.5-2,0.5-2.7-0.1c-0.7-0.6-0.5-1.7-0.5-2.6c0.4,0,0.9,0,1.3,0c0,0.5,0,1,0,1.4c0.1,0.6,1.1,0.6,1.2,0
			c0.1-0.4,0.1-0.9-0.2-1.3c-0.7-0.9-1.8-1.5-2.3-2.6C74.4,22.6,74.4,21.4,75.3,20.9z"/>
		<path id="XMLID_17_" class="st1" d="M32.6,20.7c0.5,0,0.9,0,1.4,0c0,2.8,0,5.5,0,8.3c-0.5,0-0.9,0-1.4,0
			C32.6,26.2,32.6,23.4,32.6,20.7z"/>
		<path id="XMLID_16_" class="st1" d="M34.8,20.7c0.5,0,0.9,0,1.4,0c0.5,1.6,1,3.1,1.5,4.7c0-1.6,0-3.1,0-4.7c0.4,0,0.8,0,1.2,0
			c0,2.8,0,5.5,0,8.3c-0.4,0-0.8,0-1.2,0c-0.5-1.7-1.1-3.4-1.6-5.2c0,1.7,0,3.4,0,5.2c-0.4,0-0.8,0-1.2,0
			C34.8,26.2,34.8,23.4,34.8,20.7z"/>
		<path id="XMLID_15_" class="st1" d="M39.6,20.7c1.1,0,2.2,0,3.3,0c0,0.4,0,0.8,0,1.1c-0.6,0-1.3,0-1.9,0c0,0.8,0,1.6,0,2.4
			c0.5,0,0.9,0,1.4,0c0,0.4,0,0.8,0,1.1c-0.5,0-0.9,0-1.4,0c0,0.8,0,1.7,0,2.5c0.6,0,1.3,0,1.9,0c0,0.4,0,0.8,0,1.1
			c-1.1,0-2.2,0-3.3,0C39.6,26.2,39.6,23.4,39.6,20.7z"/>
		<path id="XMLID_14_" class="st1" d="M48.6,20.7c0.5,0,0.9,0,1.4,0c0,2.2,0,4.4,0,6.7c0,0.8,1.4,0.7,1.3-0.1c0-2.2,0-4.4,0-6.6
			c0.4,0,0.9,0,1.3,0c0,2.1,0,4.3,0,6.4c0,0.7-0.2,1.5-0.9,1.8c-0.7,0.3-1.6,0.3-2.3-0.1c-0.6-0.3-0.9-1.1-0.9-1.7
			C48.6,24.9,48.6,22.8,48.6,20.7z"/>
		<path id="XMLID_11_" class="st1" d="M54.6,20.7c0.5,0,1.1,0,1.6,0c0.5,2.8,1.1,5.5,1.6,8.3c-0.5,0-1,0-1.4,0
			c-0.1-0.5-0.2-1-0.3-1.5c-0.5,0-1,0-1.5,0c-0.1,0.5-0.2,1-0.2,1.5c-0.4,0-0.9,0-1.3,0C53.5,26.2,54,23.4,54.6,20.7 M55.3,23
			c-0.2,1.1-0.4,2.2-0.5,3.3c0.4,0,0.7,0,1.1,0C55.7,25.2,55.5,24.1,55.3,23z"/>
		<path id="XMLID_10_" class="st1" d="M58.3,20.7c0.5,0,0.9,0,1.4,0c0,2.4,0,4.8,0,7.2c0.6,0,1.1,0,1.7,0c0,0.4,0,0.8,0,1.1
			c-1,0-2,0-3.1,0C58.3,26.2,58.3,23.4,58.3,20.7z"/>
		<path id="XMLID_9_" class="st1" d="M62,20.7c0.5,0,0.9,0,1.4,0c0,2.8,0,5.5,0,8.3c-0.5,0-0.9,0-1.4,0C62,26.2,62,23.4,62,20.7z"/>
		<path id="XMLID_8_" class="st1" d="M64,20.7c1.2,0,2.5,0,3.7,0c0,0.4,0,0.8,0,1.1c-0.4,0-0.8,0-1.2,0c0,2.4,0,4.8,0,7.2
			c-0.5,0-0.9,0-1.4,0c0-2.4,0-4.8,0-7.2c-0.4,0-0.8,0-1.2,0C64,21.4,64,21.1,64,20.7z"/>
		<path id="XMLID_7_" class="st1" d="M68.4,20.7c0.5,0,0.9,0,1.4,0c0,2.8,0,5.5,0,8.3c-0.5,0-0.9,0-1.4,0
			C68.4,26.2,68.4,23.4,68.4,20.7z"/>
		<path id="XMLID_6_" class="st1" d="M70.6,20.7c1.1,0,2.2,0,3.3,0c0,0.4,0,0.8,0,1.1c-0.6,0-1.3,0-1.9,0c0,0.8,0,1.6,0,2.4
			c0.5,0,0.9,0,1.4,0c0,0.4,0,0.8,0,1.1c-0.5,0-0.9,0-1.4,0c0,0.8,0,1.7,0,2.5c0.6,0,1.3,0,1.9,0c0,0.4,0,0.8,0,1.1
			c-1.1,0-2.2,0-3.3,0C70.6,26.2,70.6,23.4,70.6,20.7z"/>
		<path id="XMLID_5_" class="st1" d="M38.1,42.4c3.6-2,7.6-3.1,11.7-3.2c6-0.1,12,2.2,16.4,6.2c0.3,0.3,0.3,0.8,0,1.1
			c-0.9,0.9-1.7,1.7-2.6,2.6c-0.3,0.3-0.8,0.3-1.1,0c-2.8-2.5-6.4-4.2-10.2-4.8c-6-0.9-12.4,1.1-16.7,5.4c-2.7,2.6-4.6,5.9-5.4,9.5
			c-1.4,5.7-0.1,12,3.5,16.6c2.4,3.4,5.9,6.1,9.9,7.6C47.6,84.9,52,85.1,56,84c5.7-1.4,10.7-5.4,13.3-10.6
			c2.8-5.3,3.2-11.9,0.8-17.5c-0.8-1.8-1.7-3.5-2.7-5.1c4.8,5.8,6.2,14.2,3.7,21.3c-1.9,5.8-6.2,10.7-11.7,13.3
			c-3.8,1.9-8.2,2.6-12.4,2.2c-4.5-0.5-8.8-2.3-12.2-5.2c-4.8-3.8-8-9.4-8.9-15.5c-0.6-4.1-0.1-8.5,1.4-12.3
			C29.5,49.5,33.3,45.2,38.1,42.4z"/>
		<path id="XMLID_4_" class="st1" d="M40.3,57.4c6.5,0,13,0,19.6,0c0.2,0,0.5-0.1,0.5,0.2c0,1.5,0,3,0,4.5c0,0.3-0.3,0.2-0.5,0.2
			c-6.5,0-13,0-19.6,0C40.2,60.7,40.2,59,40.3,57.4z"/>
		<path id="XMLID_3_" class="st1" d="M40.3,65.8c6.6,0,13.1,0,19.7,0c0.2,0,0.4,0,0.4,0.2c0,1.5,0,3.1,0,4.6c-0.6,0.1-1.2,0-1.8,0
			c-6,0-12,0-18.1,0c-0.3,0-0.2-0.4-0.3-0.6C40.3,68.7,40.2,67.2,40.3,65.8z"/>
	</g>
</g>
<g id="XMLID_40_">
	<g id="XMLID_41_">
		<rect id="XMLID_78_" x="100" class="st1" width="100" height="100"/>
		<path id="XMLID_75_" class="st0" d="M120.8,8.8c1.8-0.1,3.8,0.8,4.5,2.5c0.5,1,0.6,2.1,0.6,3.1c0,3.3,0,6.5,0,9.8
			c0,1.8-0.9,3.7-2.6,4.5c-1.7,0.7-3.7,0.7-5.2-0.3c-1.5-0.9-2-2.7-2-4.4c0-3.3,0-6.6,0-9.9c0-1.5,0.5-3.2,1.7-4.2
			C118.5,9.1,119.6,8.8,120.8,8.8 M120.5,11.6c-0.9,0.2-1.2,1.1-1.2,1.9c0,3.5,0,7,0,10.4c0,0.6,0,1.2,0.3,1.7c0.5,1,2.2,1,2.6,0
			c0.3-0.7,0.3-1.4,0.3-2.2c0-3.4,0-6.8,0-10.2C122.5,12.2,121.5,11.3,120.5,11.6z"/>
		<path id="XMLID_74_" class="st0" d="M111,9c0.9,0,1.8,0,2.7,0c0,6.6,0,13.3,0,19.9c-1.1,0-2.2,0-3.4,0c0-5.1,0-10.1,0-15.2
			c-0.8,0.8-1.6,1.7-2.4,2.5c0-1.1,0-2.2,0-3.3c0-0.3,0.2-0.5,0.3-0.6C109.1,11.2,110,10.1,111,9z"/>
		<path id="XMLID_73_" class="st0" d="M137.3,9.1c1.1,0,2.2,0,3.4,0c0,0.4,0,0.8,0,1.2c-0.6,0-1.3,0-1.9,0c0,0.8,0,1.6,0,2.4
			c0.5,0,0.9,0,1.4,0c0,0.4,0,0.8,0,1.1c-0.5,0-0.9,0-1.4,0c0,0.8,0,1.7,0,2.5c0.6,0,1.3,0,1.9,0c0,0.4,0,0.8,0,1.2
			c-1.1,0-2.2,0-3.4,0C137.3,14.6,137.3,11.8,137.3,9.1z"/>
		<path id="XMLID_72_" class="st0" d="M146.3,9.1c0.5,0,0.9,0,1.4,0c0,2.2,0,4.4,0,6.6c-0.1,0.8,1.3,0.9,1.3,0.1
			c0.1-2.2,0-4.5,0-6.7c0.4,0,0.9,0,1.3,0c0,2.2,0,4.3,0,6.5c0,0.7-0.3,1.5-0.9,1.8c-0.7,0.3-1.5,0.3-2.2,0
			c-0.7-0.3-0.9-1.1-0.9-1.9C146.3,13.3,146.3,11.2,146.3,9.1z"/>
		<path id="XMLID_71_" class="st0" d="M151.2,10.5c0.2-1.5,2.3-1.9,3.4-1.1c0.7,0.7,0.5,1.8,0.6,2.6c-0.4,0-0.9,0-1.3,0
			c0-0.5,0.1-1.1-0.1-1.6c-0.3-0.6-1.3-0.3-1.3,0.3c0,1.6,0,3.2,0,4.8c0,0.7,1,0.9,1.3,0.3c0.2-0.7,0.1-1.3,0.1-2c0.4,0,0.9,0,1.3,0
			c0,0.9,0.1,1.9-0.3,2.7c-0.5,0.9-1.8,1-2.7,0.6c-0.9-0.3-1.1-1.3-1.1-2.2C151.2,13.6,151.1,12,151.2,10.5z"/>
		<path id="XMLID_68_" class="st0" d="M132.6,9.1c1.1,0.1,2.2-0.2,3.2,0.2c1,0.6,0.8,1.9,0.8,2.8c0,0.7-0.4,1.3-1.1,1.5
			c0.4,1.2,0.9,2.5,1.3,3.7c-0.5,0-1,0-1.5,0c-0.4-1.2-0.8-2.5-1.3-3.7c0,1.2,0,2.5,0,3.7c-0.5,0-0.9,0-1.4,0
			C132.6,14.6,132.6,11.8,132.6,9.1 M134,10.2c0,0.9,0,1.7,0,2.6c0.4,0,0.9,0.1,1.1-0.4c0.1-0.6,0.1-1.2,0-1.8
			C135,10.1,134.4,10.2,134,10.2z"/>
		<path id="XMLID_65_" class="st0" d="M141.3,9.1c1,0,1.9-0.1,2.9,0.1c0.9,0.2,1.3,1.1,1.3,1.9c0,1.4,0,2.9,0,4.3
			c0,0.8-0.4,1.7-1.3,1.9c-1,0.2-1.9,0-2.9,0.1C141.3,14.6,141.3,11.8,141.3,9.1 M142.8,10.2c0,2,0,4,0,6c0.5,0,1.3,0.1,1.3-0.6
			c0-1.6,0-3.2,0-4.8C144,10.2,143.3,10.2,142.8,10.2z"/>
		<path id="XMLID_64_" class="st0" d="M156,9.1c1.1,0,2.2,0,3.4,0c0,0.4,0,0.8,0,1.2c-0.6,0-1.3,0-1.9,0c0,0.8,0,1.6,0,2.4
			c0.5,0,0.9,0,1.4,0c0,0.4,0,0.8,0,1.1c-0.5,0-0.9,0-1.4,0c0,0.8,0,1.7,0,2.5c0.6,0,1.3,0,1.9,0c0,0.4,0,0.8,0,1.2
			c-1.1,0-2.2,0-3.4,0C156,14.6,156,11.8,156,9.1z"/>
		<path id="XMLID_61_" class="st0" d="M160,9.1c1,0,2-0.1,3,0.1c0.8,0.2,1.2,1.1,1.2,1.9c0,1.4,0,2.9,0,4.3c0,0.8-0.5,1.8-1.3,1.9
			c-0.9,0.2-1.9,0-2.8,0.1C160,14.6,160,11.8,160,9.1 M161.4,10.2c0,2,0,4,0,6c0.5,0,1.3,0.1,1.3-0.6c0-1.6,0-3.2,0-4.8
			C162.7,10.1,161.9,10.2,161.4,10.2z"/>
		<path id="XMLID_58_" class="st0" d="M144.1,21.1c1.1-1,3.3-0.6,3.6,1c0.2,1.5,0,3.1,0.1,4.6c0.1,0.8-0.2,1.6-0.9,2.1
			c0.3,0.1,0.6,0.1,0.9,0.2c0,0.4,0,0.7,0,1.1c-0.9-0.2-1.8-0.3-2.6-0.5c0-0.2,0-0.4,0-0.5c-0.8-0.2-1.5-0.8-1.5-1.7
			c-0.1-1.4,0-2.9,0-4.3C143.5,22.4,143.6,21.6,144.1,21.1 M145.5,21.8c-0.5,0.1-0.5,0.7-0.5,1.1c0,1.5-0.1,3,0,4.5
			c0.1,0.8,1.3,0.7,1.3-0.1c0.1-1.6,0-3.2,0-4.8C146.4,22,146,21.6,145.5,21.8z"/>
		<path id="XMLID_57_" class="st0" d="M174.7,21.5c0.5-1,2-1.1,2.9-0.7c0.9,0.4,0.9,1.5,0.8,2.4c-0.4,0-0.9,0-1.3,0
			c0-0.4,0-0.7-0.1-1.1c-0.2-0.6-1.2-0.5-1.2,0.2c-0.2,0.7,0.5,1.2,0.9,1.7c0.7,0.7,1.6,1.4,1.7,2.5c0.1,0.8,0,1.9-0.8,2.4
			c-0.8,0.4-2,0.4-2.7-0.2c-0.7-0.7-0.5-1.7-0.5-2.5c0.4,0,0.9,0,1.3,0c0,0.5-0.1,1,0.1,1.5c0.2,0.6,1.3,0.4,1.2-0.2
			c0.3-1.3-1.1-1.9-1.7-2.7C174.5,23.8,174.3,22.5,174.7,21.5z"/>
		<path id="XMLID_56_" class="st0" d="M132.6,20.7c0.5,0,0.9,0,1.4,0c0,2.8,0,5.5,0,8.3c-0.5,0-0.9,0-1.4,0
			C132.6,26.2,132.6,23.4,132.6,20.7z"/>
		<path id="XMLID_55_" class="st0" d="M134.8,20.7c0.5,0,0.9,0,1.4,0c0.5,1.5,1,3.1,1.5,4.6c0-1.5,0-3.1,0-4.6c0.4,0,0.8,0,1.2,0
			c0,2.8,0,5.5,0,8.3c-0.4,0-0.8,0-1.2,0c-0.5-1.7-1.1-3.4-1.6-5.1c0,1.7,0,3.4,0,5.1c-0.4,0-0.8,0-1.2,0
			C134.8,26.2,134.8,23.4,134.8,20.7z"/>
		<path id="XMLID_54_" class="st0" d="M139.6,20.7c1.1,0,2.2,0,3.3,0c0,0.4,0,0.8,0,1.2c-0.6,0-1.3,0-1.9,0c0,0.8,0,1.6,0,2.4
			c0.5,0,0.9,0,1.4,0c0,0.4,0,0.8,0,1.1c-0.5,0-0.9,0-1.4,0c0,0.8,0,1.7,0,2.5c0.6,0,1.3,0,1.9,0c0,0.4,0,0.8,0,1.2
			c-1.1,0-2.2,0-3.3,0C139.6,26.2,139.6,23.4,139.6,20.7z"/>
		<path id="XMLID_53_" class="st0" d="M148.6,20.7c0.5,0,0.9,0,1.4,0c0,2.2,0,4.5,0,6.7c0,0.7,1.3,0.7,1.3,0c0.1-2.2,0-4.5,0-6.7
			c0.4,0,0.9,0,1.3,0c0,2.2,0,4.4,0,6.6c0,0.9-0.6,1.7-1.5,1.8c-1.1,0.3-2.5-0.3-2.6-1.6C148.5,25.2,148.6,22.9,148.6,20.7z"/>
		<path id="XMLID_50_" class="st0" d="M154.6,20.7c0.5,0,1.1,0,1.6,0c0.5,2.8,1.1,5.5,1.6,8.3c-0.5,0-1,0-1.5,0
			c-0.1-0.5-0.2-1-0.3-1.5c-0.5,0-1,0-1.5,0c-0.1,0.5-0.2,1-0.2,1.5c-0.4,0-0.9,0-1.3,0C153.5,26.2,154,23.4,154.6,20.7 M155.3,23.1
			c-0.2,1.1-0.4,2.1-0.5,3.2c0.4,0,0.7,0,1.1,0C155.7,25.3,155.5,24.2,155.3,23.1z"/>
		<path id="XMLID_49_" class="st0" d="M158.3,20.7c0.5,0,0.9,0,1.4,0c0,2.4,0,4.8,0,7.2c0.5,0,1.1,0,1.7,0c0,0.4,0.1,0.8-0.1,1.1
			c-1,0.1-2,0-3,0C158.3,26.2,158.3,23.4,158.3,20.7z"/>
		<path id="XMLID_48_" class="st0" d="M162,20.7c0.5,0,0.9,0,1.4,0c0,2.8,0,5.5,0,8.3c-0.5,0-0.9,0-1.4,0
			C162,26.2,162,23.4,162,20.7z"/>
		<path id="XMLID_47_" class="st0" d="M164,20.7c1.2,0,2.5,0,3.7,0c0,0.4,0,0.8,0,1.2c-0.4,0-0.8,0-1.1,0c0,2.4,0,4.8,0,7.2
			c-0.5,0-0.9,0-1.4,0c0-2.4,0-4.8,0-7.2c-0.4,0-0.8,0-1.2,0C164,21.4,164,21.1,164,20.7z"/>
		<path id="XMLID_46_" class="st0" d="M168.4,20.7c0.5,0,0.9,0,1.4,0c0,2.8,0,5.5,0,8.3c-0.5,0-0.9,0-1.4,0
			C168.4,26.2,168.4,23.4,168.4,20.7z"/>
		<path id="XMLID_45_" class="st0" d="M170.6,20.7c1.1,0,2.2,0,3.3,0c0,0.4,0,0.8,0,1.2c-0.6,0-1.3,0-1.9,0c0,0.8,0,1.6,0,2.4
			c0.5,0,0.9,0,1.4,0c0,0.4,0,0.8,0,1.1c-0.5,0-0.9,0-1.4,0c0,0.8,0,1.7,0,2.5c0.6,0,1.3,0,1.9,0c0,0.4,0,0.8,0,1.2
			c-1.1,0-2.2,0-3.3,0C170.6,26.2,170.6,23.4,170.6,20.7z"/>
		<path id="XMLID_44_" class="st0" d="M137.9,42.5c4.2-2.5,9.2-3.6,14.1-3.2c5.3,0.4,10.4,2.6,14.3,6.1c0.3,0.3,0.3,0.8,0,1.1
			c-0.9,0.9-1.7,1.7-2.6,2.6c-0.3,0.3-0.8,0.3-1.1,0c-3-2.7-6.9-4.5-11-4.9c-4.9-0.5-10,0.8-13.9,3.8c-3.5,2.6-6.1,6.5-7.3,10.7
			c-1.6,5.8-0.3,12.3,3.4,17c2.5,3.5,6,6.2,10.1,7.6c4.3,1.5,9.1,1.6,13.5,0.2c4.4-1.4,8.4-4.4,10.9-8.3c3.6-5.4,4.5-12.4,2.2-18.5
			c-0.7-2.1-1.8-4-2.9-5.9c3.9,4.9,5.5,11.4,4.5,17.6c-1.1,7.5-6.3,14.3-13.3,17.3c-6.5,2.9-14.4,2.5-20.6-1
			c-3.6-2.1-6.8-5.1-8.9-8.6c-2.5-4.2-3.8-9.1-3.5-14C126.3,54.1,130.9,46.5,137.9,42.5z"/>
		<path id="XMLID_43_" class="st0" d="M140.3,57.4c6.7-0.1,13.4-0.1,20.1,0c0,1.6,0,3.2,0,4.8c-5.8,0.1-11.5,0-17.3,0.1
			c-0.9,0-1.9,0.1-2.8-0.1C140.3,60.7,140.2,59,140.3,57.4z"/>
		<path id="XMLID_42_" class="st0" d="M140.3,66.1c0-0.2,0.1-0.4,0.4-0.4c6.4,0,12.9,0,19.3,0c0.2,0,0.5,0,0.5,0.2
			c0,1.5,0,3.1,0,4.6c-6.7,0-13.4,0-20.1,0C140.2,69.2,140.3,67.6,140.3,66.1z"/>
	</g>
</g>
</svg>
