<?xml version="1.0" encoding="utf-8"?>
<!-- Generator: Adobe Illustrator 19.0.0, SVG Export Plug-In . SVG Version: 6.00 Build 0)  -->
<svg version="1.1" id="Layer_1" xmlns="http://www.w3.org/2000/svg" xmlns:xlink="http://www.w3.org/1999/xlink" x="0px" y="0px"
	 viewBox="312 247 300 300" style="enable-background:new 312 247 300 300;" xml:space="preserve">
<style type="text/css">
	.st0{fill:#F99D26;}
	.st1{fill:#FFFFFF;}
</style>
<g>
	<rect x="312" y="247" class="st0" width="300" height="300"/>
	<path class="st1" d="M367.6,274.1c2.7,0,5.3,0,8,0c0,19.9,0,39.7,0,59.6c-3.3,0-6.7,0-10,0c0-15.2,0-30.4,0-45.6
		c-2.4,2.4-4.8,5-7.2,7.4c0-3.3-0.1-6.6,0-9.9c0-0.9,0.6-1.5,1.1-2.1C362.2,280.4,364.9,277.2,367.6,274.1z"/>
	<path class="st1" d="M396.9,276.4c1.7-2.9,5.8-3.1,8.6-1.9c2.6,1.3,2.5,4.6,2.5,7.1c-1.3,0-2.6,0-3.9,0c0-1.1,0-2.1-0.2-3.1
		c-0.4-1.6-3-1.6-3.6-0.1c-0.4,1.2-0.2,2.5,0.6,3.5c2.2,2.8,5.7,4.8,7,8.2c0.6,2.9,0.7,6.8-2.2,8.5c-2.5,1.2-5.8,1.2-8-0.6
		c-2-2-1.5-5.1-1.6-7.6c1.3,0,2.6,0,4,0c0.1,1.6-0.3,3.3,0.3,4.9c1,1.4,3.6,0.8,3.6-1.1c0.7-3.8-3.2-5.7-5.2-8.2
		C396.2,283.6,395.5,279.6,396.9,276.4z"/>
	<path class="st1" d="M410,274.1c1.4,0,2.8,0,4.2,0c0.1,6.6-0.1,13.2,0.1,19.7c-0.2,2.4,3.7,2.7,3.9,0.4c0.2-6.7,0-13.4,0.1-20.1
		c1.3,0,2.6,0,3.9,0c0,6.3,0,12.6,0,19c0,2.1-0.6,4.5-2.6,5.6c-2.1,1-4.7,1-6.8,0c-2-1-2.8-3.4-2.7-5.5
		C410,286.8,410,280.5,410,274.1z"/>
	<path class="st1" d="M426.1,274.8c2.3-1.3,5.4-1.3,7.6,0c2.2,1.5,1.9,4.4,2,6.8c-1.3,0-2.6,0-3.8,0c0-1,0-2.1-0.2-3.1
		c-0.4-1.6-3-1.6-3.6-0.1c-0.4,1.2-0.2,2.6,0.6,3.5c2.2,2.8,5.6,4.8,7,8.2c0.6,2.8,0.7,6.7-2.2,8.4c-2.5,1.2-5.8,1.3-8-0.5
		c-2.1-2-1.5-5.1-1.6-7.6c1.3,0,2.6,0,4,0c0,1.5-0.2,3.1,0.2,4.6c0.7,1.7,3.7,1.2,3.6-0.7c0.8-4.8-4.8-6.6-6.7-10.2
		C423.4,281.3,423.2,276.8,426.1,274.8z"/>
	<path class="st1" d="M436.7,274.1c3.7,0,7.4,0,11.2,0c0,1.2,0,2.3,0,3.5c-1.2,0-2.3,0-3.5,0c0,7.2,0,14.3,0,21.5
		c-1.4,0-2.9,0-4.3,0c0-7.2,0-14.3,0-21.5c-1.1,0-2.3,0-3.4,0C436.7,276.5,436.7,275.3,436.7,274.1z"/>
	<path class="st1" d="M462.3,274.1c1.4,0,2.8,0,4.2,0c0,8.3,0,16.6,0,25c-1.4,0-2.8,0-4.2,0C462.3,290.8,462.3,282.5,462.3,274.1z"
		/>
	<path class="st1" d="M468.6,274.1c1.4,0,2.8,0,4.1,0c1.5,4.6,2.9,9.3,4.4,13.9c0.1-4.6,0-9.3,0-13.9c1.2,0,2.4,0,3.5,0
		c0,8.3,0,16.6,0,25c-1.2,0-2.5,0-3.7,0c-1.6-5-3.1-10.1-4.8-15.1c-0.1,5,0,10.1-0.1,15.1c-1.2,0-2.4,0-3.5,0
		C468.5,290.8,468.5,282.5,468.6,274.1z"/>
	<path class="st1" d="M537.8,277.8c1.1-4.2,6.8-5,9.9-2.8c2.4,2,1.8,5.4,1.9,8.1c-1.3,0-2.6,0-3.8,0c-0.1-1.6,0.3-3.4-0.4-4.9
		c-1.1-1.5-3.8-0.6-3.7,1.3c-0.1,4.8-0.1,9.7,0,14.5c-0.1,2,2.9,2.8,3.8,1c0.5-2,0.2-4,0.3-6c1.3,0,2.6,0,3.9,0
		c-0.2,2.9,0.7,6.3-1.3,8.8c-2.2,2.3-6.3,2.3-8.8,0.4c-2.7-2.3-2-6.2-2.1-9.3C537.5,285.1,536.9,281.4,537.8,277.8z"/>
	<path class="st1" d="M551.4,274.1c1.4,0,2.8,0,4.2,0c0,8.3,0,16.6,0,25c-1.4,0-2.8,0-4.2,0C551.4,290.8,551.4,282.5,551.4,274.1z"
		/>
	<path class="st1" d="M569.8,274.1c1.4,0,2.8,0,4.2,0c0,8.3,0,16.6,0,24.9c-1.4,0-2.8,0-4.2,0C569.8,290.8,569.8,282.5,569.8,274.1z
		"/>
	<path class="st1" d="M576,274.1c3.3,0,6.7,0,10,0c0,1.1,0,2.3,0,3.4c-1.9,0-3.8,0-5.8,0c0,2.3,0,4.7,0,7c1.4,0,2.7,0,4.1,0
		c0,1.1,0,2.3,0,3.4c-1.4,0-2.7,0-4.1,0c0,2.5,0,5,0,7.5c1.9,0,3.8,0,5.8,0c0,1.1,0,2.3,0,3.4c-3.3,0-6.7,0-10,0
		C576,290.8,576,282.5,576,274.1z"/>
	<path class="st1" d="M590.2,274.5c2.3-0.9,5.3-0.9,7.3,0.7c1.9,1.6,1.6,4.3,1.6,6.5c-1.3,0-2.6,0-3.8,0c-0.1-1.2,0.1-2.4-0.4-3.5
		c-0.9-1.4-3.7-0.8-3.6,1c-0.4,2.3,1.7,3.8,3.2,5.3c2,2,4.6,4.1,4.8,7.2c0.2,2.5,0,5.8-2.5,7.1c-2.5,1.2-5.9,1.2-8-0.7
		c-2-2-1.4-5-1.4-7.5c1.3,0,2.6,0,3.9,0c0,1.5-0.2,3.1,0.2,4.5c0.6,1.7,3.7,1.3,3.7-0.6c0.8-4.7-4.6-6.6-6.7-10.1
		C586.7,281.2,586.7,276.1,590.2,274.5z"/>
	<path class="st1" d="M336.7,283.5c2.7-3.1,5.3-6.3,8-9.4c2.7,0,5.3,0,8,0c0,19.9,0,39.7,0,59.6c-3.3,0-6.7,0-10,0
		c0-15.2,0-30.4,0-45.6c-2.4,2.5-4.8,5-7.2,7.4c0-3.3-0.1-6.6,0-9.8C335.5,284.8,336.2,284.1,336.7,283.5z"/>
	<path class="st1" d="M451.5,274.2c1.6,0,3.2,0,4.8,0c1.6,8.3,3.2,16.6,4.7,25c-1.5,0-2.9,0-4.4,0c-0.2-1.5-0.5-3-0.7-4.5
		c-1.5,0-2.9,0-4.4,0c-0.2,1.5-0.5,3-0.7,4.5c-1.3,0-2.7,0-4,0C448.4,290.8,449.9,282.5,451.5,274.2 M453.8,281.6
		c-0.6,3.2-1.1,6.3-1.6,9.5c1.1,0,2.2,0,3.3,0C454.8,288,454.4,284.8,453.8,281.6z"/>
	<path class="st1" d="M486.7,274.2c1.6,0,3.2,0,4.8,0c1.6,8.3,3.2,16.6,4.7,24.9c-1.4,0-2.9,0-4.3,0c-0.3-1.5-0.6-3-0.8-4.5
		c-1.5,0-2.9,0-4.4,0c-0.2,1.5-0.5,3-0.8,4.5c-1.3,0-2.7,0-4,0C483.5,290.8,485.1,282.5,486.7,274.2 M488.9,281.6
		c-0.6,3.2-1.1,6.4-1.6,9.5c1.1,0,2.2,0,3.3,0C490,288,489.5,284.8,488.9,281.6z"/>
	<path class="st1" d="M497.5,274.2c3.1,0.2,6.4-0.5,9.3,0.6c2.7,1.3,2.3,4.9,2.3,7.4c0.1,1.6-0.7,3-2,4c1.5,0.7,2.7,2.1,2.6,3.8
		c0,2.9,0.7,7-2.5,8.6c-3.1,1.1-6.5,0.4-9.8,0.6C497.5,290.8,497.5,282.5,497.5,274.2 M501.7,277.5c0,2.4,0,4.8,0,7.2
		c1.1-0.2,2.8,0.2,3.2-1.1c0.3-1.6,0.3-3.3,0-4.9C504.5,277.4,502.8,277.7,501.7,277.5 M501.7,287.9c0,2.6,0,5.2,0,7.8
		c1.2-0.1,3.1,0.3,3.7-1.1c0.3-1.9,0.3-3.9,0-5.7C504.7,287.5,502.9,288,501.7,287.9z"/>
	<path class="st1" d="M511.4,274.2c1.4,0,2.8,0,4.2,0c0,7.2,0,14.3,0,21.5c1.7,0,3.3,0,5,0c0,1.2,0,2.3,0,3.5c-3.1,0-6.1,0-9.2,0
		C511.4,290.8,511.4,282.5,511.4,274.2z"/>
	<path class="st1" d="M522.1,274.2c3.3,0,6.7,0,10,0c0,1.2,0,2.3,0,3.5c-1.9,0-3.8,0-5.8,0c0,2.4,0,4.7,0,7.1c1.4,0,2.7,0,4.1,0
		c0,1.1,0,2.3,0,3.4c-1.4,0-2.7,0-4.1,0c0,2.5,0,5,0,7.5c1.9,0,3.8,0,5.8,0c0,1.2,0,2.3,0,3.5c-3.3,0-6.7,0-10,0
		C522.1,290.8,522.1,282.5,522.1,274.2z"/>
	<path class="st1" d="M557.1,274.2c3.7,0,7.4,0,11.1,0c0,1.2,0,2.3,0,3.5c-1.1,0-2.3,0-3.4,0c0,7.2,0,14.3,0,21.5
		c-1.4,0-2.9,0-4.3,0c0-7.2,0-14.3,0-21.5c-1.1,0-2.3,0-3.4,0C557.1,276.5,557.1,275.3,557.1,274.2z"/>
	<path class="st1" d="M443.5,313.3c0.7-4.7,7.2-5.9,10.4-3.2c2,2.1,1.5,5.2,1.6,7.8c-1.3,0-2.6,0-3.9,0c0-1.6,0.2-3.2-0.3-4.8
		c-0.9-1.6-3.8-0.9-3.7,1c-0.1,4.9-0.1,9.9,0,14.8c0,2,3.5,2.4,3.8,0.4c0.3-1.9,0.1-3.8,0.1-5.7c1.3,0,2.6,0,3.9,0
		c-0.1,2.7,0.4,5.6-0.9,8.1c-1.6,2.7-5.5,2.9-8.2,1.8c-2.6-1.2-3.3-4.3-3.2-6.9C443.4,322.2,443,317.7,443.5,313.3z"/>
	<path class="st1" d="M461.7,308.9c3-0.8,6.8,0.3,7.8,3.5c0.9,3.2,0.3,6.6,0.4,9.9c-0.1,2.9,0.5,6.1-0.8,8.8
		c-1.5,3.1-5.8,3.7-8.7,2.4c-2.3-1-3.3-3.7-3.2-6.1c0-4.3-0.1-8.6,0-12.9C457.4,312,459.1,309.4,461.7,308.9 M462.9,312.4
		c-1.6,0.5-1.4,2.5-1.4,3.8c0.1,4.3-0.1,8.6,0.1,12.9c0.1,2.3,4,2.2,4-0.1c0.2-4.7,0.1-9.5,0.1-14.3
		C465.9,313.1,464.4,311.8,462.9,312.4z"/>
	<path class="st1" d="M573.1,309.6c2.3-1.3,5.5-1.3,7.7,0.2c2,1.5,1.8,4.3,1.8,6.6c-1.3,0-2.6,0-3.8,0c0-1.1,0-2.1-0.2-3.2
		c-0.5-1.5-2.9-1.5-3.5-0.1c-0.5,1.2-0.3,2.6,0.5,3.5c2.2,2.8,5.6,4.8,7,8.2c0.7,2.9,0.7,7-2.3,8.6c-2.5,1.1-5.8,1.1-7.9-0.7
		c-2-2-1.4-5-1.5-7.6c1.3,0,2.6,0,4,0c0,1.4-0.1,2.8,0.1,4.2c0.2,1.7,3,1.9,3.6,0.4c0.4-1.4,0.4-3-0.5-4.2c-2.1-2.8-5.5-4.7-6.8-8.1
		C570.5,314.9,570.5,311.3,573.1,309.6z"/>
	<g>
		<path class="st0" d="M401.1,326c0.5-3.2,1-6.4,1.6-9.6c0.6,3.2,1.1,6.4,1.6,9.6C403.2,326,402.1,326,401.1,326z"/>
		<path class="st1" d="M400.4,309c1.6,0,3.2,0,4.8,0c1.6,8.3,3.2,16.6,4.7,24.9c-1.4,0-2.9,0-4.3,0c-0.3-1.5-0.5-3-0.8-4.5
			c-1.5,0-2.9,0-4.4,0c-0.2,1.5-0.5,3-0.7,4.5c-1.3,0-2.7,0-4,0C397.3,325.6,398.9,317.3,400.4,309 M401.1,326c1.1,0,2.2,0,3.3,0
			c-0.5-3.2-1-6.4-1.6-9.6C402.1,319.6,401.6,322.8,401.1,326z"/>
	</g>
	<path class="st1" d="M411.3,309c1.4,0,2.8,0,4.1,0c1.5,4.6,2.8,9.2,4.4,13.8c0.1-4.6,0-9.2,0.1-13.8c1.2,0,2.3,0,3.5,0
		c0,8.3,0,16.6,0,24.9c-1.2,0-2.5,0-3.7,0c-1.6-5.1-3.2-10.2-4.9-15.3c-0.1,5.1,0,10.2,0,15.3c-1.2,0-2.4,0-3.5,0
		C411.3,325.6,411.3,317.3,411.3,309z"/>
	<path class="st1" d="M425.3,309c2.9,0.1,5.9-0.3,8.8,0.3c2.7,0.6,3.9,3.5,3.8,6c0,4.3,0.1,8.6,0,12.9c0,2.4-1.5,4.9-4,5.4
		c-2.8,0.5-5.7,0.2-8.6,0.3C425.3,325.6,425.3,317.3,425.3,309 M429.6,312.4c0,6,0,12.1,0,18.1c1.5-0.1,3.9,0.1,4-1.9
		c0.2-4.7,0.1-9.4,0-14.1C433.7,312.4,431.1,312.4,429.6,312.4z"/>
	<path class="st1" d="M472,309c1.6,0,3.3,0,4.9,0c1,4.4,1.5,8.9,2.7,13.3c1-4.4,1.6-8.9,2.4-13.3c1.8,0,3.6,0,5.3,0
		c0,8.3,0,16.6,0,24.9c-1.3,0-2.6,0-3.8,0c0-5.3,0.1-10.7-0.1-16c-1.1,5.3-1.9,10.7-2.9,16c-0.7,0-1.3,0-2,0
		c-1.1-5.4-2-10.7-3.1-16.1c-0.1,5.3,0,10.7,0,16c-1.2,0-2.3,0-3.5,0C472,325.7,472,317.3,472,309z"/>
	<path class="st1" d="M489.3,309c1.7,0,3.3,0,5,0c0.9,4.6,1.7,9.2,2.7,13.8c0.9-4.6,1.6-9.2,2.4-13.8c1.8,0,3.5,0,5.3,0
		c0,8.3,0,16.6,0,24.9c-1.3,0-2.6,0-3.8,0c0-5.4,0-10.9,0-16.3c-1,5.4-1.9,10.9-2.9,16.3c-0.7,0-1.3,0-2,0
		c-1.1-5.1-1.8-10.2-3.1-15.2c-0.3,5.1,0,10.1-0.1,15.2c-1.2,0-2.3,0-3.5,0C489.2,325.6,489.2,317.3,489.3,309z"/>
	<path class="st1" d="M506.6,309c1.4,0,2.8,0,4.2,0c0.1,6.7-0.1,13.3,0.1,20c0,2.2,3.8,2.3,3.9,0c0.2-6.7,0-13.3,0.1-20
		c1.3,0,2.6,0,3.9,0c0,6.3,0,12.6,0,18.8c0,2.1-0.5,4.4-2.4,5.6c-2.1,1.2-4.8,1.1-6.9,0.1c-2.1-1-2.9-3.5-2.8-5.7
		C506.6,321.6,506.6,315.3,506.6,309z"/>
	<path class="st1" d="M520.7,309c1.4,0,2.8,0,4.2,0c1.5,4.7,2.9,9.3,4.5,14c0.1-4.7,0-9.3,0-14c1.2,0,2.3,0,3.5,0
		c0,8.3,0,16.6,0,24.9c-1.2,0-2.5,0-3.7,0c-1.6-5.1-3.2-10.3-4.9-15.4c-0.1,5.1,0,10.2,0,15.4c-1.2,0-2.4,0-3.6,0
		C520.7,325.7,520.7,317.3,520.7,309z"/>
	<path class="st1" d="M534.8,309c1.4,0,2.8,0,4.2,0c0,8.3,0,16.6,0,24.9c-1.4,0-2.8,0-4.2,0C534.8,325.6,534.8,317.3,534.8,309z"/>
	<path class="st1" d="M540.5,309c3.7,0,7.5,0,11.2,0c0,1.2,0,2.3,0,3.5c-1.2,0-2.3,0-3.5,0c0,7.2,0,14.3,0,21.5c-1.4,0-2.8,0-4.2,0
		c0-7.2,0-14.3,0-21.5c-1.2,0-2.3,0-3.5,0C540.5,311.3,540.5,310.2,540.5,309z"/>
	<path class="st1" d="M553.2,309c1.4,0,2.8,0,4.2,0c0,8.3,0,16.6,0,24.9c-1.4,0-2.8,0-4.2,0C553.2,325.6,553.2,317.3,553.2,309z"/>
	<path class="st1" d="M559.4,309c3.3,0,6.7,0,10.1,0c0,1.2,0,2.3,0,3.5c-1.9,0-3.9,0-5.8,0c0,2.4,0,4.7,0,7.1c1.4,0,2.8,0,4.1,0
		c0,1.1,0,2.3,0,3.4c-1.4,0-2.8,0-4.1,0c0,2.5,0,5,0,7.5c1.9,0,3.9,0,5.8,0c0,1.2,0,2.3,0,3.5c-3.3,0-6.7,0-10,0
		C559.4,325.6,559.4,317.3,559.4,309z"/>
	<path class="st1" d="M417.2,366c13.9-0.4,27.8,0,41.6-0.2c1,0.1,2.2-0.2,2.9,0.5c0.3,1.8,0.1,3.6,0.1,5.3c0,47.3,0,94.6,0,141.8
		c0.2,1-0.4,2-1.5,1.8c-14.2,0-28.4,0.1-42.6,0c-1.1,0.2-1.2-1-1.2-1.8c0-48.6,0-97.2,0-145.8C416.8,367.1,416.6,366.1,417.2,366
		 M424.3,386c0,4,0,8,0,11.9c3.6,0.1,7.3,0.1,10.9,0c0.1-4,0.1-8,0-12C431.5,385.9,427.9,385.9,424.3,386 M443.6,386
		c-0.1,4,0,8,0,12c3.6,0.1,7.3,0.1,10.9,0c0-4,0-8,0-12C450.9,385.9,447.2,385.9,443.6,386 M424.3,411.2c-0.1,4-0.1,8,0,12
		c3.6,0.1,7.2,0.1,10.9,0c0.1-4,0.1-8,0-12C431.5,411.1,427.9,411.1,424.3,411.2 M443.7,411.2c-0.1,4-0.1,8,0,12
		c3.6,0.1,7.2,0.1,10.9,0c0.1-4,0.1-8,0-12C450.9,411.1,447.3,411.1,443.7,411.2 M424.3,436.5c-0.1,4-0.1,8,0,12
		c3.6,0.1,7.2,0.1,10.9,0c0.1-4,0.1-8,0-12C431.5,436.4,427.9,436.3,424.3,436.5 M443.6,436.5c-0.1,4-0.1,8,0,12
		c3.6,0.1,7.2,0.1,10.8,0c0.1-4,0.1-8,0-12C450.9,436.4,447.2,436.4,443.6,436.5 M424.3,461.7c0,4,0,8,0,12c3.6,0.1,7.3,0.1,10.9,0
		c0.1-4,0.1-8,0-12C431.5,461.6,427.9,461.6,424.3,461.7 M443.6,461.7c-0.1,4-0.1,8,0,12c3.6,0.1,7.3,0.1,10.9,0c0-4,0-8,0-12
		C450.9,461.6,447.2,461.6,443.6,461.7 M424.3,487c0,4-0.1,8,0,12c3.6,0.1,7.2,0.1,10.9,0c0.1-4,0.1-8,0-12
		C431.5,486.9,427.9,486.8,424.3,487 M443.7,486.9c-0.2,4-0.1,8,0,12c3.6,0.1,7.2,0.1,10.8,0c0.1-4,0.1-8,0-12
		C450.9,486.9,447.3,486.9,443.7,486.9z"/>
	<path class="st1" d="M511.7,392.8c1-0.2,1.4,1,1.3,1.8c0,39.6,0,79.2,0,118.8c0.1,1-0.1,2.2-1.4,2c-14.2,0-28.4,0-42.6,0
		c-1.2,0.2-1.2-1.2-1.2-2c0-21.4,0-42.7,0-64.1c-0.1-1.8,1.4-3,2.3-4.3c13-16.5,26.1-33,39.1-49.6
		C510,394.5,510.6,393.3,511.7,392.8 M506.3,409.2c-3.9,4.1-7.2,8.8-10.8,13.1c-0.8,0.7-0.9,2.3,0.5,2.3c3.5,0.1,7.1,0.1,10.6,0
		c0.9,0.1,1.5-0.7,1.4-1.5c0-4.3,0.1-8.6,0-12.9C508.1,409.4,507,408.6,506.3,409.2 M493.8,429.7c-1.3,0.9-0.5,3.1-0.7,4.4
		c0.3,1.8-0.6,4.1,0.6,5.4c4.7,0.1,9.5,0.5,14.1-0.2c0.4-2.9,0.2-5.8,0.1-8.7c0.1-1.2-1.4-1.1-2.2-1.1
		C501.8,429.6,497.8,429.4,493.8,429.7 M486.7,434.5c-4.3,4.7-8.1,9.9-12.2,14.9c-1.2,1.2-1.8,3.8-0.4,5c3.9,0.3,7.8,0,11.7,0.1
		c1,0,2.8,0.1,2.6-1.3c0.1-5.7,0-11.5,0-17.2C488.6,435.1,487.7,433.9,486.7,434.5 M493.1,450.5c0.1,1.4-0.7,4.3,1.7,4
		c4.3-0.2,8.8,0.4,13-0.3c0.3-3.2,0.2-6.4,0-9.7c-4.7-0.1-9.5-0.2-14.2,0C492.5,446.1,493.4,448.6,493.1,450.5 M473.9,459.6
		c-0.8,2.9-0.3,6.4-0.2,9.5c3.5,0.9,7.4,0.1,11,0.4c1.4-0.1,4,0.5,3.7-1.7c-0.3-2.7,0.7-5.9-0.6-8.3
		C483.2,459.3,478.4,459,473.9,459.6 M493.4,459.6c-0.7,2.7-0.2,5.7-0.3,8.5c-0.1,1.8,2.1,1.2,3.3,1.3c3.8-0.3,7.8,0.5,11.5-0.4
		c0.2-3.2,0.5-6.5-0.2-9.6C503,459.3,498,459,493.4,459.6 M473.9,474.4c-0.8,2.9-0.3,6.4-0.2,9.5c3.5,0.9,7.4,0.1,11,0.4
		c1.4-0.1,4.1,0.5,3.7-1.7c-0.3-2.7,0.7-5.9-0.6-8.3C483.2,474.2,478.4,473.9,473.9,474.4 M493.4,474.5c-0.7,2.7-0.2,5.7-0.3,8.5
		c-0.1,1.8,2.1,1.2,3.3,1.3c3.8-0.3,7.8,0.5,11.5-0.4c0.3-2.9,0.2-5.8,0.1-8.7c-0.1-1.5-2-0.9-3-1.1
		C501.1,474.4,497.1,473.7,493.4,474.5 M473.9,489.3c-0.8,2.8-0.3,6.4-0.3,9.4c3.4,0.9,7.1,0.1,10.7,0.4c1.5-0.1,4.4,0.7,4.1-1.7
		c-0.3-2.7,0.7-6-0.6-8.3C483.2,489,478.4,488.7,473.9,489.3 M493.4,489.3c-0.7,2.7-0.2,5.7-0.3,8.5c-0.1,1.8,2.1,1.2,3.3,1.3
		c3.8-0.3,7.8,0.5,11.5-0.4c0.3-3.1,0.3-6.2,0-9.3c-2-0.9-4.3-0.2-6.4-0.4C498.8,489.2,495.9,488.6,493.4,489.3z"/>
	<path class="st1" d="M386.8,443.2c0.7-0.5,1.4,0.5,1.9,1c7.2,9.4,14.5,18.7,21.6,28c0.9,0.8,0.1,2.2-1.1,1.9c-14.6,0-29.2,0-43.7,0
		c-1.4,0.3-1.9-1.4-0.9-2.2C372.1,462.4,379.1,452.5,386.8,443.2z"/>
	<path class="st1" d="M518.2,456c-0.2-1.2,1.2-1.2,2-1.2c14.3,0.1,28.7,0,43,0c1.1-0.2,1.1,1.1,1.1,1.9c0,2.9,0.1,5.8-0.2,8.7
		c-14.1,0.1-28.2,0-42.4,0.1c-1.1,0-2.3,0-3.4-0.2C518,462.2,518.2,459.1,518.2,456z"/>
	<path class="st1" d="M518.8,469.1c14.4-0.2,28.8,0,43.2-0.1c1-0.1,2.5,0,2.3,1.4c0.1,14.5,0,29,0,43.4c0.2,1-0.4,2-1.5,1.8
		c-14.5,0-28.9,0-43.4,0c-1.1,0.2-1.4-0.9-1.3-1.8c0-14.3,0-28.7,0-43C518.2,470.2,518.1,469.2,518.8,469.1 M524.3,474.5
		c-0.9,2.4-0.2,5.7-0.4,8.4c-0.2,1.7,1.9,1.4,3,1.4c3.9-0.2,7.9,0.2,11.8-0.2c0.9-2.9,0.3-6.3,0.3-9.4c-1.1-0.8-2.6-0.4-3.9-0.5
		C531.5,474.5,527.8,474,524.3,474.5 M544.5,474.4c-1,0.7-0.5,2.1-0.6,3c0.2,2.2-0.4,4.6,0.4,6.7c4,0.5,8.1,0,12.2,0.2
		c0.9-0.1,2.6,0.2,2.6-1.1c0.1-2.9,0.2-5.9-0.1-8.7C554.2,474,549.3,474.3,544.5,474.4 M524.3,489.3c-0.9,2.8-0.3,6.4-0.3,9.4
		c3.5,0.9,7.4,0.1,11.1,0.4c1.4-0.1,4.4,0.7,4.1-1.7c-0.3-2.7,0.7-5.9-0.6-8.2C533.8,489,528.9,488.8,524.3,489.3 M544.5,489.2
		c-1,0.8-0.4,2.6-0.6,3.9c0.2,1.9-0.6,4.2,0.5,5.9c4.8,0.2,9.6,0.2,14.4,0c0.9-2.7,0.2-5.8,0.4-8.6c0.1-1.7-2-1.2-3.1-1.3
		C552.3,489.2,548.4,488.8,544.5,489.2z"/>
	<path class="st1" d="M363.8,480.6c0.1-1-0.2-2.6,1.3-2.4c14.5-0.1,28.9,0,43.4-0.1c0.9-0.1,2.2,0.1,2,1.3c0.1,11.2,0,22.4,0,33.6
		c-0.1,0.7,0.1,2.2-1,2.1c-4.9,0.2-9.9,0-14.8,0.1c-0.1-7.6,0.2-15.1-0.2-22.7c-2.6-0.7-5.3-0.2-8-0.3c-2.4,0.2-4.9-0.4-7.1,0.4
		c-0.5,7.5-0.1,15.1-0.2,22.6c-4.7,0-9.4,0.1-14.1,0c-1,0.1-1.4-0.9-1.3-1.7C363.9,502.5,363.9,491.5,363.8,480.6z"/>
</g>
</svg>
