<?xml version="1.0" encoding="utf-8"?>
<!-- Generator: Adobe Illustrator 19.0.0, SVG Export Plug-In . SVG Version: 6.00 Build 0)  -->
<svg version="1.1" id="Layer_1" xmlns="http://www.w3.org/2000/svg" xmlns:xlink="http://www.w3.org/1999/xlink" x="0px" y="0px"
	 viewBox="0 0 200 100" style="enable-background:new 0 0 200 100;" xml:space="preserve">
<style type="text/css">
	.st0{fill:#FFFFFF;}
	.st1{fill:#F99D26;}
</style>
<g id="XMLID_1_">
	<g id="XMLID_2_">
		<rect id="XMLID_82_" class="st0" width="100" height="100"/>
		<path id="XMLID_81_" class="st1" d="M28.2,10c0.5-1.2,2.3-1.4,3.2-0.7c0.6,0.5,0.5,1.4,0.5,2.2c-0.4,0-0.9,0-1.3,0
			c0-0.4,0-0.7-0.1-1.1c-0.2-0.5-1-0.5-1.2,0c-0.1,0.4-0.1,0.8,0.2,1.2c0.7,0.8,1.5,1.4,2.1,2.3c0.4,0.7,0.4,1.6,0.2,2.3
			c-0.4,1.3-2.2,1.5-3.2,0.9c-0.9-0.6-0.7-1.8-0.7-2.7c0.4,0,0.9,0,1.3,0c0,0.5,0,1,0,1.5c0.1,0.6,1.1,0.6,1.2,0
			c0.1-0.5,0.1-1.1-0.3-1.5c-0.6-0.7-1.3-1.2-1.8-1.9C28,11.9,28,10.9,28.2,10z"/>
		<path id="XMLID_80_" class="st1" d="M38.1,9.3c0.8-0.4,1.8-0.4,2.5,0c0.7,0.5,0.6,1.5,0.6,2.2c-0.4,0-0.9,0-1.3,0
			c0-0.4,0-0.8-0.1-1.1c-0.2-0.5-1.2-0.4-1.2,0.2c-0.2,0.7,0.4,1.2,0.9,1.7c0.7,0.7,1.6,1.4,1.7,2.4c0.1,0.8,0.1,1.9-0.8,2.4
			c-0.8,0.4-1.9,0.4-2.7-0.1c-0.7-0.6-0.5-1.7-0.6-2.6c0.4,0,0.9,0,1.3,0c0,0.5,0,0.9,0,1.4c0.1,0.6,1.1,0.6,1.2,0.1
			c0.1-0.5,0.1-1-0.2-1.4c-0.7-0.9-1.8-1.5-2.2-2.6C37.2,11,37.2,9.8,38.1,9.3z"/>
		<path id="XMLID_79_" class="st1" d="M76.2,9.2C77,8.8,78,8.8,78.7,9.4c0.7,0.7,0.5,1.7,0.5,2.6c-0.4,0-0.9,0-1.3,0
			c0-0.5,0.1-1.1-0.1-1.6c-0.3-0.6-1.3-0.4-1.3,0.3c-0.1,1.3,0,2.7,0,4c0,0.4-0.1,0.8,0.1,1.2c0.2,0.5,1.1,0.5,1.2-0.1
			c0.1-0.6,0-1.3,0-1.9c0.4,0,0.9,0,1.3,0c0,0.9,0.2,2-0.3,2.8c-0.6,0.8-1.7,0.9-2.6,0.5c-0.8-0.3-1.1-1.2-1.1-2c0-1.4,0-2.8,0-4.2
			C75.1,10.4,75.4,9.5,76.2,9.2z"/>
		<path id="XMLID_78_" class="st1" d="M91.9,10c0.5-1.2,2-1.3,3-0.8c0.8,0.5,0.8,1.5,0.7,2.3c-0.4,0-0.9,0-1.3,0c0-0.3,0-0.7,0-1.1
			c-0.2-0.5-1-0.5-1.2,0c-0.1,0.4,0,0.9,0.3,1.3c0.6,0.7,1.3,1.2,1.9,1.9c0.6,0.7,0.6,1.8,0.4,2.6c-0.4,1.3-2.2,1.5-3.2,0.8
			c-0.8-0.6-0.6-1.8-0.7-2.7c0.4,0,0.9,0,1.3,0c0,0.5,0,0.9,0,1.4c0.1,0.6,1.1,0.6,1.2,0.1c0.1-0.5,0.1-1.1-0.3-1.5
			c-0.6-0.6-1.2-1.2-1.8-1.8C91.7,11.9,91.7,10.8,91.9,10z"/>
		<path id="XMLID_77_" class="st1" d="M8.1,12.3c0.9-1.1,1.9-2.2,2.8-3.3c0.9,0,1.8,0,2.7,0c0,6.6,0,13.2,0,19.8c-1.1,0-2.2,0-3.3,0
			c0-5.1,0-10.1,0-15.2c-0.8,0.8-1.6,1.7-2.4,2.5c0-1.1,0-2.2,0-3.3C7.8,12.7,8,12.5,8.1,12.3z"/>
		<path id="XMLID_76_" class="st1" d="M15.7,12.3c0.9-1.1,1.9-2.2,2.8-3.3c0.9,0,1.8,0,2.7,0c0,6.6,0,13.2,0,19.8
			c-1.1,0-2.2,0-3.3,0c0-5.1,0-10.1,0-15.2c-0.8,0.8-1.6,1.7-2.4,2.5c0-1.1,0-2.2,0-3.3C15.4,12.7,15.6,12.5,15.7,12.3z"/>
		<path id="XMLID_75_" class="st1" d="M32.7,9.1c0.5,0,0.9,0,1.4,0c0,2.2,0,4.3,0,6.5c0,0.4,0.3,0.8,0.7,0.8c0.4,0,0.7-0.4,0.7-0.8
			c0-2.2,0-4.3,0-6.5c0.4,0,0.9,0,1.3,0c0,2.1,0,4.3,0,6.4c0,0.7-0.2,1.5-0.9,1.8c-0.7,0.3-1.5,0.3-2.2,0c-0.6-0.3-0.9-1.1-0.9-1.8
			C32.7,13.3,32.7,11.2,32.7,9.1z"/>
		<path id="XMLID_74_" class="st1" d="M41.6,9.1c1.2,0,2.5,0,3.7,0c0,0.4,0,0.8,0,1.1c-0.4,0-0.8,0-1.2,0c0,2.4,0,4.8,0,7.2
			c-0.5,0-0.9,0-1.4,0c0-2.4,0-4.8,0-7.2c-0.4,0-0.8,0-1.1,0C41.6,9.8,41.6,9.4,41.6,9.1z"/>
		<path id="XMLID_71_" class="st1" d="M46.5,9.1c0.5,0,1.1,0,1.6,0c0.5,2.8,1.1,5.5,1.6,8.3c-0.5,0-1,0-1.4,0
			c-0.1-0.5-0.2-1-0.3-1.5c-0.5,0-1,0-1.5,0c-0.1,0.5-0.2,1-0.2,1.5c-0.4,0-0.9,0-1.3,0C45.5,14.6,46,11.8,46.5,9.1 M47.3,11.5
			c-0.2,1.1-0.4,2.2-0.5,3.2c0.4,0,0.7,0,1.1,0C47.6,13.6,47.5,12.6,47.3,11.5z"/>
		<path id="XMLID_70_" class="st1" d="M50.1,9.1c0.5,0,0.9,0,1.4,0c0,2.8,0,5.5,0,8.3c-0.5,0-0.9,0-1.4,0
			C50.1,14.6,50.1,11.8,50.1,9.1z"/>
		<path id="XMLID_69_" class="st1" d="M52.2,9.1c0.5,0,0.9,0,1.4,0c0.5,1.6,1,3.1,1.5,4.7c0-1.6,0-3.1,0-4.7c0.4,0,0.8,0,1.2,0
			c0,2.8,0,5.5,0,8.3c-0.4,0-0.8,0-1.2,0c-0.5-1.7-1.1-3.5-1.6-5.2c0,1.7,0,3.4,0,5.2c-0.4,0-0.8,0-1.2,0
			C52.2,14.6,52.2,11.8,52.2,9.1z"/>
		<path id="XMLID_66_" class="st1" d="M58.2,9.1c0.5,0,1.1,0,1.6,0c0.5,2.8,1.1,5.5,1.6,8.3c-0.5,0-1,0-1.4,0
			c-0.1-0.5-0.2-1-0.3-1.5c-0.5,0-1,0-1.5,0c-0.1,0.5-0.2,1-0.2,1.5c-0.4,0-0.9,0-1.3,0C57.2,14.6,57.7,11.8,58.2,9.1 M59,11.4
			c-0.2,1.1-0.4,2.2-0.5,3.3c0.4,0,0.7,0,1.1,0C59.3,13.6,59.2,12.5,59,11.4z"/>
		<path id="XMLID_62_" class="st1" d="M61.8,9.1c0.8,0,1.6,0,2.4,0c0.6,0,1.2,0.3,1.3,0.9c0.2,0.6,0.1,1.3,0.1,2
			c0,0.5-0.3,0.8-0.7,1c0.6,0.2,1,0.8,1,1.4c0,0.9,0.2,2.2-0.8,2.7c-1,0.4-2.2,0.1-3.3,0.2C61.8,14.6,61.8,11.8,61.8,9.1 M63.2,12.6
			c0.4,0,1,0.1,1.1-0.4c0.1-0.5,0.1-1.1,0-1.6c-0.1-0.5-0.7-0.3-1.1-0.4C63.2,11,63.2,11.8,63.2,12.6 M63.2,13.6c0,0.9,0,1.7,0,2.6
			c0.4,0,1.1,0.1,1.2-0.4c0.1-0.6,0.1-1.2,0-1.8C64.3,13.5,63.6,13.7,63.2,13.6z"/>
		<path id="XMLID_61_" class="st1" d="M66.5,9.1c0.5,0,0.9,0,1.4,0c0,2.4,0,4.8,0,7.2c0.6,0,1.1,0,1.7,0c0,0.4,0,0.8,0,1.1
			c-1,0-2,0-3.1,0C66.5,14.6,66.5,11.8,66.5,9.1z"/>
		<path id="XMLID_60_" class="st1" d="M70,9.1c1.1,0,2.2,0,3.3,0c0,0.4,0,0.8,0,1.1c-0.6,0-1.3,0-1.9,0c0,0.8,0,1.6,0,2.4
			c0.5,0,0.9,0,1.4,0c0,0.4,0,0.8,0,1.1c-0.5,0-0.9,0-1.4,0c0,0.8,0,1.7,0,2.5c0.6,0,1.3,0,1.9,0c0,0.4,0,0.8,0,1.1
			c-1.1,0-2.2,0-3.3,0C70,14.6,70,11.8,70,9.1z"/>
		<path id="XMLID_59_" class="st1" d="M79.8,9.1c0.5,0,0.9,0,1.4,0c0,2.8,0,5.5,0,8.3c-0.5,0-0.9,0-1.4,0
			C79.8,14.6,79.8,11.8,79.8,9.1z"/>
		<path id="XMLID_58_" class="st1" d="M81.7,9.1c1.2,0,2.5,0,3.7,0c0,0.4,0,0.8,0,1.1c-0.4,0-0.8,0-1.1,0c0,2.4,0,4.8,0,7.2
			c-0.5,0-0.9,0-1.4,0c0-2.4,0-4.8,0-7.2c-0.4,0-0.8,0-1.1,0C81.7,9.8,81.7,9.4,81.7,9.1z"/>
		<path id="XMLID_57_" class="st1" d="M85.9,9.1c0.5,0,0.9,0,1.4,0c0,2.8,0,5.5,0,8.3c-0.5,0-0.9,0-1.4,0
			C85.9,14.6,85.9,11.8,85.9,9.1z"/>
		<path id="XMLID_56_" class="st1" d="M88,9.1c1.1,0,2.2,0,3.3,0c0,0.4,0,0.8,0,1.1c-0.6,0-1.3,0-1.9,0c0,0.8,0,1.6,0,2.4
			c0.5,0,0.9,0,1.4,0c0,0.4,0,0.8,0,1.1c-0.5,0-0.9,0-1.4,0c0,0.8,0,1.7,0,2.5c0.6,0,1.3,0,1.9,0c0,0.4,0,0.8,0,1.1
			c-1.1,0-2.2,0-3.3,0C88,14.6,88,11.8,88,9.1z"/>
		<path id="XMLID_55_" class="st1" d="M44.7,20.8c0.8-0.4,1.9-0.4,2.6,0.2c0.7,0.7,0.5,1.7,0.5,2.6c-0.4,0-0.9,0-1.3,0
			c0-0.5,0.1-1.1-0.1-1.6c-0.3-0.6-1.3-0.2-1.3,0.4c0,1.6,0,3.2,0,4.8c0,0.7,1.1,0.9,1.3,0.3c0.1-0.6,0-1.3,0.1-2c0.4,0,0.9,0,1.3,0
			c-0.1,0.9,0.2,2-0.3,2.8c-0.6,0.8-1.8,0.9-2.6,0.5c-0.7-0.3-1.1-1.2-1.1-1.9c0-1.4,0-2.8,0-4.2C43.8,22,44,21.2,44.7,20.8z"/>
		<path id="XMLID_52_" class="st1" d="M49.9,20.6c0.7-0.1,1.6-0.1,2.1,0.5c0.5,0.4,0.6,1.1,0.6,1.8c0,1.3,0,2.7,0,4
			c0,0.7-0.2,1.5-0.8,1.9c-0.7,0.5-1.6,0.5-2.4,0.1c-0.7-0.4-1-1.2-1-2c0-1.4,0-2.9,0-4.3C48.5,21.7,49,20.8,49.9,20.6 M50.2,21.8
			c-0.4,0.2-0.4,0.6-0.4,0.9c0,1.5,0,2.9,0,4.4c0,0.4,0.3,0.8,0.7,0.8c0.5,0,0.7-0.4,0.7-0.8c0-1.5,0-3.1,0-4.6
			C51.3,21.9,50.7,21.6,50.2,21.8z"/>
		<path id="XMLID_51_" class="st1" d="M86.5,21.5c0.6-1,2-1.1,2.9-0.6c0.8,0.4,0.8,1.5,0.8,2.3c-0.4,0-0.9,0-1.3,0
			c0-0.4,0-0.7-0.1-1.1c-0.2-0.5-1.1-0.5-1.2,0c-0.1,0.4-0.1,0.9,0.2,1.2c0.7,0.8,1.5,1.4,2.1,2.2c0.4,0.7,0.4,1.7,0.2,2.5
			c-0.4,1.2-2.2,1.4-3.2,0.8c-0.9-0.6-0.7-1.8-0.7-2.7c0.4,0,0.9,0,1.3,0c0,0.5-0.1,1,0.1,1.5c0.2,0.6,1.3,0.4,1.2-0.2
			c0.3-1.2-1-1.9-1.7-2.7C86.3,23.9,86,22.5,86.5,21.5z"/>
		<path id="XMLID_48_" class="st1" d="M29.5,20.7c0.5,0,1.1,0,1.6,0c0.5,2.8,1.1,5.5,1.6,8.3c-0.5,0-1,0-1.4,0
			c-0.1-0.5-0.2-1-0.3-1.5c-0.5,0-1,0-1.5,0c-0.1,0.5-0.2,1-0.2,1.5c-0.4,0-0.9,0-1.3,0C28.4,26.2,29,23.4,29.5,20.7 M30.2,23.1
			c-0.2,1.1-0.4,2.2-0.5,3.3c0.4,0,0.7,0,1.1,0C30.6,25.2,30.4,24.1,30.2,23.1z"/>
		<path id="XMLID_47_" class="st1" d="M33.1,20.7c0.5,0,0.9,0,1.4,0c0.5,1.6,1,3.2,1.5,4.7c0-1.6,0-3.2,0-4.7c0.4,0,0.8,0,1.2,0
			c0,2.8,0,5.5,0,8.3c-0.4,0-0.8,0-1.2,0c-0.5-1.7-1.1-3.4-1.6-5.1c0,1.7,0,3.4,0,5.1c-0.4,0-0.8,0-1.2,0
			C33.1,26.2,33.1,23.4,33.1,20.7z"/>
		<path id="XMLID_44_" class="st1" d="M37.8,20.7c1.1,0.1,2.3-0.2,3.3,0.3c0.7,0.4,0.9,1.2,0.9,1.9c0,1.3,0,2.7,0,4
			c0,0.7-0.2,1.5-0.9,1.9c-1,0.5-2.2,0.2-3.3,0.2C37.8,26.2,37.8,23.4,37.8,20.7 M39.2,21.8c0,2,0,4,0,6c0.3,0,0.7,0,1-0.1
			c0.3-0.2,0.3-0.6,0.3-0.9c0-1.3,0-2.7,0-4c0-0.3,0-0.7-0.3-0.9C39.9,21.8,39.5,21.8,39.2,21.8z"/>
		<path id="XMLID_43_" class="st1" d="M53.3,20.7c0.5,0,1.1,0,1.6,0c0.3,1.5,0.6,3.1,0.9,4.6c0.3-1.5,0.5-3.1,0.8-4.6
			c0.6,0,1.2,0,1.8,0c0,2.8,0,5.5,0,8.3c-0.4,0-0.9,0-1.3,0c0-1.8,0-3.6,0-5.4c-0.3,1.8-0.6,3.6-1,5.4c-0.2,0-0.4,0-0.7,0
			c-0.4-1.8-0.7-3.5-1-5.3c0,1.8,0,3.5,0,5.3c-0.4,0-0.8,0-1.2,0C53.3,26.2,53.3,23.4,53.3,20.7z"/>
		<path id="XMLID_42_" class="st1" d="M59.1,20.7c0.5,0,1.1,0,1.6,0c0.3,1.5,0.6,3.1,0.9,4.6c0.3-1.5,0.5-3.1,0.8-4.6
			c0.6,0,1.2,0,1.8,0c0,2.8,0,5.5,0,8.3c-0.4,0-0.9,0-1.3,0c0-1.8,0-3.6,0-5.4c-0.3,1.8-0.6,3.6-1,5.4c-0.2,0-0.4,0-0.7,0
			c-0.3-1.8-0.7-3.5-1-5.3c-0.1,1.8,0,3.5,0,5.3c-0.4,0-0.8,0-1.2,0C59.1,26.2,59.1,23.4,59.1,20.7z"/>
		<path id="XMLID_41_" class="st1" d="M64.9,20.7c0.5,0,0.9,0,1.4,0c0,2.2,0,4.4,0,6.6c0,0.5,0.4,0.8,0.9,0.6
			c0.4-0.1,0.5-0.5,0.5-0.8c0-2.1,0-4.3,0-6.4c0.4,0,0.9,0,1.3,0c0,2.1,0,4.3,0,6.4c0,0.7-0.2,1.5-0.9,1.8c-0.7,0.3-1.5,0.3-2.2,0
			c-0.7-0.3-0.9-1.1-0.9-1.8C64.9,24.9,64.9,22.8,64.9,20.7z"/>
		<path id="XMLID_40_" class="st1" d="M69.6,20.7c0.5,0,0.9,0,1.4,0c0.5,1.6,1,3.1,1.5,4.7c0-1.6,0-3.1,0-4.7c0.4,0,0.8,0,1.2,0
			c0,2.8,0,5.5,0,8.3c-0.4,0-0.8,0-1.2,0c-0.5-1.7-1.1-3.5-1.6-5.2c0,1.7,0,3.4,0,5.2c-0.4,0-0.8,0-1.2,0
			C69.6,26.2,69.6,23.4,69.6,20.7z"/>
		<path id="XMLID_39_" class="st1" d="M74.3,20.7c0.5,0,0.9,0,1.4,0c0,2.8,0,5.5,0,8.3c-0.5,0-0.9,0-1.4,0
			C74.3,26.2,74.3,23.4,74.3,20.7z"/>
		<path id="XMLID_38_" class="st1" d="M76.2,20.7c1.2,0,2.5,0,3.7,0c0,0.4,0,0.8,0,1.1c-0.4,0-0.8,0-1.1,0c0,2.4,0,4.8,0,7.2
			c-0.5,0-0.9,0-1.4,0c0-2.4,0-4.8,0-7.2c-0.4,0-0.8,0-1.1,0C76.2,21.4,76.2,21.1,76.2,20.7z"/>
		<path id="XMLID_37_" class="st1" d="M80.4,20.7c0.5,0,0.9,0,1.4,0c0,2.8,0,5.5,0,8.3c-0.5,0-0.9,0-1.4,0
			C80.4,26.2,80.4,23.4,80.4,20.7z"/>
		<path id="XMLID_36_" class="st1" d="M82.5,20.7c1.1,0,2.2,0,3.3,0c0,0.4,0,0.8,0,1.1c-0.6,0-1.3,0-1.9,0c0,0.8,0,1.6,0,2.4
			c0.5,0,0.9,0,1.4,0c0,0.4,0,0.8,0,1.1c-0.5,0-0.9,0-1.4,0c0,0.8,0,1.7,0,2.5c0.6,0,1.3,0,1.9,0c0,0.4,0,0.8,0,1.1
			c-1.1,0-2.2,0-3.3,0C82.5,26.2,82.5,23.4,82.5,20.7z"/>
		<path id="XMLID_24_" class="st1" d="M35.1,39.7c4.7-0.1,9.4,0,14.1,0c0.3,0,0.8,0,0.8,0.4c0,16.3,0,32.6,0,48.8
			c0.1,0.3-0.1,0.6-0.5,0.5c-4.7,0-9.4,0-14.2,0c-0.3,0-0.5-0.2-0.4-0.4c0-16.3,0-32.6,0-48.8C34.9,40,34.9,39.7,35.1,39.7
			 M37.4,46.8c0,1.2,0,2.4,0,3.5c1.2,0,2.4,0,3.6,0c0-1.3,0-2.7,0-4c-1.1,0-2.2,0-3.4,0C37.4,46.2,37.4,46.6,37.4,46.8 M43.9,46.3
			c-0.1,1.3,0,2.7,0,4c1.2,0,2.4,0,3.6,0c0-1.3,0-2.7,0-4C46.3,46.3,45.1,46.3,43.9,46.3 M37.4,54.7c0,1.3,0,2.7,0,4
			c1.2,0,2.4,0,3.6,0c0-1.3,0-2.7,0-4C39.8,54.7,38.6,54.7,37.4,54.7 M43.9,55c0,1.3,0,2.5,0,3.8c1.2,0,2.4,0,3.6,0c0-1.3,0-2.7,0-4
			c-1.1,0-2.1,0-3.2,0C44.1,54.7,43.8,54.7,43.9,55 M37.4,63.1c0,1.3,0,2.5,0,3.8c-0.1,0.3,0.3,0.3,0.5,0.3c1.1,0,2.1,0,3.2,0
			c0-1.3,0-2.7,0-4C39.8,63.1,38.6,63.1,37.4,63.1 M43.9,63.1c0,1.3,0,2.5,0,3.8c-0.1,0.3,0.3,0.3,0.5,0.3c1.1,0,2.1,0,3.2,0
			c0-1.3,0-2.7,0-4C46.3,63.1,45.1,63.1,43.9,63.1 M37.4,71.6c0,1.2,0,2.5,0,3.7c0,0.3,0.3,0.3,0.6,0.3c1,0,2.1,0,3.1,0
			c0-1.3,0-2.7,0-4C39.8,71.5,38.6,71.5,37.4,71.6 M43.9,71.6c-0.1,1.1,0,2.3,0,3.4c0,0.2-0.1,0.6,0.3,0.6c1.1,0,2.3,0,3.4,0
			c0-1.3,0-2.7,0-4C46.3,71.6,45.1,71.5,43.9,71.6 M37.4,80c0,1.3-0.1,2.7,0,4c1.2,0,2.4,0,3.6,0c0.1-1.3,0-2.7,0-4
			C39.9,79.9,38.6,79.9,37.4,80 M43.9,80c0,1.3,0,2.7,0,4c1.2,0.1,2.4,0,3.6,0c0-1.3,0-2.7,0-4C46.3,80,45.1,79.9,43.9,80z"/>
		<path id="XMLID_12_" class="st1" d="M66.4,48.7c0.4-0.2,0.6,0.2,0.6,0.6c0,13.3,0,26.5,0,39.8c0,0.3-0.1,0.5-0.4,0.5
			c-4.7,0-9.5,0-14.2,0c-0.3,0.1-0.5-0.2-0.5-0.5c0-7.2,0-14.4,0-21.6c0-0.2,0-0.4,0.2-0.6c4.6-5.8,9.1-11.5,13.6-17.3
			C66,49.2,66.2,48.9,66.4,48.7 M64.8,54c-1.3,1.4-2.4,3-3.7,4.5c-0.3,0.2-0.2,0.7,0.2,0.7c1.2,0,2.3,0,3.5,0c0.3,0,0.5-0.2,0.5-0.5
			c0-1.4,0-2.9,0-4.3C65.4,54.2,65.1,53.9,64.8,54 M60.6,60.9c-0.3,0.1-0.2,0.4-0.2,0.6c0,0.8,0,1.6,0,2.4c0,0.3,0.3,0.3,0.5,0.3
			c1.3,0,2.6,0,3.9,0c0.2,0,0.5-0.1,0.5-0.4c0-0.9,0-1.8,0-2.7c0-0.3-0.4-0.3-0.7-0.3C63.3,60.9,61.9,60.8,60.6,60.9 M58.2,62.5
			c-1.5,1.7-2.9,3.5-4.2,5.3c-0.3,0.4-0.4,1.5,0.4,1.4c1.3,0,2.7,0,4,0c0.3,0,0.4-0.3,0.4-0.5c0-1.9,0-3.9,0-5.8
			C58.8,62.6,58.5,62.3,58.2,62.5 M60.6,65.8c-0.2,0.1-0.2,0.4-0.2,0.6c0,0.8,0,1.6,0,2.5c0,0.3,0.3,0.3,0.5,0.3c1.3,0,2.6,0,3.9,0
			c0.2,0,0.6,0,0.6-0.3c0-0.9,0-1.8,0-2.7c0-0.3-0.4-0.3-0.7-0.3C63.3,65.8,61.9,65.8,60.6,65.8 M53.9,70.8
			c-0.2,0.2-0.1,0.4-0.1,0.6c0,0.8,0,1.6,0,2.3c0,0.3,0.3,0.3,0.6,0.3c1.3,0,2.5,0,3.8,0c0.2,0,0.6,0,0.6-0.3c0-0.9,0-1.8,0-2.7
			c0-0.4-0.6-0.3-0.9-0.3C56.6,70.8,55.2,70.7,53.9,70.8 M60.5,70.8c-0.2,0.2-0.1,0.4-0.1,0.6c0,0.8,0,1.6,0,2.3
			c0,0.3,0.3,0.3,0.6,0.3c1.3,0,2.5,0,3.8,0c0.2,0,0.6,0,0.6-0.3c0-0.9,0-1.8,0-2.7c0-0.4-0.6-0.3-0.9-0.3
			C63.1,70.8,61.8,70.7,60.5,70.8 M54,75.7c-0.3,0.1-0.2,0.4-0.2,0.6c0,0.8,0,1.6,0,2.4c0,0.3,0.3,0.3,0.6,0.3c1.3,0,2.5,0,3.8,0
			c0.2,0,0.5,0,0.6-0.3c0-0.9,0-1.8,0-2.7c0-0.4-0.4-0.4-0.7-0.4C56.8,75.7,55.4,75.7,54,75.7 M60.6,75.7c-0.3,0.1-0.2,0.4-0.2,0.6
			c0,0.8,0,1.6,0,2.4c0,0.3,0.3,0.3,0.6,0.3c1.3,0,2.5,0,3.8,0c0.2,0,0.5,0,0.6-0.3c0-0.9,0-1.8,0-2.7c0-0.4-0.4-0.4-0.7-0.4
			C63.3,75.7,61.9,75.7,60.6,75.7 M54,80.7c-0.3,0.1-0.2,0.4-0.2,0.6c0,0.8,0,1.6,0,2.4c0,0.3,0.4,0.3,0.6,0.3c1.3,0,2.7,0,4,0
			c0.3,0,0.3-0.4,0.3-0.6c0-0.8,0-1.6,0-2.4c0-0.3-0.4-0.3-0.7-0.3C56.7,80.7,55.4,80.6,54,80.7 M60.6,80.7
			c-0.2,0.1-0.2,0.4-0.2,0.5c0,0.8,0,1.6,0,2.5c0,0.3,0.2,0.4,0.5,0.3c1.3,0,2.6,0,3.9,0c0.2,0,0.6,0,0.6-0.3c0-0.9,0-1.8,0-2.7
			c0-0.4-0.5-0.3-0.8-0.3C63.2,80.7,61.9,80.6,60.6,80.7z"/>
		<path id="XMLID_11_" class="st1" d="M25,65.4c0.2-0.1,0.4,0.1,0.5,0.2c2.3,2.9,4.5,5.9,6.8,8.8c0.2,0.3,0.5,0.5,0.6,0.9
			c0.1,0.3-0.3,0.4-0.6,0.4c-4.9,0-9.7,0-14.6,0c-0.3,0-0.5-0.4-0.3-0.6c2.3-3,4.6-6,6.8-9C24.5,65.9,24.7,65.6,25,65.4z"/>
		<path id="XMLID_10_" class="st1" d="M68.9,69.3c4.8-0.1,9.7,0,14.5,0c0.3,0,0.7,0,0.7,0.4c0,1,0,2,0,2.9c0,0.3-0.3,0.3-0.5,0.3
			c-4.8,0-9.6,0-14.4,0c-0.2,0-0.5,0-0.5-0.3c0-0.9,0-1.8,0-2.7C68.7,69.7,68.7,69.4,68.9,69.3z"/>
		<path id="XMLID_4_" class="st1" d="M68.9,74.1c0.3-0.1,0.6,0,0.9,0c4.6,0,9.3,0,13.9,0c0.3,0,0.4,0.2,0.4,0.5c0,4.9,0,9.7,0,14.6
			c0,0.3-0.1,0.5-0.4,0.5c-4.8,0-9.6,0-14.5,0c-0.2,0-0.6-0.1-0.5-0.4c0-4.9,0-9.7,0-14.6C68.7,74.4,68.7,74.2,68.9,74.1 M70.8,75.8
			c-0.2,0.1-0.2,0.4-0.2,0.6c0,0.8,0,1.6,0,2.4c0,0.3,0.3,0.3,0.6,0.3c1.3,0,2.6,0,3.9,0c0.2,0,0.6,0,0.6-0.3c0-0.9,0-1.8,0-2.7
			c0-0.4-0.4-0.3-0.7-0.3C73.6,75.8,72.2,75.7,70.8,75.8 M77.5,75.8c-0.2,0.1-0.2,0.4-0.2,0.7c0,0.8,0,1.6,0,2.3
			c0,0.3,0.4,0.3,0.6,0.3c1.3,0,2.6,0,3.9,0c0.2,0,0.6,0,0.5-0.3c0-0.9,0-1.8,0-2.7c0-0.4-0.5-0.3-0.8-0.3
			C80.3,75.8,78.9,75.7,77.5,75.8 M70.8,80.7c-0.3,0.1-0.2,0.4-0.2,0.6c0,0.8,0,1.6,0,2.4c0,0.3,0.2,0.4,0.5,0.3c1.4,0,2.7,0,4.1,0
			c0.2,0,0.5-0.1,0.5-0.3c0-0.9,0-1.8,0-2.6c0-0.4-0.5-0.4-0.8-0.4C73.5,80.7,72.2,80.6,70.8,80.7 M77.6,80.7
			c-0.3,0.1-0.3,0.4-0.3,0.6c0,0.8,0,1.6,0,2.4c0,0.3,0.4,0.3,0.6,0.3c1.4,0,2.7,0,4.1,0c0.2,0,0.4-0.2,0.4-0.4c0-0.9,0-1.8,0-2.6
			c0-0.3-0.4-0.3-0.6-0.3C80.4,80.7,79,80.6,77.6,80.7z"/>
		<path id="XMLID_3_" class="st1" d="M17.3,77.5c0-0.3,0.2-0.5,0.5-0.5c4.9,0,9.7,0,14.6,0c0.3,0,0.6,0.2,0.5,0.5
			c0,3.8,0,7.6,0,11.3c0,0.3-0.1,0.6-0.4,0.5c-1.6,0-3.2,0-4.8,0c0-2.4,0-4.8,0-7.2c0-0.3-0.1-0.5-0.4-0.5c-1.4,0-2.9,0-4.3,0
			c-0.3,0-0.4,0.2-0.4,0.5c0,2.4,0,4.8,0,7.2c-1.6,0-3.2,0-4.7,0c-0.3,0-0.4-0.3-0.4-0.5C17.3,85.1,17.3,81.3,17.3,77.5z"/>
	</g>
</g>
<g id="XMLID_83_">
	<g id="XMLID_84_">
		<rect id="XMLID_166_" x="100" class="st1" width="100" height="100"/>
		<path id="XMLID_165_" class="st0" d="M118.5,9c0.9,0,1.8,0,2.7,0c0,6.6,0,13.2,0,19.9c-1.1,0-2.2,0-3.3,0c0-5.1,0-10.1,0-15.2
			c-0.8,0.8-1.6,1.7-2.4,2.5c0-1.1,0-2.2,0-3.3c0-0.3,0.2-0.5,0.4-0.7C116.7,11.1,117.6,10.1,118.5,9z"/>
		<path id="XMLID_164_" class="st0" d="M128.3,9.8c0.6-1,1.9-1,2.9-0.6c0.9,0.4,0.8,1.5,0.8,2.4c-0.4,0-0.9,0-1.3,0
			c0-0.4,0-0.7-0.1-1c-0.1-0.5-1-0.5-1.2,0c-0.1,0.4-0.1,0.8,0.2,1.2c0.7,0.9,1.9,1.6,2.3,2.7c0.2,1,0.2,2.3-0.7,2.8
			c-0.8,0.4-1.9,0.4-2.7-0.2c-0.7-0.7-0.5-1.7-0.5-2.5c0.4,0,0.9,0,1.3,0c0,0.5-0.1,1.1,0.1,1.6c0.3,0.5,1.2,0.3,1.2-0.4
			c0.2-1.3-1.1-1.9-1.7-2.7C128.1,12.2,127.8,10.9,128.3,9.8z"/>
		<path id="XMLID_163_" class="st0" d="M132.7,9c0.5,0,0.9,0,1.4,0c0,2.2,0,4.4,0,6.6c-0.1,0.8,1.2,0.9,1.3,0.1c0.1-2.2,0-4.5,0-6.7
			c0.4,0,0.9,0,1.3,0c0,2.1,0,4.2,0,6.3c0,0.7-0.2,1.5-0.9,1.9c-0.7,0.3-1.6,0.3-2.3,0c-0.7-0.3-0.9-1.1-0.9-1.8
			C132.7,13.3,132.7,11.2,132.7,9z"/>
		<path id="XMLID_162_" class="st0" d="M138,9.3c0.8-0.4,1.8-0.4,2.5,0c0.7,0.5,0.6,1.5,0.7,2.3c-0.4,0-0.9,0-1.3,0
			c0-0.3,0-0.7-0.1-1c-0.1-0.5-1-0.5-1.2,0c-0.1,0.4-0.1,0.9,0.2,1.2c0.7,0.9,1.9,1.6,2.3,2.7c0.2,0.9,0.2,2.2-0.7,2.8
			c-0.8,0.4-1.9,0.4-2.7-0.2c-0.7-0.7-0.5-1.7-0.5-2.5c0.4,0,0.9,0,1.3,0c0,0.5-0.1,1,0.1,1.5c0.2,0.6,1.2,0.4,1.2-0.2
			c0.3-1.6-1.6-2.2-2.2-3.4C137.1,11.4,137.1,9.9,138,9.3z"/>
		<path id="XMLID_161_" class="st0" d="M141.6,9c1.2,0,2.5,0,3.7,0c0,0.4,0,0.8,0,1.2c-0.4,0-0.8,0-1.2,0c0,2.4,0,4.8,0,7.2
			c-0.5,0-1,0-1.4,0c0-2.4,0-4.8,0-7.2c-0.4,0-0.8,0-1.1,0C141.6,9.8,141.6,9.4,141.6,9z"/>
		<path id="XMLID_160_" class="st0" d="M150.1,9c0.5,0,0.9,0,1.4,0c0,2.8,0,5.5,0,8.3c-0.5,0-0.9,0-1.4,0
			C150.1,14.6,150.1,11.8,150.1,9z"/>
		<path id="XMLID_159_" class="st0" d="M152.2,9c0.5,0,0.9,0,1.4,0c0.5,1.5,1,3.1,1.5,4.6c0-1.5,0-3.1,0-4.6c0.4,0,0.8,0,1.2,0
			c0,2.8,0,5.5,0,8.3c-0.4,0-0.8,0-1.2,0c-0.5-1.7-1-3.4-1.6-5c0,1.7,0,3.4,0,5c-0.4,0-0.8,0-1.2,0C152.2,14.6,152.2,11.8,152.2,9z"
			/>
		<path id="XMLID_158_" class="st0" d="M175.3,10.3c0.4-1.4,2.3-1.7,3.3-0.9c0.8,0.7,0.6,1.8,0.6,2.7c-0.4,0-0.9,0-1.3,0
			c0-0.5,0.1-1.1-0.1-1.6c-0.4-0.5-1.3-0.2-1.2,0.4c0,1.6,0,3.2,0,4.8c0,0.7,1,0.9,1.3,0.3c0.2-0.7,0.1-1.3,0.1-2c0.4,0,0.9,0,1.3,0
			c-0.1,1,0.2,2.1-0.4,2.9c-0.7,0.8-2.1,0.8-2.9,0.1c-0.9-0.8-0.7-2.1-0.7-3.1C175.2,12.7,175,11.5,175.3,10.3z"/>
		<path id="XMLID_157_" class="st0" d="M179.8,9c0.5,0,0.9,0,1.4,0c0,2.8,0,5.5,0,8.3c-0.5,0-0.9,0-1.4,0
			C179.8,14.6,179.8,11.8,179.8,9z"/>
		<path id="XMLID_156_" class="st0" d="M185.9,9c0.5,0,0.9,0,1.4,0c0,2.8,0,5.5,0,8.3c-0.5,0-0.9,0-1.4,0
			C185.9,14.6,185.9,11.8,185.9,9z"/>
		<path id="XMLID_155_" class="st0" d="M188,9c1.1,0,2.2,0,3.3,0c0,0.4,0,0.8,0,1.1c-0.6,0-1.3,0-1.9,0c0,0.8,0,1.6,0,2.3
			c0.5,0,0.9,0,1.4,0c0,0.4,0,0.8,0,1.1c-0.5,0-0.9,0-1.4,0c0,0.8,0,1.7,0,2.5c0.6,0,1.3,0,1.9,0c0,0.4,0,0.8,0,1.1
			c-1.1,0-2.2,0-3.3,0C188,14.6,188,11.8,188,9z"/>
		<path id="XMLID_154_" class="st0" d="M192.7,9.2c0.8-0.3,1.8-0.3,2.4,0.2c0.6,0.5,0.5,1.4,0.5,2.2c-0.4,0-0.9,0-1.3,0
			c0-0.4,0-0.8-0.1-1.2c-0.3-0.5-1.2-0.3-1.2,0.3c-0.1,0.8,0.6,1.3,1.1,1.8c0.7,0.7,1.5,1.4,1.6,2.4c0.1,0.8,0,1.9-0.8,2.4
			c-0.8,0.4-2,0.4-2.7-0.2c-0.7-0.7-0.5-1.7-0.5-2.5c0.4,0,0.9,0,1.3,0c0,0.5-0.1,1,0.1,1.5c0.2,0.6,1.2,0.4,1.2-0.2
			c0.3-1.6-1.5-2.2-2.2-3.4C191.6,11.4,191.6,9.7,192.7,9.2z"/>
		<path id="XMLID_153_" class="st0" d="M108.2,12.2c0.9-1,1.8-2.1,2.7-3.1c0.9,0,1.8,0,2.7,0c0,6.6,0,13.2,0,19.9
			c-1.1,0-2.2,0-3.3,0c0-5.1,0-10.1,0-15.2c-0.8,0.8-1.6,1.7-2.4,2.5c0-1.1,0-2.2,0-3.3C107.8,12.6,108.1,12.4,108.2,12.2z"/>
		<path id="XMLID_150_" class="st0" d="M146.5,9.1c0.5,0,1.1,0,1.6,0c0.5,2.8,1.1,5.5,1.6,8.3c-0.5,0-1,0-1.5,0
			c-0.1-0.5-0.2-1-0.2-1.5c-0.5,0-1,0-1.5,0c-0.1,0.5-0.2,1-0.2,1.5c-0.4,0-0.9,0-1.3,0C145.5,14.6,146,11.8,146.5,9.1 M147.3,11.5
			c-0.2,1.1-0.4,2.1-0.5,3.2c0.4,0,0.7,0,1.1,0C147.6,13.7,147.5,12.6,147.3,11.5z"/>
		<path id="XMLID_147_" class="st0" d="M158.2,9.1c0.5,0,1.1,0,1.6,0c0.5,2.8,1.1,5.5,1.6,8.3c-0.5,0-1,0-1.4,0
			c-0.1-0.5-0.2-1-0.3-1.5c-0.5,0-1,0-1.5,0c-0.1,0.5-0.2,1-0.3,1.5c-0.4,0-0.9,0-1.3,0C157.2,14.6,157.7,11.8,158.2,9.1 M159,11.5
			c-0.2,1.1-0.4,2.1-0.5,3.2c0.4,0,0.7,0,1.1,0C159.3,13.7,159.2,12.6,159,11.5z"/>
		<path id="XMLID_143_" class="st0" d="M161.8,9.1c1,0.1,2.1-0.2,3.1,0.2c0.9,0.4,0.8,1.6,0.8,2.5c0,0.5-0.2,1-0.7,1.3
			c0.5,0.2,0.9,0.7,0.9,1.3c0,1,0.2,2.3-0.8,2.9c-1,0.4-2.2,0.1-3.3,0.2C161.8,14.6,161.8,11.8,161.8,9.1 M163.2,10.2
			c0,0.8,0,1.6,0,2.4c0.4-0.1,0.9,0.1,1.1-0.4c0.1-0.5,0.1-1.1,0-1.6C164.2,10.1,163.6,10.2,163.2,10.2 M163.2,13.6
			c0,0.9,0,1.7,0,2.6c0.4,0,1,0.1,1.2-0.4c0.1-0.6,0.1-1.3,0-1.9C164.2,13.5,163.6,13.7,163.2,13.6z"/>
		<path id="XMLID_142_" class="st0" d="M166.5,9.1c0.5,0,0.9,0,1.4,0c0,2.4,0,4.8,0,7.2c0.6,0,1.1,0,1.7,0c0,0.4,0,0.8,0,1.2
			c-1,0-2,0-3.1,0C166.5,14.6,166.5,11.8,166.5,9.1z"/>
		<path id="XMLID_141_" class="st0" d="M170,9.1c1.1,0,2.2,0,3.3,0c0,0.4,0,0.8,0,1.2c-0.6,0-1.3,0-1.9,0c0,0.8,0,1.6,0,2.4
			c0.5,0,0.9,0,1.4,0c0,0.4,0,0.8,0,1.1c-0.5,0-0.9,0-1.4,0c0,0.8,0,1.7,0,2.5c0.6,0,1.3,0,1.9,0c0,0.4,0,0.8,0,1.2
			c-1.1,0-2.2,0-3.3,0C170,14.6,170,11.8,170,9.1z"/>
		<path id="XMLID_140_" class="st0" d="M181.7,9.1c1.2,0,2.5,0,3.7,0c0,0.4,0,0.8,0,1.2c-0.4,0-0.8,0-1.1,0c0,2.4,0,4.8,0,7.2
			c-0.5,0-1,0-1.4,0c0-2.4,0-4.8,0-7.2c-0.4,0-0.8,0-1.1,0C181.7,9.8,181.7,9.4,181.7,9.1z"/>
		<path id="XMLID_139_" class="st0" d="M143.8,22.1c0.2-1.6,2.4-2,3.5-1.1c0.7,0.7,0.5,1.7,0.5,2.6c-0.4,0-0.9,0-1.3,0
			c0-0.5,0.1-1.1-0.1-1.6c-0.3-0.5-1.3-0.3-1.2,0.3c0,1.6,0,3.3,0,4.9c0,0.7,1.2,0.8,1.3,0.1c0.1-0.6,0-1.3,0-1.9c0.4,0,0.9,0,1.3,0
			c0,0.9,0.1,1.9-0.3,2.7c-0.5,0.9-1.8,1-2.7,0.6c-0.9-0.4-1.1-1.4-1.1-2.3C143.8,25.1,143.7,23.6,143.8,22.1z"/>
		<path id="XMLID_136_" class="st0" d="M149.9,20.6c1-0.3,2.3,0.1,2.6,1.2c0.3,1.1,0.1,2.2,0.1,3.3c0,1,0.2,2-0.3,2.9
			c-0.5,1-1.9,1.2-2.9,0.8c-0.8-0.3-1.1-1.2-1.1-2c0-1.4,0-2.9,0-4.3C148.5,21.7,149,20.8,149.9,20.6 M150.3,21.8
			c-0.5,0.2-0.5,0.8-0.5,1.3c0,1.4,0,2.9,0,4.3c0,0.8,1.3,0.7,1.3,0c0.1-1.6,0-3.2,0-4.8C151.3,22,150.8,21.6,150.3,21.8z"/>
		<path id="XMLID_135_" class="st0" d="M187,20.9c0.8-0.4,1.8-0.4,2.6,0.1c0.7,0.5,0.6,1.4,0.6,2.2c-0.4,0-0.9,0-1.3,0
			c0-0.4,0-0.7-0.1-1.1c-0.2-0.5-1-0.5-1.2,0c-0.2,0.4-0.1,0.9,0.2,1.2c0.7,0.9,1.9,1.6,2.3,2.7c0.2,1,0.2,2.3-0.8,2.9
			c-0.8,0.4-1.9,0.4-2.6-0.2c-0.7-0.7-0.5-1.7-0.5-2.5c0.4,0,0.9,0,1.3,0c0,0.5,0,0.9,0,1.4c0.1,0.6,1,0.6,1.2,0.1
			c0.1-0.5,0.1-1-0.2-1.4c-0.7-0.9-1.8-1.6-2.3-2.7C186.2,22.6,186.2,21.4,187,20.9z"/>
		<g id="XMLID_130_">
			<path id="XMLID_134_" class="st1" d="M129.7,26.3c0.2-1.1,0.3-2.1,0.5-3.2c0.2,1.1,0.4,2.1,0.5,3.2
				C130.4,26.3,130,26.3,129.7,26.3z"/>
			<path id="XMLID_131_" class="st0" d="M129.5,20.7c0.5,0,1.1,0,1.6,0c0.5,2.8,1.1,5.5,1.6,8.3c-0.5,0-1,0-1.4,0
				c-0.1-0.5-0.2-1-0.3-1.5c-0.5,0-1,0-1.5,0c-0.1,0.5-0.2,1-0.2,1.5c-0.4,0-0.9,0-1.3,0C128.4,26.2,129,23.4,129.5,20.7
				 M129.7,26.3c0.4,0,0.7,0,1.1,0c-0.2-1.1-0.3-2.1-0.5-3.2C130,24.2,129.9,25.3,129.7,26.3z"/>
		</g>
		<path id="XMLID_129_" class="st0" d="M133.1,20.7c0.5,0,0.9,0,1.4,0c0.5,1.5,0.9,3.1,1.5,4.6c0-1.5,0-3.1,0-4.6c0.4,0,0.8,0,1.2,0
			c0,2.8,0,5.5,0,8.3c-0.4,0-0.8,0-1.2,0c-0.5-1.7-1.1-3.4-1.6-5.1c0,1.7,0,3.4,0,5.1c-0.4,0-0.8,0-1.2,0
			C133.1,26.2,133.1,23.4,133.1,20.7z"/>
		<path id="XMLID_126_" class="st0" d="M137.8,20.7c1,0,2-0.1,2.9,0.1c0.9,0.2,1.3,1.2,1.3,2c0,1.4,0,2.9,0,4.3
			c0,0.8-0.5,1.6-1.3,1.8c-0.9,0.2-1.9,0.1-2.9,0.1C137.8,26.2,137.8,23.4,137.8,20.7 M139.2,21.8c0,2,0,4,0,6c0.5,0,1.3,0,1.3-0.6
			c0.1-1.6,0-3.1,0-4.7C140.6,21.8,139.7,21.8,139.2,21.8z"/>
		<path id="XMLID_125_" class="st0" d="M153.3,20.7c0.5,0,1.1,0,1.6,0c0.3,1.5,0.5,3,0.9,4.4c0.3-1.5,0.5-3,0.8-4.4
			c0.6,0,1.2,0,1.8,0c0,2.8,0,5.5,0,8.3c-0.4,0-0.9,0-1.3,0c0-1.8,0-3.6,0-5.3c-0.4,1.8-0.6,3.6-1,5.3c-0.2,0-0.4,0-0.7,0
			c-0.4-1.8-0.7-3.6-1-5.4c0,1.8,0,3.6,0,5.3c-0.4,0-0.8,0-1.2,0C153.3,26.2,153.3,23.4,153.3,20.7z"/>
		<path id="XMLID_124_" class="st0" d="M159.1,20.7c0.6,0,1.1,0,1.7,0c0.3,1.5,0.6,3.1,0.9,4.6c0.3-1.5,0.5-3.1,0.8-4.6
			c0.6,0,1.2,0,1.8,0c0,2.8,0,5.5,0,8.3c-0.4,0-0.9,0-1.3,0c0-1.8,0-3.6,0-5.4c-0.3,1.8-0.6,3.6-1,5.4c-0.2,0-0.4,0-0.7,0
			c-0.4-1.7-0.6-3.4-1-5.1c-0.1,1.7,0,3.4,0,5.1c-0.4,0-0.8,0-1.2,0C159.1,26.2,159.1,23.4,159.1,20.7z"/>
		<path id="XMLID_123_" class="st0" d="M164.9,20.7c0.5,0,0.9,0,1.4,0c0,2.2,0,4.4,0,6.7c0,0.7,1.3,0.8,1.3,0c0.1-2.2,0-4.4,0-6.7
			c0.4,0,0.9,0,1.3,0c0,2.1,0,4.2,0,6.3c0,0.7-0.2,1.5-0.8,1.9c-0.7,0.4-1.6,0.4-2.3,0c-0.7-0.3-1-1.2-0.9-1.9
			C164.9,24.9,164.9,22.8,164.9,20.7z"/>
		<path id="XMLID_122_" class="st0" d="M169.6,20.7c0.5,0,0.9,0,1.4,0c0.5,1.6,1,3.1,1.5,4.7c0-1.6,0-3.1,0-4.7c0.4,0,0.8,0,1.2,0
			c0,2.8,0,5.5,0,8.3c-0.4,0-0.8,0-1.2,0c-0.5-1.7-1.1-3.4-1.6-5.1c0,1.7,0,3.4,0,5.1c-0.4,0-0.8,0-1.2,0
			C169.6,26.2,169.6,23.4,169.6,20.7z"/>
		<path id="XMLID_121_" class="st0" d="M174.3,20.7c0.5,0,0.9,0,1.4,0c0,2.8,0,5.5,0,8.3c-0.5,0-0.9,0-1.4,0
			C174.3,26.2,174.3,23.4,174.3,20.7z"/>
		<path id="XMLID_120_" class="st0" d="M176.2,20.7c1.2,0,2.5,0,3.7,0c0,0.4,0,0.8,0,1.2c-0.4,0-0.8,0-1.2,0c0,2.4,0,4.8,0,7.2
			c-0.5,0-0.9,0-1.4,0c0-2.4,0-4.8,0-7.2c-0.4,0-0.8,0-1.2,0C176.2,21.4,176.2,21.1,176.2,20.7z"/>
		<path id="XMLID_119_" class="st0" d="M180.4,20.7c0.5,0,0.9,0,1.4,0c0,2.8,0,5.5,0,8.3c-0.5,0-0.9,0-1.4,0
			C180.4,26.2,180.4,23.4,180.4,20.7z"/>
		<path id="XMLID_118_" class="st0" d="M182.5,20.7c1.1,0,2.2,0,3.4,0c0,0.4,0,0.8,0,1.2c-0.6,0-1.3,0-1.9,0c0,0.8,0,1.6,0,2.4
			c0.5,0,0.9,0,1.4,0c0,0.4,0,0.8,0,1.1c-0.5,0-0.9,0-1.4,0c0,0.8,0,1.7,0,2.5c0.6,0,1.3,0,1.9,0c0,0.4,0,0.8,0,1.2
			c-1.1,0-2.2,0-3.3,0C182.5,26.2,182.5,23.4,182.5,20.7z"/>
		<path id="XMLID_106_" class="st0" d="M135.1,39.7c4.6-0.1,9.3,0,13.9-0.1c0.3,0,0.7-0.1,1,0.2c0.1,0.6,0,1.2,0,1.8
			c0,15.8,0,31.5,0,47.3c0.1,0.3-0.1,0.7-0.5,0.6c-4.7,0-9.5,0-14.2,0c-0.4,0.1-0.4-0.3-0.4-0.6c0-16.2,0-32.4,0-48.6
			C134.9,40,134.9,39.7,135.1,39.7 M137.4,46.3c0,1.3,0,2.7,0,4c1.2,0,2.4,0,3.6,0c0-1.3,0-2.7,0-4
			C139.8,46.3,138.6,46.3,137.4,46.3 M143.9,46.3c0,1.3,0,2.7,0,4c1.2,0,2.4,0,3.6,0c0-1.3,0-2.7,0-4
			C146.3,46.3,145.1,46.3,143.9,46.3 M137.4,54.7c0,1.3,0,2.7,0,4c1.2,0,2.4,0,3.6,0c0-1.3,0-2.7,0-4
			C139.8,54.7,138.6,54.7,137.4,54.7 M143.9,54.7c0,1.3,0,2.7,0,4c1.2,0,2.4,0,3.6,0c0-1.3,0-2.7,0-4
			C146.3,54.7,145.1,54.7,143.9,54.7 M137.4,63.2c0,1.3,0,2.7,0,4c1.2,0,2.4,0,3.6,0c0-1.3,0-2.7,0-4
			C139.8,63.1,138.6,63.1,137.4,63.2 M143.9,63.2c0,1.3,0,2.7,0,4c1.2,0,2.4,0,3.6,0c0-1.3,0-2.7,0-4
			C146.3,63.1,145.1,63.1,143.9,63.2 M137.4,71.6c0,1.3,0,2.7,0,4c1.2,0,2.4,0,3.6,0c0-1.3,0-2.7,0-4
			C139.8,71.5,138.6,71.5,137.4,71.6 M143.9,71.6c0,1.3,0,2.7,0,4c1.2,0,2.4,0,3.6,0c0-1.3,0-2.7,0-4
			C146.3,71.5,145.1,71.5,143.9,71.6 M137.4,80c0,1.3,0,2.7,0,4c1.2,0,2.4,0,3.6,0c0-1.3,0-2.7,0-4C139.8,80,138.6,79.9,137.4,80
			 M143.9,80c-0.1,1.3,0,2.7,0,4c1.2,0,2.4,0,3.6,0c0-1.3,0-2.7,0-4C146.3,80,145.1,80,143.9,80z"/>
		<path id="XMLID_94_" class="st0" d="M166.6,48.6c0.3-0.1,0.5,0.3,0.4,0.6c0,13.2,0,26.4,0,39.6c0,0.3,0,0.7-0.5,0.7
			c-4.7,0-9.5,0-14.2,0c-0.4,0.1-0.4-0.4-0.4-0.7c0-7.1,0-14.2,0-21.4c0-0.6,0.5-1,0.8-1.4c4.3-5.5,8.7-11,13-16.5
			C166,49.2,166.2,48.8,166.6,48.6 M164.8,54.1c-1.3,1.4-2.4,2.9-3.6,4.4c-0.3,0.2-0.3,0.8,0.2,0.8c1.2,0,2.4,0,3.5,0
			c0.3,0,0.5-0.2,0.5-0.5c0-1.4,0-2.9,0-4.3C165.4,54.1,165,53.9,164.8,54.1 M160.6,60.9c-0.4,0.3-0.2,1-0.2,1.5
			c0.1,0.6-0.2,1.4,0.2,1.8c1.6,0,3.2,0.2,4.7-0.1c0.1-1,0.1-1.9,0-2.9c0-0.4-0.5-0.4-0.7-0.4C163.3,60.9,161.9,60.8,160.6,60.9
			 M158.2,62.5c-1.4,1.6-2.7,3.3-4.1,5c-0.4,0.4-0.6,1.3-0.1,1.7c1.3,0.1,2.6,0,3.9,0c0.3,0,0.9,0,0.9-0.4c0-1.9,0-3.8,0-5.7
			C158.9,62.7,158.6,62.3,158.2,62.5 M160.4,67.8c0,0.5-0.2,1.4,0.6,1.3c1.4-0.1,2.9,0.1,4.3-0.1c0.1-1.1,0.1-2.1,0-3.2
			c-1.6,0-3.2-0.1-4.7,0C160.2,66.4,160.5,67.2,160.4,67.8 M154,70.9c-0.3,1-0.1,2.1-0.1,3.2c1.2,0.3,2.5,0,3.7,0.1
			c0.5,0,1.3,0.2,1.2-0.6c-0.1-0.9,0.2-2-0.2-2.8C157.1,70.8,155.5,70.7,154,70.9 M160.5,70.9c-0.2,0.9-0.1,1.9-0.1,2.8
			c0,0.6,0.7,0.4,1.1,0.4c1.3-0.1,2.6,0.2,3.8-0.1c0.1-1.1,0.2-2.2-0.1-3.2C163.7,70.8,162,70.7,160.5,70.9 M154,75.8
			c-0.3,1-0.1,2.1-0.1,3.2c1.2,0.3,2.5,0,3.7,0.1c0.5,0,1.4,0.2,1.2-0.6c-0.1-0.9,0.2-2-0.2-2.8C157.1,75.7,155.5,75.6,154,75.8
			 M160.5,75.8c-0.2,0.9-0.1,1.9-0.1,2.8c0,0.6,0.7,0.4,1.1,0.4c1.3-0.1,2.6,0.2,3.8-0.1c0.1-1,0.1-1.9,0-2.9c0-0.5-0.7-0.3-1-0.4
			C163,75.8,161.7,75.6,160.5,75.8 M154,80.8c-0.3,0.9-0.1,2.1-0.1,3.1c1.1,0.3,2.4,0,3.6,0.1c0.5,0,1.5,0.2,1.4-0.6
			c-0.1-0.9,0.2-2-0.2-2.8C157.1,80.7,155.5,80.6,154,80.8 M160.5,80.8c-0.2,0.9-0.1,1.9-0.1,2.8c0,0.6,0.7,0.4,1.1,0.4
			c1.3-0.1,2.6,0.2,3.8-0.1c0.1-1,0.1-2.1,0-3.1c-0.7-0.3-1.4-0.1-2.1-0.1C162.3,80.7,161.3,80.5,160.5,80.8z"/>
		<path id="XMLID_93_" class="st0" d="M124.9,65.4c0.2-0.2,0.5,0.2,0.6,0.3c2.4,3.1,4.8,6.2,7.2,9.3c0.3,0.3,0,0.7-0.4,0.6
			c-4.9,0-9.7,0-14.6,0c-0.5,0.1-0.6-0.5-0.3-0.7C120,71.8,122.4,68.5,124.9,65.4z"/>
		<path id="XMLID_92_" class="st0" d="M168.7,69.7c-0.1-0.4,0.4-0.4,0.7-0.4c4.8,0,9.6,0,14.3,0c0.4-0.1,0.4,0.4,0.4,0.6
			c0,1,0,1.9-0.1,2.9c-4.7,0-9.4,0-14.1,0c-0.4,0-0.8,0-1.1-0.1C168.7,71.7,168.7,70.7,168.7,69.7z"/>
		<path id="XMLID_86_" class="st0" d="M168.9,74c4.8-0.1,9.6,0,14.4,0c0.3,0,0.8,0,0.8,0.5c0,4.8,0,9.7,0,14.5
			c0.1,0.3-0.1,0.7-0.5,0.6c-4.8,0-9.6,0-14.5,0c-0.4,0.1-0.5-0.3-0.4-0.6c0-4.8,0-9.6,0-14.3C168.7,74.4,168.7,74.1,168.9,74
			 M170.8,75.8c-0.3,0.8-0.1,1.9-0.1,2.8c-0.1,0.6,0.6,0.5,1,0.5c1.3-0.1,2.6,0.1,3.9-0.1c0.3-1,0.1-2.1,0.1-3.1
			c-0.4-0.3-0.9-0.1-1.3-0.2C173.2,75.8,171.9,75.7,170.8,75.8 M177.5,75.8c-0.3,0.2-0.2,0.7-0.2,1c0.1,0.7-0.1,1.5,0.1,2.2
			c1.3,0.2,2.7,0,4.1,0.1c0.3,0,0.9,0.1,0.9-0.4c0-1,0.1-2,0-2.9C180.7,75.7,179.1,75.8,177.5,75.8 M170.8,80.8
			c-0.3,0.9-0.1,2.1-0.1,3.1c1.2,0.3,2.5,0,3.7,0.1c0.5,0,1.5,0.2,1.4-0.6c-0.1-0.9,0.2-2-0.2-2.7C173.9,80.7,172.3,80.6,170.8,80.8
			 M177.5,80.7c-0.3,0.3-0.1,0.9-0.2,1.3c0.1,0.6-0.2,1.4,0.2,2c1.6,0.1,3.2,0.1,4.8,0c0.3-0.9,0.1-1.9,0.1-2.9c0-0.6-0.7-0.4-1-0.4
			C180.1,80.7,178.8,80.6,177.5,80.7z"/>
		<path id="XMLID_85_" class="st0" d="M117.3,77.9c0-0.3-0.1-0.9,0.4-0.8c4.8,0,9.6,0,14.5,0c0.3,0,0.7,0,0.7,0.4
			c0,3.7,0,7.5,0,11.2c0,0.2,0,0.7-0.3,0.7c-1.6,0.1-3.3,0-4.9,0c0-2.5,0.1-5-0.1-7.6c-0.9-0.2-1.8-0.1-2.7-0.1
			c-0.8,0.1-1.6-0.1-2.4,0.1c-0.2,2.5,0,5-0.1,7.5c-1.6,0-3.1,0-4.7,0c-0.3,0-0.5-0.3-0.4-0.6C117.3,85.2,117.3,81.5,117.3,77.9z"/>
	</g>
</g>
</svg>
