<?xml version="1.0" encoding="utf-8"?>
<!-- Generator: Adobe Illustrator 19.0.0, SVG Export Plug-In . SVG Version: 6.00 Build 0)  -->
<svg version="1.1" id="Layer_1" xmlns="http://www.w3.org/2000/svg" xmlns:xlink="http://www.w3.org/1999/xlink" x="0px" y="0px"
	 viewBox="312 247 300 300" style="enable-background:new 312 247 300 300;" xml:space="preserve">
<style type="text/css">
	.st0{fill:#CF8D2A;}
	.st1{fill:#FFFFFF;}
</style>
<rect x="312" y="247" class="st0" width="300" height="300"/>
<path class="st1" d="M361.6,279c1.9-3.5,5.9-5.2,9.7-5.4c4-0.2,8.5,0.1,11.6,2.9c2.9,2.6,3.4,6.7,3.4,10.4
	c-0.1,4.5,0.4,9.2-1.5,13.4c-3.3,6.5-9.6,10.8-13.9,16.6c-1.8,2.5-1.6,5.8-1.5,8.7c5.5,0,10.9,0,16.4,0c0,2.7,0,5.5,0,8.2
	c-8.7,0-17.3,0-26,0c0.4-6.5-1.3-13.5,2-19.4c2.3-4.2,5.8-7.4,9-10.9c2-2.2,4.5-4.3,5.3-7.3c0.7-2.9,0.4-5.9,0.5-8.9
	c0-1.6,0.1-3.5-1.1-4.8c-1.9-1.7-5.6-0.8-6.1,1.9c-0.5,3.1-0.1,6.3-0.2,9.4c-3.1,0-6.1,0-9.2,0C360.1,288.8,359.1,283.5,361.6,279z"
	/>
<path class="st1" d="M422.8,274.2c3.3,0,6.7,0,10,0c0,1.1,0,2.3,0,3.4c-1.9,0-3.9,0-5.8,0c0,2.4,0,4.7,0,7.1c1.4,0,2.8,0,4.1,0
	c0,1.1,0,2.3,0,3.4c-1.4,0-2.8,0-4.1,0c0,2.5,0,5,0,7.5c1.9,0,3.9,0,5.8,0c0,1.1,0,2.3,0,3.4c-3.3,0-6.7,0-10,0
	C422.8,290.8,422.8,282.5,422.8,274.2z"/>
<path class="st1" d="M434.7,276.7c1.6-3.2,6.1-3.5,9-2.1c2.4,1.4,2.3,4.5,2.2,6.9c-1.3,0-2.6,0-3.8,0c0-1.6,0.4-4.4-1.9-4.3
	c-2.3-0.1-2.5,2.9-1.4,4.3c1.8,2.3,4.3,4.1,6.1,6.4c1.7,2.2,1.7,5.3,1,7.9c-1.3,3.7-6.4,4.2-9.4,2.5c-2.8-1.7-2.2-5.4-2.2-8.1
	c1.3,0,2.6,0,3.9,0c0,1.5-0.2,3.1,0.2,4.6c0.7,1.7,3.8,1.2,3.7-0.7c0.8-3.8-3.2-5.8-5.2-8.3C434.1,283.7,433.5,279.8,434.7,276.7z"
	/>
<path class="st1" d="M465.7,274.1c3.4-1.1,7.9,0.7,8.3,4.6c0.4,4.1,0,8.3,0.2,12.4c0,2.2,0,4.6-1.5,6.3c-3,3.4-10,2.4-10.9-2.5
	c-0.6-4.6-0.1-9.3-0.3-14C461.2,278.1,462.6,274.8,465.7,274.1 M466.8,277.6c-1.2,0.5-1.2,1.9-1.2,3c0,4.1,0,8.1,0,12.2
	c0,1,0,2.2,0.9,2.8c1.3,0.9,3.3,0,3.3-1.7c0.2-4.7,0.1-9.4,0-14.1C470.1,278.2,468.3,276.8,466.8,277.6z"/>
<path class="st1" d="M484.6,274.2c1.2,0,2.3,0,3.5,0c0,8.3,0,16.6,0,24.9c-1.2,0-2.4,0-3.7,0c-1.6-5.1-3.1-10.1-4.8-15.2
	c-0.1,5.1,0,10.1,0,15.2c-1.2,0-2.4,0-3.6,0c0-8.3,0-16.6,0-24.9c1.4,0,2.8,0,4.2,0c1.5,4.7,2.9,9.4,4.5,14
	C484.6,283.5,484.5,278.8,484.6,274.2z"/>
<path class="st1" d="M492.3,274.6c2.3-1,5.2-1,7.3,0.4c2,1.6,1.8,4.4,1.8,6.7c-1.3,0-2.5,0-3.8,0c-0.1-1.5,0.4-4.1-1.7-4.3
	c-2.4-0.4-2.9,2.7-1.8,4.2c2.2,3.1,6,5.1,7.3,8.8c0.5,2.8,0.6,6.4-2.1,8.1c-2.4,1.3-5.8,1.3-8-0.4c-2.2-1.9-1.6-5.1-1.7-7.7
	c1.3,0,2.6,0,3.9,0c0,1.5-0.2,3.1,0.2,4.5c0.6,1.7,3.7,1.3,3.7-0.6c0.8-4.8-4.8-6.7-6.8-10.3C489.1,281.1,489.1,276.3,492.3,274.6z"
	/>
<path class="st1" d="M503.4,274.2c1.4,0,2.8,0,4.2,0c0,8.3,0,16.6,0,24.9c-1.4,0-2.8,0-4.2,0C503.4,290.8,503.4,282.5,503.4,274.2z"
	/>
<path class="st1" d="M523.3,274.2c1.4,0,2.8,0,4.2,0c0,7.2,0,14.3,0,21.5c1.7,0,3.3,0,5,0c0,1.1,0,2.3,0,3.4c-3.1,0-6.1,0-9.2,0
	C523.3,290.8,523.3,282.5,523.3,274.2z"/>
<path class="st1" d="M533.9,274.1c3.3,0,6.7,0,10,0c0,1.1,0,2.3,0,3.4c-1.9,0-3.8,0-5.8,0c0,2.4,0,4.7,0,7.1c1.4,0,2.7,0,4.1,0
	c0,1.1,0,2.3,0,3.4c-1.4,0-2.7,0-4.1,0c0,2.5,0,5,0,7.5c1.9,0,3.8,0,5.8,0c0,1.1,0,2.3,0,3.4c-3.3,0-6.7,0-10,0
	C533.9,290.8,533.9,282.5,533.9,274.1z"/>
<path class="st1" d="M337.8,283.7c2.8-3.2,5.4-6.4,8.2-9.5c2.7,0,5.3,0,8,0c0,19.8,0,39.7,0,59.5c-3.3,0-6.7,0-10,0
	c0-15.2,0-30.4,0-45.6c-2.4,2.4-4.8,4.9-7.2,7.4c0-3.3,0-6.6,0-9.9C336.7,284.9,337.4,284.3,337.8,283.7z"/>
<path class="st1" d="M409.2,274.2c3.2,0.2,6.6-0.6,9.6,0.8c3,1.8,2.1,5.9,2.2,8.8c0.1,2-1.4,3.5-3.2,4.2c1.3,3.7,2.6,7.4,3.9,11.2
	c-1.5,0-3,0-4.4,0c-1.3-3.7-2.6-7.5-3.9-11.3c0,3.8,0,7.5,0,11.2c-1.4,0-2.8,0-4.2,0C409.2,290.8,409.2,282.5,409.2,274.2
	 M413.4,277.5c0,2.6,0,5.2,0,7.9c1.1-0.1,3,0.2,3.3-1.3c0.2-1.8,0.2-3.6,0-5.4C416.3,277.3,414.5,277.7,413.4,277.5z"/>
<path class="st1" d="M447.8,274.2c3.1,0.2,6.5-0.5,9.5,0.6c2.5,1.1,2.6,4.2,2.5,6.6c-0.2,2.5,0.5,5.4-1.1,7.6
	c-1.6,1.9-4.4,1.7-6.6,1.7c0,2.8,0,5.6,0,8.4c-1.4,0-2.8,0-4.2,0C447.8,290.8,447.8,282.5,447.8,274.2 M452.1,277.6
	c0,3.3,0,6.6,0,9.9c1.2-0.1,3.2,0.2,3.4-1.4c0.2-2.3,0.1-4.7,0-7C455.3,277.3,453.3,277.7,452.1,277.6z"/>
<path class="st1" d="M509.5,274.2c3.1,0.2,6.5-0.5,9.5,0.7c2.8,1.5,2.2,5.1,2.2,7.7c0.1,1.5-0.8,2.8-2,3.6c1.7,0.7,2.8,2.3,2.7,4.2
	c0,2.8,0.6,6.7-2.4,8.2c-3.1,1.2-6.6,0.4-9.9,0.6C509.5,290.8,509.5,282.5,509.5,274.2 M513.7,277.5c0,2.4,0,4.8,0,7.2
	c1.1-0.1,2.8,0.3,3.2-1.1c0.3-1.7,0.4-3.5-0.1-5.2C516.2,277.4,514.8,277.7,513.7,277.5 M513.7,287.9c0,2.6,0,5.2,0,7.8
	c1.2-0.1,3.1,0.4,3.7-1.1c0.3-1.9,0.3-3.8,0-5.6C516.8,287.5,514.9,288,513.7,287.9z"/>
<path class="st1" d="M412.8,309.2c2.4-0.7,5.4-0.7,7.3,1.2c1.7,2.1,1.2,5,1.3,7.6c-1.3,0-2.6,0-3.8,0c0-1.6,0.2-3.2-0.2-4.7
	c-0.8-1.7-3.9-1-3.8,1c-0.1,4.8-0.1,9.7,0,14.5c-0.2,2.1,3.1,2.9,3.8,1c0.4-1.9,0.1-4,0.2-5.9c1.3,0,2.6,0,3.8,0
	c-0.1,2.8,0.5,5.8-0.9,8.3c-1.6,2.5-5.2,2.6-7.7,1.8c-2.4-0.9-3.5-3.5-3.5-5.9c0-4.3,0-8.6,0-12.9
	C409.2,312.6,410.4,309.9,412.8,309.2z"/>
<path class="st1" d="M427.8,308.9c2.5-0.5,5.6,0.1,7,2.4c1.6,2.8,0.9,6.1,1,9.1c-0.2,3.3,0.4,6.8-0.5,10c-1.7,5.4-11,5-12-0.7
	c-0.6-4.8-0.1-9.6-0.3-14.4C423,312.5,424.7,309.3,427.8,308.9 M428.6,312.4c-1.2,0.4-1.3,1.8-1.3,2.9c0,4.1,0,8.1,0,12.2
	c0,1.1,0,2.5,1.2,3c1.3,0.7,3.1-0.3,3-1.9c0.1-4.7,0.1-9.4,0-14.1C431.7,313,430,311.8,428.6,312.4z"/>
<path class="st1" d="M453.4,309.9c2.2-1.5,5.4-1.5,7.7-0.2c2.3,1.4,2.1,4.5,2.1,6.8c-1.3,0-2.6,0-3.8,0c0-1,0-2-0.1-3
	c-0.3-1.7-3.1-1.8-3.6-0.2c-0.3,1-0.3,2.2,0.3,3.1c2.2,3.1,6,5,7.3,8.8c0.5,2.8,0.6,6.7-2.2,8.3c-2.4,1.2-5.7,1.2-7.9-0.5
	c-2.2-1.9-1.6-5.1-1.6-7.7c1.3,0,2.6,0,3.9,0c0.1,1.6-0.2,3.2,0.3,4.7c0.9,1.5,3.7,1,3.6-0.9c0.7-5.4-6.4-7.1-7.6-11.9
	C451.2,314.7,451.1,311.5,453.4,309.9z"/>
<path class="st1" d="M532.4,308.9c2.3-0.4,5-0.1,6.6,1.7c1.4,1.5,1.6,3.6,1.6,5.6c0,3.6,0,7.3,0,10.9c0,2-0.4,4.2-1.9,5.6
	c-3.2,2.9-9.8,1.8-10.6-3c-0.6-4.8-0.1-9.6-0.2-14.4C527.7,312.5,529.4,309.4,532.4,308.9 M533.6,312.3c-1.2,0.2-1.5,1.6-1.5,2.6
	c0,4.2,0,8.4,0,12.5c0,1.1,0,2.5,1.1,3c1.3,0.7,3.1-0.3,3.1-1.8c0.1-4.7,0.1-9.4,0-14.1C536.5,313.1,535,311.9,533.6,312.3z"/>
<path class="st1" d="M437.6,309c1.4,0,2.8,0,4.1,0c1.5,4.7,3,9.4,4.5,14.1c0-4.7,0-9.4,0-14.1c1.2,0,2.3,0,3.5,0
	c0,8.3,0,16.6,0,24.9c-1.2,0-2.5,0-3.7,0c-1.6-5.1-3.1-10.2-4.8-15.2c-0.1,5.1,0,10.1-0.1,15.2c-1.2,0-2.4,0-3.5,0
	C437.6,325.7,437.6,317.3,437.6,309z"/>
<path class="st1" d="M465.1,309c1.4,0,2.8,0,4.2,0c0.1,6.7-0.1,13.3,0.1,20c0.1,2.2,3.9,2.2,3.9,0c0.2-6.7,0-13.3,0.1-20
	c1.3,0,2.6,0,3.9,0c0,6.3,0,12.6,0,18.9c0,2.2-0.7,4.8-2.9,5.8c-2.2,0.9-4.9,0.8-6.9-0.3c-1.8-1.1-2.4-3.4-2.4-5.4
	C465.1,321.6,465.1,315.3,465.1,309z"/>
<path class="st1" d="M479.1,309c1.6,0,3.3,0,4.9,0c0.9,4.6,1.8,9.3,2.7,13.9c0.8-4.6,1.6-9.3,2.4-13.9c1.8,0,3.5,0,5.3,0
	c0,8.3,0,16.6,0,24.9c-1.3,0-2.6,0-3.8,0c0-5.4,0-10.9,0-16.3c-1,5.4-1.9,10.9-2.9,16.3c-0.7,0-1.3,0-2,0c-1.1-5.3-2-10.7-3.1-16
	c-0.1,5.3,0,10.7,0,16c-1.2,0-2.3,0-3.5,0C479.1,325.6,479.1,317.3,479.1,309z"/>
<path class="st1" d="M496.3,309c3.1,0.2,6.4-0.5,9.4,0.5c2.4,1,2.8,3.9,2.6,6.2c-0.2,2.6,0.5,5.5-0.9,7.8c-1.5,2.2-4.5,1.9-6.8,2
	c0,2.8,0,5.6,0,8.4c-1.4,0-2.8,0-4.2,0C496.3,325.6,496.3,317.3,496.3,309 M500.5,312.4c0,3.3,0,6.6,0,9.9c1.2-0.2,3.1,0.2,3.4-1.3
	c0.2-2.3,0.2-4.7,0-7.1C503.8,312.2,501.8,312.5,500.5,312.4z"/>
<path class="st1" d="M509.3,309c3.7,0,7.4,0,11.1,0c0,1.1,0,2.3,0,3.4c-1.1,0-2.3,0-3.4,0c0,7.2,0,14.3,0,21.5c-1.4,0-2.8,0-4.3,0
	c0-7.2,0-14.3,0-21.5c-1.1,0-2.3,0-3.4,0C509.3,311.3,509.3,310.2,509.3,309z"/>
<path class="st1" d="M521.8,309c1.4,0,2.8,0,4.2,0c0,8.3,0,16.6,0,24.9c-1.4,0-2.8,0-4.2,0C521.8,325.6,521.8,317.3,521.8,309z"/>
<path class="st1" d="M542.4,309c1.4,0,2.8,0,4.2,0c1.5,4.7,2.9,9.4,4.4,14.1c0.1-4.7,0-9.4,0-14.1c1.2,0,2.3,0,3.5,0
	c0,8.3,0,16.6,0,24.9c-1.2,0-2.5,0-3.7,0c-1.6-5.1-3.2-10.3-4.9-15.4c-0.1,5.1,0,10.2,0,15.4c-1.2,0-2.4,0-3.6,0
	C542.4,325.6,542.4,317.3,542.4,309z"/>
<path class="st1" d="M487.9,343.7c2.5-0.4,5.5,0.3,6.7,2.7c1.5,2.8,0.7,6.2,0.9,9.2c-0.2,3.3,0.5,6.8-0.6,10c-1.9,5.2-11,4.6-11.9-1
	c-0.6-4.8-0.1-9.6-0.2-14.5C482.7,347.1,484.7,343.9,487.9,343.7 M488.7,347.2c-1.7,0.3-1.7,2.4-1.6,3.7c0.1,4.4-0.2,8.7,0.2,13.1
	c0.3,2.2,4,2,4-0.2c0.2-4.7,0.1-9.4,0.1-14.1C491.5,348.2,490.3,346.7,488.7,347.2z"/>
<path class="st1" d="M526,348.1c0.7-4.7,7-5.8,10.3-3.2c2.1,2,1.6,5.2,1.6,7.9c-1.3,0-2.6,0-3.8,0c-0.1-1.6,0.3-3.3-0.3-4.9
	c-1-1.5-3.7-0.8-3.7,1.1c-0.1,4.9-0.1,9.8,0,14.8c0,2.1,3.4,2.6,3.9,0.5c0.3-1.9,0.1-3.8,0.1-5.7c1.3,0,2.6,0,3.8,0
	c-0.1,2.8,0.6,6.1-1.1,8.6c-1.8,2.3-5.2,2.4-7.7,1.4c-2.6-1-3.4-4.1-3.3-6.7C525.9,357.3,525.5,352.7,526,348.1z"/>
<path class="st1" d="M562.5,343.7c2.5-0.4,5.5,0.3,6.8,2.7c1.5,2.8,0.7,6.2,0.9,9.2c-0.2,3.3,0.5,6.8-0.6,10c-1.9,5.2-11,4.6-11.9-1
	c-0.5-4.8-0.1-9.6-0.2-14.4C557.3,347.1,559.3,343.9,562.5,343.7 M563.3,347.2c-1.7,0.3-1.6,2.4-1.6,3.7c0.1,4.4-0.2,8.8,0.2,13.1
	c0.3,2.2,4,2,4-0.2c0.2-4.8,0.1-9.7,0.1-14.5C566,347.9,564.7,346.8,563.3,347.2z"/>
<path class="st1" d="M413.2,343.9c1.6,0,3.2,0,4.8,0c1.6,8.3,3.2,16.6,4.7,24.9c-1.4,0-2.9,0-4.3,0c-0.3-1.5-0.5-3.1-0.8-4.6
	c-1.5,0-2.9,0-4.4,0c-0.2,1.5-0.5,3.1-0.7,4.6c-1.3,0-2.7,0-4,0C410.1,360.5,411.7,352.2,413.2,343.9 M415.5,351.1
	c-0.6,3.2-1.1,6.5-1.6,9.7c1.1,0,2.2,0,3.3,0C416.6,357.6,416.1,354.4,415.5,351.1z"/>
<path class="st1" d="M424,343.9c1.4,0,2.8,0,4.1,0c1.5,4.7,2.9,9.4,4.4,14c0-4.7,0-9.3,0-14c1.2,0,2.4,0,3.5,0c0,8.3,0,16.6,0,24.9
	c-1.2,0-2.5,0-3.7,0c-1.6-5.1-3.1-10.2-4.8-15.2c-0.1,5.1,0,10.1,0,15.2c-1.2,0-2.4,0-3.5,0C424,360.5,424,352.2,424,343.9z"/>
<path class="st1" d="M437.9,343.9c3,0.1,6-0.3,8.9,0.3c2.5,0.7,3.7,3.5,3.6,5.9c0,4.3,0.1,8.6,0,12.9c0,2.4-1.5,5-4,5.5
	c-2.8,0.5-5.7,0.2-8.5,0.2C437.9,360.5,437.9,352.2,437.9,343.9 M442.2,347.3c0,6,0,12.1,0,18.1c1.5,0,4,0.1,4-2.1
	c0.1-4.7,0.2-9.5,0-14.3C446,347.1,443.6,347.3,442.2,347.3z"/>
<path class="st1" d="M455.7,343.9c3.1,0.2,6.3-0.5,9.3,0.5c2.4,0.9,2.8,3.8,2.7,6.1c-0.2,2.6,0.5,5.5-0.9,7.9c-1.5,2.2-4.5,2-6.8,2
	c0,2.8,0,5.6,0,8.4c-1.4,0-2.8,0-4.2,0C455.7,360.5,455.7,352.2,455.7,343.9 M459.9,347.3c0,3.3,0,6.6,0,9.9
	c1.2-0.2,3.2,0.2,3.4-1.4c0.2-2.4,0.2-4.7,0-7.1C463.1,347,461.1,347.4,459.9,347.3z"/>
<path class="st1" d="M469.3,343.9c3.2,0.2,6.8-0.7,9.8,0.9c2.8,1.9,2,5.7,2,8.5c0.1,2.1-1.4,3.7-3.2,4.4c1.3,3.7,2.6,7.4,3.9,11.2
	c-1.5,0-3,0-4.5,0c-1.3-3.8-2.6-7.5-3.9-11.3c0,3.8,0,7.5,0,11.3c-1.4,0-2.8,0-4.2,0C469.3,360.5,469.3,352.2,469.3,343.9
	 M473.5,347.3c0,2.6,0,5.2,0,7.8c1.1-0.1,2.8,0.2,3.3-1.1c0.3-1.9,0.3-3.8,0-5.6C476.2,347.1,474.6,347.4,473.5,347.3z"/>
<path class="st1" d="M497.4,343.9c3,0.2,6.1-0.4,9.1,0.4c2.4,0.8,3.5,3.5,3.4,5.8c0,4.3,0,8.6,0,12.9c0,2.5-1.5,5.1-4.1,5.6
	c-2.8,0.5-5.6,0.1-8.4,0.2C497.4,360.5,497.4,352.2,497.4,343.9 M501.7,347.3c0,6,0,12.1,0,18.1c1.5,0,4,0.1,4-2
	c0.1-4.7,0.1-9.4,0-14.1C505.7,347.2,503.2,347.2,501.7,347.3z"/>
<path class="st1" d="M511.8,343.9c1.4,0,2.8,0,4.2,0c0.1,6.6-0.1,13.2,0.1,19.9c-0.1,2.4,4,2.4,3.9,0c0.1-6.6,0-13.2,0.1-19.9
	c1.3,0,2.6,0,3.9,0c0,6.4,0,12.8,0,19.2c0,2.1-0.8,4.6-2.9,5.5c-2.2,0.8-4.8,0.8-6.8-0.4c-1.9-1.1-2.5-3.5-2.5-5.5
	C511.7,356.4,511.8,350.1,511.8,343.9z"/>
<path class="st1" d="M538.9,343.9c3.7,0,7.4,0,11.2,0c0,1.1,0,2.3,0,3.4c-1.2,0-2.3,0-3.4,0c0,7.2,0,14.3,0,21.5c-1.4,0-2.8,0-4.2,0
	c0-7.2,0-14.3,0-21.5c-1.2,0-2.3,0-3.5,0C538.9,346.2,538.9,345,538.9,343.9z"/>
<path class="st1" d="M551.4,343.9c1.4,0,2.8,0,4.2,0c0,8.3,0,16.6,0,24.9c-1.4,0-2.8,0-4.2,0C551.4,360.5,551.4,352.2,551.4,343.9z"
	/>
<path class="st1" d="M572,343.9c1.4,0,2.8,0,4.2,0c1.5,4.7,2.9,9.4,4.5,14.1c0-4.7,0-9.4,0-14.1c1.2,0,2.3,0,3.5,0
	c0,8.3,0,16.6,0,24.9c-1.2,0-2.5,0-3.7,0c-1.6-5.1-3.2-10.2-4.9-15.3c-0.1,5.1,0,10.2,0,15.3c-1.2,0-2.4,0-3.5,0
	C572,360.5,572,352.2,572,343.9z"/>
<path class="st1" d="M378.5,406.5c9.6-10.9,24.9-15.6,39.1-14.3c8.2,1.2,16.4,3.9,23.1,9c9.7,7.2,16.7,17.3,22.8,27.6
	c4.2,7,7.2,14.6,11.9,21.3c5,7.4,11.6,14,19.9,17.7c7.5,3.8,16.5,5.3,24.6,2.6c5.7-1.8,10.8-5.6,13.8-10.8c3.9-6.6,4.9-14.5,4.7-22
	c-0.3-7.3-2.1-14.9-7-20.5c-5.2-6-13.1-9-20.8-9.7c-5.2-0.7-10.4,0.8-15.2,2.8c-8.3,3.7-14.5,10.6-19.8,17.8c-0.8,1.4-3,1.3-3.6-0.2
	c-1.8-3.2-3.6-6.5-5.6-9.7c-0.6-0.9-1.1-2.2-0.3-3.2c6.8-8.7,15.4-16.4,26-20.1c5.1-1.7,10.4-3.1,15.8-3
	c13.2,0.1,26.8,5.1,35.5,15.3c7.6,8.9,10.7,20.8,10.6,32.3c0,9.5-1.8,19.3-6.7,27.6c-5.7,9.7-15.6,16.8-26.7,19.1
	c-11.1,2.4-22.9,0.2-32.9-5c-14.7-7.1-25.2-20.6-32.2-34.9c-5.7-11.2-12-22.5-21.5-30.9c-5.4-4.7-12.4-7.4-19.5-8.1
	c-8.2-0.2-16.7,2.2-22.8,7.9c-5.8,5.4-8.1,13.5-8.5,21.2c-0.4,7.3,0.1,15.2,4.4,21.4c8.1,13.2,27.3,16.8,40.3,9
	c-1.8-1.7-3.7-3.2-5.4-4.9c-1.1-1-0.6-3,0.9-3.2c9.1-2.5,18.1-5.1,27.2-7.6c1.5-0.5,3,1,2.5,2.5c-1.4,9.2-3,18.5-4.5,27.7
	c0,1.5-2,2.5-3.1,1.4c-2-1.6-3.8-3.5-5.8-5.2c-11.2,8.5-26.2,10.8-39.7,7.2c-10.9-2.9-20.8-10.1-26.4-20c-4.5-7.3-6.1-16-6.1-24.4
	C367.3,428.3,370.4,415.7,378.5,406.5z"/>
</svg>
