<?xml version="1.0" encoding="utf-8"?>
<!-- Generator: Adobe Illustrator 19.0.0, SVG Export Plug-In . SVG Version: 6.00 Build 0)  -->
<svg version="1.1" id="Layer_1" xmlns="http://www.w3.org/2000/svg" xmlns:xlink="http://www.w3.org/1999/xlink" x="0px" y="0px"
	 viewBox="0 0 200 100" style="enable-background:new 0 0 200 100;" xml:space="preserve">
<style type="text/css">
	.st0{fill:#FFFFFF;}
	.st1{fill:#CF8D2A;}
</style>
<g id="XMLID_1_">
	<g id="XMLID_2_">
		<rect id="XMLID_70_" class="st0" width="100" height="100"/>
		<path id="XMLID_69_" class="st1" d="M19.8,8.9c1.3-0.1,2.8,0,3.8,0.9c1,0.8,1.2,2.2,1.2,3.4c0,1.5,0.2,3.1-0.5,4.5
			c-0.8,1.7-2.2,2.8-3.4,4.1c-0.6,0.6-1.3,1.2-1.6,2c-0.3,0.7-0.2,1.6-0.2,2.3c1.8,0,3.6,0,5.5,0c0,0.9,0,1.8,0,2.7
			c-2.9,0-5.8,0-8.7,0c0-1.5-0.1-3,0-4.5c0.2-2.2,1.9-3.7,3.3-5.2c0.7-0.8,1.5-1.5,2-2.4c0.4-1,0.2-2.2,0.3-3.3
			c0-0.6,0.1-1.3-0.4-1.7c-0.7-0.5-1.9-0.1-2,0.9c-0.1,1,0,2,0,3c-1,0-2,0-3,0c0.1-1.6-0.3-3.3,0.5-4.8C17.1,9.5,18.5,8.9,19.8,8.9z
			"/>
		<path id="XMLID_68_" class="st1" d="M41.5,9.3c0.8-0.4,1.8-0.4,2.5,0c0.7,0.5,0.6,1.5,0.6,2.2c-0.4,0-0.8,0-1.3,0c0-0.3,0-0.7,0-1
			c-0.1-0.6-1.1-0.5-1.2,0c-0.1,0.3,0,0.7,0.2,1c0.7,0.9,1.8,1.5,2.3,2.6c0.3,0.7,0.3,1.5,0,2.3c-0.5,1.2-2.1,1.3-3.1,0.7
			c-0.9-0.6-0.7-1.8-0.7-2.7c0.4,0,0.9,0,1.3,0c0,0.5,0,0.9,0,1.4c0.1,0.6,1.1,0.6,1.2,0.1c0.1-0.5,0.1-1.1-0.2-1.5
			c-0.7-0.9-1.8-1.5-2.2-2.6C40.6,11,40.6,9.8,41.5,9.3z"/>
		<path id="XMLID_65_" class="st1" d="M51.3,9C52,8.9,52.9,9,53.4,9.5c0.5,0.4,0.6,1.1,0.6,1.8c0,1.4,0,2.7,0,4.1
			c0,0.8-0.4,1.6-1.1,1.9c-0.7,0.3-1.7,0.3-2.3-0.2c-0.6-0.4-0.8-1.2-0.8-1.9c0-1.4,0-2.8,0-4.2C49.8,10.1,50.4,9.2,51.3,9
			 M51.6,10.2c-0.3,0.1-0.4,0.5-0.4,0.8c0,1.5,0,3.1,0,4.6c0,0.5,0.5,0.8,0.9,0.7c0.4-0.1,0.5-0.6,0.5-0.9c0-1.5,0-3,0-4.5
			C52.6,10.3,52.1,10,51.6,10.2z"/>
		<path id="XMLID_64_" class="st1" d="M60,9.3c0.8-0.4,1.8-0.4,2.5,0c0.7,0.5,0.7,1.5,0.7,2.2c-0.4,0-0.8,0-1.3,0
			c0-0.4,0-0.7-0.1-1.1c-0.2-0.6-1.2-0.4-1.3,0.2c-0.1,0.6,0.3,1.1,0.7,1.5c0.7,0.8,1.7,1.4,1.9,2.5c0.1,0.9,0.1,2-0.7,2.5
			c-0.8,0.4-2,0.4-2.7-0.2c-0.7-0.7-0.5-1.7-0.5-2.5c0.4,0,0.9,0,1.3,0c0,0.5,0,1,0,1.4c0.1,0.6,1.1,0.6,1.2,0
			c0.1-0.4,0.1-0.9-0.1-1.3c-0.7-1-1.9-1.6-2.3-2.8C59.2,11,59.1,9.8,60,9.3z"/>
		<path id="XMLID_63_" class="st1" d="M8.5,12.4c1-1.1,1.9-2.2,2.8-3.3c0.9,0,1.8,0,2.7,0c0,6.6,0,13.2,0,19.8c-1.1,0-2.2,0-3.3,0
			c0-5.1,0-10.1,0-15.2c-0.8,0.8-1.6,1.7-2.4,2.5c0-1.1,0-2.2,0-3.3C8.2,12.7,8.4,12.5,8.5,12.4z"/>
		<path id="XMLID_60_" class="st1" d="M32.4,9.1c0.9,0,1.7,0,2.6,0c0.6,0.1,1.2,0.5,1.3,1.2c0.1,0.7,0.1,1.4,0,2.1
			c0,0.6-0.5,1.1-1.1,1.2c0.4,1.2,0.9,2.5,1.3,3.7c-0.5,0-1,0-1.5,0c-0.4-1.2-0.8-2.5-1.3-3.7c0,1.2,0,2.5,0,3.7c-0.5,0-0.9,0-1.4,0
			C32.4,14.6,32.4,11.8,32.4,9.1 M33.8,10.2c0,0.9,0,1.7,0,2.6c0.4,0,1,0.1,1.1-0.4c0.1-0.6,0.1-1.2,0-1.8
			C34.8,10.1,34.2,10.2,33.8,10.2z"/>
		<path id="XMLID_59_" class="st1" d="M36.9,9.1c1.1,0,2.2,0,3.3,0c0,0.4,0,0.8,0,1.1c-0.6,0-1.3,0-1.9,0c0,0.8,0,1.6,0,2.3
			c0.5,0,0.9,0,1.4,0c0,0.4,0,0.7,0,1.1c-0.5,0-0.9,0-1.4,0c0,0.8,0,1.7,0,2.5c0.6,0,1.3,0,1.9,0c0,0.4,0,0.8,0,1.1
			c-1.1,0-2.2,0-3.3,0C36.9,14.6,36.9,11.8,36.9,9.1z"/>
		<path id="XMLID_56_" class="st1" d="M45.3,9.1c0.8,0,1.5,0,2.3,0c0.5,0,1.2,0.2,1.4,0.7c0.4,0.6,0.2,1.4,0.3,2.1
			c0,0.7,0.1,1.6-0.4,2.1c-0.6,0.6-1.4,0.5-2.1,0.5c0,0.9,0,1.9,0,2.8c-0.5,0-0.9,0-1.4,0C45.3,14.6,45.3,11.8,45.3,9.1 M46.7,10.2
			c0,1.1,0,2.2,0,3.3c0.4,0,1,0.1,1.2-0.4c0.1-0.8,0-1.6,0-2.4C47.7,10.1,47.1,10.2,46.7,10.2z"/>
		<path id="XMLID_55_" class="st1" d="M54.7,9.1c0.5,0,0.9,0,1.4,0c0.5,1.5,1,3.1,1.5,4.6c0-1.5,0-3.1,0-4.6c0.4,0,0.8,0,1.2,0
			c0,2.8,0,5.5,0,8.3c-0.4,0-0.8,0-1.2,0c-0.5-1.7-1-3.4-1.6-5c0,1.7,0,3.3,0,5c-0.4,0-0.8,0-1.2,0C54.6,14.6,54.6,11.8,54.7,9.1z"
			/>
		<path id="XMLID_54_" class="st1" d="M63.8,9.1c0.5,0,0.9,0,1.4,0c0,2.8,0,5.5,0,8.3c-0.5,0-0.9,0-1.4,0
			C63.8,14.6,63.8,11.8,63.8,9.1z"/>
		<path id="XMLID_50_" class="st1" d="M65.8,9.1c0.7,0,1.5,0,2.2,0c0.5,0,1.2,0.2,1.4,0.7c0.3,0.7,0.2,1.4,0.2,2.1
			c0,0.5-0.3,1-0.8,1.1c0.6,0.1,1,0.7,1,1.3c0,0.7,0.1,1.5-0.2,2.2c-0.2,0.6-0.9,0.8-1.5,0.8c-0.8,0-1.6,0-2.4,0
			C65.8,14.6,65.8,11.8,65.8,9.1 M67.2,10.2c0,0.8,0,1.6,0,2.4c0.4,0,1,0.1,1.1-0.4c0.1-0.5,0.1-1.1,0-1.6
			C68.2,10.1,67.6,10.2,67.2,10.2 M67.2,16.2c0.4,0,1.1,0.1,1.3-0.5c0-0.6,0.1-1.1,0-1.7c-0.1-0.5-0.8-0.4-1.2-0.4
			C67.2,14.5,67.2,15.4,67.2,16.2z"/>
		<path id="XMLID_49_" class="st1" d="M70.4,9.1c0.5,0,0.9,0,1.4,0c0,2.4,0,4.8,0,7.2c0.6,0,1.1,0,1.7,0c0,0.4,0,0.8,0,1.1
			c-1,0-2,0-3.1,0C70.4,14.6,70.4,11.8,70.4,9.1z"/>
		<path id="XMLID_48_" class="st1" d="M74,9.1c1.1,0,2.2,0,3.3,0c0,0.4,0,0.8,0,1.1c-0.6,0-1.3,0-1.9,0c0,0.8,0,1.6,0,2.4
			c0.5,0,0.9,0,1.4,0c0,0.4,0,0.7,0,1.1c-0.5,0-0.9,0-1.4,0c0,0.8,0,1.7,0,2.5c0.6,0,1.3,0,1.9,0c0,0.4,0,0.8,0,1.1
			c-1.1,0-2.2,0-3.3,0C74,14.6,74,11.8,74,9.1z"/>
		<path id="XMLID_47_" class="st1" d="M33.6,20.7c0.8-0.2,1.8-0.2,2.4,0.4c0.6,0.7,0.4,1.7,0.4,2.5c-0.4,0-0.8,0-1.3,0
			c0-0.5,0-1,0-1.5c-0.1-0.6-1-0.6-1.2-0.1c-0.1,0.3-0.1,0.7-0.1,1c0,1.4,0,2.8,0,4.2c0,0.7,1.1,0.8,1.3,0.2c0.1-0.6,0-1.3,0.1-1.9
			c0.4,0,0.8,0,1.3,0c0,0.9,0.2,1.9-0.3,2.8c-0.5,0.8-1.7,0.9-2.5,0.6c-0.8-0.2-1.2-1.1-1.2-1.9c0-1.5,0-2.9,0-4.4
			C32.4,21.9,32.8,21,33.6,20.7z"/>
		<path id="XMLID_44_" class="st1" d="M38.5,20.6c0.7-0.1,1.6-0.1,2.1,0.4c0.5,0.4,0.6,1.1,0.6,1.8c0,1.4,0,2.7,0,4.1
			c0,0.7-0.3,1.5-1,1.9c-0.7,0.3-1.6,0.3-2.3,0c-0.7-0.4-1-1.2-1-1.9c0-1.4,0-2.9,0-4.3C37.1,21.7,37.6,20.8,38.5,20.6 M38.8,21.8
			c-0.3,0.2-0.4,0.5-0.4,0.8c0,1.5,0,3,0,4.5c0,0.4,0.3,0.8,0.8,0.8c0.4,0,0.6-0.5,0.6-0.9c0-1.5,0-3.1,0-4.6
			C39.9,21.9,39.3,21.6,38.8,21.8z"/>
		<path id="XMLID_43_" class="st1" d="M47.3,20.8c0.8-0.4,1.7-0.4,2.5,0.1c0.7,0.5,0.6,1.5,0.6,2.2c-0.4,0-0.8,0-1.3,0
			c0-0.3,0-0.7,0-1c-0.1-0.6-1.1-0.5-1.2,0c-0.1,0.3,0,0.7,0.2,1c0.7,0.9,1.8,1.6,2.3,2.7c0.2,0.7,0.2,1.5,0,2.2
			c-0.5,1.2-2.1,1.3-3.1,0.7c-0.9-0.6-0.7-1.8-0.7-2.7c0.4,0,0.9,0,1.3,0c0,0.5,0,0.9,0,1.4c0.1,0.6,1.1,0.6,1.2,0
			c0.1-0.4,0.1-0.9-0.2-1.3c-0.7-0.9-1.8-1.6-2.3-2.7C46.4,22.6,46.4,21.4,47.3,20.8z"/>
		<path id="XMLID_40_" class="st1" d="M73.5,20.6c0.7-0.1,1.6-0.1,2.1,0.5c0.5,0.4,0.6,1.1,0.6,1.8c0,1.4,0,2.7,0,4.1
			c0,0.7-0.3,1.6-1,1.9c-0.7,0.3-1.6,0.3-2.3-0.1c-0.7-0.4-0.9-1.2-0.9-1.9c0-1.4,0-2.9,0-4.3C72,21.7,72.6,20.8,73.5,20.6
			 M73.8,21.8c-0.4,0.2-0.4,0.6-0.4,0.9c0,1.5,0,3,0,4.6c0,0.8,1.3,0.8,1.4,0c0-1.6,0-3.2,0-4.9C74.8,21.9,74.2,21.6,73.8,21.8z"/>
		<path id="XMLID_39_" class="st1" d="M41.9,20.7c0.5,0,0.9,0,1.4,0c0.5,1.6,1,3.1,1.5,4.7c0-1.6,0-3.1,0-4.7c0.4,0,0.8,0,1.2,0
			c0,2.8,0,5.5,0,8.3c-0.4,0-0.8,0-1.2,0c-0.5-1.7-1.1-3.4-1.6-5.1c0,1.7,0,3.4,0,5.1c-0.4,0-0.8,0-1.2,0
			C41.9,26.2,41.9,23.4,41.9,20.7z"/>
		<path id="XMLID_38_" class="st1" d="M51,20.7c0.5,0,0.9,0,1.4,0c0,2.2,0,4.4,0,6.7c0,0.8,1.3,0.8,1.3,0c0-2.2,0-4.4,0-6.6
			c0.4,0,0.9,0,1.3,0c0,2.1,0,4.2,0,6.4c0,0.7-0.2,1.5-0.9,1.8c-0.7,0.3-1.5,0.3-2.2,0c-0.6-0.3-0.9-1.1-0.9-1.8
			C51,24.9,51,22.8,51,20.7z"/>
		<path id="XMLID_37_" class="st1" d="M55.7,20.7c0.5,0,1.1,0,1.6,0c0.3,1.5,0.6,3.1,0.9,4.6c0.3-1.5,0.5-3.1,0.8-4.6
			c0.6,0,1.2,0,1.8,0c0,2.8,0,5.5,0,8.3c-0.4,0-0.9,0-1.3,0c0-1.8,0-3.6,0-5.4c-0.4,1.8-0.6,3.6-1,5.4c-0.2,0-0.4,0-0.6,0
			c-0.4-1.8-0.7-3.6-1.1-5.3c0,1.8,0,3.5,0,5.3c-0.4,0-0.8,0-1.2,0C55.7,26.2,55.7,23.5,55.7,20.7z"/>
		<path id="XMLID_34_" class="st1" d="M61.4,20.7c0.7,0,1.5,0,2.2,0c0.6,0,1.2,0.2,1.5,0.7c0.4,0.6,0.2,1.4,0.2,2.1
			c0,0.7,0.1,1.6-0.5,2.2c-0.6,0.5-1.4,0.4-2.1,0.5c0,0.9,0,1.9,0,2.8c-0.5,0-0.9,0-1.4,0C61.4,26.2,61.4,23.4,61.4,20.7 M62.8,21.8
			c0,1.1,0,2.2,0,3.3c0.3,0,0.7,0.1,1-0.1c0.3-0.2,0.2-0.6,0.2-0.9c0-0.6,0-1.2,0-1.8C63.9,21.7,63.2,21.8,62.8,21.8z"/>
		<path id="XMLID_33_" class="st1" d="M65.8,20.7c1.2,0,2.5,0,3.7,0c0,0.4,0,0.8,0,1.1c-0.4,0-0.8,0-1.1,0c0,2.4,0,4.8,0,7.1
			c-0.5,0-0.9,0-1.4,0c0-2.4,0-4.8,0-7.1c-0.4,0-0.8,0-1.1,0C65.8,21.4,65.8,21.1,65.8,20.7z"/>
		<path id="XMLID_32_" class="st1" d="M69.9,20.7c0.5,0,0.9,0,1.4,0c0,2.8,0,5.5,0,8.3c-0.5,0-0.9,0-1.4,0
			C69.9,26.2,69.9,23.4,69.9,20.7z"/>
		<path id="XMLID_31_" class="st1" d="M76.8,20.7c0.5,0,0.9,0,1.4,0c0.5,1.6,1,3.1,1.5,4.7c0-1.6,0-3.1,0-4.7c0.4,0,0.8,0,1.2,0
			c0,2.8,0,5.5,0,8.3c-0.4,0-0.8,0-1.2,0c-0.5-1.7-1-3.4-1.6-5c0,1.7,0,3.3,0,5c-0.4,0-0.8,0-1.2,0C76.8,26.2,76.8,23.5,76.8,20.7z"
			/>
		<path id="XMLID_28_" class="st1" d="M58.4,32.3c0.7-0.1,1.6-0.1,2.1,0.4c0.5,0.4,0.6,1.1,0.6,1.8c0,1.4,0,2.7,0,4.1
			c0,0.7-0.3,1.5-1,1.9s-1.6,0.3-2.3,0s-1-1.2-1-1.9c0-1.4,0-2.9,0-4.3C57,33.3,57.5,32.4,58.4,32.3 M58.7,33.4
			c-0.4,0.2-0.4,0.7-0.4,1c0,1.5,0,3,0,4.5c0.1,0.7,1.3,0.7,1.4,0c0.1-1.6,0-3.3,0-4.9C59.8,33.5,59.2,33.2,58.7,33.4z"/>
		<path id="XMLID_27_" class="st1" d="M72.4,32.4c0.8-0.3,1.9-0.3,2.5,0.4c0.6,0.7,0.4,1.7,0.4,2.5c-0.4,0-0.8,0-1.3,0
			c0-0.5,0-1,0-1.5c-0.1-0.5-0.9-0.6-1.2-0.2c-0.2,0.3-0.1,0.6-0.1,0.9c0,1.5,0,2.9,0,4.4c0,0.7,1.1,0.8,1.3,0.2
			c0.1-0.6,0-1.3,0.1-1.9c0.4,0,0.8,0,1.3,0c0,0.9,0.2,1.9-0.3,2.8c-0.5,0.8-1.7,0.9-2.5,0.6c-0.8-0.2-1.2-1.1-1.2-1.9
			c0-1.4,0-2.9,0-4.3C71.3,33.6,71.6,32.7,72.4,32.4z"/>
		<path id="XMLID_24_" class="st1" d="M83.3,32.3c0.7-0.1,1.5-0.1,2,0.4c0.5,0.4,0.7,1.1,0.7,1.8c0,1.4,0,2.8,0,4.2
			c0,0.8-0.3,1.6-1,1.9c-0.7,0.3-1.6,0.3-2.3-0.1c-0.7-0.4-0.9-1.2-0.9-1.9c0-1.4,0-2.9,0-4.3C81.9,33.3,82.4,32.4,83.3,32.3
			 M83.6,33.4c-0.3,0.1-0.4,0.5-0.4,0.8c0,1.5,0,3,0,4.5c0,0.4,0.3,0.8,0.7,0.8c0.4,0.1,0.8-0.3,0.7-0.8c0-1.6,0-3.1,0-4.7
			C84.7,33.6,84.1,33.2,83.6,33.4z"/>
		<path id="XMLID_21_" class="st1" d="M33.7,32.3c0.5-0.1,1.1,0,1.6,0c0.5,2.8,1.1,5.5,1.6,8.3c-0.5,0-1,0-1.4,0
			c-0.1-0.5-0.2-1-0.3-1.5c-0.5,0-1,0-1.5,0c-0.1,0.5-0.2,1-0.3,1.5c-0.4,0-0.9,0-1.3,0C32.7,37.8,33.2,35.1,33.7,32.3 M34,38
			c0.4,0,0.7,0,1.1,0c-0.2-1.1-0.4-2.2-0.5-3.3C34.3,35.8,34.1,36.9,34,38z"/>
		<path id="XMLID_20_" class="st1" d="M37.3,32.3c0.5,0,0.9,0,1.4,0c0.5,1.5,1,3.1,1.5,4.7c0-1.6,0-3.1,0-4.7c0.4,0,0.8,0,1.2,0
			c0,2.8,0,5.5,0,8.3c-0.4,0-0.8,0-1.2,0c-0.6-1.7-1.1-3.4-1.6-5.1c0,1.7,0,3.4,0,5.1c-0.4,0-0.8,0-1.2,0
			C37.3,37.8,37.3,35.1,37.3,32.3z"/>
		<path id="XMLID_17_" class="st1" d="M42,32.3c1.1,0.1,2.2-0.2,3.2,0.2c0.7,0.3,0.9,1.1,0.9,1.8c0,1.4,0,2.7,0,4.1
			c0,0.7-0.2,1.5-0.9,1.9c-1,0.5-2.2,0.2-3.3,0.2C42,37.8,42,35.1,42,32.3 M43.4,33.4c0,2,0,4,0,6c0.5,0,1.3,0.1,1.3-0.6
			c0.1-1.4,0-2.8,0-4.2c0-0.4,0.1-0.8-0.2-1.1C44.2,33.4,43.8,33.5,43.4,33.4z"/>
		<path id="XMLID_14_" class="st1" d="M47.9,32.3c0.7,0,1.5,0,2.2,0c0.6,0,1.2,0.2,1.5,0.7c0.4,0.6,0.3,1.4,0.3,2.1
			c0,0.7,0.1,1.6-0.4,2.2c-0.6,0.6-1.4,0.5-2.2,0.5c0,0.9,0,1.9,0,2.8c-0.5,0-0.9,0-1.4,0C47.9,37.8,47.9,35.1,47.9,32.3 M49.3,33.4
			c0,1.1,0,2.2,0,3.3c0.3,0,0.7,0.1,1-0.1c0.3-0.2,0.2-0.6,0.2-0.9c0-0.6,0-1.2,0-1.8C50.3,33.3,49.7,33.5,49.3,33.4z"/>
		<path id="XMLID_11_" class="st1" d="M52.4,32.3c0.8,0,1.6,0,2.4,0c0.6,0,1.3,0.4,1.5,1.1c0.2,0.7,0.1,1.5,0.1,2.2
			c0,0.6-0.5,1.2-1.1,1.3c0.4,1.2,0.9,2.5,1.3,3.7c-0.5,0-1,0-1.5,0c-0.4-1.2-0.8-2.5-1.3-3.7c0,1.2,0,2.5,0,3.7c-0.5,0-0.9,0-1.4,0
			C52.4,37.8,52.4,35.1,52.4,32.3 M53.8,33.4c0,0.9,0,1.7,0,2.6c0.4,0,1,0.1,1.1-0.4c0.1-0.6,0.1-1.2,0-1.8
			C54.8,33.4,54.2,33.4,53.8,33.4z"/>
		<path id="XMLID_8_" class="st1" d="M61.8,32.3c1.1,0.1,2.2-0.2,3.2,0.2c0.7,0.3,0.9,1.1,0.9,1.8c0,1.4,0,2.7,0,4.1
			c0,0.7-0.2,1.5-0.9,1.9c-1,0.5-2.2,0.2-3.3,0.2C61.8,37.8,61.8,35.1,61.8,32.3 M63.2,33.4c0,2,0,4,0,6c0.5,0,1.3,0.1,1.3-0.6
			c0.1-1.4,0-2.8,0-4.2c0-0.4,0-0.8-0.2-1.1C64,33.4,63.6,33.5,63.2,33.4z"/>
		<path id="XMLID_7_" class="st1" d="M66.6,32.3c0.5,0,0.9,0,1.4,0c0,2.2,0,4.4,0,6.6c0,0.8,1.4,0.7,1.3-0.1c0-2.2,0-4.4,0-6.6
			c0.4,0,0.9,0,1.3,0c0,2.1,0,4.2,0,6.4c0,0.7-0.2,1.5-0.9,1.8c-0.7,0.3-1.5,0.3-2.2,0c-0.7-0.3-0.9-1.1-0.9-1.8
			C66.6,36.6,66.6,34.4,66.6,32.3z"/>
		<path id="XMLID_6_" class="st1" d="M75.6,32.3c1.2,0,2.5,0,3.7,0c0,0.4,0,0.8,0,1.1c-0.4,0-0.8,0-1.1,0c0,2.4,0,4.8,0,7.2
			c-0.5,0-0.9,0-1.4,0c0-2.4,0-4.8,0-7.2c-0.4,0-0.8,0-1.1,0C75.6,33.1,75.6,32.7,75.6,32.3z"/>
		<path id="XMLID_5_" class="st1" d="M79.8,32.3c0.5,0,0.9,0,1.4,0c0,2.8,0,5.5,0,8.3c-0.5,0-0.9,0-1.4,0
			C79.8,37.8,79.8,35.1,79.8,32.3z"/>
		<path id="XMLID_4_" class="st1" d="M86.7,32.3c0.5,0,0.9,0,1.4,0c0.5,1.6,1,3.1,1.5,4.7c0-1.6,0-3.1,0-4.7c0.4,0,0.8,0,1.2,0
			c0,2.8,0,5.5,0,8.3c-0.4,0-0.8,0-1.2,0c-0.5-1.7-1.1-3.4-1.6-5.2c0,1.7,0,3.4,0,5.2c-0.4,0-0.8,0-1.2,0
			C86.7,37.8,86.7,35.1,86.7,32.3z"/>
		<path id="XMLID_3_" class="st1" d="M24.6,51.4c3.1-2.2,7.1-3.1,10.9-2.7c2,0.3,4,0.9,5.7,1.9c2.2,1.2,4,3,5.6,5
			c2.3,2.9,4.1,6.1,5.7,9.3c1.9,3.7,4.7,7.3,8.7,9c3.2,1.6,7.4,1.8,10.5-0.2c2.6-1.6,3.8-4.7,4.1-7.6c0.3-3.2-0.1-6.8-2.1-9.4
			c-2.1-2.7-5.8-3.7-9.1-3.6c-1.9,0.3-3.7,0.9-5.3,2c-2,1.3-3.5,3.1-4.9,5c-0.1,0.3-0.6,0.2-0.7,0c-0.6-1.2-1.3-2.3-2-3.5
			c-0.1-0.2-0.1-0.4,0.1-0.6c2-2.5,4.4-4.7,7.3-6.1c2.1-0.9,4.4-1.5,6.8-1.4c3.4,0.1,6.8,1.2,9.5,3.4c2.1,1.8,3.6,4.2,4.4,6.9
			c0.7,2.4,0.8,5,0.6,7.5c-0.3,2.8-1.1,5.6-2.8,7.9c-1.9,2.6-4.7,4.5-7.8,5.1c-3.6,0.8-7.4,0.2-10.6-1.5c-4-1.8-7.1-5.1-9.3-8.8
			c-1.1-1.8-1.9-3.7-2.9-5.5c-1.2-2.2-2.6-4.3-4.3-6.2c-1.3-1.5-3-2.8-4.9-3.5c-1.5-0.5-3.1-1-4.8-0.8c-3.1,0.2-6.3,1.7-7.9,4.5
			c-1,1.7-1.4,3.8-1.5,5.8c0,1.6,0,3.2,0.5,4.7c0.8,2.5,2.7,4.7,5.1,5.8c3.2,1.4,7.2,1.3,10.2-0.6c-0.7-0.6-1.4-1.2-2.1-1.9
			c-0.2-0.2-0.1-0.5,0.1-0.6c3-0.8,6-1.7,9-2.5c0.3-0.1,0.6,0.2,0.5,0.5c-0.5,3.1-1,6.2-1.5,9.3c0,0.3-0.4,0.4-0.6,0.2
			c-0.7-0.6-1.4-1.2-2.1-1.9c-1.6,1.2-3.5,2.2-5.5,2.6c-2.5,0.5-5.1,0.6-7.6-0.1c-4.1-1.1-7.7-4-9.4-7.9c-0.9-2-1.2-4.1-1.3-6.3
			c-0.1-3,0.4-6,1.7-8.7C21.5,54.3,22.9,52.6,24.6,51.4z"/>
	</g>
</g>
<g id="XMLID_71_">
	<rect id="XMLID_139_" x="100" class="st1" width="100" height="100"/>
	<path id="XMLID_138_" class="st0" d="M116.5,10.7c0.6-1.2,2-1.7,3.2-1.8c1.3-0.1,2.8,0,3.9,1c1,0.9,1.1,2.2,1.1,3.5
		c0,1.5,0.1,3.1-0.5,4.5c-1.1,2.2-3.2,3.6-4.6,5.5c-0.6,0.8-0.5,1.9-0.5,2.9c1.8,0,3.6,0,5.5,0c0,0.9,0,1.8,0,2.7
		c-2.9,0-5.8,0-8.7,0c0.1-2.2-0.4-4.5,0.7-6.5c0.8-1.4,1.9-2.5,3-3.6c0.7-0.7,1.5-1.4,1.8-2.4c0.2-1,0.1-2,0.2-3
		c0-0.5,0-1.2-0.4-1.6c-0.6-0.6-1.9-0.3-2,0.6c-0.2,1,0,2.1-0.1,3.1c-1,0-2,0-3.1,0C116,13.9,115.7,12.2,116.5,10.7z"/>
	<path id="XMLID_137_" class="st0" d="M136.9,9.1c1.1,0,2.2,0,3.3,0c0,0.4,0,0.8,0,1.1c-0.6,0-1.3,0-1.9,0c0,0.8,0,1.6,0,2.4
		c0.5,0,0.9,0,1.4,0c0,0.4,0,0.8,0,1.1c-0.5,0-0.9,0-1.4,0c0,0.8,0,1.7,0,2.5c0.6,0,1.3,0,1.9,0c0,0.4,0,0.8,0,1.1
		c-1.1,0-2.2,0-3.3,0C136.9,14.6,136.9,11.8,136.9,9.1z"/>
	<path id="XMLID_136_" class="st0" d="M140.9,9.9c0.5-1.1,2-1.2,3-0.7c0.8,0.5,0.8,1.5,0.7,2.3c-0.4,0-0.9,0-1.3,0
		c0-0.5,0.1-1.5-0.6-1.4c-0.8,0-0.8,1-0.5,1.4c0.6,0.8,1.4,1.4,2,2.1c0.6,0.7,0.6,1.8,0.3,2.6c-0.4,1.2-2.1,1.4-3.1,0.8
		c-0.9-0.6-0.7-1.8-0.7-2.7c0.4,0,0.9,0,1.3,0c0,0.5-0.1,1,0.1,1.5c0.2,0.6,1.3,0.4,1.2-0.2c0.3-1.3-1.1-1.9-1.7-2.8
		C140.7,12.2,140.5,10.9,140.9,9.9z"/>
	<path id="XMLID_133_" class="st0" d="M151.2,9c1.1-0.4,2.6,0.2,2.8,1.5c0.1,1.4,0,2.8,0.1,4.1c0,0.7,0,1.5-0.5,2.1
		c-1,1.1-3.3,0.8-3.6-0.8c-0.2-1.5,0-3.1-0.1-4.7C149.7,10.4,150.2,9.3,151.2,9 M151.6,10.2c-0.4,0.2-0.4,0.6-0.4,1
		c0,1.4,0,2.7,0,4.1c0,0.3,0,0.7,0.3,0.9c0.4,0.3,1.1,0,1.1-0.6c0.1-1.6,0-3.1,0-4.7C152.7,10.4,152.1,9.9,151.6,10.2z"/>
	<path id="XMLID_132_" class="st0" d="M157.5,9.1c0.4,0,0.8,0,1.2,0c0,2.8,0,5.5,0,8.3c-0.4,0-0.8,0-1.2,0c-0.5-1.7-1-3.4-1.6-5.1
		c0,1.7,0,3.4,0,5.1c-0.4,0-0.8,0-1.2,0c0-2.8,0-5.5,0-8.3c0.5,0,0.9,0,1.4,0c0.5,1.6,1,3.1,1.5,4.7
		C157.5,12.2,157.5,10.6,157.5,9.1z"/>
	<path id="XMLID_131_" class="st0" d="M160.1,9.2c0.8-0.3,1.7-0.3,2.4,0.1c0.7,0.5,0.6,1.5,0.6,2.2c-0.4,0-0.8,0-1.3,0
		c0-0.5,0.1-1.4-0.6-1.4c-0.8-0.1-1,0.9-0.6,1.4c0.7,1,2,1.7,2.4,2.9c0.2,0.9,0.2,2.1-0.7,2.7c-0.8,0.4-1.9,0.4-2.7-0.1
		c-0.7-0.6-0.5-1.7-0.6-2.6c0.4,0,0.9,0,1.3,0c0,0.5-0.1,1,0.1,1.5c0.2,0.6,1.2,0.4,1.2-0.2c0.3-1.6-1.6-2.2-2.3-3.4
		C159,11.4,159,9.8,160.1,9.2z"/>
	<path id="XMLID_130_" class="st0" d="M163.8,9.1c0.5,0,0.9,0,1.4,0c0,2.8,0,5.5,0,8.3c-0.5,0-0.9,0-1.4,0
		C163.8,14.6,163.8,11.8,163.8,9.1z"/>
	<path id="XMLID_129_" class="st0" d="M170.4,9.1c0.5,0,0.9,0,1.4,0c0,2.4,0,4.8,0,7.2c0.6,0,1.1,0,1.7,0c0,0.4,0,0.8,0,1.1
		c-1,0-2,0-3.1,0C170.4,14.6,170.4,11.8,170.4,9.1z"/>
	<path id="XMLID_128_" class="st0" d="M174,9c1.1,0,2.2,0,3.3,0c0,0.4,0,0.8,0,1.1c-0.6,0-1.3,0-1.9,0c0,0.8,0,1.6,0,2.4
		c0.5,0,0.9,0,1.4,0c0,0.4,0,0.8,0,1.1c-0.5,0-0.9,0-1.4,0c0,0.8,0,1.7,0,2.5c0.6,0,1.3,0,1.9,0c0,0.4,0,0.8,0,1.1
		c-1.1,0-2.2,0-3.3,0C174,14.6,174,11.8,174,9z"/>
	<path id="XMLID_127_" class="st0" d="M108.6,12.2c0.9-1.1,1.8-2.1,2.7-3.2c0.9,0,1.8,0,2.7,0c0,6.6,0,13.2,0,19.8
		c-1.1,0-2.2,0-3.3,0c0-5.1,0-10.1,0-15.2c-0.8,0.8-1.6,1.6-2.4,2.5c0-1.1,0-2.2,0-3.3C108.2,12.6,108.5,12.4,108.6,12.2z"/>
	<path id="XMLID_124_" class="st0" d="M132.4,9.1c1.1,0.1,2.2-0.2,3.2,0.3c1,0.6,0.7,2,0.7,2.9c0,0.7-0.5,1.2-1.1,1.4
		c0.4,1.2,0.9,2.5,1.3,3.7c-0.5,0-1,0-1.5,0c-0.4-1.2-0.9-2.5-1.3-3.8c0,1.3,0,2.5,0,3.7c-0.5,0-0.9,0-1.4,0
		C132.4,14.6,132.4,11.8,132.4,9.1 M133.8,10.2c0,0.9,0,1.7,0,2.6c0.4,0,1,0.1,1.1-0.4c0.1-0.6,0.1-1.2,0-1.8
		C134.8,10.1,134.2,10.2,133.8,10.2z"/>
	<path id="XMLID_121_" class="st0" d="M145.3,9.1c1,0.1,2.2-0.2,3.2,0.2c0.8,0.4,0.9,1.4,0.8,2.2c-0.1,0.8,0.2,1.8-0.4,2.5
		c-0.5,0.6-1.5,0.6-2.2,0.6c0,0.9,0,1.9,0,2.8c-0.5,0-0.9,0-1.4,0C145.3,14.6,145.3,11.8,145.3,9.1 M146.7,10.2c0,1.1,0,2.2,0,3.3
		c0.4,0,1.1,0.1,1.1-0.5c0.1-0.8,0-1.6,0-2.3C147.8,10.1,147.1,10.2,146.7,10.2z"/>
	<path id="XMLID_117_" class="st0" d="M165.8,9.1c1,0.1,2.2-0.2,3.2,0.2c0.9,0.5,0.7,1.7,0.7,2.6c0,0.5-0.3,0.9-0.7,1.2
		c0.6,0.2,0.9,0.8,0.9,1.4c0,0.9,0.2,2.2-0.8,2.7c-1,0.4-2.2,0.1-3.3,0.2C165.8,14.6,165.8,11.8,165.8,9.1 M167.2,10.2
		c0,0.8,0,1.6,0,2.4c0.4,0,0.9,0.1,1.1-0.4c0.1-0.6,0.1-1.2,0-1.7C168.1,10.1,167.6,10.2,167.2,10.2 M167.2,13.6c0,0.9,0,1.7,0,2.6
		c0.4,0,1,0.1,1.2-0.4c0.1-0.6,0.1-1.3,0-1.9C168.3,13.5,167.6,13.7,167.2,13.6z"/>
	<path id="XMLID_116_" class="st0" d="M133.6,20.7c0.8-0.2,1.8-0.2,2.4,0.4c0.6,0.7,0.4,1.7,0.4,2.5c-0.4,0-0.9,0-1.3,0
		c0-0.5,0.1-1.1-0.1-1.6c-0.3-0.6-1.3-0.3-1.3,0.3c0,1.6,0,3.2,0,4.8c-0.1,0.7,1,1,1.3,0.3c0.1-0.6,0-1.3,0.1-2c0.4,0,0.9,0,1.3,0
		c0,0.9,0.2,1.9-0.3,2.8c-0.5,0.8-1.7,0.9-2.6,0.6c-0.8-0.3-1.2-1.2-1.2-2c0-1.4,0-2.9,0-4.3C132.4,21.9,132.8,21,133.6,20.7z"/>
	<path id="XMLID_113_" class="st0" d="M138.6,20.6c0.8-0.2,1.9,0,2.3,0.8c0.5,0.9,0.3,2,0.3,3c-0.1,1.1,0.1,2.3-0.2,3.3
		c-0.6,1.8-3.7,1.7-4-0.2c-0.2-1.6,0-3.2-0.1-4.8C137,21.8,137.6,20.8,138.6,20.6 M138.9,21.8c-0.4,0.1-0.4,0.6-0.4,1
		c0,1.4,0,2.7,0,4.1c0,0.4,0,0.8,0.4,1c0.4,0.2,1-0.1,1-0.6c0-1.6,0-3.1,0-4.7C139.9,22,139.3,21.6,138.9,21.8z"/>
	<path id="XMLID_112_" class="st0" d="M147.1,21c0.7-0.5,1.8-0.5,2.6-0.1c0.8,0.5,0.7,1.5,0.7,2.3c-0.4,0-0.9,0-1.3,0
		c0-0.3,0-0.7,0-1c-0.1-0.6-1-0.6-1.2-0.1c-0.1,0.3-0.1,0.7,0.1,1c0.7,1,2,1.7,2.4,2.9c0.2,0.9,0.2,2.2-0.7,2.8
		c-0.8,0.4-1.9,0.4-2.6-0.2c-0.7-0.6-0.5-1.7-0.5-2.6c0.4,0,0.9,0,1.3,0c0,0.5-0.1,1.1,0.1,1.6c0.3,0.5,1.2,0.3,1.2-0.3
		c0.2-1.8-2.1-2.4-2.5-4C146.4,22.6,146.4,21.5,147.1,21z"/>
	<path id="XMLID_109_" class="st0" d="M173.5,20.6c0.8-0.1,1.7,0,2.2,0.6c0.5,0.5,0.5,1.2,0.5,1.9c0,1.2,0,2.4,0,3.6
		c0,0.7-0.1,1.4-0.6,1.9c-1.1,1-3.3,0.6-3.5-1c-0.2-1.6,0-3.2-0.1-4.8C171.9,21.8,172.5,20.8,173.5,20.6 M173.9,21.8
		c-0.4,0.1-0.5,0.5-0.5,0.9c0,1.4,0,2.8,0,4.2c0,0.4,0,0.8,0.4,1c0.4,0.2,1-0.1,1-0.6c0-1.6,0-3.1,0-4.7
		C174.8,22,174.3,21.6,173.9,21.8z"/>
	<path id="XMLID_108_" class="st0" d="M141.9,20.7c0.5,0,0.9,0,1.4,0c0.5,1.6,1,3.1,1.5,4.7c0-1.6,0-3.1,0-4.7c0.4,0,0.8,0,1.2,0
		c0,2.8,0,5.5,0,8.3c-0.4,0-0.8,0-1.2,0c-0.5-1.7-1-3.4-1.6-5.1c0,1.7,0,3.4,0,5.1c-0.4,0-0.8,0-1.2,0
		C141.9,26.2,141.9,23.4,141.9,20.7z"/>
	<path id="XMLID_107_" class="st0" d="M151,20.7c0.5,0,0.9,0,1.4,0c0,2.2,0,4.4,0,6.7c0,0.7,1.3,0.7,1.3,0c0.1-2.2,0-4.4,0-6.7
		c0.4,0,0.9,0,1.3,0c0,2.1,0,4.2,0,6.3c0,0.7-0.2,1.6-1,1.9c-0.7,0.3-1.6,0.3-2.3-0.1c-0.6-0.4-0.8-1.1-0.8-1.8
		C151,24.9,151,22.8,151,20.7z"/>
	<path id="XMLID_106_" class="st0" d="M155.7,20.7c0.5,0,1.1,0,1.6,0c0.3,1.5,0.6,3.1,0.9,4.6c0.3-1.5,0.5-3.1,0.8-4.6
		c0.6,0,1.2,0,1.8,0c0,2.8,0,5.5,0,8.3c-0.4,0-0.9,0-1.3,0c0-1.8,0-3.6,0-5.4c-0.3,1.8-0.6,3.6-1,5.4c-0.2,0-0.4,0-0.7,0
		c-0.4-1.8-0.7-3.6-1-5.3c0,1.8,0,3.6,0,5.3c-0.4,0-0.8,0-1.2,0C155.7,26.2,155.7,23.4,155.7,20.7z"/>
	<path id="XMLID_103_" class="st0" d="M161.4,20.7c1,0.1,2.1-0.2,3.1,0.2c0.8,0.3,0.9,1.3,0.9,2.1c-0.1,0.9,0.2,1.8-0.3,2.6
		c-0.5,0.7-1.5,0.6-2.3,0.7c0,0.9,0,1.9,0,2.8c-0.5,0-0.9,0-1.4,0C161.4,26.2,161.4,23.4,161.4,20.7 M162.8,21.8c0,1.1,0,2.2,0,3.3
		c0.4-0.1,1,0.1,1.1-0.4c0.1-0.8,0.1-1.6,0-2.4C163.9,21.7,163.3,21.8,162.8,21.8z"/>
	<path id="XMLID_102_" class="st0" d="M165.8,20.7c1.2,0,2.5,0,3.7,0c0,0.4,0,0.8,0,1.1c-0.4,0-0.8,0-1.1,0c0,2.4,0,4.8,0,7.2
		c-0.5,0-0.9,0-1.4,0c0-2.4,0-4.8,0-7.2c-0.4,0-0.8,0-1.1,0C165.8,21.4,165.8,21.1,165.8,20.7z"/>
	<path id="XMLID_101_" class="st0" d="M169.9,20.7c0.5,0,0.9,0,1.4,0c0,2.8,0,5.5,0,8.3c-0.5,0-0.9,0-1.4,0
		C169.9,26.2,169.9,23.4,169.9,20.7z"/>
	<path id="XMLID_100_" class="st0" d="M176.8,20.7c0.5,0,0.9,0,1.4,0c0.5,1.6,1,3.1,1.5,4.7c0-1.6,0-3.1,0-4.7c0.4,0,0.8,0,1.2,0
		c0,2.8,0,5.5,0,8.3c-0.4,0-0.8,0-1.2,0c-0.5-1.7-1.1-3.4-1.6-5.1c0,1.7,0,3.4,0,5.1c-0.4,0-0.8,0-1.2,0
		C176.8,26.2,176.8,23.4,176.8,20.7z"/>
	<path id="XMLID_97_" class="st0" d="M158.6,32.2c0.8-0.1,1.8,0.1,2.2,0.9c0.5,0.9,0.2,2.1,0.3,3.1c-0.1,1.1,0.2,2.3-0.2,3.3
		c-0.6,1.7-3.7,1.5-4-0.3c-0.2-1.6,0-3.2-0.1-4.8C156.9,33.4,157.6,32.3,158.6,32.2 M158.9,33.4c-0.6,0.1-0.6,0.8-0.5,1.2
		c0,1.5-0.1,2.9,0.1,4.4c0.1,0.7,1.3,0.7,1.3-0.1c0.1-1.6,0-3.1,0-4.7C159.8,33.7,159.4,33.2,158.9,33.4z"/>
	<path id="XMLID_96_" class="st0" d="M171.3,33.7c0.2-1.6,2.3-1.9,3.4-1.1c0.7,0.7,0.5,1.7,0.5,2.6c-0.4,0-0.9,0-1.3,0
		c0-0.5,0.1-1.1-0.1-1.6c-0.3-0.5-1.2-0.3-1.2,0.4c0,1.6,0,3.3,0,4.9c0,0.7,1.1,0.9,1.3,0.2c0.1-0.6,0-1.3,0-1.9c0.4,0,0.9,0,1.3,0
		c0,0.9,0.2,2-0.4,2.9c-0.6,0.8-1.7,0.8-2.6,0.5c-0.9-0.3-1.1-1.4-1.1-2.2C171.3,36.8,171.2,35.2,171.3,33.7z"/>
	<path id="XMLID_93_" class="st0" d="M183.5,32.2c0.8-0.1,1.8,0.1,2.3,0.9c0.5,0.9,0.2,2.1,0.3,3.1c-0.1,1.1,0.2,2.3-0.2,3.3
		c-0.6,1.7-3.7,1.5-4-0.3c-0.2-1.6,0-3.2-0.1-4.8C181.8,33.4,182.4,32.3,183.5,32.2 M183.8,33.4c-0.6,0.1-0.5,0.8-0.5,1.2
		c0,1.5-0.1,2.9,0.1,4.4c0.1,0.7,1.3,0.7,1.3-0.1c0.1-1.6,0-3.2,0-4.8C184.7,33.6,184.2,33.3,183.8,33.4z"/>
	<path id="XMLID_90_" class="st0" d="M133.7,32.3c0.5,0,1.1,0,1.6,0c0.5,2.8,1.1,5.5,1.6,8.3c-0.5,0-1,0-1.4,0
		c-0.1-0.5-0.2-1-0.3-1.5c-0.5,0-1,0-1.5,0c-0.1,0.5-0.2,1-0.2,1.5c-0.4,0-0.9,0-1.3,0C132.7,37.8,133.2,35.1,133.7,32.3
		 M134.5,34.7c-0.2,1.1-0.4,2.2-0.5,3.2c0.4,0,0.7,0,1.1,0C134.9,36.9,134.7,35.8,134.5,34.7z"/>
	<path id="XMLID_89_" class="st0" d="M137.3,32.3c0.5,0,0.9,0,1.4,0c0.5,1.6,1,3.1,1.5,4.7c0-1.6,0-3.1,0-4.7c0.4,0,0.8,0,1.2,0
		c0,2.8,0,5.5,0,8.3c-0.4,0-0.8,0-1.2,0c-0.5-1.7-1-3.4-1.6-5.1c0,1.7,0,3.4,0,5.1c-0.4,0-0.8,0-1.2,0
		C137.3,37.8,137.3,35.1,137.3,32.3z"/>
	<path id="XMLID_86_" class="st0" d="M142,32.3c1,0,2-0.1,3,0.1c0.8,0.2,1.2,1.2,1.2,2c0,1.4,0,2.9,0,4.3c0,0.8-0.5,1.7-1.3,1.8
		c-0.9,0.2-1.9,0.1-2.8,0.1C142,37.8,142,35.1,142,32.3 M143.4,33.4c0,2,0,4,0,6c0.5,0,1.3,0,1.3-0.7c0-1.6,0.1-3.2,0-4.8
		C144.7,33.4,143.9,33.4,143.4,33.4z"/>
	<path id="XMLID_83_" class="st0" d="M147.9,32.3c1,0.1,2.1-0.2,3.1,0.2c0.8,0.3,0.9,1.3,0.9,2c-0.1,0.9,0.2,1.8-0.3,2.6
		c-0.5,0.7-1.5,0.7-2.3,0.7c0,0.9,0,1.9,0,2.8c-0.5,0-0.9,0-1.4,0C147.9,37.8,147.9,35.1,147.9,32.3 M149.3,33.4c0,1.1,0,2.2,0,3.3
		c0.4-0.1,1.1,0.1,1.1-0.5c0.1-0.8,0.1-1.6,0-2.4C150.4,33.3,149.7,33.5,149.3,33.4z"/>
	<path id="XMLID_80_" class="st0" d="M152.4,32.3c1.1,0.1,2.3-0.2,3.3,0.3c0.9,0.6,0.7,1.9,0.7,2.8c0,0.7-0.5,1.2-1.1,1.5
		c0.4,1.2,0.9,2.5,1.3,3.7c-0.5,0-1,0-1.5,0c-0.4-1.3-0.9-2.5-1.3-3.8c0,1.3,0,2.5,0,3.8c-0.5,0-0.9,0-1.4,0
		C152.4,37.8,152.4,35.1,152.4,32.3 M153.8,33.4c0,0.9,0,1.7,0,2.6c0.4,0,0.9,0.1,1.1-0.4c0.1-0.6,0.1-1.3,0-1.9
		C154.7,33.4,154.2,33.5,153.8,33.4z"/>
	<path id="XMLID_77_" class="st0" d="M161.8,32.3c1,0.1,2-0.1,3,0.1c0.8,0.3,1.2,1.2,1.1,1.9c0,1.4,0,2.9,0,4.3
		c0,0.8-0.5,1.7-1.4,1.9c-0.9,0.2-1.9,0-2.8,0.1C161.8,37.8,161.8,35.1,161.8,32.3 M163.2,33.4c0,2,0,4,0,6c0.5,0,1.3,0,1.3-0.7
		c0-1.6,0-3.1,0-4.7C164.6,33.4,163.7,33.4,163.2,33.4z"/>
	<path id="XMLID_76_" class="st0" d="M166.6,32.3c0.5,0,0.9,0,1.4,0c0,2.2,0,4.4,0,6.6c0,0.8,1.3,0.8,1.3,0c0-2.2,0-4.4,0-6.6
		c0.4,0,0.9,0,1.3,0c0,2.1,0,4.3,0,6.4c0,0.7-0.3,1.5-1,1.8c-0.7,0.3-1.6,0.3-2.3-0.1c-0.6-0.4-0.8-1.2-0.8-1.8
		C166.6,36.5,166.6,34.4,166.6,32.3z"/>
	<path id="XMLID_75_" class="st0" d="M175.6,32.3c1.2,0,2.5,0,3.7,0c0,0.4,0,0.8,0,1.1c-0.4,0-0.8,0-1.1,0c0,2.4,0,4.8,0,7.2
		c-0.5,0-0.9,0-1.4,0c0-2.4,0-4.8,0-7.2c-0.4,0-0.8,0-1.2,0C175.6,33.1,175.6,32.7,175.6,32.3z"/>
	<path id="XMLID_74_" class="st0" d="M179.8,32.3c0.5,0,0.9,0,1.4,0c0,2.8,0,5.5,0,8.3c-0.5,0-0.9,0-1.4,0
		C179.8,37.8,179.8,35.1,179.8,32.3z"/>
	<path id="XMLID_73_" class="st0" d="M186.7,32.3c0.5,0,0.9,0,1.4,0c0.5,1.6,1,3.1,1.5,4.7c0-1.6,0-3.1,0-4.7c0.4,0,0.8,0,1.2,0
		c0,2.8,0,5.5,0,8.3c-0.4,0-0.8,0-1.2,0c-0.5-1.7-1.1-3.4-1.6-5.1c0,1.7,0,3.4,0,5.1c-0.4,0-0.8,0-1.2,0
		C186.7,37.8,186.7,35.1,186.7,32.3z"/>
	<path id="XMLID_72_" class="st0" d="M122.2,53.2c3.2-3.6,8.3-5.2,13-4.8c2.7,0.4,5.5,1.3,7.7,3c3.2,2.4,5.6,5.8,7.6,9.2
		c1.4,2.3,2.4,4.9,4,7.1c1.7,2.5,3.9,4.7,6.6,5.9c2.5,1.3,5.5,1.8,8.2,0.9c1.9-0.6,3.6-1.9,4.6-3.6c1.3-2.2,1.6-4.8,1.6-7.3
		c-0.1-2.4-0.7-5-2.3-6.8c-1.7-2-4.4-3-6.9-3.2c-1.7-0.2-3.5,0.3-5.1,0.9c-2.8,1.2-4.8,3.5-6.6,5.9c-0.3,0.5-1,0.4-1.2-0.1
		c-0.6-1.1-1.2-2.2-1.9-3.2c-0.2-0.3-0.4-0.7-0.1-1.1c2.3-2.9,5.1-5.5,8.7-6.7c1.7-0.6,3.5-1,5.3-1c4.4,0,8.9,1.7,11.8,5.1
		c2.5,3,3.6,6.9,3.5,10.8c0,3.2-0.6,6.4-2.2,9.2c-1.9,3.2-5.2,5.6-8.9,6.4c-3.7,0.8-7.6,0.1-11-1.7c-4.9-2.4-8.4-6.9-10.7-11.6
		c-1.9-3.7-4-7.5-7.2-10.3c-1.8-1.6-4.1-2.5-6.5-2.7c-2.7-0.1-5.6,0.7-7.6,2.6c-1.9,1.8-2.7,4.5-2.8,7.1c-0.1,2.4,0,5.1,1.5,7.1
		c2.7,4.4,9.1,5.6,13.4,3c-0.6-0.6-1.2-1.1-1.8-1.6c-0.4-0.3-0.2-1,0.3-1.1c3-0.8,6-1.7,9.1-2.5c0.5-0.2,1,0.3,0.8,0.8
		c-0.5,3.1-1,6.2-1.5,9.2c0,0.5-0.7,0.8-1,0.5c-0.7-0.5-1.3-1.2-1.9-1.7c-3.7,2.8-8.7,3.6-13.2,2.4c-3.6-1-6.9-3.4-8.8-6.7
		c-1.5-2.4-2-5.3-2-8.1C118.4,60.4,119.5,56.2,122.2,53.2z"/>
</g>
</svg>
