<?xml version="1.0" encoding="utf-8"?>
<!-- Generator: Adobe Illustrator 19.0.0, SVG Export Plug-In . SVG Version: 6.00 Build 0)  -->
<svg version="1.1" id="Layer_1" xmlns="http://www.w3.org/2000/svg" xmlns:xlink="http://www.w3.org/1999/xlink" x="0px" y="0px"
	 viewBox="312 247 300 300" style="enable-background:new 312 247 300 300;" xml:space="preserve">
<style type="text/css">
	.st0{fill:#48773E;}
	.st1{fill:#FFFFFF;}
</style>
<g>
	<rect x="312" y="247" class="st0" width="300" height="300"/>
	<path class="st1" d="M362.6,275.7c5.2-3.3,12.7-3.4,17.8,0.1c5.1,4,4.5,11.1,4.4,16.9c0.1,4.1-2.7,7.8-6.6,9.1
		c4.6,0.9,7.4,5.5,7.1,10.1c-0.3,5.9,1.2,12.6-2.6,17.7c-4.1,5.1-11.6,5.5-17.5,4c-3.2-0.9-6-3.4-7.1-6.6c-1.8-4.9-1-10.3-1.2-15.4
		c3.1,0,6.1,0,9.1,0c0.2,3.8-0.4,7.6,0.4,11.4c0.9,3.8,7.2,4,8.3,0.2c0.8-3.2,0.3-6.5,0.4-9.7c-0.1-2.3,0.5-5.3-1.8-6.8
		c-2.2-1.2-4.9-0.6-7.3-0.8c0-2.5,0-5.1,0-7.6c2.6-0.1,5.7,0.6,7.8-1.4c1.7-1.6,1.2-4.1,1.3-6.1c-0.1-2.3,0.4-4.7-0.5-6.9
		c-1.3-3.1-6.7-2.9-7.6,0.4c-0.8,3-0.3,6.2-0.5,9.3c-3.1,0-6.1,0-9.2,0C357.5,287.4,357,279.8,362.6,275.7z"/>
	<path class="st1" d="M409.2,273.9c2.4-0.7,5.5-0.7,7.3,1.3c1.6,2.1,1.2,5,1.2,7.5c-1.3,0-2.6,0-3.8,0c-0.1-1.6,0.3-3.4-0.4-4.9
		c-1-1.6-3.9-0.7-3.7,1.3c0,4.9-0.3,9.8,0,14.6c0,1.9,3.1,2.5,3.8,0.7c0.4-1.9,0.1-3.9,0.2-5.9c1.3,0,2.6,0,3.9,0
		c-0.2,2.7,0.4,5.5-0.8,8c-1.5,2.7-5.3,3-8,2c-2.3-0.9-3.4-3.5-3.3-5.8c0-4.3,0-8.6,0-12.9C405.6,277.4,406.8,274.7,409.2,273.9z"/>
	<path class="st1" d="M343.8,274c2.7,0,5.3,0.1,8,0.1c0,19.8-0.1,39.7-0.1,59.5c-3.3,0-6.7,0-10,0c-0.1-15.2,0.1-30.4,0-45.6
		c-2.4,2.5-4.8,5-7.2,7.4c0-3.2,0-6.5,0-9.7c-0.1-0.7,0.4-1.4,0.8-1.9C338.3,280.5,341.1,277.2,343.8,274z"/>
	<path class="st1" d="M420,273.8c1.4,0,2.8,0,4.2,0c0,7.2,0,14.3,0,21.5c1.7,0,3.3,0,5,0c0,1.1,0,2.3,0,3.4c-3.1,0-6.1,0-9.2,0
		C420,290.4,420,282.1,420,273.8z"/>
	<path class="st1" d="M431.1,273.8c1.4,0,2.8,0.1,4.2,0.1c0,8.3,0,16.6,0,24.9c-1.4,0-2.8,0-4.2,0
		C431.1,290.4,431.1,282.1,431.1,273.8z"/>
	<path class="st1" d="M437.8,273.9c1.6,0,3.3,0,4.9,0c0.9,4.6,1.7,9.3,2.7,13.9c0.9-4.6,1.6-9.2,2.4-13.9c1.8,0,3.5,0,5.3,0
		c0,8.3-0.1,16.6,0,24.9c-1.3,0-2.6,0-3.8,0c0-5.4,0-10.9,0-16.3c-1,5.4-1.9,10.9-2.9,16.3c-0.7,0-1.3,0-2,0c-1-5.3-2-10.7-3.1-16
		c-0.1,5.3,0,10.7,0,16c-1.2,0-2.3,0-3.5,0C437.7,290.5,437.7,282.2,437.8,273.9z"/>
	<path class="st1" d="M459.5,273.9c1.6,0,3.2,0,4.8,0c1.6,8.3,3.1,16.6,4.7,24.9c-1.4,0-2.9,0-4.3,0c-0.3-1.5-0.5-3-0.8-4.5
		c-1.5,0-2.9,0-4.4,0c-0.2,1.5-0.5,3-0.7,4.5c-1.3,0-2.7,0-4,0C456.3,290.5,457.9,282.2,459.5,273.9 M460,290.9c1.1,0,2.2,0,3.3,0
		c-0.5-3.3-1.1-6.6-1.6-9.8C461.1,284.3,460.6,287.6,460,290.9z"/>
	<path class="st1" d="M468.4,273.9c3.7,0,7.4,0,11.1,0c0,1.1,0,2.3,0,3.4c-1.1,0-2.3,0-3.4,0c0,7.1-0.1,14.3,0,21.4
		c-1.4,0-2.8,0-4.2,0c0-7.1,0-14.3,0-21.4c-1.1,0-2.3,0-3.4-0.1C468.4,276.2,468.4,275,468.4,273.9z"/>
	<path class="st1" d="M481.5,273.9c3.3,0,6.7,0,10,0c0,1.1,0,2.3,0,3.4c-1.9,0-3.9,0-5.8,0c0,2.4,0,4.7,0,7.1c1.4,0,2.7,0,4.1,0
		c0,1.1,0,2.3,0,3.4c-1.4,0-2.8,0-4.1,0c0,2.5,0,5,0,7.5c1.9,0,3.9,0,5.8,0c0,1.1,0,2.3,0,3.4c-3.3,0-6.7,0-10-0.1
		C481.4,290.5,481.4,282.2,481.5,273.9z"/>
	<path class="st1" d="M422.6,309.5c2.3-1.5,5.6-1.5,7.9-0.1c2.5,1.9,1.9,5.4,2,8.2c-1.3,0-2.6,0-3.8,0c-0.1-1.6,0.2-3.3-0.3-4.8
		c-0.9-1.6-3.8-0.8-3.7,1.1c-0.1,4.9-0.1,9.9,0,14.8c0,1.9,3.1,2.5,3.8,0.7c0.5-1.9,0.2-4,0.2-5.9c1.3,0,2.6,0,3.8,0
		c-0.2,2.9,0.6,6.3-1.3,8.8c-3,3.2-9.8,2-10.6-2.7c-0.6-4-0.1-8.1-0.3-12.2C420.2,314.6,420.1,311.3,422.6,309.5z"/>
	<path class="st1" d="M458.6,308.5c3.5-0.8,7.4,1.6,7.5,5.4c0,5.2,0.3,10.4-0.2,15.6c-1,6-11.2,6-12.2,0c-0.5-4.8-0.1-9.7-0.2-14.5
		C453.4,311.9,455.4,308.7,458.6,308.5 M459.4,312c-1.6,0.2-1.8,2.1-1.7,3.3c0.1,4.4-0.2,8.9,0.1,13.3c0.1,2.4,4,2.4,4.1,0
		c0.1-4.8,0.1-9.6,0.1-14.4C462,312.8,460.8,311.7,459.4,312z"/>
	<path class="st1" d="M409.6,308.7c1.6,0,3.2,0,4.8,0c1.6,8.3,3.1,16.6,4.7,24.9c-1.4,0-2.9,0-4.3-0.1c-0.2-1.5-0.5-3-0.8-4.5
		c-1.5,0-2.9,0-4.4,0c-0.2,1.5-0.5,3-0.7,4.5c-1.3,0-2.7,0-4,0C406.5,325.3,408,317,409.6,308.7 M410.2,325.7c1.1,0,2.2,0,3.3,0
		c-0.5-3.3-1.1-6.6-1.6-9.9C411.3,319.1,410.7,322.4,410.2,325.7z"/>
	<path class="st1" d="M433.8,308.7c3.7,0,7.4,0.1,11.2,0c0,1.1,0,2.3,0,3.4c-1.2,0-2.3,0-3.5,0c0,7.1,0,14.3,0,21.4
		c-1.4,0-2.9,0-4.3,0c0.1-7.2,0-14.3,0.1-21.5c-1.2,0-2.3,0-3.5,0C433.8,311,433.8,309.8,433.8,308.7z"/>
	<path class="st1" d="M446.9,308.7c1.4,0,2.8,0,4.2,0c0,8.3-0.1,16.6,0,24.9c-1.4,0-2.8,0-4.2,0C446.9,325.3,446.9,317,446.9,308.7z
		"/>
	<path class="st1" d="M468.6,308.7c1.4,0,2.8,0,4.1,0c1.5,4.7,2.9,9.4,4.5,14.1c0.1-4.7,0-9.4,0-14.1c1.2,0,2.3,0,3.5,0
		c0,8.3,0,16.6,0,24.9c-1.2,0-2.5,0-3.7,0c-1.6-5.1-3.1-10.2-4.8-15.3c-0.1,5.1,0,10.2,0,15.3c-1.2,0-2.4,0-3.5,0
		C468.6,325.3,468.6,317,468.6,308.7z"/>
	<path class="st1" d="M407.6,391.9c26.2-12.1,56.3-15,84.5-9.3c32.5,6.6,62.1,26.1,81.3,53c-13.5,18.9-32.2,34-53.3,43.7
		c-26,11.9-55.8,14.7-83.8,9.1c-32.5-6.6-62.2-26.1-81.4-53.1C368.3,416.5,386.8,401.6,407.6,391.9 M439.9,397.2
		c3.8-0.2,7.7-0.9,11.5-0.5c1.1,0.2,2.5,0.5,3,1.6c0.3,1.3-0.3,2.9,0.7,4c1.1,1.2,2.5,2,3.6,3.2c-2.5,1.7-5.1,3.4-7.9,4.6
		c-0.7,0.4-2.2,0.1-1.7-0.9c1.5-1.6,3.9-2.1,5.5-3.6c-3.4-1.9-7,0.7-10.5,0.7c-3.6,0.2-8.4,0.4-10.3,4c0.4,2.6,3.9,3,5.9,3.6
		c3.6,1.4,4.9-5.5,8.3-2.8c-1.1,1.5-2.8,2.4-4,3.8c-2.2,2-4.9-0.5-7.4-0.1c-3.2-0.3-5.5,2-8.2,3.2c0.4,1.3,0.3,3.1-1.3,3.4
		c-1.8-0.3-3.6-1.1-5.3-0.3c-2.3,0.6-1.3,5.7,1.2,4.3c2.5-1.3,5.5-1.1,7.8-2.8c0.9-0.6,2-1.7,3.1-0.8c1.7,1.7,2.1,4.4,4.2,5.7
		c-0.3-1.5-0.8-2.9-1-4.5c1.3,0.6,2.2,1.8,3.1,2.9c0.9-0.3,1.7-0.8,2.7-0.6c1.2,0.5,1.4,2.3,0.6,3.2c-1.3,1.4-3.3,2.2-5.1,1.7
		c-3.3-0.7-6.2-2.6-9.5-3.3c-2.3-0.5-5-1.6-7,0.1c-1.1,1.7-2.9,3.2-2.9,5.3c-0.5,7.1,0.8,14.3,3.5,20.9c2.8,1.2,4.7-1.8,7.2-2.1
		c1.9,1.1,3.9,2.7,4,5.1c0.8-0.1,1.6-0.4,2.4-0.2c0.9,1.9,0.1,4.8,2.5,5.6c0.3,2.7-0.2,6.3,2,8.3c4.6,0.6,8.5-3.2,9.2-7.5
		c0.2-2.3,2.6-3.2,2.9-5.4c0.8-2,0.7-4.2,0.8-6.3c0.2-3,4.1-3.9,4.4-6.8c0.2-1.3-1.2-1.9-2.1-2.4c-3.4-1.7-6-5.5-5.4-9.4
		c2.6,1.8,4,4.9,6.8,6.4c2.6,0.5,6.9-1.9,5.7-4.9c-2.1-2.9-5.3-4.7-7.2-7.7c-0.5-1.1,1.1-1,1.6-0.5c1.8,1.3,3.6,2.6,5.6,3.4
		c2.4,1,1.6,4.3,3.7,5.7c2.5,1.7,5.8,1.7,8.2,3.5c1.2,0.8,2,2.1,3.4,2.6c1.7-1.5,2.9-3.8,2.5-6.1c-0.8-2.4,3.1-3.3,4.2-1.6
		c2.2,3.5,2.4,8.3,5.8,10.9c1.7,1.3,3.4,3.2,5.7,3c-0.2-2.4-2.1-4.2-2.7-6.5c-0.1-2.2,0.9-5.2,3.5-5.5c1.9-0.4,3.7-1.5,5.1-2.9
		c-0.9-1.7-2.2-3.7-1.2-5.7c1.1-0.5,1.8,1,2.6,1.6c1.3,1.6,4.1,1,4.7-0.9c0.7-2.1-0.3-4.2-0.9-6.1c-4.4-13.2-15.1-24-28.2-28.5
		C466.3,388.1,451.4,389.8,439.9,397.2 M427.4,407.7c2.9,2.3,7.7-1,7.1-4.6C431,401.5,429.2,405.4,427.4,407.7 M424.8,412.9
		c-1.1,1.9-2.1,3.9-2.8,6.1c2.4-0.2,3.9-2.2,5.5-3.8c1.4-1.5,3.4-2.3,4.9-3.7C430.2,409.4,426,410.2,424.8,412.9 M505.6,429.7
		c0.4,0.9,0.8,1.9,1.2,2.8c-3.3,3.8-1.4,9.5,2,12.6c0.8-3.9,1.2-7.9,0.9-11.8C509.5,431.2,507.6,429.8,505.6,429.7 M471.9,441.5
		c0.8,1.8,3.6,1.8,5.2,0.9C476.5,440.1,472.7,438.4,471.9,441.5 M495.6,439.6c-1,2.2,1.7,3.8,3.6,2.9
		C498.7,441.1,497.4,438.9,495.6,439.6 M497,445.6c0.4,2,3.6,2,5.1,1.1C501.4,444.6,498,442.8,497,445.6 M498.6,450.4
		c-3.3,0.9-6.7,1.3-9.7,2.8c-3,1.8-5.2,5.7-3.9,9.2c0.7,1.8,0.8,3.7,1.8,5.3c1.7,0.1,3-1.3,4.4-1.9c0,0.7,0.1,1.4,0.1,2.1
		c1.6-1,3.5-0.8,5.1,0.1c4.3-4.4,7.9-9.6,10.2-15.3c0.8-2-0.5-3.9-1.4-5.6C502.9,448.3,501,449.8,498.6,450.4 M454.8,451.9
		c-0.3,2.5-1.3,5.4-0.1,7.8c1.9-2.8,2.2-6.2,3.8-9.2c0.4-0.9,1-2.2,0-2.9C456.3,447.6,455,449.9,454.8,451.9 M481.8,473
		c-1.6,0.9-2.8,3.3-5,2.6c-5.5-1.6-10.9-4.2-16.7-3.9c-3.5,0.3-7.4,1.6-9,4.9c-0.6,0.9-0.5,2.5,0.7,2.8c13.5,4,28.9,1.1,40-7.6
		C488.6,470.2,484.5,470.7,481.8,473z"/>
</g>
</svg>
