<?xml version="1.0" encoding="utf-8"?>
<!-- Generator: Adobe Illustrator 19.0.0, SVG Export Plug-In . SVG Version: 6.00 Build 0)  -->
<svg version="1.1" id="Layer_1" xmlns="http://www.w3.org/2000/svg" xmlns:xlink="http://www.w3.org/1999/xlink" x="0px" y="0px"
	 viewBox="0 0 200 100" style="enable-background:new 0 0 200 100;" xml:space="preserve">
<style type="text/css">
	.st0{fill:#FFFFFF;}
	.st1{fill:#48773E;}
</style>
<g id="XMLID_1_">
	<g id="XMLID_2_">
		<rect id="XMLID_36_" class="st0" width="100" height="100"/>
		<path id="XMLID_35_" class="st1" d="M16,10.4c0.8-1.2,2.3-1.7,3.6-1.7c1.4-0.1,3,0.3,3.8,1.5c1,1.5,0.8,3.3,0.8,5
			c0,1.3-1,2.5-2.2,2.9c0.7,0.2,1.4,0.6,1.8,1.2c0.6,0.9,0.6,2,0.6,3.1c0,1.6,0.2,3.3-0.7,4.7c-0.8,1.3-2.3,1.8-3.7,1.8
			c-1.4,0.1-3.1-0.2-4-1.4c-1.3-1.8-0.9-4.1-1-6.2c1,0,2,0,3,0c0,1,0,2,0,3c0,0.6,0.2,1.2,0.7,1.6c0.5,0.3,1.1,0.3,1.6,0
			c0.5-0.3,0.7-0.9,0.7-1.5c0-1.1,0-2.3,0-3.4c0-0.6-0.2-1.2-0.8-1.4c-0.7-0.2-1.5-0.1-2.2-0.1c0-0.8,0-1.7,0-2.5
			c0.9,0,1.9,0.2,2.6-0.4c0.6-0.5,0.4-1.4,0.5-2.1c0-0.8,0.1-1.6-0.2-2.3c-0.4-1-2.2-1-2.5,0.2c-0.3,1-0.1,2-0.1,3.1c-1,0-2,0-3,0
			C15.2,13.8,15,11.9,16,10.4z"/>
		<path id="XMLID_34_" class="st1" d="M32.3,9c0.8-0.3,1.8-0.3,2.4,0.3c0.6,0.7,0.4,1.7,0.5,2.6c-0.4,0-0.9,0-1.3,0
			c0-0.5,0.1-1-0.1-1.5c-0.2-0.5-1.1-0.5-1.2,0c-0.1,0.4-0.1,0.8-0.1,1.2c0,1.3-0.1,2.7,0,4c0,0.6,1.1,0.8,1.3,0.1
			c0.1-0.6,0-1.3,0.1-1.9c0.4,0,0.9,0,1.3,0c-0.1,0.9,0.2,2-0.4,2.8c-0.6,0.8-1.7,0.8-2.6,0.5c-0.8-0.3-1.1-1.2-1.1-1.9
			c0-1.4,0-2.9,0-4.3C31.2,10.2,31.6,9.3,32.3,9z"/>
		<path id="XMLID_33_" class="st1" d="M10.5,9.2C10.5,9.1,10.6,9,10.7,9c0.8,0,1.7,0,2.5,0c0,6.6,0,13.2,0,19.8c-1.1,0-2.2,0-3.3,0
			c0-5.1,0-10.1,0-15.2c-0.8,0.8-1.6,1.7-2.4,2.5c0-1.1,0-2.2,0-3.3c0-0.2,0.1-0.3,0.2-0.4C8.6,11.3,9.5,10.3,10.5,9.2z"/>
		<path id="XMLID_32_" class="st1" d="M36,8.9c0.5,0,0.9,0,1.4,0c0,2.4,0,4.8,0,7.2c0.6,0,1.1,0,1.7,0c0,0.4,0,0.8,0,1.1
			c-1,0-2,0-3.1,0C36,14.5,36,11.7,36,8.9z"/>
		<path id="XMLID_31_" class="st1" d="M39.7,8.9c0.5,0,0.9,0,1.4,0c0,2.8,0,5.5,0,8.3c-0.5,0-0.9,0-1.4,0
			C39.7,14.5,39.7,11.7,39.7,8.9z"/>
		<path id="XMLID_30_" class="st1" d="M41.9,9c0.5,0,1.1,0,1.6,0c0.3,1.5,0.6,3.1,0.9,4.6c0.3-1.5,0.5-3.1,0.8-4.6
			c0.6,0,1.2,0,1.8,0c0,2.8,0,5.5,0,8.3c-0.4,0-0.9,0-1.3,0c0-1.8,0-3.6,0-5.4c-0.4,1.8-0.6,3.6-1,5.4c-0.2,0-0.4,0-0.7,0
			c-0.4-1.8-0.7-3.6-1-5.3c0,1.8,0,3.6,0,5.3c-0.4,0-0.8,0-1.2,0C41.9,14.5,41.9,11.7,41.9,9z"/>
		<path id="XMLID_27_" class="st1" d="M49.2,9c0.5,0,1.1,0,1.6,0c0.5,2.8,1,5.5,1.6,8.3c-0.5,0-1,0-1.4,0c-0.1-0.5-0.2-1-0.3-1.5
			c-0.5,0-1,0-1.5,0c-0.1,0.5-0.2,1-0.2,1.5c-0.4,0-0.9,0-1.3,0C48.1,14.5,48.6,11.7,49.2,9 M49.9,11.4c-0.2,1.1-0.4,2.2-0.6,3.3
			c0.4,0,0.7,0,1.1,0C50.3,13.5,50.1,12.4,49.9,11.4z"/>
		<path id="XMLID_26_" class="st1" d="M52.1,9c1.2,0,2.5,0,3.7,0c0,0.4,0,0.8,0,1.1c-0.4,0-0.8,0-1.1,0c0,2.4,0,4.8,0,7.2
			c-0.5,0-0.9,0-1.4,0c0-2.4,0-4.8,0-7.2c-0.4,0-0.8,0-1.1,0C52.1,9.7,52.1,9.3,52.1,9z"/>
		<path id="XMLID_25_" class="st1" d="M56.5,9c1.1,0,2.2,0,3.3,0c0,0.4,0,0.8,0,1.1c-0.6,0-1.3,0-1.9,0c0,0.8,0,1.6,0,2.4
			c0.5,0,0.9,0,1.4,0c0,0.4,0,0.8,0,1.1c-0.5,0-0.9,0-1.4,0c0,0.8,0,1.7,0,2.5c0.6,0,1.3,0,1.9,0c0,0.4,0,0.8,0,1.1
			c-1.1,0-2.2,0-3.3,0C56.5,14.5,56.5,11.7,56.5,9z"/>
		<path id="XMLID_24_" class="st1" d="M37.4,20.6c0.8-0.2,1.8-0.2,2.4,0.5c0.5,0.7,0.4,1.6,0.4,2.5c-0.4,0-0.9,0-1.3,0
			c0-0.5,0-1,0-1.4c-0.1-0.6-1.1-0.6-1.3-0.1c-0.2,1.7-0.1,3.5-0.1,5.2c0,0.6,1.1,0.8,1.3,0.2c0.1-0.6,0-1.3,0.1-1.9
			c0.4,0,0.8,0,1.3,0c0,0.9,0.2,1.9-0.3,2.8c-0.5,0.8-1.8,0.9-2.6,0.6c-0.8-0.3-1.1-1.2-1.1-1.9c0-1.4,0-2.9,0-4.3
			C36.1,21.7,36.5,20.8,37.4,20.6z"/>
		<path id="XMLID_21_" class="st1" d="M48.7,20.5c0.7-0.1,1.5-0.1,2.1,0.4c0.5,0.4,0.7,1.2,0.7,1.8c0,1.4,0,2.7,0,4.1
			c0,0.8-0.3,1.6-1,1.9c-0.7,0.3-1.6,0.3-2.3-0.1c-0.7-0.4-0.9-1.2-0.9-1.9c0-1.5,0-2.9,0-4.4C47.2,21.5,47.8,20.7,48.7,20.5
			 M49,21.7c-0.3,0.2-0.4,0.6-0.4,0.9c0,1.4,0,2.9,0,4.3c0,0.4,0.2,0.9,0.7,0.8c0.4,0.1,0.8-0.3,0.7-0.8c0-1.6,0-3.1,0-4.7
			C50,21.8,49.4,21.5,49,21.7z"/>
		<path id="XMLID_18_" class="st1" d="M32.5,20.6c0.5,0,1.1,0,1.6,0c0.5,2.8,1,5.5,1.6,8.3c-0.5,0-1,0-1.4,0c-0.1-0.5-0.2-1-0.3-1.5
			c-0.5,0-1,0-1.5,0c-0.1,0.5-0.2,1-0.2,1.5c-0.4,0-0.9,0-1.3,0C31.5,26.1,32,23.3,32.5,20.6 M33.3,22.9c-0.2,1.1-0.4,2.2-0.6,3.3
			c0.4,0,0.7,0,1.1,0C33.6,25.1,33.5,24,33.3,22.9z"/>
		<path id="XMLID_17_" class="st1" d="M40.6,20.6c1.2,0,2.5,0,3.7,0c0,0.4,0,0.8,0,1.1c-0.4,0-0.8,0-1.2,0c0,2.4,0,4.8,0,7.2
			c-0.5,0-0.9,0-1.4,0c0-2.4,0-4.8,0-7.2c-0.4,0-0.8,0-1.2,0C40.6,21.3,40.6,20.9,40.6,20.6z"/>
		<path id="XMLID_16_" class="st1" d="M45,28.9c0-2.8,0-5.5,0-8.3c0.5,0,0.9,0,1.4,0c0,2.8,0,5.5,0,8.3C45.9,28.9,45.4,28.9,45,28.9
			z"/>
		<path id="XMLID_15_" class="st1" d="M52.2,20.6c0.5,0,0.9-0.1,1.4,0c0.5,1.6,1,3.1,1.5,4.7c0-1.6,0-3.1,0-4.7c0.4,0,0.8,0,1.2,0
			c0,2.8,0,5.5,0,8.3c-0.4,0-0.8,0-1.2,0c-0.5-1.7-1.1-3.4-1.6-5.2c0,1.7,0,3.4,0,5.2c-0.4,0-0.8,0-1.2,0
			C52.2,26.1,52.2,23.3,52.2,20.6z"/>
		<path id="XMLID_3_" class="st1" d="M35.1,46.9c7.4-2.7,15.5-3.4,23.3-2.1c11.4,1.9,22,8.5,28.7,18C82,70,74.7,75.5,66.4,78.6
			C59,81.3,50.9,82,43.1,80.7c-11.5-1.9-22-8.5-28.8-18C19.5,55.6,26.8,50,35.1,46.9 M42.6,50.1c1.2-0.1,2.4-0.3,3.6-0.2
			c0.4,0,0.9,0.1,1.2,0.4c0.3,0.4-0.1,0.9,0.2,1.3c0.3,0.5,0.9,0.7,1.2,1.1c0.1,0.2-0.1,0.4-0.3,0.5c-0.8,0.4-1.5,1-2.3,1.2
			c-0.2,0.1-0.4-0.1-0.5-0.2c0.4-0.7,1.3-0.8,1.9-1.3c-0.8-0.7-1.9,0-2.9,0.1c-1.4,0.2-3.1,0-4,1.3c-0.1,0.9,1.1,1,1.7,1.3
			c0.7,0.3,1.3-0.2,1.8-0.7c0.3-0.4,1-0.5,1.3,0c-0.6,0.3-1,0.9-1.6,1.3c-0.6,0.4-1.3-0.2-1.9-0.2s-1.3,0-1.9,0.4
			c-0.4,0.3-0.8,0.5-1.2,0.7c0.2,0.5,0.1,1.1-0.5,1.1c-0.6-0.3-1.4-0.4-1.9,0c-0.3,0.4-0.2,1,0.1,1.3c0.4,0.2,0.7-0.2,1-0.2
			c0.8-0.2,1.6-0.3,2.2-0.8c0.2-0.2,0.5-0.4,0.8-0.2c0.7,0.5,0.7,1.6,1.5,1.9c-0.1-0.5-0.3-0.9-0.3-1.4c0.5,0,0.7,0.6,1.1,0.9
			c0.3-0.1,0.6-0.4,0.9-0.2c0.4,0.3,0.4,0.9,0,1.2c-0.6,0.5-1.4,0.6-2.1,0.3c-1.3-0.5-2.7-1.1-4.1-1.2c-0.4,0.1-0.9,0.1-1,0.6
			c-0.2,0.5-0.8,0.8-0.8,1.4c-0.2,2.4,0.2,4.8,1.2,7.1c0.9,0.5,1.6-0.7,2.5-0.6c0.5,0.4,1.2,0.7,1.2,1.5c0,0.5,0.7-0.2,0.9,0.2
			c0.2,0.5,0.1,1.2,0.5,1.7c0.1,0,0.2,0,0.3,0c0,0.8,0,1.6,0.3,2.3c0.1,0.3,0.3,0.6,0.6,0.5c0.9-0.1,1.8-0.4,2.2-1.2
			c0.4-0.6,0.5-1.3,0.7-1.9c0.1-0.4,0.6-0.4,0.6-0.8c0.1-0.6,0.4-1.1,0.4-1.7c0-0.5-0.1-1.1,0.3-1.6c0.4-0.6,1.3-0.9,1.2-1.8
			c-0.3-0.6-1-0.7-1.4-1.1c-0.7-0.7-1.2-1.6-1-2.6c0.8,0.5,1.3,1.4,2,2c0.5,0.4,1.1,0,1.6-0.3c0.4-0.3,0.8-0.8,0.5-1.3
			c-0.7-0.9-1.7-1.5-2.3-2.5c-0.2-0.2,0-0.5,0.2-0.4c0.4,0.1,0.7,0.5,1.1,0.7c0.4,0.3,0.8,0.4,1.2,0.6c0.6,0.4,0.4,1.3,1,1.7
			c1,0.7,2.3,0.6,3.2,1.5c0.3,0.2,0.6,0.8,0.9,0.4c0.4-0.5,0.8-1.2,0.6-1.9c-0.3-0.8,1.2-1.1,1.5-0.4c0.4,0.9,0.7,1.9,1.2,2.8
			c0.5,0.7,1.3,1.3,2,1.7c0.2,0.1,0.6,0.2,0.6-0.2c-0.1-0.8-0.8-1.3-0.9-2c0-0.6,0.2-1.3,0.8-1.6c0.7-0.2,1.5-0.4,2-1
			c0.2-0.2-0.1-0.5-0.2-0.7c-0.2-0.4-0.4-1-0.1-1.4c0.6,0,0.7,0.8,1.3,0.9c0.7,0.1,1.3-0.6,1.1-1.3c-1.3-5.8-6.3-10.5-12.2-11.5
			C49.7,47.3,45.7,48.1,42.6,50.1 M39.6,52.1c-0.4,0.4-0.8,0.9-1.1,1.4c0.4,0.6,1.2,0.2,1.7-0.1c0.5-0.2,0.6-0.8,0.6-1.3
			C40.5,51.8,39.9,51.9,39.6,52.1 M37.9,54.8c-0.6,0.7-0.9,1.6-1.3,2.4c0.8,0.1,1.3-0.7,1.8-1.2c0.4-0.6,1.2-0.7,1.6-1.3
			C39.5,54.2,38.5,54.4,37.9,54.8 M64.5,61c0.1,0.3,0.5,0.7,0.3,1.1c-1,1.2-0.3,3,0.8,4c0.3-1.3,0.4-2.6,0.3-3.8
			C65.9,61.5,65.3,60.9,64.5,61 M61.2,64.8c0.2,0.5,0.8,0.5,1.2,0.2c-0.2-0.4-0.5-0.9-1-0.9C61.1,64.2,61.1,64.6,61.2,64.8
			 M53.7,64.3c-0.3,0.1-0.6,0.6-0.3,0.8c0.4,0.2,1.1,0.4,1.4,0C54.9,64.6,54.2,64.1,53.7,64.3 M62,65.7c-0.2,0.1-0.6,0.5-0.3,0.7
			c0.4,0.3,1.1,0.5,1.5,0.1C63.3,66,62.5,65.5,62,65.7 M63.4,67.2c-1.4,0.9-3.2,0.7-4.6,1.5c-1,0.7-1.7,2-1.1,3.2
			c0.2,0.5,0.2,1.2,0.6,1.6c0.6,0.1,0.9-0.5,1.5-0.6c0,0.2-0.1,0.5,0.1,0.6c0.3,0.1,0.5-0.3,0.7-0.2c0.3,0.1,0.6,0.2,0.9,0.3
			c1.5-1.5,2.7-3.3,3.5-5.3c0.1-0.6-0.2-1.1-0.5-1.6C64.1,66.7,63.7,67.1,63.4,67.2 M48.5,66.9c-0.4,0.2-0.7,0.7-0.8,1.1
			c-0.2,0.8-0.4,1.7-0.2,2.5c0,0.2,0.2,0.3,0.3,0.1c0.5-0.7,0.6-1.6,0.9-2.4c0.2-0.4,0.4-0.7,0.4-1.2C49,66.8,48.7,66.8,48.5,66.9
			 M56.3,75.6c-0.4,0.3-0.7,0.8-1.2,0.6c-1.8-0.5-3.7-1.4-5.6-1.3c-1.2,0.1-2.5,0.5-3,1.6c-0.2,0.3-0.2,0.8,0.2,0.9
			c4.5,1.3,9.7,0.4,13.4-2.5C58.7,74.3,57.2,74.7,56.3,75.6z"/>
	</g>
</g>
<g id="XMLID_37_">
	<g id="XMLID_38_">
		<rect id="XMLID_72_" x="100" class="st1" width="100" height="100"/>
		<path id="XMLID_71_" class="st0" d="M116.9,9.6c1.7-1.1,4.2-1.1,5.9,0c1.7,1.3,1.5,3.7,1.5,5.6c0,1.4-0.9,2.6-2.2,3
			c1.5,0.3,2.5,1.8,2.4,3.4c-0.1,2,0.4,4.2-0.9,5.9c-1.4,1.7-3.9,1.8-5.8,1.3c-1.1-0.3-2-1.1-2.4-2.2c-0.6-1.6-0.3-3.4-0.4-5.1
			c1,0,2,0,3,0c0.1,1.3-0.1,2.5,0.1,3.8c0.3,1.3,2.4,1.3,2.8,0.1c0.3-1.1,0.1-2.2,0.1-3.2c0-0.8,0.2-1.8-0.6-2.3
			c-0.7-0.4-1.6-0.2-2.4-0.3c0-0.8,0-1.7,0-2.5c0.9,0,1.9,0.2,2.6-0.5c0.6-0.5,0.4-1.4,0.4-2c0-0.8,0.1-1.6-0.2-2.3
			c-0.4-1-2.2-1-2.5,0.1c-0.3,1-0.1,2.1-0.2,3.1c-1,0-2,0-3.1,0C115.2,13.5,115,10.9,116.9,9.6z"/>
		<path id="XMLID_70_" class="st0" d="M132.4,9c0.8-0.2,1.8-0.2,2.4,0.4c0.5,0.7,0.4,1.7,0.4,2.5c-0.4,0-0.9,0-1.3,0
			c0-0.5,0.1-1.1-0.1-1.6c-0.3-0.5-1.3-0.2-1.2,0.4c0,1.6-0.1,3.3,0,4.9c0,0.6,1,0.8,1.3,0.2c0.1-0.6,0-1.3,0.1-2c0.4,0,0.9,0,1.3,0
			c-0.1,0.9,0.1,1.8-0.3,2.7c-0.5,0.9-1.8,1-2.7,0.7c-0.8-0.3-1.1-1.2-1.1-1.9c0-1.4,0-2.9,0-4.3C131.2,10.1,131.6,9.2,132.4,9z"/>
		<path id="XMLID_69_" class="st0" d="M110.6,9c0.9,0,1.8,0,2.7,0c0,6.6,0,13.2,0,19.8c-1.1,0-2.2,0-3.3,0c0-5.1,0-10.1,0-15.2
			c-0.8,0.8-1.6,1.7-2.4,2.5c0-1.1,0-2.2,0-3.2c0-0.2,0.1-0.5,0.3-0.6C108.8,11.2,109.7,10.1,110.6,9z"/>
		<path id="XMLID_68_" class="st0" d="M136,8.9c0.5,0,0.9,0,1.4,0c0,2.4,0,4.8,0,7.2c0.6,0,1.1,0,1.7,0c0,0.4,0,0.8,0,1.1
			c-1,0-2,0-3.1,0C136,14.5,136,11.7,136,8.9z"/>
		<path id="XMLID_67_" class="st0" d="M139.7,8.9c0.5,0,0.9,0,1.4,0c0,2.8,0,5.5,0,8.3c-0.5,0-0.9,0-1.4,0
			C139.7,14.5,139.7,11.7,139.7,8.9z"/>
		<path id="XMLID_66_" class="st0" d="M141.9,9c0.5,0,1.1,0,1.6,0c0.3,1.5,0.6,3.1,0.9,4.6c0.3-1.5,0.5-3.1,0.8-4.6
			c0.6,0,1.2,0,1.8,0c0,2.8,0,5.5,0,8.3c-0.4,0-0.9,0-1.3,0c0-1.8,0-3.6,0-5.4c-0.3,1.8-0.6,3.6-1,5.4c-0.2,0-0.4,0-0.7,0
			c-0.3-1.8-0.7-3.6-1-5.3c0,1.8,0,3.6,0,5.3c-0.4,0-0.8,0-1.2,0C141.9,14.5,141.9,11.7,141.9,9z"/>
		<path id="XMLID_63_" class="st0" d="M149.2,9c0.5,0,1.1,0,1.6,0c0.5,2.8,1,5.5,1.6,8.3c-0.5,0-1,0-1.4,0c-0.1-0.5-0.2-1-0.3-1.5
			c-0.5,0-1,0-1.5,0c-0.1,0.5-0.2,1-0.2,1.5c-0.4,0-0.9,0-1.3,0C148.1,14.5,148.6,11.7,149.2,9 M149.3,14.6c0.4,0,0.7,0,1.1,0
			c-0.2-1.1-0.4-2.2-0.5-3.3C149.7,12.4,149.5,13.5,149.3,14.6z"/>
		<path id="XMLID_62_" class="st0" d="M152.1,9c1.2,0,2.5,0,3.7,0c0,0.4,0,0.8,0,1.1c-0.4,0-0.8,0-1.1,0c0,2.4,0,4.8,0,7.1
			c-0.5,0-0.9,0-1.4,0c0-2.4,0-4.8,0-7.1c-0.4,0-0.8,0-1.1,0C152.1,9.7,152.1,9.3,152.1,9z"/>
		<path id="XMLID_61_" class="st0" d="M156.5,9c1.1,0,2.2,0,3.3,0c0,0.4,0,0.8,0,1.1c-0.6,0-1.3,0-1.9,0c0,0.8,0,1.6,0,2.4
			c0.5,0,0.9,0,1.4,0c0,0.4,0,0.8,0,1.1c-0.5,0-0.9,0-1.4,0c0,0.8,0,1.7,0,2.5c0.6,0,1.3,0,1.9,0c0,0.4,0,0.8,0,1.1
			c-1.1,0-2.2,0-3.3,0C156.5,14.5,156.5,11.7,156.5,9z"/>
		<path id="XMLID_60_" class="st0" d="M136.9,20.8c0.8-0.5,1.9-0.5,2.6,0c0.8,0.6,0.6,1.8,0.7,2.7c-0.4,0-0.9,0-1.3,0
			c0-0.5,0.1-1.1-0.1-1.6c-0.3-0.5-1.3-0.3-1.2,0.4c0,1.6,0,3.3,0,4.9c0,0.6,1,0.8,1.3,0.2c0.2-0.6,0.1-1.3,0.1-2c0.4,0,0.9,0,1.3,0
			c-0.1,1,0.2,2.1-0.4,2.9c-1,1.1-3.3,0.7-3.5-0.9c-0.2-1.3,0-2.7-0.1-4.1C136.1,22.5,136,21.4,136.9,20.8z"/>
		<path id="XMLID_57_" class="st0" d="M148.9,20.5c1.2-0.3,2.5,0.5,2.5,1.8c0,1.7,0.1,3.5-0.1,5.2c-0.3,2-3.7,2-4.1,0
			c-0.2-1.6,0-3.2-0.1-4.8C147.1,21.6,147.8,20.6,148.9,20.5 M149.1,21.7c-0.5,0.1-0.6,0.7-0.6,1.1c0,1.5-0.1,3,0,4.4
			c0,0.8,1.3,0.8,1.4,0c0-1.6,0-3.2,0-4.8C150,21.9,149.6,21.6,149.1,21.7z"/>
		<path id="XMLID_54_" class="st0" d="M132.5,20.6c0.5,0,1.1,0,1.6,0c0.5,2.8,1,5.5,1.6,8.3c-0.5,0-1,0-1.4,0
			c-0.1-0.5-0.2-1-0.3-1.5c-0.5,0-1,0-1.5,0c-0.1,0.5-0.2,1-0.2,1.5c-0.4,0-0.9,0-1.3,0C131.5,26.1,132,23.3,132.5,20.6 M132.7,26.2
			c0.4,0,0.7,0,1.1,0c-0.2-1.1-0.4-2.2-0.5-3.3C133.1,24,132.9,25.1,132.7,26.2z"/>
		<path id="XMLID_53_" class="st0" d="M140.6,20.6c1.2,0,2.5,0,3.7,0c0,0.4,0,0.8,0,1.1c-0.4,0-0.8,0-1.2,0c0,2.4,0,4.8,0,7.1
			c-0.5,0-1,0-1.4,0c0-2.4,0-4.8,0-7.2c-0.4,0-0.8,0-1.2,0C140.6,21.3,140.6,20.9,140.6,20.6z"/>
		<path id="XMLID_52_" class="st0" d="M145,20.6c0.5,0,0.9,0,1.4,0c0,2.8,0,5.5,0,8.3c-0.5,0-0.9,0-1.4,0
			C145,26.1,145,23.3,145,20.6z"/>
		<path id="XMLID_51_" class="st0" d="M152.2,20.6c0.5,0,0.9,0,1.4,0c0.5,1.6,1,3.1,1.5,4.7c0-1.6,0-3.1,0-4.7c0.4,0,0.8,0,1.2,0
			c0,2.8,0,5.5,0,8.3c-0.4,0-0.8,0-1.2,0c-0.5-1.7-1-3.4-1.6-5.1c0,1.7,0,3.4,0,5.1c-0.4,0-0.8,0-1.2,0
			C152.2,26.1,152.2,23.3,152.2,20.6z"/>
		<path id="XMLID_39_" class="st0" d="M131.9,48.3c8.7-4,18.8-5,28.2-3.1c10.8,2.2,20.7,8.7,27.1,17.7c-4.5,6.3-10.7,11.3-17.8,14.6
			c-8.7,4-18.6,4.9-27.9,3c-10.8-2.2-20.7-8.7-27.1-17.7C118.8,56.5,124.9,51.5,131.9,48.3 M142.6,50.1c1.3-0.1,2.6-0.3,3.8-0.2
			c0.4,0.1,0.8,0.2,1,0.5c0.1,0.4-0.1,1,0.2,1.3c0.4,0.4,0.8,0.7,1.2,1.1c-0.8,0.6-1.7,1.1-2.6,1.5c-0.2,0.1-0.7,0-0.6-0.3
			c0.5-0.5,1.3-0.7,1.8-1.2c-1.1-0.6-2.3,0.2-3.5,0.2c-1.2,0.1-2.8,0.1-3.4,1.3c0.1,0.9,1.3,1,2,1.2c1.2,0.5,1.6-1.8,2.8-0.9
			c-0.4,0.5-0.9,0.8-1.3,1.3c-0.7,0.7-1.6-0.2-2.5,0c-1.1-0.1-1.8,0.7-2.7,1.1c0.1,0.4,0.1,1-0.4,1.1c-0.6-0.1-1.2-0.4-1.8-0.1
			c-0.8,0.2-0.4,1.9,0.4,1.4c0.8-0.4,1.8-0.4,2.6-0.9c0.3-0.2,0.7-0.6,1-0.3c0.6,0.6,0.7,1.5,1.4,1.9c-0.1-0.5-0.3-1-0.3-1.5
			c0.4,0.2,0.7,0.6,1,1c0.3-0.1,0.6-0.3,0.9-0.2c0.4,0.2,0.5,0.8,0.2,1.1c-0.4,0.5-1.1,0.7-1.7,0.6c-1.1-0.2-2.1-0.9-3.2-1.1
			c-0.8-0.2-1.7-0.5-2.3,0c-0.4,0.6-1,1.1-1,1.8c-0.2,2.4,0.3,4.8,1.2,7c0.9,0.4,1.6-0.6,2.4-0.7c0.6,0.4,1.3,0.9,1.3,1.7
			c0.3,0,0.5-0.1,0.8-0.1c0.3,0.6,0,1.6,0.8,1.9c0.1,0.9-0.1,2.1,0.7,2.8c1.5,0.2,2.8-1.1,3.1-2.5c0.1-0.8,0.9-1.1,1-1.8
			c0.3-0.7,0.2-1.4,0.3-2.1c0.1-1,1.4-1.3,1.5-2.3c0.1-0.4-0.4-0.6-0.7-0.8c-1.1-0.6-2-1.8-1.8-3.1c0.9,0.6,1.3,1.6,2.3,2.1
			c0.9,0.2,2.3-0.6,1.9-1.6c-0.7-1-1.8-1.6-2.4-2.6c-0.2-0.4,0.4-0.3,0.5-0.2c0.6,0.4,1.2,0.9,1.9,1.1c0.8,0.3,0.5,1.4,1.2,1.9
			c0.8,0.6,1.9,0.6,2.7,1.2c0.4,0.3,0.7,0.7,1.1,0.9c0.6-0.5,1-1.3,0.8-2c-0.3-0.8,1-1.1,1.4-0.5c0.7,1.2,0.8,2.8,1.9,3.6
			c0.6,0.4,1.1,1.1,1.9,1c-0.1-0.8-0.7-1.4-0.9-2.2c0-0.7,0.3-1.7,1.2-1.8c0.6-0.1,1.2-0.5,1.7-1c-0.3-0.6-0.7-1.2-0.4-1.9
			c0.4-0.2,0.6,0.3,0.9,0.5c0.4,0.5,1.4,0.3,1.6-0.3c0.2-0.7-0.1-1.4-0.3-2c-1.5-4.4-5-8-9.4-9.5C151.4,47,146.5,47.6,142.6,50.1
			 M138.5,53.6c1,0.8,2.6-0.3,2.4-1.5C139.7,51.5,139.1,52.8,138.5,53.6 M137.6,55.3c-0.4,0.6-0.7,1.3-0.9,2
			c0.8-0.1,1.3-0.7,1.8-1.3c0.5-0.5,1.1-0.8,1.6-1.2C139.4,54.1,138,54.4,137.6,55.3 M164.5,60.9c0.1,0.3,0.3,0.6,0.4,0.9
			c-1.1,1.3-0.5,3.2,0.7,4.2c0.3-1.3,0.4-2.6,0.3-3.9C165.8,61.4,165.2,60.9,164.5,60.9 M153.3,64.8c0.3,0.6,1.2,0.6,1.7,0.3
			C154.8,64.4,153.6,63.8,153.3,64.8 M161.2,64.2c-0.3,0.7,0.6,1.3,1.2,1C162.2,64.7,161.8,64,161.2,64.2 M161.7,66.2
			c0.1,0.7,1.2,0.7,1.7,0.4C163.1,65.9,162,65.3,161.7,66.2 M162.2,67.8c-1.1,0.3-2.2,0.4-3.2,0.9c-1,0.6-1.7,1.9-1.3,3.1
			c0.2,0.6,0.3,1.2,0.6,1.8c0.6,0,1-0.4,1.5-0.6c0,0.2,0,0.5,0,0.7c0.5-0.3,1.2-0.3,1.7,0c1.4-1.5,2.6-3.2,3.4-5.1
			c0.3-0.7-0.2-1.3-0.5-1.9C163.6,67.1,163,67.6,162.2,67.8 M147.6,68.3c-0.1,0.8-0.4,1.8,0,2.6c0.6-0.9,0.7-2.1,1.3-3.1
			c0.1-0.3,0.3-0.7,0-1C148.1,66.9,147.7,67.6,147.6,68.3 M156.6,75.3c-0.5,0.3-0.9,1.1-1.7,0.9c-1.8-0.5-3.6-1.4-5.6-1.3
			c-1.2,0.1-2.5,0.5-3,1.6c-0.2,0.3-0.2,0.8,0.2,0.9c4.5,1.3,9.6,0.4,13.3-2.5C158.9,74.4,157.5,74.6,156.6,75.3z"/>
	</g>
</g>
</svg>
