<?xml version="1.0" encoding="utf-8"?>
<!-- Generator: Adobe Illustrator 19.0.0, SVG Export Plug-In . SVG Version: 6.00 Build 0)  -->
<svg version="1.1" id="Layer_1" xmlns="http://www.w3.org/2000/svg" xmlns:xlink="http://www.w3.org/1999/xlink" x="0px" y="0px"
	 viewBox="312 247 300 300" style="enable-background:new 312 247 300 300;" xml:space="preserve">
<style type="text/css">
	.st0{fill:#007DBC;}
	.st1{fill:#FFFFFF;}
</style>
<g>
	<rect x="312" y="247" class="st0" width="300" height="300"/>
	<path class="st1" d="M410.8,273.9c1.4,0,2.8,0,4.2,0c0,7.2,0,14.3,0,21.5c1.7,0,3.3,0,5,0c0,1.1,0,2.3,0,3.4c-3.1,0-6.1,0-9.2,0
		C410.8,290.5,410.8,282.2,410.8,273.9z"/>
	<path class="st1" d="M421.9,273.9c1.4,0,2.8,0,4.2,0c0,8.3,0,16.6,0,24.9c-1.4,0-2.8,0-4.2,0C421.9,290.5,421.9,282.2,421.9,273.9z
		"/>
	<path class="st1" d="M428.5,273.9c3.3,0,6.6,0,9.8,0c0,1.1,0,2.3,0,3.4c-1.9,0-3.7,0-5.6,0c0,2.4,0,4.7,0,7.1c1.4,0,2.8,0,4.2,0
		c0,1.1,0,2.3,0,3.4c-1.4,0-2.8,0-4.2,0c0,3.7,0,7.3,0,11c-1.4,0-2.8,0-4.2,0C428.5,290.5,428.5,282.2,428.5,273.9z"/>
	<path class="st1" d="M440.1,273.9c3.3,0,6.7,0,10,0c0,1.1,0,2.3,0,3.4c-1.9,0-3.9,0-5.8,0c0,2.4,0,4.7,0,7.1c1.4,0,2.8,0,4.1,0
		c0,1.1,0,2.3,0,3.4c-1.4,0-2.8,0-4.1,0c0,2.5,0,5,0,7.5c1.9,0,3.9,0,5.8,0c0,1.1,0,2.3,0,3.4c-3.3,0-6.7,0-10,0
		C440.1,290.5,440.1,282.2,440.1,273.9z"/>
	<path class="st1" d="M336.7,283.8c2.8-3.2,5.5-6.4,8.2-9.6c2.7,0,5.3,0,8,0c0,19.9,0,39.7,0,59.6c-3.3,0-6.7,0-10,0
		c0-15.2,0-30.4,0-45.6c-2.4,2.5-4.8,5-7.2,7.4c0-3.3-0.1-6.6,0-9.9C335.6,284.9,336.2,284.3,336.7,283.8z"/>
	<path class="st1" d="M358.4,316.4c5.6-14.1,11.1-28.2,16.7-42.2c3.3,0,6.6,0,9.9,0c0,14,0,28,0,42c1.3,0,2.7,0,4,0
		c0,2.6,0,5.2,0,7.8c-1.3,0-2.7,0-4,0c0,3.2,0,6.4,0,9.7c-3.2,0-6.4,0-9.6,0c0-3.2,0-6.4,0-9.6c-5.9,0-11.8,0-17.6,0
		C358,321.5,357.3,318.8,358.4,316.4 M366.7,316.2c3,0,6,0,9,0c0-8.2,0-16.3,0-24.5C372.6,299.9,369.6,308.1,366.7,316.2z"/>
	<path class="st1" d="M452.8,308.6c2.2-0.4,4.9-0.2,6.5,1.6c1.4,1.5,1.6,3.6,1.6,5.5c0,3.6,0,7.3,0,10.9c0,1.9-0.3,4.1-1.7,5.5
		c-3.2,3.2-10.1,2-10.8-2.9c-0.5-4.8-0.1-9.6-0.2-14.3C448.1,312.1,449.8,309.1,452.8,308.6 M454,312c-1.5,0.4-1.5,2.1-1.5,3.3
		c0.1,4.4-0.1,8.9,0.1,13.3c0.1,2.3,4,2.3,4.1,0c0.2-4.8,0.1-9.6,0.1-14.5C456.8,312.7,455.3,311.6,454,312z"/>
	<path class="st1" d="M410.8,308.7c3.2,0.2,6.5-0.6,9.5,0.7c2.7,1.5,2.1,5,2.1,7.5c0.1,1.6-0.8,3-2.1,3.8c1.7,0.6,2.9,2.2,2.7,4
		c0,2.8,0.7,6.8-2.4,8.3c-3.1,1.2-6.6,0.4-9.9,0.6C410.8,325.3,410.8,317,410.8,308.7 M415,312.1c0,2.4,0,4.8,0,7.2
		c1-0.2,2.5,0.2,3.2-0.9c0.4-1.6,0.3-3.3,0.1-5C418,311.9,416.1,312.3,415,312.1 M415,322.4c0,2.6,0,5.2,0,7.9
		c1.2-0.2,2.8,0.3,3.6-0.9c0.4-1.9,0.3-3.9,0.1-5.8C418.2,322.1,416.2,322.6,415,322.4z"/>
	<path class="st1" d="M425.1,308.7c3.3,0,6.7,0,10,0c0,1.2,0,2.3,0,3.5c-1.9,0-3.8,0-5.8,0c0,2.4,0,4.7,0,7.1c1.4,0,2.8,0,4.1,0
		c0,1.1,0,2.3,0,3.4c-1.4,0-2.8,0-4.1,0c0,2.5,0,5,0,7.5c1.9,0,3.8,0,5.8,0c0,1.1,0,2.3,0,3.5c-3.3,0-6.7,0-10,0
		C425.1,325.3,425.1,317,425.1,308.7z"/>
	<path class="st1" d="M437.4,308.7c1.4,0,2.8,0,4.2,0c0,7.2,0,14.3,0,21.5c1.7,0,3.3,0,5,0c0,1.2,0,2.3,0,3.5c-3.1,0-6.1,0-9.2,0
		C437.3,325.3,437.3,317,437.4,308.7z"/>
	<path class="st1" d="M462.3,308.7c1.4,0,2.7,0,4.1,0c0.7,5.2,1.2,10.3,1.9,15.5c0.8-5.2,1.4-10.3,2.1-15.5c1.1,0,2.3,0,3.5,0
		c0.8,5.2,1.5,10.4,2.3,15.6c0.7-5.2,1.3-10.4,1.9-15.6c1.2,0,2.4,0,3.6,0c-1.1,8.3-2.2,16.6-3.2,24.9c-1.3,0-2.7,0-4,0
		c-0.8-5.1-1.6-10.2-2.5-15.2c-0.8,5.1-1.6,10.2-2.3,15.2c-1.3,0-2.6,0-4,0C464.6,325.3,463.4,317,462.3,308.7z"/>
	<path class="st1" d="M486.7,308.7c1.4,0,2.7,0,4.1,0c0.6,5.2,1.2,10.3,1.9,15.5c0.8-5.2,1.4-10.3,2.1-15.5c1.1,0,2.3,0,3.4,0
		c0.8,5.2,1.5,10.4,2.3,15.5c0.7-5.2,1.3-10.4,1.9-15.5c1.2,0,2.4,0,3.6,0c-1.1,8.3-2.2,16.6-3.2,24.9c-1.3,0-2.7,0-4,0
		c-0.8-5-1.5-10-2.5-15c-0.9,5-1.6,10-2.3,15c-1.3,0-2.6,0-4,0C488.9,325.3,487.8,317,486.7,308.7z"/>
	<path class="st1" d="M510.4,308.7c1.6,0,3.2,0,4.8,0c1.6,8.3,3.2,16.6,4.7,24.9c-1.4,0-2.9,0-4.3,0c-0.3-1.5-0.5-3.1-0.8-4.6
		c-1.5,0-2.9,0-4.4,0c-0.2,1.5-0.5,3.1-0.7,4.6c-1.3,0-2.7,0-4,0C507.2,325.3,508.8,317,510.4,308.7 M512.6,315.9
		c-0.6,3.2-1.1,6.5-1.6,9.8c1.1,0,2.2,0,3.3,0C513.7,322.5,513.2,319.2,512.6,315.9z"/>
	<path class="st1" d="M519.3,308.7c3.7,0,7.4,0,11.2,0c0,1.1,0,2.3,0,3.5c-1.2,0-2.3,0-3.5,0c0,7.2,0,14.3,0,21.5
		c-1.4,0-2.8,0-4.2,0c0-7.2,0-14.3,0-21.5c-1.2,0-2.3,0-3.5,0C519.3,311,519.3,309.9,519.3,308.7z"/>
	<path class="st1" d="M532.3,308.7c3.4,0,6.7,0,10.1,0c0,1.2,0,2.3,0,3.5c-1.9,0-3.9,0-5.8,0c0,2.4,0,4.7,0,7.1c1.4,0,2.8,0,4.2,0
		c0,1.1,0,2.3,0,3.4c-1.4,0-2.8,0-4.2,0c0,2.5,0,5,0,7.5c1.9,0,3.9,0,5.8,0c0,1.2,0,2.3,0,3.5c-3.4,0-6.7,0-10.1,0
		C532.3,325.4,532.3,317,532.3,308.7z"/>
	<path class="st1" d="M544.6,308.7c3.2,0.2,6.6-0.6,9.6,0.8c3,1.8,2.1,5.7,2.2,8.6c0.1,2.1-1.4,3.7-3.2,4.4
		c1.3,3.7,2.6,7.4,3.9,11.2c-1.5,0-3,0-4.4,0c-1.3-3.8-2.6-7.5-3.9-11.3c0,3.8,0,7.5,0,11.3c-1.4,0-2.8,0-4.2,0
		C544.6,325.3,544.6,317,544.6,308.7 M548.8,312.1c0,2.6,0,5.2,0,7.9c1.1-0.2,2.9,0.1,3.3-1.2c0.3-1.8,0.3-3.7,0-5.5
		C551.6,311.9,549.9,312.3,548.8,312.1z"/>
	<path class="st1" d="M409.3,372.8c3.5-1.5,6.4-4,9.2-6.4c7.1,5.4,15.9,9.3,25,8.5c5.9-0.5,11.4-3.2,15.7-7.2
		c0.6-0.6,1.6-1.6,2.4-0.6c4.3,4,9.6,6.9,15.5,7.6c8.6,1.1,17.3-2.2,24.2-7.2c0.8-0.5,1.8-1.6,2.6-0.6c4.6,4.4,10.5,7.5,16.8,8.1
		c6.4,0.7,12.9-0.9,18.7-3.8c1.4,2.5,0.3,5.6,0.6,8.4c-4.8,4.3-11.1,7.2-17.6,6.5c-7.2-0.6-13.5-4.8-18.7-9.5
		c-4.8,4.6-10.8,8.3-17.6,8.9c-9.3,1-18.3-3.2-25.4-9c-5.9,4.8-13,8.5-20.7,9.1c-8.4,0.8-16.4-3.3-22.3-9
		c-5.2,4.9-11.7,9.1-19.1,9.6c-6.4,0.5-12.6-2.4-17.2-6.6c0.3-2.8-0.7-5.8,0.6-8.4C390.4,375.7,400.7,377,409.3,372.8z"/>
	<path class="st1" d="M405.4,398.7c5-1.4,9.3-4.5,13.1-7.9c7,5.4,15.7,9.2,24.7,8.5c6-0.4,11.7-3.2,16.1-7.3
		c0.6-0.6,1.5-1.4,2.3-0.6c4.1,3.8,9.1,6.7,14.7,7.6c9.6,1.5,19.2-2.5,26.7-8.3c4.9,4.5,10.9,8.1,17.6,8.8c6.5,0.8,13-0.8,18.7-3.8
		c1.5,2.4,0.3,5.6,0.7,8.3c-4.4,4.1-10.3,6.9-16.4,6.6c-7.3-0.2-14-4.1-19.2-9.1c-0.6-0.8-1.4,0-1.9,0.4c-4,3.7-8.9,6.6-14.3,7.6
		c-10,2-20-2.4-27.6-8.6c-7,5.8-16,9.9-25.3,9c-6.1-0.6-11.8-3.6-16.3-7.8c-0.6-0.5-1.4-1.4-2.1-0.6c-5.2,4.9-11.9,8.8-19.2,9
		c-6.1,0.2-11.9-2.6-16.4-6.6c0.3-2.7-0.7-5.8,0.7-8.3C389.3,399.4,397.7,401,405.4,398.7z"/>
	<path class="st1" d="M451.8,435.7c12.6-5.5,26.8-8.4,40.3-5.1c20.2,4.7,37.1,18.7,49.4,34.9c-2,3.1-4.5,5.8-6.9,8.5
		c-11.6,12.4-26.1,22.9-42.9,26.6c-9.5,2.1-19.5,1.5-28.9-1.3c-16-4.7-30.6-13.6-43.6-23.9c-7.3,13.4-20.3,25.1-36.1,26.3
		c-1.6,0.2-1.2-1.6-0.5-2.4c5.9-10.2,10.4-21.6,10.7-33.5c0-12.9-5.5-24.9-11.6-36c1.8-0.8,3.8-0.2,5.6,0.1
		c14,2.8,25.2,13.5,31.9,25.7C429.2,447.6,440.1,440.7,451.8,435.7 M496.5,449.9c-3.9,0.7-7.1,4-7.8,7.8c-0.8,3.8,1.1,8,4.4,10
		c3.3,2.2,8,2,11.1-0.4c3.5-2.5,4.9-7.6,3.2-11.6C505.8,451.6,501,449,496.5,449.9z"/>
</g>
</svg>
