<?xml version="1.0" encoding="utf-8"?>
<!-- Generator: Adobe Illustrator 19.0.0, SVG Export Plug-In . SVG Version: 6.00 Build 0)  -->
<svg version="1.1" id="Layer_1" xmlns="http://www.w3.org/2000/svg" xmlns:xlink="http://www.w3.org/1999/xlink" x="0px" y="0px"
	 viewBox="0 0 200 100" style="enable-background:new 0 0 200 100;" xml:space="preserve">
<style type="text/css">
	.st0{fill:#FFFFFF;}
	.st1{fill:#007DBC;}
</style>
<g id="XMLID_1_">
	<g id="XMLID_2_">
		<rect id="XMLID_35_" class="st0" width="100" height="100"/>
		<path id="XMLID_34_" class="st1" d="M32.9,9c0.5,0,0.9,0,1.4,0c0,2.4,0,4.8,0,7.2c0.6,0,1.1,0,1.7,0c0,0.4,0,0.8,0,1.1
			c-1,0-2,0-3.1,0C32.9,14.5,32.9,11.7,32.9,9z"/>
		<path id="XMLID_33_" class="st1" d="M36.6,9c0.5,0,0.9,0,1.4,0c0,2.8,0,5.5,0,8.3c-0.5,0-0.9,0-1.4,0C36.6,14.5,36.6,11.7,36.6,9z
			"/>
		<path id="XMLID_32_" class="st1" d="M38.8,9c1.1,0,2.2,0,3.3,0c0,0.4,0,0.8,0,1.1c-0.6,0-1.2,0-1.9,0c0,0.8,0,1.6,0,2.4
			c0.5,0,0.9,0,1.4,0c0,0.4,0,0.8,0,1.1c-0.5,0-0.9,0-1.4,0c0,1.2,0,2.4,0,3.7c-0.5,0-0.9,0-1.4,0C38.8,14.5,38.8,11.7,38.8,9z"/>
		<path id="XMLID_31_" class="st1" d="M42.7,9c1.1,0,2.2,0,3.3,0c0,0.4,0,0.8,0,1.1c-0.6,0-1.3,0-1.9,0c0,0.8,0,1.6,0,2.4
			c0.5,0,0.9,0,1.4,0c0,0.4,0,0.8,0,1.1c-0.5,0-0.9,0-1.4,0c0,0.8,0,1.7,0,2.5c0.6,0,1.3,0,1.9,0c0,0.4,0,0.8,0,1.1
			c-1.1,0-2.2,0-3.3,0C42.7,14.5,42.7,11.7,42.7,9z"/>
		<path id="XMLID_30_" class="st1" d="M11,9.1c0.9,0,1.8,0,2.7,0c0,6.6,0,13.2,0,19.8c-1.1,0-2.2,0-3.3,0c0-5.1,0-10.1,0-15.2
			c-0.8,0.8-1.6,1.6-2.4,2.5c0-1.1,0-2.2,0-3.3c0-0.2,0.1-0.3,0.2-0.5C9.1,11.3,10,10.2,11,9.1z"/>
		<path id="XMLID_27_" class="st1" d="M21,9.1c1.1,0,2.2,0,3.3,0c0,4.7,0,9.3,0,14c0.4,0,0.9,0,1.3,0c0,0.9,0,1.7,0,2.6
			c-0.4,0-0.9,0-1.3,0c0,1.1,0,2.1,0,3.2c-1.1,0-2.1,0-3.2,0c0-1.1,0-2.1,0-3.2c-2,0-3.9,0-5.9,0c0.1-0.9-0.2-1.8,0.2-2.7
			C17.4,18.4,19.2,13.7,21,9.1 M18.2,23.1c1,0,2,0,3,0c0-2.7,0-5.4,0-8.1C20.2,17.6,19.2,20.4,18.2,23.1z"/>
		<path id="XMLID_24_" class="st1" d="M46.9,20.5c0.7-0.1,1.6-0.1,2.2,0.5c0.5,0.5,0.6,1.2,0.6,1.8c0,1.3,0,2.7,0,4
			c0,0.8-0.3,1.6-1.1,1.9C47.9,29,47,29,46.3,28.7c-0.7-0.4-0.9-1.2-0.9-1.9c0-1.4,0-2.9,0-4.3C45.4,21.6,46,20.7,46.9,20.5
			 M47.2,21.7c-0.3,0.2-0.4,0.6-0.4,0.9c0,1.5,0,2.9,0,4.4c0,0.4,0.2,0.8,0.7,0.8c0.4,0.1,0.8-0.3,0.8-0.7c0-1.6,0-3.1,0-4.7
			C48.3,21.8,47.7,21.5,47.2,21.7z"/>
		<path id="XMLID_20_" class="st1" d="M32.9,20.6c0.8,0,1.5,0,2.3,0c0.5,0,1.1,0.3,1.4,0.8c0.3,0.7,0.2,1.4,0.2,2.1
			c0,0.5-0.3,0.9-0.8,1.1c0.6,0.2,1,0.8,1,1.4c0,0.9,0.2,2.2-0.8,2.7c-1,0.4-2.2,0.2-3.3,0.2C32.9,26.1,32.9,23.3,32.9,20.6
			 M34.3,21.7c0,0.8,0,1.6,0,2.4c0.4,0,0.9,0.1,1.1-0.4c0.1-0.5,0.1-1.1,0-1.6C35.3,21.6,34.7,21.7,34.3,21.7 M34.3,25.1
			c0,0.9,0,1.7,0,2.6c0.4,0,1.1,0.1,1.3-0.4c0-0.6,0.1-1.2,0-1.8C35.4,25,34.8,25.2,34.3,25.1z"/>
		<path id="XMLID_19_" class="st1" d="M37.7,20.6c1.1,0,2.2,0,3.3,0c0,0.4,0,0.8,0,1.1c-0.6,0-1.3,0-1.9,0c0,0.8,0,1.6,0,2.4
			c0.5,0,0.9,0,1.4,0c0,0.4,0,0.8,0,1.1c-0.5,0-0.9,0-1.4,0c0,0.8,0,1.7,0,2.5c0.6,0,1.3,0,1.9,0c0,0.4,0,0.8,0,1.1
			c-1.1,0-2.2,0-3.3,0C37.7,26.1,37.7,23.3,37.7,20.6z"/>
		<path id="XMLID_18_" class="st1" d="M41.8,20.6c0.5,0,0.9,0,1.4,0c0,2.4,0,4.8,0,7.2c0.6,0,1.1,0,1.7,0c0,0.4,0,0.8,0,1.1
			c-1,0-2,0-3.1,0C41.8,26.1,41.8,23.3,41.8,20.6z"/>
		<path id="XMLID_17_" class="st1" d="M50.1,20.6c0.5,0,0.9,0,1.4,0c0.2,1.7,0.4,3.5,0.6,5.2c0.3-1.7,0.5-3.5,0.7-5.2
			c0.4,0,0.8,0,1.1,0c0.3,1.7,0.5,3.5,0.8,5.2c0.2-1.7,0.4-3.5,0.6-5.2c0.4,0,0.8,0,1.2,0c-0.4,2.8-0.7,5.5-1.1,8.3
			c-0.4,0-0.9,0-1.3,0c-0.3-1.7-0.5-3.4-0.8-5c-0.3,1.7-0.5,3.4-0.8,5c-0.4,0-0.9,0-1.3,0C50.9,26.1,50.5,23.3,50.1,20.6z"/>
		<path id="XMLID_16_" class="st1" d="M58.2,20.6c0.5,0,0.9,0,1.4,0c0.2,1.7,0.4,3.5,0.6,5.2c0.2-1.7,0.5-3.5,0.7-5.2
			c0.4,0,0.8,0,1.1,0c0.3,1.7,0.5,3.5,0.8,5.2c0.2-1.7,0.4-3.5,0.6-5.2c0.4,0,0.8,0,1.2,0c-0.4,2.8-0.7,5.5-1.1,8.3
			c-0.4,0-0.9,0-1.3,0c-0.3-1.7-0.5-3.4-0.8-5.1c-0.3,1.7-0.5,3.4-0.8,5.1c-0.4,0-0.9,0-1.3,0C59,26.1,58.6,23.3,58.2,20.6z"/>
		<path id="XMLID_13_" class="st1" d="M66.1,20.6c0.5,0,1.1,0,1.6,0c0.5,2.8,1,5.5,1.6,8.3c-0.5,0-1,0-1.4,0c-0.1-0.5-0.2-1-0.3-1.5
			c-0.5,0-1,0-1.5,0c-0.1,0.5-0.2,1-0.2,1.5c-0.4,0-0.9,0-1.3,0C65.1,26.1,65.6,23.3,66.1,20.6 M66.9,23c-0.2,1.1-0.4,2.2-0.5,3.3
			c0.4,0,0.7,0,1.1,0C67.2,25.1,67.1,24,66.9,23z"/>
		<path id="XMLID_12_" class="st1" d="M69.1,20.6c1.2,0,2.5,0,3.7,0c0,0.4,0,0.8,0,1.1c-0.4,0-0.8,0-1.1,0c0,2.4,0,4.8,0,7.2
			c-0.5,0-0.9,0-1.4,0c0-2.4,0-4.8,0-7.2c-0.4,0-0.8,0-1.2,0C69.1,21.3,69.1,21,69.1,20.6z"/>
		<path id="XMLID_11_" class="st1" d="M73.4,20.6c1.1,0,2.2,0,3.3,0c0,0.4,0,0.8,0,1.1c-0.6,0-1.3,0-1.9,0c0,0.8,0,1.6,0,2.4
			c0.5,0,0.9,0,1.4,0c0,0.4,0,0.8,0,1.1c-0.5,0-0.9,0-1.4,0c0,0.8,0,1.7,0,2.5c0.6,0,1.3,0,1.9,0c0,0.4,0,0.8,0,1.1
			c-1.1,0-2.2,0-3.3,0C73.4,26.1,73.4,23.3,73.4,20.6z"/>
		<path id="XMLID_8_" class="st1" d="M77.5,20.6c0.8,0,1.6,0,2.4,0c0.6,0,1.3,0.4,1.5,1c0.2,0.8,0.1,1.6,0.1,2.4
			c0,0.6-0.5,1.1-1.1,1.2c0.4,1.2,0.9,2.5,1.3,3.7c-0.5,0-1,0-1.5,0c-0.4-1.3-0.9-2.5-1.3-3.8c0,1.3,0,2.5,0,3.8c-0.5,0-0.9,0-1.4,0
			C77.5,26.1,77.5,23.3,77.5,20.6 M78.9,21.7c0,0.9,0,1.7,0,2.6c0.4,0,1,0.1,1.1-0.4c0.1-0.6,0.1-1.2,0-1.8
			C79.9,21.6,79.3,21.7,78.9,21.7z"/>
		<path id="XMLID_7_" class="st1" d="M35.4,39.9c0.3-0.1,0.5,0.2,0.7,0.3c2.4,1.7,5.5,2.9,8.4,2.4c1.8-0.3,3.4-1.2,4.8-2.5
			c0.2-0.2,0.4-0.3,0.6-0.1c1.4,1.4,3.3,2.4,5.3,2.6c3,0.3,6-0.9,8.4-2.7c0.2-0.2,0.4,0.1,0.5,0.2c1.4,1.3,3.2,2.3,5.1,2.6
			c2.2,0.3,4.4-0.1,6.4-1.1c0.2-0.2,0.5,0.1,0.5,0.3c0,0.8,0.1,1.6,0,2.4c-1.6,1.5-3.8,2.4-5.9,2.2c-2.3-0.2-4.3-1.5-5.9-3
			c-0.2-0.3-0.5,0-0.7,0.2c-1.6,1.5-3.7,2.6-5.9,2.7c-2.9,0.1-5.6-1.1-7.8-2.9c-0.2-0.2-0.5,0.1-0.6,0.2c-2.3,1.8-5.2,3-8.1,2.6
			c-2.1-0.2-4-1.3-5.5-2.7c-0.3-0.3-0.6,0.1-0.8,0.3c-2.1,2-5.1,3.3-8,2.5c-1.2-0.3-2.4-1-3.4-1.8c-0.3-0.2-0.2-0.6-0.2-0.9
			c0-0.6,0-1.2,0-1.8c0.1-0.2,0.3-0.2,0.5-0.1c2.2,1.1,4.9,1.5,7.3,0.9C32.7,42,34.2,41,35.4,39.9z"/>
		<path id="XMLID_6_" class="st1" d="M35.5,48c0.3,0.1,0.6,0.4,0.9,0.5c2.3,1.6,5.2,2.6,8.1,2.2c1.9-0.3,3.6-1.2,4.9-2.5
			c0.2-0.2,0.5-0.1,0.7,0.1c1.6,1.5,3.6,2.5,5.8,2.5c2.7,0.1,5.3-1,7.5-2.5c0.2-0.1,0.5-0.5,0.7-0.2c1.3,1.3,3,2.3,4.8,2.6
			c2.3,0.5,4.8,0,6.9-1c0.2-0.2,0.5,0.1,0.4,0.4c0,0.8,0.1,1.5,0,2.3c-1.6,1.5-3.8,2.4-5.9,2.2c-2.3-0.2-4.3-1.5-5.9-3
			c-0.2-0.2-0.5,0-0.6,0.2c-1.6,1.5-3.7,2.6-5.9,2.7c-2.9,0.1-5.6-1.1-7.8-2.9c-0.2-0.2-0.4,0.1-0.6,0.2c-2.3,1.8-5.2,3-8.2,2.7
			c-2.1-0.2-4-1.3-5.5-2.7c-0.3-0.3-0.6,0.1-0.8,0.3c-2.1,1.9-5,3.3-7.9,2.6c-1.3-0.3-2.5-1-3.5-1.8c-0.1-0.1-0.2-0.2-0.2-0.4
			c0-0.7,0-1.5,0-2.2c0-0.2,0.3-0.3,0.5-0.2c2.3,1.1,4.9,1.5,7.4,0.8C32.7,50.1,34.2,49.1,35.5,48z"/>
		<path id="XMLID_3_" class="st1" d="M23.3,61c0.1-0.2,0.3-0.3,0.5-0.3c2.1,0.2,4.1,0.9,5.9,2.1c2.5,1.7,4.6,4,6,6.7
			c2.5-2,5.3-3.8,8.1-5.3c4-2.1,8.5-3.7,13.1-3.4c3.9,0.2,7.7,1.7,11,3.9c3.2,2.1,6.1,4.9,8.4,8c0.2,0.2,0.1,0.4-0.1,0.6
			c-2,2.6-4.3,4.9-6.9,6.8c-3.5,2.6-7.6,4.6-12,4.9c-3.8,0.3-7.6-0.7-11.1-2.3c-3.8-1.7-7.3-3.9-10.5-6.5c-1.3,2.4-3,4.5-5.2,6.1
			c-2,1.5-4.4,2.5-6.8,2.7c-0.3,0.1-0.5-0.2-0.3-0.5c1.9-3.3,3.5-6.9,3.7-10.8c0.2-3.8-1.1-7.6-2.9-10.9
			C23.9,62.1,23.5,61.6,23.3,61 M61.7,67.6c-1.7,0.2-3,1.9-2.8,3.6c0.1,1.7,1.9,3.1,3.6,2.9c1.8-0.2,3.2-2,2.9-3.7
			C65.2,68.6,63.4,67.3,61.7,67.6z"/>
	</g>
</g>
<g id="XMLID_36_">
	<g id="XMLID_37_">
		<rect id="XMLID_70_" x="100" class="st1" width="100" height="100"/>
		<path id="XMLID_69_" class="st0" d="M132.9,9c0.5,0,0.9,0,1.4,0c0,2.4,0,4.8,0,7.2c0.6,0,1.1,0,1.7,0c0,0.4,0,0.8,0,1.1
			c-1,0-2,0-3.1,0C132.9,14.5,132.9,11.7,132.9,9z"/>
		<path id="XMLID_68_" class="st0" d="M136.6,9c0.5,0,0.9,0,1.4,0c0,2.8,0,5.5,0,8.3c-0.5,0-0.9,0-1.4,0
			C136.6,14.5,136.6,11.7,136.6,9z"/>
		<path id="XMLID_67_" class="st0" d="M138.8,9c1.1,0,2.2,0,3.3,0c0,0.4,0,0.8,0,1.1c-0.6,0-1.2,0-1.9,0c0,0.8,0,1.6,0,2.4
			c0.5,0,0.9,0,1.4,0c0,0.4,0,0.8,0,1.1c-0.5,0-0.9,0-1.4,0c0,1.2,0,2.4,0,3.7c-0.5,0-0.9,0-1.4,0C138.8,14.5,138.8,11.7,138.8,9z"
			/>
		<path id="XMLID_66_" class="st0" d="M142.7,9c1.1,0,2.2,0,3.3,0c0,0.4,0,0.8,0,1.1c-0.6,0-1.3,0-1.9,0c0,0.8,0,1.6,0,2.4
			c0.5,0,0.9,0,1.4,0c0,0.4,0,0.8,0,1.1c-0.5,0-0.9,0-1.4,0c0,0.8,0,1.7,0,2.5c0.6,0,1.3,0,1.9,0c0,0.4,0,0.8,0,1.1
			c-1.1,0-2.2,0-3.3,0C142.7,14.5,142.7,11.7,142.7,9z"/>
		<path id="XMLID_65_" class="st0" d="M108.2,12.3c0.9-1.1,1.8-2.1,2.7-3.2c0.9,0,1.8,0,2.7,0c0,6.6,0,13.2,0,19.9
			c-1.1,0-2.2,0-3.3,0c0-5.1,0-10.1,0-15.2c-0.8,0.8-1.6,1.7-2.4,2.5c0-1.1,0-2.2,0-3.3C107.9,12.6,108.1,12.4,108.2,12.3z"/>
		<path id="XMLID_62_" class="st0" d="M115.5,23.1c1.9-4.7,3.7-9.4,5.6-14.1c1.1,0,2.2,0,3.3,0c0,4.7,0,9.3,0,14c0.4,0,0.9,0,1.3,0
			c0,0.9,0,1.7,0,2.6c-0.4,0-0.9,0-1.3,0c0,1.1,0,2.1,0,3.2c-1.1,0-2.1,0-3.2,0c0-1.1,0-2.1,0-3.2c-2,0-3.9,0-5.9,0
			C115.3,24.8,115.1,23.9,115.5,23.1 M118.2,23.1c1,0,2,0,3,0c0-2.7,0-5.4,0-8.2C120.2,17.6,119.2,20.4,118.2,23.1z"/>
		<path id="XMLID_59_" class="st0" d="M146.9,20.5c0.7-0.1,1.6-0.1,2.2,0.5c0.5,0.5,0.5,1.2,0.5,1.8c0,1.2,0,2.4,0,3.6
			c0,0.6-0.1,1.4-0.6,1.8c-1.1,1.1-3.4,0.7-3.6-1c-0.2-1.6,0-3.2-0.1-4.8C145.4,21.7,145.9,20.7,146.9,20.5 M147.3,21.7
			c-0.5,0.1-0.5,0.7-0.5,1.1c0,1.5,0,3,0,4.4c0,0.8,1.3,0.8,1.4,0c0.1-1.6,0-3.2,0-4.8C148.3,21.9,147.8,21.5,147.3,21.7z"/>
		<path id="XMLID_55_" class="st0" d="M132.9,20.6c1.1,0.1,2.2-0.2,3.2,0.2c0.9,0.5,0.7,1.7,0.7,2.5c0,0.5-0.3,1-0.7,1.3
			c0.6,0.2,1,0.7,0.9,1.3c0,0.9,0.2,2.3-0.8,2.8c-1,0.4-2.2,0.1-3.3,0.2C132.9,26.1,132.9,23.3,132.9,20.6 M134.3,21.7
			c0,0.8,0,1.6,0,2.4c0.3-0.1,0.8,0.1,1.1-0.3c0.1-0.5,0.1-1.1,0-1.7C135.3,21.6,134.7,21.8,134.3,21.7 M134.3,25.1
			c0,0.9,0,1.7,0,2.6c0.4-0.1,0.9,0.1,1.2-0.3c0.1-0.6,0.1-1.3,0-1.9C135.4,25,134.7,25.2,134.3,25.1z"/>
		<path id="XMLID_54_" class="st0" d="M137.7,20.6c1.1,0,2.2,0,3.3,0c0,0.4,0,0.8,0,1.2c-0.6,0-1.3,0-1.9,0c0,0.8,0,1.6,0,2.4
			c0.5,0,0.9,0,1.4,0c0,0.4,0,0.8,0,1.1c-0.5,0-0.9,0-1.4,0c0,0.8,0,1.7,0,2.5c0.6,0,1.3,0,1.9,0c0,0.4,0,0.8,0,1.2
			c-1.1,0-2.2,0-3.3,0C137.7,26.1,137.7,23.3,137.7,20.6z"/>
		<path id="XMLID_53_" class="st0" d="M141.8,20.6c0.5,0,0.9,0,1.4,0c0,2.4,0,4.8,0,7.2c0.6,0,1.1,0,1.7,0c0,0.4,0,0.8,0,1.2
			c-1,0-2,0-3.1,0C141.8,26.1,141.8,23.3,141.8,20.6z"/>
		<path id="XMLID_52_" class="st0" d="M150.1,20.6c0.5,0,0.9,0,1.4,0c0.2,1.7,0.4,3.4,0.6,5.2c0.3-1.7,0.5-3.4,0.7-5.2
			c0.4,0,0.8,0,1.2,0c0.3,1.7,0.5,3.5,0.8,5.2c0.2-1.7,0.4-3.5,0.6-5.2c0.4,0,0.8,0,1.2,0c-0.4,2.8-0.7,5.5-1.1,8.3
			c-0.4,0-0.9,0-1.3,0c-0.3-1.7-0.5-3.4-0.8-5.1c-0.3,1.7-0.5,3.4-0.8,5.1c-0.4,0-0.9,0-1.3,0C150.9,26.1,150.5,23.3,150.1,20.6z"/>
		<path id="XMLID_51_" class="st0" d="M158.2,20.6c0.5,0,0.9,0,1.4,0c0.2,1.7,0.4,3.4,0.6,5.2c0.3-1.7,0.5-3.4,0.7-5.2
			c0.4,0,0.8,0,1.1,0c0.3,1.7,0.5,3.5,0.8,5.2c0.2-1.7,0.4-3.5,0.6-5.2c0.4,0,0.8,0,1.2,0c-0.4,2.8-0.7,5.5-1.1,8.3
			c-0.4,0-0.9,0-1.3,0c-0.3-1.7-0.5-3.3-0.8-5c-0.3,1.7-0.5,3.3-0.8,5c-0.4,0-0.9,0-1.3,0C159,26.1,158.6,23.3,158.2,20.6z"/>
		<path id="XMLID_48_" class="st0" d="M166.1,20.6c0.5,0,1.1,0,1.6,0c0.5,2.8,1.1,5.5,1.6,8.3c-0.5,0-1,0-1.4,0
			c-0.1-0.5-0.2-1-0.3-1.5c-0.5,0-1,0-1.5,0c-0.1,0.5-0.2,1-0.2,1.5c-0.4,0-0.9,0-1.3,0C165.1,26.1,165.6,23.3,166.1,20.6 M166.9,23
			c-0.2,1.1-0.4,2.2-0.5,3.3c0.4,0,0.7,0,1.1,0C167.2,25.2,167.1,24.1,166.9,23z"/>
		<path id="XMLID_47_" class="st0" d="M169.1,20.6c1.2,0,2.5,0,3.7,0c0,0.4,0,0.8,0,1.2c-0.4,0-0.8,0-1.2,0c0,2.4,0,4.8,0,7.2
			c-0.5,0-0.9,0-1.4,0c0-2.4,0-4.8,0-7.2c-0.4,0-0.8,0-1.2,0C169.1,21.3,169.1,21,169.1,20.6z"/>
		<path id="XMLID_46_" class="st0" d="M173.4,20.6c1.1,0,2.2,0,3.4,0c0,0.4,0,0.8,0,1.2c-0.6,0-1.3,0-1.9,0c0,0.8,0,1.6,0,2.4
			c0.5,0,0.9,0,1.4,0c0,0.4,0,0.8,0,1.1c-0.5,0-0.9,0-1.4,0c0,0.8,0,1.7,0,2.5c0.6,0,1.3,0,1.9,0c0,0.4,0,0.8,0,1.2
			c-1.1,0-2.2,0-3.4,0C173.4,26.1,173.4,23.3,173.4,20.6z"/>
		<path id="XMLID_43_" class="st0" d="M177.5,20.6c1.1,0.1,2.2-0.2,3.2,0.3c1,0.6,0.7,1.9,0.7,2.9c0,0.7-0.5,1.2-1.1,1.5
			c0.4,1.2,0.9,2.5,1.3,3.7c-0.5,0-1,0-1.5,0c-0.4-1.3-0.9-2.5-1.3-3.8c0,1.3,0,2.5,0,3.8c-0.5,0-0.9,0-1.4,0
			C177.5,26.1,177.5,23.3,177.5,20.6 M178.9,21.7c0,0.9,0,1.7,0,2.6c0.4-0.1,1,0,1.1-0.4c0.1-0.6,0.1-1.2,0-1.8
			C179.9,21.6,179.3,21.8,178.9,21.7z"/>
		<path id="XMLID_42_" class="st0" d="M132.4,41.9c1.2-0.5,2.1-1.3,3.1-2.1c2.4,1.8,5.3,3.1,8.3,2.8c2-0.2,3.8-1.1,5.2-2.4
			c0.2-0.2,0.5-0.5,0.8-0.2c1.4,1.3,3.2,2.3,5.2,2.5c2.9,0.4,5.8-0.7,8.1-2.4c0.3-0.2,0.6-0.5,0.9-0.2c1.5,1.5,3.5,2.5,5.6,2.7
			c2.1,0.2,4.3-0.3,6.2-1.3c0.5,0.8,0.1,1.9,0.2,2.8c-1.6,1.4-3.7,2.4-5.9,2.2c-2.4-0.2-4.5-1.6-6.2-3.2c-1.6,1.5-3.6,2.8-5.9,3
			c-3.1,0.3-6.1-1.1-8.5-3c-2,1.6-4.3,2.8-6.9,3c-2.8,0.3-5.5-1.1-7.4-3c-1.7,1.6-3.9,3-6.4,3.2c-2.1,0.2-4.2-0.8-5.7-2.2
			c0.1-0.9-0.2-1.9,0.2-2.8C126.1,42.9,129.6,43.3,132.4,41.9z"/>
		<path id="XMLID_41_" class="st0" d="M131.1,50.6c1.7-0.5,3.1-1.5,4.4-2.6c2.3,1.8,5.2,3.1,8.2,2.8c2-0.1,3.9-1.1,5.4-2.4
			c0.2-0.2,0.5-0.5,0.8-0.2c1.4,1.3,3,2.2,4.9,2.5c3.2,0.5,6.4-0.8,8.9-2.8c1.6,1.5,3.6,2.7,5.9,2.9c2.2,0.3,4.3-0.3,6.2-1.3
			c0.5,0.8,0.1,1.9,0.2,2.8c-1.5,1.4-3.4,2.3-5.5,2.2c-2.4-0.1-4.7-1.4-6.4-3c-0.2-0.3-0.5,0-0.6,0.1c-1.3,1.2-3,2.2-4.8,2.5
			c-3.3,0.7-6.7-0.8-9.2-2.9c-2.3,1.9-5.3,3.3-8.4,3c-2-0.2-3.9-1.2-5.4-2.6c-0.2-0.2-0.5-0.5-0.7-0.2c-1.7,1.6-4,2.9-6.4,3
			c-2,0.1-4-0.9-5.5-2.2c0.1-0.9-0.2-1.9,0.2-2.8C125.8,50.8,128.6,51.3,131.1,50.6z"/>
		<path id="XMLID_38_" class="st0" d="M146.6,62.9c4.2-1.8,8.9-2.8,13.4-1.7c6.7,1.6,12.4,6.2,16.5,11.6c-0.7,1-1.5,1.9-2.3,2.8
			c-3.9,4.1-8.7,7.6-14.3,8.9c-3.2,0.7-6.5,0.5-9.6-0.4c-5.3-1.6-10.2-4.5-14.5-8c-2.4,4.5-6.8,8.4-12,8.8c-0.5,0.1-0.4-0.5-0.2-0.8
			c2-3.4,3.5-7.2,3.6-11.2c0-4.3-1.8-8.3-3.9-12c0.6-0.3,1.3-0.1,1.9,0c4.7,0.9,8.4,4.5,10.6,8.6C139.1,66.9,142.7,64.6,146.6,62.9
			 M161.5,67.6c-1.3,0.2-2.4,1.3-2.6,2.6c-0.3,1.3,0.4,2.7,1.5,3.3c1.1,0.7,2.7,0.7,3.7-0.1c1.2-0.8,1.6-2.5,1.1-3.9
			C164.6,68.2,163,67.3,161.5,67.6z"/>
	</g>
</g>
</svg>
