<?xml version="1.0" encoding="utf-8"?>
<!-- Generator: Adobe Illustrator 19.0.0, SVG Export Plug-In . SVG Version: 6.00 Build 0)  -->
<svg version="1.1" id="Layer_1" xmlns="http://www.w3.org/2000/svg" xmlns:xlink="http://www.w3.org/1999/xlink" x="0px" y="0px"
	 viewBox="312 247 300 300" style="enable-background:new 312 247 300 300;" xml:space="preserve">
<style type="text/css">
	.st0{fill:#3EB049;}
	.st1{fill:#FFFFFF;}
</style>
<rect x="312" y="247" class="st0" width="300" height="300"/>
<path class="st1" d="M345.3,274.2c2.6-0.2,5.3,0,7.9,0c0,19.9,0,39.7,0,59.6c-3.3,0-6.7,0-10.1,0c0-15.2,0-30.4,0-45.6
	c-2.4,2.5-4.8,5-7.2,7.4c0-3.3,0-6.5,0-9.8c-0.1-1.1,1-1.8,1.5-2.6C340.2,280.2,342.5,276.9,345.3,274.2z"/>
<path class="st1" d="M359.4,274.1c8.8,0,17.6,0,26.4,0c0,2.7,0,5.5,0,8.2c-5.7,0-11.4,0-17.2,0c0,4.9,0,9.8,0,14.6
	c2.8-4.1,8.9-5,13.2-2.9c3.8,2.1,5.4,6.6,5.5,10.8c0.1,5.5,0,10.9,0,16.4c0,3.6-1.1,7.5-3.9,10c-3.1,2.7-7.6,3.3-11.6,3.1
	c-3.6-0.1-7.4-1.3-9.7-4.2c-3.8-5-2.7-11.6-2.9-17.4c3.1,0,6.1,0,9.2,0c0.2,3.4-0.4,6.9,0.4,10.3c0.7,2.9,4.7,3.8,6.9,2.1
	c1.3-1.1,1.5-3,1.5-4.6c0-4.3,0-8.6,0-12.9c0-1.6,0-3.3-0.7-4.7c-1.4-2.6-5.7-2.6-7.1-0.1c-0.9,1.5-0.8,3.3-0.8,4.9
	c-3,0-6.1,0-9.1,0C359.4,296.5,359.4,285.3,359.4,274.1z"/>
<path class="st1" d="M408.7,273.9c1.4,0,2.8,0,4.2,0c0,7.2,0,14.3,0,21.5c1.7,0,3.3,0,5,0c0,1.2,0,2.3,0,3.5c-3.1,0-6.1,0-9.2,0
	C408.7,290.5,408.7,282.2,408.7,273.9z"/>
<path class="st1" d="M419.8,273.9c1.4,0,2.8,0,4.2,0c0,8.3,0,16.6,0,24.9c-1.4,0-2.8,0-4.2,0C419.8,290.5,419.8,282.2,419.8,273.9z"
	/>
<path class="st1" d="M426.4,273.9c3.3,0,6.6,0,9.9,0c0,1.2,0,2.3,0,3.5c-1.9,0-3.7,0-5.6,0c0,2.4,0,4.7,0,7.1c1.4,0,2.8,0,4.2,0
	c0,1.1,0,2.3,0,3.4c-1.4,0-2.8,0-4.2,0c0,3.7,0,7.3,0,11c-1.4,0-2.8,0-4.2,0C426.3,290.5,426.4,282.2,426.4,273.9z"/>
<path class="st1" d="M438,273.9c3.4,0,6.7,0,10.1,0c0,1.2,0,2.3,0,3.5c-1.9,0-3.9,0-5.8,0c0,2.4,0,4.7,0,7.1c1.4,0,2.8,0,4.1,0
	c0,1.1,0,2.3,0,3.4c-1.4,0-2.8,0-4.1,0c0,2.5,0,5,0,7.5c1.9,0,3.9,0,5.8,0c0,1.2,0,2.3,0,3.5c-3.3,0-6.7,0-10,0
	C438,290.5,438,282.2,438,273.9z"/>
<path class="st1" d="M413.7,308.5c3.5-0.8,7.5,1.5,7.6,5.3c0.1,5.2,0.3,10.3-0.1,15.5c-0.8,6-11,6.3-12.2,0.4
	c-0.7-4.9-0.2-9.8-0.3-14.7C408.5,312,410.5,308.8,413.7,308.5 M414.5,312c-1.3,0.2-1.6,1.8-1.6,2.9c0.1,4.5-0.1,9.1,0.1,13.6
	c0,2.4,4,2.4,4.1,0.1c0.2-4.7,0.1-9.4,0.1-14.1C417.4,313.1,416.1,311.6,414.5,312z"/>
<path class="st1" d="M423.7,308.7c1.4,0,2.8,0,4.2,0c1.5,4.6,2.8,9.2,4.4,13.8c0.1-4.6,0-9.2,0.1-13.8c1.2,0,2.3,0,3.5,0
	c0,8.3,0,16.6,0,24.9c-1.2,0-2.5,0-3.7,0c-1.6-5.1-3.2-10.2-4.8-15.3c-0.1,5.1,0,10.2,0,15.3c-1.2,0-2.4,0-3.6,0
	C423.7,325.4,423.7,317,423.7,308.7z"/>
<path class="st1" d="M445.9,308.7c1.4,0,2.8,0,4.2,0c0,7.2,0,14.3,0,21.5c1.7,0,3.3,0,5,0c0,1.2,0,2.3,0,3.5c-3.1,0-6.1,0-9.2,0
	C445.9,325.3,445.9,317,445.9,308.7z"/>
<path class="st1" d="M461,308.7c1.6,0,3.2,0,4.8,0c1.6,8.3,3.2,16.6,4.7,24.9c-1.4,0-2.9,0-4.3,0c-0.3-1.5-0.5-3-0.8-4.5
	c-1.5,0-2.9,0-4.4,0c-0.2,1.5-0.5,3-0.7,4.5c-1.3,0-2.7,0-4,0C457.9,325.3,459.5,317,461,308.7 M461.7,325.7c1.1,0,2.2,0,3.3,0
	c-0.5-3.2-1-6.5-1.6-9.7C462.7,319.2,462.2,322.5,461.7,325.7z"/>
<path class="st1" d="M472.3,308.7c1.4,0,2.8,0,4.2,0c1.5,4.7,3,9.4,4.5,14.1c0-4.7,0-9.4,0-14.1c1.2,0,2.3,0,3.5,0
	c0,8.3,0,16.6,0,24.9c-1.2,0-2.5,0-3.7,0c-1.7-5.1-3.2-10.3-4.9-15.4c0,5.1,0,10.3,0,15.4c-1.2,0-2.4,0-3.6,0
	C472.3,325.4,472.3,317,472.3,308.7z"/>
<path class="st1" d="M486.8,308.7c3,0.1,6-0.3,8.9,0.3c2.5,0.7,3.7,3.5,3.6,5.9c0,4.3,0,8.6,0,12.9c0,2.4-1.5,5.1-4,5.6
	c-2.8,0.5-5.7,0.1-8.5,0.2C486.8,325.3,486.8,317,486.8,308.7 M491,312.2c0,6,0,12,0,18.1c1.6,0.1,4,0.1,4-2c0.1-4.7,0.2-9.5,0-14.3
	C494.8,312,492.5,312.1,491,312.2z"/>
<path class="st1" d="M425,367.4c7.7-2.2,16.5,0.5,21.6,6.6c5.4,6.1,6.5,15.5,3,22.8c6.3,1.5,11.9,5.5,15.1,11.1
	c3.9,6.5,4.3,14.9,1.1,21.8c-3.6,8.1-12.1,13.6-21,13.6c-10.7,0-21.4-0.1-32-0.2c-6.9,0-13.5-4.9-15.5-11.5
	c-1.9-5.7-0.4-12.2,3.6-16.6c-6.1-3.5-9.2-11.2-7.1-18c1.9-6.8,8.8-11.5,15.9-11.1C410.3,377.4,416.7,369.6,425,367.4z"/>
<path class="st1" d="M496.7,367.7c5.1-2.5,11.2-0.1,14.3,4.3c5.2-2.1,11.9-0.6,14.7,4.6c1,1.1-0.2,3.4-1.6,2.5
	c-3.6-3.5-9.3-3.2-13.6-1.1c-1.1,0.7-2.1-0.2-2.6-1.1c-2.4-4-7.2-6.9-11.9-6C494.4,370.2,495.3,367.9,496.7,367.7z"/>
<path class="st1" d="M485.8,387.6c5.2-4.8,13.7-6.1,19.3-1.3c1.5,0.6,1.5,3.6-0.4,3.2c-5.9-2.6-12.8,0.1-17,4.6c-0.7,1-2.1,1-3,0.1
	c-4.8-3.9-12.1-5.7-17.6-2.3c-2.1-0.1-1.6-3-0.1-3.7C471.9,383.2,480.2,383.6,485.8,387.6z"/>
<path class="st1" d="M481,425.4c3.1-3.1,7.5-5.1,11.9-4.9c4.4,0.1,8.5,2,12,4.6c3.4-2.5,7.5-4.5,11.8-4.6c4.5-0.2,9,1.8,12.2,5
	c1.1,0.9,0.5,3.4-1.2,2.8c-6.4-3.5-14.5-1.1-19.9,3.2c-1.2,1-2.8,2.9-4.3,1.3c-5.6-5.3-14.5-8.3-21.6-4.5
	C480.4,428.5,480.2,426.3,481,425.4z"/>
<path class="st1" d="M427.3,449c3.3-0.1,6.6-0.2,9.9,0c0.1,7.3,0.1,14.5,0,21.8c0.2,0.7-0.4,1-1.1,1c-3,0-5.9,0.1-8.9-0.1
	C427.3,464.2,427.2,456.6,427.3,449z"/>
<path class="st1" d="M388.2,481.1c48.2-0.1,96.4-0.1,144.5,0c0.1,3.3,0.1,6.7,0,10c-48.2,0.1-96.4,0.1-144.5,0
	C388.1,487.7,388,484.4,388.2,481.1z"/>
<path class="st1" d="M388.2,498.5c48.2-0.1,96.4-0.1,144.6,0c0.1,3.3,0,6.6,0,9.9c-1.1,0.1-2.2,0.1-3.3,0.1
	c-47.1-0.1-94.3,0.1-141.4-0.1C388.1,505.1,388,501.8,388.2,498.5z"/>
</svg>
