<?xml version="1.0" encoding="utf-8"?>
<!-- Generator: Adobe Illustrator 19.0.0, SVG Export Plug-In . SVG Version: 6.00 Build 0)  -->
<svg version="1.1" id="Layer_1" xmlns="http://www.w3.org/2000/svg" xmlns:xlink="http://www.w3.org/1999/xlink" x="0px" y="0px"
	 viewBox="0 0 200 100" style="enable-background:new 0 0 200 100;" xml:space="preserve">
<style type="text/css">
	.st0{fill:#FFFFFF;}
	.st1{fill:#3EB049;}
</style>
<g id="XMLID_1_">
	<g id="XMLID_2_">
		<rect id="XMLID_28_" class="st0" width="100" height="100"/>
		<path id="XMLID_27_" class="st1" d="M11.1,9c0.9,0,1.8,0,2.7,0c0,6.6,0,13.2,0,19.8c-1.1,0-2.2,0-3.3,0c0-5.1,0-10.1,0-15.2
			c-0.8,0.8-1.6,1.7-2.4,2.5c0-1,0-2,0-3.1c0-0.2,0-0.5,0.2-0.6C9.1,11.3,10.1,10.2,11.1,9z"/>
		<path id="XMLID_26_" class="st1" d="M32.2,9c0.5,0,0.9,0,1.4,0c0,2.4,0,4.8,0,7.1c0.6,0,1.1,0,1.7,0c0,0.4,0,0.8,0,1.1
			c-1,0-2,0-3.1,0C32.2,14.5,32.2,11.7,32.2,9z"/>
		<path id="XMLID_25_" class="st1" d="M35.9,9c0.5,0,0.9,0,1.4,0c0,2.8,0,5.5,0,8.3c-0.5,0-0.9,0-1.4,0C35.9,14.5,35.9,11.7,35.9,9z
			"/>
		<path id="XMLID_24_" class="st1" d="M38.1,9c1.1,0,2.2,0,3.3,0c0,0.4,0,0.8,0,1.1c-0.6,0-1.2,0-1.9,0c0,0.8,0,1.6,0,2.4
			c0.5,0,0.9,0,1.4,0c0,0.4,0,0.8,0,1.1c-0.5,0-0.9,0-1.4,0c0,1.2,0,2.4,0,3.7c-0.5,0-0.9,0-1.4,0C38.1,14.5,38.1,11.7,38.1,9z"/>
		<path id="XMLID_23_" class="st1" d="M42,9c1.1,0,2.2,0,3.3,0c0,0.4,0,0.8,0,1.1c-0.6,0-1.3,0-1.9,0c0,0.8,0,1.6,0,2.4
			c0.5,0,0.9,0,1.4,0c0,0.4,0,0.8,0,1.1c-0.5,0-0.9,0-1.4,0c0,0.8,0,1.7,0,2.5c0.6,0,1.3,0,1.9,0c0,0.4,0,0.8,0,1.1
			c-1.1,0-2.2,0-3.3,0C42,14.5,42,11.7,42,9z"/>
		<path id="XMLID_22_" class="st1" d="M15.8,9c2.9,0,5.9,0,8.8,0c0,0.9,0,1.8,0,2.7c-1.9,0-3.8,0-5.7,0c0,1.6,0,3.3,0,4.9
			c1.2-1.8,4.2-1.9,5.4-0.1c0.6,0.9,0.8,1.9,0.8,3c0,1.7,0,3.3,0,5c0,1.2-0.3,2.5-1.2,3.4c-1,0.9-2.4,1.2-3.7,1.1
			c-1.4,0-2.9-0.5-3.7-1.7c-1-1.6-0.7-3.6-0.7-5.5c1,0,2,0,3.1,0c0,0.9,0,1.8,0,2.7c0,0.6,0.2,1.3,0.8,1.5c0.5,0.2,1.2,0.3,1.6-0.1
			c0.5-0.4,0.5-1,0.5-1.6c0-1.6,0-3.2,0-4.8c0-0.6-0.1-1.2-0.6-1.6c-0.6-0.4-1.6-0.3-2,0.4c-0.3,0.5-0.3,1.1-0.3,1.7c-1,0-2,0-3,0
			C15.8,16.5,15.8,12.8,15.8,9z"/>
		<path id="XMLID_19_" class="st1" d="M33.7,20.5c0.7-0.1,1.5-0.1,2.1,0.4c0.5,0.4,0.7,1.2,0.7,1.8c0,1.4,0,2.7,0,4.1
			c0,0.7-0.3,1.5-1,1.9c-0.7,0.3-1.6,0.3-2.3,0c-0.7-0.4-1-1.2-1-2c0-1.4,0-2.9,0-4.3C32.3,21.6,32.8,20.7,33.7,20.5 M34,21.7
			c-0.4,0.2-0.4,0.6-0.4,0.9c0,1.5,0,2.9,0,4.4c-0.1,1,1.5,1,1.4,0c0-1.6,0-3.1,0-4.7C35.1,21.8,34.5,21.5,34,21.7z"/>
		<path id="XMLID_18_" class="st1" d="M37.2,20.6c0.5,0,0.9,0,1.4,0c0.5,1.6,1,3.1,1.5,4.7c0-1.6,0-3.1,0-4.7c0.4,0,0.8,0,1.2,0
			c0,2.8,0,5.5,0,8.3c-0.4,0-0.8,0-1.2,0c-0.5-1.7-1.1-3.5-1.6-5.2c0,1.7,0,3.4,0,5.2c-0.4,0-0.8,0-1.2,0
			C37.2,26.1,37.2,23.3,37.2,20.6z"/>
		<path id="XMLID_17_" class="st1" d="M44.6,20.6c0.5,0,0.9,0,1.4,0c0,2.4,0,4.8,0,7.2c0.6,0,1.1,0,1.7,0c0,0.4,0,0.8,0,1.1
			c-1,0-2,0-3.1,0C44.6,26.1,44.6,23.3,44.6,20.6z"/>
		<path id="XMLID_14_" class="st1" d="M49.7,20.6c0.5,0,1.1,0,1.6,0c0.5,2.8,1.1,5.5,1.6,8.3c-0.5,0-1,0-1.4,0
			c-0.1-0.5-0.2-1-0.3-1.5c-0.5,0-1,0-1.5,0c-0.1,0.5-0.2,1-0.2,1.5c-0.4,0-0.9,0-1.3,0C48.6,26.1,49.2,23.3,49.7,20.6 M49.9,26.2
			c0.4,0,0.7,0,1.1,0c-0.2-1.1-0.4-2.2-0.5-3.3C50.2,24,50.1,25.1,49.9,26.2z"/>
		<path id="XMLID_13_" class="st1" d="M53.4,20.6c0.5,0,0.9,0,1.4,0c0.5,1.6,1,3.1,1.5,4.7c0-1.6,0-3.1,0-4.7c0.4,0,0.8,0,1.2,0
			c0,2.8,0,5.5,0,8.3c-0.4,0-0.8,0-1.2,0c-0.5-1.7-1.1-3.4-1.6-5.2c0,1.7,0,3.4,0,5.2c-0.4,0-0.8,0-1.2,0
			C53.4,26.1,53.4,23.3,53.4,20.6z"/>
		<path id="XMLID_10_" class="st1" d="M58.3,20.6c0.9,0,1.8-0.1,2.8,0.1c0.9,0.1,1.4,1,1.4,1.8c0,1.4,0,2.8,0,4.2
			c0,0.7-0.2,1.5-0.8,1.9c-1,0.5-2.2,0.2-3.3,0.3C58.3,26.1,58.3,23.3,58.3,20.6 M59.7,21.7c0,2,0,4,0,6c0.5,0,1.3,0.1,1.3-0.6
			c0.1-1.4,0-2.8,0-4.2c0-0.4,0-0.8-0.3-1.1C60.4,21.7,60,21.7,59.7,21.7z"/>
		<path id="XMLID_9_" class="st1" d="M32.6,46.4c0.2-3.2,2.9-6.1,6.1-6.4c3-0.4,6.2,1.4,7.4,4.3c0.8,1.8,0.7,4-0.2,5.7
			c2.7,0.6,5.1,2.8,5.8,5.5c0.6,2.2,0.2,4.7-1.1,6.6c-1.4,2-3.8,3.3-6.3,3.3c-3.5,0-7.1,0-10.6-0.1c-2.1,0-4-1.3-4.9-3.1
			c-1-2-0.6-4.6,0.9-6.2c-2-1.1-3.1-3.6-2.4-5.9C27.8,47.9,30.2,46.2,32.6,46.4z"/>
		<path id="XMLID_8_" class="st1" d="M61.3,40.4c0.9-0.5,2.1-0.6,3-0.2c0.8,0.3,1.5,0.9,2,1.6c0.9-0.3,1.8-0.4,2.7-0.2
			c1,0.2,1.8,1,2.3,1.8c0.2,0.3-0.2,0.9-0.6,0.7c-1.2-1.2-3.1-1.1-4.5-0.4c-0.3,0.2-0.7,0.1-0.9-0.2c-0.8-1.4-2.4-2.4-4-2.1
			C60.9,41.3,61,40.5,61.3,40.4z"/>
		<path id="XMLID_7_" class="st1" d="M60.7,45.5c1.4-0.3,2.8,0.2,3.8,1.1c0.3,0.3,0.2,1-0.3,0.9c-1.9-0.9-4.2,0-5.6,1.4
			c-0.2,0.3-0.7,0.5-1,0.2c-1.6-1.3-4-2-5.9-0.8c-0.5,0.1-0.7-0.6-0.4-0.9c0.8-0.9,1.9-1.5,3.1-1.5c1.2-0.1,2.4,0.4,3.4,1
			C58.7,46.2,59.7,45.7,60.7,45.5z"/>
		<path id="XMLID_6_" class="st1" d="M56.3,59.5c1-1,2.5-1.7,4-1.7c1.5,0,2.9,0.7,4,1.5c1.2-0.9,2.6-1.6,4.2-1.5
			c1.5,0,2.8,0.7,3.9,1.7c0.3,0.3,0.2,1-0.3,0.9c-2.4-1.3-5.4-0.3-7.2,1.5c-0.3,0.4-0.8,0.2-1.1-0.1c-1.8-1.7-4.8-2.6-7.1-1.4
			C56.1,60.5,56.1,59.8,56.3,59.5z"/>
		<path id="XMLID_5_" class="st1" d="M38.4,67.7c0-0.2,0.1-0.4,0.3-0.3c1,0,1.9,0,2.9,0c0.3,0,0.2,0.4,0.2,0.5
			c0,2.4,0.1,4.7-0.1,7.1c-1.1,0-2.2,0.1-3.3,0C38.4,72.5,38.4,70.1,38.4,67.7z"/>
		<path id="XMLID_4_" class="st1" d="M25.4,78.2c0-0.2,0.2-0.2,0.4-0.2c15.9,0,31.9,0,47.8,0c0.1,1.1,0.1,2.2,0,3.4
			c-15.9,0-31.9,0-47.8,0c-0.2,0-0.4,0-0.4-0.2C25.4,80.2,25.4,79.2,25.4,78.2z"/>
		<path id="XMLID_3_" class="st1" d="M25.4,83.9c0.4-0.1,0.8-0.1,1.3-0.1c15,0,30.1,0,45.1,0c0.6,0,1.2,0,1.8,0c0,1.1,0.1,2.2,0,3.3
			c-0.8,0-1.6,0-2.4,0c-15.3,0-30.5,0-45.8,0C25.3,86.1,25.4,85,25.4,83.9z"/>
	</g>
</g>
<g id="XMLID_29_">
	<rect id="XMLID_55_" x="100" y="0" class="st1" width="100" height="100"/>
	<path id="XMLID_54_" class="st0" d="M111.1,9.1c0.9-0.1,1.8,0,2.6,0c0,6.6,0,13.2,0,19.9c-1.1,0-2.2,0-3.4,0c0-5.1,0-10.1,0-15.2
		c-0.8,0.8-1.6,1.7-2.4,2.5c0-1.1,0-2.2,0-3.3c0-0.4,0.3-0.6,0.5-0.9C109.4,11.1,110.2,10,111.1,9.1z"/>
	<path id="XMLID_53_" class="st0" d="M115.8,9c2.9,0,5.9,0,8.8,0c0,0.9,0,1.8,0,2.7c-1.9,0-3.8,0-5.7,0c0,1.6,0,3.3,0,4.9
		c0.9-1.4,3-1.7,4.4-1c1.3,0.7,1.8,2.2,1.8,3.6c0,1.8,0,3.6,0,5.5c0,1.2-0.4,2.5-1.3,3.3c-1,0.9-2.5,1.1-3.9,1
		c-1.2,0-2.5-0.4-3.2-1.4c-1.3-1.7-0.9-3.9-1-5.8c1,0,2,0,3.1,0c0.1,1.1-0.1,2.3,0.1,3.4c0.2,1,1.6,1.3,2.3,0.7
		c0.4-0.4,0.5-1,0.5-1.5c0-1.4,0-2.9,0-4.3c0-0.5,0-1.1-0.2-1.6c-0.5-0.9-1.9-0.9-2.4,0c-0.3,0.5-0.3,1.1-0.3,1.6c-1,0-2,0-3,0
		C115.8,16.5,115.8,12.8,115.8,9z"/>
	<path id="XMLID_52_" class="st0" d="M132.2,9c0.5,0,0.9,0,1.4,0c0,2.4,0,4.8,0,7.2c0.6,0,1.1,0,1.7,0c0,0.4,0,0.8,0,1.2
		c-1,0-2,0-3.1,0C132.2,14.5,132.2,11.7,132.2,9z"/>
	<path id="XMLID_51_" class="st0" d="M135.9,9c0.5,0,0.9,0,1.4,0c0,2.8,0,5.5,0,8.3c-0.5,0-0.9,0-1.4,0
		C135.9,14.5,135.9,11.7,135.9,9z"/>
	<path id="XMLID_50_" class="st0" d="M138.1,9c1.1,0,2.2,0,3.3,0c0,0.4,0,0.8,0,1.2c-0.6,0-1.2,0-1.9,0c0,0.8,0,1.6,0,2.4
		c0.5,0,0.9,0,1.4,0c0,0.4,0,0.8,0,1.1c-0.5,0-0.9,0-1.4,0c0,1.2,0,2.4,0,3.7c-0.5,0-0.9,0-1.4,0C138.1,14.5,138.1,11.7,138.1,9z"/>
	<path id="XMLID_49_" class="st0" d="M142,9c1.1,0,2.2,0,3.4,0c0,0.4,0,0.8,0,1.2c-0.6,0-1.3,0-1.9,0c0,0.8,0,1.6,0,2.4
		c0.5,0,0.9,0,1.4,0c0,0.4,0,0.8,0,1.1c-0.5,0-0.9,0-1.4,0c0,0.8,0,1.7,0,2.5c0.6,0,1.3,0,1.9,0c0,0.4,0,0.8,0,1.2
		c-1.1,0-2.2,0-3.3,0C142,14.5,142,11.7,142,9z"/>
	<path id="XMLID_46_" class="st0" d="M133.9,20.5c1.2-0.3,2.5,0.5,2.5,1.8c0,1.7,0.1,3.4,0,5.2c-0.3,2-3.7,2.1-4.1,0.1
		c-0.2-1.6-0.1-3.3-0.1-4.9C132.2,21.7,132.8,20.6,133.9,20.5 M134.2,21.7c-0.4,0.1-0.5,0.6-0.5,1c0,1.5,0,3,0,4.5
		c0,0.8,1.3,0.8,1.4,0c0.1-1.6,0-3.1,0-4.7C135.1,22,134.7,21.5,134.2,21.7z"/>
	<path id="XMLID_45_" class="st0" d="M137.2,20.6c0.5,0,0.9,0,1.4,0c0.5,1.5,0.9,3.1,1.5,4.6c0-1.5,0-3.1,0-4.6c0.4,0,0.8,0,1.2,0
		c0,2.8,0,5.5,0,8.3c-0.4,0-0.8,0-1.2,0c-0.5-1.7-1.1-3.4-1.6-5.1c0,1.7,0,3.4,0,5.1c-0.4,0-0.8,0-1.2,0
		C137.2,26.1,137.2,23.3,137.2,20.6z"/>
	<path id="XMLID_44_" class="st0" d="M144.6,20.6c0.5,0,0.9,0,1.4,0c0,2.4,0,4.8,0,7.2c0.6,0,1.1,0,1.7,0c0,0.4,0,0.8,0,1.2
		c-1,0-2,0-3.1,0C144.6,26.1,144.6,23.3,144.6,20.6z"/>
	<path id="XMLID_41_" class="st0" d="M149.7,20.6c0.5,0,1.1,0,1.6,0c0.5,2.8,1.1,5.5,1.6,8.3c-0.5,0-1,0-1.4,0
		c-0.1-0.5-0.2-1-0.3-1.5c-0.5,0-1,0-1.5,0c-0.1,0.5-0.2,1-0.2,1.5c-0.4,0-0.9,0-1.3,0C148.6,26.1,149.2,23.3,149.7,20.6
		 M149.9,26.2c0.4,0,0.7,0,1.1,0c-0.2-1.1-0.3-2.2-0.5-3.2C150.2,24.1,150.1,25.2,149.9,26.2z"/>
	<path id="XMLID_40_" class="st0" d="M153.4,20.6c0.5,0,0.9,0,1.4,0c0.5,1.6,1,3.1,1.5,4.7c0-1.6,0-3.1,0-4.7c0.4,0,0.8,0,1.2,0
		c0,2.8,0,5.5,0,8.3c-0.4,0-0.8,0-1.2,0c-0.6-1.7-1.1-3.4-1.6-5.1c0,1.7,0,3.4,0,5.1c-0.4,0-0.8,0-1.2,0
		C153.4,26.1,153.4,23.3,153.4,20.6z"/>
	<path id="XMLID_37_" class="st0" d="M158.3,20.6c1,0,2-0.1,3,0.1c0.8,0.2,1.2,1.2,1.2,2c0,1.4,0,2.9,0,4.3c0,0.8-0.5,1.7-1.3,1.9
		c-0.9,0.2-1.9,0-2.8,0.1C158.3,26.1,158.3,23.3,158.3,20.6 M159.7,21.7c0,2,0,4,0,6c0.5,0,1.3,0,1.3-0.7c0-1.6,0.1-3.2,0-4.8
		C160.9,21.7,160.2,21.7,159.7,21.7z"/>
	<path id="XMLID_36_" class="st0" d="M137.7,40.1c2.6-0.7,5.5,0.2,7.2,2.2c1.8,2,2.2,5.2,1,7.6c2.1,0.5,4,1.8,5,3.7
		c1.3,2.2,1.4,5,0.4,7.3c-1.2,2.7-4,4.5-7,4.5c-3.6,0-7.1,0-10.7-0.1c-2.3,0-4.5-1.6-5.2-3.8c-0.6-1.9-0.1-4.1,1.2-5.5
		c-2-1.2-3.1-3.7-2.4-6c0.6-2.3,2.9-3.8,5.3-3.7C132.8,43.5,134.9,40.9,137.7,40.1z"/>
	<path id="XMLID_35_" class="st0" d="M161.6,40.2c1.7-0.8,3.7,0,4.8,1.4c1.7-0.7,4-0.2,4.9,1.5c0.3,0.4-0.1,1.1-0.5,0.8
		c-1.2-1.2-3.1-1.1-4.5-0.4c-0.4,0.2-0.7-0.1-0.9-0.4c-0.8-1.3-2.4-2.3-4-2C160.8,41.1,161.1,40.3,161.6,40.2z"/>
	<path id="XMLID_34_" class="st0" d="M157.9,46.9c1.7-1.6,4.6-2,6.4-0.4c0.5,0.2,0.5,1.2-0.1,1.1c-2-0.9-4.3,0-5.7,1.5
		c-0.2,0.3-0.7,0.3-1,0c-1.6-1.3-4-1.9-5.9-0.8c-0.7,0-0.5-1,0-1.2C153.3,45.4,156.1,45.5,157.9,46.9z"/>
	<path id="XMLID_33_" class="st0" d="M156.3,59.5c1-1,2.5-1.7,4-1.6c1.5,0,2.8,0.7,4,1.5c1.1-0.8,2.5-1.5,3.9-1.5
		c1.5-0.1,3,0.6,4.1,1.7c0.4,0.3,0.2,1.1-0.4,0.9c-2.1-1.2-4.8-0.4-6.6,1.1c-0.4,0.3-0.9,1-1.4,0.4c-1.9-1.8-4.8-2.8-7.2-1.5
		C156.1,60.5,156.1,59.8,156.3,59.5z"/>
	<path id="XMLID_32_" class="st0" d="M138.4,67.3c1.1,0,2.2-0.1,3.3,0c0,2.4,0,4.8,0,7.3c0.1,0.2-0.1,0.3-0.4,0.3c-1,0-2,0-3,0
		C138.4,72.4,138.4,69.9,138.4,67.3z"/>
	<path id="XMLID_31_" class="st0" d="M125.4,78c16.1,0,32.1,0,48.2,0c0,1.1,0,2.2,0,3.3c-16.1,0-32.1,0-48.2,0
		C125.4,80.2,125.3,79.1,125.4,78z"/>
	<path id="XMLID_30_" class="st0" d="M125.4,83.8c16.1,0,32.1,0,48.2,0c0,1.1,0,2.2,0,3.3c-0.4,0-0.7,0-1.1,0c-15.7,0-31.4,0-47.1,0
		C125.4,86,125.3,84.9,125.4,83.8z"/>
</g>
</svg>
