<?xml version="1.0" encoding="utf-8"?>
<!-- Generator: Adobe Illustrator 19.0.0, SVG Export Plug-In . SVG Version: 6.00 Build 0)  -->
<svg version="1.1" id="Layer_1" xmlns="http://www.w3.org/2000/svg" xmlns:xlink="http://www.w3.org/1999/xlink" x="0px" y="0px"
	 viewBox="312 247 300 300" style="enable-background:new 312 247 300 300;" xml:space="preserve">
<style type="text/css">
	.st0{fill:#02558B;}
	.st1{fill:#FFFFFF;}
</style>
<g>
	<rect x="312" y="247" class="st0" width="300" height="300"/>
	<path class="st1" d="M364.2,277c3.3-3.2,8.2-3.8,12.6-3.4c3.6,0.3,7.3,1.6,9.3,4.8c2.5,3.9,2.3,8.8,2.3,13.3c-3.1,0-6.1,0-9.2,0
		c-0.1-2.5,0.3-5.1-0.5-7.4c-0.9-2.4-4.1-2.8-6.2-1.9c-2,0.8-2.5,3.1-2.6,5c-0.1,4.5,0,9-0.1,13.5c3.2-6.6,13.9-6.3,17.3-0.1
		c2.5,4.5,2.1,9.8,2.1,14.7c0,4.7,0.3,9.9-2.5,13.9c-2.3,3.4-6.4,4.9-10.4,5.1c-4.2,0.3-8.9-0.3-12.1-3.4c-3.3-3.1-4.3-7.8-4.3-12.1
		c0-9.9,0-19.8,0-29.7C360.1,284.8,361,280.1,364.2,277 M373.1,304.2c-2.4,0.7-3.1,3.5-3.1,5.7c0.2,4.6-0.6,9.3,0.6,13.8
		c1.1,3,5.6,3.4,7.6,1.2c1.6-1.9,1.2-4.5,1.3-6.7c-0.1-3.6,0.3-7.3-0.3-10.9C378.7,304.5,375.5,303.3,373.1,304.2z"/>
	<path class="st1" d="M449,278.1c0.7-4.7,7.2-5.9,10.4-3.1c2,2.1,1.5,5.2,1.5,7.8c-1.3,0-2.6,0-3.9,0c0-1.6,0.2-3.3-0.3-4.8
		c-0.9-1.6-3.8-0.9-3.8,1c-0.1,4.8-0.1,9.7,0,14.5c-0.2,2.1,3,2.9,3.8,1c0.5-1.9,0.2-4,0.2-6c1.3,0,2.6,0,3.9,0
		c-0.1,2.8,0.5,5.8-1,8.3c-1.7,2.5-5.4,2.7-8,1.6c-2.7-1.2-3.4-4.3-3.2-7C448.9,287.1,448.4,282.5,449,278.1z"/>
	<path class="st1" d="M516,274.4c2.3-1.2,5.3-1.2,7.5,0.1c2.2,1.5,1.9,4.4,1.9,6.7c-1.3,0-2.6,0-3.8,0c0-1.1,0.1-2.3-0.2-3.4
		c-0.8-1.5-3.6-1.1-3.7,0.7c-0.5,2.3,1.6,3.9,3,5.3c2,2,4.6,4.1,4.9,7.1c0.3,2.6,0,5.9-2.6,7.2c-2.4,1.1-5.7,1.2-7.9-0.6
		c-2.1-2-1.5-5.1-1.5-7.6c1.3,0,2.6,0,3.9,0c0,1.5-0.2,3.1,0.2,4.6c0.7,1.7,3.7,1.2,3.7-0.8c0.7-5.4-6.2-7.1-7.5-11.8
		C513.4,279.5,513.4,276,516,274.4z"/>
	<path class="st1" d="M550.3,273.9c2.4-0.6,5.4-0.6,7.2,1.4c1.6,2.1,1.1,5,1.2,7.4c-1.3,0-2.6,0-3.9,0c-0.1-1.6,0.3-3.3-0.3-4.9
		c-1-1.6-3.8-0.8-3.7,1.1c-0.1,4.8-0.1,9.6,0,14.4c-0.2,2,2.9,2.9,3.8,1.1c0.6-2,0.2-4.1,0.3-6.1c1.3,0,2.6,0,3.9,0
		c-0.1,2.7,0.5,5.7-0.9,8.2c-1.5,2.6-5.1,2.8-7.7,1.9c-2.5-0.8-3.6-3.5-3.6-5.9c0-4.3-0.1-8.6,0-12.9
		C546.5,277.3,547.8,274.6,550.3,273.9z"/>
	<path class="st1" d="M346.3,274.2c2.7,0,5.4,0,8,0c0,19.9,0,39.7,0,59.6c-3.3,0-6.7,0-10,0c0-15.2,0-30.4,0-45.6
		c-2.4,2.4-4.8,5-7.2,7.4c0-3.3,0-6.6,0-9.9c-0.1-0.7,0.4-1.2,0.8-1.8C340.8,280.7,343.5,277.4,346.3,274.2z"/>
	<path class="st1" d="M407.7,273.9c3.2,0.2,6.6-0.5,9.6,0.7c2.6,1.2,2.5,4.4,2.4,6.9c-0.1,2.4,0.5,5.2-1.1,7.3
		c-1.6,1.9-4.4,1.7-6.6,1.7c0,2.8,0,5.6,0,8.4c-1.4,0-2.8,0-4.2,0C407.7,290.5,407.7,282.2,407.7,273.9 M411.9,277.3
		c0,3.3,0,6.6,0,9.9c1.2-0.1,3,0.2,3.4-1.2c0.3-2.4,0.2-4.8,0.1-7.2C415.1,277,413.1,277.4,411.9,277.3z"/>
	<path class="st1" d="M421.8,273.9c3.3,0,6.7,0,10,0c0,1.2,0,2.3,0,3.5c-1.9,0-3.9,0-5.8,0c0,2.4,0,4.7,0,7.1c1.4,0,2.8,0,4.2,0
		c0,1.1,0,2.3,0,3.4c-1.4,0-2.8,0-4.2,0c0,2.5,0,5,0,7.5c1.9,0,3.9,0,5.8,0c0,1.2,0,2.3,0,3.5c-3.3,0-6.7,0-10,0
		C421.8,290.5,421.8,282.2,421.8,273.9z"/>
	<path class="st1" d="M438.1,273.9c1.6,0,3.2,0,4.8,0c1.6,8.3,3.2,16.6,4.7,24.9c-1.4,0-2.9,0-4.3,0c-0.3-1.5-0.5-3-0.8-4.5
		c-1.5,0-2.9,0-4.4,0c-0.2,1.5-0.5,3-0.7,4.5c-1.3,0-2.7,0-4,0C434.9,290.5,436.5,282.2,438.1,273.9 M438.7,290.9c1.1,0,2.2,0,3.3,0
		c-0.5-3.3-1.1-6.6-1.6-9.8C439.7,284.3,439.2,287.6,438.7,290.9z"/>
	<path class="st1" d="M463.1,273.9c3.4,0,6.7,0,10.1,0c0,1.2,0,2.3,0,3.5c-1.9,0-3.9,0-5.8,0c0,2.4,0,4.7,0,7.1c1.4,0,2.8,0,4.1,0
		c0,1.1,0,2.3,0,3.4c-1.4,0-2.8,0-4.1,0c0,2.5,0,5,0,7.5c1.9,0,3.9,0,5.8,0c0,1.2,0,2.3,0,3.5c-3.4,0-6.7,0-10.1,0
		C463.1,290.5,463.1,282.2,463.1,273.9z"/>
	<path class="st1" d="M492.8,273.9c1.4,0,2.8,0,4.2,0c-0.1,6.9,0.1,13.8-0.1,20.7c-0.3,4.8-7.1,5.9-10.1,2.9c-1.9-2.6-0.9-6-1.1-9
		c1.3,0,2.7,0,4,0c0.1,2-0.2,4,0.2,6c0.3,1.5,2.9,1.2,2.9-0.3C492.9,287.4,492.8,280.7,492.8,273.9z"/>
	<path class="st1" d="M499.4,273.9c1.4,0,2.8,0,4.2,0c0.1,6.7-0.1,13.3,0.1,20c0.1,2.3,3.9,2.2,3.9,0c0.2-6.7,0-13.3,0.1-20
		c1.3,0,2.6,0,3.9,0c0,6.3,0,12.6,0,18.9c0,2-0.5,4.3-2.3,5.4c-3.5,2.1-9.5,0.8-9.8-3.9C499.2,287.5,499.4,280.7,499.4,273.9z"/>
	<path class="st1" d="M526.8,273.9c3.7,0,7.4,0,11.1,0c0,1.1,0,2.3,0,3.4c-1.1,0-2.3,0-3.4,0c0,7.2,0,14.3,0,21.5
		c-1.4,0-2.9,0-4.3,0c0-7.2,0-14.3,0-21.5c-1.1,0-2.3,0-3.4,0C526.8,276.2,526.8,275,526.8,273.9z"/>
	<path class="st1" d="M539.9,273.9c1.4,0,2.8,0,4.2,0c0,8.3,0,16.6,0,24.9c-1.4,0-2.8,0-4.2,0C539.9,290.5,539.9,282.2,539.9,273.9z
		"/>
	<path class="st1" d="M560.9,273.9c3.3,0,6.7,0,10,0c0,1.2,0,2.3,0,3.5c-1.9,0-3.9,0-5.8,0c0,2.4,0,4.7,0,7.1c1.4,0,2.8,0,4.1,0
		c0,1.1,0,2.3,0,3.4c-1.4,0-2.8,0-4.1,0c0,2.5,0,5,0,7.5c1.9,0,3.9,0,5.8,0c0,1.2,0,2.3,0,3.5c-3.3,0-6.7,0-10,0
		C560.9,290.5,560.9,282.2,560.9,273.9z"/>
	<path class="st1" d="M475.7,294.8c1.4,0,2.7,0,4.1,0c-0.7,2-1.5,4-2.3,6c-0.8,0-1.6,0-2.4,0C475.3,298.8,475.5,296.8,475.7,294.8z"
		/>
	<path class="st1" d="M458,309.5c2.2-1.4,5.3-1.4,7.6-0.1c2.3,1.4,2.1,4.4,2.1,6.8c-1.3,0-2.6,0-3.9,0c0-1.5,0.4-4.3-1.9-4.3
		c-2.2-0.2-2.5,2.9-1.5,4.3c2.2,2.9,5.7,4.9,7.2,8.4c0.7,2.9,0.8,7-2.3,8.6c-2.5,1.1-5.9,1.2-8-0.7c-2-2-1.4-5-1.5-7.5
		c1.3,0,2.6,0,4,0c0.1,1.6-0.2,3.2,0.3,4.7c0.9,1.6,3.7,0.9,3.6-1c0.5-5.3-6.4-7-7.6-11.8C455.7,314.4,455.7,311.1,458,309.5z"/>
	<path class="st1" d="M501.6,308.5c3-0.5,6.5,1,7.1,4.3c0.6,3.6,0.1,7.2,0.3,10.8c-0.1,2.6,0.4,5.4-1,7.8c-2.6,4.3-10.8,3.3-11.5-2
		c-0.4-4.9-0.1-9.8-0.2-14.7C496.2,311.6,498.5,308.6,501.6,308.5 M502,312c-1.4,0.4-1.5,2.1-1.5,3.3c0.1,4.4-0.1,8.9,0.1,13.3
		c0.1,1.7,2.5,2.4,3.6,1.2c0.8-1,0.5-2.3,0.6-3.5c-0.1-4.2,0.1-8.3-0.1-12.5C504.7,312.5,503.2,311.7,502,312z"/>
	<path class="st1" d="M529.7,308.8c2.3-0.7,5.1-0.6,7,1.1c1.8,1.9,1.5,4.7,1.5,7c-1.3,0-2.6,0-3.8,0c0-1.3,0.2-2.8-0.3-4
		c-0.9-1.6-3.9-1-3.9,1c-0.1,4.9-0.1,9.8,0,14.7c0,1.9,3,2.5,3.7,0.8c0.5-1.9,0.2-3.8,0.2-5.8c-0.7,0-1.3,0-2,0c0-1.1,0-2.2,0-3.3
		c2,0,4,0,5.9,0c0,4.4,0,8.9,0,13.3c-1,0-2,0-3,0c0-0.8,0-1.5,0-2.3c-1.2,2.8-5.1,3.3-7.3,1.4c-1.7-1.5-2-3.9-2-6.1
		c0-4-0.1-8.1,0-12.1C525.9,312.2,527.2,309.5,529.7,308.8z"/>
	<path class="st1" d="M411.7,308.7c1.6,0,3.2,0,4.8,0c1.6,8.3,3.2,16.6,4.7,24.9c-1.4,0-2.9,0-4.3,0c-0.2-1.5-0.5-3.1-0.8-4.6
		c-1.5,0-2.9,0-4.4,0c-0.2,1.5-0.5,3.1-0.7,4.6c-1.3,0-2.7,0-4,0C408.6,325.3,410.1,317,411.7,308.7 M413.9,316.6
		c-0.7,3-1,6.1-1.6,9.1c1.1,0,2.2,0,3.3,0C415,322.7,414.8,319.6,413.9,316.6z"/>
	<path class="st1" d="M422.9,308.7c1.4,0,2.8,0,4.2,0c1.5,4.6,2.9,9.3,4.4,13.9c0.1-4.6,0-9.3,0-13.9c1.2,0,2.4,0,3.6,0
		c0,8.3,0,16.6,0,24.9c-1.2,0-2.5,0-3.7,0c-1.6-5.1-3.2-10.2-4.8-15.3c-0.1,5.1,0,10.2,0,15.3c-1.2,0-2.4,0-3.6,0
		C422.9,325.3,422.9,317,422.9,308.7z"/>
	<path class="st1" d="M437.4,308.7c2.9,0.1,5.8-0.3,8.6,0.3c2.5,0.6,3.9,3.2,3.9,5.6c0.1,4.3,0,8.6,0,12.9c0,2.5-1.3,5.3-3.9,5.9
		c-2.8,0.5-5.7,0.2-8.6,0.3C437.4,325.3,437.4,317,437.4,308.7 M441.6,312.1c0,6,0,12.1,0,18.1c1.5,0,4,0.1,4.1-2
		c0.1-4.7,0.1-9.4,0-14.1C445.7,312,443.2,312.1,441.6,312.1z"/>
	<path class="st1" d="M469.1,308.7c3.7,0,7.4,0,11.1,0c0,1.1,0,2.3,0,3.5c-1.1,0-2.3,0-3.4,0c0,7.2,0,14.3,0,21.5
		c-1.4,0-2.9,0-4.3,0c0-7.2,0-14.3,0-21.5c-1.1,0-2.3,0-3.4,0C469.1,311,469.1,309.9,469.1,308.7z"/>
	<path class="st1" d="M482.2,308.7c3.2,0.2,6.8-0.7,9.8,0.9c2.8,1.9,2,5.7,2.1,8.5c0.1,2.1-1.4,3.8-3.3,4.4c1.3,3.7,2.6,7.5,4,11.2
		c-1.5,0-3,0-4.5,0c-1.3-3.7-2.5-7.4-3.9-11.2c0,3.7,0,7.4,0,11.2c-1.4,0-2.8,0-4.2,0C482.2,325.3,482.2,317,482.2,308.7
		 M486.4,312.1c0,2.6,0,5.2,0,7.9c1.1-0.2,2.8,0.2,3.2-1.2c0.3-1.9,0.3-3.8,0-5.7C489.1,311.9,487.5,312.3,486.4,312.1z"/>
	<path class="st1" d="M511.4,308.7c1.4,0,2.8,0,4.1,0c1.5,4.7,3,9.4,4.5,14.1c0-4.7,0-9.4,0-14.1c1.2,0,2.4,0,3.6,0
		c0,8.3,0,16.6,0,24.9c-1.2,0-2.5,0-3.7,0c-1.6-5.1-3.2-10.2-4.8-15.4c0,5.1,0,10.2,0,15.4c-1.2,0-2.4,0-3.6,0
		C511.4,325.3,511.4,317,511.4,308.7z"/>
	<path class="st1" d="M430.3,344.6c2.2-1.7,5.6-1.7,8-0.4c2.3,1.4,2.1,4.5,2.1,6.8c-1.3,0-2.6,0-3.8,0c0-1.1,0.1-2.2-0.2-3.2
		c-0.6-1.5-3.1-1.4-3.6,0.1c-0.3,1.1-0.2,2.4,0.5,3.3c2.3,2.9,5.8,4.9,7.1,8.5c0.6,2.8,0.6,6.7-2.2,8.3c-2.4,1.2-5.7,1.2-7.9-0.5
		c-2.2-2-1.6-5.1-1.6-7.7c1.3,0,2.6,0,3.9,0c0,1.5-0.2,3,0.2,4.5c0.7,1.9,4,1.2,3.7-0.9c0.6-3.8-3.3-5.6-5.3-8.1
		C428.2,352.7,427.5,347.4,430.3,344.6z"/>
	<path class="st1" d="M513.7,343.3c2.6-0.2,5.5,1.2,6.3,3.9c0.8,3.2,0.3,6.6,0.4,9.9c-0.1,2.9,0.5,6-0.8,8.7
		c-2.4,4.6-11,3.7-11.7-1.8c-0.4-4.9-0.2-9.8-0.2-14.7C507.6,346,510.4,343.1,513.7,343.3 M512.9,347.1c-1.3,0.8-1,2.5-1,3.8
		c0.1,4.3-0.2,8.6,0.2,12.8c0.4,2.2,4.1,1.9,4.1-0.4c0.1-4.8,0.1-9.6,0-14.3C516.2,347.4,514.3,346.2,512.9,347.1z"/>
	<path class="st1" d="M538.6,344.7c2.2-1.8,5.5-1.8,7.9-0.6c2.4,1.4,2.3,4.5,2.2,6.9c-1.3,0-2.6,0-3.8,0c-0.1-1.1,0.1-2.4-0.3-3.5
		c-0.8-1.3-3.2-1.1-3.6,0.5c-0.3,1.1-0.1,2.4,0.6,3.2c2.1,2.6,5,4.5,6.7,7.4c0.9,2.2,0.9,4.7,0.2,6.9c-1.4,3.6-6.4,3.9-9.4,2.3
		c-2.7-1.7-2.1-5.4-2.2-8.1c1.3,0,2.6,0,3.9,0c0,1.5-0.2,3.1,0.2,4.6c0.8,1.8,3.9,1.1,3.7-0.9c0.6-3.7-3.3-5.6-5.3-8.1
		C536.7,352.8,535.9,347.6,538.6,344.7z"/>
	<path class="st1" d="M407.7,343.6c1.4,0,2.8,0,4.2,0c0,8.3,0,16.6,0,24.9c-1.4,0-2.8,0-4.2,0C407.7,360.2,407.7,351.9,407.7,343.6z
		"/>
	<path class="st1" d="M414.3,343.6c1.4,0,2.8,0,4.1,0c1.5,4.7,2.9,9.3,4.4,14c0.1-4.7,0-9.3,0-14c1.2,0,2.4,0,3.6,0
		c0,8.3,0,16.6,0,24.9c-1.3,0-2.5,0-3.8,0c-1.6-5.1-3.2-10.2-4.8-15.3c-0.1,5.1,0,10.2,0,15.3c-1.2,0-2.4,0-3.6,0
		C414.3,360.2,414.3,351.9,414.3,343.6z"/>
	<path class="st1" d="M441.7,343.6c3.7,0,7.5,0,11.2,0c0,1.2,0,2.3,0,3.5c-1.1,0-2.3,0-3.4,0c0,7.1,0,14.3,0,21.4
		c-1.4,0-2.9,0-4.3,0c0-7.1,0-14.3,0-21.4c-1.2,0-2.3,0-3.5,0C441.7,345.9,441.7,344.7,441.7,343.6z"/>
	<path class="st1" d="M454.8,343.6c1.4,0,2.8,0,4.2,0c0,8.3,0,16.6,0,24.9c-1.4,0-2.8,0-4.2,0C454.8,360.2,454.8,351.9,454.8,343.6z
		"/>
	<path class="st1" d="M460.9,343.6c3.7,0,7.4,0,11.2,0c0,1.2,0,2.3,0,3.5c-1.1,0-2.3,0-3.4,0c0,7.1,0,14.3,0,21.4
		c-1.4,0-2.9,0-4.3,0c0-7.1,0-14.3,0-21.4c-1.2,0-2.3,0-3.5,0C460.9,345.9,460.9,344.7,460.9,343.6z"/>
	<path class="st1" d="M474,343.6c1.4,0,2.8,0,4.2,0c0,6.6-0.1,13.2,0.1,19.8c-0.1,2.5,4.1,2.4,3.9,0c0.1-6.6,0-13.2,0.1-19.8
		c1.3,0,2.6,0,3.9,0c0,6.4,0,12.7,0,19.1c0,2.1-0.7,4.5-2.7,5.4c-2.1,1-4.6,0.9-6.7,0c-2.1-0.9-2.9-3.4-2.8-5.5
		C474,356.3,474,349.9,474,343.6z"/>
	<path class="st1" d="M488,343.6c3.7,0,7.4,0,11.1,0c0,1.1,0,2.3,0,3.5c-1.1,0-2.3,0-3.4,0c0,7.1,0,14.3,0,21.4c-1.4,0-2.9,0-4.3,0
		c0-7.1,0-14.3,0-21.4c-1.1,0-2.3,0-3.4,0C488,345.9,488,344.7,488,343.6z"/>
	<path class="st1" d="M501.1,343.6c1.4,0,2.8,0,4.2,0c0,8.3,0,16.6,0,24.9c-1.4,0-2.8,0-4.2,0C501.1,360.2,501.1,351.9,501.1,343.6z
		"/>
	<path class="st1" d="M522.7,343.6c1.4,0,2.8,0,4.1,0c1.5,4.7,3,9.4,4.5,14.1c0-4.7,0-9.4,0-14.1c1.2,0,2.4,0,3.6,0
		c0,8.3,0,16.6,0,24.9c-1.2,0-2.5,0-3.7,0c-1.6-5.1-3.2-10.2-4.8-15.3c0,5.1,0,10.2,0,15.3c-1.2,0-2.4,0-3.6,0
		C522.7,360.2,522.7,351.9,522.7,343.6z"/>
	<path class="st1" d="M522.5,381.7c2-2,5-2.4,7.8-2.4c0,2.8-0.4,5.9-2.5,8c-2,2-5,2.4-7.7,2.4C519.9,386.9,520.4,383.8,522.5,381.7z
		"/>
	<path class="st1" d="M508.3,387.9c-0.5-2.7,0.6-5.3,2.1-7.5c2.3,1.4,4.6,3.4,5.1,6.1c0.5,2.7-0.7,5.3-2,7.5
		C511.2,392.5,508.9,390.6,508.3,387.9z"/>
	<path class="st1" d="M502.6,388.6c2.2,1.4,4.5,3.3,5.1,6c0.6,2.7-0.6,5.4-2,7.6c-2.3-1.4-4.5-3.3-5.1-6.1
		C500,393.5,501.2,390.9,502.6,388.6z"/>
	<path class="st1" d="M518.3,390.7c0.4,0.3,0.9,0.6,1.3,0.9c-4.6,6.9-12.8,11.5-14.1,20.3c1.6,1.3,3.2,2.5,4.9,3.5
		c-1.7,0-3.4,0-5.2,0.2c0.1,3.8,1,7.6,2.2,11.2c-0.5,0-1.1,0.1-1.6,0.1c-1.1-3.6-2-7.3-2.1-11.1c-3.9,0.7-8,2.1-10.6,5.3
		c-3.6,4.6-3.8,10.9-3.7,16.5c0.3,7.7-2,15.6-7.4,21.2c-7.2,7.5-17.7,10.8-27.7,12.2c0,4.6,0,9.2,0,13.8c5.8,0.2,11.6,0.3,17.4,0.4
		c6.9,0.5,13.8-1,20.7-1.6c0.1-2.5-0.1-4.9,0.1-7.4c0-1.1,1.1-2,2.3-1.9c7.8,0,15.7,0,23.5,0c1.3-0.1,2.3,1,2.2,2.3
		c0,7.7,0,15.4,0,23.1c0.2,1.3-0.9,2.5-2.2,2.4c-7.8,0-15.7,0-23.5,0c-1.2,0.1-2.3-0.8-2.3-2c-0.1-2.4,0-4.8,0-7.3
		c-5.3-0.5-10.6-1.3-16-1.7c-25.9,0.5-51.9,1.1-77.8,1.7c0-3.1,0-6.2,0-9.3c14.3,0.3,28.7,0.6,43,0.9c0-4.4,0-8.8,0-13.2
		c-6.8-0.6-13.7-2.1-19.7-5.5c-5.9-3.3-11.3-7.5-17.6-10c6.5,1.2,13.7,1.5,19.6-2.1c5.1-3.3,10-7.5,16.2-8.3
		c-8.2-0.6-15.9-5.6-19.6-13c-4.5-8.1-4.7-17.6-7.9-26.1c-1.4-4.3-4.1-8.4-8.4-10.3c5.2-0.5,10.5-0.5,15.6,0.8
		c7.6,1.8,14.4,5.9,20.2,11c2.8,2.4,5.2,5.3,8.1,7.5c4.3,3.4,9.5,5.8,15.1,5.7c5.2-0.1,10.2-2.4,14.1-5.8c4.1-3.6,8.1-7.6,13-10
		c2.6-1.3,6.1-1.8,8.5,0.1c1.9,1.5,3.4,3.6,5.3,5.2C505.8,402.2,513.7,397.5,518.3,390.7 M445.5,471.6c0,4.4,0,8.7,0,13.1
		c1.7,0,3.4,0.1,5,0.1c0-4.4,0-8.9,0-13.4C448.9,471.5,447.2,471.5,445.5,471.6z"/>
	<path class="st1" d="M517.4,398.1c1.6-1.8,3.5-3.6,6-3.9c2.6-0.3,4.9,1.2,6.7,2.7c-1.6,1.9-3.7,3.8-6.3,3.9
		C521.3,401,519.1,399.6,517.4,398.1z"/>
	<path class="st1" d="M510.4,405.4c1.9-1.5,4.2-2.8,6.7-2.5c2.5,0.3,4.4,2.2,5.9,4c-1.9,1.5-4.2,2.8-6.7,2.6
		C513.8,409.2,511.9,407.3,510.4,405.4z"/>
	<path class="st1" d="M492.6,464.7c8.7-0.4,17.4-0.1,26.1-0.2c2-0.2,4,1.1,4.3,3.1c0.4,2.2-1.6,4.4-3.9,4.2
		c-8.7-0.1-17.4,0.1-26.1-0.1C489.3,471.4,489,465.5,492.6,464.7z"/>
	<path class="st1" d="M391,481.5c2-0.4,4.8-0.1,5.3,2.3c0.4,2.7,0.2,5.4,0.1,8.2c-0.2,4-7.2,4.2-7.8,0.3c-0.2-2.5-0.1-4.9-0.1-7.4
		C388.6,483.4,389.5,481.8,391,481.5z"/>
	<path class="st1" d="M492.2,504.9c8.8-0.7,17.6-0.1,26.4-0.3c2-0.3,4.2,1.2,4.3,3.3c0.3,2.2-1.7,4.2-3.9,4
		c-8.6,0-17.2,0.1-25.8-0.1C489.6,511.8,488.8,506.1,492.2,504.9z"/>
</g>
</svg>
