<?xml version="1.0" encoding="utf-8"?>
<!-- Generator: Adobe Illustrator 19.0.0, SVG Export Plug-In . SVG Version: 6.00 Build 0)  -->
<svg version="1.1" id="Layer_1" xmlns="http://www.w3.org/2000/svg" xmlns:xlink="http://www.w3.org/1999/xlink" x="0px" y="0px"
	 viewBox="0 0 200 100" style="enable-background:new 0 0 200 100;" xml:space="preserve">
<style type="text/css">
	.st0{fill:#FFFFFF;}
	.st1{fill:#02558B;}
</style>
<g id="XMLID_1_">
	<g id="XMLID_2_">
		<rect id="XMLID_66_" class="st0" width="100" height="100"/>
		<path id="XMLID_63_" class="st1" d="M17.6,9.8c1.2-1,2.8-1.1,4.2-1c1.1,0.1,2.3,0.6,3,1.6c0.8,1.3,0.7,2.9,0.7,4.4c-1,0-2,0-3,0
			c0-0.8,0.1-1.7-0.2-2.5c-0.3-0.8-1.3-0.9-2-0.6c-0.7,0.3-0.9,1.1-0.9,1.8c0,1.5,0,3,0,4.4c1-2.1,4.2-2.1,5.5-0.4
			c1,1.3,1,3.1,0.9,4.6c0,1.7,0.2,3.6-0.8,5.1c-0.8,1.2-2.3,1.8-3.7,1.8c-1.4,0.1-2.9-0.2-4-1.1c-1.1-1-1.4-2.5-1.4-4
			c0-3.4,0-6.8,0-10.2C16,12.4,16.4,10.8,17.6,9.8 M20.5,19c-0.8,0.1-1.2,0.9-1.2,1.6c0,1.2,0,2.3,0,3.5c0,0.6,0,1.3,0.4,1.8
			c0.5,0.5,1.3,0.6,1.9,0.3c0.6-0.3,0.8-1,0.8-1.6c0-1.2,0-2.5,0-3.7c0-0.5-0.1-1.1-0.4-1.5C21.6,19,21.1,18.9,20.5,19z"/>
		<path id="XMLID_62_" class="st1" d="M46.7,9c0.8-0.3,1.8-0.3,2.5,0.4c0.6,0.7,0.4,1.7,0.4,2.5c-0.4,0-0.9,0-1.3,0c0-0.5,0-1,0-1.5
			c-0.1-0.6-1-0.6-1.2-0.1c-0.2,0.3-0.1,0.7-0.1,1.1c0,1.4,0,2.8,0,4.2c0,0.7,1.1,0.8,1.3,0.2c0.1-0.6,0-1.3,0.1-1.9
			c0.4,0,0.8,0,1.3,0c-0.1,0.9,0.2,1.9-0.3,2.8c-0.5,0.8-1.7,0.9-2.5,0.6c-0.8-0.2-1.2-1.1-1.2-1.9c0-1.5,0-2.9,0-4.4
			C45.6,10.2,46,9.3,46.7,9z"/>
		<path id="XMLID_61_" class="st1" d="M68,9.2c0.8-0.4,1.8-0.4,2.5,0c0.7,0.5,0.7,1.5,0.6,2.2c-0.4,0-0.9,0-1.3,0c0-0.4,0-0.7,0-1.1
			c-0.2-0.5-1.1-0.5-1.2,0c-0.1,0.3-0.1,0.7,0.1,1.1c0.8,1,2,1.7,2.4,2.9c0.2,0.9,0.2,2-0.6,2.7c-0.8,0.5-2,0.5-2.8,0
			c-0.8-0.6-0.6-1.7-0.6-2.6c0.4,0,0.9,0,1.3,0c0,0.5,0,1,0,1.4c0.1,0.6,1.1,0.6,1.2,0c0.1-0.4,0.1-0.9-0.1-1.3
			c-0.7-1-1.9-1.6-2.3-2.8C67.1,10.9,67.1,9.7,68,9.2z"/>
		<path id="XMLID_60_" class="st1" d="M79.3,9c0.8-0.3,1.8-0.3,2.5,0.3c0.6,0.7,0.5,1.7,0.5,2.6c-0.4,0-0.8,0-1.3,0c0-0.5,0-1,0-1.4
			c-0.1-0.6-1-0.6-1.2-0.1c-0.2,0.3-0.1,0.7-0.1,1c0,1.4,0,2.9,0,4.3c0,0.7,1.1,0.8,1.3,0.1c0.1-0.6,0-1.3,0.1-1.9
			c0.4,0,0.8,0,1.3,0c-0.1,0.9,0.2,2-0.3,2.8c-0.5,0.8-1.6,0.8-2.5,0.6s-1.3-1.1-1.3-1.9c0-1.4,0-2.9,0-4.3
			C78.2,10.2,78.5,9.4,79.3,9z"/>
		<path id="XMLID_57_" class="st1" d="M31.9,9c0.8,0,1.5,0,2.3,0c0.5,0,1.2,0.2,1.4,0.7c0.4,0.6,0.2,1.4,0.3,2.1
			c0,0.7,0.1,1.6-0.4,2.1c-0.6,0.6-1.4,0.5-2.2,0.5c0,0.9,0,1.9,0,2.8c-0.5,0-0.9,0-1.4,0C31.9,14.5,31.9,11.7,31.9,9 M33.3,10.1
			c0,1.1,0,2.2,0,3.3c0.4,0,1.1,0.1,1.2-0.5c0-0.8,0-1.6,0-2.3C34.4,10,33.7,10.1,33.3,10.1z"/>
		<path id="XMLID_56_" class="st1" d="M36.6,9c1.1,0,2.2,0,3.3,0c0,0.4,0,0.8,0,1.1c-0.6,0-1.3,0-1.9,0c0,0.8,0,1.6,0,2.4
			c0.5,0,0.9,0,1.4,0c0,0.4,0,0.8,0,1.1c-0.5,0-0.9,0-1.4,0c0,0.8,0,1.7,0,2.5c0.6,0,1.3,0,1.9,0c0,0.4,0,0.8,0,1.1
			c-1.1,0-2.2,0-3.3,0C36.6,14.5,36.6,11.7,36.6,9z"/>
		<path id="XMLID_53_" class="st1" d="M42,9c0.5,0,1.1,0,1.6,0c0.5,2.8,1.1,5.5,1.6,8.3c-0.5,0-1,0-1.4,0c-0.1-0.5-0.2-1-0.3-1.5
			c-0.5,0-1,0-1.5,0c-0.1,0.5-0.2,1-0.2,1.5c-0.4,0-0.9,0-1.3,0C41,14.5,41.5,11.7,42,9 M42.8,11.4c-0.2,1.1-0.4,2.2-0.5,3.3
			c0.4,0,0.7,0,1.1,0C43.1,13.5,43,12.4,42.8,11.4z"/>
		<path id="XMLID_52_" class="st1" d="M50.4,9c1.1,0,2.2,0,3.3,0c0,0.4,0,0.8,0,1.1c-0.6,0-1.3,0-1.9,0c0,0.8,0,1.6,0,2.4
			c0.5,0,0.9,0,1.4,0c0,0.4,0,0.8,0,1.1c-0.5,0-0.9,0-1.4,0c0,0.8,0,1.7,0,2.5c0.6,0,1.3,0,1.9,0c0,0.4,0,0.8,0,1.1
			c-1.1,0-2.2,0-3.3,0C50.4,14.5,50.4,11.7,50.4,9z"/>
		<path id="XMLID_51_" class="st1" d="M60.3,9c0.5,0,0.9,0,1.4,0c0,2.2,0,4.4,0,6.6c0,0.6-0.3,1.3-0.9,1.6c-0.9,0.4-2.2,0.4-2.7-0.6
			c-0.4-0.9-0.1-1.8-0.2-2.7c0.4,0,0.9,0,1.3,0c0,0.7,0,1.3,0,2c0.1,0.6,1,0.5,1-0.1C60.3,13.5,60.3,11.2,60.3,9z"/>
		<path id="XMLID_50_" class="st1" d="M62.5,9c0.5,0,0.9,0,1.4,0c0,2.2,0,4.4,0,6.7c0,0.8,1.3,0.8,1.3,0c0-2.2,0-4.4,0-6.6
			c0.4,0,0.9,0,1.3,0c0,2.1,0,4.2,0,6.4c0,0.7-0.2,1.5-0.9,1.8c-0.7,0.3-1.5,0.3-2.2,0c-0.7-0.3-1-1.1-1-1.8
			C62.5,13.2,62.5,11.1,62.5,9z"/>
		<path id="XMLID_49_" class="st1" d="M71.6,9c1.2,0,2.5,0,3.7,0c0,0.4,0,0.8,0,1.1c-0.4,0-0.8,0-1.1,0c0,2.4,0,4.8,0,7.1
			c-0.5,0-0.9,0-1.4,0c0-2.4,0-4.8,0-7.2c-0.4,0-0.8,0-1.1,0C71.6,9.7,71.6,9.3,71.6,9z"/>
		<path id="XMLID_48_" class="st1" d="M76,9c0.5,0,0.9,0,1.4,0c0,2.8,0,5.5,0,8.3c-0.5,0-0.9,0-1.4,0C76,14.5,76,11.7,76,9z"/>
		<path id="XMLID_47_" class="st1" d="M83,9c1.1,0,2.2,0,3.3,0c0,0.4,0,0.8,0,1.1c-0.6,0-1.3,0-1.9,0c0,0.8,0,1.6,0,2.4
			c0.5,0,0.9,0,1.4,0c0,0.4,0,0.8,0,1.1c-0.5,0-0.9,0-1.4,0c0,0.8,0,1.7,0,2.5c0.6,0,1.3,0,1.9,0c0,0.4,0,0.8,0,1.1
			c-1.1,0-2.2,0-3.3,0C83,14.5,83,11.7,83,9z"/>
		<path id="XMLID_46_" class="st1" d="M8.5,12.4c1-1.1,1.9-2.3,2.9-3.4c0.9,0,1.8,0,2.7,0c0,6.6,0,13.2,0,19.8c-1.1,0-2.2,0-3.3,0
			c0-5.1,0-10.1,0-15.2c-0.8,0.8-1.6,1.7-2.4,2.5c0-1.1,0-2.3,0-3.4C8.4,12.6,8.5,12.5,8.5,12.4z"/>
		<path id="XMLID_45_" class="st1" d="M54.6,15.9c0.5,0,0.9,0,1.4,0c-0.2,0.7-0.5,1.3-0.7,2c-0.3,0-0.5,0-0.8,0
			C54.5,17.2,54.5,16.6,54.6,15.9z"/>
		<path id="XMLID_44_" class="st1" d="M48.1,21.6c0.4-1.3,2.3-1.5,3.3-0.7c0.6,0.5,0.5,1.4,0.5,2.2c-0.4,0-0.9,0-1.3,0
			c0-0.4,0-0.7,0-1.1c-0.2-0.5-1.1-0.5-1.2,0c-0.1,0.4-0.1,0.9,0.2,1.2c0.6,0.7,1.4,1.3,2,2.1c0.5,0.7,0.5,1.7,0.3,2.5
			c-0.4,1.3-2.2,1.5-3.3,0.8C47.8,28,48,26.9,48,26c0.4,0,0.9,0,1.3,0c0,0.5,0,1,0,1.4c0.1,0.6,1.1,0.6,1.2,0
			c0.1-0.5,0.1-1.1-0.3-1.5c-0.6-0.7-1.3-1.2-1.9-1.9C47.9,23.3,47.9,22.4,48.1,21.6z"/>
		<path id="XMLID_41_" class="st1" d="M62.9,20.5c0.7-0.1,1.5-0.1,2.1,0.4c0.5,0.4,0.7,1.1,0.7,1.7c0,1.4,0,2.8,0,4.2
			c0,0.7-0.3,1.5-1,1.9c-0.7,0.3-1.5,0.3-2.2,0c-0.7-0.3-1-1.1-1-1.9c0-1.5,0-2.9,0-4.4C61.5,21.6,62,20.7,62.9,20.5 M63.2,21.7
			c-0.4,0.2-0.4,0.7-0.4,1c0,1.5,0,3,0,4.5c0.1,0.8,1.3,0.7,1.4,0c0.1-1.6,0-3.3,0-4.9C64.3,21.8,63.7,21.5,63.2,21.7z"/>
		<path id="XMLID_40_" class="st1" d="M72.6,20.6c0.8-0.2,1.7-0.2,2.3,0.4c0.6,0.6,0.5,1.5,0.5,2.3c-0.4,0-0.8,0-1.3,0
			c0-0.5,0.1-1-0.1-1.4c-0.3-0.5-1.3-0.3-1.3,0.4c0,1.5,0,2.9,0,4.4c0,0.3,0,0.6,0.2,0.9c0.3,0.4,1.1,0.3,1.2-0.2
			c0.1-0.6,0-1.2,0-1.8c-0.2,0-0.4,0-0.7,0c0-0.4,0-0.7,0-1.1c0.7,0,1.3,0,2,0c0,1.5,0,3,0,4.4c-0.3,0-0.7,0-1,0c0-0.3,0-0.6,0-0.8
			c-0.3,1.1-1.8,1.2-2.5,0.5c-0.5-0.5-0.6-1.2-0.6-1.9c0-1.4,0-2.8,0-4.2C71.3,21.7,71.8,20.8,72.6,20.6z"/>
		<path id="XMLID_37_" class="st1" d="M33.2,20.6c0.5,0,1.1,0,1.6,0c0.5,2.8,1.1,5.5,1.6,8.3c-0.5,0-1,0-1.4,0
			c-0.1-0.5-0.2-1-0.3-1.5c-0.5,0-1,0-1.5,0c-0.1,0.5-0.2,1-0.2,1.5c-0.4,0-0.9,0-1.3,0C32.2,26.1,32.7,23.3,33.2,20.6 M34,23
			c-0.2,1.1-0.4,2.2-0.6,3.3c0.4,0,0.7,0,1.1,0C34.3,25.2,34.2,24.1,34,23z"/>
		<path id="XMLID_36_" class="st1" d="M37,20.6c0.5,0,0.9,0,1.4,0c0.5,1.5,1,3.1,1.5,4.7c0-1.6,0-3.1,0-4.7c0.4,0,0.8,0,1.2,0
			c0,2.8,0,5.5,0,8.3c-0.4,0-0.8,0-1.2,0c-0.5-1.7-1.1-3.4-1.6-5.1c0,1.7,0,3.4,0,5.1c-0.4,0-0.8,0-1.2,0C37,26.1,37,23.3,37,20.6z"
			/>
		<path id="XMLID_33_" class="st1" d="M41.8,20.6c1.1,0.1,2.2-0.2,3.2,0.2c0.7,0.3,1,1.1,1,1.9c0,1.4,0,2.7,0,4.1
			c0,0.7-0.3,1.5-0.9,1.9c-1,0.4-2.2,0.2-3.2,0.2C41.8,26.1,41.8,23.3,41.8,20.6 M43.2,21.7c0,2,0,4,0,6c0.4,0,0.8,0.1,1.1-0.2
			c0.3-0.3,0.2-0.7,0.2-1c0-1.4,0-2.8,0-4.3C44.5,21.7,43.7,21.7,43.2,21.7z"/>
		<path id="XMLID_32_" class="st1" d="M52.4,20.6c1.2,0,2.5,0,3.7,0c0,0.4,0,0.8,0,1.1c-0.4,0-0.8,0-1.1,0c0,2.4,0,4.8,0,7.2
			c-0.5,0-0.9,0-1.4,0c0-2.4,0-4.8,0-7.2c-0.4,0-0.8,0-1.1,0C52.4,21.3,52.4,21,52.4,20.6z"/>
		<path id="XMLID_29_" class="st1" d="M56.7,20.6c0.8,0,1.6,0,2.5,0c0.7,0,1.3,0.5,1.4,1.2c0.1,0.7,0.1,1.4,0,2.1
			c0,0.6-0.5,1.1-1.1,1.2c0.4,1.2,0.9,2.5,1.3,3.7c-0.5,0-1,0-1.5,0c-0.4-1.3-0.9-2.5-1.3-3.8c0,1.3,0,2.5,0,3.8c-0.5,0-0.9,0-1.4,0
			C56.7,26.1,56.7,23.3,56.7,20.6 M58.1,21.7c0,0.9,0,1.7,0,2.6c0.4,0,1,0.1,1.1-0.4c0.1-0.6,0.1-1.2,0-1.8
			C59.1,21.6,58.5,21.7,58.1,21.7z"/>
		<path id="XMLID_28_" class="st1" d="M66.5,20.6c0.5,0,0.9,0,1.4,0c0.5,1.6,1,3.1,1.5,4.7c0-1.6,0-3.1,0-4.7c0.4,0,0.8,0,1.2,0
			c0,2.8,0,5.5,0,8.3c-0.4,0-0.8,0-1.2,0c-0.5-1.7-1.1-3.5-1.6-5.2c0,1.7,0,3.4,0,5.2c-0.4,0-0.8,0-1.2,0
			C66.5,26.1,66.5,23.3,66.5,20.6z"/>
		<path id="XMLID_27_" class="st1" d="M39.6,32.4c0.8-0.5,1.8-0.5,2.5,0c0.7,0.5,0.7,1.5,0.7,2.3c-0.4,0-0.9,0-1.3,0
			c0-0.3,0-0.7,0-1c-0.1-0.5-1-0.5-1.2,0c-0.1,0.4-0.1,0.8,0.2,1.2c0.7,0.8,1.5,1.4,2.1,2.2c0.5,0.7,0.4,1.6,0.2,2.4
			c-0.4,1.3-2.2,1.5-3.2,0.8c-0.9-0.6-0.7-1.8-0.7-2.7c0.4,0,0.9,0,1.3,0c0,0.5,0,1,0,1.4c0.1,0.6,1.1,0.6,1.2,0.1
			c0.1-0.5,0.1-1.1-0.3-1.5c-0.7-0.9-1.8-1.5-2.2-2.6C38.8,34.1,38.8,33,39.6,32.4z"/>
		<path id="XMLID_24_" class="st1" d="M66.7,32.2c0.7-0.1,1.6-0.1,2.1,0.5c0.5,0.4,0.6,1.1,0.6,1.8c0,1.4,0,2.7,0,4.1
			c0,0.8-0.4,1.6-1.1,1.9c-0.7,0.3-1.6,0.3-2.3-0.2c-0.6-0.4-0.8-1.2-0.8-1.9c0-1.4,0-2.8,0-4.2C65.3,33.2,65.8,32.3,66.7,32.2
			 M67,33.3c-0.3,0.1-0.4,0.5-0.4,0.8c0,1.5,0,3.1,0,4.6c0,0.5,0.5,0.8,0.9,0.7c0.4-0.1,0.5-0.6,0.5-0.9c0-1.5,0-3,0-4.5
			C68.1,33.5,67.5,33.1,67,33.3z"/>
		<path id="XMLID_23_" class="st1" d="M75.1,33.1c0.5-1.2,2-1.3,3-0.8c0.8,0.5,0.8,1.5,0.7,2.3c-0.4,0-0.9,0-1.3,0
			c0-0.4,0-0.8-0.1-1.1c-0.2-0.5-1.2-0.4-1.2,0.2c-0.2,0.7,0.5,1.3,1,1.7c0.7,0.7,1.6,1.4,1.7,2.4c0.1,0.9,0,1.9-0.8,2.4
			c-0.8,0.4-2,0.4-2.7-0.2c-0.7-0.7-0.5-1.7-0.5-2.5c0.4,0,0.9,0,1.3,0c0,0.5,0,0.9,0,1.4c0.1,0.6,1.1,0.6,1.2,0.1
			c0.1-0.5,0.1-1.1-0.3-1.5c-0.6-0.6-1.2-1.2-1.7-1.8C74.9,35.1,74.9,34,75.1,33.1z"/>
		<path id="XMLID_22_" class="st1" d="M31.9,32.2c0.5,0,0.9,0,1.4,0c0,2.8,0,5.5,0,8.3c-0.5,0-0.9,0-1.4,0
			C31.9,37.7,31.9,35,31.9,32.2z"/>
		<path id="XMLID_21_" class="st1" d="M34.1,32.2c0.5,0,0.9,0,1.4,0c0.5,1.6,1,3.1,1.5,4.7c0-1.6,0-3.1,0-4.7c0.4,0,0.8,0,1.2,0
			c0,2.8,0,5.5,0,8.3c-0.4,0-0.8,0-1.2,0c-0.6-1.7-1.1-3.4-1.6-5.1c0,1.7,0,3.4,0,5.1c-0.4,0-0.8,0-1.2,0
			C34.1,37.7,34.1,35,34.1,32.2z"/>
		<path id="XMLID_20_" class="st1" d="M43.2,32.2c1.2,0,2.5,0,3.7,0c0,0.4,0,0.8,0,1.1c-0.4,0-0.8,0-1.1,0c0,2.4,0,4.8,0,7.2
			c-0.5,0-0.9,0-1.4,0c0-2.4,0-4.8,0-7.2c-0.4,0-0.8,0-1.2,0C43.2,33,43.2,32.6,43.2,32.2z"/>
		<path id="XMLID_19_" class="st1" d="M47.6,32.2c0.5,0,0.9,0,1.4,0c0,2.8,0,5.5,0,8.3c-0.5,0-0.9,0-1.4,0
			C47.6,37.7,47.6,35,47.6,32.2z"/>
		<path id="XMLID_18_" class="st1" d="M49.6,32.2c1.2,0,2.5,0,3.7,0c0,0.4,0,0.8,0,1.1c-0.4,0-0.8,0-1.1,0c0,2.4,0,4.8,0,7.2
			c-0.5,0-0.9,0-1.4,0c0-2.4,0-4.8,0-7.2c-0.4,0-0.8,0-1.2,0C49.6,33,49.6,32.6,49.6,32.2z"/>
		<path id="XMLID_17_" class="st1" d="M54,32.2c0.5,0,0.9,0,1.4,0c0,2.2,0,4.4,0,6.7c0,0.7,1.3,0.8,1.3,0c0.1-2.2,0-4.4,0-6.7
			c0.4,0,0.9,0,1.3,0c0,2.1,0,4.3,0,6.4c0,0.7-0.3,1.5-0.9,1.8c-0.7,0.3-1.5,0.3-2.2-0.1C54.3,40,54,39.2,54,38.6
			C54,36.4,54,34.3,54,32.2z"/>
		<path id="XMLID_16_" class="st1" d="M58.7,32.2c1.2,0,2.5,0,3.7,0c0,0.4,0,0.8,0,1.1c-0.4,0-0.8,0-1.1,0c0,2.4,0,4.8,0,7.2
			c-0.5,0-0.9,0-1.4,0c0-2.4,0-4.8,0-7.2c-0.4,0-0.8,0-1.1,0C58.7,33,58.7,32.6,58.7,32.2z"/>
		<path id="XMLID_15_" class="st1" d="M63,40.5c0-2.8,0-5.5,0-8.3c0.5,0,0.9,0,1.4,0c0,2.8,0,5.5,0,8.3C64,40.5,63.5,40.5,63,40.5z"
			/>
		<path id="XMLID_14_" class="st1" d="M70.2,32.2c0.5,0,0.9,0,1.4,0c0.5,1.6,1,3.1,1.5,4.7c0-1.6,0-3.1,0-4.7c0.4,0,0.8,0,1.2,0
			c0,2.8,0,5.5,0,8.3c-0.4,0-0.8,0-1.2,0c-0.6-1.7-1.1-3.4-1.6-5.1c0,1.7,0,3.4,0,5.1c-0.4,0-0.8,0-1.2,0
			C70.2,37.7,70.2,35,70.2,32.2z"/>
		<path id="XMLID_13_" class="st1" d="M70.1,44.9c0.7-0.7,1.7-0.8,2.6-0.8c0,0.9-0.1,1.9-0.8,2.6c-0.7,0.7-1.7,0.8-2.6,0.8
			C69.3,46.6,69.5,45.6,70.1,44.9z"/>
		<path id="XMLID_12_" class="st1" d="M65.5,47.1c-0.2-0.9,0.2-1.8,0.7-2.6c0.8,0.4,1.5,1.1,1.7,2c0.2,0.9-0.2,1.8-0.7,2.5
			C66.4,48.5,65.7,47.9,65.5,47.1z"/>
		<path id="XMLID_11_" class="st1" d="M62.9,49.7c-0.2-0.9,0.2-1.8,0.7-2.5c0.8,0.4,1.5,1.1,1.7,2c0.2,0.9-0.2,1.8-0.7,2.5
			C63.8,51.3,63.1,50.6,62.9,49.7z"/>
		<path id="XMLID_8_" class="st1" d="M64.9,52.4c1-1.7,2.7-2.8,3.8-4.5c0.1,0.1,0.3,0.2,0.4,0.3c-1,1.5-2.4,2.6-3.5,4
			c-0.6,0.8-1,1.7-1.2,2.7c0.5,0.4,1.1,0.8,1.6,1.2c-0.6,0-1.2,0-1.7,0.1c0,1.3,0.3,2.5,0.7,3.7c-0.2,0-0.4,0-0.5,0
			c-0.4-1.2-0.7-2.4-0.7-3.7c-1.4,0.2-2.8,0.7-3.7,1.9c-1,1.4-1.1,3.3-1.1,5c0.1,1.9-0.2,3.9-1.1,5.6c-0.9,1.6-2.3,2.9-3.9,3.8
			c-2.1,1.1-4.4,1.8-6.7,2.1c0,1.5,0,3.1,0,4.6c2.5,0.1,5,0.1,7.5,0.2c1.7-0.2,3.5-0.4,5.2-0.6c0-0.8,0-1.6,0-2.4
			c0-0.4,0.4-0.7,0.8-0.7c2.6,0,5.2,0,7.8,0c0.4,0,0.8,0.4,0.7,0.8c0,2.6,0,5.1,0,7.7c0,0.4-0.3,0.8-0.7,0.8c-2.6,0-5.2,0-7.8,0
			c-0.4,0-0.8-0.3-0.8-0.7c0-0.8,0-1.6,0-2.4c-1.8-0.2-3.5-0.4-5.3-0.6c-8.7,0.2-17.3,0.4-26,0.6c0-1,0-2.1,0-3.1
			c4.8,0.1,9.6,0.2,14.3,0.3c0-1.5,0-2.9,0-4.4c-1.8-0.2-3.5-0.5-5.2-1.1c-2.5-1.1-4.7-3-7.2-4c2.1,0.4,4.3,0.5,6.2-0.6
			c1.8-1.1,3.5-2.7,5.7-2.9c-1.7-0.2-3.5-0.8-4.8-2c-1.7-1.5-2.6-3.6-3.1-5.7c-0.4-1.9-0.8-3.9-1.5-5.7c-0.5-1.3-1.4-2.5-2.7-3.1
			c2-0.2,4.1-0.1,6.1,0.5c2.8,0.9,5.2,2.7,7.2,4.7c1.5,1.5,3.5,2.9,5.7,3.1c2,0.2,3.9-0.6,5.3-1.9c1.3-1.2,2.6-2.4,4.2-3.3
			c0.9-0.5,2-0.7,2.9-0.1c0.7,0.5,1.2,1.3,1.9,1.8C64.2,53.8,64.5,53.1,64.9,52.4 M44.5,74.8c0,1.5,0,2.9,0,4.4c0.6,0,1.1,0,1.7,0
			c0-1.5,0-3,0-4.5C45.6,74.8,45.1,74.8,44.5,74.8z"/>
		<path id="XMLID_7_" class="st1" d="M70.5,49.1c0.8,0,1.5,0.4,2.1,0.9c-0.5,0.6-1.1,1.2-2,1.3c-0.8,0.1-1.6-0.4-2.2-0.9
			C69,49.7,69.7,49.1,70.5,49.1z"/>
		<path id="XMLID_6_" class="st1" d="M66.1,52.8c0.6-0.5,1.5-1,2.3-0.8c0.8,0.1,1.4,0.7,1.9,1.3c-0.6,0.5-1.4,0.9-2.2,0.9
			C67.3,54.1,66.6,53.5,66.1,52.8z"/>
		<path id="XMLID_5_" class="st1" d="M60.2,72.6c2.9-0.1,5.8,0,8.8-0.1c0.6-0.1,1.3,0.4,1.4,1c0.1,0.7-0.4,1.4-1.2,1.4
			c-2.9,0-5.7,0-8.6,0c-0.6,0-1.2-0.5-1.2-1.1C59.3,73.3,59.7,72.7,60.2,72.6z"/>
		<path id="XMLID_4_" class="st1" d="M26.3,78.2c0.5-0.1,1.2-0.1,1.6,0.4c0.4,0.6,0.2,1.3,0.3,1.9c0,0.7,0.2,1.7-0.6,2.1
			c-0.7,0.2-1.7,0.2-2-0.6c-0.2-0.8,0-1.6-0.1-2.4C25.5,78.9,25.7,78.3,26.3,78.2z"/>
		<path id="XMLID_3_" class="st1" d="M60.3,85.9c2.9-0.1,5.8,0,8.8,0c0.7,0,1.3,0.6,1.3,1.2c0,0.7-0.6,1.2-1.3,1.2
			c-2.8,0-5.7,0-8.5,0c-0.6,0-1.2-0.5-1.2-1.1C59.3,86.6,59.7,86,60.3,85.9z"/>
	</g>
</g>
<g id="XMLID_67_">
	<g id="XMLID_68_">
		<rect id="XMLID_132_" x="100" class="st1" width="100" height="100"/>
		<path id="XMLID_129_" class="st0" d="M117.4,10c1.1-1.1,2.7-1.3,4.2-1.1c1.2,0.1,2.4,0.5,3.1,1.6c0.8,1.3,0.8,2.9,0.8,4.4
			c-1,0-2,0-3.1,0c0-0.8,0.1-1.7-0.2-2.5c-0.3-0.8-1.4-0.9-2.1-0.6c-0.7,0.3-0.8,1-0.9,1.7c0,1.5,0,3,0,4.5c1.1-2.2,4.6-2.1,5.8,0
			c0.8,1.5,0.7,3.3,0.7,4.9c0,1.6,0.1,3.3-0.8,4.6c-0.8,1.1-2.1,1.6-3.5,1.7c-1.4,0.1-3-0.1-4-1.1c-1.1-1-1.4-2.6-1.4-4
			c0-3.3,0-6.6,0-9.9C116,12.6,116.3,11,117.4,10 M120.4,19.1c-0.8,0.2-1,1.2-1,1.9c0.1,1.5-0.2,3.1,0.2,4.6c0.4,1,1.9,1.1,2.5,0.4
			c0.5-0.6,0.4-1.5,0.4-2.2c0-1.2,0.1-2.4-0.1-3.6C122.2,19.2,121.2,18.8,120.4,19.1z"/>
		<path id="XMLID_128_" class="st0" d="M145.7,10.4c0.2-1.6,2.4-2,3.5-1c0.7,0.7,0.5,1.7,0.5,2.6c-0.4,0-0.9,0-1.3,0
			c0-0.5,0.1-1.1-0.1-1.6c-0.3-0.5-1.3-0.3-1.3,0.3c0,1.6,0,3.2,0,4.8c-0.1,0.7,1,1,1.3,0.3c0.2-0.6,0.1-1.3,0.1-2
			c0.4,0,0.9,0,1.3,0c0,0.9,0.2,1.9-0.3,2.8c-0.6,0.8-1.8,0.9-2.7,0.5c-0.9-0.4-1.1-1.4-1.1-2.3C145.6,13.4,145.5,11.8,145.7,10.4z"
			/>
		<path id="XMLID_127_" class="st0" d="M168,9.1c0.8-0.4,1.8-0.4,2.5,0c0.7,0.5,0.6,1.5,0.6,2.2c-0.4,0-0.9,0-1.3,0
			c0-0.4,0-0.8-0.1-1.1c-0.3-0.5-1.2-0.4-1.2,0.2c-0.2,0.8,0.5,1.3,1,1.8c0.7,0.7,1.5,1.4,1.6,2.4c0.1,0.9,0,2-0.9,2.4
			c-0.8,0.4-1.9,0.4-2.6-0.2c-0.7-0.7-0.5-1.7-0.5-2.5c0.4,0,0.9,0,1.3,0c0,0.5-0.1,1,0.1,1.5c0.2,0.6,1.2,0.4,1.2-0.3
			c0.2-1.8-2.1-2.4-2.5-3.9C167.1,10.8,167.1,9.7,168,9.1z"/>
		<path id="XMLID_126_" class="st0" d="M179.4,9c0.8-0.2,1.8-0.2,2.4,0.5c0.5,0.7,0.4,1.7,0.4,2.5c-0.4,0-0.9,0-1.3,0
			c0-0.5,0.1-1.1-0.1-1.6c-0.3-0.5-1.3-0.3-1.2,0.4c0,1.6,0,3.2,0,4.8c-0.1,0.7,1,1,1.3,0.4c0.2-0.7,0.1-1.4,0.1-2
			c0.4,0,0.9,0,1.3,0c0,0.9,0.2,1.9-0.3,2.7c-0.5,0.9-1.7,0.9-2.6,0.6c-0.8-0.3-1.2-1.2-1.2-2c0-1.4,0-2.9,0-4.3
			C178.2,10.1,178.6,9.2,179.4,9z"/>
		<path id="XMLID_125_" class="st0" d="M111.4,9.1c0.9,0,1.8,0,2.7,0c0,6.6,0,13.2,0,19.9c-1.1,0-2.2,0-3.3,0c0-5.1,0-10.1,0-15.2
			c-0.8,0.8-1.6,1.7-2.4,2.5c0-1.1,0-2.2,0-3.3c0-0.2,0.1-0.4,0.3-0.6C109.6,11.2,110.5,10.1,111.4,9.1z"/>
		<path id="XMLID_122_" class="st0" d="M131.9,9c1.1,0.1,2.2-0.2,3.2,0.2c0.9,0.4,0.8,1.5,0.8,2.3c0,0.8,0.2,1.7-0.4,2.4
			c-0.5,0.6-1.5,0.6-2.2,0.6c0,0.9,0,1.9,0,2.8c-0.5,0-0.9,0-1.4,0C131.9,14.5,131.9,11.7,131.9,9 M133.3,10.1c0,1.1,0,2.2,0,3.3
			c0.4,0,1,0.1,1.1-0.4c0.1-0.8,0.1-1.6,0-2.4C134.4,10,133.7,10.1,133.3,10.1z"/>
		<path id="XMLID_121_" class="st0" d="M136.6,9c1.1,0,2.2,0,3.3,0c0,0.4,0,0.8,0,1.2c-0.6,0-1.3,0-1.9,0c0,0.8,0,1.6,0,2.4
			c0.5,0,0.9,0,1.4,0c0,0.4,0,0.8,0,1.1c-0.5,0-0.9,0-1.4,0c0,0.8,0,1.7,0,2.5c0.6,0,1.3,0,1.9,0c0,0.4,0,0.8,0,1.2
			c-1.1,0-2.2,0-3.3,0C136.6,14.5,136.6,11.7,136.6,9z"/>
		<path id="XMLID_118_" class="st0" d="M142,9c0.5,0,1.1,0,1.6,0c0.5,2.8,1.1,5.5,1.6,8.3c-0.5,0-1,0-1.4,0c-0.1-0.5-0.2-1-0.3-1.5
			c-0.5,0-1,0-1.5,0c-0.1,0.5-0.2,1-0.2,1.5c-0.4,0-0.9,0-1.3,0C141,14.5,141.5,11.7,142,9 M142.2,14.6c0.4,0,0.7,0,1.1,0
			c-0.2-1.1-0.4-2.2-0.5-3.3C142.6,12.4,142.4,13.5,142.2,14.6z"/>
		<path id="XMLID_117_" class="st0" d="M150.4,9c1.1,0,2.2,0,3.4,0c0,0.4,0,0.8,0,1.2c-0.6,0-1.3,0-1.9,0c0,0.8,0,1.6,0,2.4
			c0.5,0,0.9,0,1.4,0c0,0.4,0,0.8,0,1.1c-0.5,0-0.9,0-1.4,0c0,0.8,0,1.7,0,2.5c0.6,0,1.3,0,1.9,0c0,0.4,0,0.8,0,1.2
			c-1.1,0-2.2,0-3.4,0C150.4,14.5,150.4,11.7,150.4,9z"/>
		<path id="XMLID_116_" class="st0" d="M160.3,9c0.5,0,0.9,0,1.4,0c0,2.3,0,4.6,0,6.9c-0.1,1.6-2.4,2-3.4,1c-0.6-0.9-0.3-2-0.4-3
			c0.4,0,0.9,0,1.3,0c0,0.7-0.1,1.3,0.1,2c0.1,0.5,1,0.4,1-0.1C160.3,13.5,160.3,11.2,160.3,9z"/>
		<path id="XMLID_115_" class="st0" d="M162.5,9c0.5,0,0.9,0,1.4,0c0,2.2,0,4.4,0,6.7c0,0.8,1.3,0.7,1.3,0c0.1-2.2,0-4.4,0-6.7
			c0.4,0,0.9,0,1.3,0c0,2.1,0,4.2,0,6.3c0,0.7-0.2,1.4-0.8,1.8c-1.2,0.7-3.2,0.3-3.3-1.3C162.4,13.5,162.5,11.2,162.5,9z"/>
		<path id="XMLID_114_" class="st0" d="M171.6,9c1.2,0,2.5,0,3.7,0c0,0.4,0,0.8,0,1.1c-0.4,0-0.8,0-1.1,0c0,2.4,0,4.8,0,7.2
			c-0.5,0-1,0-1.4,0c0-2.4,0-4.8,0-7.2c-0.4,0-0.8,0-1.1,0C171.6,9.7,171.6,9.3,171.6,9z"/>
		<path id="XMLID_113_" class="st0" d="M176,9c0.5,0,0.9,0,1.4,0c0,2.8,0,5.5,0,8.3c-0.5,0-0.9,0-1.4,0C176,14.5,176,11.7,176,9z"/>
		<path id="XMLID_112_" class="st0" d="M183,9c1.1,0,2.2,0,3.3,0c0,0.4,0,0.8,0,1.2c-0.6,0-1.3,0-1.9,0c0,0.8,0,1.6,0,2.4
			c0.5,0,0.9,0,1.4,0c0,0.4,0,0.8,0,1.1c-0.5,0-0.9,0-1.4,0c0,0.8,0,1.7,0,2.5c0.6,0,1.3,0,1.9,0c0,0.4,0,0.8,0,1.2
			c-1.1,0-2.2,0-3.3,0C183,14.5,183,11.7,183,9z"/>
		<path id="XMLID_111_" class="st0" d="M154.6,15.9c0.5,0,0.9,0,1.4,0c-0.2,0.7-0.5,1.3-0.8,2c-0.3,0-0.5,0-0.8,0
			C154.4,17.3,154.5,16.6,154.6,15.9z"/>
		<path id="XMLID_110_" class="st0" d="M148.7,20.8c0.7-0.5,1.8-0.5,2.5,0c0.8,0.5,0.7,1.5,0.7,2.3c-0.4,0-0.9,0-1.3,0
			c0-0.5,0.1-1.4-0.6-1.4c-0.7-0.1-0.8,1-0.5,1.4c0.7,1,1.9,1.6,2.4,2.8c0.2,1,0.3,2.3-0.8,2.9c-0.8,0.4-2,0.4-2.7-0.2
			c-0.7-0.7-0.5-1.7-0.5-2.5c0.4,0,0.9,0,1.3,0c0,0.5-0.1,1.1,0.1,1.6c0.3,0.5,1.2,0.3,1.2-0.3c0.2-1.8-2.1-2.3-2.5-3.9
			C147.9,22.5,147.9,21.4,148.7,20.8z"/>
		<path id="XMLID_107_" class="st0" d="M163.2,20.5c1-0.2,2.2,0.3,2.4,1.4c0.2,1.2,0,2.4,0.1,3.6c0,0.9,0.1,1.8-0.3,2.6
			c-0.9,1.4-3.6,1.1-3.8-0.7c-0.1-1.6,0-3.3-0.1-4.9C161.4,21.5,162.2,20.5,163.2,20.5 M163.3,21.7c-0.5,0.1-0.5,0.7-0.5,1.1
			c0,1.5,0,3,0,4.4c0,0.6,0.8,0.8,1.2,0.4c0.3-0.3,0.2-0.8,0.2-1.2c0-1.4,0-2.8,0-4.2C164.2,21.8,163.7,21.6,163.3,21.7z"/>
		<path id="XMLID_106_" class="st0" d="M172.6,20.6c0.8-0.2,1.7-0.2,2.3,0.4c0.6,0.6,0.5,1.6,0.5,2.3c-0.4,0-0.9,0-1.3,0
			c0-0.4,0.1-0.9-0.1-1.3c-0.3-0.5-1.3-0.3-1.3,0.3c0,1.6,0,3.3,0,4.9c0,0.6,1,0.8,1.2,0.3c0.2-0.6,0.1-1.3,0.1-1.9
			c-0.2,0-0.4,0-0.7,0c0-0.4,0-0.7,0-1.1c0.7,0,1.3,0,2,0c0,1.5,0,3,0,4.4c-0.3,0-0.7,0-1,0c0-0.3,0-0.5,0-0.8
			c-0.4,0.9-1.7,1.1-2.4,0.5c-0.6-0.5-0.7-1.3-0.7-2c0-1.3,0-2.7,0-4C171.3,21.7,171.7,20.8,172.6,20.6z"/>
		<path id="XMLID_103_" class="st0" d="M133.2,20.6c0.5,0,1.1,0,1.6,0c0.5,2.8,1.1,5.5,1.6,8.3c-0.5,0-1,0-1.4,0
			c-0.1-0.5-0.2-1-0.3-1.5c-0.5,0-1,0-1.5,0c-0.1,0.5-0.2,1-0.2,1.5c-0.4,0-0.9,0-1.3,0C132.2,26.1,132.7,23.3,133.2,20.6 M134,23.2
			c-0.2,1-0.3,2-0.5,3c0.4,0,0.7,0,1.1,0C134.3,25.2,134.3,24.2,134,23.2z"/>
		<path id="XMLID_102_" class="st0" d="M137,20.6c0.5,0,0.9,0,1.4,0c0.5,1.5,1,3.1,1.5,4.6c0-1.5,0-3.1,0-4.6c0.4,0,0.8,0,1.2,0
			c0,2.8,0,5.5,0,8.3c-0.4,0-0.8,0-1.2,0c-0.5-1.7-1.1-3.4-1.6-5.1c0,1.7,0,3.4,0,5.1c-0.4,0-0.8,0-1.2,0
			C137,26.1,137,23.3,137,20.6z"/>
		<path id="XMLID_99_" class="st0" d="M141.8,20.6c1,0,1.9-0.1,2.9,0.1c0.8,0.2,1.3,1.1,1.3,1.9c0,1.4,0,2.9,0,4.3
			c0,0.8-0.4,1.8-1.3,2c-0.9,0.2-1.9,0.1-2.9,0.1C141.8,26.1,141.8,23.3,141.8,20.6 M143.2,21.7c0,2,0,4,0,6c0.5,0,1.3,0,1.4-0.7
			c0-1.6,0-3.1,0-4.7C144.6,21.7,143.7,21.7,143.2,21.7z"/>
		<path id="XMLID_98_" class="st0" d="M152.4,20.6c1.2,0,2.5,0,3.7,0c0,0.4,0,0.8,0,1.2c-0.4,0-0.8,0-1.1,0c0,2.4,0,4.8,0,7.2
			c-0.5,0-1,0-1.4,0c0-2.4,0-4.8,0-7.2c-0.4,0-0.8,0-1.1,0C152.4,21.3,152.4,21,152.4,20.6z"/>
		<path id="XMLID_95_" class="st0" d="M156.7,20.6c1.1,0.1,2.3-0.2,3.3,0.3c0.9,0.6,0.7,1.9,0.7,2.8c0,0.7-0.5,1.3-1.1,1.5
			c0.4,1.2,0.9,2.5,1.3,3.7c-0.5,0-1,0-1.5,0c-0.4-1.2-0.8-2.5-1.3-3.7c0,1.2,0,2.5,0,3.7c-0.5,0-0.9,0-1.4,0
			C156.7,26.1,156.7,23.3,156.7,20.6 M158.1,21.7c0,0.9,0,1.7,0,2.6c0.4-0.1,0.9,0.1,1.1-0.4c0.1-0.6,0.1-1.3,0-1.9
			C159,21.6,158.5,21.8,158.1,21.7z"/>
		<path id="XMLID_94_" class="st0" d="M166.5,20.6c0.5,0,0.9,0,1.4,0c0.5,1.6,1,3.1,1.5,4.7c0-1.6,0-3.1,0-4.7c0.4,0,0.8,0,1.2,0
			c0,2.8,0,5.5,0,8.3c-0.4,0-0.8,0-1.2,0c-0.5-1.7-1.1-3.4-1.6-5.1c0,1.7,0,3.4,0,5.1c-0.4,0-0.8,0-1.2,0
			C166.5,26.1,166.5,23.3,166.5,20.6z"/>
		<path id="XMLID_93_" class="st0" d="M139.4,32.5c0.7-0.6,1.9-0.6,2.7-0.1c0.8,0.5,0.7,1.5,0.7,2.3c-0.4,0-0.9,0-1.3,0
			c0-0.4,0-0.7-0.1-1.1c-0.2-0.5-1-0.5-1.2,0c-0.1,0.4-0.1,0.8,0.2,1.1c0.8,1,1.9,1.6,2.4,2.8c0.2,0.9,0.2,2.2-0.7,2.8
			c-0.8,0.4-1.9,0.4-2.6-0.2c-0.7-0.7-0.5-1.7-0.5-2.6c0.4,0,0.9,0,1.3,0c0,0.5-0.1,1,0.1,1.5c0.2,0.6,1.3,0.4,1.2-0.3
			c0.2-1.3-1.1-1.9-1.8-2.7C138.7,35.2,138.5,33.5,139.4,32.5z"/>
		<path id="XMLID_90_" class="st0" d="M167.2,32.1c0.9-0.1,1.8,0.4,2.1,1.3c0.3,1.1,0.1,2.2,0.1,3.3c0,1,0.2,2-0.3,2.9
			c-0.8,1.5-3.7,1.2-3.9-0.6c-0.1-1.6-0.1-3.3-0.1-4.9C165.2,33,166.1,32,167.2,32.1 M167,33.4c-0.4,0.3-0.3,0.8-0.3,1.3
			c0,1.4-0.1,2.9,0.1,4.3c0.1,0.7,1.4,0.6,1.4-0.1c0-1.6,0-3.2,0-4.8C168.1,33.5,167.4,33.1,167,33.4z"/>
		<path id="XMLID_89_" class="st0" d="M175.5,32.6c0.7-0.6,1.8-0.6,2.6-0.2c0.8,0.5,0.8,1.5,0.7,2.3c-0.4,0-0.9,0-1.3,0
			c0-0.4,0-0.8-0.1-1.2c-0.3-0.4-1.1-0.4-1.2,0.2c-0.1,0.4,0,0.8,0.2,1.1c0.7,0.9,1.7,1.5,2.2,2.5c0.3,0.7,0.3,1.6,0.1,2.3
			c-0.5,1.2-2.1,1.3-3.1,0.8c-0.9-0.6-0.7-1.8-0.7-2.7c0.4,0,0.9,0,1.3,0c0,0.5-0.1,1,0.1,1.5c0.3,0.6,1.3,0.4,1.2-0.3
			c0.2-1.2-1.1-1.9-1.8-2.7C174.9,35.3,174.6,33.5,175.5,32.6z"/>
		<path id="XMLID_88_" class="st0" d="M131.9,32.2c0.5,0,0.9,0,1.4,0c0,2.8,0,5.5,0,8.3c-0.5,0-0.9,0-1.4,0
			C131.9,37.7,131.9,35,131.9,32.2z"/>
		<path id="XMLID_87_" class="st0" d="M134.1,32.2c0.5,0,0.9,0,1.4,0c0.5,1.6,1,3.1,1.5,4.7c0-1.6,0-3.1,0-4.7c0.4,0,0.8,0,1.2,0
			c0,2.8,0,5.5,0,8.3c-0.4,0-0.8,0-1.3,0c-0.5-1.7-1.1-3.4-1.6-5.1c0,1.7,0,3.4,0,5.1c-0.4,0-0.8,0-1.2,0
			C134.1,37.7,134.1,35,134.1,32.2z"/>
		<path id="XMLID_86_" class="st0" d="M143.2,32.2c1.2,0,2.5,0,3.7,0c0,0.4,0,0.8,0,1.2c-0.4,0-0.8,0-1.1,0c0,2.4,0,4.8,0,7.1
			c-0.5,0-1,0-1.4,0c0-2.4,0-4.8,0-7.1c-0.4,0-0.8,0-1.2,0C143.2,33,143.2,32.6,143.2,32.2z"/>
		<path id="XMLID_85_" class="st0" d="M147.6,32.2c0.5,0,0.9,0,1.4,0c0,2.8,0,5.5,0,8.3c-0.5,0-0.9,0-1.4,0
			C147.6,37.7,147.6,35,147.6,32.2z"/>
		<path id="XMLID_84_" class="st0" d="M149.6,32.2c1.2,0,2.5,0,3.7,0c0,0.4,0,0.8,0,1.2c-0.4,0-0.8,0-1.1,0c0,2.4,0,4.8,0,7.1
			c-0.5,0-1,0-1.4,0c0-2.4,0-4.8,0-7.1c-0.4,0-0.8,0-1.2,0C149.6,33,149.6,32.6,149.6,32.2z"/>
		<path id="XMLID_83_" class="st0" d="M154,32.2c0.5,0,0.9,0,1.4,0c0,2.2,0,4.4,0,6.6c0,0.8,1.4,0.8,1.3,0c0-2.2,0-4.4,0-6.6
			c0.4,0,0.9,0,1.3,0c0,2.1,0,4.2,0,6.4c0,0.7-0.2,1.5-0.9,1.8c-0.7,0.3-1.5,0.3-2.2,0c-0.7-0.3-1-1.1-0.9-1.8
			C154,36.4,154,34.3,154,32.2z"/>
		<path id="XMLID_82_" class="st0" d="M158.7,32.2c1.2,0,2.5,0,3.7,0c0,0.4,0,0.8,0,1.2c-0.4,0-0.8,0-1.1,0c0,2.4,0,4.8,0,7.1
			c-0.5,0-1,0-1.4,0c0-2.4,0-4.8,0-7.1c-0.4,0-0.8,0-1.1,0C158.7,33,158.7,32.6,158.7,32.2z"/>
		<path id="XMLID_81_" class="st0" d="M163,32.2c0.5,0,0.9,0,1.4,0c0,2.8,0,5.5,0,8.3c-0.5,0-0.9,0-1.4,0C163,37.7,163,35,163,32.2z
			"/>
		<path id="XMLID_80_" class="st0" d="M170.2,32.2c0.5,0,0.9,0,1.4,0c0.5,1.6,1,3.1,1.5,4.7c0-1.6,0-3.1,0-4.7c0.4,0,0.8,0,1.2,0
			c0,2.8,0,5.5,0,8.3c-0.4,0-0.8,0-1.2,0c-0.5-1.7-1.1-3.4-1.6-5.1c0,1.7,0,3.4,0,5.1c-0.4,0-0.8,0-1.2,0
			C170.2,37.7,170.2,35,170.2,32.2z"/>
		<path id="XMLID_79_" class="st0" d="M170.2,44.9c0.7-0.7,1.7-0.8,2.6-0.8c0,0.9-0.1,2-0.8,2.7c-0.7,0.7-1.7,0.8-2.6,0.8
			C169.3,46.6,169.5,45.6,170.2,44.9z"/>
		<path id="XMLID_78_" class="st0" d="M165.4,47c-0.2-0.9,0.2-1.8,0.7-2.5c0.8,0.5,1.5,1.1,1.7,2c0.2,0.9-0.2,1.8-0.7,2.5
			C166.4,48.5,165.6,47.9,165.4,47z"/>
		<path id="XMLID_77_" class="st0" d="M163.5,47.2c0.7,0.5,1.5,1.1,1.7,2c0.2,0.9-0.2,1.8-0.7,2.5c-0.8-0.5-1.5-1.1-1.7-2
			C162.7,48.8,163.1,48,163.5,47.2z"/>
		<path id="XMLID_74_" class="st0" d="M168.8,47.9c0.1,0.1,0.3,0.2,0.4,0.3c-1.5,2.3-4.3,3.8-4.7,6.8c0.5,0.4,1.1,0.8,1.6,1.2
			c-0.6,0-1.1,0-1.7,0.1c0,1.3,0.3,2.5,0.7,3.7c-0.2,0-0.4,0-0.5,0c-0.4-1.2-0.7-2.4-0.7-3.7c-1.3,0.2-2.7,0.7-3.5,1.8
			c-1.2,1.5-1.3,3.6-1.2,5.5c0.1,2.6-0.7,5.2-2.5,7.1c-2.4,2.5-5.9,3.6-9.2,4.1c0,1.5,0,3.1,0,4.6c1.9,0.1,3.9,0.1,5.8,0.1
			c2.3,0.2,4.6-0.3,6.9-0.5c0-0.8,0-1.6,0-2.5c0-0.4,0.4-0.7,0.8-0.6c2.6,0,5.2,0,7.8,0c0.4,0,0.8,0.3,0.7,0.8c0,2.6,0,5.1,0,7.7
			c0.1,0.4-0.3,0.8-0.7,0.8c-2.6,0-5.2,0-7.8,0c-0.4,0-0.8-0.3-0.8-0.7c0-0.8,0-1.6,0-2.4c-1.8-0.2-3.5-0.4-5.3-0.6
			c-8.6,0.2-17.3,0.4-25.9,0.6c0-1,0-2.1,0-3.1c4.8,0.1,9.6,0.2,14.3,0.3c0-1.5,0-2.9,0-4.4c-2.3-0.2-4.6-0.7-6.6-1.8
			c-2-1.1-3.8-2.5-5.9-3.3c2.2,0.4,4.6,0.5,6.5-0.7c1.7-1.1,3.3-2.5,5.4-2.8c-2.7-0.2-5.3-1.9-6.5-4.3c-1.5-2.7-1.6-5.9-2.6-8.7
			c-0.5-1.4-1.4-2.8-2.8-3.4c1.7-0.2,3.5-0.2,5.2,0.3c2.5,0.6,4.8,2,6.7,3.7c0.9,0.8,1.7,1.8,2.7,2.5c1.4,1.1,3.2,1.9,5,1.9
			c1.7,0,3.4-0.8,4.7-1.9c1.4-1.2,2.7-2.5,4.3-3.3c0.9-0.4,2-0.6,2.8,0c0.6,0.5,1.1,1.2,1.8,1.7C164.6,51.7,167.2,50.2,168.8,47.9
			 M144.5,74.9c0,1.5,0,2.9,0,4.4c0.6,0,1.1,0,1.7,0c0-1.5,0-3,0-4.5C145.6,74.8,145.1,74.8,144.5,74.9z"/>
		<path id="XMLID_73_" class="st0" d="M168.5,50.4c0.5-0.6,1.2-1.2,2-1.3c0.9-0.1,1.6,0.4,2.2,0.9c-0.5,0.6-1.2,1.3-2.1,1.3
			C169.8,51.3,169,50.9,168.5,50.4z"/>
		<path id="XMLID_72_" class="st0" d="M166.1,52.8c0.6-0.5,1.4-0.9,2.2-0.8c0.8,0.1,1.5,0.7,2,1.3c-0.6,0.5-1.4,0.9-2.2,0.9
			C167.3,54.1,166.6,53.4,166.1,52.8z"/>
		<path id="XMLID_71_" class="st0" d="M160.2,72.6c2.9-0.1,5.8,0,8.7-0.1c0.7-0.1,1.3,0.4,1.4,1c0.1,0.7-0.5,1.5-1.3,1.4
			c-2.9,0-5.8,0-8.7,0C159.1,74.8,159,72.8,160.2,72.6z"/>
		<path id="XMLID_70_" class="st0" d="M126.3,78.2c0.7-0.1,1.6,0,1.8,0.8c0.1,0.9,0.1,1.8,0,2.7c-0.1,1.3-2.4,1.4-2.6,0.1
			c-0.1-0.8,0-1.6,0-2.5C125.5,78.8,125.8,78.3,126.3,78.2z"/>
		<path id="XMLID_69_" class="st0" d="M160.1,86c2.9-0.2,5.9,0,8.8-0.1c0.7-0.1,1.4,0.4,1.4,1.1c0.1,0.7-0.6,1.4-1.3,1.3
			c-2.9,0-5.7,0-8.6,0C159.2,88.3,158.9,86.4,160.1,86z"/>
	</g>
</g>
</svg>
