<?xml version="1.0" encoding="utf-8"?>
<!-- Generator: Adobe Illustrator 19.0.0, SVG Export Plug-In . SVG Version: 6.00 Build 0)  -->
<svg version="1.1" id="Layer_1" xmlns="http://www.w3.org/2000/svg" xmlns:xlink="http://www.w3.org/1999/xlink" x="0px" y="0px"
	 viewBox="312 247 300 300" style="enable-background:new 312 247 300 300;" xml:space="preserve">
<style type="text/css">
	.st0{fill:#183668;}
	.st1{fill:#FFFFFF;}
</style>
<g>
	<rect x="312" y="247" class="st0" width="300" height="300"/>
	<path class="st1" d="M507.1,274.6c2.3-1.4,5.4-1.4,7.7,0c2.1,1.5,1.9,4.4,1.9,6.7c-1.3,0-2.5,0-3.8,0c0-1,0-2-0.1-3
		c-0.3-1.7-3.1-1.7-3.7-0.2c-0.4,1.1-0.2,2.4,0.5,3.3c2.3,2.9,5.8,4.9,7.1,8.5c0.6,2.8,0.6,6.8-2.3,8.4c-2.5,1.2-6,1.2-8.1-0.8
		c-1.9-2-1.3-5-1.4-7.5c1.3,0,2.6,0,3.9,0c0,1.5-0.1,3,0.2,4.4c0.6,1.9,3.8,1.4,3.8-0.6c0.7-5.4-6.2-7-7.5-11.7
		C504.7,279.6,504.7,276.2,507.1,274.6z"/>
	<path class="st1" d="M556.3,274.9c2.2-1.7,5.5-1.7,7.9-0.4c2.3,1.4,2.1,4.4,2.1,6.8c-1.3,0-2.6,0-3.8,0c0-1.1,0.1-2.2-0.2-3.3
		c-0.6-1.5-3.4-1.3-3.7,0.4c-0.2,1-0.2,2,0.4,2.9c2.2,3,6,5,7.3,8.7c0.5,2.8,0.6,6.6-2.2,8.3c-2.4,1.2-5.7,1.2-7.9-0.5
		c-2.2-1.9-1.5-5.1-1.6-7.7c1.3,0,2.6,0,3.9,0c0,1.5-0.2,3,0.2,4.5c0.6,1.8,3.9,1.4,3.7-0.7c0.8-3.8-3.2-5.8-5.3-8.3
		C554.1,283,553.4,277.7,556.3,274.9z"/>
	<path class="st1" d="M350.6,274.1c2.7,0,5.3,0,8,0c0,19.8,0,39.7,0,59.5c-3.3,0-6.7,0-10,0c0-15.2,0-30.4,0-45.6
		c-2.4,2.5-4.7,4.9-7.2,7.4c0-3.3,0-6.6,0-9.8c-0.1-0.7,0.4-1.2,0.8-1.8C345,280.6,347.8,277.4,350.6,274.1z"/>
	<path class="st1" d="M363.1,274.1c8.4,0,16.7,0,25.1,0c-0.2,4,0.6,8.2-0.7,12.1c-4.1,15.8-8.2,31.6-12.3,47.4c-3.3,0-6.6,0-10,0
		c4.5-17.1,8.9-34.2,13.4-51.4c-5.1,0-10.3,0-15.4,0C363.1,279.6,363.1,276.8,363.1,274.1z"/>
	<path class="st1" d="M410.3,273.9c3.1,0.2,6.4-0.5,9.4,0.6c2.5,1.1,2.7,4.2,2.6,6.5c-0.2,2.5,0.5,5.5-1.1,7.6
		c-1.6,2-4.4,1.7-6.6,1.7c0,2.8,0,5.6,0,8.4c-1.4,0-2.8,0-4.2,0C410.3,290.5,410.3,282.2,410.3,273.9 M414.5,287.1
		c1.1-0.1,2.9,0.2,3.4-1.1c0.2-2.4,0.2-4.9,0.1-7.4c-0.2-1.6-2.3-1.3-3.4-1.4C414.5,280.6,414.5,283.9,414.5,287.1z"/>
	<path class="st1" d="M427,273.9c1.6,0,3.2,0,4.8,0c1.6,8.3,3.2,16.6,4.7,24.9c-1.4,0-2.9,0-4.3,0c-0.2-1.5-0.5-3-0.8-4.5
		c-1.5,0-3,0-4.4,0c-0.2,1.5-0.5,3-0.7,4.5c-1.3,0-2.7,0-4,0C423.9,290.5,425.4,282.2,427,273.9 M427.6,290.9c1.1,0,2.2,0,3.3,0
		c-0.5-3.3-1-6.5-1.6-9.8C428.6,284.3,428.1,287.6,427.6,290.9z"/>
	<path class="st1" d="M438.2,273.9c3.2,0.2,6.7-0.6,9.7,0.8c2.9,1.8,2,5.8,2.1,8.6c0.1,2-1.4,3.7-3.3,4.2c1.3,3.7,2.7,7.5,4,11.2
		c-1.5,0-2.9,0-4.4,0c-1.3-3.7-2.5-7.5-3.9-11.2c-0.1,3.7,0,7.5,0,11.2c-1.4,0-2.8,0-4.2,0C438.2,290.5,438.2,282.2,438.2,273.9
		 M442.4,277.3c0,2.6,0,5.2,0,7.8c1.1-0.1,2.9,0.2,3.3-1.2c0.2-1.8,0.2-3.6,0-5.4C445.3,277,443.5,277.4,442.4,277.3z"/>
	<path class="st1" d="M451.5,273.9c3.7,0,7.4,0,11.1,0c0,1.1,0,2.3,0,3.4c-1.1,0-2.3,0-3.4,0c0,7.2,0,14.3,0,21.5
		c-1.4,0-2.8,0-4.3,0c0-7.2,0-14.3,0-21.5c-1.1,0-2.3,0-3.4,0C451.5,276.2,451.5,275,451.5,273.9z"/>
	<path class="st1" d="M464.5,273.9c1.4,0,2.8,0,4.1,0c1.5,4.7,3,9.4,4.5,14.1c0-4.7,0-9.4,0-14.1c1.2,0,2.3,0,3.5,0
		c0,8.3,0,16.6,0,24.9c-1.2,0-2.5,0-3.7,0c-1.6-5.2-3.2-10.4-4.9-15.5c0,5.2,0,10.4,0,15.5c-1.2,0-2.4,0-3.6,0
		C464.5,290.5,464.5,282.2,464.5,273.9z"/>
	<path class="st1" d="M479.1,273.9c3.3,0,6.6,0,10,0c0,1.1,0,2.3,0,3.4c-1.9,0-3.8,0-5.7,0c0,2.4,0,4.7,0,7.1c1.4,0,2.8,0,4.1,0
		c0,1.1,0,2.3,0,3.4c-1.4,0-2.8,0-4.1,0c0,2.5,0,5,0,7.5c1.9,0,3.8,0,5.7,0c0,1.1,0,2.3,0,3.4c-3.3,0-6.6,0-10,0
		C479.1,290.5,479.1,282.2,479.1,273.9z"/>
	<path class="st1" d="M491.3,273.9c3.2,0.2,6.6-0.6,9.6,0.7c3,1.6,2.3,5.5,2.3,8.4c0.2,2.1-1.2,4.1-3.3,4.6c1.3,3.7,2.7,7.5,4,11.2
		c-1.5,0-3,0-4.4,0c-1.3-3.7-2.5-7.4-3.9-11.1c-0.1,3.7,0,7.4,0,11.1c-1.4,0-2.8,0-4.2,0C491.3,290.5,491.3,282.2,491.3,273.9
		 M495.5,277.3c0,2.6,0,5.2,0,7.8c1.2-0.1,3.1,0.2,3.3-1.4c0.2-1.8,0.2-3.6-0.1-5.4C498.2,277,496.6,277.4,495.5,277.3z"/>
	<path class="st1" d="M519.2,273.9c1.4,0,2.8,0,4.2,0c0,3.5,0,7,0,10.5c1.3,0,2.7,0,4,0c0-3.5,0-7,0-10.5c1.4,0,2.8,0,4.3,0
		c0,8.3,0,16.6,0,24.9c-1.4,0-2.8,0-4.3,0c0-3.7,0-7.3,0-11c-1.3,0-2.7,0-4,0c0,3.7,0,7.3,0,11c-1.4,0-2.8,0-4.2,0
		C519.2,290.5,519.2,282.2,519.2,273.9z"/>
	<path class="st1" d="M534,273.9c1.4,0,2.8,0,4.2,0c0,8.3,0,16.6,0,24.9c-1.4,0-2.8,0-4.2,0C534,290.5,534,282.2,534,273.9z"/>
	<path class="st1" d="M540.6,273.9c3.1,0.2,6.2-0.4,9.2,0.5c2.5,0.9,2.9,3.9,2.8,6.2c-0.2,2.6,0.5,5.6-1.1,7.9
		c-1.6,2.1-4.5,1.8-6.8,1.8c0,2.8,0,5.6,0,8.4c-1.4,0-2.8,0-4.2,0C540.6,290.5,540.6,282.2,540.6,273.9 M544.8,277.3
		c0,3.3,0,6.6,0,9.9c1.2-0.1,3.3,0.2,3.5-1.5c0.1-2.3,0.1-4.7,0-7C548.1,277,546,277.4,544.8,277.3z"/>
	<path class="st1" d="M426.2,308.6c2.5-0.5,5.5,0,7,2.4c1.6,2.7,0.9,6.1,1.1,9.1c-0.2,3.4,0.5,7-0.6,10.4
		c-1.9,5.2-11.1,4.6-11.9-1.1c-0.5-4.8-0.1-9.6-0.2-14.4C421.4,312.1,423.2,309,426.2,308.6 M427.4,312c-1.5,0.3-1.7,2.1-1.6,3.3
		c0.1,4.4-0.1,8.8,0.1,13.2c0.1,2.4,4,2.4,4.1,0.1c0.2-4.8,0.1-9.7,0.1-14.5C430.1,312.8,428.7,311.6,427.4,312z"/>
	<path class="st1" d="M498.1,313.9c0.1-5.3,7.2-7.1,10.7-4c1.8,1.9,1.5,4.6,1.5,7c-1.3,0-2.6,0-3.8,0c-0.1-1.3,0.2-2.7-0.3-4
		c-0.9-1.7-3.9-1-3.9,0.9c-0.1,4.9-0.1,9.9,0,14.8c0,2,3.1,2.5,3.8,0.7c0.4-1.9,0.1-3.8,0.2-5.7c-0.7,0-1.3,0-1.9,0
		c0-1.1,0-2.2,0-3.3c2,0,4,0,5.9,0c0,4.4,0,8.9,0,13.3c-1,0-2,0-3,0c0-0.8,0-1.6,0-2.4c-1,3.1-5.4,3.5-7.5,1.4
		c-1.6-1.7-1.8-4.1-1.8-6.3C498.1,322.2,497.9,318,498.1,313.9z"/>
	<path class="st1" d="M518,308.5c3-0.5,6.5,1.1,7.1,4.3c0.6,3.7,0.1,7.5,0.3,11.2c-0.1,2.5,0.4,5.3-1.1,7.6c-2.8,4-10.6,3-11.3-2.2
		c-0.5-4.9-0.1-9.9-0.2-14.8C512.6,311.6,514.9,308.6,518,308.5 M518.4,312c-1.3,0.3-1.6,1.8-1.5,2.9c0.1,4.6-0.1,9.1,0.1,13.7
		c0.1,1.6,2.2,2.3,3.4,1.4c1-0.8,0.8-2.2,0.8-3.3c-0.1-4.2,0.1-8.3-0.1-12.5C521.2,312.7,519.8,311.6,518.4,312z"/>
	<path class="st1" d="M554.8,309.8c2.2-1.7,5.4-1.7,7.8-0.5c2.4,1.4,2.3,4.5,2.3,6.9c-1.3,0-2.6,0-3.9,0c0-1,0.1-2.1-0.1-3.1
		c-0.4-1.6-3.2-1.6-3.7,0c-0.3,1.1-0.2,2.4,0.6,3.3c2.2,2.8,5.7,4.8,7,8.3c0.7,2.9,0.7,6.9-2.2,8.5c-2.5,1.2-5.8,1.2-8-0.7
		c-2-2-1.4-5-1.5-7.6c1.3,0,2.6,0,3.9,0c0.1,1.5-0.2,3.1,0.2,4.6c0.8,1.7,3.9,1.2,3.7-0.9c0.7-4-3.6-5.9-5.6-8.6
		C552.7,317.5,552.1,312.5,554.8,309.8z"/>
	<path class="st1" d="M410.3,308.7c3.3,0,6.6,0,9.8,0c0,1.1,0,2.3,0,3.4c-1.9,0-3.7,0-5.6,0c0,2.4,0,4.7,0,7.1c1.4,0,2.8,0,4.1,0
		c0,1.1,0,2.3,0,3.4c-1.4,0-2.8,0-4.1,0c0,3.7,0,7.3,0,11c-1.4,0-2.8,0-4.2,0C410.3,325.3,410.3,317,410.3,308.7z"/>
	<path class="st1" d="M436.6,308.7c3.2,0.2,6.7-0.6,9.8,0.8c2.9,1.8,2,5.7,2.1,8.6c0.1,2.1-1.3,3.8-3.2,4.3c1.3,3.7,2.6,7.5,4,11.2
		c-1.5,0-2.9,0-4.4,0c-1.4-3.7-2.6-7.5-3.9-11.2c-0.1,3.7,0,7.5,0,11.2c-1.4,0-2.8,0-4.2,0C436.6,325.3,436.6,317,436.6,308.7
		 M440.8,312.1c0,2.6,0,5.2,0,7.8c1.1-0.1,2.8,0.2,3.3-1.2c0.2-1.8,0.2-3.6,0-5.4C443.8,311.9,441.9,312.2,440.8,312.1z"/>
	<path class="st1" d="M454.1,308.7c3.7,0,7.4,0,11.1,0c0,1.1,0,2.3,0,3.4c-1.1,0-2.3,0-3.4,0c0,7.2,0,14.3,0,21.5
		c-1.4,0-2.8,0-4.2,0c0-7.2,0-14.3,0-21.5c-1.2,0-2.3,0-3.5,0C454.1,311,454.1,309.9,454.1,308.7z"/>
	<path class="st1" d="M467.2,308.7c1.4,0,2.8,0,4.2,0c0,3.5,0,7,0,10.5c1.3,0,2.7,0,4,0c0-3.5,0-7,0-10.5c1.4,0,2.8,0,4.2,0
		c0,8.3,0,16.6,0,24.9c-1.4,0-2.8,0-4.2,0c0-3.7,0-7.3,0-11c-1.3,0-2.7,0-4,0c0,3.7,0,7.3,0,11c-1.4,0-2.8,0-4.2,0
		C467.2,325.3,467.2,317,467.2,308.7z"/>
	<path class="st1" d="M482,308.7c3.3,0,6.7,0,10,0c0,1.2,0,2.3,0,3.4c-1.9,0-3.9,0-5.8,0c0,2.4,0,4.7,0,7.1c1.4,0,2.8,0,4.1,0
		c0,1.1,0,2.3,0,3.4c-1.4,0-2.8,0-4.1,0c0,2.5,0,5,0,7.5c1.9,0,3.9,0,5.8,0c0,1.1,0,2.3,0,3.4c-3.3,0-6.7,0-10,0
		C482,325.3,482,317,482,308.7z"/>
	<path class="st1" d="M531.2,308.7c1.6,0,3.2,0,4.8,0c1.6,8.3,3.2,16.6,4.7,24.9c-1.4,0-2.9,0-4.3,0c-0.3-1.5-0.5-3-0.8-4.5
		c-1.5,0-3,0-4.4,0c-0.2,1.5-0.5,3-0.7,4.5c-1.3,0-2.7,0-4,0C528.1,325.3,529.7,317,531.2,308.7 M533.5,316
		c-0.6,3.2-1.1,6.5-1.6,9.7c1.1,0,2.2,0,3.3,0C534.6,322.5,534.1,319.2,533.5,316z"/>
	<path class="st1" d="M542.4,308.7c1.4,0,2.8,0,4.2,0c0,7.2,0,14.3,0,21.5c1.7,0,3.3,0,5,0c0,1.1,0,2.3,0,3.4c-3.1,0-6.1,0-9.2,0
		C542.4,325.3,542.4,317,542.4,308.7z"/>
	<path class="st1" d="M450.2,366.8c9.4-3.6,20.2-3.2,29.4,0.9c9.5,4.2,17,12.5,20.5,22.2c12.6,0.4,24.7,7.5,31.3,18.2
		c6.8,10.8,7.6,25.2,2,36.7c-2.5,5.4-6.4,10.1-11,13.8c2.3,8.2,1.8,17.3-1.5,25.2c-4.5,11-14.4,19.6-26,22.5
		c-10.4,2.7-21.9,0.8-30.9-5.2c-10.2,7.1-24,8.7-35.6,4.1c-11.7-4.5-20.9-15-23.6-27.2c-1.5-6.3-1.3-13.1,0.5-19.3
		c-9.6-7.4-15.3-19.5-14.8-31.7c0.3-12.4,7.1-24.3,17.5-30.9c5.8-3.8,12.6-5.9,19.4-6.2C431.2,379.4,439.7,370.7,450.2,366.8
		 M435.6,390.5c12.1,2.1,22.9,10.4,28.1,21.6c5.2-11.1,16-19.5,28.1-21.6c-4.7-11-16.3-18.6-28.3-18.4
		C451.7,372,440.3,379.7,435.6,390.5 M501.9,397.9c1.7,12.1-3,24.8-11.9,33.1c12.3,1.5,23.5,9.2,29.3,20.1c8.3-7.5,12-19.7,9-30.5
		C525.2,408.6,514.2,399.1,501.9,397.9 M400.5,416.8c-5,11.6-1.6,26,7.8,34.4c5.9-10.9,17.1-18.6,29.4-20
		c-9.2-8.3-13.8-21.1-12.2-33.3C414.6,399,404.6,406.6,400.5,416.8 M433.4,398.1c-1.5,9.1,1.5,18.8,7.8,25.5
		c4.7,5.1,11.1,8.5,18,9.5c1.6-9.3-1.6-19.2-8.2-25.9C446.4,402.3,440.1,399.1,433.4,398.1 M474.1,409.9c-5,6.5-7.2,15.1-5.9,23.2
		c7.9-1.2,15.2-5.5,19.9-11.9c5-6.5,7.2-15.1,5.8-23.2C486.2,399.3,478.9,403.6,474.1,409.9 M471.1,442c3.7,7.6,10.7,13.5,18.8,15.9
		c7.6,2.3,16,1.5,23-2.2c-3.7-7.5-10.6-13.4-18.6-15.8C486.6,437.4,478.1,438.3,471.1,442 M429.8,441.4c-6.5,2.9-11.8,8-15,14.3
		c8.1,4.3,18.2,4.6,26.6,0.8c6.4-2.9,11.7-8,14.9-14.3C448.2,437.9,438.2,437.6,429.8,441.4 M454.7,471.6c0.6,7.3,3.9,14.4,9.2,19.5
		c6-6,9.4-14.6,9-23.1c-0.3-7.7-3.8-15.2-9.3-20.6C457.3,453.7,453.9,462.8,454.7,471.6 M412.2,463.1c-2.3,10.7,1.7,22.5,10,29.5
		c9.5,8.5,24.5,9.9,35.4,3.3c-8.6-8.8-12.5-21.7-10.2-33.8C436.7,468.1,423.2,468.4,412.2,463.1 M480,462.1
		c2.4,12-1.4,24.9-9.8,33.7c9.3,5.4,21.4,5.3,30.7-0.2c11.1-6.4,17.2-20,14.6-32.5C504.3,468.5,490.7,468.1,480,462.1z"/>
</g>
</svg>
