<?xml version="1.0" encoding="utf-8"?>
<!-- Generator: Adobe Illustrator 19.0.0, SVG Export Plug-In . SVG Version: 6.00 Build 0)  -->
<svg version="1.1" id="Layer_1" xmlns="http://www.w3.org/2000/svg" xmlns:xlink="http://www.w3.org/1999/xlink" x="0px" y="0px"
	 viewBox="0 0 200 100" style="enable-background:new 0 0 200 100;" xml:space="preserve">
<style type="text/css">
	.st0{fill:#FFFFFF;}
	.st1{fill:#183668;}
</style>
<g id="XMLID_1_">
	<g id="XMLID_2_">
		<rect id="XMLID_58_" class="st0" width="100" height="100"/>
		<path id="XMLID_57_" class="st1" d="M64.5,10c0.4-1.2,2.1-1.4,3.1-0.8c0.8,0.5,0.8,1.5,0.7,2.3c-0.4,0-0.9,0-1.3,0
			c0-0.3,0-0.7,0-1c-0.1-0.6-1.1-0.5-1.2,0c-0.1,0.3-0.1,0.7,0.1,1c0.7,1,2,1.7,2.4,2.9c0.2,1,0.2,2.3-0.8,2.8
			c-0.8,0.4-1.9,0.4-2.6-0.2c-0.7-0.7-0.5-1.7-0.5-2.5c0.4,0,0.9,0,1.3,0c0,0.5,0,1,0,1.4c0.1,0.6,1.1,0.6,1.2,0
			c0.1-0.5,0.1-1.1-0.3-1.5c-0.6-0.6-1.2-1.2-1.8-1.8C64.3,11.8,64.2,10.8,64.5,10z"/>
		<path id="XMLID_56_" class="st1" d="M81.6,9.2c0.7-0.4,1.7-0.4,2.5,0c0.7,0.5,0.7,1.5,0.7,2.3c-0.4,0-0.9,0-1.3,0c0-0.3,0-0.7,0-1
			c-0.1-0.6-1.1-0.5-1.2,0c-0.1,0.4-0.1,0.8,0.2,1.1c0.8,1,1.9,1.6,2.4,2.8c0.2,1,0.2,2.3-0.8,2.8c-0.8,0.4-1.9,0.4-2.6-0.2
			c-0.7-0.7-0.5-1.7-0.5-2.5c0.4,0,0.9,0,1.3,0c0,0.5,0,1,0,1.4c0.1,0.6,1.1,0.6,1.2,0.1c0.1-0.5,0.1-1-0.2-1.4
			c-0.7-0.9-1.8-1.5-2.2-2.6C80.7,10.9,80.7,9.7,81.6,9.2z"/>
		<path id="XMLID_53_" class="st1" d="M32.8,9c0.8,0,1.5,0,2.3,0c0.5,0,1.2,0.2,1.4,0.7c0.4,0.6,0.2,1.4,0.3,2.1
			c0,0.7,0.1,1.6-0.4,2.1c-0.6,0.6-1.4,0.5-2.1,0.5c0,0.9,0,1.9,0,2.8c-0.5,0-0.9,0-1.4,0C32.8,14.5,32.8,11.7,32.8,9 M34.2,10.1
			c0,1.1,0,2.2,0,3.3c0.4,0,1.1,0.1,1.2-0.5c0-0.8,0-1.6,0-2.3C35.2,10,34.6,10.1,34.2,10.1z"/>
		<path id="XMLID_50_" class="st1" d="M38.3,9c0.5,0,1.1,0,1.6,0c0.5,2.8,1.1,5.5,1.6,8.3c-0.5,0-1,0-1.4,0c-0.1-0.5-0.2-1-0.3-1.5
			c-0.5,0-1,0-1.5,0c-0.1,0.5-0.2,1-0.2,1.5c-0.4,0-0.9,0-1.3,0C37.3,14.5,37.8,11.7,38.3,9 M38.5,14.6c0.4,0,0.7,0,1.1,0
			c-0.2-1.1-0.4-2.2-0.5-3.3C38.9,12.4,38.7,13.5,38.5,14.6z"/>
		<path id="XMLID_47_" class="st1" d="M42.1,9C43,9,43.9,8.9,44.8,9c0.7,0.1,1.2,0.7,1.2,1.4c0,0.7,0.1,1.4-0.1,2.1
			c-0.1,0.5-0.6,0.8-1,1c0.5,1.2,0.9,2.5,1.3,3.7c-0.5,0-1,0-1.5,0c-0.4-1.3-0.9-2.5-1.3-3.8c0,1.3,0,2.5,0,3.8c-0.5,0-0.9,0-1.4,0
			C42.1,14.5,42.1,11.7,42.1,9 M43.5,10.1c0,0.9,0,1.7,0,2.6c0.4,0,1,0.1,1.1-0.4c0.1-0.6,0.1-1.2,0-1.8
			C44.4,10,43.9,10.1,43.5,10.1z"/>
		<path id="XMLID_46_" class="st1" d="M46.5,9c1.2,0,2.5,0,3.7,0c0,0.4,0,0.8,0,1.1c-0.4,0-0.8,0-1.1,0c0,2.4,0,4.8,0,7.2
			c-0.5,0-0.9,0-1.4,0c0-2.4,0-4.8,0-7.2c-0.4,0-0.8,0-1.1,0C46.5,9.7,46.5,9.3,46.5,9z"/>
		<path id="XMLID_45_" class="st1" d="M50.9,9c0.5,0,0.9,0,1.4,0c0.5,1.6,1,3.1,1.5,4.7c0-1.6,0-3.1,0-4.7c0.4,0,0.8,0,1.2,0
			c0,2.8,0,5.5,0,8.3c-0.4,0-0.8,0-1.2,0c-0.5-1.7-1.1-3.4-1.6-5.1c0,1.7,0,3.4,0,5.1c-0.4,0-0.8,0-1.2,0
			C50.9,14.5,50.9,11.7,50.9,9z"/>
		<path id="XMLID_44_" class="st1" d="M55.7,9c1.1,0,2.2,0,3.3,0c0,0.4,0,0.8,0,1.1c-0.6,0-1.3,0-1.9,0c0,0.8,0,1.6,0,2.4
			c0.5,0,0.9,0,1.4,0c0,0.4,0,0.8,0,1.1c-0.5,0-0.9,0-1.4,0c0,0.8,0,1.7,0,2.5c0.6,0,1.3,0,1.9,0c0,0.4,0,0.8,0,1.1
			c-1.1,0-2.2,0-3.3,0C55.7,14.5,55.7,11.7,55.7,9z"/>
		<path id="XMLID_41_" class="st1" d="M59.8,9c0.8,0,1.7,0,2.5,0c0.7,0.1,1.3,0.6,1.4,1.3c0.1,0.7,0.1,1.4,0,2.1
			c-0.1,0.6-0.5,1-1.1,1.1c0.5,1.2,0.9,2.5,1.3,3.7c-0.5,0-1,0-1.5,0c-0.4-1.3-0.9-2.5-1.3-3.8c0,1.3,0,2.5,0,3.8
			c-0.5,0-0.9,0-1.4,0C59.8,14.5,59.8,11.7,59.8,9 M61.2,10.1c0,0.9,0,1.7,0,2.6c0.4,0,1,0.1,1.1-0.4c0.1-0.6,0.1-1.2,0-1.8
			C62.1,10,61.5,10.1,61.2,10.1z"/>
		<path id="XMLID_40_" class="st1" d="M69.1,9c0.5,0,0.9,0,1.4,0c0,1.2,0,2.3,0,3.5c0.4,0,0.9,0,1.3,0c0-1.2,0-2.3,0-3.5
			c0.5,0,0.9,0,1.4,0c0,2.8,0,5.5,0,8.3c-0.5,0-0.9,0-1.4,0c0-1.2,0-2.4,0-3.7c-0.4,0-0.9,0-1.3,0c0,1.2,0,2.4,0,3.7
			c-0.5,0-0.9,0-1.4,0C69.1,14.5,69.1,11.7,69.1,9z"/>
		<path id="XMLID_39_" class="st1" d="M74,9c0.5,0,0.9,0,1.4,0c0,2.8,0,5.5,0,8.3c-0.5,0-0.9,0-1.4,0C74,14.5,74,11.7,74,9z"/>
		<path id="XMLID_36_" class="st1" d="M76.2,9c0.8,0,1.5,0,2.3,0c0.5,0,1.1,0.2,1.4,0.7c0.4,0.6,0.2,1.4,0.3,2.1
			c0,0.7,0.1,1.6-0.4,2.1c-0.6,0.6-1.4,0.5-2.2,0.5c0,0.9,0,1.9,0,2.8c-0.5,0-0.9,0-1.4,0C76.2,14.5,76.2,11.7,76.2,9 M77.6,10.1
			c0,1.1,0,2.2,0,3.3c0.3,0,0.7,0.1,1-0.1c0.3-0.2,0.2-0.6,0.2-0.9c0-0.6,0-1.2,0-1.8C78.6,10,78,10.1,77.6,10.1z"/>
		<path id="XMLID_35_" class="st1" d="M9.8,12.6c1-1.2,2-2.4,3.1-3.6c0.9,0,1.8,0,2.7,0c0,6.6,0,13.2,0,19.8c-1.1,0-2.2,0-3.3,0
			c0-5.1,0-10.1,0-15.2c-0.8,0.8-1.6,1.7-2.4,2.5C9.8,15,9.8,13.8,9.8,12.6z"/>
		<path id="XMLID_34_" class="st1" d="M17,9c2.8,0,5.6,0,8.4,0c-0.1,1.3,0.2,2.7-0.2,4c-1.4,5.3-2.7,10.5-4.1,15.8
			c-1.1,0-2.2,0-3.3,0c1.5-5.7,3-11.4,4.4-17.1c-1.7,0-3.4,0-5.1,0C17,10.9,17,10,17,9z"/>
		<path id="XMLID_31_" class="st1" d="M38,20.5c0.7-0.1,1.5-0.1,2.1,0.4c0.5,0.4,0.7,1.2,0.7,1.8c0,1.4,0,2.7,0,4.1
			c0,0.7-0.3,1.6-1,1.9C39,29,38.1,29,37.5,28.7c-0.7-0.4-0.9-1.2-0.9-1.9c0-1.4,0-2.9,0-4.3C36.5,21.6,37.1,20.7,38,20.5
			 M38.3,21.7c-0.4,0.2-0.4,0.6-0.4,0.9c0,1.5,0,2.9,0,4.4c0,0.4,0.3,0.8,0.7,0.8c0.4,0,0.7-0.4,0.7-0.8c0-1.6,0-3.1,0-4.7
			C39.4,21.8,38.8,21.5,38.3,21.7z"/>
		<path id="XMLID_30_" class="st1" d="M63.4,20.6c0.8-0.2,1.7-0.2,2.3,0.5c0.5,0.6,0.4,1.5,0.4,2.3c-0.4,0-0.9,0-1.3,0
			c0-0.5,0.1-1-0.1-1.4c-0.3-0.5-1.3-0.3-1.3,0.4c0,1.6,0,3.3,0,4.9c0,0.7,1.1,0.8,1.3,0.2c0.1-0.6,0-1.2,0.1-1.9
			c-0.2,0-0.4,0-0.7,0c0-0.4,0-0.7,0-1.1c0.7,0,1.3,0,2,0c0,1.5,0,3,0,4.4c-0.3,0-0.7,0-1,0c0-0.3,0-0.6,0-0.8
			c-0.3,1-1.7,1.2-2.5,0.5c-0.5-0.5-0.6-1.2-0.6-1.9c0-1.4,0-2.8,0-4.2C62,21.6,62.5,20.8,63.4,20.6z"/>
		<path id="XMLID_27_" class="st1" d="M68.4,20.5c0.7-0.1,1.6-0.1,2.1,0.4c0.5,0.4,0.6,1.1,0.6,1.8c0,1.4,0,2.7,0,4.1
			c0,0.8-0.3,1.6-1,1.9c-0.7,0.3-1.6,0.3-2.3-0.1c-0.7-0.4-0.9-1.2-0.8-2c0-1.4,0-2.8,0-4.2C66.9,21.6,67.5,20.7,68.4,20.5
			 M68.7,21.7c-0.4,0.2-0.4,0.7-0.4,1c0,1.5,0,3,0,4.5c0,0.8,1.3,0.8,1.4,0c0.1-1.6,0-3.3,0-4.9C69.7,21.8,69.1,21.5,68.7,21.7z"/>
		<path id="XMLID_26_" class="st1" d="M81.1,20.8c0.7-0.4,1.7-0.4,2.5,0c0.8,0.5,0.7,1.5,0.7,2.3c-0.4,0-0.9,0-1.3,0
			c0-0.4,0-0.8-0.1-1.1c-0.2-0.5-1.2-0.4-1.2,0.2c-0.2,0.7,0.4,1.2,0.8,1.6c0.7,0.7,1.6,1.4,1.8,2.4c0.1,0.9,0.1,1.9-0.7,2.5
			c-0.8,0.5-2,0.5-2.7-0.1c-0.7-0.6-0.5-1.7-0.5-2.6c0.4,0,0.9,0,1.3,0c0,0.5,0,0.9,0,1.4c0.1,0.6,1,0.6,1.2,0.1
			c0.1-0.5,0.1-1.1-0.2-1.5c-0.7-0.9-1.8-1.5-2.2-2.6C80.3,22.5,80.3,21.3,81.1,20.8z"/>
		<path id="XMLID_25_" class="st1" d="M32.8,20.6c1.1,0,2.2,0,3.3,0c0,0.4,0,0.8,0,1.1c-0.6,0-1.2,0-1.9,0c0,0.8,0,1.6,0,2.4
			c0.5,0,0.9,0,1.4,0c0,0.4,0,0.8,0,1.1c-0.5,0-0.9,0-1.4,0c0,1.2,0,2.4,0,3.7c-0.5,0-0.9,0-1.4,0C32.8,26.1,32.8,23.3,32.8,20.6z"
			/>
		<path id="XMLID_22_" class="st1" d="M41.5,20.6c0.8,0,1.6,0,2.4,0c0.6,0,1.3,0.4,1.5,1.1c0.2,0.7,0.1,1.5,0.1,2.2
			c0,0.6-0.5,1.1-1.1,1.2c0.4,1.2,0.9,2.5,1.3,3.7c-0.5,0-1,0-1.5,0c-0.4-1.2-0.9-2.5-1.3-3.7c0,1.2,0,2.5,0,3.7c-0.5,0-0.9,0-1.4,0
			C41.5,26.1,41.5,23.3,41.5,20.6 M42.9,21.7c0,0.9,0,1.7,0,2.6c0.4,0,1,0.1,1.1-0.4c0.1-0.6,0.1-1.2,0-1.7
			C44,21.6,43.3,21.7,42.9,21.7z"/>
		<path id="XMLID_21_" class="st1" d="M47.4,20.6c1.2,0,2.5,0,3.7,0c0,0.4,0,0.8,0,1.1c-0.4,0-0.8,0-1.1,0c0,2.4,0,4.8,0,7.2
			c-0.5,0-0.9,0-1.4,0c0-2.4,0-4.8,0-7.2c-0.4,0-0.8,0-1.1,0C47.4,21.3,47.4,21,47.4,20.6z"/>
		<path id="XMLID_20_" class="st1" d="M51.7,20.6c0.5,0,0.9,0,1.4,0c0,1.2,0,2.3,0,3.5c0.4,0,0.9,0,1.3,0c0-1.2,0-2.3,0-3.5
			c0.5,0,0.9,0,1.4,0c0,2.8,0,5.5,0,8.3c-0.5,0-0.9,0-1.4,0c0-1.2,0-2.4,0-3.7c-0.4,0-0.9,0-1.3,0c0,1.2,0,2.4,0,3.7
			c-0.5,0-0.9,0-1.4,0C51.7,26.1,51.7,23.3,51.7,20.6z"/>
		<path id="XMLID_19_" class="st1" d="M56.7,20.6c1.1,0,2.2,0,3.3,0c0,0.4,0,0.8,0,1.1c-0.6,0-1.3,0-1.9,0c0,0.8,0,1.6,0,2.4
			c0.5,0,0.9,0,1.4,0c0,0.4,0,0.8,0,1.1c-0.5,0-0.9,0-1.4,0c0,0.8,0,1.7,0,2.5c0.6,0,1.3,0,1.9,0c0,0.4,0,0.8,0,1.1
			c-1.1,0-2.2,0-3.3,0C56.7,26.1,56.7,23.3,56.7,20.6z"/>
		<path id="XMLID_16_" class="st1" d="M73.1,20.6c0.5,0,1.1,0,1.6,0c0.5,2.8,1.1,5.5,1.6,8.3c-0.5,0-1,0-1.4,0
			c-0.1-0.5-0.2-1-0.3-1.5c-0.5,0-1,0-1.5,0c-0.1,0.5-0.2,1-0.2,1.5c-0.4,0-0.9,0-1.3,0C72,26.1,72.6,23.3,73.1,20.6 M73.8,23
			c-0.2,1.1-0.4,2.2-0.5,3.3c0.4,0,0.7,0,1.1,0C74.2,25.1,74,24,73.8,23z"/>
		<path id="XMLID_15_" class="st1" d="M76.8,20.6c0.5,0,0.9,0,1.4,0c0,2.4,0,4.8,0,7.2c0.6,0,1.1,0,1.7,0c0,0.4,0,0.8,0,1.1
			c-1,0-2,0-3.1,0C76.8,26.1,76.8,23.3,76.8,20.6z"/>
		<path id="XMLID_3_" class="st1" d="M45,40.4c3.2-1.6,7-1.7,10.2-0.4c3.4,1.3,6.2,4.2,7.4,7.7c3.4,0.1,6.6,1.6,8.9,4.1
			c2.4,2.5,3.6,6,3.4,9.5c-0.2,3.6-2,7.1-4.9,9.3c1.1,3.8,0.3,8.1-2.2,11.3c-2,2.7-5.2,4.5-8.5,4.9c-3,0.4-6.2-0.3-8.8-2
			c-4,2.8-9.5,3-13.7,0.5c-2.6-1.5-4.6-4-5.6-6.8c-0.9-2.5-1-5.3-0.2-7.8c-2.6-2.1-4.4-5.2-4.8-8.5c-0.5-3.4,0.6-7,2.7-9.7
			c2.3-2.9,5.8-4.7,9.5-4.8C39.6,44.5,42,41.9,45,40.4 M47,42.4c-2.6,1-4.7,3-5.8,5.5c4,0.7,7.6,3.5,9.4,7.2
			c1.7-3.7,5.3-6.5,9.4-7.2c-1.1-2.4-3.1-4.4-5.5-5.4C52.1,41.5,49.3,41.5,47,42.4 M63.3,50.3c0.5,4-1,8.3-4,11
			c4.1,0.5,7.8,3.1,9.8,6.7c1.1-1,2-2.2,2.6-3.6c1.3-2.9,1-6.5-0.7-9.2C69.4,52.5,66.4,50.6,63.3,50.3 M28.9,58.4
			c-0.7,3.5,0.5,7.3,3.2,9.6c1.9-3.6,5.7-6.2,9.8-6.7c-3-2.8-4.6-7-4.1-11.1C33.5,50.7,29.8,54.2,28.9,58.4 M40.5,50.4
			c-0.4,2.5,0.2,5.1,1.6,7.2c1.6,2.4,4.2,4.1,7,4.5c0.4-2.5-0.2-5.2-1.6-7.3C45.9,52.4,43.3,50.8,40.5,50.4 M53.1,55.8
			c-1,1.9-1.3,4.1-1,6.2c3.2-0.5,6.2-2.6,7.6-5.5c0.9-1.9,1.3-4.1,1-6.1C57.5,50.8,54.6,52.9,53.1,55.8 M53,65c1,2,2.7,3.7,4.7,4.7
			c2.9,1.4,6.4,1.4,9.2-0.1c-1-2-2.6-3.6-4.6-4.6C59.5,63.4,55.9,63.5,53,65 M40.4,64.4c-2.7,0.8-4.9,2.7-6.2,5.2
			c2.3,1.2,5.2,1.5,7.7,0.7c2.6-0.8,4.9-2.7,6.2-5.2C45.8,63.8,43,63.6,40.4,64.4 M50.5,66.8c-1.6,1.6-2.7,3.8-3,6.1
			c-0.4,3.1,0.8,6.3,3,8.4c1.6-1.6,2.7-3.8,3-6.1C53.9,72.2,52.8,69,50.5,66.8 M33.4,72c-0.9,4.2,1.1,8.8,4.8,10.9
			c3.1,1.9,7.2,1.9,10.4,0c-2.9-2.9-4.2-7.2-3.4-11.3C41.6,73.7,37.1,73.8,33.4,72 M56,71.7c0.8,4-0.5,8.3-3.3,11.2
			c2.3,1.3,5.1,1.7,7.7,1c2.9-0.8,5.4-2.9,6.6-5.6c0.9-2,1.2-4.2,0.7-6.3C64.1,73.8,59.6,73.7,56,71.7z"/>
	</g>
</g>
<g id="XMLID_59_">
	<g id="XMLID_60_">
		<rect id="XMLID_116_" x="100" y="0" class="st1" width="100" height="100"/>
		<path id="XMLID_115_" class="st0" d="M165,9.2c0.8-0.5,1.8-0.5,2.6,0c0.7,0.5,0.6,1.5,0.6,2.2c-0.4,0-0.8,0-1.3,0c0-0.3,0-0.7,0-1
			c-0.1-0.6-1-0.6-1.2-0.1c-0.1,0.4-0.1,0.8,0.2,1.1c0.8,1,1.9,1.6,2.4,2.8c0.2,0.9,0.2,2.3-0.8,2.8c-0.8,0.4-2,0.4-2.7-0.3
			c-0.6-0.7-0.4-1.7-0.5-2.5c0.4,0,0.9,0,1.3,0c0,0.5,0,1,0.1,1.5c0.2,0.6,1.3,0.5,1.3-0.2c0.2-1.8-2.1-2.3-2.5-3.9
			C164.2,10.9,164.2,9.7,165,9.2z"/>
		<path id="XMLID_114_" class="st0" d="M181.4,9.3c0.7-0.6,1.8-0.6,2.6-0.1c0.8,0.5,0.7,1.5,0.7,2.3c-0.4,0-0.9,0-1.3,0
			c0-0.4,0-0.7-0.1-1.1c-0.2-0.5-1.1-0.4-1.2,0.1c-0.1,0.3-0.1,0.7,0.1,1c0.7,1,2,1.7,2.4,2.9c0.2,0.9,0.2,2.2-0.7,2.8
			c-0.8,0.4-1.9,0.4-2.6-0.2c-0.7-0.6-0.5-1.7-0.5-2.6c0.4,0,0.9,0,1.3,0c0,0.5-0.1,1,0.1,1.5c0.2,0.6,1.3,0.5,1.2-0.2
			c0.3-1.3-1.1-1.9-1.8-2.8C180.7,12,180.5,10.2,181.4,9.3z"/>
		<path id="XMLID_113_" class="st0" d="M112.9,9c0.9,0,1.8,0,2.7,0c0,6.6,0,13.2,0,19.8c-1.1,0-2.2,0-3.3,0c0-5.1,0-10.1,0-15.2
			c-0.8,0.8-1.6,1.6-2.4,2.5c0-1.1,0-2.2,0-3.3c0-0.2,0.1-0.4,0.3-0.6C111,11.2,111.9,10.1,112.9,9z"/>
		<path id="XMLID_112_" class="st0" d="M117,9c2.8,0,5.6,0,8.4,0c-0.1,1.3,0.2,2.7-0.2,4c-1.4,5.3-2.7,10.5-4.1,15.8
			c-1.1,0-2.2,0-3.3,0c1.5-5.7,3-11.4,4.5-17.1c-1.7,0-3.4,0-5.1,0C117,10.9,117,9.9,117,9z"/>
		<path id="XMLID_109_" class="st0" d="M132.8,9c1,0.1,2.1-0.2,3.1,0.2c0.8,0.4,0.9,1.4,0.9,2.2c-0.1,0.8,0.2,1.8-0.4,2.5
			c-0.5,0.7-1.5,0.6-2.2,0.6c0,0.9,0,1.9,0,2.8c-0.5,0-0.9,0-1.4,0C132.8,14.5,132.8,11.7,132.8,9 M134.2,13.4c0.4,0,1,0.1,1.1-0.4
			c0.1-0.8,0.1-1.6,0-2.5c-0.1-0.5-0.8-0.4-1.1-0.5C134.2,11.2,134.2,12.3,134.2,13.4z"/>
		<path id="XMLID_106_" class="st0" d="M138.3,9c0.5,0,1.1,0,1.6,0c0.5,2.8,1.1,5.5,1.6,8.3c-0.5,0-1,0-1.4,0
			c-0.1-0.5-0.2-1-0.3-1.5c-0.5,0-1,0-1.5,0c-0.1,0.5-0.2,1-0.2,1.5c-0.4,0-0.9,0-1.3,0C137.3,14.5,137.8,11.7,138.3,9 M138.5,14.6
			c0.4,0,0.7,0,1.1,0c-0.2-1.1-0.3-2.2-0.5-3.3C138.9,12.4,138.7,13.5,138.5,14.6z"/>
		<path id="XMLID_103_" class="st0" d="M142.1,9c1.1,0.1,2.2-0.2,3.2,0.3c1,0.6,0.7,1.9,0.7,2.9c0,0.7-0.5,1.2-1.1,1.4
			c0.4,1.2,0.9,2.5,1.3,3.7c-0.5,0-1,0-1.5,0c-0.4-1.2-0.8-2.5-1.3-3.7c0,1.2,0,2.5,0,3.7c-0.5,0-0.9,0-1.4,0
			C142.1,14.5,142.1,11.7,142.1,9 M143.5,10.1c0,0.9,0,1.7,0,2.6c0.4,0,1,0.1,1.1-0.4c0.1-0.6,0.1-1.2,0-1.8
			C144.4,10,143.8,10.1,143.5,10.1z"/>
		<path id="XMLID_102_" class="st0" d="M146.5,9c1.2,0,2.5,0,3.7,0c0,0.4,0,0.8,0,1.1c-0.4,0-0.8,0-1.1,0c0,2.4,0,4.8,0,7.2
			c-0.5,0-0.9,0-1.4,0c0-2.4,0-4.8,0-7.2c-0.4,0-0.8,0-1.1,0C146.5,9.7,146.5,9.3,146.5,9z"/>
		<path id="XMLID_101_" class="st0" d="M150.8,9c0.5,0,0.9,0,1.4,0c0.5,1.6,1,3.1,1.5,4.7c0-1.6,0-3.1,0-4.7c0.4,0,0.8,0,1.2,0
			c0,2.8,0,5.5,0,8.3c-0.4,0-0.8,0-1.2,0c-0.5-1.7-1.1-3.5-1.6-5.2c0,1.7,0,3.5,0,5.2c-0.4,0-0.8,0-1.2,0
			C150.8,14.5,150.8,11.7,150.8,9z"/>
		<path id="XMLID_100_" class="st0" d="M155.7,9c1.1,0,2.2,0,3.3,0c0,0.4,0,0.8,0,1.1c-0.6,0-1.3,0-1.9,0c0,0.8,0,1.6,0,2.4
			c0.5,0,0.9,0,1.4,0c0,0.4,0,0.8,0,1.1c-0.5,0-0.9,0-1.4,0c0,0.8,0,1.7,0,2.5c0.6,0,1.3,0,1.9,0c0,0.4,0,0.8,0,1.1
			c-1.1,0-2.2,0-3.3,0C155.7,14.5,155.7,11.7,155.7,9z"/>
		<path id="XMLID_97_" class="st0" d="M159.8,9c1.1,0.1,2.2-0.2,3.2,0.2c1,0.5,0.8,1.8,0.8,2.8c0.1,0.7-0.4,1.4-1.1,1.5
			c0.4,1.2,0.9,2.5,1.3,3.7c-0.5,0-1,0-1.5,0c-0.4-1.2-0.8-2.5-1.3-3.7c0,1.2,0,2.5,0,3.7c-0.5,0-0.9,0-1.4,0
			C159.8,14.5,159.8,11.7,159.8,9 M161.2,10.1c0,0.9,0,1.7,0,2.6c0.4,0,1,0.1,1.1-0.5c0.1-0.6,0.1-1.2,0-1.8
			C162.1,10,161.5,10.1,161.2,10.1z"/>
		<path id="XMLID_96_" class="st0" d="M169.1,9c0.5,0,0.9,0,1.4,0c0,1.2,0,2.3,0,3.5c0.4,0,0.9,0,1.3,0c0-1.2,0-2.3,0-3.5
			c0.5,0,0.9,0,1.4,0c0,2.8,0,5.5,0,8.3c-0.5,0-0.9,0-1.4,0c0-1.2,0-2.4,0-3.7c-0.4,0-0.9,0-1.3,0c0,1.2,0,2.4,0,3.7
			c-0.5,0-0.9,0-1.4,0C169.1,14.5,169.1,11.7,169.1,9z"/>
		<path id="XMLID_95_" class="st0" d="M174,9c0.5,0,0.9,0,1.4,0c0,2.8,0,5.5,0,8.3c-0.5,0-0.9,0-1.4,0C174,14.5,174,11.7,174,9z"/>
		<path id="XMLID_92_" class="st0" d="M176.2,9c1,0.1,2.1-0.1,3.1,0.2c0.8,0.3,1,1.3,0.9,2.1c-0.1,0.9,0.2,1.9-0.4,2.6
			c-0.5,0.7-1.5,0.6-2.3,0.6c0,0.9,0,1.9,0,2.8c-0.5,0-0.9,0-1.4,0C176.2,14.5,176.2,11.7,176.2,9 M177.6,10.1c0,1.1,0,2.2,0,3.3
			c0.4,0,1.1,0.1,1.2-0.5c0-0.8,0-1.6,0-2.3C178.7,10,178,10.1,177.6,10.1z"/>
		<path id="XMLID_89_" class="st0" d="M138.1,20.5c0.8-0.2,1.8,0,2.3,0.8c0.5,0.9,0.3,2,0.4,3c-0.1,1.1,0.2,2.3-0.2,3.5
			c-0.6,1.7-3.7,1.5-4-0.4c-0.2-1.6,0-3.2-0.1-4.8C136.5,21.7,137.1,20.7,138.1,20.5 M138.5,21.7c-0.5,0.1-0.6,0.7-0.5,1.1
			c0,1.5,0,2.9,0,4.4c0,0.8,1.3,0.8,1.4,0c0.1-1.6,0-3.2,0-4.8C139.4,21.9,138.9,21.5,138.5,21.7z"/>
		<path id="XMLID_88_" class="st0" d="M162,22.3c0-1.8,2.4-2.4,3.6-1.3c0.6,0.6,0.5,1.5,0.5,2.3c-0.4,0-0.9,0-1.3,0
			c0-0.4,0.1-0.9-0.1-1.3c-0.3-0.6-1.3-0.3-1.3,0.3c0,1.6,0,3.3,0,4.9c0,0.7,1,0.8,1.3,0.2c0.1-0.6,0-1.3,0.1-1.9
			c-0.2,0-0.4,0-0.6,0c0-0.4,0-0.7,0-1.1c0.7,0,1.3,0,2,0c0,1.5,0,3,0,4.4c-0.3,0-0.7,0-1,0c0-0.3,0-0.5,0-0.8
			c-0.3,1-1.8,1.2-2.5,0.5c-0.5-0.6-0.6-1.4-0.6-2.1C162,25.1,162,23.7,162,22.3z"/>
		<path id="XMLID_85_" class="st0" d="M168.7,20.5c1-0.2,2.2,0.4,2.4,1.4c0.2,1.2,0,2.5,0.1,3.7c0,0.8,0.1,1.8-0.4,2.5
			c-0.9,1.3-3.5,1-3.8-0.7c-0.2-1.6,0-3.3-0.1-4.9C166.9,21.5,167.6,20.5,168.7,20.5 M168.8,21.7c-0.4,0.1-0.5,0.6-0.5,1
			c0,1.5,0,3,0,4.6c0,0.5,0.7,0.8,1.1,0.5c0.3-0.3,0.3-0.7,0.3-1.1c0-1.4,0-2.8,0-4.2C169.7,21.9,169.3,21.5,168.8,21.7z"/>
		<path id="XMLID_84_" class="st0" d="M180.9,20.9c0.7-0.6,1.8-0.6,2.6-0.2c0.8,0.5,0.8,1.5,0.8,2.3c-0.4,0-0.9,0-1.3,0
			c0-0.3,0-0.7,0-1c-0.1-0.5-1.1-0.5-1.2,0c-0.1,0.4-0.1,0.8,0.2,1.1c0.7,0.9,1.9,1.6,2.3,2.8c0.2,1,0.2,2.3-0.7,2.8
			c-0.8,0.4-1.9,0.4-2.7-0.2c-0.7-0.7-0.5-1.7-0.5-2.5c0.4,0,0.9,0,1.3,0c0,0.5-0.1,1,0.1,1.5c0.3,0.6,1.3,0.4,1.2-0.3
			c0.2-1.3-1.2-2-1.9-2.9C180.2,23.5,180,21.8,180.9,20.9z"/>
		<path id="XMLID_83_" class="st0" d="M132.8,20.6c1.1,0,2.2,0,3.3,0c0,0.4,0,0.8,0,1.1c-0.6,0-1.2,0-1.9,0c0,0.8,0,1.6,0,2.4
			c0.5,0,0.9,0,1.4,0c0,0.4,0,0.8,0,1.1c-0.5,0-0.9,0-1.4,0c0,1.2,0,2.4,0,3.7c-0.5,0-0.9,0-1.4,0C132.8,26.1,132.8,23.3,132.8,20.6
			z"/>
		<path id="XMLID_80_" class="st0" d="M141.5,20.6c1.1,0.1,2.2-0.2,3.3,0.3c1,0.6,0.7,1.9,0.7,2.9c0,0.7-0.4,1.3-1.1,1.4
			c0.4,1.2,0.9,2.5,1.3,3.7c-0.5,0-1,0-1.5,0c-0.5-1.2-0.9-2.5-1.3-3.7c0,1.2,0,2.5,0,3.7c-0.5,0-0.9,0-1.4,0
			C141.5,26.1,141.5,23.3,141.5,20.6 M142.9,21.7c0,0.9,0,1.7,0,2.6c0.4,0,0.9,0.1,1.1-0.4c0.1-0.6,0.1-1.2,0-1.8
			C143.9,21.6,143.3,21.7,142.9,21.7z"/>
		<path id="XMLID_79_" class="st0" d="M147.4,20.6c1.2,0,2.5,0,3.7,0c0,0.4,0,0.8,0,1.1c-0.4,0-0.8,0-1.1,0c0,2.4,0,4.8,0,7.2
			c-0.5,0-0.9,0-1.4,0c0-2.4,0-4.8,0-7.2c-0.4,0-0.8,0-1.2,0C147.4,21.3,147.4,21,147.4,20.6z"/>
		<path id="XMLID_78_" class="st0" d="M151.7,20.6c0.5,0,0.9,0,1.4,0c0,1.2,0,2.3,0,3.5c0.4,0,0.9,0,1.3,0c0-1.2,0-2.3,0-3.5
			c0.5,0,0.9,0,1.4,0c0,2.8,0,5.5,0,8.3c-0.5,0-0.9,0-1.4,0c0-1.2,0-2.4,0-3.7c-0.4,0-0.9,0-1.3,0c0,1.2,0,2.4,0,3.7
			c-0.5,0-0.9,0-1.4,0C151.7,26.1,151.7,23.3,151.7,20.6z"/>
		<path id="XMLID_77_" class="st0" d="M156.7,20.6c1.1,0,2.2,0,3.3,0c0,0.4,0,0.8,0,1.1c-0.6,0-1.3,0-1.9,0c0,0.8,0,1.6,0,2.4
			c0.5,0,0.9,0,1.4,0c0,0.4,0,0.8,0,1.1c-0.5,0-0.9,0-1.4,0c0,0.8,0,1.7,0,2.5c0.6,0,1.3,0,1.9,0c0,0.4,0,0.8,0,1.1
			c-1.1,0-2.2,0-3.3,0C156.7,26.1,156.7,23.3,156.7,20.6z"/>
		<path id="XMLID_74_" class="st0" d="M173.1,20.6c0.5,0,1.1,0,1.6,0c0.5,2.8,1.1,5.5,1.6,8.3c-0.5,0-1,0-1.4,0
			c-0.1-0.5-0.2-1-0.3-1.5c-0.5,0-1,0-1.5,0c-0.1,0.5-0.2,1-0.2,1.5c-0.4,0-0.9,0-1.3,0C172,26.1,172.6,23.3,173.1,20.6 M173.8,23
			c-0.2,1.1-0.4,2.2-0.5,3.2c0.4,0,0.7,0,1.1,0C174.2,25.2,174,24.1,173.8,23z"/>
		<path id="XMLID_73_" class="st0" d="M176.8,20.6c0.5,0,0.9,0,1.4,0c0,2.4,0,4.8,0,7.2c0.6,0,1.1,0,1.7,0c0,0.4,0,0.8,0,1.1
			c-1,0-2,0-3.1,0C176.8,26.1,176.8,23.3,176.8,20.6z"/>
		<path id="XMLID_61_" class="st0" d="M146.1,39.9c3.1-1.2,6.7-1.1,9.8,0.3c3.2,1.4,5.7,4.2,6.8,7.4c4.2,0.1,8.2,2.5,10.4,6.1
			c2.3,3.6,2.5,8.4,0.7,12.2c-0.8,1.8-2.1,3.4-3.7,4.6c0.8,2.7,0.6,5.8-0.5,8.4c-1.5,3.7-4.8,6.5-8.7,7.5c-3.5,0.9-7.3,0.3-10.3-1.7
			c-3.4,2.4-8,2.9-11.9,1.4c-3.9-1.5-7-5-7.9-9.1c-0.5-2.1-0.4-4.4,0.2-6.4c-3.2-2.5-5.1-6.5-4.9-10.6c0.1-4.1,2.4-8.1,5.8-10.3
			c1.9-1.3,4.2-2,6.5-2.1C139.7,44.1,142.6,41.2,146.1,39.9 M141.2,47.8c4,0.7,7.6,3.5,9.4,7.2c1.7-3.7,5.3-6.5,9.4-7.2
			c-1.6-3.7-5.4-6.2-9.4-6.1C146.6,41.7,142.8,44.2,141.2,47.8 M163.3,50.3c0.6,4-1,8.3-4,11c4.1,0.5,7.8,3.1,9.8,6.7
			c2.8-2.5,4-6.6,3-10.2C171.1,53.9,167.4,50.7,163.3,50.3 M129.5,56.6c-1.7,3.9-0.5,8.7,2.6,11.5c2-3.6,5.7-6.2,9.8-6.7
			c-3.1-2.8-4.6-7-4.1-11.1C134.2,50.7,130.9,53.2,129.5,56.6 M140.5,50.4c-0.5,3,0.5,6.3,2.6,8.5c1.6,1.7,3.7,2.8,6,3.2
			c0.5-3.1-0.5-6.4-2.7-8.6C144.8,51.8,142.7,50.7,140.5,50.4 M154,54.3c-1.7,2.2-2.4,5-2,7.7c2.6-0.4,5.1-1.8,6.6-4
			c1.7-2.2,2.4-5,1.9-7.7C158.1,50.8,155.6,52.2,154,54.3 M153,65c1.2,2.5,3.6,4.5,6.3,5.3c2.5,0.8,5.3,0.5,7.7-0.7
			c-1.2-2.5-3.5-4.5-6.2-5.3C158.2,63.5,155.4,63.8,153,65 M139.3,64.8c-2.2,1-3.9,2.7-5,4.8c2.7,1.4,6.1,1.5,8.9,0.3
			c2.1-1,3.9-2.7,5-4.8C145.4,63.6,142.1,63.5,139.3,64.8 M147.6,74.9c0.2,2.4,1.3,4.8,3.1,6.5c2-2,3.1-4.9,3-7.7
			c-0.1-2.6-1.3-5.1-3.1-6.9C148.4,68.9,147.3,71.9,147.6,74.9 M133.4,72c-0.8,3.6,0.6,7.5,3.3,9.8c3.2,2.8,8.2,3.3,11.8,1.1
			c-2.9-2.9-4.2-7.2-3.4-11.3C141.6,73.7,137.1,73.8,133.4,72 M156,71.7c0.8,4-0.5,8.3-3.3,11.2c3.1,1.8,7.1,1.8,10.2-0.1
			c3.7-2.1,5.7-6.7,4.9-10.8C164.1,73.8,159.6,73.7,156,71.7z"/>
	</g>
</g>
</svg>
