<?xml version="1.0" encoding="utf-8"?>
<!-- Generator: Adobe Illustrator 19.0.0, SVG Export Plug-In . SVG Version: 6.00 Build 0)  -->
<svg version="1.1" id="Layer_1" xmlns="http://www.w3.org/2000/svg" xmlns:xlink="http://www.w3.org/1999/xlink" x="0px" y="0px"
	 viewBox="0 0 200 100" style="enable-background:new 0 0 200 100;" xml:space="preserve">
<style type="text/css">
	.st0{fill:#FFFFFF;}
	.st1{fill:#EB1C2D;}
</style>
<g>
	<rect class="st0" width="100" height="100"/>
	<g>
		<path class="st1" d="M16.2,15.9c0.9,0,1.8,0,2.7,0c0,6.6,0,13.2,0,19.8c-1.1,0-2.2,0-3.3,0c0-5.1,0-10.1,0-15.2
			c-0.8,0.8-1.6,1.7-2.4,2.5c0-1.1,0-2.2,0-3.3c0-0.2,0.2-0.4,0.3-0.5C14.4,18.1,15.4,17,16.2,15.9z"/>
		<path class="st1" d="M36.4,16.1c0.7-0.1,1.5-0.1,2.1,0.5c0.5,0.4,0.6,1.1,0.6,1.7c0,1.4,0,2.7,0,4.1c0,0.7-0.3,1.6-1,1.9
			s-1.6,0.3-2.2,0c-0.7-0.4-1-1.2-1-2c0-1.4,0-2.9,0-4.3C34.9,17.1,35.5,16.2,36.4,16.1 M36.7,17.2c-0.3,0.1-0.4,0.5-0.4,0.8
			c0,1.4,0,2.7,0,4.1c0,0.3,0,0.6,0.1,0.8c0.2,0.4,1,0.4,1.2,0c0.2-0.3,0.1-0.7,0.1-1c0-1.4,0-2.7,0-4.1
			C37.7,17.4,37.1,17,36.7,17.2z"/>
		<path class="st1" d="M30,16.1c0.5,0,0.9,0,1.4,0c0.5,1.6,1,3.1,1.5,4.7c0-1.6,0-3.1,0-4.7c0.4,0,0.8,0,1.2,0c0,2.8,0,5.5,0,8.3
			c-0.4,0-0.8,0-1.2,0c-0.5-1.7-1.1-3.4-1.6-5.1c0,1.7,0,3.4,0,5.1c-0.4,0-0.8,0-1.2,0C30,21.6,30,18.9,30,16.1z"/>
		<path class="st1" d="M36.2,27.7c0.7-0.1,1.5-0.1,2,0.4c0.5,0.4,0.7,1.1,0.7,1.8c0,1.4,0,2.7,0,4.1c0,0.7-0.3,1.6-1,1.9
			s-1.6,0.3-2.3-0.1c-0.7-0.4-0.9-1.2-0.9-1.9c0-1.4,0-2.9,0-4.3C34.8,28.7,35.4,27.8,36.2,27.7 M36.6,28.8
			c-0.3,0.1-0.4,0.5-0.4,0.8c0,1.4,0,2.7,0,4.1c0,0.3,0,0.6,0.1,0.9c0.2,0.4,1,0.4,1.2,0c0.1-0.3,0.1-0.6,0.1-0.9c0-1.4,0-2.8,0-4.2
			C37.6,29,37,28.6,36.6,28.8z"/>
		<path class="st1" d="M30,27.7c0.8,0,1.6,0,2.4,0c0.6,0,1.2,0.3,1.4,0.8c0.3,0.7,0.2,1.4,0.2,2.1s0.1,1.6-0.5,2.1s-1.4,0.5-2.1,0.5
			c0,0.9,0,1.9,0,2.8c-0.5,0-0.9,0-1.4,0C30,33.3,30,30.5,30,27.7 M31.4,28.9c0,1.1,0,2.2,0,3.3c0.4,0,1,0.1,1.2-0.4
			c0.1-0.8,0.1-1.6,0-2.4C32.5,28.8,31.8,28.9,31.4,28.9z"/>
		<path class="st1" d="M39.2,27.7c0.5,0,1,0,1.4,0c0.3,1.9,0.6,3.8,1,5.7c0.3-1.9,0.7-3.8,1-5.7c0.4,0,0.9,0,1.3,0
			c-0.5,2.8-1.1,5.5-1.6,8.3c-0.5,0-1,0-1.5,0C40.4,33.3,39.8,30.5,39.2,27.7z"/>
		<path class="st1" d="M44.6,27.7c1.1,0,2.2,0,3.3,0c0,0.4,0,0.8,0,1.1c-0.6,0-1.3,0-1.9,0c0,0.8,0,1.6,0,2.4c0.5,0,0.9,0,1.4,0
			c0,0.4,0,0.8,0,1.1c-0.5,0-0.9,0-1.4,0c0,0.8,0,1.7,0,2.5c0.6,0,1.3,0,1.9,0c0,0.4,0,0.8,0,1.1c-1.1,0-2.2,0-3.3,0
			C44.6,33.3,44.6,30.5,44.6,27.7z"/>
		<path class="st1" d="M48.6,27.7c0.8,0,1.6,0,2.5,0c0.6,0,1.2,0.4,1.4,1c0.2,0.8,0.1,1.6,0.1,2.4c-0.1,0.6-0.5,1-1.1,1.1
			c0.4,1.2,0.9,2.5,1.3,3.7c-0.5,0-1,0-1.5,0c-0.4-1.2-0.8-2.5-1.3-3.7c0,1.2,0,2.5,0,3.7c-0.5,0-0.9,0-1.4,0
			C48.6,33.3,48.6,30.5,48.6,27.7 M50,28.9c0,0.9,0,1.7,0,2.6c0.4,0,1,0.1,1.1-0.4c0.1-0.6,0.1-1.2,0-1.8C51,28.8,50.4,28.9,50,28.9
			z"/>
		<path class="st1" d="M53.1,27.7c1.2,0,2.5,0,3.7,0c0,0.4,0,0.8,0,1.1c-0.4,0-0.8,0-1.2,0c0,2.4,0,4.8,0,7.2c-0.5,0-0.9,0-1.4,0
			c0-2.4,0-4.8,0-7.2c-0.4,0-0.8,0-1.1,0C53.1,28.5,53.1,28.1,53.1,27.7z"/>
		<path class="st1" d="M57.2,27.7c0.5,0,1,0,1.5,0c0.3,1,0.5,2.1,0.8,3.1c0.3-1,0.6-2.1,0.8-3.1c0.4,0,0.9,0,1.3,0
			c-0.5,1.7-1,3.4-1.5,5.1c-0.1,1.1,0,2.1,0,3.2c-0.5,0-0.9,0-1.4,0c-0.1-1.4,0.2-2.8-0.3-4.1C58,30.5,57.6,29.1,57.2,27.7z"/>
		<path class="st1" d="M19.8,51.9c1.6-0.3,3.2,1,3.2,2.6c0.1,1.6-1.4,3-3,2.8c-1.6-0.1-2.8-1.8-2.3-3.4
			C17.9,52.9,18.7,52.1,19.8,51.9z"/>
		<path class="st1" d="M79.9,51.9c1.4-0.3,2.8,0.7,3.1,2c0.4,1.4-0.5,2.9-1.9,3.3c-1.4,0.5-3.1-0.5-3.4-2
			C77.4,53.7,78.4,52.1,79.9,51.9z"/>
		<path class="st1" d="M43,53.5c1.6-0.3,3.2,1.2,3,2.8c-0.1,1.6-1.9,2.8-3.4,2.2c-1.1-0.3-1.9-1.5-1.8-2.6
			C40.9,54.7,41.9,53.6,43,53.5z"/>
		<path class="st1" d="M58.5,53.5c1.6-0.3,3.2,1.2,3,2.8c-0.1,1.6-1.9,2.8-3.4,2.2c-1.1-0.4-1.9-1.5-1.7-2.7
			C56.4,54.6,57.2,53.6,58.5,53.5z"/>
		<path class="st1" d="M13.8,61.8c0-1.8,1.6-3.4,3.4-3.5c2,0,4,0,6.1,0c1.8,0,3.4,1.6,3.5,3.5c0,2.5,0,4.9,0,7.4
			c0.4-0.3,0.9-0.4,1.2,0c0.5,0.7,0.9,1.6,1.5,2.2c0.2,0.3,0.5,0.3,0.9,0.3c0.8,0,1.6,0,2.3,0c0.3,0,0.6-0.1,0.7-0.3
			c0.6-0.7,0.9-1.5,1.5-2.2c0.3-0.4,0.8-0.3,1.2,0c0.7-2.4,1.4-4.7,2.1-7.1c0.4-1.1,1.3-2.3,2.6-2.2c1.8,0,3.6,0,5.5,0
			c1.2,0,2.1,1,2.4,2.1c0.7,2.2,1.4,4.4,2.1,6.7c0.1,0.4,0.2,0.8,0.1,1.3c-0.2,0.6-1.1,0.9-1.6,0.5c-0.3-0.2-0.4-0.6-0.5-0.9
			c-0.5-1.9-1.1-3.7-1.6-5.6c-0.1-0.2-0.2-0.5-0.4-0.5c-0.3,0.1-0.3,0.5-0.2,0.7c1,3.6,2,7.2,3,10.8c-0.9,0-1.9,0-2.8,0
			c0,2.6,0,5.2,0,7.8c0,0.7-0.6,1.4-1.4,1.4c-0.7,0-1.3-0.7-1.3-1.4c0-2.6,0-5.2,0-7.8c-0.3,0-0.5,0-0.8,0c0,2.6,0,5.2,0,7.8
			c0,0.7-0.6,1.4-1.3,1.4c-0.7,0-1.4-0.6-1.3-1.4c0-2.6,0-5.2,0-7.8c-0.9,0-1.9,0-2.8,0c1-3.7,2-7.3,3-11c0.2-0.4-0.4-0.7-0.6-0.3
			c-0.6,2-1.2,4-1.8,6c-0.1,0.5-0.5,1-1.1,0.9c-0.4,0-0.7-0.2-1-0.5c-0.7,1.3-1.4,2.6-2.1,3.9c-0.3,0.5-0.2,1.1-0.1,1.6
			c0.4,1.3,0.7,2.6,1.1,3.9c-0.4,0-0.8,0-1.2,0c0,1.2,0,2.4,0,3.5c0,0.6-0.6,1.1-1.2,1c-0.5-0.1-0.9-0.5-0.9-1.1c0-1.1,0-2.3,0-3.4
			c-0.2,0-0.4,0-0.6,0c0,1.1,0,2.3,0,3.4c0,0.6-0.5,1.1-1.1,1.1s-1.1-0.5-1-1.1c0-1.1,0-2.3,0-3.4c-0.4,0-0.8,0-1.1,0
			c0.4-1.3,0.7-2.6,1.1-3.9c0.1-0.6,0.2-1.2-0.2-1.7c-0.7-1.3-1.4-2.5-2.1-3.8c-0.5,0.8-1.9,0.7-2-0.3c-0.1-2.3,0-4.6,0-6.8
			c0-0.6-1-0.5-0.9,0.1c0,6.5,0,13,0,19.5c0,0.8-0.8,1.5-1.5,1.4c-0.8,0-1.5-0.7-1.5-1.4c0-3.8,0-7.5,0-11.3c0-0.5-0.9-0.5-0.8,0
			c0,3.7,0,7.5,0,11.2c0,0.8-0.7,1.6-1.6,1.5c-0.8,0-1.5-0.7-1.5-1.5c0-6.4,0-12.9,0-19.3c0-0.3-0.1-0.7-0.5-0.6
			c-0.3,0-0.4,0.3-0.4,0.6c0,2.2,0,4.3,0,6.5c0,0.6-0.5,1.1-1.1,1c-0.6,0-1-0.6-1-1.1C13.8,66.9,13.8,64.4,13.8,61.8z"/>
		<path class="st1" d="M77.1,58.4c2.1-0.1,4.1,0,6.2,0c1.9,0,3.5,1.6,3.5,3.5c0,2.5,0,5.1,0,7.6c0,0.6-0.4,1.2-1,1.2s-1.1-0.5-1.1-1
			c0-2.2,0-4.4,0-6.6c0-0.5-0.9-0.6-0.9,0c0,6.5,0,13,0,19.5c0,0.8-0.6,1.5-1.4,1.5c-0.8,0.1-1.6-0.6-1.6-1.4c0-3.8,0-7.6,0-11.3
			c0-0.5-0.9-0.5-0.8,0c0,3.7,0,7.5,0,11.2c0,0.8-0.6,1.5-1.4,1.5c-0.8,0.1-1.7-0.6-1.7-1.4c0-6.5,0-13,0-19.5
			c0.1-0.6-0.9-0.7-0.9-0.1c0,2.2,0,4.4,0,6.6c0,0.6-0.6,1.1-1.2,1c-0.6,0-1-0.6-0.9-1.1c0-2.5,0-5.1,0-7.6
			C74,60.1,75.4,58.5,77.1,58.4z"/>
		<path class="st1" d="M53.7,61.9c0.4-1.1,1.3-2.1,2.5-2.1c1.8,0,3.6,0,5.5,0c1.2,0,2.1,1.1,2.5,2.1c0.7,2.2,1.4,4.4,2.1,6.7
			c0.1,0.4,0.2,0.8,0.1,1.2c-0.2,0.5-0.9,0.8-1.4,0.6c-0.4-0.2-0.6-0.6-0.8-1c-0.6-1.9-1.1-3.8-1.7-5.7c-0.1-0.2-0.2-0.5-0.4-0.4
			c-0.3,0.1-0.3,0.4-0.2,0.7c1,3.6,2,7.2,3,10.8c-0.9,0-1.9,0-2.8,0c0,2.6,0,5.2,0,7.8c0,0.7-0.6,1.4-1.3,1.4
			c-0.7,0-1.4-0.6-1.4-1.4c0-2.6,0-5.2,0-7.8c-0.3,0-0.5,0-0.8,0c0,2.6,0,5.2,0,7.8c0,0.7-0.6,1.4-1.4,1.4c-0.7,0-1.4-0.6-1.3-1.4
			c0-2.6,0-5.2,0-7.8c-0.9,0-1.9,0-2.8,0c1-3.6,2-7.2,3-10.8c0.1-0.2,0.1-0.6-0.2-0.7s-0.4,0.2-0.4,0.4c-0.5,1.9-1.1,3.7-1.7,5.6
			c-0.1,0.3-0.2,0.7-0.5,0.9c-0.5,0.4-1.4,0.2-1.6-0.4c-0.2-0.4-0.1-0.8,0.1-1.2C52.2,66.4,53,64.2,53.7,61.9z"/>
		<path class="st1" d="M30.7,66.2c0.9-0.3,1.9,0,2.4,0.8c0.6,0.9,0.5,2.2-0.3,2.9c-0.9,0.9-2.7,0.6-3.3-0.5
			C28.8,68.2,29.5,66.6,30.7,66.2z"/>
		<path class="st1" d="M69.5,66.2c0.9-0.3,1.9,0.1,2.4,0.8c0.6,0.9,0.5,2.1-0.3,2.8c-0.9,0.9-2.6,0.7-3.3-0.5
			C67.6,68.2,68.2,66.6,69.5,66.2z"/>
		<path class="st1" d="M66.9,72.5c0.3-0.6,0.7-1.2,1.4-1.2c1.3,0,2.5-0.1,3.8,0c0.7,0,1.3,0.5,1.5,1.1c0.6,1.5,1.2,2.9,1.8,4.4
			c0.3,0.6-0.7,1.4-1.2,0.9c-0.6-1.2-0.9-2.6-1.5-3.8c-0.1,3,0,6,0,9c0,0.6-0.5,1.1-1.1,1.1s-1.1-0.4-1.1-1c0-1.3,0-2.5,0-3.8
			c0-0.3-0.6-0.4-0.6,0c-0.1,1.3,0.1,2.7-0.1,4c-0.3,1.1-2,1-2.1-0.1c-0.1-3.1,0-6.1-0.1-9.2c-0.6,1.3-0.8,2.7-1.4,4
			c-0.3,0.5-1,0.4-1.2-0.1c-0.2-0.4,0.1-0.8,0.2-1.2C65.7,75.2,66.2,73.8,66.9,72.5z"/>
	</g>
</g>
<g>
	<rect x="100" class="st1" width="100" height="100"/>
	<g>
		<path class="st0" d="M113.8,19.5c1-1.2,2-2.4,3.1-3.6c0.9,0,1.8,0,2.7,0c0,6.6,0,13.2,0,19.8c-1.1,0-2.2,0-3.3,0
			c0-5.1,0-10.1,0-15.2c-0.8,0.8-1.6,1.7-2.4,2.5C113.8,21.9,113.7,20.8,113.8,19.5z"/>
		<path class="st0" d="M130.5,16.1c0.5,0,0.9,0,1.4,0c0.5,1.6,1,3.1,1.5,4.7c0-1.6,0-3.1,0-4.7c0.4,0,0.8,0,1.2,0c0,2.8,0,5.5,0,8.3
			c-0.4,0-0.8,0-1.2,0c-0.5-1.7-1.1-3.4-1.6-5.2c0,1.7,0,3.4,0,5.2c-0.4,0-0.8,0-1.2,0C130.5,21.6,130.5,18.9,130.5,16.1z"/>
		<path class="st0" d="M136.7,16.1c1-0.3,2.5,0,2.8,1.2c0.3,1,0.1,2.2,0.1,3.2c-0.1,1,0.2,2-0.2,2.9c-0.7,1.7-3.7,1.4-3.9-0.4
			c-0.2-1.6,0-3.1-0.1-4.7C135.3,17.4,135.7,16.4,136.7,16.1 M137.1,17.3c-0.3,0.3-0.3,0.7-0.3,1.1c0,1.5,0,2.9,0,4.4
			c0.1,0.7,1.3,0.7,1.4-0.1c0.1-1.6,0-3.2,0-4.8C138.2,17.3,137.5,17,137.1,17.3z"/>
		<path class="st0" d="M130.5,27.8c1,0.1,2.1-0.2,3.1,0.2c0.8,0.3,0.9,1.3,0.9,2.1c-0.1,0.9,0.2,1.9-0.4,2.6
			c-0.5,0.6-1.5,0.6-2.2,0.6c0,0.9,0,1.9,0,2.8c-0.5,0-0.9,0-1.4,0C130.5,33.3,130.5,30.5,130.5,27.8 M132,28.9c0,1.1,0,2.2,0,3.3
			c0.4,0,1,0.1,1.1-0.4c0.1-0.8,0.1-1.6,0-2.3C133.1,28.8,132.4,28.9,132,28.9z"/>
		<path class="st0" d="M136.5,27.8c0.9-0.2,2-0.1,2.5,0.6c0.6,0.8,0.4,1.9,0.4,2.8c-0.1,1.2,0.1,2.4-0.1,3.6c-0.5,1.8-3.6,1.7-4-0.1
			c-0.2-1.6,0-3.2-0.1-4.8C135.2,29,135.6,28,136.5,27.8 M137.1,28.9c-0.4,0.2-0.4,0.7-0.4,1.1c0,1.5,0,2.9,0,4.4
			c0.1,0.8,1.4,0.7,1.4-0.1c0-1.6,0-3.2,0-4.8C138.1,29,137.5,28.6,137.1,28.9z"/>
		<path class="st0" d="M139.8,27.8c0.5,0,1,0,1.4,0c0.3,1.9,0.6,3.8,1,5.7c0.4-1.9,0.6-3.8,1-5.7c0.4,0,0.9,0,1.3,0
			c-0.5,2.7-1,5.5-1.6,8.2c-0.5,0.2-1,0-1.5,0C140.9,33.2,140.3,30.5,139.8,27.8z"/>
		<path class="st0" d="M145.1,27.8c1.1,0,2.2,0,3.3,0c0,0.4,0,0.8,0,1.1c-0.6,0-1.3,0-1.9,0c0,0.8,0,1.6,0,2.4c0.5,0,0.9,0,1.4,0
			c0,0.4,0,0.8,0,1.1c-0.5,0-0.9,0-1.4,0c0,0.8,0,1.7,0,2.5c0.6,0,1.3,0,1.9,0c0,0.4,0,0.8,0,1.1c-1.1,0-2.2,0-3.3,0
			C145.1,33.3,145.1,30.5,145.1,27.8z"/>
		<path class="st0" d="M149.1,27.8c1.1,0.1,2.3-0.2,3.3,0.3c0.9,0.6,0.6,1.8,0.7,2.8c0,0.7-0.4,1.3-1.1,1.5c0.4,1.2,0.9,2.5,1.3,3.7
			c-0.5,0-1,0-1.5,0c-0.4-1.2-0.8-2.5-1.3-3.7c0,1.2,0,2.5,0,3.7c-0.5,0-0.9,0-1.4,0C149.1,33.3,149.1,30.5,149.1,27.8 M150.5,28.9
			c0,0.9,0,1.7,0,2.6c0.4,0,0.9,0.1,1.1-0.4c0.1-0.6,0.1-1.2,0-1.8C151.5,28.8,150.9,28.9,150.5,28.9z"/>
		<path class="st0" d="M153.6,27.8c1.2,0,2.5,0,3.7,0c0,0.4,0,0.8,0,1.1c-0.4,0-0.8,0-1.2,0c0,2.4,0,4.8,0,7.2c-0.5,0-0.9,0-1.4,0
			c0-2.4,0-4.8,0-7.2c-0.4,0-0.8,0-1.2,0C153.6,28.5,153.6,28.1,153.6,27.8z"/>
		<path class="st0" d="M157.7,27.8c0.5,0,1,0,1.5,0c0.3,1,0.6,2.1,0.9,3.1c0.3-1,0.6-2.1,0.8-3.1c0.4,0,0.9,0,1.3,0
			c-0.5,1.7-1,3.4-1.5,5c-0.1,1.1,0,2.2,0,3.3c-0.5,0-0.9,0-1.4,0c0-1.1,0-2.2,0-3.2C158.7,31.1,158.2,29.4,157.7,27.8z"/>
		<path class="st0" d="M120,52.1c1.9-0.6,4,1.3,3.4,3.3c-0.4,2-3.1,2.8-4.5,1.4C117.4,55.3,118,52.4,120,52.1z"/>
		<path class="st0" d="M180.2,51.9c1-0.3,2.2,0.1,2.9,0.9c0.8,0.9,0.8,2.4,0,3.4c-0.7,0.9-2,1.3-3,0.9c-1.1-0.4-1.9-1.5-1.9-2.7
			C178.2,53.3,179,52.2,180.2,51.9z"/>
		<path class="st0" d="M143.3,53.6c1.2-0.3,2.5,0.3,3,1.4c0.6,1.1,0.2,2.5-0.8,3.2c-1.1,0.8-2.7,0.6-3.5-0.5
			C140.7,56.3,141.5,53.9,143.3,53.6z"/>
		<path class="st0" d="M158.8,53.6c1.1-0.3,2.2,0.2,2.8,1.2s0.5,2.4-0.4,3.2c-0.8,0.8-2.1,1-3.1,0.4c-0.9-0.5-1.4-1.5-1.3-2.5
			C156.9,54.8,157.7,53.8,158.8,53.6z"/>
		<path class="st0" d="M114.3,61.8c0.1-1.8,1.6-3.4,3.5-3.4c2,0,4,0,6,0c1.8,0,3.5,1.6,3.5,3.4c0,2.5,0,4.9,0,7.4
			c0.3-0.2,0.8-0.4,1.1-0.1c0.7,0.8,1,2,1.9,2.6c1,0.1,2.1,0.1,3.1,0c1-0.6,1.2-1.9,2-2.7c0.3-0.3,0.7-0.1,1.1,0
			c0.7-2.4,1.4-4.7,2.1-7c0.3-1.1,1.3-2.3,2.5-2.3c1.8,0,3.7,0,5.5,0c1.2,0,2.1,1.1,2.5,2.1c0.7,2.3,1.4,4.5,2.1,6.8
			c0.2,0.6,0.1,1.4-0.6,1.7c-0.6,0.3-1.3-0.1-1.5-0.8c-0.6-2-1.2-4.1-1.8-6.1c-0.2-0.5-0.7-0.1-0.6,0.3c1,3.7,2,7.3,3,11
			c-0.9,0-1.9,0-2.8,0c0,2.6,0,5.2,0,7.8c0,0.8-0.6,1.4-1.4,1.4c-0.7,0-1.3-0.7-1.3-1.4c0-2.6,0-5.2,0-7.8c-0.3,0-0.5,0-0.7,0
			c0,2.6,0,5.2,0,7.8c0,0.7-0.6,1.4-1.3,1.4c-0.7,0-1.4-0.6-1.3-1.4c0-2.6,0-5.2,0-7.8c-0.9,0-1.9,0-2.8,0c1-3.7,2-7.3,3-11
			c0.2-0.4-0.3-0.8-0.5-0.4c-0.7,2.1-1.2,4.3-2,6.4c-0.3,0.8-1.4,0.8-1.9,0.1c-0.7,1.4-1.5,2.6-2.2,4c-0.2,0.5-0.2,1.1-0.1,1.6
			c0.4,1.3,0.7,2.6,1.1,3.9c-0.4,0-0.8,0-1.2,0c0,1.3,0.1,2.5,0,3.8c-0.2,1-1.8,1-2,0c-0.1-1.2,0-2.5,0-3.7c-0.2,0-0.4,0-0.6,0
			c0,1.3,0.1,2.5,0,3.8c-0.2,1-1.8,1-2,0c-0.1-1.2,0-2.5,0-3.7c-0.4,0-0.8,0-1.1,0c0.3-1.3,0.7-2.6,1.1-3.9c0.1-0.6,0.2-1.2-0.1-1.8
			c-0.7-1.3-1.4-2.5-2.1-3.8c-0.5,0.8-1.9,0.6-2-0.3c-0.1-2.3,0-4.5,0-6.8c0.1-0.4-0.5-0.7-0.8-0.3c-0.2,0.4-0.1,0.8-0.1,1.2
			c0,6.2,0,12.4,0,18.6c0,0.8-0.7,1.5-1.5,1.5s-1.5-0.7-1.5-1.5c0-3.8,0-7.6,0-11.3c0-0.5-0.8-0.5-0.8,0c0,3.8,0,7.6,0,11.3
			c0,0.8-0.7,1.5-1.6,1.5c-0.8,0-1.5-0.7-1.5-1.5c0-6.5,0-13,0-19.5c0.1-0.6-0.9-0.6-0.9,0c0,2.2,0,4.4,0,6.6c0,0.4-0.3,0.7-0.6,0.9
			c-0.8,4.3-1.6,8.7-2.5,13c-0.1,0.7-1.2,0.6-1.1-0.1c0.8-4.3,1.6-8.7,2.4-13c-0.2-0.3-0.4-0.6-0.4-0.9
			C114.3,66.9,114.3,64.3,114.3,61.8z"/>
		<path class="st0" d="M177.2,58.4c2.1-0.2,4.3,0,6.5-0.1c1.9-0.1,3.7,1.5,3.7,3.4c0,2.6,0,5.3,0,7.9c-0.1,1.1-1.9,1.2-2.1,0.1
			c-0.1-2.3,0-4.6-0.1-6.9c-0.1-0.5-0.9-0.4-0.8,0.1c0,6.5,0,13,0,19.5c0,0.8-0.7,1.5-1.5,1.5s-1.5-0.7-1.5-1.5c0-3.7,0-7.5,0-11.2
			c0.1-0.5-0.8-0.7-0.8-0.1c-0.1,3.8,0,7.6,0,11.3c0,0.8-0.7,1.5-1.5,1.5s-1.5-0.7-1.5-1.5c0-6.5,0-13,0-19.5
			c0.1-0.6-0.8-0.6-0.8-0.1c-0.1,2.3,0.1,4.7-0.1,7c-0.2,1.1-2,1-2.1-0.1c0-2.6,0-5.2,0-7.8C174.4,60.3,175.6,58.8,177.2,58.4z"/>
		<path class="st0" d="M154.2,62.1c0.4-1.1,1.3-2.2,2.5-2.2c1.8,0,3.7,0,5.5,0c1.2,0,2.1,1.1,2.5,2.2c0.7,2.3,1.4,4.5,2.1,6.8
			c0.2,0.6,0.1,1.4-0.6,1.6c-0.6,0.3-1.2-0.2-1.4-0.8c-0.6-2-1.2-4.1-1.8-6.1c-0.1-0.5-0.8-0.1-0.6,0.3c1,3.7,2,7.3,3,11
			c-0.9,0-1.9,0-2.8,0c0,2.6,0,5.2,0,7.8c0,0.7-0.6,1.4-1.4,1.4c-0.7,0-1.4-0.6-1.3-1.4c0-2.6,0-5.2,0-7.8c-0.2,0-0.5,0-0.7,0
			c0,2.6,0,5.2,0,7.8c0,0.8-0.7,1.4-1.4,1.4s-1.3-0.7-1.3-1.4c0-2.6,0-5.2,0-7.8c-0.9,0-1.9,0-2.8,0c1-3.7,2-7.3,3-11
			c0.2-0.4-0.4-0.8-0.6-0.3c-0.6,2-1.2,4.1-1.8,6.1c-0.2,0.6-0.8,1-1.4,0.8c-0.7-0.2-0.9-1.1-0.6-1.7
			C152.8,66.6,153.5,64.2,154.2,62.1z"/>
		<path class="st0" d="M131.9,66.1c1.6-0.1,2.8,1.8,1.9,3.2c-0.7,1.4-3,1.4-3.7,0C129.2,68.1,130.3,66.1,131.9,66.1z"/>
		<path class="st0" d="M170.5,66.1c1.3-0.1,2.5,1.2,2.2,2.5c-0.1,1.1-1.3,2-2.4,1.8c-1-0.1-1.9-1.1-1.9-2.1
			C168.5,67.2,169.4,66.2,170.5,66.1z"/>
		<path class="st0" d="M167.5,72.3c0.3-0.5,0.8-1,1.4-1c1.3,0,2.5-0.1,3.8,0c0.7,0,1.2,0.5,1.4,1.1c0.5,1.4,1.2,2.9,1.7,4.3
			c0.3,0.6-0.5,1.4-1.1,1c-0.6-1.2-0.9-2.6-1.5-3.9c-0.1,3.1,0,6.1-0.1,9.2c-0.1,1.1-1.9,1.2-2.1,0.1c-0.2-1.4,0-2.7-0.1-4.1
			c-0.1-0.3-0.6-0.3-0.6,0.1c-0.1,1.3,0.1,2.7-0.1,4c-0.3,1.1-2,1-2.1-0.1c-0.1-3.1,0-6.1-0.1-9.2c-0.6,1.3-0.8,2.7-1.4,4
			c-0.3,0.5-1.2,0.3-1.3-0.3c0-0.5,0.2-0.9,0.3-1.3C166.3,75.1,166.8,73.6,167.5,72.3z"/>
	</g>
</g>
</svg>
