<?xml version="1.0" encoding="utf-8"?>
<!-- Generator: Adobe Illustrator 19.0.0, SVG Export Plug-In . SVG Version: 6.00 Build 0)  -->
<svg version="1.1" id="Layer_1" xmlns="http://www.w3.org/2000/svg" xmlns:xlink="http://www.w3.org/1999/xlink" x="0px" y="0px"
	 viewBox="-155 247 300 300" style="enable-background:new -155 247 300 300;" xml:space="preserve">
<style type="text/css">
	.st0{fill:#D3A029;}
	.st1{fill:#FFFFFF;}
</style>
<g>
	<rect x="-155" y="247" class="st0" width="300" height="300"/>
	<path class="st1" d="M-119.9,278.6c2.2-3.8,6.8-5.2,11-5.2c4.1-0.1,8.9,0.7,11.4,4.3c2.7,3.9,2,8.9,2.1,13.4
		c0.1,4-0.5,8.1-2.9,11.4c-3.5,5-8.3,8.9-12.1,13.6c-2.1,2.6-2,6.1-1.9,9.2c5.5,0,11,0,16.4,0c0,2.7,0,5.5,0,8.2c-8.7,0-17.4,0-26,0
		c0.3-5.6-0.7-11.4,0.9-16.8c2.7-7.4,9.5-11.9,14.1-18c2.3-3.1,1.7-7.2,1.8-10.9c-0.1-1.8,0.3-4-1-5.5c-1.8-1.8-5.7-1.1-6.2,1.7
		c-0.5,3.1-0.1,6.3-0.3,9.5c-3,0-6.1,0-9.1,0C-121.5,288.6-122.6,283.1-119.9,278.6z"/>
	<path class="st1" d="M-22,274.5c2.9-0.4,6.1,1.2,6.8,4.2c0.7,3.3,0.2,6.7,0.3,10.1c-0.1,2.9,0.5,6-1,8.6
		c-2.7,4.3-10.9,3.2-11.5-2.2c-0.3-4.9-0.1-9.8-0.1-14.7C-27.7,277.5-25.2,274.5-22,274.5 M-21.3,278c-1.6-0.1-2.2,1.6-2.1,2.9
		c0.1,4.6-0.1,9.1,0.1,13.7c0,2.3,3.7,2.5,4,0.2c0.3-4.8,0.1-9.5,0.1-14.3C-19,279.3-19.9,277.9-21.3,278z"/>
	<path class="st1" d="M-66.5,274.8c3.4,0,6.9,0,10.3,0c0,1.5,0.2,3.2-0.4,4.6c-2.1,5.6-4.1,11.2-6.2,16.8c2.1,0,4.2,0,6.3,0
		c0,1.1,0,2.3,0,3.4c-3.6,0-7.2,0-10.8,0c0-1.6-0.2-3.2,0.4-4.7c2.1-5.6,4.1-11.2,6.1-16.8c-2,0-3.9,0-5.9,0
		C-66.5,277.1-66.5,275.9-66.5,274.8z"/>
	<path class="st1" d="M-54,274.8c3.3,0,6.7,0,10,0c0,1.1,0,2.3,0,3.4c-1.9,0-3.8,0-5.7,0c0,2.4,0,4.7,0,7.1c1.4,0,2.8,0,4.1,0
		c0,1.1,0,2.3,0,3.4c-1.4,0-2.8,0-4.1,0c0,2.5,0,5,0,7.5c1.9,0,3.8,0,5.7,0c0,1.1,0,2.3,0,3.4c-3.3,0-6.7,0-10,0
		C-54,291.4-54,283.1-54,274.8z"/>
	<path class="st1" d="M-41.8,274.8c3.2,0.2,6.7-0.6,9.7,0.8c2.9,1.8,2.1,5.7,2.1,8.5c0.1,2.1-1.3,3.8-3.2,4.4
		c1.3,3.7,2.6,7.4,3.9,11.2c-1.5,0-3,0-4.4,0c-1.3-3.6-2.4-7.3-3.8-10.9c-0.1,3.6,0,7.3-0.1,10.9c-1.4,0-2.8,0-4.2,0
		C-41.8,291.4-41.8,283.1-41.8,274.8 M-37.5,278.2c0,2.6,0,5.2,0,7.8c1.1-0.1,2.8,0.2,3.2-1.2c0.3-1.8,0.3-3.6,0-5.4
		C-34.6,278-36.4,278.3-37.5,278.2z"/>
	<path class="st1" d="M-58.6,309.7c1.4,0,2.8,0,4.2,0c0,8.3,0,16.6,0,24.9c-1.4,0-2.8,0-4.2,0c0-3.7,0-7.3,0-11c-1.3,0-2.7,0-4,0
		c0,3.7,0,7.3,0,11c-1.4,0-2.8,0-4.2,0c0-8.3,0-16.6,0-24.9c1.4,0,2.8,0,4.2,0c0,3.5,0,7,0,10.5c1.3,0,2.7,0,4,0
		C-58.6,316.7-58.6,313.2-58.6,309.7z"/>
	<path class="st1" d="M-43.7,309.7c1.3,0,2.6,0,3.9,0c0,6.3,0,12.7,0,19c0,2.1-0.6,4.5-2.6,5.5c-2.1,1-4.6,0.9-6.7,0
		c-2.1-1-2.9-3.4-2.8-5.5c0-6.3,0-12.7,0-19c1.4,0,2.8,0,4.2,0c0.1,6.7-0.1,13.3,0.1,20c0.1,2.2,3.8,2.2,3.9,0
		C-43.6,323-43.8,316.3-43.7,309.7z"/>
	<path class="st1" d="M-28.9,309.7c1.2,0,2.3,0,3.5,0c0,8.3,0,16.6,0,24.9c-1.2,0-2.5,0-3.7,0c-1.6-5.1-3.2-10.2-4.8-15.2
		c-0.1,5.1,0,10.2,0,15.2c-1.2,0-2.4,0-3.6,0c0-8.3,0-16.6,0-24.9c1.4,0,2.8,0,4.1,0c1.5,4.6,2.9,9.3,4.5,13.9
		C-28.8,318.9-28.9,314.3-28.9,309.7z"/>
	<path class="st1" d="M-21.7,311.5c2-2.6,5.9-2.7,8.7-1.4c2.6,1.6,2.4,5,2.3,7.7c-1.3,0-2.6,0-3.8,0c-0.1-1.4,0.2-2.9-0.4-4.2
		c-1.1-1.5-3.9-0.6-3.8,1.3c-0.1,4.8-0.1,9.7,0,14.5c-0.1,2,2.9,2.7,3.7,1c0.6-1.9,0.2-3.9,0.3-5.8c-0.7,0-1.3,0-2,0
		c0-1.1,0-2.2,0-3.3c2,0,4,0,6,0c0,4.4,0,8.9,0,13.3c-1,0-2,0-3,0c0-0.8,0-1.5,0-2.3c-1.5,3.7-7.4,3.2-8.6-0.4
		c-1.3-3.7-0.4-7.7-0.7-11.5C-22.9,317.5-23.6,314.1-21.7,311.5z"/>
	<path class="st1" d="M-8.4,309.7c3.3,0,6.7,0,10,0c0,1.2,0,2.3,0,3.5c-1.9,0-3.8,0-5.8,0c0,2.4,0,4.7,0,7.1c1.4,0,2.8,0,4.1,0
		c0,1.1,0,2.3,0,3.4c-1.4,0-2.8,0-4.1,0c0,2.5,0,5,0,7.5c1.9,0,3.8,0,5.8,0c0,1.2,0,2.3,0,3.5c-3.3,0-6.7,0-10,0
		C-8.4,326.3-8.4,318-8.4,309.7z"/>
	<path class="st1" d="M3.9,309.7c3.2,0.2,6.7-0.6,9.7,0.8c2.8,1.8,2.1,5.6,2.1,8.4c0.1,2.1-1.3,3.9-3.2,4.5
		c1.3,3.7,2.6,7.4,3.9,11.2c-1.5,0-3,0-4.5,0c-1.3-3.7-2.5-7.4-3.8-11.1c0,3.7,0,7.4,0,11.2c-1.4,0-2.8,0-4.2,0
		C3.8,326.3,3.8,318,3.9,309.7 M8.1,313c0,2.6,0,5.2,0,7.8c1.1-0.1,2.9,0.2,3.2-1.3c0.2-1.8,0.2-3.6,0-5.4
		C11,312.8,9.2,313.2,8.1,313z"/>
	<path class="st1" d="M-43.8,372.6c2.6-3.8,10.4-1.3,8.7,3.6c-3.9,6.4-7,14-5.7,21.7c0.7,4.2,3,7.9,5.9,10.9
		c5.7,6.4,8.7,15.5,6.1,23.8c-3.4,0-6.8,0-10.3,0c2.6-5.8,1.1-12.8-2.8-17.6c-2.9-3.4-6-6.9-7.5-11.3
		C-53.2,393.4-49.9,381.5-43.8,372.6z"/>
	<path class="st1" d="M-13.4,373.3c1.7-3,6.4-3.4,8.6-0.7c1.1,1.2,1.2,3.1,0.2,4.5c-3.8,6-6.3,13.1-5.3,20.3
		c0.6,4.3,2.8,8.2,5.8,11.3c5.8,6.4,8.9,15.6,6.3,24.1c-3.4,0-6.8,0-10.3,0c3-6.6,0.6-14.3-4.2-19.4c-4-4.2-6.9-9.6-7.6-15.5
		C-20.9,389.2-18,380.5-13.4,373.3z"/>
	<path class="st1" d="M17.4,373.3c1.7-3,6.4-3.4,8.6-0.7c1.1,1.2,1.2,3.2,0.2,4.5c-3.8,5.9-6.3,13.1-5.4,20.2
		c0.5,4.3,2.8,8.3,5.8,11.4c5.8,6.4,8.9,15.6,6.3,24.1c-3.4,0-6.8,0-10.3,0c2.6-5.9,1.2-12.8-2.8-17.7c-3.1-3.6-6.2-7.2-7.7-11.8
		C8.8,393.1,11.9,382,17.4,373.3z"/>
	<path class="st1" d="M-88.7,441.6c-0.4-1.5,1-2.8,2.5-2.5c51.4,0,102.9,0,154.3,0c1.4-0.2,2.6,1.1,2.3,2.4
		c-2.2,13.6-8.8,26.4-18.2,36.5c-9.3,10.1-21.3,17.5-34.3,21.8c-0.3,2.2,1.2,6.4-2.1,6.6c-16.2,0-32.3,0-48.5,0
		c-3.1-0.1-1.9-4.1-2.1-6.2c-11.9-3.7-23.1-10-32.1-18.6C-78.2,471.1-86.3,456.9-88.7,441.6z"/>
</g>
</svg>
