<?xml version="1.0" encoding="utf-8"?>
<!-- Generator: Adobe Illustrator 19.0.0, SVG Export Plug-In . SVG Version: 6.00 Build 0)  -->
<svg version="1.1" id="Layer_1" xmlns="http://www.w3.org/2000/svg" xmlns:xlink="http://www.w3.org/1999/xlink" x="0px" y="0px"
	 viewBox="0 0 200 100" style="enable-background:new 0 0 200 100;" xml:space="preserve">
<style type="text/css">
	.st0{fill:#FFFFFF;}
	.st1{fill:#D3A029;}
</style>
<g id="XMLID_1_">
	<g id="XMLID_2_">
		<rect id="XMLID_24_" x="0" y="0" class="st0" width="100" height="100"/>
		<path id="XMLID_23_" class="st1" d="M14.8,8.8c1.3-0.1,2.9,0,3.9,0.9c0.9,0.8,1.2,2.2,1.1,3.4c0,1.5,0.2,3.1-0.5,4.5
			c-0.8,1.6-2.3,2.8-3.4,4.2c-0.5,0.6-1.1,1.1-1.4,1.9c-0.3,0.8-0.2,1.6-0.2,2.4c1.8,0,3.6,0,5.5,0c0,0.9,0,1.8,0,2.7
			c-2.9,0-5.8,0-8.7,0c0.1-1.8-0.2-3.6,0.2-5.4c0.6-2,2.3-3.4,3.7-4.9c0.6-0.6,1.3-1.3,1.5-2.2c0.2-1,0.1-2,0.2-3
			c0-0.5,0-1.2-0.4-1.6c-0.6-0.6-1.9-0.3-2,0.7c-0.1,1,0,2.1-0.1,3.1c-1,0-2,0-3,0c0.1-1.6-0.2-3.3,0.5-4.7
			C12.2,9.6,13.5,8.9,14.8,8.8z"/>
		<path id="XMLID_20_" class="st1" d="M44,9.2c0.7-0.1,1.5-0.1,2,0.4c0.5,0.4,0.7,1.1,0.7,1.8c0,1.4,0,2.7,0,4.1
			c0,0.7-0.3,1.6-1,1.9c-0.7,0.3-1.5,0.3-2.2,0c-0.7-0.3-1-1.2-1-1.9c0-1.5,0-2.9,0-4.4C42.5,10.3,43.1,9.4,44,9.2 M44.3,10.4
			c-0.4,0.1-0.4,0.6-0.4,0.9c0,1.5,0,2.9,0,4.4c0,0.4,0.3,0.8,0.7,0.8c0.4,0.1,0.8-0.4,0.7-0.8c0-1.6,0-3.1,0-4.7
			C45.3,10.5,44.7,10.2,44.3,10.4z"/>
		<path id="XMLID_19_" class="st1" d="M29.5,9.3c1.1,0,2.3,0,3.4,0c0,0.5,0.1,1-0.1,1.4c-0.7,1.9-1.4,3.8-2.1,5.7c0.7,0,1.4,0,2.1,0
			c0,0.4,0,0.8,0,1.1c-1.2,0-2.4,0-3.6,0c0-0.5-0.1-0.9,0.1-1.4c0.7-1.9,1.4-3.8,2.1-5.8c-0.7,0-1.3,0-2,0
			C29.5,10,29.5,9.7,29.5,9.3z"/>
		<path id="XMLID_18_" class="st1" d="M33.7,9.3c1.1,0,2.2,0,3.3,0c0,0.4,0,0.8,0,1.1c-0.6,0-1.3,0-1.9,0c0,0.8,0,1.6,0,2.4
			c0.5,0,0.9,0,1.4,0c0,0.4,0,0.8,0,1.1c-0.5,0-0.9,0-1.4,0c0,0.8,0,1.7,0,2.5c0.6,0,1.3,0,1.9,0c0,0.4,0,0.8,0,1.1
			c-1.1,0-2.2,0-3.3,0C33.7,14.8,33.7,12,33.7,9.3z"/>
		<path id="XMLID_15_" class="st1" d="M37.8,9.3c0.8,0,1.6,0,2.4,0c0.6,0,1.3,0.4,1.5,1.1c0.2,0.7,0.1,1.5,0.1,2.2
			c0,0.6-0.5,1.1-1.1,1.2c0.4,1.3,0.9,2.5,1.3,3.7c-0.5,0-1,0-1.5,0c-0.4-1.2-0.8-2.5-1.3-3.7c0,1.2,0,2.5,0,3.7c-0.5,0-0.9,0-1.4,0
			C37.8,14.8,37.7,12,37.8,9.3 M39.2,10.4c0,0.9,0,1.7,0,2.6c0.4,0,1,0.1,1.1-0.5c0-0.6,0.1-1.1,0-1.7
			C40.1,10.3,39.5,10.4,39.2,10.4z"/>
		<path id="XMLID_14_" class="st1" d="M45.3,20.9c0.8-0.2,1.7-0.2,2.3,0.4c0.6,0.6,0.5,1.5,0.5,2.3c-0.4,0-0.9,0-1.3,0
			c0-0.4,0.1-0.9-0.1-1.3c-0.3-0.6-1.3-0.4-1.3,0.3c-0.1,1.4,0,2.8,0,4.2c0,0.4,0,0.7,0.1,1.1c0.2,0.5,1.1,0.4,1.2-0.1
			c0.1-0.6,0-1.2,0-1.8c-0.2,0-0.4,0-0.7,0c0-0.4,0-0.7,0-1.1c0.7,0,1.3,0,2,0c0,1.5,0,3,0,4.4c-0.3,0-0.7,0-1,0c0-0.3,0-0.5,0-0.8
			c-0.4,1-1.8,1.1-2.5,0.4C44.1,28.4,44,27.7,44,27c0-1.4,0-2.8,0-4.2C44,22,44.5,21.1,45.3,20.9z"/>
		<path id="XMLID_13_" class="st1" d="M29.4,20.9c0.5,0,0.9,0,1.4,0c0,1.2,0,2.3,0,3.5c0.4,0,0.9,0,1.3,0c0-1.2,0-2.3,0-3.5
			c0.5,0,0.9,0,1.4,0c0,2.8,0,5.5,0,8.3c-0.5,0-0.9,0-1.4,0c0-1.2,0-2.4,0-3.7c-0.4,0-0.9,0-1.3,0c0,1.2,0,2.4,0,3.7
			c-0.5,0-0.9,0-1.4,0C29.4,26.4,29.4,23.7,29.4,20.9z"/>
		<path id="XMLID_12_" class="st1" d="M34.3,20.9c0.5,0,0.9,0,1.4,0c0,2.2,0,4.4,0,6.6c0,0.5,0.4,0.8,0.9,0.6
			c0.4-0.1,0.5-0.5,0.5-0.8c0-2.1,0-4.2,0-6.4c0.4,0,0.9,0,1.3,0c0,2.1,0,4.2,0,6.4c0,0.7-0.2,1.5-0.9,1.8c-0.7,0.3-1.5,0.3-2.2,0
			c-0.7-0.3-1-1.1-1-1.8C34.3,25.1,34.3,23,34.3,20.9z"/>
		<path id="XMLID_11_" class="st1" d="M39.2,20.9c0.5,0,0.9,0,1.4,0c0.5,1.6,1,3.1,1.5,4.7c0-1.6,0-3.1,0-4.7c0.4,0,0.8,0,1.2,0
			c0,2.8,0,5.5,0,8.3c-0.4,0-0.8,0-1.2,0c-0.6-1.7-1.1-3.4-1.6-5.1c0,1.7,0,3.4,0,5.1c-0.4,0-0.8,0-1.2,0
			C39.2,26.4,39.2,23.7,39.2,20.9z"/>
		<path id="XMLID_10_" class="st1" d="M48.9,20.9c1.1,0,2.2,0,3.3,0c0,0.4,0,0.8,0,1.1c-0.6,0-1.3,0-1.9,0c0,0.8,0,1.6,0,2.4
			c0.5,0,0.9,0,1.4,0c0,0.4,0,0.7,0,1.1c-0.5,0-0.9,0-1.4,0c0,0.8,0,1.7,0,2.5c0.6,0,1.3,0,1.9,0c0,0.4,0,0.8,0,1.1
			c-1.1,0-2.2,0-3.3,0C48.9,26.4,48.9,23.7,48.9,20.9z"/>
		<path id="XMLID_7_" class="st1" d="M53,20.9c0.8,0,1.6,0,2.3,0c0.6,0,1.3,0.4,1.5,1c0.2,0.7,0.1,1.5,0.1,2.3
			c0,0.6-0.5,1.1-1.1,1.3c0.4,1.2,0.9,2.5,1.3,3.7c-0.5,0-1,0-1.5,0c-0.4-1.2-0.9-2.5-1.3-3.7c0,1.2,0,2.5,0,3.7c-0.5,0-0.9,0-1.4,0
			C53,26.4,53,23.7,53,20.9 M54.4,22c0,0.9,0,1.7,0,2.6c0.4,0,1,0.1,1.1-0.4c0.1-0.6,0-1.2,0-1.7C55.4,22,54.7,22,54.4,22z"/>
		<path id="XMLID_6_" class="st1" d="M37,42c0.6-0.9,2.1-1,2.8-0.2c0.4,0.4,0.4,1,0.2,1.5c-1.2,1.8-2,4-1.9,6.2
			c0.1,1.6,0.8,3.1,1.9,4.3c2,2.1,3,5.2,2.1,8.1c-1.1,0-2.3,0-3.4,0c0.8-1.7,0.5-3.8-0.6-5.4c-0.6-0.9-1.4-1.6-1.9-2.5
			c-1.1-1.6-1.6-3.6-1.5-5.5C34.8,46.2,35.7,44,37,42z"/>
		<path id="XMLID_5_" class="st1" d="M47.2,42.1c0.6-0.9,2-1,2.8-0.3c0.4,0.4,0.5,1,0.2,1.5c-1.1,1.8-1.9,3.8-1.9,6
			c0,1.6,0.7,3.2,1.8,4.4c2,2.2,3.2,5.3,2.3,8.3c-1.1,0-2.3,0-3.4,0c0.6-1.3,0.6-2.9,0-4.2c-0.4-1.1-1.2-2-2-2.9
			c-1.3-1.5-2-3.5-2-5.5C44.9,46.7,45.9,44.2,47.2,42.1z"/>
		<path id="XMLID_4_" class="st1" d="M57.5,42.1c0.6-0.9,2-1.1,2.8-0.3c0.4,0.4,0.5,1,0.2,1.5c-1.2,1.9-2.1,4.2-1.9,6.5
			c0.1,1.5,0.9,2.9,1.9,4c2,2.1,3,5.2,2.1,8.1c-1.1,0-2.3,0-3.4,0c0.8-1.7,0.5-3.8-0.6-5.3c-0.5-0.9-1.4-1.6-1.9-2.5
			c-1.1-1.6-1.6-3.5-1.5-5.4C55.4,46.3,56.3,44,57.5,42.1z"/>
		<path id="XMLID_3_" class="st1" d="M22.1,64.8C22,64.4,22.4,64,22.9,64c17.2,0,34.4,0,51.6,0c0.4,0,0.8,0.4,0.7,0.8
			c-0.6,3.6-2.1,7-4.2,9.9c-3.3,4.5-8,7.8-13.3,9.5c0,0.6,0,1.1,0,1.7c0,0.3-0.4,0.6-0.7,0.5c-5.4,0-10.9,0-16.3,0
			c-1-0.2-0.5-1.4-0.6-2.1c-5.5-1.7-10.6-5.2-13.9-9.9C24.1,71.6,22.6,68.3,22.1,64.8z"/>
	</g>
</g>
<g id="XMLID_25_">
	<g id="XMLID_26_">
		<rect id="XMLID_48_" x="100" y="0" class="st1" width="100" height="100"/>
		<path id="XMLID_47_" class="st0" d="M111.7,10.5c0.7-1.3,2.3-1.7,3.7-1.7c1.4,0,3,0.2,3.8,1.4c0.9,1.3,0.7,3,0.7,4.5
			c0,1.3-0.2,2.7-1,3.8c-1.2,1.7-2.8,3-4,4.5c-0.7,0.9-0.7,2-0.6,3.1c1.8,0,3.7,0,5.5,0c0,0.9,0,1.8,0,2.7c-2.9,0-5.8,0-8.7,0
			c0.1-1.9-0.2-3.8,0.3-5.6c0.9-2.5,3.2-4,4.7-6c0.8-1,0.6-2.4,0.6-3.6c0-0.6,0.1-1.3-0.3-1.8c-0.6-0.6-1.9-0.4-2.1,0.6
			c-0.2,1,0,2.1-0.1,3.2c-1,0-2,0-3,0C111.2,13.9,110.8,12,111.7,10.5z"/>
		<path id="XMLID_44_" class="st0" d="M144.3,9.2c1-0.1,2,0.4,2.3,1.4c0.2,1.1,0.1,2.2,0.1,3.4c0,1,0.2,2-0.3,2.9
			c-0.9,1.4-3.6,1.1-3.8-0.7c-0.1-1.6,0-3.3,0-4.9C142.4,10.2,143.3,9.2,144.3,9.2 M144.6,10.3c-0.5,0-0.7,0.5-0.7,1
			c0,1.5,0,3,0,4.6c0,0.8,1.2,0.8,1.3,0.1c0.1-1.6,0-3.2,0-4.8C145.3,10.8,145,10.3,144.6,10.3z"/>
		<path id="XMLID_43_" class="st0" d="M129.5,9.3c1.1,0,2.3,0,3.4,0c0,0.5,0.1,1.1-0.1,1.5c-0.7,1.9-1.4,3.7-2.1,5.6
			c0.7,0,1.4,0,2.1,0c0,0.4,0,0.8,0,1.1c-1.2,0-2.4,0-3.6,0c0-0.5-0.1-1.1,0.1-1.6c0.7-1.9,1.4-3.7,2-5.6c-0.7,0-1.3,0-2,0
			C129.5,10,129.5,9.6,129.5,9.3z"/>
		<path id="XMLID_42_" class="st0" d="M133.7,9.3c1.1,0,2.2,0,3.3,0c0,0.4,0,0.8,0,1.1c-0.6,0-1.3,0-1.9,0c0,0.8,0,1.6,0,2.4
			c0.5,0,0.9,0,1.4,0c0,0.4,0,0.8,0,1.1c-0.5,0-0.9,0-1.4,0c0,0.8,0,1.7,0,2.5c0.6,0,1.3,0,1.9,0c0,0.4,0,0.8,0,1.1
			c-1.1,0-2.2,0-3.3,0C133.7,14.8,133.7,12,133.7,9.3z"/>
		<path id="XMLID_39_" class="st0" d="M137.7,9.3c1.1,0.1,2.2-0.2,3.2,0.3c1,0.6,0.7,1.9,0.7,2.8c0,0.7-0.4,1.3-1.1,1.5
			c0.4,1.2,0.9,2.5,1.3,3.7c-0.5,0-1,0-1.5,0c-0.4-1.2-0.8-2.4-1.3-3.6c0,1.2,0,2.4,0,3.6c-0.5,0-0.9,0-1.4,0
			C137.7,14.8,137.7,12,137.7,9.3 M139.2,10.4c0,0.9,0,1.7,0,2.6c0.4,0,0.9,0.1,1.1-0.4c0.1-0.6,0.1-1.2,0-1.8
			C140.1,10.3,139.5,10.4,139.2,10.4z"/>
		<path id="XMLID_38_" class="st0" d="M132.1,20.9c0.5,0,0.9,0,1.4,0c0,2.8,0,5.5,0,8.3c-0.5,0-0.9,0-1.4,0c0-1.2,0-2.4,0-3.7
			c-0.4,0-0.9,0-1.3,0c0,1.2,0,2.4,0,3.7c-0.5,0-0.9,0-1.4,0c0-2.8,0-5.5,0-8.3c0.5,0,0.9,0,1.4,0c0,1.2,0,2.3,0,3.5
			c0.4,0,0.9,0,1.3,0C132.1,23.2,132.1,22.1,132.1,20.9z"/>
		<path id="XMLID_37_" class="st0" d="M137.1,20.9c0.4,0,0.9,0,1.3,0c0,2.1,0,4.2,0,6.3c0,0.7-0.2,1.5-0.9,1.8
			c-0.7,0.3-1.5,0.3-2.2,0c-0.7-0.3-1-1.1-0.9-1.8c0-2.1,0-4.2,0-6.3c0.5,0,0.9,0,1.4,0c0,2.2,0,4.4,0,6.7c0,0.7,1.3,0.7,1.3,0
			C137.1,25.3,137.1,23.1,137.1,20.9z"/>
		<path id="XMLID_36_" class="st0" d="M142,20.9c0.4,0,0.8,0,1.2,0c0,2.8,0,5.5,0,8.3c-0.4,0-0.8,0-1.2,0c-0.5-1.7-1.1-3.4-1.6-5.1
			c0,1.7,0,3.4,0,5.1c-0.4,0-0.8,0-1.2,0c0-2.8,0-5.5,0-8.3c0.5,0,0.9,0,1.4,0c0.5,1.5,1,3.1,1.5,4.6C142.1,24,142,22.4,142,20.9z"
			/>
		<path id="XMLID_35_" class="st0" d="M144.4,21.5c0.7-0.9,2-0.9,2.9-0.5c0.9,0.5,0.8,1.7,0.8,2.6c-0.4,0-0.9,0-1.3,0
			c0-0.5,0.1-1-0.1-1.4c-0.4-0.5-1.3-0.2-1.3,0.4c0,1.6,0,3.2,0,4.8c0,0.7,1,0.9,1.2,0.3c0.2-0.6,0.1-1.3,0.1-1.9
			c-0.2,0-0.4,0-0.7,0c0-0.4,0-0.7,0-1.1c0.7,0,1.3,0,2,0c0,1.5,0,3,0,4.4c-0.3,0-0.7,0-1,0c0-0.3,0-0.5,0-0.8
			c-0.5,1.2-2.5,1.1-2.9-0.1c-0.4-1.2-0.1-2.6-0.2-3.8C144,23.5,143.8,22.4,144.4,21.5z"/>
		<path id="XMLID_34_" class="st0" d="M148.9,20.9c1.1,0,2.2,0,3.3,0c0,0.4,0,0.8,0,1.2c-0.6,0-1.3,0-1.9,0c0,0.8,0,1.6,0,2.4
			c0.5,0,0.9,0,1.4,0c0,0.4,0,0.8,0,1.1c-0.5,0-0.9,0-1.4,0c0,0.8,0,1.7,0,2.5c0.6,0,1.3,0,1.9,0c0,0.4,0,0.8,0,1.2
			c-1.1,0-2.2,0-3.3,0C148.9,26.4,148.9,23.7,148.9,20.9z"/>
		<path id="XMLID_31_" class="st0" d="M153,20.9c1.1,0.1,2.2-0.2,3.2,0.3c0.9,0.6,0.7,1.9,0.7,2.8c0,0.7-0.4,1.3-1.1,1.5
			c0.4,1.2,0.9,2.5,1.3,3.7c-0.5,0-1,0-1.5,0c-0.4-1.2-0.8-2.5-1.3-3.7c0,1.2,0,2.5,0,3.7c-0.5,0-0.9,0-1.4,0
			C152.9,26.4,152.9,23.7,153,20.9 M154.4,22c0,0.9,0,1.7,0,2.6c0.4,0,1,0.1,1.1-0.4c0.1-0.6,0.1-1.2,0-1.8
			C155.3,21.9,154.7,22.1,154.4,22z"/>
		<path id="XMLID_30_" class="st0" d="M137.1,41.9c0.9-1.3,3.5-0.4,2.9,1.2c-1.3,2.1-2.3,4.7-1.9,7.2c0.2,1.4,1,2.6,2,3.6
			c1.9,2.1,2.9,5.2,2,7.9c-1.1,0-2.3,0-3.4,0c0.9-1.9,0.4-4.3-0.9-5.9c-1-1.1-2-2.3-2.5-3.8C133.9,48.8,135,44.8,137.1,41.9z"/>
		<path id="XMLID_29_" class="st0" d="M147.2,42.1c0.6-1,2.1-1.1,2.9-0.2c0.4,0.4,0.4,1,0.1,1.5c-1.3,2-2.1,4.4-1.8,6.8
			c0.2,1.4,0.9,2.7,1.9,3.8c1.9,2.1,3,5.2,2.1,8c-1.1,0-2.3,0-3.4,0c1-2.2,0.2-4.8-1.4-6.5c-1.3-1.4-2.3-3.2-2.5-5.2
			C144.7,47.4,145.7,44.5,147.2,42.1z"/>
		<path id="XMLID_28_" class="st0" d="M157.5,42.1c0.6-1,2.1-1.1,2.9-0.2c0.4,0.4,0.4,1.1,0.1,1.5c-1.3,2-2.1,4.4-1.8,6.7
			c0.2,1.4,0.9,2.8,1.9,3.8c1.9,2.1,3,5.2,2.1,8c-1.1,0-2.3,0-3.4,0c0.9-2,0.4-4.3-0.9-5.9c-1-1.2-2.1-2.4-2.6-3.9
			C154.6,48.7,155.6,45,157.5,42.1z"/>
		<path id="XMLID_27_" class="st0" d="M122.1,64.9c-0.1-0.5,0.3-0.9,0.8-0.8c17.1,0,34.3,0,51.4,0c0.5-0.1,0.9,0.4,0.8,0.8
			c-0.7,4.5-2.9,8.8-6.1,12.2c-3.1,3.4-7.1,5.8-11.4,7.3c-0.1,0.7,0.4,2.1-0.7,2.2c-5.4,0-10.8,0-16.2,0c-1,0-0.6-1.4-0.7-2.1
			c-4-1.2-7.7-3.3-10.7-6.2C125.6,74.7,122.9,70,122.1,64.9z"/>
	</g>
</g>
</svg>
