<?xml version="1.0" encoding="utf-8"?>
<!-- Generator: Adobe Illustrator 19.0.0, SVG Export Plug-In . SVG Version: 6.00 Build 0)  -->
<svg version="1.1" id="Layer_1" xmlns="http://www.w3.org/2000/svg" xmlns:xlink="http://www.w3.org/1999/xlink" x="0px" y="0px"
	 viewBox="-155 247 300 300" style="enable-background:new -155 247 300 300;" xml:space="preserve">
<style type="text/css">
	.st0{fill:#279B48;}
	.st1{fill:#FFFFFF;}
</style>
<g>
	<rect x="-155" y="247" class="st0" width="300" height="300"/>
	<path class="st1" d="M-119.4,279.1c2.1-3.7,6.4-5.4,10.5-5.5c4.4-0.3,9.6,0.7,12.3,4.5c3.1,4.4,2.4,10,2.4,15c0,4-2.8,7.6-6.6,8.9
		c2.4,0.7,4.8,2.1,5.9,4.4c1.8,3.6,1,7.8,1.2,11.7c0.1,4.2-0.1,8.9-3,12.2c-3.3,3.7-8.7,4.5-13.4,4.1c-4-0.2-8.2-2.1-10.1-5.8
		c-2.7-5.2-1.6-11.2-1.8-16.8c3.1,0,6.1,0,9.2,0c0,2.9,0,5.8,0,8.7c0,1.6,0.3,3.5,1.6,4.7c2.2,1.8,6.3,1.1,7.1-1.9
		c0.8-3.2,0.2-6.6,0.4-9.8c-0.1-2.2,0.4-5.1-1.8-6.5c-2.2-1.2-4.9-0.6-7.4-0.7c0-2.6,0-5.1,0-7.7c3.1,0,7.7,0.6,8.9-3.2
		c0.4-3.4,0.4-6.9,0-10.3c-0.5-3.8-6.7-4.3-7.8-0.7c-0.9,3.1-0.4,6.3-0.5,9.4c-3,0-6.1,0-9.1,0C-121.4,288.9-122,283.5-119.4,279.1z
		"/>
	<path class="st1" d="M-65.3,279.9c0.1-5.2,7.2-7,10.7-3.9c1.8,1.8,1.5,4.7,1.5,7c-1.3,0-2.6,0-3.8,0c-0.1-1.3,0.2-2.7-0.3-4
		c-0.9-1.7-3.8-1.1-3.9,0.9c-0.2,4.1,0,8.3-0.1,12.5c0,1.1-0.1,2.4,0.5,3.4c0.8,1.3,3.3,1,3.5-0.7s0.1-3.5,0.1-5.2
		c-0.7,0-1.3,0-1.9,0c0-1.1,0-2.2,0-3.3c2,0,4,0,5.9,0c0,4.4,0,8.9,0,13.3c-1,0-2,0-3,0c0-0.8,0-1.5,0-2.3c-1.2,3.1-5.7,3.4-7.7,1
		c-1.5-1.8-1.6-4.3-1.6-6.5C-65.4,287.9-65.6,283.9-65.3,279.9z"/>
	<path class="st1" d="M-47,274.9c3.1-1.1,7.4-0.2,8.5,3.3c0.9,3.3,0.3,6.8,0.5,10.2c-0.1,2.9,0.5,6-0.8,8.7
		c-2.4,4.6-10.9,3.7-11.7-1.7c-0.5-4.6-0.1-9.3-0.2-14C-50.9,278.8-49.7,275.8-47,274.9 M-45.5,278.3c-1.2,0.7-1,2.3-1.1,3.5
		c0.1,4.3-0.1,8.6,0.1,12.9c0,2.4,4.1,2.4,4.1,0c0.2-4.8,0.1-9.6,0-14.5C-42.2,278.6-44.1,277.5-45.5,278.3z"/>
	<path class="st1" d="M-31.8,274.9c3.1-1,7.4,0,8.4,3.5c0.9,3.4,0.3,7,0.4,10.4c-0.1,2.7,0.4,5.6-0.8,8.2
		c-2.3,4.7-10.9,3.9-11.7-1.5c-0.5-4.5-0.1-9.2-0.3-13.7C-35.9,279-34.8,275.7-31.8,274.9 M-29.5,278c-1.3,0-2.1,1.3-2,2.5
		c0,4.2,0,8.4,0,12.5c0,1-0.1,2.3,0.9,3c1.2,0.9,3.3,0.1,3.3-1.5c0.2-4.7,0-9.4,0.1-14.1C-27.2,279.2-28.1,277.9-29.5,278z"/>
	<path class="st1" d="M-20.7,274.8c2.9,0.1,5.8-0.3,8.7,0.3c2.6,0.6,3.9,3.4,3.9,5.9c0,4.3,0.1,8.6,0,13c0,2.5-1.5,5.1-4.1,5.6
		c-2.8,0.5-5.7,0.1-8.5,0.2C-20.7,291.4-20.7,283.1-20.7,274.8 M-16.5,278.2c0,6,0,12.1,0,18.1c1.5,0.1,4,0.1,4-2
		c0.1-4.7,0.1-9.4,0-14.1C-12.5,278.1-15,278.2-16.5,278.2z"/>
	<path class="st1" d="M-2,274.8c1.4,0,2.8,0,4.2,0c0,3.5,0,7,0,10.5c1.3,0,2.7,0,4,0c0-3.5,0-7,0-10.5c1.4,0,2.8,0,4.2,0
		c0,8.3,0,16.6,0,24.9c-1.4,0-2.8,0-4.2,0c0-3.7,0-7.3,0-11c-1.3,0-2.7,0-4,0c0,3.7,0,7.3,0,11c-1.4,0-2.8,0-4.2,0
		C-2,291.4-2,283.1-2,274.8z"/>
	<path class="st1" d="M12.9,274.8c3.3,0,6.7,0,10,0c0,1.2,0,2.3,0,3.5c-1.9,0-3.8,0-5.8,0c0,2.4,0,4.7,0,7.1c1.4,0,2.7,0,4.1,0
		c0,1.1,0,2.3,0,3.4c-1.4,0-2.7,0-4.1,0c0,2.5,0,5,0,7.5c1.9,0,3.8,0,5.8,0c0,1.2,0,2.3,0,3.5c-3.3,0-6.7,0-10,0
		C12.9,291.4,12.9,283.1,12.9,274.8z"/>
	<path class="st1" d="M29.1,274.8c1.6,0,3.2,0,4.8,0c1.6,8.3,3.2,16.6,4.7,24.9c-1.4,0-2.9,0-4.3,0c-0.3-1.5-0.5-3-0.8-4.5
		c-1.5,0-2.9,0-4.4,0c-0.2,1.5-0.5,3-0.7,4.5c-1.3,0-2.7,0-4,0C26,291.4,27.6,283.1,29.1,274.8 M29.7,291.8c1.1,0,2.2,0,3.3,0
		c-0.5-3.2-1-6.4-1.6-9.5C30.7,285.4,30.3,288.6,29.7,291.8z"/>
	<path class="st1" d="M40.4,274.8c1.4,0,2.8,0,4.2,0c0,7.2,0,14.3,0,21.5c1.7,0,3.3,0,5,0c0,1.2,0,2.3,0,3.5c-3.1,0-6.2,0-9.2,0
		C40.4,291.4,40.4,283.1,40.4,274.8z"/>
	<path class="st1" d="M48.6,274.8c3.7,0,7.5,0,11.2,0c0,1.2,0,2.3,0,3.5c-1.2,0-2.3,0-3.5,0c0,7.2,0,14.3,0,21.5c-1.4,0-2.8,0-4.2,0
		c0-7.2,0-14.3,0-21.5c-1.2,0-2.3,0-3.5,0C48.6,277.1,48.6,275.9,48.6,274.8z"/>
	<path class="st1" d="M61.6,274.8c1.4,0,2.8,0,4.2,0c0,3.5,0,7,0,10.5c1.3,0,2.7,0,4,0c0-3.5,0-7,0-10.5c1.4,0,2.8,0,4.2,0
		c0,8.3,0,16.6,0,24.9c-1.4,0-2.8,0-4.2,0c0-3.7,0-7.3,0-11c-1.3,0-2.7,0-4,0c0,3.7,0,7.3,0,11c-1.4,0-2.8,0-4.2,0
		C61.6,291.4,61.6,283.1,61.6,274.8z"/>
	<path class="st1" d="M-61.4,309.6c1.6,0,3.2,0,4.8,0c1.6,8.3,3.2,16.6,4.7,24.9c-1.4,0-2.9,0-4.3,0c-0.3-1.5-0.5-3-0.8-4.5
		c-1.5,0-2.9,0-4.4,0c-0.2,1.5-0.5,3-0.7,4.5c-1.3,0-2.7,0-4,0C-64.5,326.3-63,318-61.4,309.6 M-60.8,326.6c1.1,0,2.2,0,3.3,0
		c-0.5-3.3-1.1-6.5-1.6-9.8C-59.7,320.1-60.2,323.4-60.8,326.6z"/>
	<path class="st1" d="M-50.2,309.6c1.4,0,2.8,0,4.1,0c1.5,4.7,3,9.4,4.5,14.1c0-4.7,0-9.4,0-14.1c1.2,0,2.3,0,3.5,0
		c0,8.3,0,16.6,0,24.9c-1.2,0-2.5,0-3.7,0c-1.6-5.1-3.2-10.3-4.9-15.4c0,5.1,0,10.3,0,15.4c-1.2,0-2.4,0-3.6,0
		C-50.2,326.3-50.2,318-50.2,309.6z"/>
	<path class="st1" d="M-35.7,309.6c2.9,0.1,5.9-0.3,8.7,0.3c2.6,0.6,3.8,3.3,3.8,5.8c0,4.3,0,8.6,0,12.9c0,2.4-1.4,5.1-3.9,5.7
		c-2.8,0.6-5.8,0.2-8.7,0.3C-35.7,326.3-35.7,318-35.7,309.6 M-31.5,313.1c0,6,0,12.1,0,18.1c1.5,0,3.8,0.2,4-1.8
		c0.1-4.8,0.1-9.6,0-14.4C-27.5,312.9-30,313-31.5,313.1z"/>
	<path class="st1" d="M-17.5,309.6c1.4,0,2.7,0,4.1,0c0.7,5.2,1.2,10.4,2,15.5c0.7-5.2,1.3-10.4,2.1-15.5c1.1,0,2.3,0,3.4,0
		c0.8,5.2,1.5,10.4,2.3,15.6c0.7-5.2,1.3-10.4,1.9-15.6c1.2,0,2.4,0,3.6,0c-1.1,8.3-2.1,16.6-3.2,24.9c-1.3,0-2.7,0-4,0
		c-0.8-5.1-1.6-10.1-2.5-15.2c-0.8,5-1.6,10.1-2.3,15.2c-1.3,0-2.7,0-4,0C-15.3,326.3-16.4,318-17.5,309.6z"/>
	<path class="st1" d="M3.6,309.6c3.3,0,6.7,0,10,0c0,1.2,0,2.3,0,3.5c-1.9,0-3.9,0-5.8,0c0,2.4,0,4.7,0,7.1c1.4,0,2.8,0,4.1,0
		c0,1.1,0,2.3,0,3.4c-1.4,0-2.8,0-4.1,0c0,2.5,0,5,0,7.5c1.9,0,3.9,0,5.8,0c0,1.2,0,2.3,0,3.5c-3.3,0-6.7,0-10,0
		C3.6,326.3,3.6,318,3.6,309.6z"/>
	<path class="st1" d="M15.8,309.6c1.4,0,2.8,0,4.2,0c0,7.2,0,14.3,0,21.5c1.7,0,3.3,0,5,0c0,1.2,0,2.3,0,3.5c-3.1,0-6.1,0-9.2,0
		C15.8,326.3,15.8,318,15.8,309.6z"/>
	<path class="st1" d="M43.5,309.6c3.1,0.2,6.4-0.5,9.3,0.6c2.8,1.3,2.3,4.9,2.3,7.5c0.1,1.6-0.7,3.1-2,3.9c1.7,0.7,2.9,2.4,2.7,4.2
		c0,2.7,0.6,6.6-2.4,8.1c-3.1,1.2-6.6,0.4-9.9,0.7C43.5,326.3,43.5,318,43.5,309.6 M47.8,313.1c0,2.4,0,4.8,0,7.1
		c1.1-0.1,2.9,0.3,3.2-1.2c0.3-1.6,0.3-3.3,0-4.9C50.5,312.8,48.8,313.2,47.8,313.1 M47.7,323.4c0,2.6,0,5.2,0,7.8
		c1.2-0.1,3.2,0.4,3.7-1.2c0.3-1.8,0.3-3.7,0-5.5C50.9,323,49,323.5,47.7,323.4z"/>
	<path class="st1" d="M57.8,309.6c3.3,0,6.7,0,10,0c0,1.1,0,2.3,0,3.5c-1.9,0-3.8,0-5.8,0c0,2.4,0,4.7,0,7.1c1.4,0,2.8,0,4.1,0
		c0,1.1,0,2.3,0,3.4c-1.4,0-2.8,0-4.1,0c0,2.5,0,5,0,7.5c1.9,0,3.8,0,5.8,0c0,1.1,0,2.3,0,3.4c-3.3,0-6.7,0-10,0
		C57.8,326.3,57.8,318,57.8,309.6z"/>
	<path class="st1" d="M70.1,309.6c1.4,0,2.8,0,4.2,0c0,8.3,0,16.6,0,25c-1.4,0-2.8,0-4.2,0C70.1,326.3,70.1,318,70.1,309.6z"/>
	<path class="st1" d="M76.6,309.6c1.4,0,2.8,0,4.2,0c1.5,4.6,2.9,9.3,4.4,13.9c0.1-4.6,0-9.2,0-13.9c1.2,0,2.3,0,3.5,0
		c0,8.3,0,16.6,0,24.9c-1.2,0-2.5,0-3.7,0c-1.6-5.1-3.2-10.2-4.8-15.3c0,5.1,0,10.2,0,15.3c-1.2,0-2.4,0-3.6,0
		C76.6,326.3,76.6,318,76.6,309.6z"/>
	<path class="st1" d="M94.8,309.8c2.3-0.7,5.2-0.7,7.1,1c1.8,1.9,1.5,4.7,1.5,7.1c-1.3,0-2.6,0-3.8,0c-0.1-1.3,0.2-2.8-0.3-4
		c-1-1.7-4-0.9-3.9,1.1c-0.1,4.8-0.1,9.7,0,14.5c-0.1,2.1,3.2,2.7,3.8,0.7c0.4-1.8,0.1-3.7,0.2-5.5c-0.7,0-1.3,0-2,0
		c0-1.1,0-2.2,0-3.3c2,0,4,0,6,0c0,4.4,0,8.9,0,13.3c-1,0-2,0-3.1,0c0-0.8,0-1.6,0.1-2.4c-0.9,2.1-3.2,3.1-5.4,2.5
		c-2.7-0.5-3.9-3.6-3.9-6.1c0-4.3,0-8.6,0-13C91.1,313.3,92.4,310.6,94.8,309.8z"/>
	<path class="st1" d="M26.9,309.6c1.4,0,2.8,0,4.2,0c0,7.2,0,14.3,0,21.5c1.7,0,3.3,0,5,0c0,1.2,0,2.3,0,3.5c-3.1,0-6.1,0-9.2,0
		C26.9,326.3,26.9,318,26.9,309.6z"/>
	<path class="st1" d="M35.5,318.3c2,0,4,0,6,0c0,1.2,0,2.3,0,3.5c-2,0-4,0-6,0C35.5,320.6,35.5,319.4,35.5,318.3z"/>
	<path class="st1" d="M43.7,361c1.8-1,4.2,0,4.8,1.9c6.2,13,12.6,25.8,18.7,38.9c1.4,3.6-4.2,6.1-6.1,2.9
		c-5.2-10.3-10-20.8-15.1-31.2c-12.4,41.1-24.7,82.3-37.2,123.4c-0.9,3.2-6.2,2.8-6.6-0.5c-3.5-20.4-7-40.8-10.5-61.2
		c-5.4,9.9-10.6,19.8-16.1,29.7c-1.5,2.6-6,1.7-6.2-1.3c-2.3-15.7-4.5-31.4-6.8-47.2c-4.1,9.2-8.2,18.4-12.3,27.6
		c-0.5,1.4-2,2.2-3.5,2.1c-15.9,0-31.8,0-47.7,0c-1.8,0.1-3.5-1.5-3.5-3.3c-0.1-1.9,1.6-3.6,3.4-3.5c15.3,0,30.5,0,45.8,0
		c5.1-11.5,10.3-23,15.4-34.5c0.7-1.4,1.2-3.3,2.9-3.8c2-0.8,4.5,0.8,4.6,2.9c2.3,16.1,4.6,32.3,6.9,48.4
		c5.3-9.7,10.5-19.5,15.8-29.1c1.4-2.7,5.8-1.9,6.2,1.1c3.3,18.9,6.5,37.8,9.8,56.6c11.6-38.4,23.1-76.8,34.7-115.2
		C41.8,363.9,42,361.8,43.7,361z"/>
	<path class="st1" d="M47.4,423.6c2.8-3.4,7.3-5.3,11.6-4.6c4,1.1,7,4.1,9.8,6.9c2.3-2.3,4.7-4.5,7.7-6c3.9-2.1,8.8-0.8,12.1,1.9
		c6.4,5.5,7,16.5,1,22.6c-6.9,7-13.9,13.9-20.8,20.9c-6.2-6.2-12.5-12.5-18.7-18.7c-1.4-1.4-2.8-2.7-3.9-4.3
		C42.6,436.6,43.1,428.7,47.4,423.6z"/>
</g>
</svg>
