<?xml version="1.0" encoding="utf-8"?>
<!-- Generator: Adobe Illustrator 19.0.0, SVG Export Plug-In . SVG Version: 6.00 Build 0)  -->
<svg version="1.1" id="Layer_1" xmlns="http://www.w3.org/2000/svg" xmlns:xlink="http://www.w3.org/1999/xlink" x="0px" y="0px"
	 viewBox="0 0 200 100" style="enable-background:new 0 0 200 100;" xml:space="preserve">
<style type="text/css">
	.st0{fill:#FFFFFF;}
	.st1{fill:#279B48;}
</style>
<g id="XMLID_1_">
	<g id="XMLID_2_">
		<rect id="XMLID_44_" class="st0" width="100" height="100"/>
		<path id="XMLID_43_" class="st1" d="M11.9,10.9c0.6-1.3,2-1.9,3.3-2c1.5-0.1,3.4,0.1,4.3,1.5c1.1,1.4,0.8,3.3,0.8,5
			c0,1.3-0.9,2.6-2.2,3c1.2,0.2,2.2,1.2,2.3,2.5c0.1,1.2,0,2.3,0.1,3.5c0,1.3-0.2,2.7-1.1,3.6c-1.1,1.1-2.6,1.3-4.1,1.2
			c-1.4,0-2.9-0.6-3.6-1.9c-0.9-1.7-0.6-3.8-0.7-5.7c1,0,2,0,3,0c0,1,0,2,0,3c0,0.6,0.2,1.3,0.7,1.6c0.5,0.3,1.2,0.3,1.7-0.1
			c0.5-0.4,0.6-1,0.6-1.6c0-1.1,0-2.2,0-3.3c0-0.6-0.3-1.2-0.8-1.4c-0.7-0.2-1.5-0.1-2.2-0.1c0-0.9,0-1.7,0-2.6
			c0.9,0,1.9,0.2,2.6-0.5c0.6-0.6,0.4-1.4,0.4-2.1c0-0.7,0.1-1.6-0.2-2.3c-0.3-0.7-1.3-0.8-1.9-0.5c-0.5,0.3-0.7,0.9-0.7,1.4
			c0,0.8,0,1.6,0,2.4c-1,0-2,0-3,0C11.3,14,11.1,12.4,11.9,10.9z"/>
		<path id="XMLID_42_" class="st1" d="M31.3,9.3C32,9.1,33,9.1,33.6,9.7c0.6,0.6,0.5,1.5,0.5,2.3c-0.4,0-0.9,0-1.3,0
			c0-0.4,0.1-0.9-0.1-1.3c-0.3-0.5-1.3-0.3-1.3,0.3c-0.1,1.4,0,2.9,0,4.3c0,0.3,0,0.7,0.1,1c0.3,0.5,1.1,0.3,1.2-0.2
			c0.1-0.6,0-1.2,0-1.8c-0.2,0-0.4,0-0.7,0c0-0.4,0-0.7,0-1.1c0.7,0,1.3,0,2,0c0,1.5,0,3,0,4.4c-0.3,0-0.7,0-1,0c0-0.3,0-0.5,0-0.8
			c-0.3,1.1-1.8,1.2-2.5,0.4C30.1,16.7,30,16,30,15.4c0-1.4,0-2.7,0-4.1C30,10.4,30.4,9.5,31.3,9.3z"/>
		<path id="XMLID_39_" class="st1" d="M36.5,9.2c0.7-0.1,1.5,0,2,0.5c0.5,0.4,0.6,1.1,0.6,1.8c0,1.4,0,2.7,0,4.1
			c0,0.7-0.3,1.5-1,1.9c-0.7,0.4-1.6,0.4-2.3,0c-0.7-0.4-1-1.2-0.9-2c0-1.4,0-2.9,0-4.3C34.9,10.2,35.5,9.3,36.5,9.2 M36.7,10.4
			c-0.4,0.1-0.5,0.5-0.5,0.8c0,1.5,0,3,0,4.5c0,0.4,0.2,0.8,0.6,0.8c0.4,0.1,0.8-0.3,0.8-0.8c0-1.6,0-3.1,0-4.7
			C37.7,10.6,37.2,10.2,36.7,10.4z"/>
		<path id="XMLID_36_" class="st1" d="M41.4,9.2c0.7-0.1,1.5,0,2,0.4c0.5,0.4,0.6,1.1,0.6,1.8c0,1.4,0,2.7,0,4.1
			c0,0.7-0.3,1.5-1,1.9c-0.7,0.3-1.6,0.3-2.3,0c-0.7-0.4-0.9-1.2-0.9-2c0-1.4,0-2.9,0-4.3C39.9,10.2,40.5,9.4,41.4,9.2 M41.7,10.4
			c-0.4,0.1-0.5,0.6-0.4,0.9c0,1.5,0,2.9,0,4.4c0,0.4,0.3,0.8,0.7,0.8c0.4,0,0.7-0.4,0.7-0.8c0-1.6,0-3.1,0-4.7
			C42.7,10.5,42.2,10.2,41.7,10.4z"/>
		<path id="XMLID_33_" class="st1" d="M44.9,9.3c1.1,0.1,2.2-0.2,3.2,0.2c0.7,0.3,0.9,1.1,1,1.8c0,1.4,0,2.7,0,4.1
			c0,0.7-0.2,1.5-0.9,1.9c-1,0.5-2.2,0.2-3.3,0.3C44.9,14.8,44.9,12,44.9,9.3 M46.3,10.4c0,2,0,4,0,6c0.5,0,1.3,0.1,1.3-0.6
			c0-1.6,0-3.2,0-4.8C47.6,10.4,46.8,10.4,46.3,10.4z"/>
		<path id="XMLID_32_" class="st1" d="M51.1,9.3c0.5,0,0.9,0,1.4,0c0,1.2,0,2.3,0,3.5c0.4,0,0.9,0,1.3,0c0-1.2,0-2.3,0-3.5
			c0.5,0,0.9,0,1.4,0c0,2.8,0,5.5,0,8.3c-0.5,0-0.9,0-1.4,0c0-1.2,0-2.4,0-3.7c-0.4,0-0.9,0-1.3,0c0,1.2,0,2.4,0,3.7
			c-0.5,0-0.9,0-1.4,0C51.1,14.8,51.1,12,51.1,9.3z"/>
		<path id="XMLID_31_" class="st1" d="M56.1,9.3c1.1,0,2.2,0,3.3,0c0,0.4,0,0.8,0,1.1c-0.6,0-1.3,0-1.9,0c0,0.8,0,1.6,0,2.4
			c0.5,0,0.9,0,1.4,0c0,0.4,0,0.8,0,1.1c-0.5,0-0.9,0-1.4,0c0,0.8,0,1.7,0,2.5c0.6,0,1.3,0,1.9,0c0,0.4,0,0.8,0,1.1
			c-1.1,0-2.2,0-3.3,0C56.1,14.8,56.1,12,56.1,9.3z"/>
		<path id="XMLID_28_" class="st1" d="M61.5,9.3c0.5,0,1.1,0,1.6,0c0.5,2.8,1.1,5.5,1.6,8.3c-0.5,0-1,0-1.4,0
			c-0.1-0.5-0.2-1-0.3-1.5c-0.5,0-1,0-1.5,0c-0.1,0.5-0.2,1-0.2,1.5c-0.4,0-0.9,0-1.3,0C60.5,14.8,61,12,61.5,9.3 M62.3,11.6
			c-0.2,1.1-0.4,2.2-0.5,3.3c0.4,0,0.7,0,1.1,0C62.6,13.8,62.4,12.7,62.3,11.6z"/>
		<path id="XMLID_27_" class="st1" d="M65.3,9.3c0.5,0,0.9,0,1.4,0c0,2.4,0,4.8,0,7.2c0.6,0,1.1,0,1.7,0c0,0.4,0,0.8,0,1.1
			c-1,0-2,0-3.1,0C65.3,14.8,65.2,12,65.3,9.3z"/>
		<path id="XMLID_26_" class="st1" d="M68,9.3c1.2,0,2.5,0,3.7,0c0,0.4,0,0.8,0,1.1c-0.4,0-0.8,0-1.1,0c0,2.4,0,4.8,0,7.2
			c-0.5,0-0.9,0-1.4,0c0-2.4,0-4.8,0-7.2c-0.4,0-0.8,0-1.2,0C68,10,68,9.7,68,9.3z"/>
		<path id="XMLID_25_" class="st1" d="M72.3,9.3c0.5,0,0.9,0,1.4,0c0,1.2,0,2.3,0,3.5c0.4,0,0.9,0,1.3,0c0-1.2,0-2.3,0-3.5
			c0.5,0,0.9,0,1.4,0c0,2.8,0,5.5,0,8.3c-0.5,0-0.9,0-1.4,0c0-1.2,0-2.4,0-3.7c-0.4,0-0.9,0-1.3,0c0,1.2,0,2.4,0,3.7
			c-0.5,0-0.9,0-1.4,0C72.3,14.8,72.3,12,72.3,9.3z"/>
		<path id="XMLID_24_" class="st1" d="M83.6,20.9c0.8-0.2,1.7-0.1,2.3,0.5c0.5,0.6,0.4,1.5,0.4,2.2c-0.4,0-0.9,0-1.3,0
			c0-0.4,0-0.8-0.1-1.2c-0.1-0.4-0.7-0.5-1.1-0.3c-0.3,0.2-0.3,0.6-0.3,0.9c0,1.4,0,2.7,0,4.1c0,0.3,0,0.6,0.2,0.8
			c0.3,0.4,1,0.3,1.2-0.2c0.1-0.6,0-1.2,0-1.8c-0.2,0-0.4,0-0.7,0c0-0.4,0-0.7,0-1.1c0.7,0,1.3,0,2,0c0,1.5,0,3,0,4.4
			c-0.3,0-0.7,0-1,0c0-0.3,0-0.5,0-0.8c-0.3,1.1-1.9,1.2-2.5,0.4c-0.5-0.5-0.6-1.3-0.5-1.9c0-1.4,0-2.7,0-4.1
			C82.2,21.9,82.7,21.1,83.6,20.9z"/>
		<path id="XMLID_21_" class="st1" d="M31.3,20.9c0.5,0,1.1,0,1.6,0c0.5,2.8,1.1,5.5,1.6,8.3c-0.5,0-1,0-1.4,0
			c-0.1-0.5-0.2-1-0.3-1.5c-0.5,0-1,0-1.5,0c-0.1,0.5-0.2,1-0.2,1.5c-0.4,0-0.9,0-1.3,0C30.3,26.4,30.8,23.7,31.3,20.9 M32.1,23.2
			c-0.2,1.1-0.4,2.2-0.5,3.3c0.4,0,0.7,0,1.1,0C32.4,25.5,32.3,24.3,32.1,23.2z"/>
		<path id="XMLID_20_" class="st1" d="M35.1,20.9c0.5,0,0.9,0,1.4,0c0.5,1.6,1,3.1,1.5,4.7c0-1.6,0-3.1,0-4.7c0.4,0,0.8,0,1.2,0
			c0,2.8,0,5.5,0,8.3c-0.4,0-0.8,0-1.2,0c-0.5-1.7-1.1-3.4-1.6-5.2c0,1.7,0,3.4,0,5.2c-0.4,0-0.8,0-1.2,0
			C35.1,26.4,35.1,23.7,35.1,20.9z"/>
		<path id="XMLID_17_" class="st1" d="M39.9,20.9c1.1,0.1,2.2-0.2,3.2,0.2c0.7,0.3,0.9,1.1,0.9,1.8c0,1.4,0,2.7,0,4.1
			c0,0.7-0.2,1.5-0.9,1.9c-1,0.5-2.2,0.2-3.3,0.3C39.9,26.4,39.9,23.7,39.9,20.9 M41.3,22c0,2,0,4,0,6c0.5,0,1.3,0.1,1.4-0.6
			c0.1-1.4,0-2.9,0-4.3c0-0.3,0-0.8-0.3-1C42.1,22,41.7,22.1,41.3,22z"/>
		<path id="XMLID_16_" class="st1" d="M46,20.9c0.5,0,0.9,0,1.4,0c0.2,1.7,0.4,3.5,0.7,5.2c0.3-1.7,0.5-3.5,0.7-5.2
			c0.4,0,0.8,0,1.1,0c0.3,1.7,0.5,3.4,0.8,5.1c0.2-1.7,0.4-3.4,0.6-5.2c0.4,0,0.8,0,1.2,0c-0.4,2.8-0.7,5.5-1.1,8.3
			c-0.4,0-0.9,0-1.3,0c-0.3-1.7-0.5-3.4-0.8-5.1c-0.3,1.7-0.5,3.4-0.8,5.1c-0.4,0-0.9,0-1.3,0C46.7,26.4,46.3,23.7,46,20.9z"/>
		<path id="XMLID_15_" class="st1" d="M53,20.9c1.1,0,2.2,0,3.3,0c0,0.4,0,0.8,0,1.1c-0.6,0-1.3,0-1.9,0c0,0.8,0,1.6,0,2.4
			c0.5,0,0.9,0,1.4,0c0,0.4,0,0.8,0,1.1c-0.5,0-0.9,0-1.4,0c0,0.8,0,1.7,0,2.5c0.6,0,1.3,0,1.9,0c0,0.4,0,0.8,0,1.1
			c-1.1,0-2.2,0-3.3,0C53,26.4,53,23.7,53,20.9z"/>
		<path id="XMLID_14_" class="st1" d="M57.1,20.9c0.5,0,0.9,0,1.4,0c0,2.4,0,4.8,0,7.1c0.6,0,1.1,0,1.7,0c0,0.4,0,0.8,0,1.1
			c-1,0-2,0-3.1,0C57.1,26.4,57.1,23.7,57.1,20.9z"/>
		<path id="XMLID_13_" class="st1" d="M60.8,20.9c0.5,0,0.9,0,1.4,0c0,2.4,0,4.8,0,7.1c0.6,0,1.1,0,1.7,0c0,0.4,0,0.8,0,1.1
			c-1,0-2,0-3.1,0C60.8,26.4,60.8,23.7,60.8,20.9z"/>
		<path id="XMLID_9_" class="st1" d="M66.3,20.9c0.8,0,1.5,0,2.3,0c0.5,0,1.1,0.2,1.4,0.7c0.3,0.7,0.2,1.4,0.2,2.1
			c0,0.5-0.3,0.9-0.7,1.1c0.6,0.2,1,0.8,1,1.4c0,0.9,0.2,2.1-0.7,2.7c-1.1,0.5-2.2,0.2-3.4,0.2C66.3,26.4,66.3,23.7,66.3,20.9
			 M67.7,22c0,0.8,0,1.6,0,2.4c0.4,0,1,0.1,1.1-0.4c0.1-0.5,0.1-1.1,0-1.6C68.6,21.9,68.1,22,67.7,22 M67.7,25.5c0,0.9,0,1.7,0,2.6
			c0.4,0,1.1,0.1,1.3-0.4c0.1-0.6,0.1-1.2,0-1.7C68.8,25.3,68.1,25.5,67.7,25.5z"/>
		<path id="XMLID_8_" class="st1" d="M71.1,20.9c1.1,0,2.2,0,3.3,0c0,0.4,0,0.8,0,1.1c-0.6,0-1.3,0-1.9,0c0,0.8,0,1.6,0,2.4
			c0.5,0,0.9,0,1.4,0c0,0.4,0,0.8,0,1.1c-0.5,0-0.9,0-1.4,0c0,0.8,0,1.7,0,2.5c0.6,0,1.3,0,1.9,0c0,0.4,0,0.8,0,1.1
			c-1.1,0-2.2,0-3.3,0C71.1,26.4,71.1,23.7,71.1,20.9z"/>
		<path id="XMLID_7_" class="st1" d="M75.2,20.9c0.5,0,0.9,0,1.4,0c0,2.8,0,5.5,0,8.3c-0.5,0-0.9,0-1.4,0
			C75.2,26.4,75.2,23.7,75.2,20.9z"/>
		<path id="XMLID_6_" class="st1" d="M77.4,20.9c0.5,0,0.9,0,1.4,0c0.5,1.6,1,3.2,1.5,4.7c0-1.6,0-3.1,0-4.7c0.4,0,0.8,0,1.2,0
			c0,2.8,0,5.5,0,8.3c-0.4,0-0.8,0-1.2,0c-0.5-1.7-1.1-3.4-1.6-5.1c0,1.7,0,3.4,0,5.1c-0.4,0-0.8,0-1.2,0
			C77.4,26.4,77.4,23.7,77.4,20.9z"/>
		<path id="XMLID_5_" class="st1" d="M63.6,24.8c0.7,0,1.3,0,2,0c0,0.4,0,0.8,0,1.1c-0.7,0-1.3,0-2,0C63.6,25.5,63.6,25.1,63.6,24.8
			z"/>
		<path id="XMLID_4_" class="st1" d="M66.3,38.1c0.5-0.4,1.4-0.1,1.6,0.5c2.1,4.3,4.1,8.6,6.2,12.9c0.2,0.4,0.2,1-0.2,1.3
			c-0.5,0.6-1.6,0.5-1.9-0.3c-1.7-3.4-3.3-6.8-5-10.3c-4.1,13.7-8.2,27.4-12.4,41c-0.2,0.7-1,1.1-1.7,0.7c-0.4-0.2-0.6-0.6-0.6-1.1
			c-1.1-6.7-2.3-13.4-3.5-20.1c-1.7,3.1-3.4,6.2-5,9.3c-0.2,0.4-0.4,0.9-0.9,1c-0.6,0.3-1.5-0.2-1.5-0.9c-0.8-5.2-1.5-10.5-2.3-15.7
			c-1.4,3.1-2.7,6.2-4.1,9.2c-0.2,0.4-0.6,0.7-1.1,0.7c-5.3,0-10.6,0-15.9,0c-0.6,0-1.2-0.5-1.2-1.1c0-0.6,0.5-1.2,1.2-1.2
			c5.1,0,10.2,0,15.2,0c1.8-4.1,3.6-8.2,5.5-12.2c0.4-0.9,2-0.7,2.1,0.3c0.8,5.4,1.6,10.9,2.3,16.3c1.6-3,3.3-6.1,4.9-9.1
			c0.2-0.4,0.4-0.9,0.9-1.1c0.7-0.3,1.5,0.2,1.5,0.9c1.1,6.3,2.2,12.6,3.2,18.8c3.9-12.8,7.7-25.7,11.6-38.5
			C65.7,38.9,65.8,38.3,66.3,38.1z"/>
		<path id="XMLID_3_" class="st1" d="M68.3,58.2c1.1-0.8,2.7-1.3,4-0.6c0.9,0.5,1.7,1.3,2.5,2c1-0.9,2-1.9,3.3-2.3
			c1.4-0.3,2.8,0.3,3.7,1.3c1.7,2,1.7,5.3-0.1,7.2c-2.3,2.3-4.6,4.6-6.9,6.9c-2.3-2.3-4.6-4.6-6.9-6.9C65.8,63.8,66,60,68.3,58.2z"
			/>
	</g>
</g>
<g id="XMLID_45_">
	<g id="XMLID_46_">
		<rect id="XMLID_88_" x="100" class="st1" width="100" height="100"/>
		<path id="XMLID_87_" class="st0" d="M111.9,10.7c0.7-1.2,2.1-1.8,3.5-1.8c1.5-0.1,3.2,0.2,4.1,1.5c1,1.5,0.8,3.3,0.8,5
			c0,1.3-0.9,2.5-2.2,3c0.8,0.2,1.6,0.7,2,1.5c0.6,1.2,0.3,2.6,0.4,3.9c0,1.4,0,3-1,4.1c-1.1,1.2-2.9,1.5-4.5,1.4
			c-1.3-0.1-2.7-0.7-3.4-1.9c-0.9-1.7-0.5-3.7-0.6-5.6c1,0,2,0,3.1,0c0,1,0,1.9,0,2.9c0,0.5,0.1,1.2,0.5,1.6
			c0.7,0.6,2.1,0.4,2.4-0.6c0.3-1.1,0.1-2.2,0.1-3.3c0-0.7,0.1-1.7-0.6-2.2c-0.7-0.4-1.6-0.2-2.5-0.2c0-0.9,0-1.7,0-2.6
			c1,0,2.6,0.2,3-1.1c0.1-1.1,0.1-2.3,0-3.4c-0.2-1.3-2.2-1.4-2.6-0.2c-0.3,1-0.1,2.1-0.2,3.1c-1,0-2,0-3,0
			C111.2,14,111,12.2,111.9,10.7z"/>
		<path id="XMLID_86_" class="st0" d="M129.9,11c0-1.7,2.4-2.3,3.6-1.3c0.6,0.6,0.5,1.6,0.5,2.3c-0.4,0-0.9,0-1.3,0
			c0-0.4,0.1-0.9-0.1-1.3c-0.3-0.6-1.3-0.4-1.3,0.3c-0.1,1.4,0,2.8,0,4.2c0,0.4,0,0.8,0.2,1.1c0.3,0.4,1.1,0.3,1.2-0.2
			c0.1-0.6,0-1.2,0-1.7c-0.2,0-0.4,0-0.6,0c0-0.4,0-0.7,0-1.1c0.7,0,1.3,0,2,0c0,1.5,0,3,0,4.4c-0.3,0-0.7,0-1,0c0-0.3,0-0.5,0-0.8
			c-0.4,1-1.9,1.1-2.6,0.3c-0.5-0.6-0.5-1.4-0.5-2.2C129.9,13.6,129.8,12.3,129.9,11z"/>
		<path id="XMLID_83_" class="st0" d="M136,9.3c1-0.4,2.5-0.1,2.8,1.1c0.3,1.1,0.1,2.3,0.2,3.4c0,1,0.2,2-0.3,2.9
			c-0.8,1.5-3.6,1.2-3.9-0.6c-0.2-1.5,0-3.1-0.1-4.7C134.7,10.6,135.1,9.6,136,9.3 M136.5,10.4c-0.4,0.2-0.3,0.8-0.4,1.2
			c0,1.4,0,2.9,0,4.3c0,0.8,1.4,0.8,1.4,0c0.1-1.6,0-3.2,0-4.8C137.6,10.5,137,10.2,136.5,10.4z"/>
		<path id="XMLID_80_" class="st0" d="M141.1,9.3c1-0.3,2.5,0,2.8,1.2c0.3,1.1,0.1,2.3,0.1,3.5c0,0.9,0.1,1.9-0.3,2.7
			c-0.8,1.6-3.6,1.3-3.9-0.5c-0.2-1.5,0-3.1-0.1-4.6C139.7,10.7,140.1,9.6,141.1,9.3 M141.8,10.3c-0.4,0-0.7,0.4-0.7,0.8
			c0,1.4,0,2.8,0,4.2c0,0.3,0,0.8,0.3,1c0.4,0.3,1.1,0,1.1-0.5c0.1-1.6,0-3.1,0-4.7C142.6,10.7,142.3,10.3,141.8,10.3z"/>
		<path id="XMLID_77_" class="st0" d="M144.8,9.3c1,0,1.9-0.1,2.9,0.1c0.9,0.2,1.3,1.1,1.3,2c0,1.4,0,2.9,0,4.3
			c0,0.8-0.5,1.7-1.4,1.9c-0.9,0.2-1.9,0-2.8,0.1C144.8,14.8,144.8,12,144.8,9.3 M146.2,10.4c0,2,0,4,0,6c0.5,0,1.3,0,1.3-0.7
			c0-1.6,0-3.1,0-4.7C147.5,10.4,146.7,10.4,146.2,10.4z"/>
		<path id="XMLID_76_" class="st0" d="M151,9.3c0.5,0,0.9,0,1.4,0c0,1.2,0,2.3,0,3.5c0.4,0,0.9,0,1.3,0c0-1.2,0-2.3,0-3.5
			c0.5,0,0.9,0,1.4,0c0,2.8,0,5.5,0,8.3c-0.5,0-0.9,0-1.4,0c0-1.2,0-2.4,0-3.7c-0.4,0-0.9,0-1.3,0c0,1.2,0,2.4,0,3.7
			c-0.5,0-0.9,0-1.4,0C151,14.8,151,12,151,9.3z"/>
		<path id="XMLID_75_" class="st0" d="M156,9.3c1.1,0,2.2,0,3.3,0c0,0.4,0,0.8,0,1.2c-0.6,0-1.3,0-1.9,0c0,0.8,0,1.6,0,2.4
			c0.5,0,0.9,0,1.4,0c0,0.4,0,0.8,0,1.1c-0.5,0-0.9,0-1.4,0c0,0.8,0,1.7,0,2.5c0.6,0,1.3,0,1.9,0c0,0.4,0,0.8,0,1.2
			c-1.1,0-2.2,0-3.3,0C156,14.8,156,12,156,9.3z"/>
		<path id="XMLID_72_" class="st0" d="M161.4,9.3c0.5,0,1.1,0,1.6,0c0.5,2.8,1.1,5.5,1.6,8.3c-0.5,0-1,0-1.4,0
			c-0.1-0.5-0.2-1-0.3-1.5c-0.5,0-1,0-1.5,0c-0.1,0.5-0.2,1-0.2,1.5c-0.4,0-0.9,0-1.3,0C160.3,14.8,160.9,12,161.4,9.3 M161.6,14.9
			c0.4,0,0.7,0,1.1,0c-0.2-1.1-0.3-2.1-0.5-3.2C161.9,12.8,161.8,13.9,161.6,14.9z"/>
		<path id="XMLID_71_" class="st0" d="M165.1,9.3c0.5,0,0.9,0,1.4,0c0,2.4,0,4.8,0,7.2c0.6,0,1.1,0,1.7,0c0,0.4,0,0.8,0,1.2
			c-1,0-2.1,0-3.1,0C165.1,14.8,165.1,12,165.1,9.3z"/>
		<path id="XMLID_70_" class="st0" d="M167.9,9.3c1.2,0,2.5,0,3.7,0c0,0.4,0,0.8,0,1.2c-0.4,0-0.8,0-1.2,0c0,2.4,0,4.8,0,7.2
			c-0.5,0-0.9,0-1.4,0c0-2.4,0-4.8,0-7.2c-0.4,0-0.8,0-1.2,0C167.9,10,167.9,9.6,167.9,9.3z"/>
		<path id="XMLID_69_" class="st0" d="M172.2,9.3c0.5,0,0.9,0,1.4,0c0,1.2,0,2.3,0,3.5c0.4,0,0.9,0,1.3,0c0-1.2,0-2.3,0-3.5
			c0.5,0,0.9,0,1.4,0c0,2.8,0,5.5,0,8.3c-0.5,0-0.9,0-1.4,0c0-1.2,0-2.4,0-3.7c-0.4,0-0.9,0-1.3,0c0,1.2,0,2.4,0,3.7
			c-0.5,0-0.9,0-1.4,0C172.2,14.8,172.2,12,172.2,9.3z"/>
		<path id="XMLID_66_" class="st0" d="M131.2,20.9c0.5,0,1.1,0,1.6,0c0.5,2.8,1.1,5.5,1.6,8.3c-0.5,0-1,0-1.4,0
			c-0.1-0.5-0.2-1-0.3-1.5c-0.5,0-1,0-1.5,0c-0.1,0.5-0.2,1-0.2,1.5c-0.4,0-0.9,0-1.3,0C130.2,26.4,130.7,23.7,131.2,20.9
			 M131.4,26.5c0.4,0,0.7,0,1.1,0c-0.2-1.1-0.4-2.2-0.5-3.3C131.8,24.4,131.6,25.5,131.4,26.5z"/>
		<path id="XMLID_65_" class="st0" d="M134.9,20.9c0.5,0,0.9,0,1.4,0c0.5,1.6,1,3.1,1.5,4.7c0-1.6,0-3.1,0-4.7c0.4,0,0.8,0,1.2,0
			c0,2.8,0,5.5,0,8.3c-0.4,0-0.8,0-1.2,0c-0.5-1.7-1.1-3.4-1.6-5.1c0,1.7,0,3.4,0,5.1c-0.4,0-0.8,0-1.2,0
			C134.9,26.4,134.9,23.7,134.9,20.9z"/>
		<path id="XMLID_62_" class="st0" d="M139.8,20.9c1,0,2-0.1,2.9,0.1c0.9,0.2,1.3,1.1,1.3,1.9c0,1.4,0,2.9,0,4.3
			c0,0.8-0.5,1.7-1.3,1.9c-0.9,0.2-1.9,0.1-2.9,0.1C139.8,26.4,139.8,23.7,139.8,20.9 M141.2,22c0,2,0,4,0,6c0.5,0,1.3,0.1,1.3-0.6
			c0-1.6,0-3.2,0-4.8C142.5,22,141.7,22,141.2,22z"/>
		<path id="XMLID_61_" class="st0" d="M145.8,20.9c0.5,0,0.9,0,1.4,0c0.2,1.7,0.4,3.5,0.7,5.2c0.2-1.7,0.4-3.5,0.7-5.2
			c0.4,0,0.8,0,1.1,0c0.3,1.7,0.5,3.5,0.8,5.2c0.2-1.7,0.4-3.5,0.6-5.2c0.4,0,0.8,0,1.2,0c-0.4,2.8-0.7,5.5-1.1,8.3
			c-0.4,0-0.9,0-1.3,0c-0.3-1.7-0.5-3.4-0.8-5.1c-0.3,1.7-0.5,3.4-0.8,5.1c-0.4,0-0.9,0-1.3,0C146.6,26.4,146.2,23.7,145.8,20.9z"/>
		<path id="XMLID_60_" class="st0" d="M152.9,20.9c1.1,0,2.2,0,3.3,0c0,0.4,0,0.8,0,1.2c-0.6,0-1.3,0-1.9,0c0,0.8,0,1.6,0,2.4
			c0.5,0,0.9,0,1.4,0c0,0.4,0,0.8,0,1.1c-0.5,0-0.9,0-1.4,0c0,0.8,0,1.7,0,2.5c0.6,0,1.3,0,1.9,0c0,0.4,0,0.8,0,1.2
			c-1.1,0-2.2,0-3.3,0C152.9,26.4,152.9,23.7,152.9,20.9z"/>
		<path id="XMLID_59_" class="st0" d="M156.9,20.9c0.5,0,0.9,0,1.4,0c0,2.4,0,4.8,0,7.2c0.6,0,1.1,0,1.7,0c0,0.4,0,0.8,0,1.2
			c-1,0-2,0-3.1,0C156.9,26.4,156.9,23.7,156.9,20.9z"/>
		<path id="XMLID_55_" class="st0" d="M166.2,20.9c1,0.1,2.1-0.2,3.1,0.2c0.9,0.4,0.8,1.6,0.8,2.5c0,0.5-0.2,1-0.7,1.3
			c0.6,0.2,1,0.8,0.9,1.4c0,0.9,0.2,2.2-0.8,2.7c-1,0.4-2.2,0.1-3.3,0.2C166.2,26.4,166.2,23.7,166.2,20.9 M167.6,22
			c0,0.8,0,1.6,0,2.4c0.4,0,1,0.1,1.1-0.4c0.1-0.5,0.1-1.1,0-1.6C168.5,21.9,167.9,22.1,167.6,22 M167.6,25.5c0,0.9,0,1.7,0,2.6
			c0.4,0,1.1,0.1,1.2-0.4c0.1-0.6,0.1-1.2,0-1.8C168.6,25.3,168,25.5,167.6,25.5z"/>
		<path id="XMLID_54_" class="st0" d="M170.9,20.9c1.1,0,2.2,0,3.3,0c0,0.4,0,0.8,0,1.2c-0.6,0-1.3,0-1.9,0c0,0.8,0,1.6,0,2.4
			c0.5,0,0.9,0,1.4,0c0,0.4,0,0.8,0,1.1c-0.5,0-0.9,0-1.4,0c0,0.8,0,1.7,0,2.5c0.6,0,1.3,0,1.9,0c0,0.4,0,0.8,0,1.1
			c-1.1,0-2.2,0-3.3,0C170.9,26.4,170.9,23.7,170.9,20.9z"/>
		<path id="XMLID_53_" class="st0" d="M175,20.9c0.5,0,0.9,0,1.4,0c0,2.8,0,5.5,0,8.3c-0.5,0-0.9,0-1.4,0
			C175,26.4,175,23.7,175,20.9z"/>
		<path id="XMLID_52_" class="st0" d="M177.2,20.9c0.5,0,0.9,0,1.4,0c0.5,1.5,1,3.1,1.5,4.6c0-1.5,0-3.1,0-4.6c0.4,0,0.8,0,1.2,0
			c0,2.8,0,5.5,0,8.3c-0.4,0-0.8,0-1.2,0c-0.5-1.7-1.1-3.4-1.6-5.1c0,1.7,0,3.4,0,5.1c-0.4,0-0.8,0-1.2,0
			C177.2,26.4,177.2,23.7,177.2,20.9z"/>
		<path id="XMLID_51_" class="st0" d="M183.3,20.9c0.8-0.2,1.7-0.2,2.4,0.3c0.6,0.6,0.5,1.6,0.5,2.4c-0.4,0-0.9,0-1.3,0
			c0-0.4,0.1-0.9-0.1-1.3c-0.3-0.6-1.3-0.3-1.3,0.4c0,1.6,0,3.2,0,4.8c0,0.7,1.1,0.9,1.3,0.2c0.1-0.6,0-1.2,0.1-1.8
			c-0.2,0-0.4,0-0.7,0c0-0.4,0-0.7,0-1.1c0.7,0,1.3,0,2,0c0,1.5,0,3,0,4.4c-0.3,0-0.7,0-1,0c0-0.3,0-0.5,0-0.8
			c-0.3,0.7-1.1,1-1.8,0.8c-0.9-0.2-1.3-1.2-1.3-2c0-1.4,0-2.9,0-4.3C182,22.1,182.5,21.2,183.3,20.9z"/>
		<path id="XMLID_50_" class="st0" d="M160.6,20.9c0.5,0,0.9,0,1.4,0c0,2.4,0,4.8,0,7.2c0.6,0,1.1,0,1.7,0c0,0.4,0,0.8,0,1.2
			c-1,0-2,0-3.1,0C160.6,26.4,160.6,23.7,160.6,20.9z"/>
		<path id="XMLID_49_" class="st0" d="M163.5,23.8c0.7,0,1.3,0,2,0c0,0.4,0,0.8,0,1.2c-0.7,0-1.3,0-2,0
			C163.5,24.5,163.5,24.1,163.5,23.8z"/>
		<path id="XMLID_48_" class="st0" d="M166.2,38c0.6-0.3,1.4,0,1.6,0.6c2.1,4.3,4.2,8.6,6.2,13c0.5,1.2-1.4,2-2,1
			c-1.7-3.4-3.3-6.9-5-10.4c-4.1,13.7-8.2,27.4-12.4,41.1c-0.3,1.1-2.1,0.9-2.2-0.2c-1.2-6.8-2.3-13.6-3.5-20.4
			c-1.8,3.3-3.5,6.6-5.4,9.9c-0.5,0.9-2,0.6-2.1-0.4c-0.8-5.2-1.5-10.5-2.3-15.7c-1.4,3.1-2.7,6.1-4.1,9.2c-0.2,0.5-0.7,0.7-1.2,0.7
			c-5.3,0-10.6,0-15.9,0c-0.6,0-1.2-0.5-1.2-1.1c0-0.6,0.5-1.2,1.1-1.2c5.1,0,10.2,0,15.3,0c1.7-3.8,3.4-7.7,5.1-11.5
			c0.2-0.5,0.4-1.1,1-1.3c0.7-0.3,1.5,0.3,1.5,1c0.8,5.4,1.5,10.8,2.3,16.1c1.8-3.2,3.5-6.5,5.3-9.7c0.5-0.9,1.9-0.6,2.1,0.4
			c1.1,6.3,2.2,12.6,3.3,18.9c3.9-12.8,7.7-25.6,11.6-38.4C165.6,39,165.7,38.3,166.2,38z"/>
		<path id="XMLID_47_" class="st0" d="M167.5,58.9c0.9-1.1,2.4-1.8,3.9-1.5c1.3,0.4,2.3,1.4,3.3,2.3c0.8-0.8,1.6-1.5,2.6-2
			c1.3-0.7,2.9-0.3,4,0.6c2.1,1.8,2.3,5.5,0.3,7.5c-2.3,2.3-4.6,4.6-6.9,7c-2.1-2.1-4.2-4.2-6.2-6.2c-0.5-0.5-0.9-0.9-1.3-1.4
			C165.9,63.2,166,60.6,167.5,58.9z"/>
	</g>
</g>
</svg>
