<?xml version="1.0" encoding="utf-8"?>
<!-- Generator: Adobe Illustrator 19.0.0, SVG Export Plug-In . SVG Version: 6.00 Build 0)  -->
<svg version="1.1" id="Layer_1" xmlns="http://www.w3.org/2000/svg" xmlns:xlink="http://www.w3.org/1999/xlink" x="0px" y="0px"
	 viewBox="-155 247 300 300" style="enable-background:new -155 247 300 300;" xml:space="preserve">
<style type="text/css">
	.st0{fill:#C31F33;}
	.st1{fill:#FFFFFF;}
</style>
<g>
	<rect x="-155" y="247" class="st0" width="300" height="300"/>
	<path class="st1" d="M-106.7,274.1c3.3,0,6.6,0,9.9,0c0,14,0,28.1,0,42.1c1.3,0,2.7,0,4,0c0,2.6,0,5.2,0,7.8c-1.3,0-2.7,0-4,0
		c0,3.2,0,6.4,0,9.7c-3.2,0-6.3,0-9.5,0c0-3.2,0-6.4,0-9.6c-5.9,0-11.8,0-17.7,0c0.2-2.6-0.5-5.4,0.7-7.9
		C-117.8,302.1-112.3,288.1-106.7,274.1 M-115.2,316.2c3,0,6,0,9,0c0-8.1,0-16.3,0-24.4C-109.3,299.9-112.2,308-115.2,316.2z"/>
	<path class="st1" d="M-64,276.3c3.2-3.2,10.1-2,10.8,2.8c0.5,4.6,0.1,9.3,0.2,14c0.2,2.4-0.8,4.8-2.9,6.1c1,0.2,1.9,0.3,2.9,0.5
		c0,1.1,0,2.1,0,3.2c-2.6-0.5-5.2-1-7.9-1.5c0-0.5,0-1.1,0-1.6c-2.5-0.5-4.5-2.6-4.7-5.1c-0.2-4.2,0-8.3-0.1-12.5
		C-65.7,280.1-65.5,277.8-64,276.3 M-60.4,278.3c-1.2,0.7-1,2.3-1.1,3.5c0.1,4.4-0.1,8.9,0.1,13.3c0.2,2.2,3.8,2.2,4,0
		c0.2-4.9,0.1-9.9,0.1-14.8C-57.1,278.6-59,277.5-60.4,278.3z"/>
	<path class="st1" d="M-50.6,274.8c1.4,0,2.8,0,4.2,0c0.1,6.7-0.1,13.4,0.1,20.1c0.2,2.2,4,2,3.9-0.3c0.1-6.6,0-13.2,0.1-19.9
		c1.3,0,2.6,0,3.9,0c0,6.2,0,12.5,0,18.7c0,2-0.4,4.3-2.1,5.5c-3.4,2.2-9.5,1-9.9-3.7C-50.8,288.5-50.5,281.6-50.6,274.8z"/>
	<path class="st1" d="M-32.6,274.8c1.6,0,3.2,0,4.8,0c1.6,8.3,3.2,16.6,4.7,24.9c-1.4,0-2.9,0-4.3,0c-0.3-1.5-0.5-3-0.8-4.5
		c-1.5,0-2.9,0-4.4,0c-0.2,1.5-0.5,3-0.7,4.5c-1.3,0-2.7,0-4,0C-35.7,291.4-34.2,283.1-32.6,274.8 M-32,291.8c1.1,0,2.2,0,3.3,0
		c-0.5-3.2-1-6.4-1.6-9.6C-31,285.4-31.4,288.6-32,291.8z"/>
	<path class="st1" d="M-21.3,274.8c1.4,0,2.8,0,4.2,0c0,7.2,0,14.3,0,21.5c1.7,0,3.3,0,5,0c0,1.1,0,2.3,0,3.4c-3.1,0-6.1,0-9.2,0
		C-21.3,291.4-21.4,283.1-21.3,274.8z"/>
	<path class="st1" d="M-10.3,274.8c1.4,0,2.8,0,4.2,0c0,8.3,0,16.6,0,24.9c-1.4,0-2.8,0-4.2,0C-10.3,291.4-10.3,283.1-10.3,274.8z"
		/>
	<path class="st1" d="M-4.2,274.8c3.7,0,7.4,0,11.2,0c0,1.1,0,2.3,0,3.4c-1.2,0-2.3,0-3.5,0c0,7.2,0,14.3,0,21.5c-1.4,0-2.8,0-4.2,0
		c0-7.2,0-14.3,0-21.5c-1.2,0-2.3,0-3.5,0C-4.2,277.1-4.2,275.9-4.2,274.8z"/>
	<path class="st1" d="M8.2,274.8c1.5,0,2.9,0,4.4,0c0.9,3.1,1.7,6.3,2.5,9.4c0.9-3.1,1.7-6.3,2.5-9.4c1.3,0,2.7,0,4,0
		c-1.5,5.1-3.1,10.1-4.5,15.2c-0.2,3.2,0,6.5-0.1,9.7c-1.4,0-2.8,0-4.2,0c-0.1-3.2,0.1-6.4-0.1-9.6C11.3,285,9.7,279.9,8.2,274.8z"
		/>
	<path class="st1" d="M-65.6,309.7c3.3,0,6.7,0,10,0c0,1.1,0,2.3,0,3.4c-1.9,0-3.8,0-5.7,0c0,2.4,0,4.7,0,7.1c1.4,0,2.8,0,4.1,0
		c0,1.1,0,2.3,0,3.4c-1.4,0-2.8,0-4.1,0c0,2.5,0,5,0,7.5c1.9,0,3.8,0,5.7,0c0,1.1,0,2.3,0,3.4c-3.3,0-6.6,0-10,0
		C-65.6,326.3-65.6,318-65.6,309.7z"/>
	<path class="st1" d="M-53.4,309.6c2.8,0.1,5.7-0.3,8.6,0.2c2.5,0.5,3.9,3,4,5.4c0.1,4.4,0,8.9,0,13.3c0,2.5-1.4,5.2-4.1,5.7
		c-2.8,0.5-5.6,0.1-8.5,0.2C-53.4,326.3-53.4,318-53.4,309.6 M-49.2,313.1c0,6,0,12,0,18.1c1.5,0,3.7,0.2,4-1.7
		c0.2-4.8,0.1-9.6,0-14.4C-45.3,312.9-47.7,313-49.2,313.1z"/>
	<path class="st1" d="M-38.5,309.7c1.4,0,2.8,0,4.2,0c0.1,6.7-0.1,13.4,0.1,20.1c0.2,2.3,4.1,2,3.9-0.3c0.1-6.6,0-13.2,0.1-19.8
		c1.3,0,2.6,0,3.9,0c0,6.3,0,12.7,0,19c0,2.1-0.7,4.6-2.8,5.6c-2.1,0.9-4.7,0.9-6.7-0.1s-2.7-3.3-2.7-5.4
		C-38.5,322.3-38.5,316-38.5,309.7z"/>
	<path class="st1" d="M-23.8,313.8c0.8-4.6,6.9-5.7,10.2-3.2c2.2,2,1.6,5.3,1.7,8c-1.3,0-2.6,0-3.8,0c-0.1-1.6,0.2-3.2-0.2-4.7
		c-0.9-1.8-4-0.9-3.8,1.1c-0.1,4.8-0.1,9.6,0,14.4c-0.1,2,3.1,2.8,3.8,0.9c0.5-1.9,0.1-4,0.2-5.9c1.3,0,2.6,0,3.8,0
		c-0.2,2.7,0.5,5.8-0.9,8.3c-1.6,2.5-5.2,2.7-7.7,1.8c-2.6-0.9-3.6-4-3.5-6.5C-23.8,323.2-24.3,318.5-23.8,313.8z"/>
	<path class="st1" d="M-5.9,309.7c1.6,0,3.2,0,4.8,0c1.6,8.3,3.2,16.6,4.7,24.9c-1.4,0-2.9,0-4.3,0c-0.3-1.5-0.5-3-0.8-4.6
		c-1.5,0-2.9,0-4.4,0c-0.3,1.5-0.5,3-0.8,4.6c-1.3,0-2.7,0-4,0C-9.1,326.3-7.5,318-5.9,309.7 M-5.3,326.6c1.1,0,2.2,0,3.3,0
		c-0.5-3.3-1.1-6.5-1.6-9.8C-4.3,320.1-4.8,323.4-5.3,326.6z"/>
	<path class="st1" d="M3,309.7c3.7,0,7.4,0,11.1,0c0,1.1,0,2.3,0,3.4c-1.1,0-2.3,0-3.4,0c0,7.2,0,14.3,0,21.5c-1.4,0-2.8,0-4.3,0
		c0-7.2,0-14.3,0-21.5c-1.1,0-2.3,0-3.4,0C3,311.9,3,310.8,3,309.7z"/>
	<path class="st1" d="M16.1,309.7c1.4,0,2.8,0,4.2,0c0,8.3,0,16.6,0,24.9c-1.4,0-2.8,0-4.2,0C16,326.3,16,318,16.1,309.7z"/>
	<path class="st1" d="M26.8,309.6c3.1-0.9,7.3,0.2,8.2,3.6c0.8,3.4,0.2,6.9,0.4,10.3c-0.1,2.9,0.5,6-0.9,8.6
		c-2.6,4.4-10.9,3.4-11.6-2c-0.4-4.6-0.1-9.3-0.2-14C22.5,313.4,23.9,310.3,26.8,309.6 M28,313.1c-1.3,0.8-1,2.5-1.1,3.8
		c0.1,4.3-0.2,8.6,0.1,12.9c0.3,2.3,4.1,2,4.1-0.3c0.1-4.8,0.1-9.7,0-14.5C31.2,313.4,29.3,312.3,28,313.1z"/>
	<path class="st1" d="M37.7,309.7c1.4,0,2.7,0,4.1,0c1.5,4.7,2.9,9.4,4.5,14c0-4.7,0-9.4,0-14c1.2,0,2.4,0,3.5,0
		c0,8.3,0,16.6,0,24.9c-1.2,0-2.5,0-3.7,0c-1.6-5.1-3.2-10.3-4.9-15.4c0,5.1,0,10.3,0,15.4c-1.2,0-2.4,0-3.5,0
		C37.7,326.3,37.7,318,37.7,309.7z"/>
	<path class="st1" d="M66.5,373.9c0.2-3.1,3.1-5.7,6.3-5.6c3.1-0.1,6,2.5,6.2,5.6c0.1,2.5,0,5,0,7.4c-4.2,0-8.4,0-12.5,0
		C66.5,378.9,66.4,376.4,66.5,373.9z"/>
	<path class="st1" d="M-85.9,381.3c1.9-1.5,3.8-3,5.7-4.5c0,34.8,0,69.6,0,104.5c19.4,5.4,38.8,10.9,58.2,16.3
		c2.3,0.2,4.7,0.3,6.9-0.1c19.4-6.3,38.8-12.5,58.2-18.8c0-33.9,0-67.9,0-101.8c1.8,1.4,3.6,2.8,5.3,4.2c0.5,0.3,0.3,1,0.4,1.4
		c0,33.4,0,66.8,0,100.2c-21.4,6.5-42.6,13.5-64,20.2c-2.4,0.2-4.9,0.2-7.3-0.1c-21.1-5.8-42.3-11.7-63.4-17.6
		C-86,450.7-85.9,416-85.9,381.3z"/>
	<path class="st1" d="M-15.3,407.5c17.6-10.1,35.1-20.3,52.7-30.4c0,33,0,66,0,98.9c-17.8,5.3-35.5,10.7-53.3,16
		c0-27.8,0-55.6,0-83.3C-15.9,408.2-15.8,407.7-15.3,407.5z"/>
	<path class="st1" d="M-74.7,377.1c17.7,10.2,35.3,20.4,52.9,30.6c0,28.1,0,56.2,0,84.3c-17.7-5.3-35.3-10.6-52.9-16
		C-74.7,443-74.7,410.1-74.7,377.1z"/>
	<path class="st1" d="M66.4,386.3c4.2,0,8.4,0,12.5,0c0,29.2,0,58.5,0,87.7c-1.9,7.4-4.2,14.8-6.2,22.2c-2.1-7.4-4.4-14.7-6.2-22.2
		C66.4,444.7,66.4,415.5,66.4,386.3z"/>
</g>
</svg>
