<?xml version="1.0" encoding="utf-8"?>
<!-- Generator: Adobe Illustrator 19.0.0, SVG Export Plug-In . SVG Version: 6.00 Build 0)  -->
<svg version="1.1" id="Layer_1" xmlns="http://www.w3.org/2000/svg" xmlns:xlink="http://www.w3.org/1999/xlink" x="0px" y="0px"
	 viewBox="0 0 200 100" style="enable-background:new 0 0 200 100;" xml:space="preserve">
<style type="text/css">
	.st0{fill:#FFFFFF;}
	.st1{fill:#C31F33;}
</style>
<g id="XMLID_1_">
	<g id="XMLID_2_">
		<rect id="XMLID_37_" class="st0" width="100" height="100"/>
		<path id="XMLID_34_" class="st1" d="M10.4,23.5c1.9-4.8,3.8-9.6,5.7-14.4c1.1,0,2.2,0,3.3,0c0,4.7,0,9.3,0,14c0.5,0,0.9,0,1.3,0
			c0,0.9,0,1.7,0,2.6c-0.4,0-0.9,0-1.3,0c0,1.1,0,2.1,0,3.2c-1.1,0-2.1,0-3.2,0c0-1.1,0-2.1,0-3.2c-2,0-3.9,0-5.9,0
			C10.4,24.9,10.3,24.2,10.4,23.5 M13.3,23.1c1,0,2,0,3,0c0-2.7,0-5.5,0-8.2C15.3,17.6,14.3,20.3,13.3,23.1z"/>
		<path id="XMLID_31_" class="st1" d="M30.7,9.4c0.7-0.4,1.6-0.4,2.3,0c0.7,0.4,1,1.2,1,1.9c0,1.4,0,2.9,0,4.3c0,0.7-0.3,1.4-1,1.8
			c0.3,0.1,0.7,0.1,1,0.2c0,0.3,0,0.7,0,1c-0.9-0.2-1.8-0.3-2.6-0.5c0-0.2,0-0.4,0-0.5c-0.9-0.1-1.5-0.9-1.6-1.8
			c-0.1-1.5,0-2.9,0-4.4C29.8,10.7,30,9.8,30.7,9.4 M31.7,10.4c-0.4,0.1-0.5,0.5-0.5,0.9c0,1.5,0,3.1,0,4.6c0,0.4,0.3,0.8,0.7,0.8
			c0.4,0,0.7-0.4,0.7-0.8c0-1.6,0-3.1,0-4.7C32.6,10.6,32.1,10.2,31.7,10.4z"/>
		<path id="XMLID_30_" class="st1" d="M34.8,9.3c0.5,0,0.9,0,1.4,0c0,2.2,0,4.4,0,6.6c0,0.8,1.3,0.8,1.3,0c0-2.2,0-4.4,0-6.6
			c0.4,0,0.9,0,1.3,0c0,2.1,0,4.2,0,6.4c0,0.7-0.2,1.5-0.9,1.8c-0.7,0.3-1.6,0.3-2.2,0c-0.7-0.3-0.9-1.1-0.9-1.8
			C34.8,13.5,34.8,11.4,34.8,9.3z"/>
		<path id="XMLID_27_" class="st1" d="M40.8,9.3c0.5,0,1.1,0,1.6,0c0.5,2.8,1.1,5.5,1.6,8.3c-0.5,0-1,0-1.4,0
			c-0.1-0.5-0.2-1-0.3-1.5c-0.5,0-1,0-1.5,0c-0.1,0.5-0.2,1-0.2,1.5c-0.4,0-0.9,0-1.3,0C39.8,14.8,40.3,12,40.8,9.3 M41.5,11.7
			c-0.2,1.1-0.4,2.2-0.5,3.3c0.4,0,0.7,0,1.1,0C41.9,13.8,41.8,12.8,41.5,11.7z"/>
		<path id="XMLID_26_" class="st1" d="M44.5,9.3c0.5,0,0.9,0,1.4,0c0,2.4,0,4.8,0,7.2c0.6,0,1.1,0,1.7,0c0,0.4,0,0.8,0,1.1
			c-1,0-2,0-3.1,0C44.5,14.8,44.5,12,44.5,9.3z"/>
		<path id="XMLID_25_" class="st1" d="M48.2,9.3c0.5,0,0.9,0,1.4,0c0,2.8,0,5.5,0,8.3c-0.5,0-0.9,0-1.4,0
			C48.2,14.8,48.2,12,48.2,9.3z"/>
		<path id="XMLID_24_" class="st1" d="M50.3,9.3c1.2,0,2.5,0,3.7,0c0,0.4,0,0.8,0,1.1c-0.4,0-0.8,0-1.1,0c0,2.4,0,4.8,0,7.2
			c-0.5,0-0.9,0-1.4,0c0-2.4,0-4.8,0-7.2c-0.4,0-0.8,0-1.1,0C50.3,10,50.3,9.7,50.3,9.3z"/>
		<path id="XMLID_23_" class="st1" d="M54.4,9.3c0.5,0,1,0,1.5,0c0.3,1,0.6,2.1,0.8,3.1c0.3-1,0.6-2.1,0.8-3.1c0.4,0,0.9,0,1.3,0
			c-0.5,1.7-1,3.4-1.5,5.1c-0.1,1.1,0,2.2,0,3.2c-0.5,0-0.9,0-1.4,0c-0.1-1.4,0.2-2.8-0.3-4.1C55.3,12.1,54.8,10.7,54.4,9.3z"/>
		<path id="XMLID_22_" class="st1" d="M45,20.9c0.8-0.2,1.8-0.2,2.3,0.5c0.5,0.7,0.3,1.6,0.4,2.4c-0.4,0-0.9,0-1.3,0
			c0-0.5,0-1,0-1.4c-0.1-0.6-1-0.6-1.2-0.1c-0.1,0.4-0.1,0.8-0.1,1.2c0,1.3,0,2.7,0,4c0,0.7,1.1,0.8,1.3,0.2c0.1-0.6,0-1.3,0.1-2
			c0.4,0,0.9,0,1.3,0c-0.1,1,0.2,2.1-0.4,2.9c-0.6,0.8-1.9,0.8-2.7,0.4c-0.7-0.4-1-1.2-0.9-2c0-1.4,0-2.9,0-4.3
			C43.7,21.9,44.2,21.1,45,20.9z"/>
		<path id="XMLID_19_" class="st1" d="M60.8,20.8c0.7-0.1,1.5-0.1,2,0.4c0.5,0.4,0.7,1.1,0.6,1.8c0,1.4,0,2.7,0,4.1
			c0,0.7-0.3,1.5-1,1.9c-0.7,0.3-1.5,0.3-2.2,0c-0.7-0.4-1-1.2-1-1.9c0-1.5,0-2.9,0-4.4C59.2,21.9,59.9,21,60.8,20.8 M61.1,22
			c-0.3,0.1-0.4,0.5-0.4,0.8c0,1.4,0,2.8,0,4.2c0,0.3,0,0.5,0.1,0.8c0.2,0.4,1,0.4,1.2,0c0.1-0.3,0.1-0.6,0.1-0.9c0-1.4,0-2.8,0-4.2
			C62.1,22.2,61.5,21.8,61.1,22z"/>
		<path id="XMLID_18_" class="st1" d="M29.8,20.9c1.1,0,2.2,0,3.3,0c0,0.4,0,0.8,0,1.1c-0.6,0-1.3,0-1.9,0c0,0.8,0,1.6,0,2.4
			c0.5,0,0.9,0,1.4,0c0,0.4,0,0.8,0,1.1c-0.5,0-0.9,0-1.4,0c0,0.8,0,1.7,0,2.5c0.6,0,1.3,0,1.9,0c0,0.4,0,0.8,0,1.1
			c-1.1,0-2.2,0-3.3,0C29.8,26.4,29.8,23.7,29.8,20.9z"/>
		<path id="XMLID_15_" class="st1" d="M33.9,20.9c1.1,0.1,2.2-0.2,3.2,0.2c0.7,0.3,0.9,1.1,0.9,1.8c0,1.4,0,2.7,0,4.1
			c0,0.7-0.3,1.6-1,1.9c-1,0.4-2.1,0.1-3.2,0.2C33.9,26.4,33.9,23.7,33.9,20.9 M35.3,22c0,2,0,4,0,6c0.5,0,1.3,0.1,1.4-0.6
			c0.1-1.4,0-2.8,0-4.2c0-0.4,0-0.8-0.3-1.1C36,22,35.6,22,35.3,22z"/>
		<path id="XMLID_14_" class="st1" d="M38.8,20.9c0.5,0,0.9,0,1.4,0c0,2.2,0,4.4,0,6.6c0,0.4,0.4,0.8,0.9,0.6
			c0.4-0.1,0.5-0.5,0.5-0.8c0-2.1,0-4.2,0-6.4c0.4,0,0.9,0,1.3,0c0,2.1,0,4.2,0,6.4c0,0.7-0.2,1.5-0.9,1.8c-0.7,0.3-1.5,0.3-2.2,0
			c-0.7-0.3-1-1.1-1-1.8C38.8,25.1,38.8,23,38.8,20.9z"/>
		<path id="XMLID_11_" class="st1" d="M49.7,20.9c0.5,0,1.1,0,1.6,0c0.5,2.8,1.1,5.5,1.6,8.3c-0.5,0-1,0-1.4,0
			c-0.1-0.5-0.2-1-0.3-1.5c-0.5,0-1,0-1.5,0c-0.1,0.5-0.2,1-0.2,1.5c-0.4,0-0.9,0-1.3,0C48.7,26.4,49.2,23.7,49.7,20.9 M50.4,23.2
			c-0.2,1.1-0.4,2.2-0.5,3.3c0.4,0,0.7,0,1.1,0C50.8,25.5,50.6,24.3,50.4,23.2z"/>
		<path id="XMLID_10_" class="st1" d="M52.7,20.9c1.2,0,2.5,0,3.7,0c0,0.4,0,0.8,0,1.1c-0.4,0-0.8,0-1.1,0c0,2.4,0,4.8,0,7.2
			c-0.5,0-0.9,0-1.4,0c0-2.4,0-4.8,0-7.2c-0.4,0-0.8,0-1.1,0C52.7,21.7,52.7,21.3,52.7,20.9z"/>
		<path id="XMLID_9_" class="st1" d="M57,20.9c0.5,0,0.9,0,1.4,0c0,2.8,0,5.5,0,8.3c-0.5,0-0.9,0-1.4,0C57,26.4,57,23.7,57,20.9z"/>
		<path id="XMLID_8_" class="st1" d="M64.2,20.9c0.5,0,0.9,0,1.4,0c0.5,1.5,1,3.1,1.5,4.6c0-1.5,0-3.1,0-4.6c0.4,0,0.8,0,1.2,0
			c0,2.8,0,5.5,0,8.3c-0.4,0-0.8,0-1.2,0c-0.5-1.7-1.1-3.4-1.6-5.1c0,1.7,0,3.4,0,5.1c-0.4,0-0.8,0-1.2,0
			C64.2,26.4,64.2,23.7,64.2,20.9z"/>
		<path id="XMLID_7_" class="st1" d="M73.8,42.4c0-1.1,1-1.9,2.1-1.9c1.1,0,2.1,0.9,2.1,1.9c0,0.8,0,1.6,0,2.4c-1.4,0-2.8,0-4.2,0
			C73.8,44,73.8,43.2,73.8,42.4z"/>
		<path id="XMLID_6_" class="st1" d="M23,44.8c0.6-0.6,1.3-1,1.9-1.5c0,11.6,0,23.2,0,34.8c6.2,1.7,12.5,3.5,18.7,5.2
			c0.9,0.3,1.9,0.2,2.9,0.2c6.5-2.1,13-4.2,19.5-6.3c0-11.3,0-22.6,0-33.9c0.6,0.5,1.3,1,1.9,1.5c0,11.3,0,22.5,0,33.8
			c-7.1,2.2-14.2,4.5-21.4,6.7c-0.8,0-1.6,0.1-2.4,0c-7.1-2-14.1-3.9-21.2-5.9C23,67.9,23,56.4,23,44.8z"/>
		<path id="XMLID_5_" class="st1" d="M26.8,43.4c5.9,3.4,11.8,6.8,17.6,10.2c0,9.4,0,18.7,0,28.1c-5.9-1.8-11.8-3.5-17.7-5.3
			C26.8,65.3,26.8,54.4,26.8,43.4z"/>
		<path id="XMLID_4_" class="st1" d="M46.4,53.6c5.9-3.4,11.8-6.8,17.8-10.3c0,11,0,22,0,33c-5.9,1.8-11.8,3.6-17.8,5.3
			C46.4,72.3,46.4,63,46.4,53.6z"/>
		<path id="XMLID_3_" class="st1" d="M73.8,46.4c1.4,0,2.8,0,4.2,0c0,9.4,0,18.9,0,28.3c0,0.5,0,0.9-0.1,1.4c-0.7,2.3-1.3,4.7-2,7
			c-0.6-2.2-1.2-4.3-1.9-6.5c-0.1-0.3-0.2-0.7-0.2-1.1C73.8,65.8,73.8,56.1,73.8,46.4z"/>
	</g>
</g>
<g id="XMLID_38_">
	<g id="XMLID_39_">
		<rect id="XMLID_74_" x="100" class="st1" width="100" height="100"/>
		<path id="XMLID_71_" class="st0" d="M116.1,9c1.1,0,2.2,0,3.3,0c0,4.7,0,9.4,0,14c0.4,0,0.9,0,1.3,0c0,0.9,0,1.7,0,2.6
			c-0.4,0-0.9,0-1.3,0c0,1.1,0,2.1,0,3.2c-1.1,0-2.1,0-3.2,0c0-1.1,0-2.1,0-3.2c-2,0-3.9,0-5.9,0c0.1-0.9-0.2-1.8,0.2-2.6
			C112.4,18.4,114.2,13.7,116.1,9 M113.3,23.1c1,0,2,0,3,0c0-2.7,0-5.4,0-8.1C115.2,17.6,114.3,20.3,113.3,23.1z"/>
		<path id="XMLID_68_" class="st0" d="M130.3,9.8c1.1-1.1,3.4-0.7,3.6,0.9c0.2,1.5,0,3.1,0.1,4.7c0.1,0.8-0.3,1.6-1,2
			c0.3,0.1,0.6,0.1,1,0.2c0,0.4,0,0.7,0,1.1c-0.9-0.2-1.7-0.3-2.6-0.5c0-0.2,0-0.4,0-0.5c-0.8-0.2-1.5-0.9-1.6-1.7
			c-0.1-1.4,0-2.8,0-4.2C129.8,11,129.8,10.3,130.3,9.8 M131.5,10.4c-0.4,0.2-0.3,0.8-0.4,1.2c0,1.5,0,3,0,4.4
			c0.1,0.7,1.3,0.7,1.3,0c0.1-1.6,0-3.3,0-4.9C132.6,10.5,132,10.2,131.5,10.4z"/>
		<path id="XMLID_67_" class="st0" d="M134.8,9.3c0.5,0,0.9,0,1.4,0c0,2.2,0,4.5,0,6.7c0.1,0.7,1.3,0.7,1.3-0.1c0-2.2,0-4.4,0-6.6
			c0.4,0,0.9,0,1.3,0c0,2.1,0,4.2,0,6.2c0,0.7-0.1,1.4-0.7,1.8c-1.1,0.7-3.2,0.3-3.3-1.2C134.7,13.8,134.8,11.5,134.8,9.3z"/>
		<path id="XMLID_64_" class="st0" d="M140.8,9.3c0.5,0,1.1,0,1.6,0c0.5,2.8,1.1,5.5,1.6,8.3c-0.5,0-1,0-1.4,0
			c-0.1-0.5-0.2-1-0.3-1.5c-0.5,0-1,0-1.5,0c-0.1,0.5-0.2,1-0.2,1.5c-0.4,0-0.9,0-1.3,0C139.8,14.8,140.3,12,140.8,9.3 M141,14.9
			c0.4,0,0.7,0,1.1,0c-0.2-1.1-0.3-2.1-0.5-3.2C141.3,12.8,141.2,13.9,141,14.9z"/>
		<path id="XMLID_63_" class="st0" d="M144.6,9.3c0.5,0,0.9,0,1.4,0c0,2.4,0,4.8,0,7.2c0.6,0,1.1,0,1.7,0c0,0.4,0,0.8,0,1.1
			c-1,0-2,0-3.1,0C144.6,14.8,144.5,12,144.6,9.3z"/>
		<path id="XMLID_62_" class="st0" d="M148.2,9.3c0.5,0,0.9,0,1.4,0c0,2.8,0,5.5,0,8.3c-0.5,0-0.9,0-1.4,0
			C148.2,14.8,148.2,12,148.2,9.3z"/>
		<path id="XMLID_61_" class="st0" d="M150.3,9.3c1.2,0,2.5,0,3.7,0c0,0.4,0,0.8,0,1.1c-0.4,0-0.8,0-1.2,0c0,2.4,0,4.8,0,7.2
			c-0.5,0-0.9,0-1.4,0c0-2.4,0-4.8,0-7.2c-0.4,0-0.8,0-1.2,0C150.3,10,150.3,9.6,150.3,9.3z"/>
		<path id="XMLID_60_" class="st0" d="M154.4,9.3c0.5,0,1,0,1.5,0c0.3,1,0.6,2.1,0.8,3.1c0.3-1,0.6-2.1,0.8-3.1c0.4,0,0.9,0,1.3,0
			c-0.5,1.7-1,3.4-1.5,5.1c-0.1,1.1,0,2.2,0,3.2c-0.5,0-0.9,0-1.4,0c0-1.1,0-2.1,0-3.2C155.4,12.7,154.9,11,154.4,9.3z"/>
		<path id="XMLID_59_" class="st0" d="M129.8,20.9c1.1,0,2.2,0,3.3,0c0,0.4,0,0.8,0,1.1c-0.6,0-1.3,0-1.9,0c0,0.8,0,1.6,0,2.4
			c0.5,0,0.9,0,1.4,0c0,0.4,0,0.8,0,1.1c-0.5,0-0.9,0-1.4,0c0,0.8,0,1.7,0,2.5c0.6,0,1.3,0,1.9,0c0,0.4,0,0.8,0,1.1
			c-1.1,0-2.2,0-3.3,0C129.8,26.4,129.8,23.7,129.8,20.9z"/>
		<path id="XMLID_56_" class="st0" d="M133.9,20.9c0.9,0,1.9-0.1,2.9,0.1c0.8,0.2,1.3,1,1.3,1.8c0,1.5,0,3,0,4.4
			c0,0.8-0.5,1.7-1.4,1.9c-0.9,0.2-1.9,0-2.8,0.1C133.9,26.4,133.9,23.7,133.9,20.9 M135.3,22c0,2,0,4,0,6c0.5,0,1.2,0.1,1.3-0.6
			c0.1-1.6,0-3.2,0-4.8C136.6,22,135.8,22,135.3,22z"/>
		<path id="XMLID_55_" class="st0" d="M138.8,20.9c0.5,0,0.9,0,1.4,0c0,2.2,0,4.5,0,6.7c0.1,0.8,1.4,0.7,1.3-0.1c0-2.2,0-4.4,0-6.6
			c0.4,0,0.9,0,1.3,0c0,2.1,0,4.2,0,6.3c0,0.7-0.2,1.5-0.9,1.9c-0.7,0.3-1.6,0.3-2.2,0c-0.7-0.3-0.9-1.1-0.9-1.8
			C138.8,25.1,138.8,23,138.8,20.9z"/>
		<path id="XMLID_54_" class="st0" d="M143.7,22.3c0.3-1.5,2.3-1.9,3.4-1.1c0.7,0.7,0.5,1.8,0.6,2.7c-0.4,0-0.9,0-1.3,0
			c0-0.5,0.1-1.1-0.1-1.6c-0.3-0.6-1.3-0.3-1.3,0.4c0,1.6,0,3.2,0,4.8c0,0.7,1,0.9,1.3,0.3c0.2-0.6,0-1.3,0.1-2c0.4,0,0.9,0,1.3,0
			c-0.1,0.9,0.2,1.9-0.3,2.8c-0.5,0.8-1.7,0.9-2.6,0.6c-0.9-0.3-1.2-1.3-1.2-2.2C143.7,25.4,143.6,23.8,143.7,22.3z"/>
		<path id="XMLID_51_" class="st0" d="M149.7,20.9c0.5,0,1.1,0,1.6,0c0.5,2.8,1.1,5.5,1.6,8.3c-0.5,0-1,0-1.4,0
			c-0.1-0.5-0.2-1-0.3-1.5c-0.5,0-1,0-1.5,0c-0.1,0.5-0.2,1-0.3,1.5c-0.4,0-0.9,0-1.3,0C148.6,26.4,149.2,23.7,149.7,20.9
			 M149.9,26.5c0.4,0,0.7,0,1.1,0c-0.2-1.1-0.4-2.2-0.5-3.3C150.2,24.4,150.1,25.5,149.9,26.5z"/>
		<path id="XMLID_50_" class="st0" d="M152.7,20.9c1.2,0,2.5,0,3.7,0c0,0.4,0,0.8,0,1.1c-0.4,0-0.8,0-1.1,0c0,2.4,0,4.8,0,7.2
			c-0.5,0-0.9,0-1.4,0c0-2.4,0-4.8,0-7.2c-0.4,0-0.8,0-1.1,0C152.7,21.6,152.7,21.3,152.7,20.9z"/>
		<path id="XMLID_49_" class="st0" d="M157,20.9c0.5,0,0.9,0,1.4,0c0,2.8,0,5.5,0,8.3c-0.5,0-0.9,0-1.4,0
			C157,26.4,157,23.7,157,20.9z"/>
		<path id="XMLID_46_" class="st0" d="M160.6,20.9c1-0.3,2.4,0.1,2.7,1.2c0.3,1.1,0.1,2.3,0.1,3.4c0,1,0.2,2-0.3,2.9
			c-0.9,1.5-3.6,1.1-3.9-0.7c-0.1-1.5,0-3.1-0.1-4.7C159.2,22.1,159.6,21.1,160.6,20.9 M161,22c-0.4,0.3-0.3,0.8-0.4,1.3
			c0,1.4-0.1,2.9,0,4.3c0.1,0.8,1.4,0.7,1.4-0.1c0-1.6,0-3.2,0-4.8C162.1,22.1,161.4,21.8,161,22z"/>
		<path id="XMLID_45_" class="st0" d="M164.2,20.9c0.5,0,0.9,0,1.4,0c0.5,1.6,1,3.1,1.5,4.7c0-1.6,0-3.1,0-4.7c0.4,0,0.8,0,1.2,0
			c0,2.8,0,5.5,0,8.3c-0.4,0-0.8,0-1.2,0c-0.5-1.7-1.1-3.4-1.6-5.1c0,1.7,0,3.4,0,5.1c-0.4,0-0.8,0-1.2,0
			C164.2,26.4,164.2,23.7,164.2,20.9z"/>
		<path id="XMLID_44_" class="st0" d="M173.8,42.3c0.1-1,1-1.9,2.1-1.9c1,0,2,0.8,2.1,1.9c0,0.8,0,1.7,0,2.5c-1.4,0-2.8,0-4.2,0
			C173.8,44,173.8,43.1,173.8,42.3z"/>
		<path id="XMLID_43_" class="st0" d="M123,44.8c0.6-0.5,1.3-1,1.9-1.5c0,11.6,0,23.2,0,34.8c6.5,1.8,12.9,3.6,19.4,5.4
			c0.8,0.1,1.6,0.1,2.3,0c6.5-2.1,12.9-4.2,19.4-6.3c0-11.3,0-22.6,0-33.9c0.6,0.5,1.2,0.9,1.8,1.4c0.2,0.1,0.1,0.3,0.1,0.5
			c0,11.1,0,22.3,0,33.4c-7.1,2.2-14.2,4.5-21.3,6.7c-0.8,0.1-1.6,0.1-2.4,0c-7-1.9-14.1-3.9-21.1-5.9C123,67.9,123,56.3,123,44.8z"
			/>
		<path id="XMLID_42_" class="st0" d="M146.6,53.5c5.9-3.4,11.7-6.8,17.6-10.1c0,11,0,22,0,33c-5.9,1.8-11.8,3.6-17.8,5.3
			c0-9.3,0-18.5,0-27.8C146.4,53.7,146.4,53.6,146.6,53.5z"/>
		<path id="XMLID_41_" class="st0" d="M126.8,43.4c5.9,3.4,11.8,6.8,17.6,10.2c0,9.4,0,18.7,0,28.1c-5.9-1.8-11.8-3.5-17.6-5.3
			C126.8,65.3,126.8,54.4,126.8,43.4z"/>
		<path id="XMLID_40_" class="st0" d="M173.8,46.4c1.4,0,2.8,0,4.2,0c0,9.7,0,19.5,0,29.2c-0.6,2.5-1.4,4.9-2.1,7.4
			c-0.7-2.5-1.5-4.9-2.1-7.4C173.8,65.9,173.8,56.2,173.8,46.4z"/>
	</g>
</g>
</svg>
