<?xml version="1.0" encoding="utf-8"?>
<!-- Generator: Adobe Illustrator 19.0.0, SVG Export Plug-In . SVG Version: 6.00 Build 0)  -->
<svg version="1.1" id="Layer_1" xmlns="http://www.w3.org/2000/svg" xmlns:xlink="http://www.w3.org/1999/xlink" x="0px" y="0px"
	 viewBox="-155 247 300 300" style="enable-background:new -155 247 300 300;" xml:space="preserve">
<style type="text/css">
	.st0{fill:#EF402B;}
	.st1{fill:#FFFFFF;}
</style>
<g>
	<rect x="-155" y="247" class="st0" width="300" height="300"/>
	<path class="st1" d="M-121.2,274.1c8.8,0,17.6,0,26.3,0c0,2.7,0,5.5,0,8.2c-5.7,0-11.4,0-17.2,0c0,4.9,0,9.8,0,14.7
		c2.7-4.2,8.9-5.1,13.2-2.9c3.9,2,5.3,6.6,5.5,10.7c0.1,5.3,0,10.7,0,16c0,3.6-0.9,7.4-3.5,10c-2.8,2.8-7,3.5-10.8,3.5
		s-7.9-0.9-10.5-3.8c-4.2-4.9-3.1-11.8-3.2-17.8c3.1,0,6.1,0,9.2,0c0.2,3.4-0.4,6.9,0.4,10.3c0.7,2.9,4.7,3.8,6.9,2.1
		c1.3-1.1,1.5-3,1.6-4.7c0-4.4,0-8.9,0-13.3c0-1.5,0-3-0.7-4.3c-1.4-2.6-5.8-2.6-7.2,0c-0.8,1.4-0.8,3.2-0.8,4.8c-3,0-6.1,0-9.1,0
		C-121.3,296.5-121.3,285.3-121.2,274.1z"/>
	<path class="st1" d="M-61.7,275.5c2.3-0.9,5.2-0.9,7.2,0.7c2.1,1.8,1.8,4.8,1.7,7.2c-1.3,0-2.6,0-3.8,0c-0.1-1.3,0.2-2.8-0.3-4
		c-1-1.7-4.1-0.8-3.9,1.3c0,4.8-0.1,9.6,0,14.4c-0.1,2,3,2.7,3.8,0.9c0.5-1.8,0.1-3.8,0.2-5.7c-0.6,0-1.3,0-1.9,0c0-1.1,0-2.2,0-3.3
		c2,0,4,0,5.9,0c0,4.4,0,8.9,0,13.3c-1,0-2,0-3,0c0-0.8,0-1.5,0-2.3c-1.1,2.9-5.2,3.4-7.4,1.4c-1.5-1.4-1.9-3.7-1.9-5.7
		c0-4,0-8.1,0-12.1C-65,279-64,276.4-61.7,275.5z"/>
	<path class="st1" d="M-50.4,275.2c3.3,0,6.7,0,10,0c0,1.1,0,2.3,0,3.4c-1.9,0-3.8,0-5.8,0c0,2.4,0,4.7,0,7.1c1.4,0,2.8,0,4.1,0
		c0,1.1,0,2.3,0,3.4c-1.4,0-2.8,0-4.1,0c0,2.5,0,5,0,7.5c1.9,0,3.8,0,5.8,0c0,1.1,0,2.3,0,3.4c-3.3,0-6.7,0-10,0
		C-50.4,291.8-50.4,283.5-50.4,275.2z"/>
	<path class="st1" d="M-38.1,275.2c1.4,0,2.8,0,4.1,0c1.5,4.6,2.9,9.3,4.5,13.9c0.1-4.6,0-9.3,0-13.9c1.2,0,2.3,0,3.5,0
		c0,8.3,0,16.6,0,24.9c-1.2,0-2.5,0-3.7,0c-1.6-5.2-3.2-10.3-4.9-15.5c0,5.2,0,10.3,0,15.5c-1.2,0-2.4,0-3.5,0
		C-38.1,291.8-38.1,283.5-38.1,275.2z"/>
	<path class="st1" d="M-23.6,275.2c2.9,0.1,5.9-0.3,8.8,0.3c2.5,0.7,3.7,3.4,3.7,5.9c0,4.3,0,8.6,0,12.9c0,2.4-1.4,5-3.9,5.6
		c-2.8,0.6-5.8,0.2-8.6,0.3C-23.6,291.8-23.6,283.5-23.6,275.2 M-19.4,278.6c0,6,0,12.1,0,18.1c1.5,0,3.8,0.2,4-1.8
		c0.2-4.7,0.1-9.5,0-14.2C-15.4,278.5-17.9,278.5-19.4,278.6z"/>
	<path class="st1" d="M-8.8,275.2c3.3,0,6.7,0,10,0c0,1.2,0,2.3,0,3.5c-1.9,0-3.8,0-5.8,0c0,2.4,0,4.7,0,7.1c1.4,0,2.8,0,4.1,0
		c0,1.1,0,2.3,0,3.4c-1.4,0-2.8,0-4.1,0c0,2.5,0,5,0,7.5c1.9,0,3.8,0,5.8,0c0,1.2,0,2.3,0,3.5c-3.3,0-6.7,0-10,0
		C-8.8,291.8-8.8,283.5-8.8,275.2z"/>
	<path class="st1" d="M3.5,275.2c3.2,0.2,6.8-0.7,9.8,0.8c2.8,1.8,2,5.7,2.1,8.5c0.1,2.1-1.3,3.8-3.3,4.4c1.3,3.7,2.6,7.4,4,11.2
		c-1.5,0-3,0-4.5,0c-1.3-3.7-2.5-7.5-3.9-11.2c0,3.7,0,7.4,0,11.2c-1.4,0-2.8,0-4.2,0C3.5,291.8,3.4,283.5,3.5,275.2 M7.7,278.6
		c0,2.6,0,5.2,0,7.8c1.1-0.1,2.8,0.2,3.2-1.2c0.3-1.8,0.3-3.6,0-5.4C10.6,278.4,8.8,278.7,7.7,278.6z"/>
	<path class="st1" d="M-65,310c3.3,0,6.7,0,10,0c0,1.1,0,2.3,0,3.4c-1.9,0-3.9,0-5.8,0c0,2.4,0,4.7,0,7.1c1.4,0,2.8,0,4.1,0
		c0,1.1,0,2.3,0,3.4c-1.4,0-2.8,0-4.1,0c0,2.5,0,5,0,7.5c1.9,0,3.9,0,5.8,0c0,1.1,0,2.3,0,3.4c-3.3,0-6.7,0-10,0
		C-65,326.7-65,318.4-65,310z"/>
	<path class="st1" d="M-52,312.1c2.8-3.9,10.5-2.9,11.3,2.2c0.5,4.8,0.1,9.6,0.2,14.3c0.1,2.3-0.9,4.5-2.9,5.8
		c1,0.2,1.9,0.3,2.9,0.5c0,1.1,0,2.1,0,3.2c-2.6-0.5-5.2-1-7.9-1.4c0-0.5,0-1.1-0.1-1.6c-2.4-0.5-4.4-2.4-4.6-4.9
		c-0.3-3.5,0-7-0.1-10.5C-53.1,317.1-53.5,314.3-52,312.1 M-47.8,313.5c-1.2,0.7-1.1,2.2-1.1,3.4c0.1,4.4-0.1,8.9,0.1,13.3
		c0.1,2.3,3.9,2.3,4.1,0c0.2-4.8,0.1-9.6,0.1-14.5C-44.4,314-46.3,312.7-47.8,313.5z"/>
	<path class="st1" d="M-38.1,310c1.4,0,2.8,0,4.2,0c0.1,6.7-0.1,13.4,0.1,20.1c0.2,2.3,4.1,2,3.9-0.3c0.1-6.6,0-13.2,0.1-19.8
		c1.3,0,2.6,0,3.9,0c0,6.3,0,12.7,0,19c0,2.1-0.6,4.4-2.5,5.5c-2.1,1.1-4.6,1-6.8,0.1c-2.1-0.9-2.9-3.4-2.9-5.5
		C-38.1,322.7-38.1,316.4-38.1,310z"/>
	<path class="st1" d="M-20.1,310c1.6,0,3.2,0,4.8,0c1.6,8.3,3.2,16.6,4.7,24.9c-1.4,0-2.9,0-4.3,0c-0.3-1.5-0.5-3-0.8-4.5
		c-1.4,0-2.8-0.1-4.2,0c-0.7,1.3-0.6,3-0.9,4.5c-1.3,0-2.7,0-4,0C-23.2,326.7-21.7,318.4-20.1,310 M-19.5,327c1.1,0,2.2,0,3.3,0
		c-0.5-3.2-1-6.4-1.6-9.7C-18.5,320.6-18.9,323.8-19.5,327z"/>
	<path class="st1" d="M-8.8,310c1.4,0,2.8,0,4.2,0c0,7.2,0,14.3,0,21.5c1.7,0,3.3,0,5,0c0,1.1,0,2.3,0,3.4c-3.1,0-6.1,0-9.2,0
		C-8.9,326.7-8.9,318.4-8.8,310z"/>
	<path class="st1" d="M2.2,310.1c1.4,0,2.8,0,4.2,0c0,8.3,0,16.6,0,24.9c-1.4,0-2.8,0-4.2,0C2.2,326.7,2.2,318.4,2.2,310.1z"/>
	<path class="st1" d="M8.3,310c3.7,0,7.4,0,11.2,0c0,1.1,0,2.3,0,3.4c-1.2,0-2.3,0-3.5,0c0,7.2,0,14.3,0,21.5c-1.4,0-2.8,0-4.2,0
		c0-7.2,0-14.3,0-21.5c-1.2,0-2.3,0-3.4,0C8.3,312.3,8.3,311.2,8.3,310z"/>
	<path class="st1" d="M20.7,310.1c1.5,0,2.9,0,4.4,0c0.9,3.1,1.7,6.3,2.5,9.4c0.9-3.1,1.7-6.3,2.5-9.4c1.3,0,2.7,0,4,0
		c-1.5,5-3.1,10.1-4.5,15.1c-0.3,3.3,0,6.5-0.1,9.8c-1.4,0-2.8,0-4.2,0c-0.3-4.1,0.7-8.4-0.9-12.4C23.2,318.4,22,314.2,20.7,310.1z"
		/>
	<path class="st1" d="M25.3,361.1c12.5,0,25-0.1,37.5,0c0.1,12.5,0.1,25.1,0,37.6c-4.4,0.1-8.7,0.1-13.1,0c-0.1-4.7,0-9.3,0-14
		c-5.3,5.3-10.6,10.6-15.9,15.9c8.4,11.9,11,27.6,6.7,41.6c-5,17.2-20.5,30.8-38.2,33.5c0,4.7,0,9.5,0,14.2c5,0,9.9,0,14.9,0
		c0.1,4.6,0.1,9.3,0,13.9c-5,0.1-9.9,0-14.9,0.1c0,4.8,0,9.5,0,14.3c-4.7,0.1-9.3,0.1-14,0c-0.1-4.8,0-9.5,0-14.3c-5,0-9.9,0-14.9,0
		c-0.1-4.7-0.1-9.3,0-14c5,0,9.9,0,14.9,0c0-4.7,0-9.3,0-14c-18.2-2.2-34.3-15.8-39.7-33.3c-4.2-13.3-2.3-28.4,5.3-40.2
		c7.4-11.8,20.2-20,34-21.8c12.7-1.8,26.1,1.9,36.2,9.8c5.4-5.4,10.8-10.8,16.1-16.2c-5,0-10,0-15,0
		C25.2,369.8,25.1,365.4,25.3,361.1 M-10.7,393.3c-9,1.3-17.3,6.3-22.8,13.5c-7.1,9.1-9.2,21.9-5.4,32.8c3.8,11.6,14.1,20.7,26,23.2
		c9.3,2.1,19.3,0.1,27.2-5.2c8.4-5.6,14.2-14.9,15.4-24.9c1.3-9.6-1.7-19.7-8-27.1C13.9,396.2,1.2,391.4-10.7,393.3z"/>
	<path class="st1" d="M-27.3,413.7c14.6-0.1,29.2,0,43.8,0c0,3.7,0.1,7.5,0,11.2c-14.6,0-29.2,0.1-43.8,0
		C-27.3,421.2-27.3,417.5-27.3,413.7z"/>
	<path class="st1" d="M-27.3,432.3c14.6-0.1,29.2-0.1,43.8,0c0,3.7,0,7.5,0,11.2c-14.6,0-29.2,0.1-43.8,0
		C-27.3,439.8-27.3,436-27.3,432.3z"/>
</g>
</svg>
