<?xml version="1.0" encoding="utf-8"?>
<!-- Generator: Adobe Illustrator 19.0.0, SVG Export Plug-In . SVG Version: 6.00 Build 0)  -->
<svg version="1.1" id="Layer_1" xmlns="http://www.w3.org/2000/svg" xmlns:xlink="http://www.w3.org/1999/xlink" x="0px" y="0px"
	 viewBox="0 0 200 100" style="enable-background:new 0 0 200 100;" xml:space="preserve">
<style type="text/css">
	.st0{fill:#FFFFFF;}
	.st1{fill:#EF402B;}
</style>
<g id="XMLID_1_">
	<g id="XMLID_2_">
		<rect id="XMLID_31_" class="st0" width="100" height="100"/>
		<path id="XMLID_30_" class="st1" d="M11.2,9c2.9,0,5.9,0,8.8,0c0,0.9,0,1.8,0,2.7c-1.9,0-3.8,0-5.7,0c0,1.6,0,3.3,0,4.9
			c1.1-1.9,4.3-1.9,5.5,0c0.6,0.9,0.8,1.9,0.8,3c0,1.7,0,3.4,0,5.2c0,1.2-0.4,2.4-1.3,3.2c-1,0.9-2.5,1.1-3.8,1.1
			c-1.3,0-2.8-0.5-3.5-1.8c-1-1.6-0.7-3.6-0.7-5.4c1,0,2,0,3.1,0c0,0.9,0,1.8,0,2.7c0,0.6,0.2,1.2,0.7,1.5c0.5,0.2,1.1,0.3,1.6,0
			c0.5-0.3,0.6-1,0.6-1.5c0-1.7,0-3.3,0-5c0-0.5-0.2-1.2-0.7-1.5c-0.6-0.3-1.5-0.2-1.9,0.4c-0.3,0.5-0.3,1.1-0.3,1.7c-1,0-2,0-3,0
			C11.2,16.5,11.2,12.8,11.2,9z"/>
		<path id="XMLID_29_" class="st1" d="M31.3,9.4c0.8-0.2,1.7-0.2,2.3,0.4c0.6,0.6,0.5,1.5,0.5,2.3c-0.4,0-0.8,0-1.3,0
			c0-0.5,0.1-0.9-0.1-1.4c-0.3-0.5-1.3-0.3-1.3,0.4c0,1.4,0,2.9,0,4.3c0,0.3,0,0.7,0.2,1c0.3,0.4,1.1,0.3,1.2-0.2
			c0.1-0.6,0-1.2,0-1.8c-0.2,0-0.4,0-0.7,0c0-0.4,0-0.7,0-1.1c0.7,0,1.3,0,2,0c0,1.5,0,3,0,4.4c-0.3,0-0.7,0-1,0c0-0.3,0-0.5,0-0.8
			c-0.3,1-1.7,1.2-2.5,0.5C30.1,17,30,16.2,30,15.6c0-1.4,0-2.8,0-4.2C30,10.5,30.5,9.7,31.3,9.4z"/>
		<path id="XMLID_28_" class="st1" d="M34.9,9.4c1.1,0,2.2,0,3.3,0c0,0.4,0,0.8,0,1.1c-0.6,0-1.3,0-1.9,0c0,0.8,0,1.6,0,2.4
			c0.5,0,0.9,0,1.4,0c0,0.4,0,0.8,0,1.1c-0.5,0-0.9,0-1.4,0c0,0.8,0,1.7,0,2.5c0.6,0,1.3,0,1.9,0c0,0.4,0,0.8,0,1.1
			c-1.1,0-2.2,0-3.3,0C34.9,14.9,34.9,12.2,34.9,9.4z"/>
		<path id="XMLID_27_" class="st1" d="M39,9.4c0.5,0,0.9,0,1.4,0c0.5,1.5,1,3.1,1.5,4.6c0-1.5,0-3.1,0-4.6c0.4,0,0.8,0,1.2,0
			c0,2.8,0,5.5,0,8.3c-0.4,0-0.8,0-1.2,0c-0.5-1.7-1.1-3.4-1.6-5.1c0,1.7,0,3.4,0,5.1c-0.4,0-0.8,0-1.2,0C39,14.9,39,12.2,39,9.4z"
			/>
		<path id="XMLID_24_" class="st1" d="M43.8,9.4c1,0.1,2.2-0.2,3.2,0.2c0.7,0.3,1,1.1,1,1.8c0,1.4,0,2.7,0,4.1
			c0,0.7-0.2,1.5-0.9,1.9c-1,0.5-2.2,0.2-3.3,0.3C43.8,14.9,43.8,12.2,43.8,9.4 M45.2,10.5c0,2,0,4,0,6c0.5,0,1.3,0,1.4-0.7
			c0-1.6,0-3.2,0-4.7C46.5,10.5,45.7,10.5,45.2,10.5z"/>
		<path id="XMLID_23_" class="st1" d="M48.8,9.4c1.1,0,2.2,0,3.3,0c0,0.4,0,0.8,0,1.1c-0.6,0-1.3,0-1.9,0c0,0.8,0,1.6,0,2.4
			c0.5,0,0.9,0,1.4,0c0,0.4,0,0.8,0,1.1c-0.5,0-0.9,0-1.4,0c0,0.8,0,1.7,0,2.5c0.6,0,1.3,0,1.9,0c0,0.4,0,0.8,0,1.1
			c-1.1,0-2.2,0-3.3,0C48.8,14.9,48.8,12.2,48.8,9.4z"/>
		<path id="XMLID_20_" class="st1" d="M52.8,9.4c0.8,0,1.6,0,2.4,0c0.6,0,1.3,0.4,1.4,1.1c0.2,0.7,0.1,1.5,0.1,2.2
			c0,0.6-0.5,1.1-1.1,1.3c0.4,1.2,0.9,2.5,1.3,3.7c-0.5,0-1,0-1.5,0c-0.4-1.2-0.9-2.5-1.3-3.8c0,1.3,0,2.5,0,3.7c-0.5,0-0.9,0-1.4,0
			C52.8,14.9,52.8,12.2,52.8,9.4 M54.2,10.5c0,0.9,0,1.7,0,2.6c0.4,0,0.9,0.1,1.1-0.4c0.1-0.6,0.1-1.2,0-1.8
			C55.2,10.5,54.6,10.6,54.2,10.5z"/>
		<path id="XMLID_17_" class="st1" d="M34.8,21.2c0.7-0.4,1.5-0.4,2.3-0.1c0.7,0.3,1.1,1.2,1.1,1.9c0,1.4,0,2.9,0,4.3
			c0,0.7-0.3,1.4-1,1.8c0.3,0.1,0.6,0.1,1,0.2c0,0.4,0,0.7,0,1.1c-0.9-0.2-1.8-0.3-2.6-0.5c0-0.2,0-0.4,0-0.5
			c-0.9-0.1-1.5-0.9-1.6-1.8c-0.1-1.4,0-2.9,0-4.3C33.9,22.5,34.2,21.7,34.8,21.2 M35.9,22.1c-0.4,0.1-0.5,0.5-0.5,0.8
			c0,1.5,0,3.1,0,4.6c0,0.4,0.3,0.8,0.7,0.8c0.4,0.1,0.8-0.4,0.7-0.8c0-1.6,0-3.1,0-4.7C36.8,22.4,36.3,22,35.9,22.1z"/>
		<path id="XMLID_16_" class="st1" d="M30,21c1.1,0,2.2,0,3.3,0c0,0.4,0,0.8,0,1.1c-0.6,0-1.3,0-1.9,0c0,0.8,0,1.6,0,2.4
			c0.5,0,0.9,0,1.4,0c0,0.4,0,0.8,0,1.1c-0.5,0-0.9,0-1.4,0c0,0.8,0,1.7,0,2.5c0.6,0,1.3,0,1.9,0c0,0.4,0,0.8,0,1.1
			c-1.1,0-2.2,0-3.3,0C30,26.6,30,23.8,30,21z"/>
		<path id="XMLID_15_" class="st1" d="M39,21c0.5,0,0.9,0,1.4,0c0,2.2,0,4.3,0,6.5c0,0.4,0.3,0.8,0.7,0.7c0.4,0,0.6-0.4,0.6-0.8
			c0-2.1,0-4.3,0-6.4c0.4,0,0.9,0,1.3,0c0,2.1,0,4.3,0,6.4c0,0.7-0.3,1.5-1,1.8c-0.7,0.3-1.6,0.3-2.2-0.1c-0.6-0.4-0.8-1.1-0.8-1.8
			C39,25.2,39,23.1,39,21z"/>
		<path id="XMLID_12_" class="st1" d="M45,21c0.5,0,1.1,0,1.6,0c0.5,2.8,1.1,5.5,1.6,8.3c-0.5,0-1,0-1.4,0c-0.1-0.5-0.2-1-0.3-1.5
			c-0.5,0-1,0-1.4,0c-0.2,0.5-0.2,1-0.3,1.5c-0.4,0-0.9,0-1.3,0C43.9,26.6,44.5,23.8,45,21 M45.2,26.7c0.4,0,0.7,0,1.1,0
			c-0.2-1.1-0.4-2.2-0.5-3.3C45.5,24.5,45.4,25.6,45.2,26.7z"/>
		<path id="XMLID_11_" class="st1" d="M48.7,21c0.5,0,0.9,0,1.4,0c0,2.4,0,4.8,0,7.2c0.6,0,1.1,0,1.7,0c0,0.4,0,0.8,0,1.1
			c-1,0-2,0-3.1,0C48.7,26.6,48.7,23.8,48.7,21z"/>
		<path id="XMLID_10_" class="st1" d="M52.4,21c0.5,0,0.9,0,1.4,0c0,2.8,0,5.5,0,8.3c-0.5,0-0.9,0-1.4,0
			C52.4,26.6,52.4,23.8,52.4,21z"/>
		<path id="XMLID_9_" class="st1" d="M54.5,21c1.2,0,2.5,0,3.7,0c0,0.4,0,0.8,0,1.1c-0.4,0-0.8,0-1.1,0c0,2.4,0,4.8,0,7.2
			c-0.5,0-0.9,0-1.4,0c0-2.4,0-4.8,0-7.2c-0.4,0-0.8,0-1.1,0C54.5,21.8,54.5,21.4,54.5,21z"/>
		<path id="XMLID_8_" class="st1" d="M58.6,21c0.5,0,1,0,1.5,0c0.3,1,0.6,2.1,0.8,3.1c0.3-1,0.6-2.1,0.8-3.1c0.4,0,0.9,0,1.3,0
			c-0.5,1.7-1,3.4-1.5,5.1c-0.1,1.1,0,2.1,0,3.2c-0.5,0-0.9,0-1.4,0c-0.1-1.4,0.2-2.8-0.3-4.1C59.4,23.8,59,22.4,58.6,21z"/>
		<path id="XMLID_5_" class="st1" d="M60.1,38.1c4.2-0.1,8.4-0.1,12.5,0c0,4.2,0,8.3,0,12.5c-1.4,0-2.9,0-4.3,0
			c-0.1-1.6,0-3.1,0-4.7c-1.8,1.8-3.5,3.5-5.3,5.3c2,2.9,3.1,6.4,2.9,9.9c-0.1,3.5-1.5,6.9-3.7,9.6c-2.4,2.9-5.9,4.9-9.7,5.5
			c0,1.6,0,3.2,0,4.7c1.7,0,3.3,0,5,0c0,1.5,0,3.1,0,4.6c-1.7,0-3.3,0-5,0c0,1.6,0,3.2,0,4.8c-1.5,0-3.1,0-4.6,0c0-1.6,0-3.2,0-4.8
			c-1.7,0-3.3,0-5,0c0-1.5,0-3.1,0-4.6c1.7,0,3.3,0,5,0c0-1.6,0-3.1,0-4.7c-6-0.7-11.3-5.2-13.2-10.9c-1.2-3.6-1-7.5,0.4-11
			c1.3-3.2,3.6-5.9,6.6-7.7c2.9-1.8,6.3-2.6,9.6-2.3c3.1,0.2,6.1,1.4,8.5,3.4c1.8-1.8,3.6-3.6,5.4-5.4c-1.7,0-3.3,0-5,0
			C60.1,41,60.1,39.5,60.1,38.1 M48.8,48.7c-4.5,0.4-8.6,3.6-10.1,7.9c-0.8,2.4-0.9,5.1-0.1,7.5c0.9,2.9,3,5.4,5.7,6.8
			c2.9,1.5,6.3,1.8,9.4,0.7c3.1-1.1,5.8-3.6,7-6.7c1.3-3.1,1.1-6.7-0.4-9.7C58.3,50.9,53.5,48.2,48.8,48.7z"/>
		<path id="XMLID_4_" class="st1" d="M42.6,55.6c4.9,0,9.7,0,14.6,0c0,1.2,0,2.5,0,3.7c-4.9,0-9.7,0-14.6,0
			C42.6,58.1,42.6,56.8,42.6,55.6z"/>
		<path id="XMLID_3_" class="st1" d="M42.6,61.8c4.7-0.1,9.4,0,14.2,0c0.1,0,0.4-0.1,0.4,0.2c0,1.2,0,2.4,0,3.6c-4.9,0-9.7,0-14.6,0
			C42.5,64.3,42.6,63,42.6,61.8z"/>
	</g>
</g>
<g id="XMLID_32_">
	<g id="XMLID_33_">
		<rect id="XMLID_62_" x="100" class="st1" width="100" height="100"/>
		<path id="XMLID_61_" class="st0" d="M111.3,9c2.9,0,5.9,0,8.8,0c0,0.9,0,1.8,0,2.7c-1.9,0-3.8,0-5.7,0c0,1.6,0,3.3,0,4.9
			c0.9-1.4,3-1.7,4.4-1c1.3,0.7,1.8,2.2,1.8,3.6c0,1.8,0,3.6,0,5.3c0,1.2-0.3,2.5-1.2,3.3c-0.9,0.9-2.3,1.2-3.6,1.2
			c-1.3,0-2.6-0.3-3.5-1.3c-1.4-1.6-1-3.9-1.1-5.9c1,0,2,0,3.1,0c0.1,1.1-0.1,2.3,0.1,3.4c0.2,1,1.6,1.3,2.3,0.7
			c0.4-0.4,0.5-1,0.5-1.6c0-1.5,0-3,0-4.4c0-0.5,0-1-0.2-1.4c-0.5-0.9-1.9-0.9-2.4,0c-0.3,0.5-0.3,1.1-0.3,1.6c-1,0-2,0-3,0
			C111.2,16.5,111.2,12.8,111.3,9z"/>
		<path id="XMLID_60_" class="st0" d="M131.1,9.5c0.8-0.3,1.7-0.3,2.4,0.2c0.7,0.6,0.6,1.6,0.6,2.4c-0.4,0-0.9,0-1.3,0
			c0-0.4,0.1-0.9-0.1-1.3c-0.3-0.6-1.4-0.3-1.3,0.4c0,1.6,0,3.2,0,4.8c0,0.7,1,0.9,1.3,0.3c0.2-0.6,0-1.3,0.1-1.9
			c-0.2,0-0.4,0-0.6,0c0-0.4,0-0.7,0-1.1c0.7,0,1.3,0,2,0c0,1.5,0,3,0,4.4c-0.3,0-0.7,0-1,0c0-0.3,0-0.5,0-0.8
			c-0.4,1-1.7,1.1-2.5,0.5c-0.5-0.5-0.6-1.2-0.6-1.9c0-1.3,0-2.7,0-4C130,10.7,130.3,9.8,131.1,9.5z"/>
		<path id="XMLID_59_" class="st0" d="M134.9,9.4c1.1,0,2.2,0,3.3,0c0,0.4,0,0.8,0,1.1c-0.6,0-1.3,0-1.9,0c0,0.8,0,1.6,0,2.4
			c0.5,0,0.9,0,1.4,0c0,0.4,0,0.8,0,1.1c-0.5,0-0.9,0-1.4,0c0,0.8,0,1.7,0,2.5c0.6,0,1.3,0,1.9,0c0,0.4,0,0.8,0,1.1
			c-1.1,0-2.2,0-3.3,0C134.9,14.9,134.9,12.2,134.9,9.4z"/>
		<path id="XMLID_58_" class="st0" d="M139,9.4c0.5,0,0.9,0,1.4,0c0.5,1.5,1,3.1,1.5,4.6c0-1.5,0-3.1,0-4.6c0.4,0,0.8,0,1.2,0
			c0,2.8,0,5.5,0,8.3c-0.4,0-0.8,0-1.2,0c-0.5-1.7-1.1-3.4-1.6-5.2c0,1.7,0,3.4,0,5.2c-0.4,0-0.8,0-1.2,0C139,14.9,139,12.2,139,9.4
			z"/>
		<path id="XMLID_55_" class="st0" d="M143.8,9.4c1,0,2-0.1,2.9,0.1c0.8,0.2,1.2,1.1,1.2,2c0,1.4,0,2.9,0,4.3c0,0.8-0.5,1.7-1.3,1.9
			c-0.9,0.2-1.9,0.1-2.9,0.1C143.8,14.9,143.8,12.2,143.8,9.4 M145.2,10.5c0,2,0,4,0,6c0.5,0,1.3,0.1,1.3-0.6c0.1-1.6,0-3.2,0-4.7
			C146.5,10.5,145.7,10.5,145.2,10.5z"/>
		<path id="XMLID_54_" class="st0" d="M148.7,9.4c1.1,0,2.2,0,3.3,0c0,0.4,0,0.8,0,1.2c-0.6,0-1.3,0-1.9,0c0,0.8,0,1.6,0,2.4
			c0.5,0,0.9,0,1.4,0c0,0.4,0,0.8,0,1.1c-0.5,0-0.9,0-1.4,0c0,0.8,0,1.7,0,2.5c0.6,0,1.3,0,1.9,0c0,0.4,0,0.8,0,1.2
			c-1.1,0-2.2,0-3.3,0C148.7,14.9,148.7,12.2,148.7,9.4z"/>
		<path id="XMLID_51_" class="st0" d="M152.8,9.4c1.1,0.1,2.3-0.2,3.3,0.3c0.9,0.6,0.7,1.9,0.7,2.8c0,0.7-0.4,1.3-1.1,1.5
			c0.4,1.2,0.9,2.5,1.3,3.7c-0.5,0-1,0-1.5,0c-0.4-1.2-0.8-2.5-1.3-3.7c0,1.2,0,2.5,0,3.7c-0.5,0-0.9,0-1.4,0
			C152.8,14.9,152.8,12.2,152.8,9.4 M154.2,10.5c0,0.9,0,1.7,0,2.6c0.4,0,0.9,0.1,1.1-0.4c0.1-0.6,0.1-1.2,0-1.8
			C155.2,10.5,154.6,10.6,154.2,10.5z"/>
		<path id="XMLID_50_" class="st0" d="M130,21c1.1,0,2.2,0,3.3,0c0,0.4,0,0.8,0,1.1c-0.6,0-1.3,0-1.9,0c0,0.8,0,1.6,0,2.4
			c0.5,0,0.9,0,1.4,0c0,0.4,0,0.8,0,1.1c-0.5,0-0.9,0-1.4,0c0,0.8,0,1.7,0,2.5c0.6,0,1.3,0,1.9,0c0,0.4,0,0.8,0,1.1
			c-1.1,0-2.2,0-3.3,0C130,26.6,130,23.8,130,21z"/>
		<path id="XMLID_47_" class="st0" d="M134.3,21.7c0.9-1.3,3.5-1,3.8,0.7c0.2,1.6,0,3.2,0.1,4.8c0,0.8-0.3,1.5-1,1.9
			c0.3,0.1,0.6,0.1,1,0.2c0,0.4,0,0.7,0,1.1c-0.9-0.2-1.7-0.3-2.6-0.5c0-0.2,0-0.4,0-0.5c-0.8-0.2-1.5-0.8-1.5-1.6
			c-0.1-1.2,0-2.3,0-3.5C134,23.4,133.8,22.4,134.3,21.7 M135.7,22.2c-0.4,0.2-0.4,0.7-0.4,1.1c0,1.5,0,3,0,4.4c0,0.8,1.3,0.8,1.4,0
			c0.1-1.6,0-3.2,0-4.8C136.9,22.3,136.2,21.9,135.7,22.2z"/>
		<path id="XMLID_46_" class="st0" d="M139,21c0.5,0,0.9,0,1.4,0c0,2.2,0,4.5,0,6.7c0.1,0.8,1.4,0.7,1.3-0.1c0-2.2,0-4.4,0-6.6
			c0.4,0,0.9,0,1.3,0c0,2.1,0,4.2,0,6.3c0,0.7-0.2,1.5-0.8,1.8c-0.7,0.4-1.5,0.3-2.3,0c-0.7-0.3-1-1.1-1-1.8
			C139,25.2,139,23.1,139,21z"/>
		<path id="XMLID_43_" class="st0" d="M145,21c0.5,0,1.1,0,1.6,0c0.5,2.8,1.1,5.5,1.6,8.3c-0.5,0-1,0-1.4,0c-0.1-0.5-0.2-1-0.3-1.5
			c-0.5,0-0.9,0-1.4,0c-0.2,0.4-0.2,1-0.3,1.5c-0.4,0-0.9,0-1.3,0C143.9,26.6,144.4,23.8,145,21 M145.2,26.7c0.4,0,0.7,0,1.1,0
			c-0.2-1.1-0.3-2.1-0.5-3.2C145.5,24.5,145.4,25.6,145.2,26.7z"/>
		<path id="XMLID_42_" class="st0" d="M148.7,21c0.5,0,0.9,0,1.4,0c0,2.4,0,4.8,0,7.2c0.6,0,1.1,0,1.7,0c0,0.4,0,0.8,0,1.1
			c-1,0-2,0-3.1,0C148.7,26.6,148.7,23.8,148.7,21z"/>
		<path id="XMLID_41_" class="st0" d="M152.4,21c0.5,0,0.9,0,1.4,0c0,2.8,0,5.5,0,8.3c-0.5,0-0.9,0-1.4,0
			C152.4,26.6,152.4,23.8,152.4,21z"/>
		<path id="XMLID_40_" class="st0" d="M154.4,21c1.2,0,2.5,0,3.7,0c0,0.4,0,0.8,0,1.1c-0.4,0-0.8,0-1.2,0c0,2.4,0,4.8,0,7.2
			c-0.5,0-0.9,0-1.4,0c0-2.4,0-4.8,0-7.2c-0.4,0-0.8,0-1.1,0C154.4,21.8,154.4,21.4,154.4,21z"/>
		<path id="XMLID_39_" class="st0" d="M158.6,21c0.5,0,1,0,1.5,0c0.3,1,0.6,2.1,0.8,3.1c0.3-1,0.6-2.1,0.8-3.1c0.4,0,0.9,0,1.3,0
			c-0.5,1.7-1,3.4-1.5,5c-0.1,1.1,0,2.2,0,3.3c-0.5,0-0.9,0-1.4,0c-0.1-1.4,0.2-2.8-0.3-4.1C159.4,23.8,159,22.4,158.6,21z"/>
		<path id="XMLID_36_" class="st0" d="M160.1,38c4.2,0,8.3,0,12.5,0c0,4.2,0,8.4,0,12.5c-1.5,0-2.9,0-4.4,0c0-1.6,0-3.1,0-4.7
			c-1.8,1.8-3.5,3.5-5.3,5.3c2.8,4,3.7,9.2,2.2,13.9c-1.7,5.7-6.8,10.3-12.7,11.2c0,1.6,0,3.2,0,4.7c1.7,0,3.3,0,5,0
			c0,1.5,0,3.1,0,4.6c-1.7,0-3.3,0-5,0c0,1.6,0,3.2,0,4.8c-1.6,0-3.1,0-4.7,0c0-1.6,0-3.2,0-4.8c-1.7,0-3.3,0-5,0c0-1.6,0-3.1,0-4.7
			c1.7,0,3.3,0,5,0c0-1.6,0-3.1,0-4.7c-6.1-0.7-11.4-5.3-13.2-11.1c-1.4-4.4-0.8-9.5,1.8-13.4c2.5-3.9,6.7-6.7,11.3-7.3
			c4.2-0.6,8.7,0.6,12.1,3.3c1.8-1.8,3.6-3.6,5.4-5.4c-1.7,0-3.3,0-5,0C160.1,40.9,160,39.5,160.1,38 M148.1,48.8
			c-3,0.4-5.8,2.1-7.6,4.5c-2.4,3-3.1,7.3-1.8,10.9c1.3,3.9,4.7,6.9,8.7,7.7c3.1,0.7,6.4,0,9.1-1.7c2.8-1.9,4.7-5,5.1-8.3
			c0.4-3.2-0.6-6.6-2.7-9C156.3,49.7,152.1,48.1,148.1,48.8z"/>
		<path id="XMLID_35_" class="st0" d="M142.6,55.6c4.9,0,9.7,0,14.6,0c0,1.2,0,2.5,0,3.7c-4.9,0-9.7,0-14.6,0
			C142.6,58.1,142.6,56.8,142.6,55.6z"/>
		<path id="XMLID_34_" class="st0" d="M142.6,61.8c4.9,0,9.7,0,14.6,0c0,1.2,0,2.5,0,3.7c-4.9,0-9.7,0-14.6,0
			C142.6,64.3,142.6,63,142.6,61.8z"/>
	</g>
</g>
</svg>
