<?xml version="1.0" encoding="utf-8"?>
<!-- Generator: Adobe Illustrator 19.0.0, SVG Export Plug-In . SVG Version: 6.00 Build 0)  -->
<svg version="1.1" id="Layer_1" xmlns="http://www.w3.org/2000/svg" xmlns:xlink="http://www.w3.org/1999/xlink" x="0px" y="0px"
	 viewBox="-155 247 300 300" style="enable-background:new -155 247 300 300;" xml:space="preserve">
<style type="text/css">
	.st0{fill:#00AED9;}
	.st1{fill:#FFFFFF;}
</style>
<rect x="-155" y="247" class="st0" width="300" height="300"/>
<path class="st1" d="M-117.9,276.7c3.4-3,8.2-3.5,12.6-3c3.5,0.3,7.2,1.8,9.1,4.9c2.5,3.9,2.2,8.7,2.3,13.1c-3.1,0-6.1,0-9.2,0
	c-0.1-2.5,0.3-5.2-0.6-7.6c-1-2.3-4.1-2.6-6.1-1.8c-2.1,0.9-2.6,3.4-2.6,5.4c0,4.3,0,8.7,0,13c3.1-5.9,12.1-6.2,16.3-1.4
	c3.1,3.8,3.2,9.1,3.1,13.8c-0.1,5.1,0.7,10.7-1.9,15.4c-1.8,3.5-5.6,5.4-9.4,5.9c-4.6,0.6-9.9,0.2-13.5-3.1
	c-3.4-3.1-4.4-7.9-4.5-12.3c0-10,0-20.1,0-30.1C-122.4,284.4-121.3,279.7-117.9,276.7 M-109.2,304.2c-2.9,0.6-3.5,4-3.4,6.5
	c0.2,4.1-0.4,8.3,0.3,12.4c0.7,3.7,6.2,4.3,8.1,1.4c1.2-1.9,0.9-4.2,1-6.4c-0.2-3.6,0.3-7.3-0.3-10.9
	C-103.9,304.6-106.9,303.5-109.2,304.2z"/>
<path class="st1" d="M-66.7,279c0.7-4.6,7-5.8,10.3-3.2c2.2,2,1.6,5.3,1.7,7.9c-1.3,0-2.6,0-3.9,0c-0.1-1.6,0.2-3.2-0.2-4.7
	c-0.8-1.7-3.8-1.1-3.8,0.8c-0.1,4.9-0.1,9.8,0,14.7c-0.1,2,3,2.6,3.8,0.8c0.5-2,0.1-4,0.2-6c1.3,0,2.6,0,3.9,0
	c-0.1,2.8,0.5,5.8-1,8.3c-1.7,2.5-5.4,2.7-8,1.6s-3.4-4.2-3.3-6.7C-66.8,288.1-67.3,283.5-66.7,279z"/>
<path class="st1" d="M-52.6,274.8c1.4,0,2.8,0,4.3,0c0,7.2,0,14.3,0,21.5c1.7,0,3.3,0,5,0c0,1.2,0,2.3,0,3.5c-3.1,0-6.2,0-9.2,0
	C-52.6,291.4-52.6,283.1-52.6,274.8z"/>
<path class="st1" d="M-41.5,274.8c3.4,0,6.7,0,10.1,0c0,1.2,0,2.3,0,3.5c-1.9,0-3.9,0-5.8,0c0,2.4,0,4.7,0,7.1c1.4,0,2.8,0,4.1,0
	c0,1.1,0,2.3,0,3.4c-1.4,0-2.8,0-4.1,0c0,2.5,0,5,0,7.5c1.9,0,3.9,0,5.8,0c0,1.2,0,2.3,0,3.5c-3.4,0-6.7,0-10.1,0
	C-41.5,291.4-41.5,283.1-41.5,274.8z"/>
<path class="st1" d="M-25.2,274.8c1.6,0,3.2,0,4.8,0c1.6,8.3,3.2,16.6,4.7,24.9c-1.5,0-2.9,0-4.4,0c-0.2-1.5-0.5-3-0.7-4.5
	c-1.5,0-2.9,0-4.4,0c-0.2,1.5-0.5,3-0.7,4.5c-1.3,0-2.7,0-4,0C-28.4,291.4-26.8,283.1-25.2,274.8 M-24.6,291.8c1.1,0,2.2,0,3.2,0
	c-0.5-3-0.9-6.1-1.6-9.1C-23.8,285.6-24,288.7-24.6,291.8z"/>
<path class="st1" d="M-14,274.8c1.4,0,2.8,0,4.2,0c1.5,4.6,2.9,9.3,4.4,13.9c0.1-4.6,0-9.3,0-13.9c1.2,0,2.3,0,3.5,0
	c0,8.3,0,16.6,0,25c-1.2,0-2.5,0-3.7,0c-1.6-5.1-3.2-10.2-4.8-15.3c-0.1,5.1,0,10.2,0,15.3c-1.2,0-2.4,0-3.6,0
	C-14,291.4-14,283.1-14,274.8z"/>
<path class="st1" d="M3.8,274.8c1.4,0,2.7,0,4.1,0c0.7,5,1.2,10.1,1.9,15.1c0.9-5,1.4-10.1,2.1-15.1c1.1,0,2.3,0,3.5,0
	c0.8,5,1.4,10.1,2.3,15.1c0.8-5,1.2-10.1,1.9-15.1c1.2,0,2.4,0,3.6,0c-1.1,8.3-2.2,16.6-3.2,24.9c-1.3,0-2.7,0-4,0
	c-0.8-5-1.5-10-2.4-15c-0.9,5-1.5,10-2.3,15c-1.3,0-2.6,0-4,0C6,291.4,4.9,283.1,3.8,274.8z"/>
<path class="st1" d="M27.4,274.8c1.6,0,3.2,0,4.8,0c1.6,8.3,3.2,16.6,4.7,24.9c-1.5,0-2.9,0-4.4,0c-0.3-1.5-0.5-3-0.8-4.5
	c-1.5,0-2.9,0-4.4,0c-0.2,1.5-0.5,3-0.7,4.5c-1.3,0-2.7,0-4,0C24.3,291.4,25.9,283.1,27.4,274.8 M29.7,282.1
	c-0.6,3.2-1.1,6.4-1.6,9.7c1.1,0,2.2,0,3.2,0C30.8,288.5,30.3,285.3,29.7,282.1z"/>
<path class="st1" d="M36.4,274.8c3.7,0,7.4,0,11.1,0c0,1.2,0,2.3,0,3.5c-1.1,0-2.3,0-3.4,0c0,7.2,0,14.3,0,21.5c-1.4,0-2.9,0-4.3,0
	c0-7.2,0-14.3,0-21.5c-1.1,0-2.3,0-3.4,0C36.4,277.1,36.4,275.9,36.4,274.8z"/>
<path class="st1" d="M49.4,274.8c3.4,0,6.7,0,10.1,0c0,1.2,0,2.3,0,3.5c-1.9,0-3.9,0-5.8,0c0,2.4,0,4.7,0,7.1c1.4,0,2.8,0,4.1,0
	c0,1.1,0,2.3,0,3.4c-1.4,0-2.8,0-4.1,0c0,2.5,0,5,0,7.5c1.9,0,3.9,0,5.8,0c0,1.2,0,2.3,0,3.5c-3.4,0-6.7,0-10.1,0
	C49.4,291.4,49.4,283.1,49.4,274.8z"/>
<path class="st1" d="M61.6,274.8c3.3,0.2,6.8-0.7,9.8,0.9c2.8,1.8,2,5.7,2.1,8.5c0.1,2.1-1.4,3.8-3.2,4.4c1.3,3.7,2.6,7.4,4,11.2
	c-1.5,0-3,0-4.5,0c-1.3-3.7-2.5-7.5-3.9-11.2c0,3.7,0,7.4,0,11.2c-1.4,0-2.8,0-4.3,0C61.6,291.4,61.6,283.1,61.6,274.8 M65.9,278.2
	c0,2.6,0,5.2,0,7.8c1.1-0.1,2.9,0.2,3.2-1.2c0.3-1.8,0.2-3.6,0-5.3C68.8,278,67,278.3,65.9,278.2z"/>
<path class="st1" d="M-62.9,309.6c1.6,0,3.2,0,4.8,0c1.6,8.3,3.2,16.6,4.7,25c-1.4,0-2.9,0-4.3,0c-0.3-1.5-0.5-3.1-0.8-4.6
	c-1.5,0-2.9,0-4.4,0c-0.3,1.5-0.5,3.1-0.8,4.6c-1.3,0-2.7,0-4,0C-66.1,326.3-64.5,318-62.9,309.6 M-62.3,326.6c1.1,0,2.2,0,3.3,0
	c-0.5-3.2-1.1-6.5-1.6-9.7C-61.3,320.1-61.8,323.4-62.3,326.6z"/>
<path class="st1" d="M-51.7,309.6c1.4,0,2.8,0,4.2,0c1.5,4.7,2.9,9.4,4.5,14c0-4.7,0-9.4,0-14c1.2,0,2.3,0,3.5,0c0,8.3,0,16.6,0,25
	c-1.2,0-2.5,0-3.7,0c-1.6-5.1-3.2-10.3-4.9-15.4c0,5.1,0,10.2,0,15.4c-1.2,0-2.4,0-3.6,0C-51.7,326.3-51.7,318-51.7,309.6z"/>
<path class="st1" d="M-37.2,309.6c2.8,0.1,5.7-0.2,8.4,0.2c2.6,0.4,4,3.1,4.1,5.5c0.1,4.3,0.1,8.6,0,12.9c0,2.4-1.1,5.2-3.6,5.9
	c-2.9,0.7-6,0.3-8.9,0.4C-37.2,326.3-37.2,318-37.2,309.6 M-33,313.1c0,6,0,12.1,0,18.1c1.4,0,3.8,0.1,4-1.8c0.2-4.8,0.1-9.6,0-14.4
	C-29.1,312.9-31.5,313.1-33,313.1z"/>
<path class="st1" d="M-17.6,311.4c2-2.4,5.8-2.5,8.5-1.2c2.4,1.4,2.3,4.5,2.3,6.9c-1.3,0-2.6,0-3.9,0c-0.1-1.2,0.1-2.4-0.3-3.5
	c-0.9-1.5-3.8-0.9-3.6,1c-0.4,2.3,1.8,3.8,3.2,5.2c2,2,4.6,4.1,4.8,7.2c0.2,2.5,0,5.5-2.4,6.9c-2.4,1.3-5.7,1.3-8-0.4
	c-2.2-1.9-1.6-5.1-1.7-7.8c1.3,0,2.6,0,3.9,0c0,1.5-0.2,3.1,0.2,4.5c0.6,1.7,3.6,1.3,3.7-0.6c0.9-3.9-3.1-5.9-5.2-8.4
	C-18.9,319-19.6,314.5-17.6,311.4z"/>
<path class="st1" d="M-0.8,309.6c1.6,0,3.2,0,4.8,0c1.6,8.3,3.2,16.6,4.7,25c-1.4,0-2.9,0-4.3,0c-0.3-1.5-0.5-3.1-0.8-4.6
	c-1.5,0-2.9,0-4.4,0c-0.3,1.5-0.5,3.1-0.8,4.6c-1.3,0-2.7,0-4,0C-4,326.3-2.4,318-0.8,309.6 M-0.2,326.6c1.1,0,2.2,0,3.3,0
	c-0.5-3.2-1.1-6.5-1.6-9.7C0.8,320.2,0.4,323.4-0.2,326.6z"/>
<path class="st1" d="M10.4,309.6c1.4,0,2.8,0,4.2,0c1.5,4.7,2.9,9.4,4.5,14c0-4.7,0-9.3,0-14c1.2,0,2.3,0,3.5,0c0,8.3,0,16.6,0,25
	c-1.2,0-2.5,0-3.7,0c-1.6-5.1-3.2-10.3-4.8-15.4c0,5.1,0,10.2,0,15.4c-1.2,0-2.4,0-3.6,0C10.4,326.3,10.4,318,10.4,309.6z"/>
<path class="st1" d="M31,309.6c3.7,0,7.4,0,11.1,0c0,1.2,0,2.3,0,3.5c-1.1,0-2.3,0-3.4,0c0,7.2,0,14.3,0,21.5c-1.4,0-2.9,0-4.3,0
	c0-7.2,0-14.3,0-21.5c-1.1,0-2.3,0-3.4,0C31,312,31,310.8,31,309.6z"/>
<path class="st1" d="M46.3,309.6c1.6,0,3.2,0,4.8,0c1.6,8.3,3.2,16.6,4.8,25c-1.4,0-2.9,0-4.3,0c-0.3-1.5-0.5-3.1-0.8-4.6
	c-1.5,0-2.9,0-4.4,0c-0.3,1.5-0.5,3.1-0.7,4.6c-1.3,0-2.7,0-4,0C43.1,326.3,44.7,318,46.3,309.6 M46.9,326.6c1.1,0,2.2,0,3.2,0
	c-0.5-3.2-1-6.3-1.6-9.5C47.9,320.3,47.4,323.5,46.9,326.6z"/>
<path class="st1" d="M55.2,309.6c3.7,0,7.5,0,11.2,0c0,1.2,0,2.3,0,3.5c-1.2,0-2.3,0-3.5,0c0,7.2,0,14.3,0,21.5c-1.4,0-2.8,0-4.2,0
	c0-7.2,0-14.3,0-21.5c-1.2,0-2.3,0-3.5,0C55.2,312,55.2,310.8,55.2,309.6z"/>
<path class="st1" d="M79.1,309.6c3.1-0.9,7.3,0.3,8.1,3.8c0.7,3.5,0.2,7,0.4,10.6c-0.1,2.8,0.5,5.8-1,8.4
	c-2.7,4.2-10.8,3.2-11.5-2.1c-0.4-4.7-0.1-9.4-0.2-14C74.7,313.4,76.2,310.2,79.1,309.6 M80.3,313.1c-1.4,0.7-1.1,2.5-1.2,3.8
	c0.1,4.2-0.2,8.5,0.1,12.8c0.2,2.3,4.1,2.1,4.1-0.2c0.1-4.8,0.1-9.7,0-14.5C83.4,313.4,81.6,312.4,80.3,313.1z"/>
<path class="st1" d="M89.9,309.6c1.4,0,2.8,0,4.1,0c1.5,4.6,2.9,9.3,4.4,13.9c0.1-4.6,0-9.3,0-13.9c1.2,0,2.4,0,3.6,0
	c0,8.3,0,16.6,0,25c-1.2,0-2.5,0-3.7,0c-1.7-5.1-3.2-10.2-4.9-15.3c-0.1,5.1,0,10.2,0,15.3c-1.2,0-2.4,0-3.6,0
	C89.9,326.3,89.9,318,89.9,309.6z"/>
<path class="st1" d="M24.9,309.6c1.4,0,2.8,0,4.2,0c0,8.3,0,16.6,0,25c-1.4,0-2.8,0-4.2,0C24.9,326.3,24.9,318,24.9,309.6z"/>
<path class="st1" d="M68.2,309.6c1.4,0,2.8,0,4.2,0c0,8.3,0,16.6,0,25c-1.4,0-2.8,0-4.2,0C68.2,326.3,68.2,318,68.2,309.6z"/>
<path class="st1" d="M-59.9,369.9c-0.3-1.1,0.8-1.8,1.8-1.6c35.4,0,70.9,0,106.3,0c1.2-0.2,1.8,1,1.4,2C44,406.2,38.5,442,33,477.9
	c-0.1,0.7-0.3,1.8-1.3,1.7c-7.5,0.1-15,0-22.5,0c-0.5,5.9-1,11.8-1.5,17.7c3.1,0,6.2-0.1,9.3,0c-7.2,7.3-14.5,14.5-21.8,21.8
	c-7.3-7.2-14.5-14.5-21.7-21.7c3.1,0,6.2,0,9.3,0c-0.5-5.9-1-11.8-1.5-17.7c-7.3,0-14.6,0-21.9,0c-1.1,0.1-1.5-0.9-1.6-1.8
	C-48,441.9-54,405.9-59.9,369.9 M-55.2,373.1c1.4,7.2,2.8,14.4,4.2,21.6c7.3,0.1,14.1-2.5,20.8-4.8c7.5-2.3,14.9,1.2,21.7,4
	c6.2,2.4,12.8,4,19.4,3.8s12.9-2.2,19-4.6c3.7-1.7,7.9-2.8,11.9-1.4c1-6.1,2-12.3,3-18.4C11.6,373.1-21.8,373.1-55.2,373.1
	 M-4.8,409.4c-5,7.5-10,15-14.7,22.6c-3.8,6.4-4.8,15.1-0.1,21.4c4.6,6.8,13.9,8.2,21.3,6.1c5.9-1.8,10.4-7.2,11.3-13.3
	c0.8-5.4-0.9-10.9-3.8-15.4C4.6,423.6-0.1,416.5-4.8,409.4z"/>
</svg>
