<?xml version="1.0" encoding="utf-8"?>
<!-- Generator: Adobe Illustrator 19.0.0, SVG Export Plug-In . SVG Version: 6.00 Build 0)  -->
<svg version="1.1" id="Layer_1" xmlns="http://www.w3.org/2000/svg" xmlns:xlink="http://www.w3.org/1999/xlink" x="0px" y="0px"
	 viewBox="0 0 200 100" style="enable-background:new 0 0 200 100;" xml:space="preserve">
<style type="text/css">
	.st0{fill:#FFFFFF;}
	.st1{fill:#00AED9;}
</style>
<g id="XMLID_1_">
	<g id="XMLID_2_">
		<rect id="XMLID_49_" class="st0" width="100" height="100"/>
		<path id="XMLID_46_" class="st1" d="M12,10.2c0.9-1.1,2.4-1.4,3.7-1.4c1.3,0,2.7,0.3,3.6,1.3c1.1,1.3,1,3.1,1,4.7c-1,0-2,0-3,0
			c0-0.8,0.1-1.7-0.2-2.5c-0.3-0.7-1.3-0.8-2-0.6c-0.7,0.3-0.9,1.1-0.9,1.7c0,1.5,0,3,0,4.5c1-2.1,4.3-2.1,5.6-0.3
			c0.9,1.3,0.9,3,0.9,4.5c0,1.7,0.2,3.5-0.6,5c-0.6,1.2-2,1.9-3.3,2c-1.6,0.2-3.3,0-4.5-1.2c-1.2-1.1-1.4-2.9-1.4-4.4c0-3,0-6,0-9
			C10.8,13.1,11,11.4,12,10.2 M15.2,19.1c-0.7,0.2-1,1-1,1.7c0,1.2,0,2.5,0,3.7c0,0.6,0.1,1.3,0.6,1.6c0.5,0.3,1.2,0.3,1.7,0.1
			c0.6-0.3,0.8-1,0.8-1.6c0-1.2,0-2.4,0-3.6c0-0.6-0.1-1.2-0.5-1.6C16.4,19,15.7,18.9,15.2,19.1z"/>
		<path id="XMLID_45_" class="st1" d="M30.5,9.3c0.8-0.3,1.8-0.3,2.5,0.4c0.6,0.7,0.4,1.7,0.4,2.5c-0.4,0-0.9,0-1.3,0
			c0-0.5,0-1,0-1.5c-0.1-0.6-1-0.6-1.2-0.1c-0.1,0.3-0.1,0.7-0.1,1c0,1.4,0,2.8,0,4.2c0,0.7,1.1,0.8,1.3,0.2c0.1-0.6,0-1.3,0-1.9
			c0.4,0,0.9,0,1.3,0c-0.1,0.9,0.2,2-0.3,2.8c-0.6,0.8-1.8,0.9-2.7,0.5c-0.7-0.3-1-1.2-1-1.9c0-1.4,0-2.9,0-4.3
			C29.4,10.5,29.7,9.6,30.5,9.3z"/>
		<path id="XMLID_44_" class="st1" d="M34.2,9.3c0.5,0,0.9,0,1.4,0c0,2.4,0,4.8,0,7.1c0.6,0,1.1,0,1.7,0c0,0.4,0,0.8,0,1.1
			c-1,0-2,0-3.1,0C34.2,14.8,34.2,12,34.2,9.3z"/>
		<path id="XMLID_43_" class="st1" d="M37.9,9.3c1.1,0,2.2,0,3.3,0c0,0.4,0,0.8,0,1.1c-0.6,0-1.3,0-1.9,0c0,0.8,0,1.6,0,2.4
			c0.5,0,0.9,0,1.4,0c0,0.4,0,0.8,0,1.1c-0.5,0-0.9,0-1.4,0c0,0.8,0,1.7,0,2.5c0.6,0,1.3,0,1.9,0c0,0.4,0,0.8,0,1.1
			c-1.1,0-2.2,0-3.3,0C37.8,14.8,37.8,12,37.9,9.3z"/>
		<path id="XMLID_40_" class="st1" d="M43.3,9.3c0.5,0,1.1,0,1.6,0c0.5,2.8,1.1,5.5,1.6,8.3c-0.5,0-1,0-1.4,0
			c-0.1-0.5-0.2-1-0.3-1.5c-0.5,0-1,0-1.5,0c-0.1,0.5-0.2,1-0.2,1.5c-0.4,0-0.9,0-1.3,0C42.2,14.8,42.7,12,43.3,9.3 M44,11.6
			c-0.2,1.1-0.4,2.2-0.5,3.3c0.4,0,0.7,0,1.1,0C44.4,13.8,44.2,12.7,44,11.6z"/>
		<path id="XMLID_39_" class="st1" d="M47,9.3c0.5,0,0.9,0,1.4,0c0.5,1.6,1,3.1,1.5,4.7c0-1.6,0-3.1,0-4.7c0.4,0,0.8,0,1.2,0
			c0,2.8,0,5.5,0,8.3c-0.4,0-0.8,0-1.2,0c-0.5-1.7-1.1-3.4-1.6-5.1c0,1.7,0,3.4,0,5.1c-0.4,0-0.8,0-1.2,0C47,14.8,47,12,47,9.3z"/>
		<path id="XMLID_38_" class="st1" d="M52.9,9.3c0.5,0,0.9,0,1.4,0c0.2,1.7,0.4,3.5,0.7,5.2c0.2-1.7,0.5-3.5,0.7-5.2
			c0.4,0,0.8,0,1.1,0c0.3,1.7,0.5,3.5,0.8,5.2c0.2-1.7,0.4-3.5,0.6-5.2c0.4,0,0.8,0,1.2,0c-0.4,2.8-0.7,5.5-1.1,8.3
			c-0.4,0-0.9,0-1.3,0c-0.3-1.7-0.5-3.4-0.8-5.1c-0.3,1.7-0.5,3.4-0.8,5.1c-0.4,0-0.9,0-1.3,0C53.7,14.8,53.3,12,52.9,9.3z"/>
		<path id="XMLID_35_" class="st1" d="M60.8,9.3c0.5,0,1.1,0,1.6,0c0.5,2.8,1.1,5.5,1.6,8.3c-0.5,0-1,0-1.4,0
			c-0.1-0.5-0.2-1-0.3-1.5c-0.5,0-1,0-1.5,0c-0.1,0.5-0.2,1-0.2,1.5c-0.4,0-0.9,0-1.3,0C59.8,14.8,60.3,12,60.8,9.3 M61,14.9
			c0.4,0,0.7,0,1.1,0c-0.2-1.1-0.4-2.2-0.5-3.3C61.4,12.7,61.2,13.8,61,14.9z"/>
		<path id="XMLID_34_" class="st1" d="M63.8,9.3c1.2,0,2.5,0,3.7,0c0,0.4,0,0.8,0,1.1c-0.4,0-0.8,0-1.1,0c0,2.4,0,4.8,0,7.2
			c-0.5,0-0.9,0-1.4,0c0-2.4,0-4.8,0-7.2c-0.4,0-0.8,0-1.1,0C63.8,10,63.8,9.7,63.8,9.3z"/>
		<path id="XMLID_33_" class="st1" d="M68.1,9.3c1.1,0,2.2,0,3.3,0c0,0.4,0,0.8,0,1.1c-0.6,0-1.3,0-1.9,0c0,0.8,0,1.6,0,2.4
			c0.5,0,0.9,0,1.4,0c0,0.4,0,0.8,0,1.1c-0.5,0-0.9,0-1.4,0c0,0.8,0,1.7,0,2.5c0.6,0,1.3,0,1.9,0c0,0.4,0,0.8,0,1.1
			c-1.1,0-2.2,0-3.3,0C68.1,14.8,68.1,12,68.1,9.3z"/>
		<path id="XMLID_30_" class="st1" d="M72.2,9.3c0.8,0,1.6,0,2.4,0c0.6,0,1.3,0.4,1.4,1c0.2,0.7,0.1,1.5,0.1,2.3
			c0,0.6-0.5,1.1-1.1,1.2c0.4,1.2,0.9,2.5,1.3,3.7c-0.5,0-1,0-1.5,0c-0.4-1.2-0.8-2.5-1.3-3.7c0,1.2,0,2.5,0,3.7c-0.5,0-0.9,0-1.4,0
			C72.2,14.8,72.2,12,72.2,9.3 M73.6,10.4c0,0.9,0,1.7,0,2.6c0.4,0,1,0.1,1.1-0.4c0.1-0.6,0.1-1.2,0-1.7
			C74.6,10.3,74,10.4,73.6,10.4z"/>
		<path id="XMLID_29_" class="st1" d="M46.1,21.1c0.8-0.5,1.9-0.5,2.6,0c0.7,0.5,0.6,1.4,0.6,2.2c-0.4,0-0.9,0-1.3,0
			c0-0.4,0-0.7,0-1.1c-0.2-0.6-1.2-0.5-1.3,0.2c-0.1,0.6,0.3,1.1,0.7,1.5c0.7,0.8,1.7,1.4,1.9,2.5c0.1,0.9,0.1,2-0.7,2.5
			c-0.8,0.5-2,0.5-2.7-0.1c-0.7-0.6-0.5-1.7-0.5-2.5c0.4,0,0.9,0,1.3,0c0,0.5,0,1,0,1.4c0.1,0.6,1.1,0.6,1.2,0
			c0.1-0.4,0.1-1-0.2-1.3c-0.7-0.9-1.8-1.5-2.3-2.6C45.3,22.9,45.3,21.7,46.1,21.1z"/>
		<path id="XMLID_26_" class="st1" d="M78.2,20.8c0.7-0.1,1.4-0.1,2,0.4c0.5,0.4,0.7,1.1,0.7,1.7c0,1.4,0,2.8,0,4.2
			c0,0.8-0.3,1.6-1.1,1.9c-0.7,0.3-1.6,0.3-2.3-0.1c-0.6-0.4-0.9-1.2-0.9-1.9c0-1.4,0-2.9,0-4.3C76.6,21.9,77.2,21,78.2,20.8
			 M78.5,22c-0.4,0.1-0.4,0.6-0.4,0.9c0,1.5,0,2.9,0,4.4c0,0.4,0.3,0.8,0.7,0.8c0.4,0,0.8-0.4,0.7-0.8c0-1.6,0-3.1,0-4.7
			C79.5,22.2,78.9,21.8,78.5,22z"/>
		<path id="XMLID_23_" class="st1" d="M30.7,20.9c0.5,0,1.1,0,1.6,0c0.5,2.8,1.1,5.5,1.6,8.3c-0.5,0-1,0-1.4,0
			c-0.1-0.5-0.2-1-0.3-1.5c-0.5,0-1,0-1.5,0c-0.1,0.5-0.2,1-0.2,1.5c-0.4,0-0.9,0-1.3,0C29.6,26.4,30.2,23.7,30.7,20.9 M31.4,23.3
			c-0.2,1.1-0.4,2.2-0.5,3.3c0.4,0,0.7,0,1.1,0C31.8,25.5,31.6,24.4,31.4,23.3z"/>
		<path id="XMLID_22_" class="st1" d="M34.4,20.9c0.5,0,0.9,0,1.4,0c0.5,1.6,1,3.1,1.5,4.7c0-1.6,0-3.1,0-4.7c0.4,0,0.8,0,1.2,0
			c0,2.8,0,5.5,0,8.3c-0.4,0-0.8,0-1.2,0c-0.5-1.7-1.1-3.4-1.6-5.1c0,1.7,0,3.4,0,5.1c-0.4,0-0.8,0-1.2,0
			C34.4,26.4,34.4,23.7,34.4,20.9z"/>
		<path id="XMLID_19_" class="st1" d="M39.3,20.9c1.1,0.1,2.2-0.2,3.2,0.2c0.7,0.3,1,1.1,1,1.8c0,1.4,0,2.7,0,4.1
			c0,0.7-0.2,1.5-0.9,1.9c-1,0.5-2.2,0.2-3.3,0.2C39.3,26.4,39.3,23.7,39.3,20.9 M40.7,28c0.5,0,1.3,0.1,1.4-0.6
			c0.1-1.4,0-2.9,0-4.3c0-0.3,0-0.7-0.3-1c-0.3-0.2-0.7-0.1-1.1-0.2C40.7,24,40.7,26,40.7,28z"/>
		<path id="XMLID_16_" class="st1" d="M51.4,20.9c0.5,0,1.1,0,1.6,0c0.5,2.8,1.1,5.5,1.6,8.3c-0.5,0-1,0-1.4,0
			c-0.1-0.5-0.2-1-0.3-1.5c-0.5,0-1,0-1.5,0c-0.1,0.5-0.2,1-0.2,1.5c-0.4,0-0.9,0-1.3,0C50.4,26.4,50.9,23.7,51.4,20.9 M52.1,23.3
			c-0.2,1.1-0.4,2.2-0.5,3.3c0.4,0,0.7,0,1.1,0C52.5,25.5,52.3,24.4,52.1,23.3z"/>
		<path id="XMLID_15_" class="st1" d="M55.1,20.9c0.5,0,0.9,0,1.4,0c0.5,1.6,1,3.1,1.5,4.7c0-1.6,0-3.1,0-4.7c0.4,0,0.8,0,1.2,0
			c0,2.8,0,5.5,0,8.3c-0.4,0-0.8,0-1.2,0c-0.5-1.7-1.1-3.4-1.6-5.1c0,1.7,0,3.4,0,5.1c-0.4,0-0.8,0-1.2,0
			C55.1,26.4,55.1,23.7,55.1,20.9z"/>
		<path id="XMLID_14_" class="st1" d="M60,20.9c0.5,0,0.9,0,1.4,0c0,2.8,0,5.5,0,8.3c-0.5,0-0.9,0-1.4,0C60,26.4,60,23.7,60,20.9z"
			/>
		<path id="XMLID_13_" class="st1" d="M62,20.9c1.2,0,2.5,0,3.7,0c0,0.4,0,0.8,0,1.1c-0.4,0-0.8,0-1.1,0c0,2.4,0,4.8,0,7.2
			c-0.5,0-0.9,0-1.4,0c0-2.4,0-4.8,0-7.2c-0.4,0-0.8,0-1.1,0C62,21.7,62,21.3,62,20.9z"/>
		<path id="XMLID_10_" class="st1" d="M67.1,20.9c0.5,0,1.1,0,1.6,0c0.5,2.8,1.1,5.5,1.6,8.3c-0.5,0-1,0-1.4,0
			c-0.1-0.5-0.2-1-0.3-1.5c-0.5,0-1,0-1.5,0c-0.1,0.5-0.2,1-0.2,1.5c-0.4,0-0.9,0-1.3,0C66.1,26.4,66.6,23.7,67.1,20.9 M67.8,23.2
			c-0.2,1.1-0.4,2.2-0.5,3.3c0.4,0,0.7,0,1.1,0C68.2,25.4,68,24.3,67.8,23.2z"/>
		<path id="XMLID_9_" class="st1" d="M70.1,20.9c1.2,0,2.5,0,3.7,0c0,0.4,0,0.8,0,1.1c-0.4,0-0.8,0-1.1,0c0,2.4,0,4.8,0,7.2
			c-0.5,0-0.9,0-1.4,0c0-2.4,0-4.8,0-7.2c-0.4,0-0.8,0-1.2,0C70.1,21.6,70.1,21.3,70.1,20.9z"/>
		<path id="XMLID_8_" class="st1" d="M74.4,20.9c0.5,0,0.9,0,1.4,0c0,2.8,0,5.5,0,8.3c-0.5,0-0.9,0-1.4,0
			C74.4,26.4,74.4,23.7,74.4,20.9z"/>
		<path id="XMLID_7_" class="st1" d="M81.6,20.9c0.5,0,0.9,0,1.4,0c0.5,1.6,1,3.1,1.5,4.7c0-1.6,0-3.1,0-4.7c0.4,0,0.8,0,1.2,0
			c0,2.8,0,5.5,0,8.3c-0.4,0-0.8,0-1.2,0c-0.5-1.7-1.1-3.4-1.6-5.2c0,1.7,0,3.4,0,5.2c-0.4,0-0.8,0-1.2,0
			C81.6,26.4,81.6,23.7,81.6,20.9z"/>
		<path id="XMLID_3_" class="st1" d="M31.7,41c-0.1-0.3,0.2-0.6,0.5-0.5c11.9,0,23.7,0,35.6,0c0.3,0,0.5,0.2,0.4,0.5
			c-1.9,12-3.7,24.1-5.6,36.1c0,0.3-0.2,0.5-0.5,0.5c-2.5,0-4.9,0-7.4,0c-0.2,2-0.3,3.9-0.5,5.9c1,0,2.1,0,3.1,0
			c-2.4,2.4-4.8,4.8-7.2,7.2c-2.4-2.4-4.8-4.8-7.2-7.2c1,0,2.1,0,3.1,0c-0.2-2-0.3-3.9-0.5-5.9c-2.4,0-4.9,0-7.3,0
			c-0.3,0-0.5-0.2-0.5-0.5C35.7,65,33.7,53,31.7,41 M33.3,42c0.5,2.4,0.9,4.8,1.4,7.2c2.2,0,4.4-0.7,6.5-1.5
			c1.1-0.4,2.3-0.5,3.5-0.3c2,0.4,3.8,1.4,5.7,2c1.8,0.6,3.7,0.9,5.6,0.7c2.3-0.2,4.4-0.9,6.5-1.8c1-0.4,2.2-0.6,3.3-0.2
			c0.3-2.1,0.7-4.1,1-6.2C55.5,42,44.4,42,33.3,42 M45.1,61.7c-1.3,2.2-1.6,5.2,0.1,7.3c1.5,2,4.3,2.5,6.6,1.9
			c1.8-0.4,3.3-1.9,3.9-3.6c0.7-2,0.1-4.2-1-5.9c-1.5-2.5-3.1-4.9-4.7-7.3C48.4,56.6,46.7,59.2,45.1,61.7z"/>
	</g>
</g>
<g id="XMLID_50_">
	<rect id="XMLID_97_" x="100" class="st1" width="100" height="100"/>
	<path id="XMLID_94_" class="st0" d="M112.4,9.9c1.1-1,2.7-1.2,4.2-1c1.2,0.1,2.4,0.6,3,1.6c0.8,1.3,0.7,2.9,0.8,4.4c-1,0-2,0-3.1,0
		c0-0.8,0.1-1.7-0.2-2.5c-0.3-0.8-1.4-0.9-2-0.6c-0.7,0.3-0.9,1.1-0.9,1.8c0,1.4,0,2.9,0,4.3c1-2,4-2.1,5.4-0.5c1,1.3,1.1,3,1,4.6
		c0,1.7,0.2,3.6-0.6,5.1c-0.6,1.2-1.9,1.8-3.1,2c-1.5,0.2-3.3,0.1-4.5-1c-1.1-1-1.5-2.6-1.5-4.1c0-3.3,0-6.7,0-10
		C110.9,12.5,111.2,10.9,112.4,9.9 M115.3,19.1c-1,0.2-1.2,1.3-1.1,2.2c0.1,1.4-0.1,2.8,0.1,4.1c0.2,1.2,2.1,1.4,2.7,0.5
		c0.4-0.6,0.3-1.4,0.3-2.1c-0.1-1.2,0.1-2.4-0.1-3.6C117,19.2,116,18.8,115.3,19.1z"/>
	<path id="XMLID_93_" class="st0" d="M129.4,10.7c0.2-1.5,2.3-1.9,3.4-1.1c0.7,0.7,0.5,1.8,0.6,2.6c-0.4,0-0.9,0-1.3,0
		c0-0.5,0.1-1.1-0.1-1.6c-0.3-0.6-1.3-0.4-1.3,0.3c0,1.6,0,3.3,0,4.9c0,0.7,1,0.9,1.3,0.3c0.2-0.7,0-1.3,0.1-2c0.4,0,0.9,0,1.3,0
		c0,0.9,0.2,1.9-0.3,2.8c-0.6,0.8-1.8,0.9-2.7,0.5s-1.1-1.4-1.1-2.2C129.4,13.7,129.2,12.2,129.4,10.7z"/>
	<path id="XMLID_92_" class="st0" d="M134.1,9.3c0.5,0,0.9,0,1.4,0c0,2.4,0,4.8,0,7.2c0.6,0,1.1,0,1.7,0c0,0.4,0,0.8,0,1.2
		c-1,0-2.1,0-3.1,0C134.1,14.8,134.1,12,134.1,9.3z"/>
	<path id="XMLID_91_" class="st0" d="M137.8,9.3c1.1,0,2.2,0,3.4,0c0,0.4,0,0.8,0,1.2c-0.6,0-1.3,0-1.9,0c0,0.8,0,1.6,0,2.4
		c0.5,0,0.9,0,1.4,0c0,0.4,0,0.8,0,1.1c-0.5,0-0.9,0-1.4,0c0,0.8,0,1.7,0,2.5c0.6,0,1.3,0,1.9,0c0,0.4,0,0.8,0,1.2
		c-1.1,0-2.2,0-3.4,0C137.8,14.8,137.8,12,137.8,9.3z"/>
	<path id="XMLID_88_" class="st0" d="M143.3,9.3c0.5,0,1.1,0,1.6,0c0.5,2.8,1.1,5.5,1.6,8.3c-0.5,0-1,0-1.5,0
		c-0.1-0.5-0.2-1-0.2-1.5c-0.5,0-1,0-1.5,0c-0.1,0.5-0.2,1-0.2,1.5c-0.4,0-0.9,0-1.3,0C142.2,14.8,142.7,12,143.3,9.3 M143.5,14.9
		c0.4,0,0.7,0,1.1,0c-0.2-1-0.3-2-0.5-3C143.7,12.9,143.7,13.9,143.5,14.9z"/>
	<path id="XMLID_87_" class="st0" d="M147,9.3c0.5,0,0.9,0,1.4,0c0.5,1.5,1,3.1,1.5,4.6c0-1.5,0-3.1,0-4.6c0.4,0,0.8,0,1.2,0
		c0,2.8,0,5.5,0,8.3c-0.4,0-0.8,0-1.2,0c-0.5-1.7-1.1-3.4-1.6-5.1c0,1.7,0,3.4,0,5.1c-0.4,0-0.8,0-1.2,0C147,14.8,147,12,147,9.3z"
		/>
	<path id="XMLID_86_" class="st0" d="M152.9,9.3c0.5,0,0.9,0,1.4,0c0.2,1.7,0.4,3.4,0.6,5c0.3-1.7,0.5-3.4,0.7-5c0.4,0,0.8,0,1.2,0
		c0.3,1.7,0.5,3.4,0.8,5c0.3-1.7,0.4-3.4,0.6-5c0.4,0,0.8,0,1.2,0c-0.4,2.8-0.7,5.5-1.1,8.3c-0.4,0-0.9,0-1.3,0
		c-0.3-1.7-0.5-3.3-0.8-5c-0.3,1.7-0.5,3.3-0.8,5c-0.4,0-0.9,0-1.3,0C153.7,14.8,153.3,12,152.9,9.3z"/>
	<path id="XMLID_83_" class="st0" d="M160.8,9.3c0.5,0,1.1,0,1.6,0c0.5,2.8,1.1,5.5,1.6,8.3c-0.5,0-1,0-1.5,0
		c-0.1-0.5-0.2-1-0.3-1.5c-0.5,0-1,0-1.5,0c-0.1,0.5-0.2,1-0.2,1.5c-0.4,0-0.9,0-1.3,0C159.8,14.8,160.3,12,160.8,9.3 M161.6,11.7
		c-0.2,1.1-0.4,2.1-0.5,3.2c0.4,0,0.7,0,1.1,0C161.9,13.8,161.8,12.8,161.6,11.7z"/>
	<path id="XMLID_82_" class="st0" d="M163.8,9.3c1.2,0,2.5,0,3.7,0c0,0.4,0,0.8,0,1.2c-0.4,0-0.8,0-1.1,0c0,2.4,0,4.8,0,7.2
		c-0.5,0-1,0-1.4,0c0-2.4,0-4.8,0-7.2c-0.4,0-0.8,0-1.1,0C163.8,10,163.8,9.6,163.8,9.3z"/>
	<path id="XMLID_81_" class="st0" d="M168.1,9.3c1.1,0,2.2,0,3.4,0c0,0.4,0,0.8,0,1.2c-0.6,0-1.3,0-1.9,0c0,0.8,0,1.6,0,2.4
		c0.5,0,0.9,0,1.4,0c0,0.4,0,0.8,0,1.1c-0.5,0-0.9,0-1.4,0c0,0.8,0,1.7,0,2.5c0.6,0,1.3,0,1.9,0c0,0.4,0,0.8,0,1.2
		c-1.1,0-2.2,0-3.4,0C168.1,14.8,168.1,12,168.1,9.3z"/>
	<path id="XMLID_78_" class="st0" d="M172.2,9.3c1.1,0.1,2.3-0.2,3.3,0.3c0.9,0.6,0.7,1.9,0.7,2.8c0,0.7-0.5,1.3-1.1,1.5
		c0.4,1.2,0.9,2.5,1.3,3.7c-0.5,0-1,0-1.5,0c-0.4-1.2-0.8-2.5-1.3-3.7c0,1.2,0,2.5,0,3.7c-0.5,0-0.9,0-1.4,0
		C172.2,14.8,172.2,12,172.2,9.3 M173.6,10.4c0,0.9,0,1.7,0,2.6c0.4,0,1,0.1,1.1-0.4c0.1-0.6,0.1-1.2,0-1.8
		C174.6,10.3,174,10.4,173.6,10.4z"/>
	<path id="XMLID_75_" class="st0" d="M130.7,20.9c0.5,0,1.1,0,1.6,0c0.5,2.8,1.1,5.5,1.6,8.3c-0.5,0-1,0-1.4,0
		c-0.1-0.5-0.2-1-0.3-1.5c-0.5,0-1,0-1.5,0c-0.1,0.5-0.2,1-0.3,1.5c-0.4,0-0.9,0-1.3,0C129.6,26.4,130.2,23.7,130.7,20.9
		 M130.9,26.5c0.4,0,0.7,0,1.1,0c-0.2-1.1-0.4-2.2-0.5-3.2C131.2,24.4,131.1,25.5,130.9,26.5z"/>
	<path id="XMLID_74_" class="st0" d="M134.4,20.9c0.5,0,0.9,0,1.4,0c0.5,1.6,1,3.1,1.5,4.7c0-1.6,0-3.1,0-4.7c0.4,0,0.8,0,1.2,0
		c0,2.8,0,5.5,0,8.3c-0.4,0-0.8,0-1.2,0c-0.5-1.7-1.1-3.4-1.6-5.1c0,1.7,0,3.4,0,5.1c-0.4,0-0.8,0-1.2,0
		C134.4,26.4,134.4,23.7,134.4,20.9z"/>
	<path id="XMLID_71_" class="st0" d="M139.3,20.9c0.9,0,1.9-0.1,2.8,0.1c0.9,0.1,1.3,1,1.4,1.8c0,1.4,0,2.9,0,4.3
		c0,0.8-0.4,1.7-1.2,2c-1,0.2-2,0.1-3,0.1C139.3,26.4,139.3,23.7,139.3,20.9 M140.7,22c0,2,0,4,0,6c0.5,0,1.3,0,1.3-0.6
		c0.1-1.6,0-3.2,0-4.8C142,22,141.2,22,140.7,22z"/>
	<path id="XMLID_70_" class="st0" d="M145.8,21.5c0.7-0.8,1.9-0.8,2.8-0.4c0.8,0.5,0.8,1.5,0.8,2.3c-0.4,0-0.9,0-1.3,0
		c0-0.4,0-0.8-0.1-1.2c-0.3-0.5-1.3-0.3-1.2,0.3c-0.1,0.8,0.6,1.3,1.1,1.7c0.7,0.7,1.5,1.4,1.6,2.4c0.1,0.8,0,1.8-0.8,2.3
		c-0.8,0.4-1.9,0.4-2.7-0.1c-0.7-0.6-0.5-1.7-0.6-2.6c0.4,0,0.9,0,1.3,0c0,0.5-0.1,1,0.1,1.5c0.2,0.6,1.2,0.4,1.2-0.2
		c0.3-1.3-1-2-1.7-2.8C145.4,24,145.1,22.5,145.8,21.5z"/>
	<path id="XMLID_67_" class="st0" d="M151.4,20.9c0.5,0,1.1,0,1.6,0c0.5,2.8,1.1,5.5,1.6,8.3c-0.5,0-1,0-1.4,0
		c-0.1-0.5-0.2-1-0.3-1.5c-0.5,0-1,0-1.5,0c-0.1,0.5-0.2,1-0.3,1.5c-0.4,0-0.9,0-1.3,0C150.3,26.4,150.9,23.7,151.4,20.9
		 M151.6,26.5c0.4,0,0.7,0,1.1,0c-0.2-1.1-0.4-2.2-0.5-3.2C151.9,24.4,151.8,25.5,151.6,26.5z"/>
	<path id="XMLID_66_" class="st0" d="M155.1,20.9c0.5,0,0.9,0,1.4,0c0.5,1.6,1,3.1,1.5,4.7c0-1.6,0-3.1,0-4.7c0.4,0,0.8,0,1.2,0
		c0,2.8,0,5.5,0,8.3c-0.4,0-0.8,0-1.2,0c-0.5-1.7-1.1-3.4-1.6-5.1c0,1.7,0,3.4,0,5.1c-0.4,0-0.8,0-1.2,0
		C155.1,26.4,155.1,23.7,155.1,20.9z"/>
	<path id="XMLID_65_" class="st0" d="M162,20.9c1.2,0,2.5,0,3.7,0c0,0.4,0,0.8,0,1.2c-0.4,0-0.8,0-1.1,0c0,2.4,0,4.8,0,7.2
		c-0.5,0-1,0-1.4,0c0-2.4,0-4.8,0-7.2c-0.4,0-0.8,0-1.1,0C162,21.7,162,21.3,162,20.9z"/>
	<path id="XMLID_62_" class="st0" d="M167.1,20.9c0.5,0,1.1,0,1.6,0c0.5,2.8,1.1,5.5,1.6,8.3c-0.5,0-1,0-1.4,0
		c-0.1-0.5-0.2-1-0.3-1.5c-0.5,0-1,0-1.5,0c-0.1,0.5-0.2,1-0.2,1.5c-0.4,0-0.9,0-1.3,0C166,26.4,166.6,23.7,167.1,20.9 M167.3,26.5
		c0.4,0,0.7,0,1.1,0c-0.2-1.1-0.3-2.1-0.5-3.2C167.6,24.4,167.5,25.5,167.3,26.5z"/>
	<path id="XMLID_61_" class="st0" d="M170.1,20.9c1.2,0,2.5,0,3.7,0c0,0.4,0,0.8,0,1.2c-0.4,0-0.8,0-1.2,0c0,2.4,0,4.8,0,7.2
		c-0.5,0-0.9,0-1.4,0c0-2.4,0-4.8,0-7.2c-0.4,0-0.8,0-1.2,0C170.1,21.7,170.1,21.3,170.1,20.9z"/>
	<path id="XMLID_58_" class="st0" d="M178,20.9c1-0.3,2.4,0.1,2.7,1.3c0.2,1.2,0.1,2.3,0.1,3.5c0,0.9,0.2,1.9-0.3,2.8
		c-0.9,1.4-3.6,1.1-3.8-0.7c-0.1-1.6,0-3.1-0.1-4.7C176.6,22.1,177.1,21.1,178,20.9 M178.4,22c-0.5,0.2-0.4,0.8-0.4,1.3
		c0,1.4-0.1,2.8,0,4.3c0.1,0.8,1.4,0.7,1.4-0.1c0-1.6,0-3.2,0-4.8C179.5,22.1,178.9,21.8,178.4,22z"/>
	<path id="XMLID_57_" class="st0" d="M181.6,20.9c0.5,0,0.9,0,1.4,0c0.5,1.5,1,3.1,1.5,4.6c0-1.5,0-3.1,0-4.6c0.4,0,0.8,0,1.2,0
		c0,2.8,0,5.5,0,8.3c-0.4,0-0.8,0-1.2,0c-0.6-1.7-1.1-3.4-1.6-5.1c0,1.7,0,3.4,0,5.1c-0.4,0-0.8,0-1.2,0
		C181.6,26.4,181.6,23.7,181.6,20.9z"/>
	<path id="XMLID_56_" class="st0" d="M160,20.9c0.5,0,0.9,0,1.4,0c0,2.8,0,5.5,0,8.3c-0.5,0-0.9,0-1.4,0C160,26.4,160,23.7,160,20.9
		z"/>
	<path id="XMLID_55_" class="st0" d="M174.4,20.9c0.5,0,0.9,0,1.4,0c0,2.8,0,5.5,0,8.3c-0.5,0-0.9,0-1.4,0
		C174.4,26.4,174.4,23.7,174.4,20.9z"/>
	<path id="XMLID_51_" class="st0" d="M131.7,41c-0.1-0.4,0.3-0.6,0.6-0.5c11.8,0,23.6,0,35.4,0c0.4-0.1,0.6,0.3,0.5,0.7
		c-1.9,12-3.7,23.9-5.5,35.9c0,0.2-0.1,0.6-0.4,0.6c-2.5,0-5,0-7.5,0c-0.2,2-0.3,3.9-0.5,5.9c1,0,2.1,0,3.1,0
		c-2.4,2.4-4.8,4.8-7.3,7.3c-2.4-2.4-4.8-4.8-7.2-7.2c1,0,2.1,0,3.1,0c-0.2-2-0.3-3.9-0.5-5.9c-2.4,0-4.9,0-7.3,0
		c-0.4,0-0.5-0.3-0.5-0.6C135.7,65,133.7,53,131.7,41 M133.3,42c0.5,2.4,0.9,4.8,1.4,7.2c2.4,0,4.7-0.8,6.9-1.6
		c2.5-0.8,5,0.4,7.2,1.3c2.1,0.8,4.3,1.3,6.5,1.3s4.3-0.7,6.3-1.5c1.2-0.6,2.6-0.9,4-0.5c0.3-2,0.7-4.1,1-6.1
		C155.5,42,144.4,42,133.3,42 M150.1,54.1c-1.7,2.5-3.3,5-4.9,7.5c-1.3,2.1-1.6,5,0,7.1c1.5,2.3,4.6,2.7,7.1,2
		c2-0.6,3.5-2.4,3.8-4.4c0.3-1.8-0.3-3.6-1.3-5.1C153.2,58.9,151.6,56.5,150.1,54.1z"/>
</g>
</svg>
