<?xml version="1.0" encoding="utf-8"?>
<!-- Generator: Adobe Illustrator 19.0.0, SVG Export Plug-In . SVG Version: 6.00 Build 0)  -->
<svg version="1.1" id="Layer_1" xmlns="http://www.w3.org/2000/svg" xmlns:xlink="http://www.w3.org/1999/xlink" x="0px" y="0px"
	 viewBox="-155 247 300 300" style="enable-background:new -155 247 300 300;" xml:space="preserve">
<style type="text/css">
	.st0{fill:#FDB713;}
	.st1{fill:#FFFFFF;}
</style>
<rect x="-155" y="247" class="st0" width="300" height="300"/>
<path class="st1" d="M-122.3,274.1c8.4,0,16.8,0,25.1,0c-0.2,4.1,0.6,8.4-0.8,12.4c-4.1,15.7-8.2,31.5-12.3,47.2c-3.3,0-6.7,0-10,0
	c4.4-17.1,8.9-34.2,13.3-51.3c-5.1,0-10.3,0-15.4,0C-122.3,279.6-122.3,276.9-122.3,274.1z"/>
<path class="st1" d="M-53.3,274.2c3.3,0,6.6,0,9.9,0c0,1.2,0,2.3,0,3.5c-1.9,0-3.7,0-5.6,0c0,2.4,0,4.7,0,7.1c1.4,0,2.8,0,4.1,0
	c0,1.1,0,2.3,0,3.4c-1.4,0-2.8,0-4.1,0c0,3.7,0,7.3,0,11c-1.4,0-2.8,0-4.2,0C-53.3,290.8-53.3,282.5-53.3,274.2z"/>
<path class="st1" d="M-26,274.1c3-0.8,6.9,0.3,7.9,3.6c0.8,3.2,0.3,6.6,0.4,9.9c-0.1,2.8,0.4,5.8-0.7,8.5c-2.2,4.9-11,4.2-11.8-1.3
	c-0.5-4.7-0.1-9.5-0.2-14.3C-30.6,277.7-29,274.6-26,274.1 M-24.8,277.5c-1.6,0.6-1.3,2.5-1.3,3.8c0.1,4.3-0.2,8.6,0.1,12.9
	c0.2,2.2,3.9,2.1,4-0.1c0.2-4.8,0.1-9.5,0.1-14.3C-21.8,278.3-23.3,276.9-24.8,277.5z"/>
<path class="st1" d="M85.1,274.1c1.4,0,2.8,0,4.2,0c1.5,4.6,2.9,9.3,4.4,13.9c0.1-4.6,0-9.3,0-13.9c1.2,0,2.4,0,3.6,0
	c0,8.3,0,16.6,0,25c-1.2,0-2.5,0-3.7,0c-1.6-5-3.1-10.1-4.8-15.1c-0.1,5,0,10.1-0.1,15.1c-1.2,0-2.4,0-3.6,0
	C85.1,290.8,85.1,282.5,85.1,274.1z"/>
<path class="st1" d="M-69.2,299.1c1.6-8.3,3.1-16.6,4.7-24.9c1.6,0,3.2,0,4.8,0c1.6,8.3,3.2,16.6,4.7,24.9c-1.4,0-2.9,0-4.3,0
	c-0.3-1.5-0.5-3-0.8-4.5c-1.5,0-2.9,0-4.4,0c-0.2,1.5-0.5,3-0.7,4.5C-66.5,299.1-67.9,299.1-69.2,299.1 M-62.3,281.4
	c-0.6,3.2-1.1,6.5-1.6,9.7c1.1,0,2.2,0,3.2,0C-61.2,287.9-61.7,284.6-62.3,281.4z"/>
<path class="st1" d="M-41.7,274.2c3.3,0,6.6,0,9.9,0c0,1.1,0,2.3,0,3.5c-1.9,0-3.7,0-5.6,0c0,2.4,0,4.7,0,7.1c1.4,0,2.8,0,4.2,0
	c0,1.1,0,2.3,0,3.4c-1.4,0-2.8,0-4.2,0c0,3.7,0,7.3,0,11c-1.4,0-2.8,0-4.2,0C-41.7,290.8-41.7,282.5-41.7,274.2z"/>
<path class="st1" d="M-15.3,274.2c3.2,0.2,6.7-0.6,9.7,0.8c2.9,1.9,2.1,5.9,2.1,8.8c0.1,2-1.4,3.5-3.2,4.2c1.3,3.7,2.6,7.4,3.9,11.2
	c-1.5,0-3,0-4.5,0c-1.3-3.7-2.5-7.4-3.8-11.1c0,3.7,0,7.4,0,11.1c-1.4,0-2.8,0-4.2,0C-15.4,290.8-15.4,282.5-15.3,274.2
	 M-11.1,277.5c0,2.6,0,5.2,0,7.9c1.1-0.2,2.6,0.2,3.2-1.1c0.3-1.8,0.3-3.8,0-5.6C-8.3,277.4-10,277.7-11.1,277.5z"/>
<path class="st1" d="M-1.2,274.2c2.9,0.1,5.8-0.3,8.7,0.3c2.6,0.6,3.9,3.3,3.9,5.7c0,4.3,0,8.6,0,12.9c0,2.5-1.3,5.2-3.9,5.7
	c-2.8,0.5-5.8,0.1-8.6,0.3C-1.2,290.8-1.2,282.5-1.2,274.2 M3,277.6c0,6,0,12.1,0,18.1c1.5,0,3.8,0.2,4-1.8c0.2-4.8,0.2-9.6,0-14.4
	C6.9,277.4,4.5,277.6,3,277.6z"/>
<path class="st1" d="M17.2,274.1c1.6,0,3.2,0,4.8,0c1.6,8.3,3.2,16.6,4.7,24.9c-1.4,0-2.9,0-4.3,0c-0.3-1.5-0.5-3-0.8-4.5
	c-1.5,0-2.9,0-4.4,0c-0.2,1.5-0.5,3-0.7,4.5c-1.3,0-2.7,0-4,0C14,290.8,15.6,282.5,17.2,274.1 M17.8,291.1c1.1,0,2.2,0,3.3,0
	c-0.6-3.2-1.1-6.5-1.6-9.7C18.8,284.7,18.3,287.9,17.8,291.1z"/>
<path class="st1" d="M28.4,274.2c3.1,0.2,6.3-0.5,9.2,0.6c2.8,1.3,2.5,4.9,2.5,7.4c0.1,1.6-0.7,3.1-2,4c1.7,0.7,2.8,2.3,2.6,4.2
	c0,2.8,0.6,6.7-2.4,8.2c-3.1,1.2-6.6,0.4-9.9,0.6C28.4,290.8,28.4,282.5,28.4,274.2 M32.6,277.5c0,2.4,0,4.8,0,7.2
	c1.1-0.2,2.8,0.2,3.2-1.1c0.3-1.6,0.3-3.2,0-4.8C35.5,277.4,33.7,277.7,32.6,277.5 M32.6,287.9c0,2.6,0,5.2,0,7.8
	c1.2-0.2,3.1,0.3,3.7-1.1c0.3-1.8,0.3-3.8,0-5.6C35.7,287.5,33.8,288,32.6,287.9z"/>
<path class="st1" d="M42.7,274.2c1.4,0,2.8,0,4.2,0c0,7.2,0,14.3,0,21.5c1.7,0,3.3,0,5,0c0,1.2,0,2.3,0,3.5c-3.1,0-6.2,0-9.2,0
	C42.7,290.8,42.7,282.5,42.7,274.2z"/>
<path class="st1" d="M53.8,274.2c3.4,0,6.7,0,10.1,0c0,1.1,0,2.3,0,3.5c-1.9,0-3.9,0-5.8,0c0,2.4,0,4.7,0,7.1c1.4,0,2.8,0,4.1,0
	c0,1.1,0,2.3,0,3.4c-1.4,0-2.8,0-4.1,0c0,2.5,0,5,0,7.5c1.9,0,3.9,0,5.8,0c0,1.2,0,2.3,0,3.5c-3.4,0-6.7,0-10.1,0
	C53.8,290.8,53.8,282.5,53.8,274.2z"/>
<path class="st1" d="M73.9,274.2c1.6,0,3.2,0,4.8,0c1.6,8.3,3.2,16.6,4.7,24.9c-1.5,0-2.9,0-4.4,0c-0.3-1.5-0.5-3-0.8-4.5
	c-1.5,0-2.9,0-4.4,0c-0.2,1.5-0.5,3-0.7,4.5c-1.3,0-2.7,0-4,0C70.8,290.8,72.3,282.5,73.9,274.2 M76.1,281.4
	c-0.6,3.2-1.1,6.5-1.6,9.7c1.1,0,2.2,0,3.3,0C77.2,287.9,76.7,284.7,76.1,281.4z"/>
<path class="st1" d="M99.6,274.2c2.9,0.1,5.8-0.3,8.6,0.3c2.4,0.5,3.9,3,3.9,5.4c0.1,4.3,0,8.6,0,13c0,2.4-1,5.1-3.4,5.9
	c-3,0.9-6.1,0.3-9.2,0.4C99.6,290.8,99.6,282.5,99.6,274.2 M103.9,277.6c0,6,0,12.1,0,18.1c1.5,0,3.8,0.2,4-1.8
	c0.2-4.8,0.1-9.6,0-14.4C107.7,277.4,105.3,277.6,103.9,277.6z"/>
<path class="st1" d="M-68.2,312.7c1.1-4.2,6.9-5.1,10-2.8c2.3,2,1.7,5.4,1.8,8.1c-1.3,0-2.6,0-3.9,0c-0.1-1.6,0.3-3.3-0.3-4.8
	c-0.9-1.6-3.8-0.8-3.7,1.1c-0.1,4.8-0.1,9.6,0,14.4c-0.2,2,2.8,2.9,3.8,1.1c0.6-2,0.2-4.1,0.3-6.1c1.3,0,2.6,0,3.9,0
	c-0.2,3,0.7,6.6-1.5,9.1c-2.3,2.1-6.3,2-8.7,0.1c-2.5-2.4-1.9-6.2-2-9.3C-68.4,319.9-69,316.3-68.2,312.7z"/>
<path class="st1" d="M55.9,314.6c-0.3-5.5,7.1-7.6,10.7-4.4c1.8,1.9,1.5,4.7,1.6,7.1c-1.3,0-2.6,0-3.9,0c0-1.3,0.2-2.8-0.3-4.1
	c-0.9-1.6-3.9-1-3.8,1c-0.2,4.8-0.1,9.7,0,14.5c-0.2,2,2.7,2.8,3.7,1.2c0.6-1.9,0.2-3.9,0.3-5.9c-0.7,0-1.3,0-2-0.1
	c0-1.1,0-2.2,0-3.3c2,0,4,0,6,0c0,4.4,0,8.9,0,13.3c-1,0-2.1,0-3.1,0c0-0.7,0-1.4,0-2.1c-1,1.7-2.9,2.8-4.9,2.3
	c-2.9-0.3-4.4-3.3-4.4-5.9C55.8,323.7,55.8,319.1,55.9,314.6z"/>
<path class="st1" d="M-54.1,309c1.4,0,2.8,0,4.2,0c0,7.2,0,14.3,0,21.5c1.7,0,3.4,0,5,0c0,1.2,0,2.3,0,3.5c-3.1,0-6.2,0-9.2,0
	C-54.1,325.7-54.1,317.3-54.1,309z"/>
<path class="st1" d="M-43,309c3.3,0,6.7,0,10,0c0,1.2,0,2.3,0,3.5c-1.9,0-3.9,0-5.8,0c0,2.4,0,4.7,0,7.1c1.4,0,2.8,0,4.1,0
	c0,1.1,0,2.3,0,3.4c-1.4,0-2.8,0-4.1,0c0,2.5,0,5,0,7.5c1.9,0,3.9,0,5.8,0c0,1.2,0,2.3,0,3.5c-3.3,0-6.7,0-10,0
	C-43,325.6-43,317.3-43,309z"/>
<path class="st1" d="M-26.8,309c1.6,0,3.2,0,4.8,0c1.6,8.3,3.2,16.6,4.7,25c-1.5,0-2.9,0-4.4,0c-0.3-1.5-0.5-3-0.8-4.5
	c-1.5,0-2.9,0-4.4,0c-0.2,1.5-0.5,3-0.7,4.5c-1.3,0-2.7,0-4,0C-29.9,325.6-28.4,317.3-26.8,309 M-24.6,316.6
	c-0.7,3.1-1.1,6.2-1.6,9.4c1.1,0,2.2,0,3.2,0C-23.5,322.9-23.9,319.7-24.6,316.6z"/>
<path class="st1" d="M-15.6,309c1.4,0,2.8,0,4.2,0c1.5,4.6,2.9,9.3,4.4,13.9c0.1-4.6,0-9.3,0-13.9c1.2,0,2.3,0,3.5,0
	c0,8.3,0,16.7,0,25c-1.2,0-2.5,0-3.7,0c-1.6-5.1-3.2-10.2-4.8-15.2c-0.1,5.1,0,10.1,0,15.2c-1.2,0-2.4,0-3.6,0
	C-15.6,325.6-15.6,317.3-15.6,309z"/>
<path class="st1" d="M2.8,309c3.4,0,6.7,0,10.1,0c0,1.2,0,2.3,0,3.5c-1.9,0-3.9,0-5.8,0c0,2.4,0,4.7,0,7.1c1.4,0,2.8,0,4.1,0
	c0,1.1,0,2.3,0,3.4c-1.4,0-2.8,0-4.1,0c0,2.5,0,5,0,7.5c1.9,0,3.9,0,5.8,0c0,1.2,0,2.3,0,3.5c-3.4,0-6.7,0-10.1,0
	C2.8,325.6,2.8,317.3,2.8,309z"/>
<path class="st1" d="M15,309c1.4,0,2.8,0,4.2,0c1.5,4.6,2.8,9.2,4.4,13.7c0.1-4.6,0-9.1,0.1-13.7c1.2,0,2.3,0,3.5,0
	c0,8.3,0,16.7,0,25c-1.2,0-2.5,0-3.7,0c-1.6-5.1-3.2-10.3-4.9-15.4c0,5.1,0,10.3,0,15.4c-1.2,0-2.4,0-3.6,0
	C15,325.7,15,317.3,15,309z"/>
<path class="st1" d="M29.5,309c3.3,0,6.7,0,10,0c0,1.2,0,2.3,0,3.5c-1.9,0-3.8,0-5.8,0c0,2.4,0,4.7,0,7.1c1.4,0,2.8,0,4.1,0
	c0,1.1,0,2.3,0,3.4c-1.4,0-2.8,0-4.1,0c0,2.5,0,5,0,7.5c1.9,0,3.8,0,5.8,0c0,1.2,0,2.3,0,3.5c-3.3,0-6.7,0-10,0
	C29.5,325.7,29.5,317.3,29.5,309z"/>
<path class="st1" d="M41.7,309c3.2,0.2,6.7-0.6,9.7,0.8c3,1.8,2.1,5.8,2.2,8.7c0.1,2.1-1.4,3.6-3.2,4.3c1.3,3.7,2.6,7.4,3.9,11.2
	c-1.5,0-3,0-4.5,0c-1.3-3.7-2.5-7.5-3.9-11.2c0,3.7,0,7.4,0,11.1c-1.4,0-2.8,0-4.2,0C41.7,325.7,41.7,317.3,41.7,309 M45.9,320.3
	c1.1-0.2,2.7,0.2,3.2-1.1c0.3-1.8,0.3-3.8,0-5.6c-0.4-1.3-2.2-0.9-3.2-1.1C45.9,315,45.9,317.6,45.9,320.3z"/>
<path class="st1" d="M68.8,309c1.5,0,2.9,0,4.4,0c0.9,3.1,1.7,6.2,2.5,9.4c0.9-3.1,1.7-6.2,2.5-9.4c1.4,0,2.7,0,4.1,0
	c-1.5,5-3.1,10-4.5,15c-0.4,3.3-0.1,6.6-0.2,9.9c-1.4,0-2.8,0-4.2,0c-0.1-3.3,0.2-6.6-0.2-9.9C71.9,319,70.3,314,68.8,309z"/>
<path class="st1" d="M-5.6,360.1c2.2-0.5,4.5,1.4,4.3,3.7c-0.1,6.4,0.2,12.8-0.1,19.1c-0.6,3.6-6.4,3.5-7,0
	c-0.2-6.4,0-12.8-0.1-19.1C-8.6,362-7.3,360.4-5.6,360.1z"/>
<path class="st1" d="M-42,369.8c1.7-0.7,3.8,0.1,4.6,1.8c3.1,5.5,6.4,10.9,9.4,16.5c1.4,3.6-3.9,6.5-6.2,3.4
	c-3.3-5.4-6.3-10.9-9.5-16.3C-44.9,373.3-44,370.6-42,369.8z"/>
<path class="st1" d="M29.1,369.8c2.9-1.6,6.4,1.9,4.8,4.8c-3,5.4-6.2,10.8-9.2,16.2c-0.9,1.9-3.6,2.4-5.2,1.2c-1.5-1-2-3.2-1-4.8
	c2.9-5.1,5.8-10.1,8.6-15.1C27.6,371.2,28.2,370.3,29.1,369.8z"/>
<path class="st1" d="M-8.7,392.6c18.2-1.9,36.8,9.2,43.7,26.2c4,9.4,4.5,20.1,1.5,29.9c-3.4,11.1-11.5,20.6-21.9,25.8
	c-11.3,5.7-25.1,6.1-36.6,1.1c-10.4-4.5-18.9-13.2-23.1-23.8c-3.8-9.5-4-20.3-0.7-29.9C-40.7,405.8-25.5,393.8-8.7,392.6
	 M-5.2,406.5c-1.6,0.2-2.9,1.7-2.8,3.3c0,4.7,0,9.4,0,14.1c-0.1,1.7,1.4,3.3,3.1,3.4c1.8,0.1,3.4-1.6,3.3-3.4c0-4.7,0-9.4,0-14.1
	C-1.6,408-3.4,406.3-5.2,406.5 M-27.3,433.7c-0.6,6.8,2.3,13.8,7.4,18.4c5.2,4.8,12.8,6.8,19.7,5.2c6.8-1.4,12.8-6.2,15.6-12.5
	c3.1-6.5,2.7-14.4-0.9-20.6c-2.8-4.9-7.5-8.6-12.8-10.4c0,2.8,0,5.5,0,8.3c6.9,3.4,10.1,12.3,6.8,19.3c-2.7,6.4-10.3,10.1-17,8.3
	c-6.9-1.6-11.9-8.6-11.1-15.6c0.3-5,3.6-9.5,7.8-11.9c0.4-2.7,0.1-5.5,0.1-8.3C-20.2,416.5-26.8,424.7-27.3,433.7z"/>
<path class="st1" d="M56.9,396c3.4-0.6,5.5,4.2,2.8,6.3c-5.3,3.3-10.9,6.3-16.3,9.5c-2.1,1.6-5.6,0-5.6-2.7c-0.3-2,1.4-3.4,3.1-4.1
	C46.2,402,51.3,398.4,56.9,396z"/>
<path class="st1" d="M-68.5,396.4c1.7-0.8,3.4,0.2,4.8,1.1c5,3,10.2,5.7,15.1,8.8c2.9,2.4-0.2,7.4-3.6,6c-5.1-2.7-10-5.7-15-8.5
	c-1.3-0.8-2.9-1.4-3.3-3C-71.1,399.1-70.2,397-68.5,396.4z"/>
<path class="st1" d="M-77.9,431.9c5.5-0.6,11.1-0.1,16.6-0.2c2,0.1,4.7-0.5,6,1.5c1.8,2.2,0,5.9-2.9,5.7c-6.4,0-12.8,0.1-19.2-0.1
	C-80.7,438.4-81.2,433-77.9,431.9z"/>
<path class="st1" d="M47.1,431.9c5.6-0.6,11.4-0.1,17-0.2c1.9,0,4.4-0.4,5.6,1.5c1.8,2.1,0,5.8-2.8,5.7c-6.4,0-12.8,0.1-19.2-0.1
	C44.2,438.4,43.7,433,47.1,431.9z"/>
<path class="st1" d="M-52.1,458.5c3.5-1.4,6.4,3.9,3.4,6.1c-5.4,3.3-10.9,6.3-16.3,9.5c-1.8,1.3-4.7,0.4-5.4-1.8
	c-0.6-1.7,0.2-3.7,1.9-4.5C-63.1,464.7-57.7,461.4-52.1,458.5z"/>
<path class="st1" d="M40,458.4c1.2-0.5,2.5-0.2,3.6,0.5c5.1,3,10.3,5.9,15.4,8.8c1.9,0.9,2.5,3.5,1.3,5.2c-1,1.6-3.3,2.1-4.9,1.1
	c-5.4-3.1-10.8-6.1-16.1-9.3C37,463.3,37.4,459.3,40,458.4z"/>
<path class="st1" d="M-32.2,478.1c2.9-0.9,5.6,2.6,4,5.1c-3,5.3-6.1,10.6-9.1,15.9c-0.8,1.6-2.8,2.4-4.4,1.8c-2-0.6-3.1-3.3-2-5.1
	c2.9-5.2,5.9-10.3,8.8-15.4C-34.3,479.4-33.5,478.3-32.2,478.1z"/>
<path class="st1" d="M20.5,478.1c1.6-0.5,3.4,0.1,4.2,1.6c3.1,5.3,6.1,10.6,9.2,15.9c1,1.6,0.5,3.9-1,4.9c-1.7,1.2-4.3,0.5-5.2-1.4
	c-3-5.3-6.1-10.6-9.1-15.9C17.4,481.4,18.4,478.6,20.5,478.1z"/>
<path class="st1" d="M-5.6,485c2.2-0.6,4.5,1.4,4.3,3.7c0,6,0,12,0,18c0.2,1.8-1.2,3.5-3,3.8c-2,0.4-4.2-1.3-4.2-3.4
	c0-6.1,0-12.3,0-18.4C-8.6,487-7.3,485.4-5.6,485z"/>
</svg>
