<?xml version="1.0" encoding="utf-8"?>
<!-- Generator: Adobe Illustrator 19.0.0, SVG Export Plug-In . SVG Version: 6.00 Build 0)  -->
<svg version="1.1" id="Layer_1" xmlns="http://www.w3.org/2000/svg" xmlns:xlink="http://www.w3.org/1999/xlink" x="0px" y="0px"
	 viewBox="0 0 200 100" style="enable-background:new 0 0 200 100;" xml:space="preserve">
<style type="text/css">
	.st0{fill:#FFFFFF;}
	.st1{fill:#FDB713;}
</style>
<g id="XMLID_1_">
	<g id="XMLID_2_">
		<rect id="XMLID_65_" class="st0" width="100" height="100"/>
		<path id="XMLID_62_" class="st1" d="M43,9c0.7-0.2,1.6-0.1,2.2,0.5c0.5,0.5,0.6,1.2,0.6,1.8c0,1.4,0,2.7,0,4.1
			c0,0.8-0.4,1.6-1.1,1.8s-1.7,0.3-2.3-0.2c-0.6-0.4-0.8-1.2-0.8-1.9c0-1.4,0-2.8,0-4.2C41.6,10.1,42.1,9.2,43,9 M43.4,10.2
			C43,10.3,42.9,10.7,43,11c0,1.4,0,2.8,0,4.2c0,0.3,0,0.5,0.1,0.8c0.3,0.4,1,0.4,1.2-0.1c0.1-0.3,0.1-0.6,0.1-0.9
			c0-1.4,0-2.8,0-4.2C44.4,10.3,43.8,10,43.4,10.2z"/>
		<path id="XMLID_61_" class="st1" d="M10.9,11.8c0-0.9,0-1.8,0-2.7c2.8,0,5.6,0,8.4,0c0,1.1,0.1,2.2,0,3.2
			c-1.4,5.5-2.9,11.1-4.3,16.6c-1.1,0-2.2,0-3.3,0c1.5-5.7,3-11.4,4.4-17.1C14.3,11.8,12.6,11.8,10.9,11.8z"/>
		<path id="XMLID_58_" class="st1" d="M30.2,9.1c0.5,0,1.1,0,1.6,0c0.5,2.8,1.1,5.5,1.6,8.3c-0.5,0-1,0-1.4,0
			c-0.1-0.5-0.2-1-0.3-1.5c-0.5,0-1,0-1.5,0c-0.1,0.5-0.2,1-0.2,1.5c-0.4,0-0.9,0-1.3,0C29.1,14.6,29.6,11.8,30.2,9.1 M30.9,11.4
			c-0.2,1.1-0.4,2.2-0.5,3.3c0.4,0,0.7,0,1.1,0C31.3,13.6,31.1,12.5,30.9,11.4z"/>
		<path id="XMLID_57_" class="st1" d="M33.9,9.1c1.1,0,2.2,0,3.3,0c0,0.4,0,0.8,0,1.1c-0.6,0-1.2,0-1.9,0c0,0.8,0,1.6,0,2.4
			c0.5,0,0.9,0,1.4,0c0,0.4,0,0.8,0,1.1c-0.5,0-0.9,0-1.4,0c0,1.2,0,2.4,0,3.7c-0.5,0-0.9,0-1.4,0C33.9,14.6,33.9,11.8,33.9,9.1z"/>
		<path id="XMLID_56_" class="st1" d="M37.8,9.1c1.1,0,2.2,0,3.3,0c0,0.4,0,0.8,0,1.1c-0.6,0-1.2,0-1.9,0c0,0.8,0,1.6,0,2.4
			c0.5,0,0.9,0,1.4,0c0,0.4,0,0.8,0,1.1c-0.5,0-0.9,0-1.4,0c0,1.2,0,2.4,0,3.7c-0.5,0-0.9,0-1.4,0C37.8,14.6,37.8,11.8,37.8,9.1z"/>
		<path id="XMLID_53_" class="st1" d="M46.6,9.1c1.1,0.1,2.2-0.2,3.2,0.3c1,0.6,0.7,1.9,0.7,2.8c0,0.7-0.4,1.3-1.1,1.5
			c0.4,1.2,0.9,2.5,1.3,3.7c-0.5,0-1,0-1.5,0c-0.4-1.2-0.8-2.5-1.3-3.7c0,1.2,0,2.5,0,3.7c-0.5,0-0.9,0-1.4,0
			C46.5,14.6,46.5,11.8,46.6,9.1 M48,10.2c0,0.9,0,1.7,0,2.6c0.4,0,1,0.1,1.1-0.4c0.1-0.6,0.1-1.2,0-1.7
			C48.9,10.1,48.3,10.2,48,10.2z"/>
		<path id="XMLID_50_" class="st1" d="M51.3,9.1c1.1,0.1,2.3-0.2,3.3,0.3c0.6,0.4,0.8,1.1,0.8,1.8c0,1.4,0,2.7,0,4.1
			c0,0.7-0.2,1.5-0.9,1.9c-1,0.5-2.2,0.2-3.3,0.2C51.3,14.6,51.3,11.8,51.3,9.1 M52.7,10.2c0,2,0,4,0,6c0.4,0,0.8,0.1,1.1-0.2
			c0.3-0.3,0.3-0.7,0.3-1.1c0-1.4,0-2.8,0-4.2C53.9,10.1,53.1,10.2,52.7,10.2z"/>
		<path id="XMLID_47_" class="st1" d="M57.4,9.1c0.5,0,1.1,0,1.6,0c0.5,2.8,1.1,5.5,1.6,8.3c-0.5,0-1,0-1.4,0
			c-0.1-0.5-0.2-1-0.3-1.5c-0.5,0-1,0-1.5,0c-0.1,0.5-0.2,1-0.2,1.5c-0.4,0-0.9,0-1.3,0C56.3,14.6,56.9,11.8,57.4,9.1 M57.6,14.7
			c0.4,0,0.7,0,1.1,0c-0.2-1.1-0.4-2.2-0.5-3.3C57.9,12.5,57.8,13.6,57.6,14.7z"/>
		<path id="XMLID_43_" class="st1" d="M61.1,9.1c0.8,0,1.6,0,2.3,0c0.5,0,1.1,0.3,1.4,0.8c0.3,0.6,0.2,1.4,0.2,2
			c0,0.5-0.3,0.9-0.7,1.1c0.5,0.2,0.9,0.6,0.9,1.1c0,0.7,0.1,1.4-0.1,2.1c-0.2,0.6-0.8,1-1.4,1c-0.9,0-1.7,0-2.6,0
			C61.1,14.6,61.1,11.8,61.1,9.1 M62.5,10.2c0,0.8,0,1.6,0,2.4c0.4,0,1,0.1,1.1-0.4c0.1-0.5,0.1-1.1,0-1.6
			C63.5,10.1,62.9,10.2,62.5,10.2 M62.5,16.2c0.3,0,0.7,0.1,1-0.1c0.3-0.2,0.2-0.6,0.2-0.9c0-0.4,0.1-0.9-0.1-1.3
			c-0.3-0.4-0.8-0.2-1.2-0.3C62.5,14.5,62.5,15.4,62.5,16.2z"/>
		<path id="XMLID_42_" class="st1" d="M65.9,9.1c0.5,0,0.9,0,1.4,0c0,2.4,0,4.8,0,7.2c0.6,0,1.1,0,1.7,0c0,0.4,0,0.8,0,1.1
			c-1,0-2,0-3.1,0C65.9,14.6,65.9,11.8,65.9,9.1z"/>
		<path id="XMLID_41_" class="st1" d="M69.6,9.1c1.1,0,2.2,0,3.3,0c0,0.4,0,0.8,0,1.1c-0.6,0-1.3,0-1.9,0c0,0.8,0,1.6,0,2.4
			c0.5,0,0.9,0,1.4,0c0,0.4,0,0.8,0,1.1c-0.5,0-0.9,0-1.4,0c0,0.8,0,1.7,0,2.5c0.6,0,1.3,0,1.9,0c0,0.4,0,0.8,0,1.1
			c-1.1,0-2.2,0-3.3,0C69.6,14.6,69.6,11.8,69.6,9.1z"/>
		<path id="XMLID_38_" class="st1" d="M76.3,9.1c0.5,0,1.1,0,1.6,0c0.5,2.8,1.1,5.5,1.6,8.3c-0.5,0-1,0-1.4,0
			c-0.1-0.5-0.2-1-0.3-1.5c-0.5,0-1,0-1.5,0c-0.1,0.5-0.2,1-0.2,1.5c-0.4,0-0.9,0-1.3,0C75.3,14.6,75.8,11.8,76.3,9.1 M76.5,14.7
			c0.4,0,0.7,0,1.1,0c-0.2-1.1-0.3-2.2-0.6-3.2C76.8,12.6,76.7,13.6,76.5,14.7z"/>
		<path id="XMLID_37_" class="st1" d="M80,9.1c0.5,0,0.9,0,1.4,0c0.5,1.5,1,3.1,1.5,4.7c0-1.6,0-3.1,0-4.7c0.4,0,0.8,0,1.2,0
			c0,2.8,0,5.5,0,8.3c-0.4,0-0.8,0-1.2,0c-0.5-1.7-1.1-3.4-1.6-5.1c0,1.7,0,3.4,0,5.1c-0.4,0-0.8,0-1.2,0C80,14.6,80,11.8,80,9.1z"
			/>
		<path id="XMLID_34_" class="st1" d="M84.9,9.1c1.1,0.1,2.2-0.2,3.2,0.2c0.7,0.3,1,1.1,1,1.8c0,1.4,0,2.7,0,4.1
			c0,0.7-0.2,1.5-0.9,1.9c-1,0.5-2.2,0.2-3.3,0.3C84.9,14.6,84.9,11.8,84.9,9.1 M86.3,10.2c0,2,0,4,0,6c0.4,0,0.8,0.1,1.1-0.1
			c0.3-0.2,0.3-0.7,0.3-1c0-1.4,0-2.8,0-4.3C87.5,10.1,86.8,10.2,86.3,10.2z"/>
		<path id="XMLID_33_" class="st1" d="M29.8,20.8c0.8-0.4,1.9-0.4,2.6,0.2c0.7,0.7,0.5,1.7,0.5,2.6c-0.4,0-0.9,0-1.3,0
			c0-0.5,0-1-0.1-1.5c-0.1-0.6-1.2-0.5-1.3,0.1c-0.1,1.7,0,3.3,0,5c0,0.7,1.1,0.9,1.3,0.3c0.1-0.6,0-1.3,0.1-2c0.4,0,0.8,0,1.3,0
			c-0.1,1,0.2,2.1-0.4,2.9c-0.6,0.7-1.9,0.8-2.7,0.4c-0.7-0.4-1-1.2-1-2c0-1.4,0-2.7,0-4.1C28.8,22,29.1,21.2,29.8,20.8z"/>
		<path id="XMLID_32_" class="st1" d="M71.6,20.7c0.8-0.2,1.7-0.2,2.3,0.4c0.6,0.6,0.5,1.5,0.5,2.3c-0.4,0-0.9,0-1.3,0
			c0-0.4,0.1-0.9-0.1-1.3c-0.2-0.6-1.2-0.4-1.3,0.2c-0.1,1.6,0,3.3,0,5c0,0.7,1,0.9,1.3,0.3c0.2-0.6,0-1.3,0.1-1.9
			c-0.2,0-0.4,0-0.7,0c0-0.4,0-0.7,0-1.1c0.7,0,1.3,0,2,0c0,1.5,0,3,0,4.4c-0.3,0-0.7,0-1,0c0-0.3,0-0.5,0-0.8
			c-0.4,1-1.8,1.1-2.5,0.4c-0.4-0.5-0.6-1.2-0.5-1.8c0-1.4,0-2.8,0-4.2C70.3,21.8,70.8,20.9,71.6,20.7z"/>
		<path id="XMLID_31_" class="st1" d="M33.6,20.7c0.5,0,0.9,0,1.4,0c0,2.4,0,4.8,0,7.2c0.6,0,1.1,0,1.7,0c0,0.4,0,0.8,0,1.1
			c-1,0-2,0-3.1,0C33.6,26.2,33.6,23.4,33.6,20.7z"/>
		<path id="XMLID_30_" class="st1" d="M37.3,20.7c1.1,0,2.2,0,3.3,0c0,0.4,0,0.8,0,1.1c-0.6,0-1.3,0-1.9,0c0,0.8,0,1.6,0,2.4
			c0.5,0,0.9,0,1.4,0c0,0.4,0,0.8,0,1.1c-0.5,0-0.9,0-1.4,0c0,0.8,0,1.7,0,2.5c0.6,0,1.3,0,1.9,0c0,0.4,0,0.8,0,1.1
			c-1.1,0-2.2,0-3.3,0C37.3,26.2,37.3,23.4,37.3,20.7z"/>
		<path id="XMLID_27_" class="st1" d="M42.7,20.7c0.5,0,1.1,0,1.6,0c0.5,2.8,1.1,5.5,1.6,8.3c-0.5,0-1,0-1.4,0
			c-0.1-0.5-0.2-1-0.3-1.5c-0.5,0-1,0-1.5,0c-0.1,0.5-0.2,1-0.2,1.5c-0.4,0-0.9,0-1.3,0C41.7,26.2,42.2,23.5,42.7,20.7 M42.9,26.3
			c0.4,0,0.7,0,1.1,0c-0.2-1.1-0.4-2.2-0.5-3.3C43.3,24.1,43.1,25.2,42.9,26.3z"/>
		<path id="XMLID_26_" class="st1" d="M46.5,20.7c0.5,0,0.9,0,1.4,0c0.5,1.6,1,3.2,1.5,4.7c0-1.6,0-3.2,0-4.7c0.4,0,0.8,0,1.2,0
			c0,2.8,0,5.5,0,8.3c-0.4,0-0.8,0-1.2,0c-0.5-1.7-1.1-3.4-1.6-5.1c0,1.7,0,3.4,0,5.1c-0.4,0-0.8,0-1.2,0
			C46.5,26.2,46.5,23.4,46.5,20.7z"/>
		<path id="XMLID_25_" class="st1" d="M52.6,20.7c1.1,0,2.2,0,3.3,0c0,0.4,0,0.8,0,1.1c-0.6,0-1.3,0-1.9,0c0,0.8,0,1.6,0,2.4
			c0.5,0,0.9,0,1.4,0c0,0.4,0,0.8,0,1.1c-0.5,0-0.9,0-1.4,0c0,0.8,0,1.7,0,2.5c0.6,0,1.3,0,1.9,0c0,0.4,0,0.8,0,1.1
			c-1.1,0-2.2,0-3.3,0C52.6,26.2,52.6,23.4,52.6,20.7z"/>
		<path id="XMLID_24_" class="st1" d="M56.7,20.7c0.5,0,0.9,0,1.4,0c0.5,1.6,1,3.1,1.5,4.7c0-1.6,0-3.1,0-4.7c0.4,0,0.8,0,1.2,0
			c0,2.8,0,5.5,0,8.3c-0.4,0-0.8,0-1.2,0c-0.6-1.7-1.1-3.4-1.6-5.2c0,1.7,0,3.4,0,5.2c-0.4,0-0.8,0-1.2,0
			C56.7,26.2,56.7,23.4,56.7,20.7z"/>
		<path id="XMLID_23_" class="st1" d="M61.5,20.7c1.1,0,2.2,0,3.3,0c0,0.4,0,0.8,0,1.1c-0.6,0-1.3,0-1.9,0c0,0.8,0,1.6,0,2.4
			c0.5,0,0.9,0,1.4,0c0,0.4,0,0.8,0,1.1c-0.5,0-0.9,0-1.4,0c0,0.8,0,1.7,0,2.5c0.6,0,1.3,0,1.9,0c0,0.4,0,0.8,0,1.1
			c-1.1,0-2.2,0-3.3,0C61.5,26.2,61.5,23.4,61.5,20.7z"/>
		<path id="XMLID_20_" class="st1" d="M65.6,20.7c1.1,0.1,2.3-0.3,3.4,0.3c0.8,0.6,0.6,1.8,0.6,2.7c0,0.7-0.4,1.3-1.1,1.5
			c0.4,1.2,0.9,2.5,1.3,3.7c-0.5,0-1,0-1.5,0c-0.4-1.2-0.8-2.5-1.3-3.7c0,1.2,0,2.5,0,3.7c-0.5,0-0.9,0-1.4,0
			C65.6,26.2,65.6,23.4,65.6,20.7 M67,21.8c0,0.9,0,1.7,0,2.6c0.4,0,1,0.1,1.1-0.4c0.1-0.6,0.1-1.2,0-1.8
			C67.9,21.7,67.3,21.8,67,21.8z"/>
		<path id="XMLID_19_" class="st1" d="M74.6,20.7c0.5,0,1,0,1.5,0c0.3,1,0.6,2.1,0.8,3.1c0.3-1,0.6-2.1,0.8-3.1c0.4,0,0.9,0,1.3,0
			c-0.5,1.7-1,3.4-1.5,5.1c-0.1,1.1,0,2.2,0,3.2c-0.5,0-0.9,0-1.4,0c-0.1-1.4,0.2-2.8-0.3-4.1C75.5,23.5,75,22.1,74.6,20.7z"/>
		<path id="XMLID_18_" class="st1" d="M49.6,37.7c0.7-0.3,1.6,0.3,1.6,1.1c0,2.1,0,4.1,0,6.2c0,0.6-0.5,1.2-1.1,1.2
			c-0.6,0-1.3-0.5-1.2-1.2c0-2.1,0-4.1,0-6.2C48.8,38.4,49.2,37.9,49.6,37.7z"/>
		<path id="XMLID_17_" class="st1" d="M38,40.9c0.5,0,1,0.2,1.2,0.7c1,1.8,2.1,3.6,3.1,5.5c0.5,1.2-1.2,2.1-2,1.2
			c-1.1-1.8-2.1-3.7-3.2-5.5C36.6,42,37.2,40.9,38,40.9z"/>
		<path id="XMLID_16_" class="st1" d="M61.7,40.9c0.9-0.3,1.8,0.9,1.3,1.7c-1,1.8-2.1,3.6-3.1,5.4c-0.3,0.6-1.2,0.8-1.7,0.4
			c-0.5-0.3-0.7-1.1-0.4-1.6c1-1.8,2-3.5,3-5.3C61,41.2,61.3,40.9,61.7,40.9z"/>
		<path id="XMLID_12_" class="st1" d="M49,48.5c3.1-0.2,6.3,0.6,8.9,2.2c2.7,1.7,4.8,4.4,5.8,7.4c1.2,3.4,1,7.3-0.5,10.6
			c-1.4,3.1-3.9,5.7-7,7.2c-3.2,1.5-7,1.8-10.4,0.7c-2.9-0.9-5.5-2.7-7.3-5.2c-2-2.7-3-6.1-2.8-9.4c0.2-3.3,1.5-6.5,3.7-8.9
			C41.8,50.5,45.3,48.8,49,48.5 M49.9,53.2c-0.5,0.1-1,0.6-1,1.1c0,1.6,0,3.2,0,4.8c0,0.5,0.5,1,1,1c0.6,0.1,1.2-0.4,1.2-1
			c0-1.6,0-3.2,0-4.8C51.2,53.7,50.6,53.1,49.9,53.2 M42.9,60.4c-0.7,2.2-0.4,4.7,1,6.6c1.7,2.5,5.1,3.8,8,3
			c3.2-0.8,5.6-3.8,5.6-7.1c0.1-3.3-2.1-6.4-5.3-7.4c0,0.9,0,1.8,0,2.8c1,0.5,1.9,1.4,2.3,2.5c0.7,1.6,0.4,3.6-0.7,5
			c-1.1,1.4-3,2.1-4.7,1.8c-1.8-0.3-3.4-1.7-3.9-3.5c-0.6-2.2,0.5-4.7,2.5-5.7c0-0.9,0-1.8,0-2.8C45.5,56.3,43.7,58.2,42.9,60.4z"/>
		<path id="XMLID_11_" class="st1" d="M29,49.7c0.3-0.1,0.7,0,0.9,0.2c1.8,1,3.5,2,5.3,3c0.6,0.3,0.7,1.2,0.4,1.7
			c-0.4,0.5-1.1,0.7-1.6,0.3c-1.8-1-3.6-2.1-5.4-3.1C27.8,51.3,28,49.9,29,49.7z"/>
		<path id="XMLID_10_" class="st1" d="M70.3,49.7c0.6-0.2,1.3,0.1,1.5,0.7c0.2,0.5,0,1.2-0.5,1.5c-1.8,1-3.6,2-5.3,3.1
			c-0.5,0.3-1.3,0.1-1.6-0.4c-0.3-0.6-0.1-1.4,0.5-1.7C66.7,51.8,68.5,50.7,70.3,49.7z"/>
		<path id="XMLID_9_" class="st1" d="M25.7,61.6c2.1-0.2,4.3,0,6.4-0.1c0.6-0.1,1.2,0.3,1.3,0.9c0.2,0.7-0.4,1.5-1.1,1.5
			c-2.1,0-4.1,0-6.2,0c-0.6,0-1.2-0.5-1.2-1.1C24.9,62.3,25.2,61.8,25.7,61.6z"/>
		<path id="XMLID_8_" class="st1" d="M67.3,61.7c0.2-0.1,0.4-0.1,0.6-0.1c2,0,4,0,6,0c0.7,0,1.2,0.6,1.2,1.2c0,0.6-0.6,1.2-1.2,1.2
			c-2.1,0-4.2,0-6.3,0C66.4,63.8,66.2,62.1,67.3,61.7z"/>
		<path id="XMLID_7_" class="st1" d="M34.4,70.4c0.5-0.1,1,0.1,1.3,0.6c0.3,0.5,0.1,1.3-0.4,1.6c-1.8,1-3.6,2-5.3,3.1
			c-0.6,0.4-1.4,0.1-1.7-0.5c-0.3-0.6,0-1.3,0.6-1.6C30.7,72.6,32.5,71.4,34.4,70.4z"/>
		<path id="XMLID_6_" class="st1" d="M65.1,70.5c0.3-0.1,0.7-0.1,1,0.1c1.8,1,3.6,2,5.3,3.1c0.6,0.3,0.8,1.3,0.3,1.8
			c-0.4,0.4-1,0.6-1.5,0.3c-1.8-1-3.6-2.1-5.4-3.1C64,72.1,64.1,70.7,65.1,70.5z"/>
		<path id="XMLID_5_" class="st1" d="M41.2,77c0.9-0.1,1.6,1,1.1,1.7c-1,1.8-2.1,3.6-3.1,5.4c-0.3,0.6-1.2,0.8-1.7,0.4
			c-0.5-0.3-0.7-1.1-0.3-1.6c1-1.8,2-3.6,3.1-5.3C40.4,77.2,40.8,77,41.2,77z"/>
		<path id="XMLID_4_" class="st1" d="M58.6,77c0.5-0.1,1.1,0.1,1.3,0.6c1,1.8,2,3.6,3.1,5.3c0.3,0.5,0.1,1.3-0.4,1.6
			c-0.5,0.4-1.4,0.2-1.7-0.4c-1-1.8-2-3.6-3.1-5.3C57.4,78.1,57.9,77.1,58.6,77z"/>
		<path id="XMLID_3_" class="st1" d="M49.8,79.3c0.7-0.1,1.4,0.5,1.4,1.2c0,2.1,0,4.1,0,6.2c0,0.6-0.5,1.1-1.1,1.1
			c-0.6,0-1.3-0.5-1.2-1.1c0-2.1,0-4.1,0-6.2C48.8,80,49.3,79.4,49.8,79.3z"/>
	</g>
</g>
<g id="XMLID_66_">
	<rect id="XMLID_129_" x="100" class="st1" width="100" height="100"/>
	<path id="XMLID_128_" class="st0" d="M110.9,9c2.8,0,5.6,0,8.4,0c-0.1,1.4,0.2,2.8-0.3,4.1c-1.4,5.2-2.7,10.5-4.1,15.7
		c-1.1,0-2.2,0-3.3,0c1.5-5.7,3-11.4,4.4-17.1c-1.7,0-3.4,0-5.1,0C110.9,10.9,110.9,10,110.9,9z"/>
	<path id="XMLID_127_" class="st0" d="M133.9,9.1c1.1,0,2.2,0,3.3,0c0,0.4,0,0.8,0,1.2c-0.6,0-1.2,0-1.9,0c0,0.8,0,1.6,0,2.4
		c0.5,0,0.9,0,1.4,0c0,0.4,0,0.8,0,1.1c-0.5,0-0.9,0-1.4,0c0,1.2,0,2.4,0,3.7c-0.5,0-0.9,0-1.4,0C133.9,14.6,133.9,11.8,133.9,9.1z"
		/>
	<path id="XMLID_124_" class="st0" d="M143,9c1-0.3,2.3,0.1,2.6,1.2c0.3,1.1,0.1,2.2,0.1,3.3c0,0.9,0.1,1.9-0.2,2.8
		c-0.7,1.6-3.7,1.4-3.9-0.4c-0.2-1.6,0-3.2-0.1-4.8C141.5,10.2,142,9.2,143,9 M143.4,10.2c-0.5,0.2-0.4,0.8-0.4,1.3
		c0,1.4-0.1,2.9,0,4.3c0.1,0.7,1.3,0.7,1.3,0c0.1-1.6,0-3.2,0-4.8C144.4,10.4,143.9,10,143.4,10.2z"/>
	<path id="XMLID_123_" class="st0" d="M180,9c0.5,0,0.9,0,1.4,0c0.5,1.5,1,3.1,1.5,4.6c0-1.5,0-3.1,0-4.6c0.4,0,0.8,0,1.2,0
		c0,2.8,0,5.5,0,8.3c-0.4,0-0.8,0-1.2,0c-0.5-1.7-1-3.4-1.6-5c0,1.7,0,3.4,0,5c-0.4,0-0.8,0-1.2,0C180,14.6,180,11.8,180,9z"/>
	<path id="XMLID_120_" class="st0" d="M128.6,17.4c0.5-2.8,1-5.5,1.6-8.3c0.5,0,1.1,0,1.6,0c0.5,2.8,1.1,5.5,1.6,8.3
		c-0.5,0-1,0-1.4,0c-0.1-0.5-0.2-1-0.3-1.5c-0.5,0-1,0-1.5,0c-0.1,0.5-0.2,1-0.2,1.5C129.5,17.4,129,17.4,128.6,17.4 M130.9,11.5
		c-0.2,1.1-0.4,2.2-0.5,3.2c0.4,0,0.7,0,1.1,0C131.3,13.6,131.1,12.5,130.9,11.5z"/>
	<path id="XMLID_119_" class="st0" d="M137.8,9.1c1.1,0,2.2,0,3.3,0c0,0.4,0,0.8,0,1.2c-0.6,0-1.2,0-1.9,0c0,0.8,0,1.6,0,2.4
		c0.5,0,0.9,0,1.4,0c0,0.4,0,0.8,0,1.1c-0.5,0-0.9,0-1.4,0c0,1.2,0,2.4,0,3.7c-0.5,0-0.9,0-1.4,0C137.8,14.6,137.8,11.8,137.8,9.1z"
		/>
	<path id="XMLID_116_" class="st0" d="M146.6,9.1c1.1,0.1,2.2-0.2,3.2,0.3c1,0.6,0.7,2,0.7,2.9c0,0.7-0.5,1.2-1.1,1.4
		c0.4,1.2,0.9,2.5,1.3,3.7c-0.5,0-1,0-1.5,0c-0.4-1.2-0.8-2.5-1.3-3.7c0,1.2,0,2.5,0,3.7c-0.5,0-0.9,0-1.4,0
		C146.5,14.6,146.5,11.8,146.6,9.1 M148,10.2c0,0.9,0,1.7,0,2.6c0.4-0.1,0.9,0.1,1.1-0.4c0.1-0.6,0.1-1.3,0-1.9
		C148.9,10.1,148.3,10.2,148,10.2z"/>
	<path id="XMLID_113_" class="st0" d="M151.3,9.1c1,0,1.9-0.1,2.9,0.1c0.9,0.2,1.3,1.1,1.3,1.9c0,1.4,0,2.9,0,4.3
		c0,0.8-0.4,1.7-1.3,1.9c-0.9,0.2-1.9,0-2.9,0.1C151.3,14.6,151.3,11.8,151.3,9.1 M152.7,10.2c0,2,0,4,0,6c0.5,0,1.3,0.1,1.3-0.6
		c0.1-1.6,0.1-3.2,0-4.8C154,10.1,153.2,10.2,152.7,10.2z"/>
	<path id="XMLID_110_" class="st0" d="M157.4,9c0.5,0,1.1,0,1.6,0c0.5,2.8,1.1,5.5,1.6,8.3c-0.5,0-1,0-1.4,0c-0.1-0.5-0.2-1-0.3-1.5
		c-0.5,0-1,0-1.5,0c-0.1,0.5-0.2,1-0.2,1.5c-0.4,0-0.9,0-1.3,0C156.3,14.6,156.9,11.8,157.4,9 M157.6,14.7c0.4,0,0.7,0,1.1,0
		c-0.2-1.1-0.4-2.2-0.5-3.2C157.9,12.6,157.8,13.6,157.6,14.7z"/>
	<path id="XMLID_106_" class="st0" d="M161.1,9.1c1,0.1,2.1-0.2,3.1,0.2c0.9,0.4,0.8,1.6,0.8,2.5c0,0.5-0.2,1-0.7,1.3
		c0.6,0.2,0.9,0.8,0.9,1.4c0,0.9,0.2,2.2-0.8,2.7c-1,0.4-2.2,0.1-3.3,0.2C161.1,14.6,161.1,11.8,161.1,9.1 M162.5,10.2
		c0,0.8,0,1.6,0,2.4c0.4-0.1,0.9,0.1,1.1-0.4c0.1-0.5,0.1-1.1,0-1.6C163.5,10.1,162.9,10.2,162.5,10.2 M162.5,13.6
		c0,0.9,0,1.7,0,2.6c0.4-0.1,1,0.1,1.2-0.4c0.1-0.6,0.1-1.3,0-1.9C163.6,13.5,162.9,13.7,162.5,13.6z"/>
	<path id="XMLID_105_" class="st0" d="M165.9,9.1c0.5,0,0.9,0,1.4,0c0,2.4,0,4.8,0,7.2c0.6,0,1.1,0,1.7,0c0,0.4,0,0.8,0,1.2
		c-1,0-2.1,0-3.1,0C165.9,14.6,165.9,11.8,165.9,9.1z"/>
	<path id="XMLID_104_" class="st0" d="M169.6,9.1c1.1,0,2.2,0,3.4,0c0,0.4,0,0.8,0,1.2c-0.6,0-1.3,0-1.9,0c0,0.8,0,1.6,0,2.4
		c0.5,0,0.9,0,1.4,0c0,0.4,0,0.8,0,1.1c-0.5,0-0.9,0-1.4,0c0,0.8,0,1.7,0,2.5c0.6,0,1.3,0,1.9,0c0,0.4,0,0.8,0,1.2
		c-1.1,0-2.2,0-3.4,0C169.6,14.6,169.6,11.8,169.6,9.1z"/>
	<path id="XMLID_101_" class="st0" d="M176.3,9.1c0.5,0,1.1,0,1.6,0c0.5,2.8,1.1,5.5,1.6,8.3c-0.5,0-1,0-1.5,0
		c-0.1-0.5-0.2-1-0.3-1.5c-0.5,0-1,0-1.5,0c-0.1,0.5-0.2,1-0.2,1.5c-0.4,0-0.9,0-1.3,0C175.3,14.6,175.8,11.8,176.3,9.1 M177,11.5
		c-0.2,1.1-0.4,2.2-0.5,3.2c0.4,0,0.7,0,1.1,0C177.4,13.6,177.2,12.6,177,11.5z"/>
	<path id="XMLID_98_" class="st0" d="M184.9,9.1c1,0,1.9-0.1,2.9,0.1c0.8,0.2,1.3,1,1.3,1.8c0,1.4,0,2.9,0,4.3c0,0.8-0.3,1.7-1.1,2
		c-1,0.3-2,0.1-3.1,0.1C184.9,14.6,184.9,11.8,184.9,9.1 M186.3,10.2c0,2,0,4,0,6c0.5,0,1.3,0.1,1.3-0.6c0.1-1.6,0-3.2,0-4.8
		C187.6,10.1,186.8,10.2,186.3,10.2z"/>
	<path id="XMLID_97_" class="st0" d="M128.9,21.9c0.4-1.4,2.3-1.7,3.3-0.9c0.8,0.7,0.6,1.8,0.6,2.7c-0.4,0-0.9,0-1.3,0
		c0-0.5,0.1-1.1-0.1-1.6c-0.3-0.5-1.3-0.3-1.2,0.4c0,1.6,0,3.2,0,4.8c-0.1,0.7,0.9,1,1.3,0.4c0.2-0.7,0.1-1.4,0.1-2
		c0.4,0,0.9,0,1.3,0c-0.1,1,0.2,2.2-0.5,3c-0.8,0.7-2.1,0.7-2.9,0c-0.8-0.8-0.6-2.1-0.7-3.1C128.9,24.3,128.7,23.1,128.9,21.9z"/>
	<path id="XMLID_96_" class="st0" d="M170.3,22.5c-0.1-1.8,2.4-2.5,3.6-1.5c0.6,0.6,0.5,1.6,0.5,2.4c-0.4,0-0.9,0-1.3,0
		c0-0.4,0.1-0.9-0.1-1.4c-0.3-0.5-1.3-0.3-1.3,0.3c-0.1,1.6,0,3.2,0,4.8c-0.1,0.7,0.9,0.9,1.2,0.4c0.2-0.6,0.1-1.3,0.1-2
		c-0.2,0-0.4,0-0.7,0c0-0.4,0-0.7,0-1.1c0.7,0,1.3,0,2,0c0,1.5,0,3,0,4.4c-0.3,0-0.7,0-1,0c0-0.2,0-0.5,0-0.7
		c-0.3,0.6-1,0.9-1.6,0.8c-1-0.1-1.5-1.1-1.5-2C170.3,25.6,170.3,24,170.3,22.5z"/>
	<path id="XMLID_95_" class="st0" d="M133.6,20.7c0.5,0,0.9,0,1.4,0c0,2.4,0,4.8,0,7.2c0.6,0,1.1,0,1.7,0c0,0.4,0,0.8,0,1.2
		c-1,0-2.1,0-3.1,0C133.6,26.2,133.6,23.4,133.6,20.7z"/>
	<path id="XMLID_94_" class="st0" d="M137.3,20.7c1.1,0,2.2,0,3.3,0c0,0.4,0,0.8,0,1.2c-0.6,0-1.3,0-1.9,0c0,0.8,0,1.6,0,2.4
		c0.5,0,0.9,0,1.4,0c0,0.4,0,0.8,0,1.1c-0.5,0-0.9,0-1.4,0c0,0.8,0,1.7,0,2.5c0.6,0,1.3,0,1.9,0c0,0.4,0,0.8,0,1.2
		c-1.1,0-2.2,0-3.3,0C137.3,26.2,137.3,23.4,137.3,20.7z"/>
	<path id="XMLID_91_" class="st0" d="M142.7,20.7c0.5,0,1.1,0,1.6,0c0.5,2.8,1.1,5.5,1.6,8.3c-0.5,0-1,0-1.5,0
		c-0.1-0.5-0.2-1-0.3-1.5c-0.5,0-1,0-1.5,0c-0.1,0.5-0.2,1-0.2,1.5c-0.4,0-0.9,0-1.3,0C141.7,26.2,142.2,23.4,142.7,20.7
		 M143.5,23.2c-0.2,1-0.4,2.1-0.5,3.1c0.4,0,0.7,0,1.1,0C143.8,25.3,143.7,24.2,143.5,23.2z"/>
	<path id="XMLID_90_" class="st0" d="M146.5,20.7c0.5,0,0.9,0,1.4,0c0.5,1.5,1,3.1,1.5,4.6c0-1.5,0-3.1,0-4.6c0.4,0,0.8,0,1.2,0
		c0,2.8,0,5.6,0,8.3c-0.4,0-0.8,0-1.2,0c-0.5-1.7-1.1-3.4-1.6-5.1c0,1.7,0,3.4,0,5.1c-0.4,0-0.8,0-1.2,0
		C146.5,26.2,146.5,23.4,146.5,20.7z"/>
	<path id="XMLID_89_" class="st0" d="M152.6,20.7c1.1,0,2.2,0,3.4,0c0,0.4,0,0.8,0,1.2c-0.6,0-1.3,0-1.9,0c0,0.8,0,1.6,0,2.4
		c0.5,0,0.9,0,1.4,0c0,0.4,0,0.8,0,1.1c-0.5,0-0.9,0-1.4,0c0,0.8,0,1.7,0,2.5c0.6,0,1.3,0,1.9,0c0,0.4,0,0.8,0,1.2
		c-1.1,0-2.2,0-3.4,0C152.6,26.2,152.6,23.4,152.6,20.7z"/>
	<path id="XMLID_88_" class="st0" d="M156.7,20.7c0.5,0,0.9,0,1.4,0c0.5,1.5,0.9,3.1,1.5,4.6c0-1.5,0-3,0-4.6c0.4,0,0.8,0,1.2,0
		c0,2.8,0,5.6,0,8.3c-0.4,0-0.8,0-1.2,0c-0.5-1.7-1.1-3.4-1.6-5.1c0,1.7,0,3.4,0,5.1c-0.4,0-0.8,0-1.2,0
		C156.7,26.2,156.7,23.4,156.7,20.7z"/>
	<path id="XMLID_87_" class="st0" d="M161.5,20.7c1.1,0,2.2,0,3.3,0c0,0.4,0,0.8,0,1.2c-0.6,0-1.3,0-1.9,0c0,0.8,0,1.6,0,2.4
		c0.5,0,0.9,0,1.4,0c0,0.4,0,0.8,0,1.1c-0.5,0-0.9,0-1.4,0c0,0.8,0,1.7,0,2.5c0.6,0,1.3,0,1.9,0c0,0.4,0,0.8,0,1.2
		c-1.1,0-2.2,0-3.3,0C161.5,26.2,161.5,23.4,161.5,20.7z"/>
	<path id="XMLID_84_" class="st0" d="M165.6,20.7c1.1,0.1,2.2-0.2,3.2,0.3c1,0.6,0.7,1.9,0.7,2.9c0,0.7-0.5,1.2-1.1,1.4
		c0.4,1.2,0.9,2.5,1.3,3.7c-0.5,0-1,0-1.5,0c-0.4-1.2-0.8-2.5-1.3-3.7c0,1.2,0,2.5,0,3.7c-0.5,0-0.9,0-1.4,0
		C165.6,26.2,165.6,23.4,165.6,20.7 M167,24.4c0.4-0.1,0.9,0.1,1.1-0.4c0.1-0.6,0.1-1.3,0-1.9c-0.1-0.4-0.7-0.3-1.1-0.4
		C167,22.7,167,23.5,167,24.4z"/>
	<path id="XMLID_83_" class="st0" d="M174.6,20.7c0.5,0,1,0,1.5,0c0.3,1,0.6,2.1,0.8,3.1c0.3-1,0.6-2.1,0.8-3.1c0.5,0,0.9,0,1.4,0
		c-0.5,1.7-1,3.3-1.5,5c-0.1,1.1,0,2.2-0.1,3.3c-0.5,0-0.9,0-1.4,0c0-1.1,0.1-2.2-0.1-3.3C175.6,24,175.1,22.3,174.6,20.7z"/>
	<path id="XMLID_82_" class="st0" d="M149.8,37.7c0.7-0.2,1.5,0.5,1.4,1.2c0,2.1,0.1,4.3,0,6.4c-0.2,1.2-2.1,1.2-2.3,0
		c-0.1-2.1,0-4.3,0-6.4C148.8,38.3,149.2,37.8,149.8,37.7z"/>
	<path id="XMLID_81_" class="st0" d="M137.7,40.9c0.6-0.2,1.3,0,1.5,0.6c1,1.8,2.1,3.6,3.1,5.5c0.5,1.2-1.3,2.2-2.1,1.1
		c-1.1-1.8-2.1-3.6-3.2-5.4C136.7,42.1,137,41.2,137.7,40.9z"/>
	<path id="XMLID_80_" class="st0" d="M161.4,40.9c1-0.5,2.1,0.6,1.6,1.6c-1,1.8-2.1,3.6-3.1,5.4c-0.3,0.6-1.2,0.8-1.7,0.4
		c-0.5-0.3-0.7-1.1-0.3-1.6c1-1.7,1.9-3.4,2.9-5C160.9,41.4,161.1,41.1,161.4,40.9z"/>
	<path id="XMLID_76_" class="st0" d="M148.8,48.5c6.1-0.6,12.3,3.1,14.6,8.7c1.3,3.1,1.5,6.7,0.5,10c-1.1,3.7-3.8,6.9-7.3,8.6
		c-3.8,1.9-8.4,2-12.2,0.4c-3.5-1.5-6.3-4.4-7.7-7.9c-1.3-3.2-1.3-6.8-0.2-10C138.1,52.9,143.2,48.9,148.8,48.5 M149.9,53.2
		c-0.5,0.1-1,0.6-0.9,1.1c0,1.6,0,3.1,0,4.7c0,0.6,0.5,1.1,1,1.1c0.6,0,1.1-0.5,1.1-1.1c0-1.6,0-3.1,0-4.7
		C151.1,53.7,150.5,53.1,149.9,53.2 M142.6,62.2c-0.2,2.3,0.8,4.6,2.5,6.1c1.7,1.6,4.3,2.3,6.6,1.7c2.3-0.5,4.3-2.1,5.2-4.2
		c1-2.2,0.9-4.8-0.3-6.9c-0.9-1.6-2.5-2.9-4.3-3.5c0,0.9,0,1.8,0,2.8c2.3,1.1,3.4,4.1,2.3,6.4c-0.9,2.1-3.4,3.4-5.7,2.8
		c-2.3-0.5-4-2.9-3.7-5.2c0.1-1.7,1.2-3.2,2.6-4c0.1-0.9,0-1.8,0-2.8C144.9,56.5,142.7,59.2,142.6,62.2z"/>
	<path id="XMLID_75_" class="st0" d="M170.6,49.7c1.1-0.2,1.8,1.4,0.9,2.1c-1.8,1.1-3.6,2.1-5.4,3.2c-0.7,0.5-1.9,0-1.9-0.9
		c-0.1-0.7,0.5-1.1,1-1.4C167.1,51.7,168.8,50.5,170.6,49.7z"/>
	<path id="XMLID_74_" class="st0" d="M128.8,49.8c0.6-0.3,1.1,0.1,1.6,0.4c1.7,1,3.4,1.9,5,2.9c1,0.8-0.1,2.5-1.2,2
		c-1.7-0.9-3.3-1.9-5-2.8c-0.4-0.3-1-0.5-1.1-1C128,50.7,128.3,50,128.8,49.8z"/>
	<path id="XMLID_73_" class="st0" d="M125.7,61.6c1.8-0.2,3.7,0,5.5-0.1c0.7,0,1.6-0.2,2,0.5c0.6,0.7,0,2-1,1.9c-2.1,0-4.3,0-6.4,0
		C124.8,63.8,124.6,62,125.7,61.6z"/>
	<path id="XMLID_72_" class="st0" d="M167.4,61.6c1.9-0.2,3.8,0,5.7-0.1c0.6,0,1.5-0.1,1.9,0.5c0.6,0.7,0,1.9-0.9,1.9
		c-2.1,0-4.3,0-6.4,0C166.4,63.8,166.2,62,167.4,61.6z"/>
	<path id="XMLID_71_" class="st0" d="M134.3,70.5c1.2-0.5,2.1,1.3,1.1,2c-1.8,1.1-3.6,2.1-5.4,3.2c-0.6,0.4-1.6,0.1-1.8-0.6
		c-0.2-0.6,0.1-1.2,0.6-1.5C130.6,72.6,132.4,71.5,134.3,70.5z"/>
	<path id="XMLID_70_" class="st0" d="M165,70.5c0.4-0.2,0.8-0.1,1.2,0.2c1.7,1,3.4,2,5.1,2.9c0.6,0.3,0.8,1.2,0.4,1.7
		c-0.3,0.5-1.1,0.7-1.6,0.4c-1.8-1-3.6-2-5.4-3.1C164,72.1,164.1,70.8,165,70.5z"/>
	<path id="XMLID_69_" class="st0" d="M140.9,77c1-0.3,1.9,0.9,1.3,1.7c-1,1.8-2,3.5-3,5.3c-0.3,0.5-0.9,0.8-1.5,0.6
		c-0.7-0.2-1-1.1-0.7-1.7c1-1.7,2-3.4,2.9-5.1C140.2,77.5,140.5,77.1,140.9,77z"/>
	<path id="XMLID_68_" class="st0" d="M158.5,77c0.5-0.2,1.1,0,1.4,0.5c1,1.8,2,3.5,3.1,5.3c0.3,0.5,0.2,1.3-0.3,1.6
		c-0.6,0.4-1.4,0.2-1.7-0.5c-1-1.8-2-3.5-3-5.3C157.5,78.1,157.8,77.2,158.5,77z"/>
	<path id="XMLID_67_" class="st0" d="M149.8,79.3c0.7-0.2,1.5,0.5,1.4,1.2c0,2,0,4,0,6c0.1,0.6-0.4,1.2-1,1.3
		c-0.7,0.1-1.4-0.4-1.4-1.1c0-2,0-4.1,0-6.1C148.8,80,149.2,79.5,149.8,79.3z"/>
</g>
</svg>
