<?xml version="1.0" encoding="utf-8"?>
<!-- Generator: Adobe Illustrator 19.0.0, SVG Export Plug-In . SVG Version: 6.00 Build 0)  -->
<svg version="1.1" id="Layer_1" xmlns="http://www.w3.org/2000/svg" xmlns:xlink="http://www.w3.org/1999/xlink" x="0px" y="0px"
	 viewBox="-155 247 300 300" style="enable-background:new -155 247 300 300;" xml:space="preserve">
<style type="text/css">
	.st0{fill:#8F1838;}
	.st1{fill:#FFFFFF;}
</style>
<g>
	<rect x="-155" y="247" class="st0" width="300" height="300"/>
	<path class="st1" d="M-121.8,278.7c2.1-3.4,6.2-5,10.1-5.1c4.5-0.3,9.6,0.6,12.6,4.3c3.3,4,3.1,9.5,2.9,14.4
		c-0.2,3.5-2.4,6.8-5.5,8.4c4.5,1.9,6.7,6.9,6.5,11.6c0,6.4,0.9,14-4.3,18.8c-5.6,4.6-14.4,4.6-20.3,0.8c-5.7-4.2-5.3-12-5.2-18.4
		c-0.4-5,1.5-10.6,6.4-12.7c-3.1-1.7-5.1-4.9-5.3-8.4C-124.1,287.7-124.4,282.7-121.8,278.7 M-112.3,281.9c-2,0.9-2.4,3.3-2.4,5.3
		c0.1,2.4-0.3,4.9,0.5,7.2c1.2,3.6,7.3,3.4,8.2-0.3c0.6-3,0.4-6.1,0.2-9.2C-106.2,281.9-109.8,280.8-112.3,281.9 M-111.9,304.6
		c-3.1,1.1-3.2,4.9-3.1,7.6c0.2,3.8-0.5,7.7,0.6,11.4c1.4,4,8.3,3.4,8.9-0.9c0.5-4.6,0.3-9.3,0.1-13.9
		C-105.5,305.5-109,303.5-111.9,304.6z"/>
	<path class="st1" d="M-58.9,274.1c3.3,0,6.7,0,10,0c0,1.1,0,2.3,0,3.5c-1.9,0-3.9,0-5.8,0c0,2.4,0,4.7,0,7.1c1.4,0,2.8,0,4.2,0
		c0,1.1,0,2.3,0,3.4c-1.4,0-2.8,0-4.1,0c0,2.5,0,5,0,7.5c1.9,0,3.9,0,5.8,0c0,1.1,0,2.3,0,3.5c-3.3,0-6.7,0-10,0
		C-58.9,290.8-58.9,282.5-58.9,274.1z"/>
	<path class="st1" d="M-46.9,278.6c0.6-4.8,7.2-6.1,10.5-3.3c2,2.1,1.5,5.2,1.5,7.8c-1.3,0-2.6,0-3.8,0c-0.1-1.6,0.2-3.3-0.3-4.8
		c-0.9-1.7-3.9-0.8-3.8,1.1c-0.1,4.8-0.1,9.6,0,14.4c-0.2,2.1,3.1,2.8,3.9,0.9c0.4-1.9,0.1-3.9,0.2-5.9c1.3,0,2.6,0,3.8,0
		c-0.1,2.8,0.5,5.9-1.1,8.4c-1.7,2.4-5.2,2.5-7.7,1.6c-2.6-1-3.6-4-3.5-6.6C-47,287.8-47.3,283.1-46.9,278.6z"/>
	<path class="st1" d="M-11.8,274.1c1.2,0,2.4,0,3.6,0c0,8.3,0,16.6,0,24.9c-1.2,0-2.5,0-3.7,0c-1.6-5.1-3.2-10.3-4.9-15.5
		c0,5.2,0,10.3,0,15.4c-1.2,0-2.4,0-3.6,0c0-8.3,0-16.6,0-24.9c1.4,0,2.7,0,4.1,0c1.5,4.7,3,9.4,4.5,14.1
		C-11.8,283.5-11.8,278.8-11.8,274.1z"/>
	<path class="st1" d="M-6.4,274.1c3.7,0,7.4,0,11.1,0c0,1.1,0,2.3,0,3.5c-1.1,0-2.3,0-3.4,0c0,7.2,0,14.3,0,21.5c-1.4,0-2.8,0-4.3,0
		c0-7.2,0-14.3,0-21.5c-1.1,0-2.3,0-3.4,0C-6.4,276.4-6.4,275.3-6.4,274.1z"/>
	<path class="st1" d="M35,274.1c3.1-0.9,7.2,0.4,8,3.8c0.8,3.6,0.2,7.2,0.4,10.9c-0.1,2.6,0.4,5.5-1,7.9c-2.6,4.3-10.7,3.4-11.5-1.9
		c-0.4-4.7-0.1-9.5-0.2-14.2C30.5,277.8,32,274.7,35,274.1 M36.1,277.6c-1.5,0.6-1.2,2.5-1.3,3.8c0.1,4.3-0.2,8.6,0.1,12.8
		c0.2,2.2,3.9,2.2,4-0.1c0.2-4.8,0.1-9.6,0.1-14.4C39.3,278.2,37.6,276.9,36.1,277.6z"/>
	<path class="st1" d="M59.8,274.1c1.4,0,2.8,0,4.2,0c0,3.6,0,7.1,0,10.7c1.5-3.6,3-7.1,4.5-10.7c1.4,0,2.8,0,4.2,0
		c-1.6,3.7-3.2,7.5-4.9,11.2c1.6,4.6,3.3,9.1,4.9,13.7c-1.5,0-3,0-4.4,0c-1.4-3.9-2.8-7.9-4.3-11.8c-0.1,3.9,0,7.9,0,11.8
		c-1.4,0-2.8,0-4.2,0C59.8,290.8,59.8,282.5,59.8,274.1z"/>
	<path class="st1" d="M102.1,274.1c1.2,0,2.3,0,3.5,0c0,8.3,0,16.6,0,24.9c-1.2,0-2.5,0-3.7,0c-1.6-5.1-3.2-10.3-4.9-15.4
		c0,5.1,0,10.3,0,15.4c-1.2,0-2.4,0-3.6,0c0-8.3,0-16.6,0-24.9c1.4,0,2.7,0,4.1,0c1.5,4.7,2.9,9.4,4.5,14.1
		C102.1,283.5,102.1,278.8,102.1,274.1z"/>
	<path class="st1" d="M-73.8,274.2c3,0.1,6-0.3,8.9,0.4c2.4,0.7,3.6,3.3,3.6,5.6c0.1,4.3,0.1,8.6,0,13c0,2.5-1.4,5.2-4,5.7
		c-2.8,0.5-5.7,0.1-8.6,0.2C-73.8,290.8-73.8,282.5-73.8,274.2 M-69.6,277.6c0,6,0,12.1,0,18.1c1.5,0,3.8,0.2,4-1.8
		c0.2-4.8,0.2-9.7,0-14.5C-65.7,277.4-68.1,277.6-69.6,277.6z"/>
	<path class="st1" d="M-32.7,274.1c3.3,0,6.7,0,10,0c0,1.2,0,2.3,0,3.5c-1.9,0-3.9,0-5.8,0c0,2.4,0,4.7,0,7.1c1.4,0,2.8,0,4.1,0
		c0,1.1,0,2.3,0,3.4c-1.4,0-2.8,0-4.1,0c0,2.5,0,5,0,7.5c1.9,0,3.9,0,5.8,0c0,1.2,0,2.3,0,3.5c-3.3,0-6.7,0-10,0
		C-32.7,290.8-32.7,282.5-32.7,274.1z"/>
	<path class="st1" d="M9.9,274.1c1.4,0,2.7,0,4.1,0c0.7,5.2,1.3,10.4,1.9,15.7c0.8-5.2,1.4-10.4,2.1-15.7c1.1,0,2.3,0,3.4,0
		c0.8,5.2,1.5,10.4,2.3,15.6c0.7-5.2,1.3-10.4,1.9-15.6c1.2,0,2.4,0,3.6,0c-1.1,8.3-2.2,16.6-3.2,24.9c-1.3,0-2.7,0-4,0
		c-0.8-5.1-1.6-10.1-2.5-15.2c-0.8,5-1.6,10.1-2.3,15.2c-1.3,0-2.6,0-4,0C12.1,290.8,11,282.5,9.9,274.1z"/>
	<path class="st1" d="M45.7,274.2c3.2,0.2,6.6-0.6,9.6,0.8c2.9,1.7,2.1,5.6,2.2,8.4c0.2,2.1-1.3,3.9-3.3,4.6c1.3,3.7,2.6,7.4,4,11.2
		c-1.5,0-3,0-4.4,0c-1.3-3.8-2.6-7.5-3.9-11.3c0,3.8,0,7.5,0,11.3c-1.4,0-2.8,0-4.2,0C45.7,290.8,45.7,282.5,45.7,274.2 M49.9,277.5
		c0,2.6,0,5.2,0,7.9c1.1-0.1,2.6,0.2,3.2-1c0.4-1.7,0.3-3.6,0.1-5.3C53,277.4,51.1,277.7,49.9,277.5z"/>
	<path class="st1" d="M82.2,274.2c1.6,0,3.2,0,4.8,0c1.6,8.3,3.2,16.6,4.7,24.9c-1.4,0-2.9,0-4.3,0c-0.3-1.5-0.5-3-0.8-4.5
		c-1.5,0-2.9,0-4.4,0c-0.2,1.5-0.5,3-0.7,4.5c-1.3,0-2.7,0-4,0C79.1,290.8,80.7,282.5,82.2,274.2 M82.8,291.1c1.1,0,2.2,0,3.3,0
		c-0.6-3.2-1-6.5-1.6-9.7C83.8,284.7,83.4,287.9,82.8,291.1z"/>
	<path class="st1" d="M108,274.1c2.9,0.1,5.9-0.3,8.8,0.3c2.5,0.6,3.7,3.3,3.7,5.7c0,4.3,0,8.6,0,12.9c0,2.5-1.4,5.2-4,5.7
		c-2.8,0.5-5.6,0.1-8.5,0.2C108,290.8,108,282.5,108,274.1 M112.1,277.6c0,6,0,12.1,0,18.1c1.5,0,3.8,0.2,4-1.8
		c0.1-4.8,0.1-9.6,0-14.5C116,277.4,113.6,277.6,112.1,277.6z"/>
	<path class="st1" d="M-61.7,313.3c0.7-4.7,7.2-5.9,10.4-3.1c2,2.1,1.5,5.2,1.5,7.8c-1.3,0-2.6,0-3.8,0c-0.1-1.6,0.2-3.3-0.3-4.8
		c-0.9-1.6-3.8-0.9-3.8,1c-0.1,4.9-0.1,9.9,0,14.8c0.1,2,3.5,2.4,3.9,0.4c0.3-1.9,0.1-3.8,0.1-5.7c1.3,0,2.6,0,3.8,0
		c-0.1,2.8,0.5,5.9-1,8.4c-1.7,2.5-5.4,2.6-8,1.5c-2.6-1.2-3.3-4.3-3.2-6.9C-61.8,322.2-62.2,317.7-61.7,313.3z"/>
	<path class="st1" d="M-42.8,308.9c3.5-0.9,7.6,1.3,7.8,5.1c0.3,4,0,8,0.1,11.9c0,2.1,0,4.5-1.4,6.3c-3,3.6-10.4,2.5-11.1-2.6
		c-0.5-4.7-0.1-9.5-0.2-14.3C-47.7,312.4-45.9,309.2-42.8,308.9 M-42,312.4c-1.5,0.5-1.3,2.5-1.4,3.8c0.1,4.3-0.1,8.6,0.1,12.9
		c0.2,2.3,3.9,2.2,4.1,0c0.2-4.8,0.1-9.6,0.1-14.4C-39,313-40.5,311.8-42,312.4z"/>
	<path class="st1" d="M-13.5,308.9c3-0.7,6.8,0.4,7.7,3.7c0.8,3.2,0.3,6.6,0.4,9.8c-0.1,2.9,0.5,6-0.7,8.7c-2.2,4.8-10.8,4-11.7-1.4
		c-0.6-4.8-0.1-9.6-0.2-14.4C-18.2,312.5-16.5,309.4-13.5,308.9 M-12.3,312.3c-1.2,0.3-1.5,1.6-1.5,2.6c0,4.2,0,8.3,0,12.5
		c0,1.1,0,2.5,1.1,3c1.3,0.7,3.2-0.3,3.1-1.8c0.1-4.7,0.1-9.4,0-14.1C-9.4,313.1-10.9,311.9-12.3,312.3z"/>
	<path class="st1" d="M25.1,309.1c2.4-0.7,5.4-0.6,7.2,1.4c1.6,2.1,1.1,5,1.2,7.5c-1.3,0-2.6,0-3.8,0c-0.1-1.6,0.3-3.3-0.3-4.9
		c-1-1.6-3.8-0.8-3.7,1.2c-0.1,4.8-0.1,9.6,0,14.4c-0.2,2,2.8,2.9,3.8,1.2c0.6-2,0.2-4.1,0.3-6.1c1.3,0,2.6,0,3.8,0
		c-0.1,2.7,0.5,5.7-0.9,8.2c-1.6,2.5-5.1,2.7-7.7,1.9c-2.5-0.8-3.6-3.5-3.6-5.9c0-4.3-0.1-8.6,0-12.9
		C21.4,312.5,22.6,309.8,25.1,309.1z"/>
	<path class="st1" d="M39.8,313.6c0.5-4.9,7.1-6.2,10.5-3.5c1.9,1.8,1.6,4.7,1.6,7.1c-1.3,0-2.6,0-3.8,0c-0.1-1.4,0.2-2.9-0.4-4.2
		c-1-1.5-3.9-0.8-3.8,1.2c-0.1,4.8-0.1,9.6,0,14.4c-0.2,2,3,2.9,3.8,1c0.5-1.9,0.2-3.8,0.3-5.7c-0.7,0-1.3,0-2,0c0-1.1,0-2.2,0-3.3
		c2,0,4,0,6,0c0,4.4,0,8.9,0,13.3c-1,0-2,0-3.1,0c0-0.8,0-1.6,0.1-2.3c-0.9,2-3,3.1-5.1,2.5c-2.9-0.4-4.3-3.6-4.2-6.3
		C39.7,323.1,39.5,318.3,39.8,313.6z"/>
	<path class="st1" d="M72.9,308.9c2.2-0.4,4.8-0.2,6.4,1.4c1.4,1.4,1.8,3.5,1.8,5.4c0,3.9,0,7.8,0,11.7c0,1.9-0.4,3.9-1.9,5.3
		c-3.3,2.9-9.8,1.7-10.6-3.1c-0.5-4.8-0.1-9.6-0.2-14.3C68.2,312.5,69.9,309.4,72.9,308.9 M74,312.3c-1.3,0.4-1.5,1.9-1.4,3
		c0,4,0,8.1,0,12.1c0,1.1,0.1,2.7,1.4,3.1c1.3,0.5,2.9-0.5,2.8-1.9c0.1-4.7,0-9.4,0-14.1C77,313,75.5,311.8,74,312.3z"/>
	<path class="st1" d="M-73.8,309c3.3,0,6.7,0,10,0c0,1.1,0,2.3,0,3.4c-1.9,0-3.9,0-5.8,0c0,2.4,0,4.7,0,7.1c1.4,0,2.8,0,4.1,0
		c0,1.1,0,2.3,0,3.4c-1.4,0-2.8,0-4.1,0c0,2.5,0,5,0,7.5c1.9,0,3.9,0,5.8,0c0,1.1,0,2.3,0,3.4c-3.3,0-6.7,0-10,0
		C-73.8,325.6-73.8,317.3-73.8,309z"/>
	<path class="st1" d="M-32.5,309c1.4,0,2.8,0,4.2,0c1.5,4.7,2.9,9.4,4.5,14.1c0-4.7,0-9.4,0-14.1c1.2,0,2.4,0,3.5,0
		c0,8.3,0,16.6,0,24.9c-1.2,0-2.5,0-3.7,0c-1.6-5.1-3.2-10.3-4.9-15.4c-0.1,5.1,0,10.2,0,15.4c-1.2,0-2.4,0-3.6,0
		C-32.5,325.6-32.5,317.3-32.5,309z"/>
	<path class="st1" d="M-3,309c1.6,0,3.3,0,4.9,0c0.9,4.6,1.8,9.3,2.7,13.9c0.9-4.6,1.6-9.3,2.4-13.9c1.8,0,3.5,0,5.3,0
		c0,8.3,0,16.6,0,24.9c-1.3,0-2.6,0-3.8,0c0-5.4,0-10.8,0-16.2c-1,5.4-1.9,10.8-2.9,16.2c-0.7,0-1.3,0-2,0c-1.1-5.3-2-10.7-3.1-16
		c-0.1,5.3,0,10.7,0,16c-1.2,0-2.3,0-3.5,0C-3,325.6-3,317.3-3,309z"/>
	<path class="st1" d="M14.7,309c1.4,0,2.8,0,4.2,0c0,8.3,0,16.6,0,24.9c-1.4,0-2.8,0-4.2,0C14.7,325.6,14.7,317.3,14.7,309z"/>
	<path class="st1" d="M54.2,309c3.2,0.2,6.6-0.6,9.6,0.7c3,1.8,2.2,5.8,2.2,8.8c0.1,2-1.4,3.6-3.2,4.2c1.3,3.7,2.6,7.5,4,11.2
		c-1.5,0-3,0-4.4,0c-1.3-3.8-2.6-7.5-3.9-11.3c0,3.8,0,7.5,0,11.3c-1.4,0-2.8,0-4.2,0C54.2,325.6,54.2,317.3,54.2,309 M58.5,312.4
		c0,2.6,0,5.2,0,7.9c1.1-0.2,2.7,0.2,3.2-1.1c0.4-1.7,0.3-3.6,0.1-5.3S59.6,312.5,58.5,312.4z"/>
	<path class="st1" d="M82.5,309c1.4,0,2.7,0,4.1,0c0.7,5.2,1.2,10.4,2,15.6c0.7-5.2,1.4-10.4,2.1-15.6c1.1,0,2.3,0,3.4,0
		c0.8,5.2,1.5,10.4,2.3,15.6c0.7-5.2,1.3-10.4,1.9-15.6c1.2,0,2.4,0,3.5,0c-1.1,8.3-2.1,16.6-3.2,24.9c-1.3,0-2.7,0-4,0
		c-0.8-5.1-1.6-10.2-2.5-15.3c-0.8,5.1-1.6,10.2-2.4,15.3c-1.3,0-2.6,0-3.9,0C84.7,325.6,83.6,317.3,82.5,309z"/>
	<path class="st1" d="M103.1,309c3.7,0,7.4,0,11.1,0c0,1.1,0,2.3,0,3.4c-1.1,0-2.3,0-3.4,0c0,7.2,0,14.3,0,21.5c-1.4,0-2.9,0-4.3,0
		c0-7.2,0-14.3,0-21.5c-1.1,0-2.3,0-3.4,0C103.1,311.3,103.1,310.2,103.1,309z"/>
	<path class="st1" d="M116.2,309c1.4,0,2.8,0,4.2,0c0,3.5,0,7,0,10.6c1.3,0,2.6,0,4,0c0-3.5,0-7,0-10.5c1.4,0,2.8,0,4.3,0
		c0,8.3,0,16.6,0,24.9c-1.4,0-2.8,0-4.3,0c0-3.7,0-7.3,0-11c-1.3,0-2.6,0-4,0c0,3.7,0,7.3,0,11c-1.4,0-2.8,0-4.2,0
		C116.2,325.6,116.2,317.3,116.2,309z"/>
	<path class="st1" d="M39.3,364.6c7.9-1.8,15.9-3.6,23.8-5.4c0.7-0.3,1.9,0,1.5,1.1c-1.5,7.7-3.3,15.3-4.9,23
		c-0.1,0.7-0.5,1.8-1.3,1.3c-2.1-1.7-3.8-3.8-5.7-5.6c-19.9,19.8-39.6,39.8-59.6,59.4c-8.3-8-16.3-16.3-24.5-24.4
		C-44.3,426.8-57,439.8-70,452.4c-2.5-2.5-5.1-4.8-7.3-7.5c15.3-15.3,30.5-30.7,45.9-45.9c8.3,8,16.3,16.3,24.6,24.4
		c17.4-17.3,34.7-34.7,52-52C43.3,369,40.1,367.5,39.3,364.6z"/>
	<path class="st1" d="M51.8,394c1.3-0.9,2.1,0.7,1.9,1.8c0,37.1,0,74.3,0,111.4c0.2,1.2-0.9,2.2-2,2c-10.2,0-20.4,0-30.5,0
		c-1.1,0.1-2-0.9-1.8-2c0-26.7,0-53.4,0-80.2c-0.1-1.7,0.9-3.3,2.2-4.4C31.6,413.2,41.6,403.4,51.8,394z"/>
	<path class="st1" d="M-34.5,431.1c1.2-0.8,2,0.8,1.8,1.8c0,24.6,0,49.3,0,73.9c0.2,1.2-0.6,2.5-2,2.4c-10.2,0-20.4,0-30.5,0
		c-1.1,0.1-2.1-0.8-1.9-2c0-14.3,0-28.7,0-43c-0.1-1.9,1.1-3.4,2.5-4.6C-54.6,450.1-44.8,440.4-34.5,431.1z"/>
	<path class="st1" d="M8.6,436.3c0.9-1,2.4-0.3,2.3,1c0.1,23.3,0,46.6,0,69.9c0.2,1.2-0.9,2.2-2.2,2c-10,0-20.1,0-30.1,0
		c-1.2,0.2-2.3-0.8-2.1-2c0-22.9,0-45.8,0-68.8c-0.2-1.5,1.4-2,2.3-0.9c4.9,4.7,9.4,9.7,14.3,14.3C-1.7,446.7,3.3,441.3,8.6,436.3z"
		/>
</g>
</svg>
