<?xml version="1.0" encoding="utf-8"?>
<!-- Generator: Adobe Illustrator 19.0.0, SVG Export Plug-In . SVG Version: 6.00 Build 0)  -->
<svg version="1.1" id="Layer_1" xmlns="http://www.w3.org/2000/svg" xmlns:xlink="http://www.w3.org/1999/xlink" x="0px" y="0px"
	 viewBox="0 0 200 100" style="enable-background:new 0 0 200 100;" xml:space="preserve">
<style type="text/css">
	.st0{fill:#FFFFFF;}
	.st1{fill:#8F1838;}
</style>
<g id="XMLID_1_">
	<g id="XMLID_2_">
		<rect id="XMLID_56_" class="st0" width="100" height="100"/>
		<path id="XMLID_52_" class="st1" d="M11,10.6c0.7-1.1,1.9-1.7,3.1-1.8c1.4-0.1,2.9,0,4,1c1,0.8,1.4,2.2,1.4,3.4
			c0,1,0.1,2.2-0.4,3.1c-0.3,0.7-0.9,1.1-1.5,1.5c1.4,0.6,2.2,2.2,2.2,3.7c0,1.7,0.2,3.6-0.5,5.2c-0.6,1.3-2,2.1-3.4,2.3
			c-1.7,0.2-3.6,0-4.8-1.3c-1.1-1.1-1.3-2.8-1.2-4.3c0-1.3-0.1-2.6,0.4-3.9c0.3-0.8,1-1.4,1.8-1.8c-1.1-0.5-1.7-1.7-1.8-2.8
			C10.3,13.6,10.2,12,11,10.6 M14.5,11.6c-0.8,0.2-1.1,1.1-1,1.8c0,0.8-0.1,1.7,0.2,2.5c0.4,0.8,1.5,0.9,2.2,0.5
			c0.6-0.4,0.6-1.3,0.6-2c0-0.8,0.1-1.6-0.3-2.3C15.9,11.5,15.1,11.4,14.5,11.6 M14.5,19.2c-0.7,0.2-1.1,0.9-1.1,1.6
			c0,1.1,0,2.2,0,3.3c0,0.6,0,1.3,0.4,1.8c0.5,0.6,1.3,0.6,2,0.4c0.6-0.3,0.8-1,0.8-1.7c0-1.1,0-2.3,0-3.4c0-0.6-0.1-1.2-0.5-1.6
			C15.7,19.1,15,19,14.5,19.2z"/>
		<path id="XMLID_51_" class="st1" d="M36.9,9.2c0.8-0.4,1.9-0.4,2.6,0.2c0.7,0.7,0.5,1.7,0.5,2.6c-0.4,0-0.8,0-1.3,0
			c0-0.5,0.1-1.1-0.1-1.6c-0.3-0.6-1.3-0.4-1.3,0.3c0,1.6,0,3.3,0,4.9c0,0.7,1,0.9,1.3,0.3c0.1-0.6,0-1.3,0.1-2c0.4,0,0.8,0,1.3,0
			c-0.1,1,0.2,2.1-0.4,2.9c-0.7,0.7-1.9,0.8-2.7,0.3C36.3,16.8,36,16,36,15.3c0-1.4,0-2.8,0-4.2C36,10.4,36.3,9.6,36.9,9.2z"/>
		<path id="XMLID_48_" class="st1" d="M63.4,9c0.7-0.1,1.4-0.1,2,0.4c0.5,0.4,0.7,1.1,0.7,1.7c0,1.4,0,2.8,0,4.2
			c0,0.7-0.3,1.6-1,1.9c-0.7,0.3-1.5,0.3-2.1,0c-0.7-0.3-1.1-1.2-1-1.9c0-1.5,0-2.9,0-4.4C61.9,10.1,62.5,9.2,63.4,9 M63.7,10.2
			c-0.3,0.1-0.4,0.5-0.4,0.8c0,1.4,0,2.8,0,4.2c0,0.3,0,0.5,0.1,0.7c0.2,0.4,1,0.4,1.2,0c0.1-0.3,0.1-0.6,0.1-0.9c0-1.4,0-2.8,0-4.3
			C64.7,10.3,64.1,10,63.7,10.2z"/>
		<path id="XMLID_45_" class="st1" d="M27.1,9.1c1.1,0.1,2.3-0.2,3.3,0.3c0.6,0.4,0.8,1.2,0.8,1.9c0,1.3,0,2.7,0,4
			c0,0.7-0.2,1.5-0.9,1.9c-1,0.5-2.2,0.2-3.3,0.3C27.1,14.6,27.1,11.8,27.1,9.1 M28.5,10.2c0,2,0,4,0,6c0.5,0,1.3,0,1.4-0.6
			c0-1.6,0-3.2,0-4.7C29.8,10.2,29,10.2,28.5,10.2z"/>
		<path id="XMLID_44_" class="st1" d="M32,9.1c1.1,0,2.2,0,3.3,0c0,0.4,0,0.8,0,1.1c-0.6,0-1.3,0-1.9,0c0,0.8,0,1.6,0,2.4
			c0.4,0,0.9,0,1.3,0c0.1,0.3,0,0.8,0,1.1c-0.5,0-0.9,0-1.4,0c0,0.8,0,1.7,0,2.5c0.6,0,1.3,0,1.9,0c0,0.4,0,0.8,0,1.1
			c-1.1,0-2.2,0-3.3,0C32,14.6,32,11.8,32,9.1z"/>
		<path id="XMLID_43_" class="st1" d="M40.8,9.1c1.1,0,2.2,0,3.3,0c0,0.4,0,0.8,0,1.1c-0.6,0-1.3,0-1.9,0c0,0.8,0,1.6,0,2.4
			c0.5,0,0.9,0,1.4,0c0,0.4,0,0.8,0,1.1c-0.5,0-0.9,0-1.4,0c0,0.8,0,1.7,0,2.5c0.6,0,1.3,0,1.9,0c0,0.4,0,0.8,0,1.1
			c-1.1,0-2.2,0-3.3,0C40.8,14.6,40.8,11.8,40.8,9.1z"/>
		<path id="XMLID_42_" class="st1" d="M44.9,9.1c0.5,0,0.9,0,1.4,0c0.5,1.6,1,3.1,1.5,4.7c0-1.6,0-3.1,0-4.7c0.4,0,0.8,0,1.2,0
			c0,2.8,0,5.5,0,8.3c-0.4,0-0.8,0-1.2,0c-0.6-1.7-1.1-3.4-1.6-5.1c0,1.7,0,3.4,0,5.1c-0.4,0-0.8,0-1.2,0
			C44.9,14.6,44.9,11.8,44.9,9.1z"/>
		<path id="XMLID_41_" class="st1" d="M49.5,9.1c1.2,0,2.5,0,3.7,0c0,0.4,0,0.8,0,1.1c-0.4,0-0.8,0-1.1,0c0,2.4,0,4.8,0,7.2
			c-0.5,0-0.9,0-1.4,0c0-2.4,0-4.8,0-7.2c-0.4,0-0.8,0-1.1,0C49.5,9.8,49.5,9.4,49.5,9.1z"/>
		<path id="XMLID_40_" class="st1" d="M55,9.1c0.5,0,0.9,0,1.4,0c0.2,1.7,0.4,3.5,0.6,5.2c0.3-1.7,0.5-3.5,0.7-5.2
			c0.4,0,0.8,0,1.1,0c0.3,1.7,0.5,3.5,0.8,5.2c0.2-1.7,0.4-3.5,0.6-5.2c0.4,0,0.8,0,1.2,0c-0.4,2.8-0.7,5.5-1.1,8.3
			c-0.4,0-0.9,0-1.3,0c-0.3-1.7-0.5-3.4-0.8-5.1c-0.3,1.7-0.5,3.4-0.8,5.1c-0.4,0-0.9,0-1.3,0C55.7,14.6,55.3,11.8,55,9.1z"/>
		<path id="XMLID_37_" class="st1" d="M66.9,9.1c0.8,0,1.6,0,2.4,0c0.6,0,1.2,0.4,1.4,1c0.2,0.7,0.1,1.5,0.1,2.2
			c0,0.6-0.5,1.2-1.1,1.3c0.4,1.2,0.9,2.5,1.3,3.7c-0.5,0-1,0-1.5,0c-0.4-1.2-0.8-2.5-1.3-3.7c0,1.2,0,2.5,0,3.7c-0.5,0-0.9,0-1.4,0
			C66.9,14.6,66.9,11.8,66.9,9.1 M68.3,10.2c0,0.9,0,1.7,0,2.6c0.4,0,1,0.1,1.1-0.4c0.1-0.6,0-1.2,0-1.7
			C69.3,10.1,68.7,10.2,68.3,10.2z"/>
		<path id="XMLID_36_" class="st1" d="M71.6,9.1c0.5,0,0.9,0,1.4,0c0,1.2,0,2.4,0,3.6c0.5-1.2,1-2.4,1.5-3.6c0.5,0,0.9,0,1.4,0
			c-0.5,1.2-1.1,2.5-1.6,3.7c0.5,1.5,1.1,3,1.6,4.6c-0.5,0-1,0-1.5,0c-0.5-1.3-1-2.7-1.4-4c0,1.3,0,2.7,0,4c-0.5,0-0.9,0-1.4,0
			C71.6,14.6,71.6,11.8,71.6,9.1z"/>
		<path id="XMLID_33_" class="st1" d="M79.1,9.1c0.5,0,1.1,0,1.6,0c0.5,2.8,1.1,5.5,1.6,8.3c-0.5,0-1,0-1.4,0
			c-0.1-0.5-0.2-1-0.3-1.5c-0.5,0-1,0-1.5,0c-0.1,0.5-0.2,1-0.2,1.5c-0.4,0-0.9,0-1.3,0C78,14.6,78.5,11.8,79.1,9.1 M79.3,14.7
			c0.4,0,0.7,0,1.1,0c-0.2-1.1-0.4-2.2-0.5-3.3C79.6,12.5,79.5,13.6,79.3,14.7z"/>
		<path id="XMLID_32_" class="st1" d="M82.8,9.1c0.5,0,0.9,0,1.4,0c0.5,1.6,1,3.2,1.5,4.7c0-1.6,0-3.2,0-4.7c0.4,0,0.8,0,1.2,0
			c0,2.8,0,5.5,0,8.3c-0.4,0-0.8,0-1.2,0c-0.6-1.7-1.1-3.4-1.6-5.1c0,1.7,0,3.4,0,5.1c-0.4,0-0.8,0-1.2,0
			C82.8,14.6,82.8,11.8,82.8,9.1z"/>
		<path id="XMLID_29_" class="st1" d="M87.7,9.1c0.8-0.1,1.7-0.1,2.6,0c0.9,0.1,1.6,1,1.6,1.8c0,1.5,0,3,0,4.5
			c0,0.8-0.5,1.7-1.4,1.9c-0.9,0.1-1.9,0-2.8,0.1C87.7,14.6,87.6,11.9,87.7,9.1 M89,10.2c0,2,0,4,0,6c0.5,0,1.3,0.1,1.4-0.6
			c0-1.6,0-3.2,0-4.8C90.4,10.2,89.6,10.2,89,10.2z"/>
		<path id="XMLID_28_" class="st1" d="M32.3,20.7c0.8-0.2,1.8-0.2,2.4,0.5c0.5,0.7,0.4,1.6,0.4,2.5c-0.4,0-0.8,0-1.3,0
			c0-0.5,0-1,0-1.5c-0.1-0.6-1-0.6-1.2-0.1c-0.2,0.3-0.1,0.7-0.1,1.1c0,1.4,0,2.8,0,4.2c0,0.7,1.1,0.8,1.3,0.1
			c0.1-0.6,0-1.3,0.1-1.9c0.4,0,0.8,0,1.3,0c-0.1,0.9,0.2,1.9-0.3,2.7c-0.5,0.8-1.7,0.9-2.5,0.6c-0.8-0.2-1.2-1.1-1.2-1.9
			c0-1.5,0-2.9,0-4.4C31,21.8,31.5,20.9,32.3,20.7z"/>
		<path id="XMLID_25_" class="st1" d="M37.3,20.6c0.7-0.1,1.5-0.1,2.1,0.4c0.5,0.4,0.7,1.1,0.7,1.8c0,1.4,0,2.7,0,4.1
			c0,0.7-0.3,1.6-1,1.9c-0.7,0.3-1.6,0.3-2.3-0.1c-0.7-0.4-0.9-1.2-0.9-1.9c0-1.4,0-2.9,0-4.3C35.8,21.7,36.4,20.8,37.3,20.6
			 M37.6,21.8c-0.4,0.2-0.4,0.6-0.4,0.9c0,1.5,0,3.1,0,4.6c0.1,0.8,1.3,0.7,1.4,0c0.1-1.6,0-3.2,0-4.8
			C38.7,21.9,38.1,21.6,37.6,21.8z"/>
		<path id="XMLID_22_" class="st1" d="M47.1,20.7c0.7-0.2,1.6-0.1,2.1,0.4c0.5,0.4,0.7,1.1,0.6,1.8c0,1.3,0,2.6,0,3.9
			c0,0.6-0.1,1.3-0.6,1.8c-1.1,1-3.4,0.6-3.6-1c-0.2-1.6,0-3.2-0.1-4.8C45.6,21.8,46.1,20.8,47.1,20.7 M47.5,21.8
			c-0.4,0.1-0.4,0.6-0.4,1c0,1.5,0,2.9,0,4.4c0,0.4,0.3,0.8,0.7,0.8c0.4,0,0.8-0.4,0.7-0.8c0-1.6,0-3.1,0-4.7
			C48.5,21.9,47.9,21.6,47.5,21.8z"/>
		<path id="XMLID_21_" class="st1" d="M60,20.7c0.8-0.3,1.9-0.2,2.5,0.4c0.5,0.7,0.4,1.7,0.4,2.5c-0.4,0-0.9,0-1.3,0
			c0-0.5,0-1,0-1.5c-0.1-0.6-1-0.6-1.2-0.1c-0.1,0.3-0.1,0.6-0.1,0.9c0,1.4,0,2.8,0,4.3c0,0.7,1.1,0.8,1.3,0.2
			c0.1-0.6,0-1.3,0.1-1.9c0.4,0,0.9,0,1.3,0c0,0.9,0.2,1.9-0.3,2.7c-0.5,0.9-1.7,0.9-2.5,0.7c-0.8-0.2-1.2-1.1-1.2-1.9
			c0-1.4,0-2.9,0-4.3C58.8,21.9,59.1,21,60,20.7z"/>
		<path id="XMLID_20_" class="st1" d="M66.1,20.7c0.8-0.2,1.7-0.2,2.3,0.4c0.6,0.6,0.5,1.5,0.5,2.3c-0.4,0-0.8,0-1.3,0
			c0-0.4,0-0.8,0-1.2c-0.1-0.6-1.1-0.6-1.3-0.1c-0.1,0.4-0.1,0.7-0.1,1.1c0,1.4,0,2.7,0,4.1c0,0.7,1.1,0.8,1.3,0.1
			c0.1-0.6,0-1.2,0-1.8c-0.2,0-0.4,0-0.6,0c0-0.4,0-0.7,0-1.1c0.7,0,1.3,0,2,0c0,1.5,0,3,0,4.4c-0.3,0-0.7,0-1,0c0-0.3,0-0.6,0-0.8
			c-0.3,1-1.8,1.2-2.5,0.5c-0.5-0.5-0.6-1.2-0.6-1.8c0-1.4,0-2.8,0-4.2C64.9,21.8,65.3,21,66.1,20.7z"/>
		<path id="XMLID_17_" class="st1" d="M75.9,20.7c0.7-0.2,1.6-0.1,2.1,0.4c0.5,0.4,0.6,1.1,0.6,1.8c0,1.4,0,2.7,0,4.1
			c0,0.7-0.3,1.5-1,1.9c-0.7,0.3-1.6,0.3-2.3,0c-0.7-0.4-0.9-1.2-0.9-1.9c0-1.4,0-2.9,0-4.3C74.5,21.7,75,20.8,75.9,20.7 M76.3,21.8
			c-0.3,0.1-0.4,0.5-0.4,0.9c0,1.5,0,2.9,0,4.4c0,0.4,0.2,0.8,0.6,0.8c0.4,0.1,0.8-0.3,0.8-0.8c0-1.6,0-3.1,0-4.7
			C77.3,22,76.7,21.6,76.3,21.8z"/>
		<path id="XMLID_16_" class="st1" d="M27.1,20.7c1.1,0,2.2,0,3.3,0c0,0.4,0.1,0.8,0,1.1c-0.6,0-1.3,0-1.9,0c0,0.8,0,1.6,0,2.4
			c0.5,0,0.9,0,1.4,0c0,0.4,0,0.7,0,1.1c-0.5,0-0.9,0-1.4,0c0,0.8,0,1.7,0,2.5c0.6,0,1.3,0,1.9,0c0,0.4,0,0.8,0,1.1
			c-1.1,0-2.2,0-3.3,0C27.1,26.2,27.1,23.4,27.1,20.7z"/>
		<path id="XMLID_15_" class="st1" d="M40.8,20.7c0.5,0,0.9,0,1.4,0c0.5,1.6,1,3.1,1.5,4.7c0-1.6,0-3.1,0-4.7c0.4,0,0.8,0,1.2,0
			c0,2.8,0,5.5,0,8.3c-0.4,0-0.8,0-1.2,0c-0.6-1.7-1.1-3.4-1.6-5.1c0,1.7,0,3.4,0,5.1c-0.4,0-0.8,0-1.2,0
			C40.8,26.2,40.8,23.4,40.8,20.7z"/>
		<path id="XMLID_14_" class="st1" d="M50.7,20.7c0.5,0,1.1,0,1.6,0c0.3,1.5,0.6,3,0.9,4.5c0.3-1.5,0.5-3,0.8-4.5c0.6,0,1.2,0,1.8,0
			c0,2.8,0,5.5,0,8.3c-0.4,0-0.9,0-1.3,0c0-1.8,0-3.6,0-5.4c-0.3,1.8-0.6,3.6-1,5.4c-0.2,0-0.4,0-0.7,0c-0.4-1.8-0.7-3.6-1-5.4
			c0,1.8,0,3.6,0,5.4c-0.4,0-0.8,0-1.2,0C50.7,26.2,50.7,23.4,50.7,20.7z"/>
		<path id="XMLID_13_" class="st1" d="M56.6,20.7c0.5,0,0.9,0,1.4,0c0,2.8,0,5.5,0,8.3c-0.5,0-0.9,0-1.4,0
			C56.6,26.2,56.6,23.5,56.6,20.7z"/>
		<path id="XMLID_10_" class="st1" d="M69.8,20.7c0.8,0,1.6,0,2.4,0c0.6,0,1.3,0.4,1.4,1c0.2,0.7,0.1,1.5,0.1,2.2
			c0,0.6-0.5,1.2-1.1,1.3c0.4,1.3,0.9,2.5,1.3,3.7c-0.5,0-1,0-1.5,0c-0.4-1.2-0.8-2.5-1.3-3.7c0,1.2,0,2.4,0,3.7c-0.5,0-0.9,0-1.4,0
			C69.8,26.2,69.7,23.4,69.8,20.7 M71.2,21.8c0,0.9,0,1.7,0,2.6c0.4,0,1,0.1,1.1-0.5c0-0.6,0.1-1.2,0-1.7
			C72.1,21.7,71.5,21.8,71.2,21.8z"/>
		<path id="XMLID_9_" class="st1" d="M79.2,20.7c0.4,0,0.9,0,1.3,0c0.3,1.7,0.4,3.5,0.7,5.2c0.2-1.7,0.4-3.5,0.7-5.2
			c0.4,0,0.8,0,1.1,0c0.3,1.7,0.5,3.5,0.8,5.2c0.2-1.7,0.4-3.5,0.6-5.2c0.4,0,0.8,0,1.2,0c-0.4,2.8-0.7,5.5-1.1,8.3
			c-0.4,0-0.9,0-1.3,0c-0.3-1.7-0.5-3.3-0.8-5c-0.3,1.7-0.5,3.3-0.8,5c-0.4,0-0.9,0-1.3,0C79.9,26.2,79.5,23.4,79.2,20.7z"/>
		<path id="XMLID_8_" class="st1" d="M86,20.7c1.2,0,2.5,0,3.7,0c0,0.4,0,0.8,0,1.1c-0.4,0-0.8,0-1.1,0c0,2.4,0,4.8,0,7.2
			c-0.5,0-0.9,0-1.4,0c0-2.4,0-4.8,0-7.2c-0.4,0-0.8,0-1.1,0C86,21.4,86,21.1,86,20.7z"/>
		<path id="XMLID_7_" class="st1" d="M90.4,20.7c0.4-0.1,0.9,0,1.4-0.1c0,1.2,0,2.3,0,3.5c0.4,0,0.9,0,1.3,0c0-1.2,0-2.3,0-3.5
			c0.5,0,0.9,0,1.4,0c0,2.8,0,5.5,0,8.3c-0.5,0-0.9,0-1.4,0c0-1.2,0-2.4,0-3.7c-0.4,0-0.9,0-1.3,0c0,1.2,0,2.4,0,3.7
			c-0.5,0-0.9,0-1.4,0C90.4,26.2,90.4,23.5,90.4,20.7z"/>
		<path id="XMLID_6_" class="st1" d="M65,39.1c2.6-0.6,5.2-1.2,7.7-1.7c0.2-0.1,0.5,0.1,0.5,0.4c-0.6,2.6-1.1,5.3-1.7,7.9
			c0,0.2-0.4,0.3-0.5,0.1c-0.6-0.6-1.2-1.2-1.8-1.8c-6.6,6.5-13.1,13.1-19.7,19.6c-0.2,0.2-0.4,0.1-0.5-0.1
			c-2.6-2.6-5.3-5.3-7.9-7.9c-4.2,4.2-8.4,8.4-12.7,12.6c-0.1,0.1-0.3,0.1-0.4,0c-0.7-0.7-1.4-1.4-2.1-2.1c-0.2-0.1-0.1-0.3,0.1-0.5
			c5-5,9.9-9.9,14.9-14.9c0.1-0.2,0.3-0.1,0.4,0c2.6,2.6,5.3,5.3,7.9,7.9c5.8-5.8,11.6-11.6,17.4-17.3c-0.6-0.6-1.2-1.2-1.8-1.8
			C64.7,39.5,64.8,39.1,65,39.1z"/>
		<path id="XMLID_5_" class="st1" d="M69,49c0.4-0.2,0.6,0.2,0.6,0.5c0,12.4,0,24.8,0,37.2c0.1,0.4-0.2,0.7-0.6,0.7
			c-3.4,0-6.8,0-10.2,0c-0.3,0-0.7-0.2-0.7-0.6c0-8.9,0-17.8,0-26.8c0-0.5,0.2-1,0.5-1.3c3.3-3.2,6.7-6.3,10-9.5
			C68.8,49.1,68.9,49,69,49z"/>
		<path id="XMLID_4_" class="st1" d="M40.2,61.4c0.4-0.2,0.6,0.2,0.6,0.6c0,8.3,0,16.5,0,24.8c0,0.4-0.2,0.7-0.6,0.7
			c-3.4,0-6.8,0-10.3,0c-0.4,0-0.6-0.3-0.6-0.7c0-4.8,0-9.5,0-14.3c0-0.5,0.2-1,0.5-1.3c3.2-3.1,6.5-6.2,9.7-9.2
			C39.7,61.7,39.9,61.5,40.2,61.4z"/>
		<path id="XMLID_3_" class="st1" d="M54.8,62.9c0.3-0.1,0.5,0.3,0.5,0.5c0,7.8,0,15.5,0,23.3c0,0.3-0.2,0.7-0.6,0.7
			c-3.4,0-6.8,0-10.3,0c-0.4,0-0.7-0.3-0.6-0.7c0-7.7,0-15.3,0-23c-0.1-0.5,0.5-0.6,0.8-0.3c1.5,1.5,3,3.1,4.6,4.6
			c0.1,0.2,0.3,0,0.4-0.1c1.6-1.6,3.1-3.1,4.7-4.7C54.4,63.2,54.6,63,54.8,62.9z"/>
	</g>
</g>
<g id="XMLID_57_">
	<g id="XMLID_58_">
		<rect id="XMLID_112_" x="100" class="st1" width="100" height="100"/>
		<path id="XMLID_108_" class="st0" d="M111.1,10.6c0.7-1.1,2.1-1.7,3.4-1.7c1.5-0.1,3.2,0.2,4.2,1.4c1.1,1.3,1,3.2,1,4.8
			c-0.1,1.2-0.8,2.3-1.8,2.8c1.5,0.6,2.2,2.3,2.2,3.9c0,2.1,0.3,4.7-1.4,6.3c-1.9,1.5-4.8,1.5-6.8,0.3c-1.9-1.4-1.8-4-1.7-6.1
			c-0.1-1.7,0.5-3.5,2.1-4.2c-1-0.6-1.7-1.6-1.8-2.8C110.3,13.6,110.2,11.9,111.1,10.6 M114.2,11.6c-0.7,0.3-0.8,1.1-0.8,1.8
			c0,0.8-0.1,1.6,0.2,2.4c0.4,1.2,2.4,1.1,2.7-0.1c0.2-1,0.1-2,0.1-3.1C116.3,11.6,115.1,11.3,114.2,11.6 M114.4,19.2
			c-1,0.4-1.1,1.6-1,2.5c0.1,1.3-0.2,2.6,0.2,3.8c0.5,1.3,2.8,1.1,3-0.3c0.2-1.5,0.1-3.1,0-4.6C116.5,19.5,115.3,18.8,114.4,19.2z"
			/>
		<path id="XMLID_107_" class="st0" d="M132,9c1.1,0,2.2,0,3.3,0c0,0.4,0,0.8,0,1.2c-0.6,0-1.3,0-1.9,0c0,0.8,0,1.6,0,2.4
			c0.5,0,0.9,0,1.4,0c0,0.4,0,0.8,0,1.1c-0.5,0-0.9,0-1.4,0c0,0.8,0,1.7,0,2.5c0.6,0,1.3,0,1.9,0c0,0.4,0,0.8,0,1.2
			c-1.1,0-2.2,0-3.3,0C132,14.6,132,11.8,132,9z"/>
		<path id="XMLID_106_" class="st0" d="M136,10.5c0.2-1.6,2.4-2,3.5-1.1c0.7,0.7,0.5,1.7,0.5,2.6c-0.4,0-0.9,0-1.3,0
			c0-0.5,0.1-1.1-0.1-1.6c-0.3-0.6-1.3-0.3-1.3,0.4c0,1.6,0,3.2,0,4.8c-0.1,0.7,1,0.9,1.3,0.3c0.1-0.6,0-1.3,0.1-2
			c0.4,0,0.9,0,1.3,0c0,0.9,0.2,2-0.4,2.8c-0.6,0.8-1.7,0.8-2.6,0.5c-0.9-0.3-1.2-1.3-1.2-2.2C136,13.6,135.9,12,136,10.5z"/>
		<path id="XMLID_105_" class="st0" d="M147.7,9c0.4,0,0.8,0,1.2,0c0,2.8,0,5.5,0,8.3c-0.4,0-0.8,0-1.2,0c-0.5-1.7-1.1-3.4-1.6-5.2
			c0,1.7,0,3.4,0,5.1c-0.4,0-0.8,0-1.2,0c0-2.8,0-5.5,0-8.3c0.5,0,0.9,0,1.4,0c0.5,1.6,1,3.1,1.5,4.7C147.7,12.2,147.7,10.6,147.7,9
			z"/>
		<path id="XMLID_104_" class="st0" d="M149.5,9c1.2,0,2.5,0,3.7,0c0,0.4,0,0.8,0,1.2c-0.4,0-0.8,0-1.1,0c0,2.4,0,4.8,0,7.2
			c-0.5,0-0.9,0-1.4,0c0-2.4,0-4.8,0-7.2c-0.4,0-0.8,0-1.1,0C149.5,9.8,149.5,9.4,149.5,9z"/>
		<path id="XMLID_101_" class="st0" d="M163.3,9c1-0.3,2.4,0.1,2.7,1.3c0.3,1.2,0.1,2.4,0.1,3.6c0,0.9,0.1,1.8-0.3,2.6
			c-0.9,1.4-3.6,1.1-3.8-0.6c-0.1-1.6,0-3.2-0.1-4.7C161.8,10.3,162.3,9.2,163.3,9 M163.7,10.2c-0.5,0.2-0.4,0.8-0.4,1.3
			c0,1.4-0.1,2.9,0,4.3c0.1,0.7,1.3,0.7,1.3,0c0.1-1.6,0-3.2,0-4.8C164.8,10.4,164.2,10,163.7,10.2z"/>
		<path id="XMLID_100_" class="st0" d="M171.6,9c0.5,0,0.9,0,1.4,0c0,1.2,0,2.4,0,3.6c0.5-1.2,1-2.4,1.5-3.6c0.5,0,0.9,0,1.4,0
			c-0.5,1.2-1.1,2.5-1.6,3.7c0.5,1.5,1.1,3,1.6,4.6c-0.5,0-1,0-1.5,0c-0.5-1.3-0.9-2.6-1.4-3.9c0,1.3,0,2.6,0,3.9
			c-0.5,0-0.9,0-1.4,0C171.6,14.6,171.6,11.8,171.6,9z"/>
		<path id="XMLID_99_" class="st0" d="M185.7,9c0.4,0,0.8,0,1.2,0c0,2.8,0,5.5,0,8.3c-0.4,0-0.8,0-1.2,0c-0.5-1.7-1.1-3.4-1.6-5.1
			c0,1.7,0,3.4,0,5.1c-0.4,0-0.8,0-1.2,0c0-2.8,0-5.5,0-8.3c0.5,0,0.9,0,1.4,0c0.5,1.6,1,3.1,1.5,4.7C185.7,12.2,185.7,10.6,185.7,9
			z"/>
		<path id="XMLID_96_" class="st0" d="M127.1,9.1c1,0,2-0.1,3,0.1c0.8,0.2,1.2,1.1,1.2,1.9c0,1.4,0,2.9,0,4.3c0,0.8-0.5,1.7-1.3,1.9
			c-0.9,0.2-1.9,0-2.9,0.1C127.1,14.6,127.1,11.8,127.1,9.1 M128.5,10.2c0,2,0,4,0,6c0.5,0,1.3,0.1,1.3-0.6c0.1-1.6,0.1-3.2,0-4.8
			C129.8,10.1,129,10.2,128.5,10.2z"/>
		<path id="XMLID_95_" class="st0" d="M140.8,9c1.1,0,2.2,0,3.3,0c0,0.4,0,0.8,0,1.2c-0.6,0-1.3,0-1.9,0c0,0.8,0,1.6,0,2.4
			c0.5,0,0.9,0,1.4,0c0,0.4,0,0.8,0,1.1c-0.5,0-0.9,0-1.4,0c0,0.8,0,1.7,0,2.5c0.6,0,1.3,0,1.9,0c0,0.4,0,0.8,0,1.2
			c-1.1,0-2.2,0-3.3,0C140.8,14.6,140.8,11.8,140.8,9z"/>
		<path id="XMLID_94_" class="st0" d="M155,9c0.5,0,0.9,0,1.4,0c0.2,1.7,0.4,3.5,0.6,5.2c0.3-1.7,0.5-3.5,0.7-5.2c0.4,0,0.8,0,1.1,0
			c0.3,1.7,0.5,3.5,0.8,5.2c0.2-1.7,0.4-3.5,0.6-5.2c0.4,0,0.8,0,1.2,0c-0.4,2.8-0.7,5.5-1.1,8.3c-0.4,0-0.9,0-1.3,0
			c-0.3-1.7-0.5-3.4-0.8-5.1c-0.3,1.7-0.5,3.4-0.8,5.1c-0.4,0-0.9,0-1.3,0C155.7,14.6,155.3,11.8,155,9z"/>
		<path id="XMLID_91_" class="st0" d="M166.9,9.1c1.1,0.1,2.2-0.2,3.2,0.3c1,0.6,0.7,1.9,0.7,2.8c0.1,0.7-0.4,1.3-1.1,1.5
			c0.4,1.2,0.9,2.5,1.3,3.7c-0.5,0-1,0-1.5,0c-0.4-1.3-0.9-2.5-1.3-3.8c0,1.3,0,2.5,0,3.8c-0.5,0-0.9,0-1.4,0
			C166.9,14.6,166.9,11.8,166.9,9.1 M168.3,10.2c0,0.9,0,1.7,0,2.6c0.4,0,0.9,0.1,1.1-0.3c0.1-0.6,0.1-1.2,0-1.8
			C169.3,10.1,168.7,10.2,168.3,10.2z"/>
		<path id="XMLID_88_" class="st0" d="M179.1,9.1c0.5,0,1.1,0,1.6,0c0.5,2.8,1.1,5.5,1.6,8.3c-0.5,0-1,0-1.4,0
			c-0.1-0.5-0.2-1-0.3-1.5c-0.5,0-1,0-1.5,0c-0.1,0.5-0.2,1-0.2,1.5c-0.4,0-0.9,0-1.3,0C178,14.6,178.6,11.8,179.1,9.1 M179.3,14.7
			c0.4,0,0.7,0,1.1,0c-0.2-1.1-0.3-2.2-0.5-3.2C179.6,12.6,179.5,13.6,179.3,14.7z"/>
		<path id="XMLID_85_" class="st0" d="M187.7,9c1,0,2-0.1,2.9,0.1c0.8,0.2,1.2,1.1,1.2,1.9c0,1.4,0,2.9,0,4.3c0,0.8-0.5,1.7-1.3,1.9
			c-0.9,0.2-1.9,0-2.8,0.1C187.7,14.6,187.7,11.8,187.7,9 M189,10.2c0,2,0,4,0,6c0.5,0,1.3,0.1,1.3-0.6c0-1.6,0-3.2,0-4.8
			C190.3,10.1,189.5,10.2,189,10.2z"/>
		<path id="XMLID_84_" class="st0" d="M131.1,22.1c0.2-1.6,2.4-2,3.5-1c0.7,0.7,0.5,1.7,0.5,2.6c-0.4,0-0.9,0-1.3,0
			c0-0.5,0.1-1.1-0.1-1.6c-0.3-0.5-1.3-0.3-1.3,0.3c0,1.6,0,3.3,0,4.9c0,0.7,1.2,0.8,1.3,0.1c0.1-0.6,0-1.3,0-1.9c0.4,0,0.9,0,1.3,0
			c0,0.9,0.2,2-0.3,2.8c-0.6,0.8-1.8,0.9-2.7,0.5c-0.9-0.4-1.1-1.4-1.1-2.3C131.1,25.1,130.9,23.6,131.1,22.1z"/>
		<path id="XMLID_81_" class="st0" d="M137.4,20.6c1.2-0.3,2.5,0.4,2.6,1.7c0.1,1.3,0,2.7,0,4c0,0.7,0,1.5-0.5,2.1
			c-1,1.2-3.5,0.8-3.7-0.9c-0.2-1.6,0-3.2-0.1-4.8C135.8,21.8,136.4,20.7,137.4,20.6 M137.7,21.8c-0.5,0.2-0.4,0.8-0.5,1.3
			c0,1.4,0,2.9,0,4.3c0.1,0.8,1.3,0.7,1.4,0c0.1-1.6,0-3.2,0-4.8C138.7,22,138.2,21.6,137.7,21.8z"/>
		<path id="XMLID_78_" class="st0" d="M147.2,20.6c1-0.2,2.3,0.1,2.6,1.2c0.3,1.1,0.1,2.2,0.1,3.3c0,1,0.2,2-0.2,2.9
			c-0.7,1.6-3.6,1.3-3.9-0.5c-0.2-1.6,0-3.2-0.1-4.8C145.6,21.8,146.2,20.8,147.2,20.6 M147.6,21.8c-0.4,0.1-0.5,0.5-0.5,0.9
			c0,1.4,0,2.8,0,4.2c0,0.4,0,0.8,0.4,1c0.4,0.2,1.1-0.1,1-0.6c0-1.6,0-3.1,0-4.7C148.5,22,148,21.6,147.6,21.8z"/>
		<path id="XMLID_77_" class="st0" d="M160,20.7c0.8-0.2,1.8-0.2,2.4,0.5c0.5,0.7,0.4,1.7,0.4,2.5c-0.4,0-0.9,0-1.3,0
			c0-0.5,0.1-1.1-0.1-1.6c-0.3-0.5-1.3-0.3-1.2,0.4c0,1.6,0,3.2,0,4.8c-0.1,0.7,0.9,1,1.3,0.4c0.2-0.7,0.1-1.4,0.1-2
			c0.4,0,0.9,0,1.3,0c0,0.9,0.2,1.9-0.3,2.7c-0.5,0.8-1.7,0.9-2.6,0.6c-0.8-0.3-1.2-1.2-1.2-2c0-1.4,0-2.9,0-4.3
			C158.8,21.8,159.2,20.9,160,20.7z"/>
		<path id="XMLID_76_" class="st0" d="M164.9,22.2c0.2-1.6,2.4-2.1,3.5-1.2c0.6,0.6,0.5,1.6,0.5,2.4c-0.4,0-0.9,0-1.3,0
			c0-0.5,0.1-1-0.1-1.4c-0.3-0.5-1.3-0.3-1.3,0.4c0,1.6,0,3.2,0,4.8c-0.1,0.7,1,1,1.3,0.3c0.2-0.6,0.1-1.3,0.1-1.9
			c-0.2,0-0.4,0-0.7,0c0-0.4,0-0.7,0-1.1c0.7,0,1.3,0,2,0c0,1.5,0,3,0,4.4c-0.3,0-0.7,0-1,0c0-0.3,0-0.5,0-0.8c-0.3,0.7-1,1-1.7,0.8
			c-1-0.1-1.4-1.2-1.4-2.1C164.9,25.4,164.8,23.8,164.9,22.2z"/>
		<path id="XMLID_73_" class="st0" d="M176,20.6c0.7-0.1,1.6-0.1,2.1,0.5c0.5,0.5,0.6,1.2,0.6,1.8c0,1.3,0,2.6,0,3.9
			c0,0.6-0.1,1.3-0.6,1.8c-1.1,1-3.3,0.6-3.5-1c-0.2-1.6,0-3.2-0.1-4.8C174.4,21.8,175,20.8,176,20.6 M176.3,21.8
			c-0.4,0.1-0.5,0.6-0.5,1c0,1.3,0,2.7,0,4c0,0.4,0,0.9,0.5,1c0.4,0.2,1-0.2,0.9-0.6c0-1.6,0-3.1,0-4.7
			C177.3,22,176.8,21.6,176.3,21.8z"/>
		<path id="XMLID_72_" class="st0" d="M127.1,20.7c1.1,0,2.2,0,3.3,0c0,0.4,0,0.8,0,1.1c-0.6,0-1.3,0-1.9,0c0,0.8,0,1.6,0,2.4
			c0.5,0,0.9,0,1.4,0c0,0.4,0,0.8,0,1.1c-0.5,0-0.9,0-1.4,0c0,0.8,0,1.7,0,2.5c0.6,0,1.3,0,1.9,0c0,0.4,0,0.8,0,1.1
			c-1.1,0-2.2,0-3.3,0C127.1,26.2,127.1,23.4,127.1,20.7z"/>
		<path id="XMLID_71_" class="st0" d="M140.8,20.7c0.5,0,0.9,0,1.4,0c0.5,1.6,1,3.1,1.5,4.7c0-1.6,0-3.1,0-4.7c0.4,0,0.8,0,1.2,0
			c0,2.8,0,5.5,0,8.3c-0.4,0-0.8,0-1.2,0c-0.5-1.7-1.1-3.4-1.6-5.1c0,1.7,0,3.4,0,5.1c-0.4,0-0.8,0-1.2,0
			C140.8,26.2,140.8,23.4,140.8,20.7z"/>
		<path id="XMLID_70_" class="st0" d="M150.7,20.7c0.5,0,1.1,0,1.6,0c0.3,1.5,0.6,3.1,0.9,4.6c0.3-1.5,0.5-3.1,0.8-4.6
			c0.6,0,1.2,0,1.8,0c0,2.8,0,5.5,0,8.3c-0.4,0-0.9,0-1.3,0c0-1.8,0-3.6,0-5.4c-0.3,1.8-0.6,3.6-1,5.4c-0.2,0-0.4,0-0.7,0
			c-0.4-1.8-0.7-3.6-1-5.3c0,1.8,0,3.6,0,5.3c-0.4,0-0.8,0-1.2,0C150.7,26.2,150.7,23.4,150.7,20.7z"/>
		<path id="XMLID_69_" class="st0" d="M156.6,20.7c0.5,0,0.9,0,1.4,0c0,2.8,0,5.5,0,8.3c-0.5,0-0.9,0-1.4,0
			C156.6,26.2,156.6,23.4,156.6,20.7z"/>
		<path id="XMLID_66_" class="st0" d="M169.7,20.7c1.1,0.1,2.2-0.2,3.2,0.2c1,0.6,0.7,1.9,0.7,2.9c0,0.7-0.5,1.2-1.1,1.4
			c0.4,1.2,0.9,2.5,1.3,3.7c-0.5,0-1,0-1.5,0c-0.4-1.3-0.9-2.5-1.3-3.8c0,1.3,0,2.5,0,3.8c-0.5,0-0.9,0-1.4,0
			C169.7,26.2,169.7,23.4,169.7,20.7 M171.2,21.8c0,0.9,0,1.7,0,2.6c0.4-0.1,0.9,0.1,1.1-0.4c0.1-0.6,0.1-1.2,0-1.8
			C172.2,21.7,171.5,21.8,171.2,21.8z"/>
		<path id="XMLID_65_" class="st0" d="M179.2,20.7c0.5,0,0.9,0,1.4,0c0.2,1.7,0.4,3.5,0.7,5.2c0.2-1.7,0.5-3.5,0.7-5.2
			c0.4,0,0.8,0,1.1,0c0.3,1.7,0.5,3.5,0.8,5.2c0.2-1.7,0.4-3.5,0.6-5.2c0.4,0,0.8,0,1.2,0c-0.4,2.8-0.7,5.5-1.1,8.3
			c-0.4,0-0.9,0-1.3,0c-0.3-1.7-0.5-3.4-0.8-5.1c-0.3,1.7-0.5,3.4-0.8,5.1c-0.4,0-0.9,0-1.3,0C179.9,26.2,179.5,23.4,179.2,20.7z"/>
		<path id="XMLID_64_" class="st0" d="M186,20.7c1.2,0,2.5,0,3.7,0c0,0.4,0,0.8,0,1.1c-0.4,0-0.8,0-1.1,0c0,2.4,0,4.8,0,7.2
			c-0.5,0-1,0-1.4,0c0-2.4,0-4.8,0-7.2c-0.4,0-0.8,0-1.1,0C186,21.4,186,21.1,186,20.7z"/>
		<path id="XMLID_63_" class="st0" d="M190.4,20.7c0.5,0,0.9,0,1.4,0c0,1.2,0,2.3,0,3.5c0.4,0,0.9,0,1.3,0c0-1.2,0-2.3,0-3.5
			c0.5,0,0.9,0,1.4,0c0,2.8,0,5.5,0,8.3c-0.5,0-0.9,0-1.4,0c0-1.2,0-2.4,0-3.7c-0.4,0-0.9,0-1.3,0c0,1.2,0,2.4,0,3.7
			c-0.5,0-0.9,0-1.4,0C190.4,26.2,190.4,23.4,190.4,20.7z"/>
		<path id="XMLID_62_" class="st0" d="M164.8,39.2c2.6-0.6,5.3-1.2,7.9-1.8c0.2-0.1,0.6,0,0.5,0.4c-0.5,2.6-1.1,5.1-1.6,7.7
			c0,0.2-0.2,0.6-0.4,0.4c-0.7-0.6-1.3-1.3-1.9-1.9c-6.6,6.6-13.2,13.3-19.9,19.8c-2.8-2.7-5.4-5.4-8.2-8.1
			c-4.3,4.3-8.5,8.6-12.9,12.8c-0.8-0.8-1.7-1.6-2.4-2.5c5.1-5.1,10.2-10.2,15.3-15.3c2.8,2.7,5.4,5.4,8.2,8.1
			c5.8-5.8,11.6-11.6,17.3-17.3C166.1,40.7,165,40.2,164.8,39.2z"/>
		<path id="XMLID_61_" class="st0" d="M168.9,49c0.4-0.3,0.7,0.2,0.6,0.6c0,12.4,0,24.8,0,37.1c0.1,0.4-0.3,0.7-0.7,0.7
			c-3.4,0-6.8,0-10.2,0c-0.4,0-0.7-0.3-0.6-0.7c0-8.9,0-17.8,0-26.7c0-0.6,0.3-1.1,0.7-1.5C162.2,55.4,165.5,52.1,168.9,49z"/>
		<path id="XMLID_60_" class="st0" d="M140.2,61.4c0.4-0.3,0.7,0.3,0.6,0.6c0,8.2,0,16.4,0,24.6c0.1,0.4-0.2,0.8-0.7,0.8
			c-3.4,0-6.8,0-10.2,0c-0.4,0-0.7-0.3-0.6-0.7c0-4.8,0-9.6,0-14.3c0-0.6,0.4-1.1,0.8-1.5C133.5,67.7,136.7,64.5,140.2,61.4z"/>
		<path id="XMLID_59_" class="st0" d="M154.5,63.1c0.3-0.3,0.8-0.1,0.8,0.3c0,7.8,0,15.5,0,23.3c0.1,0.4-0.3,0.7-0.7,0.7
			c-3.3,0-6.7,0-10,0c-0.4,0.1-0.8-0.3-0.7-0.7c0-7.6,0-15.3,0-22.9c-0.1-0.5,0.5-0.7,0.8-0.3c1.6,1.6,3.1,3.2,4.8,4.8
			C151.1,66.6,152.8,64.8,154.5,63.1z"/>
	</g>
</g>
</svg>
