<?xml version="1.0" encoding="utf-8"?>
<!-- Generator: Adobe Illustrator 19.0.0, SVG Export Plug-In . SVG Version: 6.00 Build 0)  -->
<svg version="1.1" id="Layer_1" xmlns="http://www.w3.org/2000/svg" xmlns:xlink="http://www.w3.org/1999/xlink" x="0px" y="0px"
	 viewBox="312 247 300 300" style="enable-background:new 312 247 300 300;" xml:space="preserve">
<style type="text/css">
	.st0{fill:#F36D25;}
	.st1{fill:#FFFFFF;}
</style>
<g>
	<rect x="312" y="247" class="st0" width="300" height="300"/>
	<path class="st1" d="M341.6,278.5c2.3-3.5,6.6-5.1,10.7-5.2c4.3-0.3,9.1,0.5,12.3,3.7c3.3,3.3,4.1,8.2,4,12.6c0,9.6,0,19.3,0,28.9
		c0,4.4-1.1,9.1-4.4,12.2c-3.3,3.1-8.2,3.8-12.6,3.4c-3.6-0.3-7.5-1.7-9.5-4.8c-2.6-3.9-2.4-8.7-2.4-13.2c3.1,0,6.1,0,9.2,0
		c0.1,2.4-0.4,5,0.6,7.4c1.1,2.5,4.4,2.9,6.6,1.9c1.9-0.9,2.6-3.2,2.6-5.2c0.1-4.4,0-8.7,0-13.1c-3.3,6.5-14,6.2-17.3-0.1
		c-2.6-4.7-2-10.2-2.1-15.3C339.1,287.1,339,282.3,341.6,278.5 M352.7,281.5c-2.7,0.4-3.8,3.3-3.6,5.7c0.1,4.4-0.3,8.7,0.2,13.1
		c0.5,3.9,6.5,4.6,8.3,1.4c1.2-2.2,0.8-4.9,0.9-7.4c-0.1-3.2,0.3-6.4-0.3-9.5C357.8,282.2,355.1,280.9,352.7,281.5z"/>
	<path class="st1" d="M385.5,274.1c1.4,0,2.8,0,4.2,0c0,8.3,0,16.6,0,24.9c-1.4,0-2.8,0-4.2,0C385.5,290.8,385.5,282.5,385.5,274.1z
		"/>
	<path class="st1" d="M391.1,274.1c1.4,0,2.8,0,4.1,0c1.5,4.7,2.9,9.4,4.5,14c0-4.7,0-9.3,0-14c1.2,0,2.4,0,3.6,0c0,8.3,0,16.6,0,25
		c-1.2,0-2.5,0-3.7,0c-1.6-5.1-3.2-10.3-4.9-15.4c0,5.1,0,10.3,0,15.4c-1.2,0-2.4,0-3.6,0C391,290.8,391.1,282.5,391.1,274.1z"/>
	<path class="st1" d="M418.4,274.1c1.4,0,2.8,0,4.2,0c0.1,6.7-0.2,13.4,0.1,20.1c0.1,2.2,3.9,2.1,3.9-0.1c0.2-6.6,0-13.3,0.1-20
		c1.3,0,2.6,0,3.9,0c0,6.1,0,12.1,0,18.2c0,2-0.2,4.4-1.8,5.8c-3.3,2.7-9.9,1.3-10.3-3.5C418.2,287.8,418.4,281,418.4,274.1z"/>
	<path class="st1" d="M433.2,275.3c2.2-1.8,5.6-1.8,8.1-0.5c2.3,1.4,2.1,4.5,2.1,6.9c-1.3,0-2.5,0-3.8,0c-0.1-1.5,0.5-4.2-1.7-4.3
		c-2.2-0.3-2.7,2.5-1.9,3.9c2.1,3.3,6.1,5.2,7.4,9c0.6,2.8,0.6,6.5-2.1,8.2c-2.4,1.3-5.8,1.3-8-0.4c-2.1-1.9-1.6-5.1-1.6-7.7
		c1.3,0,2.6,0,3.9,0c0,1.6-0.2,3.2,0.2,4.7c0.8,1.5,3.6,1.1,3.6-0.8c0.8-3.9-3.2-5.9-5.3-8.4C431.2,283.3,430.5,278.2,433.2,275.3z"
		/>
	<path class="st1" d="M443.7,274.1c3.7,0,7.4,0,11.2,0c0,1.2,0,2.3,0,3.5c-1.2,0-2.3,0-3.5,0c0,7.2,0,14.3,0,21.5
		c-1.4,0-2.8,0-4.2,0c0-7.2,0-14.3,0-21.5c-1.2,0-2.3,0-3.5,0C443.7,276.4,443.7,275.3,443.7,274.1z"/>
	<path class="st1" d="M493.2,274.1c1.4,0,2.7,0,4.1,0c1.5,4.6,2.9,9.3,4.4,13.9c0.1-4.6,0-9.3,0-13.9c1.2,0,2.4,0,3.5,0
		c0,8.3,0,16.6,0,25c-1.2,0-2.5,0-3.7,0c-1.6-5-3.1-10.1-4.8-15.1c-0.1,5,0,10.1-0.1,15.1c-1.2,0-2.4,0-3.5,0
		C493.2,290.8,493.2,282.5,493.2,274.1z"/>
	<path class="st1" d="M506.6,274.1c1.4,0,2.7,0,4.1,0c1.5,4.6,2.8,9.2,4.4,13.7c0.1-4.6,0-9.1,0.1-13.7c1.2,0,2.4,0,3.5,0
		c0,8.3,0,16.6,0,24.9c-1.2,0-2.5,0-3.7,0c-1.6-5.1-3.2-10.2-4.9-15.3c-0.1,5.1,0,10.2,0,15.3c-1.2,0-2.4,0-3.5,0
		C506.6,290.8,506.6,282.5,506.6,274.1z"/>
	<path class="st1" d="M524.2,274.1c2.2-0.5,4.9-0.3,6.6,1.3c1.5,1.4,1.9,3.6,1.9,5.6c0,3.8,0,7.6,0,11.3c0,2-0.4,4.1-1.9,5.5
		c-3.2,2.9-9.7,1.8-10.6-2.9c-0.6-4.8-0.1-9.6-0.3-14.4C519.9,277.8,521.3,274.7,524.2,274.1 M525.4,277.6c-1.4,0.7-1.2,2.5-1.2,3.8
		c0.1,4.2-0.2,8.5,0.1,12.8c0.1,2.2,3.8,2.3,4,0.1c0.3-4.8,0.1-9.6,0.1-14.5C528.7,278.2,526.9,276.8,525.4,277.6z"/>
	<path class="st1" d="M557,274.1c3.7,0,7.4,0,11.2,0c0,1.2,0,2.3,0,3.5c-1.2,0-2.3,0-3.5,0c0,7.2,0,14.3,0,21.5c-1.4,0-2.8,0-4.2,0
		c0-7.2,0-14.3,0-21.5c-1.2,0-2.3,0-3.5,0C557,276.4,557,275.3,557,274.1z"/>
	<path class="st1" d="M569,274.1c1.4,0,2.8,0,4.2,0c0,8.3,0,16.6,0,24.9c-1.4,0-2.8,0-4.2,0C569,290.8,569,282.5,569,274.1z"/>
	<path class="st1" d="M578.9,274.1c2.9-0.7,6.7,0.2,7.8,3.3c1,3.2,0.4,6.6,0.6,9.8c-0.1,3,0.5,6.1-0.7,8.9c-2.2,4.9-11,4.2-11.8-1.4
		c-0.5-4.7-0.1-9.5-0.2-14.2C574.4,277.8,575.9,274.6,578.9,274.1 M580.1,277.5c-1.5,0.6-1.3,2.5-1.3,3.8c0.1,4.3-0.2,8.6,0.1,12.9
		c0.2,2.2,3.9,2.1,4-0.1c0.2-4.8,0.1-9.6,0.1-14.3C583.1,278.2,581.6,276.9,580.1,277.5z"/>
	<path class="st1" d="M404.5,274.2c3,0.1,6-0.3,8.9,0.4c2.4,0.7,3.6,3.3,3.6,5.6c0.1,4.3,0.1,8.7,0,13c0,2.4-1.4,5.1-3.9,5.7
		c-2.8,0.5-5.8,0.2-8.6,0.3C404.5,290.8,404.5,282.5,404.5,274.2 M408.7,277.5c0,6,0,12.1,0,18.1c1.5,0,3.8,0.2,4-1.8
		c0.2-4.8,0.2-9.6,0-14.4C412.6,277.4,410.2,277.6,408.7,277.5z"/>
	<path class="st1" d="M455.7,274.2c3.2,0.2,6.6-0.6,9.6,0.8c3,1.8,2.1,5.9,2.2,8.8c0.1,2-1.4,3.5-3.2,4.2c1.3,3.7,2.6,7.4,3.9,11.2
		c-1.5,0-3,0-4.4,0c-1.3-3.7-2.6-7.5-3.9-11.2c0,3.7,0,7.5,0,11.2c-1.4,0-2.8,0-4.2,0C455.7,290.8,455.7,282.5,455.7,274.2
		 M459.9,277.5c0,2.6,0,5.3,0,7.9c1.1-0.2,2.6,0.2,3.2-1c0.4-1.9,0.3-3.8,0.1-5.7C462.7,277.3,461,277.7,459.9,277.5z"/>
	<path class="st1" d="M467.5,274.2c1.5,0,2.9,0,4.4,0c0.9,3.1,1.6,6.2,2.5,9.3c0.9-3.1,1.7-6.2,2.5-9.3c1.4,0,2.7,0,4.1,0
		c-1.4,4.9-3,9.8-4.4,14.8c-0.5,3.4-0.1,6.8-0.2,10.1c-1.4,0-2.8,0-4.2,0c-0.2-4.1,0.6-8.3-0.8-12.2
		C470,282.6,468.8,278.4,467.5,274.2z"/>
	<path class="st1" d="M487.6,274.1c1.4,0,2.8,0,4.2,0c0,8.3,0,16.6,0,24.9c-1.4,0-2.8,0-4.2,0C487.6,290.8,487.6,282.5,487.6,274.1z
		"/>
	<path class="st1" d="M532.6,274.2c1.4,0,2.9,0,4.3,0c1,5.7,1.8,11.4,2.9,17.1c1.1-5.7,1.9-11.4,2.9-17.1c1.3,0,2.6,0,4,0
		c-1.6,8.3-3.2,16.6-4.7,24.9c-1.5,0-3.1,0-4.6,0C535.8,290.8,534.2,282.5,532.6,274.2z"/>
	<path class="st1" d="M549.1,274.1c1.6,0,3.2,0,4.8,0c1.6,8.3,3.2,16.6,4.7,24.9c-1.5,0-2.9,0-4.3,0c-0.2-1.4-0.4-2.9-0.8-4.3
		c-1.4-0.4-2.9-0.1-4.4-0.2c-0.2,1.5-0.5,3-0.7,4.5c-1.3,0-2.7,0-4,0C546,290.8,547.6,282.5,549.1,274.1 M551.4,281.4
		c-0.6,3.2-1.1,6.5-1.6,9.7c1.1,0,2.2,0,3.3,0C552.5,287.9,552,284.7,551.4,281.4z"/>
	<path class="st1" d="M588.5,274.1c1.4,0,2.7,0,4.1,0c1.5,4.6,2.9,9.3,4.5,13.9c0.1-4.6,0-9.3,0-13.9c1.2,0,2.4,0,3.6,0
		c0,8.3,0,16.6,0,24.9c-1.4-0.2-3.8,0.8-4.1-1.1c-1.5-4.7-2.9-9.4-4.4-14.1c-0.1,5.1,0,10.2-0.1,15.2c-1.2,0-2.4,0-3.6,0
		C588.5,290.8,588.5,282.5,588.5,274.1z"/>
	<path class="st1" d="M479.5,295c1.4,0,2.7,0,4.1,0c-0.7,2-1.5,4-2.2,6c-0.8,0-1.6,0-2.4,0C479.2,299,479.4,297,479.5,295z"/>
	<path class="st1" d="M488.3,309.6c2.3-1.2,5.3-1.2,7.5,0.1c2.2,1.5,2,4.4,2,6.7c-1.3,0-2.5,0-3.8,0c-0.1-1.1,0.1-2.3-0.3-3.4
		c-0.7-1.3-3.2-1.1-3.6,0.4c-0.3,1.1-0.1,2.4,0.6,3.3c2.2,2.8,5.7,4.8,7,8.2c0.7,2.9,0.7,7-2.4,8.6c-2.4,1.1-5.7,1.1-7.8-0.7
		c-2-2-1.5-5-1.5-7.6c1.3,0,2.6,0,4,0c0,1.5-0.2,3,0.2,4.5c0.7,1.8,3.8,1.3,3.7-0.7c0.7-5.4-6.3-7.1-7.5-11.8
		C485.7,314.6,485.8,311.2,488.3,309.6z"/>
	<path class="st1" d="M537.1,312.4c1.3-3.9,6.6-4.6,9.8-2.6c2.5,1.9,1.9,5.4,1.9,8.2c-1.3,0-2.6,0-3.8,0c0-1.6,0.2-3.2-0.3-4.8
		c-0.9-1.6-3.8-0.9-3.8,1c-0.1,4.8-0.1,9.7,0,14.5c-0.2,2.1,3,2.9,3.8,1c0.5-1.9,0.2-4,0.2-6c1.3,0,2.6,0,3.8,0
		c-0.2,3.1,0.8,7-1.9,9.4c-2.9,2.1-8,1.5-9.6-2c-1.2-2.9-0.5-6.1-0.7-9.1C536.8,318.8,536.2,315.5,537.1,312.4z"/>
	<path class="st1" d="M389.6,309c1.6,0,3.2,0,4.8,0c1.6,8.3,3.2,16.6,4.7,24.9c-1.4,0-2.9,0-4.3,0c-0.3-1.5-0.5-3-0.8-4.5
		c-1.5,0-2.9,0-4.4,0c-0.2,1.5-0.5,3-0.7,4.5c-1.3,0-2.7,0-4,0C386.4,325.6,388,317.4,389.6,309 M390.2,326c1.1,0,2.2,0,3.3,0
		c-0.5-3.3-1-6.5-1.6-9.8C391.2,319.5,390.7,322.8,390.2,326z"/>
	<path class="st1" d="M399.8,309c1.4,0,2.8,0,4.1,0c1.5,4.6,2.9,9.3,4.4,14c0-4.7,0-9.3,0-14c1.2,0,2.4,0,3.5,0c0,8.3,0,16.6,0,24.9
		c-1.2,0-2.5,0-3.7,0c-1.6-5-3.1-10.1-4.8-15c-0.2,5,0,10-0.1,15c-1.2,0-2.4,0-3.5,0C399.8,325.6,399.7,317.3,399.8,309z"/>
	<path class="st1" d="M413.2,309c2.9,0.1,5.9-0.3,8.8,0.3c2.6,0.7,3.8,3.5,3.8,6c0,4.3,0.1,8.6,0,12.9c0,2.4-1.5,4.9-3.9,5.4
		c-2.8,0.5-5.7,0.1-8.6,0.3C413.2,325.6,413.2,317.3,413.2,309 M417.4,312.4c0,6,0,12.1,0,18.1c1.5,0,3.9,0.1,4-1.9
		c0.1-4.8,0.2-9.7,0-14.5C421.2,312.2,418.8,312.5,417.4,312.4z"/>
	<path class="st1" d="M429.8,309c1.4,0,2.8,0,4.2,0c0,8.3,0,16.6,0,24.9c-1.4,0-2.8,0-4.2,0C429.8,325.6,429.8,317.3,429.8,309z"/>
	<path class="st1" d="M435.4,309c1.4,0,2.7,0,4.1,0c1.5,4.6,2.9,9.3,4.4,13.9c0.1-4.6,0-9.3,0-13.9c1.2,0,2.4,0,3.5,0
		c0,8.3,0,16.6,0,24.9c-1.2,0-2.5,0-3.7,0c-1.6-5-3.1-10.1-4.8-15.1c-0.1,5,0,10.1-0.1,15.1c-1.2,0-2.4,0-3.5,0
		C435.3,325.6,435.3,317.3,435.4,309z"/>
	<path class="st1" d="M448.8,309c3.3,0,6.5,0,9.8,0c0,1.1,0,2.3,0,3.4c-1.9,0-3.7,0-5.6,0c0,2.4,0,4.7,0,7.1c1.4,0,2.8,0,4.2,0
		c0,1.1,0,2.3,0,3.4c-1.4,0-2.8,0-4.2,0c0,3.7,0,7.3,0,11c-1.4,0-2.8,0-4.2,0C448.8,325.6,448.8,317.3,448.8,309z"/>
	<path class="st1" d="M459.3,309c3.1,0.2,6.5-0.5,9.5,0.7c3.1,1.7,2.4,5.8,2.4,8.8c0.1,2.1-1.4,3.7-3.2,4.3
		c1.3,3.6,2.5,7.2,3.8,10.7c1.6-8.1,3.1-16.3,4.7-24.5c1.6,0,3.2,0,4.8,0c1.6,8.3,3.2,16.6,4.8,24.9c-1.4,0-2.9,0-4.3,0
		c-0.3-1.5-0.5-3-0.8-4.5c-1.5,0-2.9,0-4.4,0c-0.2,1.5-0.5,3-0.7,4.5c-2.8,0-5.5,0-8.3,0c-1.3-3.7-2.5-7.4-3.9-11.1
		c-0.1,3.7,0,7.4,0,11.1c-1.4,0-2.8,0-4.2,0C459.3,325.6,459.3,317.3,459.3,309 M463.6,312.4c0,2.6,0,5.3,0,7.9
		c1.1-0.2,2.9,0.1,3.2-1.3c0.3-1.8,0.2-3.6,0-5.4C466.5,312.2,464.7,312.6,463.6,312.4 M478.6,316.2c-0.6,3.3-1.1,6.5-1.6,9.8
		c1.1,0,2.2,0,3.3,0C479.7,322.8,479.3,319.5,478.6,316.2z"/>
	<path class="st1" d="M498.1,309c3.7,0,7.4,0,11.2,0c0,1.1,0,2.3,0,3.4c-1.2,0-2.3,0-3.5,0c0,7.2,0,14.3,0,21.5c-1.4,0-2.8,0-4.2,0
		c0-7.2,0-14.3,0-21.5c-1.2,0-2.3,0-3.5,0C498.1,311.3,498.1,310.2,498.1,309z"/>
	<path class="st1" d="M510.1,309c3.1,0.2,6.5-0.6,9.5,0.7c3.1,1.7,2.4,5.8,2.4,8.8c0.1,2.1-1.4,3.7-3.3,4.3
		c1.3,3.7,2.6,7.4,3.9,11.2c-1.5,0-3,0-4.5,0c-1.3-3.7-2.5-7.4-3.8-11.1c-0.1,3.7,0,7.4,0,11.1c-1.4,0-2.8,0-4.2,0
		C510.1,325.6,510.1,317.3,510.1,309 M514.4,312.4c0,2.6,0,5.3,0,7.9c1.1-0.2,2.9,0.1,3.2-1.3c0.3-1.8,0.3-3.6,0-5.4
		C517.3,312.2,515.5,312.6,514.4,312.4z"/>
	<path class="st1" d="M523.1,309c1.4,0,2.8,0,4.2,0c0.1,6.6-0.1,13.3,0.1,19.9c0,2.3,3.9,2.3,3.9,0c0.2-6.6,0-13.3,0.1-20
		c1.3,0,2.6,0,3.9,0c0,6.4,0,12.8,0,19.3c0,2.1-0.8,4.6-3,5.4c-2.3,0.8-5.1,0.8-7.1-0.7c-1.7-1.3-2.1-3.6-2.1-5.6
		C523.1,321.3,523.1,315.2,523.1,309z"/>
	<path class="st1" d="M549.1,309c3.7,0,7.4,0,11.2,0c0,1.1,0,2.3,0,3.4c-1.2,0-2.3,0-3.5,0c0,7.2,0,14.3,0,21.5c-1.4,0-2.8,0-4.2,0
		c0-7.2,0-14.3,0-21.5c-1.2,0-2.3,0-3.5,0C549.1,311.3,549.1,310.2,549.1,309z"/>
	<path class="st1" d="M561.1,309c1.4,0,2.8,0,4.2,0c0.1,6.7-0.1,13.3,0.1,20c0,2.3,3.8,2.2,3.9,0c0.2-6.7,0-13.3,0.1-20
		c1.3,0,2.6,0,3.9,0c0,6.3,0,12.6,0,18.9c0,2.1-0.6,4.5-2.6,5.6c-2.1,1.1-4.8,1-6.9,0c-2-1-2.7-3.5-2.7-5.6
		C561.1,321.6,561.1,315.3,561.1,309z"/>
	<path class="st1" d="M574.6,309c3.2,0.2,6.7-0.6,9.7,0.8c2.9,1.8,2,5.8,2.1,8.7c0.1,2.1-1.4,3.6-3.2,4.3c1.3,3.7,2.6,7.4,3.9,11.2
		c-1.5,0-3,0-4.4,0c-1.3-3.7-2.5-7.5-3.9-11.2c-0.1,3.7,0,7.5,0,11.2c-1.4,0-2.8,0-4.2,0C574.6,325.6,574.6,317.3,574.6,309
		 M578.8,312.4c0,2.6,0,5.3,0,7.9c1.1-0.2,2.9,0.1,3.3-1.2c0.3-1.8,0.3-3.6,0-5.4C581.7,312.2,579.9,312.6,578.8,312.4z"/>
	<path class="st1" d="M587.6,309c3.3,0,6.7,0,10,0c0,1.1,0,2.3,0,3.4c-1.9,0-3.9,0-5.8,0c0,2.4,0,4.7,0,7.1c1.4,0,2.8,0,4.1,0
		c0,1.1,0,2.3,0,3.4c-1.4,0-2.8,0-4.1,0c0,2.5,0,5,0,7.5c1.9,0,3.9,0,5.8,0c0,1.1,0,2.3,0,3.4c-3.3,0-6.7,0-10,0
		C587.6,325.6,587.6,317.3,587.6,309z"/>
	<path class="st1" d="M462,359.9c1-0.7,2.2-0.7,3.2-0.1c11.8,6.8,23.6,13.6,35.4,20.4c1,0.5,1.8,1.5,1.7,2.7c0,13.4,0,26.8,0,40.2
		c11.5,6.7,23.1,13.3,34.7,20c1,0.5,1.8,1.5,1.6,2.6c0,13.7,0,27.4,0,41.1c0.1,1.2-0.4,2.3-1.5,2.8c-11.8,6.8-23.6,13.6-35.4,20.5
		c-1,0.7-2.3,0.8-3.3,0.1c-11.6-6.7-23.1-13.4-34.7-20c-11.4,6.6-22.9,13.2-34.3,19.8c-1.1,0.7-2.5,1-3.6,0.2
		c-11.9-6.9-23.8-13.7-35.6-20.6c-1.1-0.5-1.5-1.6-1.4-2.7c0-13.7,0-27.4,0-41.1c-0.1-1.1,0.6-2.1,1.6-2.6
		c11.6-6.7,23.2-13.4,34.7-20c0-13.4,0-26.8,0-40.2c-0.1-1.1,0.6-2.1,1.6-2.6C438.4,373.5,450.2,366.7,462,359.9 M468.5,403.6
		c9.6,5.6,19.3,11.2,29,16.8c0-11.2,0-22.3,0-33.5C487.8,392.4,478.2,398,468.5,403.6 M429.8,386.9c0,11.2,0,22.3,0,33.5
		c9.7-5.6,19.3-11.1,29-16.7C449.1,398,439.5,392.4,429.8,386.9 M432.2,424.6c9.7,5.6,19.3,11.2,29,16.7c0-11.2,0-22.3,0-33.5
		C451.5,413.4,441.9,419,432.2,424.6 M466.1,407.8c0,11.2,0,22.3,0,33.5c9.7-5.6,19.3-11.2,29-16.7
		C485.4,419,475.7,413.4,466.1,407.8 M468.5,445.5c10.5,6.1,20.9,12.1,31.4,18.2c10.5-6,21-12.1,31.4-18.2
		c-10.5-6.1-20.9-12.1-31.4-18.1C489.4,433.4,479,439.4,468.5,445.5 M432.2,466.5c9.7,5.6,19.3,11.2,29,16.7c0-11.2,0-22.3,0-33.5
		C451.5,455.3,441.9,460.9,432.2,466.5 M502.3,467.9c0,12.1,0,24.2,0,36.3c10.5-6,21-12.1,31.5-18.2c0-12.1,0-24.2,0-36.3
		C523.3,455.7,512.8,461.8,502.3,467.9 M393.5,449.7c0,12.1,0,24.2,0,36.3c10.5,6,21,12.1,31.4,18.1c0-12.1,0-24.2,0-36.3
		C414.4,461.8,404,455.7,393.5,449.7 M429.8,470.7c0,11.2,0,22.3,0,33.5c9.7-5.6,19.3-11.2,29-16.7
		C449.1,481.8,439.5,476.2,429.8,470.7z"/>
</g>
</svg>
