<?xml version="1.0" encoding="utf-8"?>
<!-- Generator: Adobe Illustrator 19.0.0, SVG Export Plug-In . SVG Version: 6.00 Build 0)  -->
<svg version="1.1" id="Layer_1" xmlns="http://www.w3.org/2000/svg" xmlns:xlink="http://www.w3.org/1999/xlink" x="0px" y="0px"
	 viewBox="0 0 200 100" style="enable-background:new 0 0 200 100;" xml:space="preserve">
<style type="text/css">
	.st0{fill:#FFFFFF;}
	.st1{fill:#F36D25;}
</style>
<g id="XMLID_1_">
	<g id="XMLID_2_">
		<rect id="XMLID_73_" class="st0" width="100" height="100"/>
		<path id="XMLID_70_" class="st1" d="M13.5,8.8c1.4-0.1,2.9,0.2,3.9,1.1c1.1,1,1.4,2.5,1.4,3.9c0,3.4,0,6.8,0,10.2
			c0,1.5-0.4,3.1-1.6,4.1c-1.2,1-2.8,1.2-4.3,1c-1.2-0.1-2.4-0.6-3-1.6c-0.8-1.3-0.8-2.9-0.8-4.4c1,0,2,0,3,0c0,0.8-0.1,1.7,0.2,2.5
			c0.4,0.7,1.4,0.8,2.1,0.6c0.7-0.3,1-1,1-1.7c0-1.5,0-3,0-4.5c-1,2-4.2,2.1-5.5,0.4c-1-1.3-1-3.1-1-4.6c0-1.7-0.2-3.6,0.8-5.1
			C10.6,9.3,12.1,8.8,13.5,8.8 M13.8,11.5c-0.8,0-1.4,0.7-1.4,1.4c-0.1,1.1,0,2.3,0,3.4c0,0.7-0.1,1.4,0.3,2
			c0.4,0.6,1.3,0.6,1.9,0.4c0.7-0.3,0.9-1,0.9-1.7c0-1.2,0-2.3,0-3.5c0-0.6,0-1.2-0.4-1.6C14.8,11.6,14.3,11.4,13.8,11.5z"/>
		<path id="XMLID_69_" class="st1" d="M40.6,9.3c0.8-0.4,1.8-0.4,2.5,0c0.7,0.5,0.7,1.5,0.6,2.2c-0.4,0-0.8,0-1.3,0
			c0-0.4,0-0.7,0-1.1c-0.2-0.5-1-0.5-1.2,0c-0.1,0.4-0.1,0.9,0.2,1.2c0.7,0.7,1.5,1.4,2,2.2c0.5,0.7,0.4,1.6,0.3,2.4
			c-0.4,1.3-2.2,1.5-3.3,0.9c-0.8-0.6-0.6-1.8-0.7-2.6c0.4,0,0.9,0,1.3,0c0,0.5,0,1,0,1.5c0.1,0.6,1.1,0.6,1.2,0
			c0.1-0.4,0.1-0.9-0.2-1.3c-0.7-0.9-1.8-1.6-2.3-2.7C39.8,11,39.8,9.8,40.6,9.3z"/>
		<path id="XMLID_66_" class="st1" d="M70.8,9c0.7-0.1,1.6-0.1,2.1,0.5c0.5,0.4,0.6,1.1,0.6,1.8c0,1.4,0,2.7,0,4.1
			c0,0.8-0.3,1.6-1,1.9c-0.7,0.3-1.5,0.3-2.2,0c-0.7-0.4-1-1.2-1-2c0-1.4,0-2.9,0-4.3C69.4,10.1,69.9,9.2,70.8,9 M71.1,10.2
			c-0.4,0.2-0.4,0.6-0.4,0.9c0,1.5,0,2.9,0,4.4c0,0.4,0.2,0.8,0.6,0.8c0.4,0.1,0.8-0.3,0.8-0.8c0-1.6,0-3.1,0-4.7
			C72.2,10.3,71.6,10,71.1,10.2z"/>
		<path id="XMLID_63_" class="st1" d="M89,9c0.7-0.1,1.6-0.1,2.1,0.4c0.5,0.4,0.6,1.1,0.6,1.8c0,1.4,0,2.7,0,4.1
			c0,0.8-0.3,1.6-1.1,1.9c-0.7,0.3-1.6,0.3-2.3-0.1c-0.7-0.4-0.9-1.2-0.9-1.9c0-1.4,0-2.9,0-4.3C87.5,10.1,88.1,9.2,89,9 M89.3,10.2
			c-0.3,0.2-0.4,0.6-0.4,0.9c0,1.5,0,2.9,0,4.4c0,0.4,0.2,0.8,0.6,0.8c0.4,0.1,0.8-0.3,0.8-0.8c0-1.6,0-3.1,0-4.7
			C90.3,10.3,89.8,10,89.3,10.2z"/>
		<path id="XMLID_62_" class="st1" d="M24.5,9.1c0.5,0,0.9,0,1.4,0c0,2.8,0,5.5,0,8.3c-0.5,0-0.9,0-1.4,0
			C24.5,14.6,24.5,11.8,24.5,9.1z"/>
		<path id="XMLID_61_" class="st1" d="M26.4,9.1c0.5,0,0.9,0,1.4,0c0.5,1.6,1,3.2,1.5,4.7c0-1.6,0-3.1,0-4.7c0.4,0,0.8,0,1.2,0
			c0,2.8,0,5.5,0,8.3c-0.4,0-0.8,0-1.2,0c-0.5-1.7-1.1-3.4-1.6-5.1c0,1.7,0,3.4,0,5.1c-0.4,0-0.8,0-1.2,0
			C26.4,14.6,26.4,11.8,26.4,9.1z"/>
		<path id="XMLID_58_" class="st1" d="M30.8,9.1c1.1,0.1,2.2-0.2,3.2,0.2c0.7,0.3,0.9,1.1,0.9,1.8c0,1.4,0,2.7,0,4.1
			c0,0.7-0.2,1.5-0.9,1.9c-1,0.5-2.2,0.2-3.3,0.2C30.8,14.6,30.8,11.8,30.8,9.1 M32.2,10.2c0,2,0,4,0,6c0.5,0,1.3,0.1,1.3-0.6
			c0.1-1.4,0-2.8,0-4.2c0-0.4,0-0.8-0.2-1C33.1,10.1,32.6,10.2,32.2,10.2z"/>
		<path id="XMLID_57_" class="st1" d="M35.5,9.1c0.5,0,0.9,0,1.4,0c0,2.2,0,4.3,0,6.5c0,0.4,0.2,0.8,0.7,0.8
			c0.4,0.1,0.7-0.4,0.7-0.8c0-2.2,0-4.3,0-6.5c0.4,0,0.9,0,1.3,0c0,2.1,0,4.3,0,6.4c0,0.7-0.2,1.5-0.9,1.8c-0.7,0.3-1.5,0.3-2.2,0
			c-0.7-0.3-1-1.1-1-1.8C35.4,13.3,35.4,11.2,35.5,9.1z"/>
		<path id="XMLID_56_" class="st1" d="M43.9,9.1c1.2,0,2.5,0,3.7,0c0,0.4,0,0.8,0,1.1c-0.4,0-0.8,0-1.1,0c0,2.4,0,4.8,0,7.1
			c-0.5,0-0.9,0-1.4,0c0-2.4,0-4.8,0-7.1c-0.4,0-0.8,0-1.2,0C43.9,9.8,43.9,9.4,43.9,9.1z"/>
		<path id="XMLID_53_" class="st1" d="M47.9,9.1c0.9,0,1.7,0,2.6,0c0.6,0.1,1.2,0.6,1.3,1.2c0.1,0.7,0.1,1.4,0,2.2
			c-0.1,0.6-0.5,1-1.1,1.1c0.4,1.2,0.9,2.5,1.3,3.7c-0.5,0-1,0-1.5,0c-0.4-1.2-0.8-2.5-1.3-3.7c0,1.2,0,2.5,0,3.7
			c-0.5,0-0.9,0-1.4,0C47.9,14.6,47.9,11.8,47.9,9.1 M49.3,10.2c0,0.9,0,1.7,0,2.6c0.4,0,1,0.1,1.1-0.4c0.1-0.6,0-1.2,0-1.7
			C50.3,10.1,49.7,10.2,49.3,10.2z"/>
		<path id="XMLID_52_" class="st1" d="M51.8,9.1c0.5,0,1,0,1.5,0c0.3,1,0.6,2.1,0.9,3.1c0.3-1,0.6-2.1,0.8-3.1c0.4,0,0.9,0,1.3,0
			c-0.5,1.7-1,3.4-1.5,5.1c-0.1,1.1,0,2.1,0,3.2c-0.5,0-0.9,0-1.4,0c-0.1-1.4,0.2-2.8-0.3-4.1C52.7,11.8,52.2,10.5,51.8,9.1z"/>
		<path id="XMLID_51_" class="st1" d="M58.5,9.1c0.5,0,0.9,0,1.4,0c0,2.8,0,5.5,0,8.3c-0.5,0-0.9,0-1.4,0
			C58.5,14.6,58.5,11.8,58.5,9.1z"/>
		<path id="XMLID_50_" class="st1" d="M60.4,9.1c0.5,0,0.9,0,1.4,0c0.5,1.6,1,3.1,1.5,4.7c0-1.6,0-3.1,0-4.7c0.4,0,0.8,0,1.2,0
			c0,2.8,0,5.5,0,8.3c-0.4,0-0.8,0-1.2,0c-0.6-1.7-1.1-3.4-1.6-5.1c0,1.7,0,3.4,0,5.1c-0.4,0-0.8,0-1.2,0
			C60.4,14.6,60.4,11.8,60.4,9.1z"/>
		<path id="XMLID_49_" class="st1" d="M64.9,9.1c0.5,0,0.9,0,1.4,0c0.5,1.6,1,3.1,1.5,4.7c0-1.6,0-3.1,0-4.7c0.4,0,0.8,0,1.2,0
			c0,2.8,0,5.5,0,8.3c-0.4,0-0.8,0-1.2,0c-0.6-1.7-1.1-3.4-1.6-5.1c0,1.7,0,3.4,0,5.1c-0.4,0-0.8,0-1.2,0
			C64.9,14.6,64.9,11.8,64.9,9.1z"/>
		<path id="XMLID_48_" class="st1" d="M73.5,9.1c0.5,0,0.9,0,1.4,0c0.3,1.9,0.6,3.8,1,5.8c0.3-1.9,0.7-3.8,1-5.8c0.4,0,0.9,0,1.3,0
			c-0.5,2.8-1,5.5-1.6,8.3c-0.5,0-1,0-1.5,0C74.6,14.6,74.1,11.8,73.5,9.1z"/>
		<path id="XMLID_45_" class="st1" d="M79,9.1c0.5,0,1.1,0,1.6,0c0.5,2.8,1.1,5.5,1.6,8.3c-0.5,0-1,0-1.4,0c-0.1-0.5-0.2-1-0.3-1.5
			c-0.5,0-1,0-1.5,0c-0.1,0.5-0.2,1-0.2,1.5c-0.4,0-0.9,0-1.3,0C78,14.6,78.5,11.8,79,9.1 M79.2,14.7c0.4,0,0.7,0,1.1,0
			c-0.2-1.1-0.3-2.2-0.5-3.2C79.6,12.6,79.4,13.6,79.2,14.7z"/>
		<path id="XMLID_44_" class="st1" d="M81.7,9.1c1.2,0,2.5,0,3.7,0c0,0.4,0,0.8,0,1.1c-0.4,0-0.8,0-1.1,0c0,2.4,0,4.8,0,7.2
			c-0.5,0-0.9,0-1.4,0c0-2.4,0-4.8,0-7.2c-0.4,0-0.8,0-1.1,0C81.7,9.8,81.7,9.4,81.7,9.1z"/>
		<path id="XMLID_43_" class="st1" d="M85.7,9.1c0.5,0,0.9,0,1.4,0c0,2.8,0,5.5,0,8.3c-0.5,0-0.9,0-1.4,0
			C85.7,14.6,85.7,11.8,85.7,9.1z"/>
		<path id="XMLID_42_" class="st1" d="M92.2,9.1c0.5,0,0.9,0,1.4,0c0.5,1.5,1,3.1,1.5,4.6c0-1.5,0-3.1,0-4.6c0.4,0,0.8,0,1.2,0
			c0,2.8,0,5.5,0,8.3c-0.4,0-0.8,0-1.2,0c-0.5-1.7-1.1-3.4-1.6-5.1c0,1.7,0,3.4,0,5.1c-0.4,0-0.8,0-1.2,0
			C92.2,14.6,92.2,11.8,92.2,9.1z"/>
		<path id="XMLID_41_" class="st1" d="M55.8,16c0.5,0,0.9,0,1.4,0c-0.2,0.7-0.5,1.3-0.7,2c-0.3,0-0.5,0-0.8,0
			C55.7,17.3,55.8,16.7,55.8,16z"/>
		<path id="XMLID_40_" class="st1" d="M58.8,20.9c0.7-0.4,1.7-0.4,2.5,0c0.7,0.5,0.7,1.5,0.7,2.3c-0.4,0-0.9,0-1.3,0
			c0-0.4,0-0.8-0.1-1.1c-0.2-0.5-1.2-0.4-1.2,0.2c-0.2,0.7,0.4,1.2,0.9,1.6c0.7,0.7,1.5,1.3,1.8,2.3c0.1,0.9,0.1,2-0.7,2.5
			c-0.8,0.5-2,0.5-2.7-0.1C57.8,28,58,27,58,26.1c0.4,0,0.9,0,1.3,0c0,0.5,0,0.9,0,1.4c0.1,0.6,1.1,0.6,1.2,0.1
			c0.1-0.4,0.1-1-0.1-1.3c-0.7-0.9-1.8-1.6-2.3-2.7C57.9,22.6,57.9,21.4,58.8,20.9z"/>
		<path id="XMLID_39_" class="st1" d="M76.1,20.7c0.8-0.2,1.8-0.2,2.4,0.4c0.6,0.7,0.4,1.7,0.4,2.5c-0.4,0-0.8,0-1.3,0
			c0-0.5,0-1,0-1.5c-0.1-0.6-1-0.6-1.2-0.1c-0.2,0.3-0.1,0.7-0.1,1.1c0,1.4,0,2.8,0,4.2c0,0.7,1.1,0.8,1.3,0.2
			c0.1-0.6,0-1.3,0.1-1.9c0.4,0,0.8,0,1.3,0c0,0.9,0.2,1.9-0.3,2.7c-0.5,0.8-1.7,0.9-2.5,0.6c-0.8-0.2-1.2-1.1-1.2-1.9
			c0-1.5,0-2.9,0-4.4C74.9,21.9,75.3,21,76.1,20.7z"/>
		<path id="XMLID_36_" class="st1" d="M25.9,20.7c0.5,0,1.1,0,1.6,0c0.5,2.8,1.1,5.5,1.6,8.3c-0.5,0-1,0-1.4,0
			c-0.1-0.5-0.2-1-0.3-1.5c-0.5,0-1,0-1.5,0c-0.1,0.5-0.2,1-0.2,1.5c-0.4,0-0.9,0-1.3,0C24.8,26.2,25.3,23.4,25.9,20.7 M26.1,26.3
			c0.4,0,0.7,0,1.1,0c-0.2-1.1-0.4-2.2-0.5-3.3C26.4,24.1,26.2,25.2,26.1,26.3z"/>
		<path id="XMLID_35_" class="st1" d="M29.3,20.7c0.5,0,0.9,0,1.4,0c0.5,1.6,1,3.1,1.5,4.7c0-1.6,0-3.1,0-4.7c0.4,0,0.8,0,1.2,0
			c0,2.8,0,5.5,0,8.3c-0.4,0-0.8,0-1.2,0c-0.5-1.7-1.1-3.5-1.6-5.2c0,1.7,0,3.4,0,5.2c-0.4,0-0.8,0-1.2,0
			C29.2,26.2,29.2,23.4,29.3,20.7z"/>
		<path id="XMLID_32_" class="st1" d="M33.7,20.7c1.1,0.1,2.4-0.3,3.4,0.3c0.6,0.4,0.8,1.2,0.8,1.9c0,1.3,0,2.7,0,4
			c0,0.7-0.2,1.5-0.9,1.9c-1,0.5-2.2,0.2-3.3,0.3C33.7,26.2,33.7,23.4,33.7,20.7 M35.1,21.8c0,2,0,4,0,6c0.5,0,1.3,0.1,1.4-0.6
			c0-1.6,0-3.2,0-4.8C36.4,21.7,35.6,21.8,35.1,21.8z"/>
		<path id="XMLID_31_" class="st1" d="M39.3,20.7c0.5,0,0.9,0,1.4,0c0,2.8,0,5.5,0,8.3c-0.5,0-0.9,0-1.4,0
			C39.3,26.2,39.3,23.4,39.3,20.7z"/>
		<path id="XMLID_30_" class="st1" d="M41.1,20.7c0.5,0,0.9,0,1.4,0c0.5,1.6,1,3.1,1.5,4.7c0-1.6,0-3.1,0-4.7c0.4,0,0.8,0,1.2,0
			c0,2.8,0,5.5,0,8.3c-0.4-0.1-1.2,0.3-1.3-0.3c-0.5-1.6-1-3.2-1.5-4.8c0,1.7,0,3.4,0,5.1c-0.4,0-0.8,0-1.2,0
			C41.1,26.2,41.1,23.4,41.1,20.7z"/>
		<path id="XMLID_29_" class="st1" d="M45.6,20.7c1.1,0,2.2,0,3.3,0c0,0.4,0,0.8,0,1.1c-0.6,0-1.2,0-1.9,0c0,0.8,0,1.6,0,2.4
			c0.5,0,0.9,0,1.4,0c0,0.4,0,0.8,0,1.1c-0.5,0-0.9,0-1.4,0c0,1.2,0,2.4,0,3.7c-0.5,0-0.9,0-1.4,0C45.6,26.2,45.6,23.4,45.6,20.7z"
			/>
		<path id="XMLID_25_" class="st1" d="M49.1,20.7c0.8,0,1.6,0,2.5,0c0.6,0,1.3,0.5,1.4,1.1c0.1,0.7,0.1,1.5,0.1,2.2
			c0,0.6-0.5,1.1-1.1,1.2c0.4,1.2,0.9,2.4,1.3,3.6c0.5-2.7,1-5.5,1.5-8.2c0.5,0,1.1,0,1.6,0c0.5,2.8,1.1,5.5,1.6,8.3
			c-0.5,0-1,0-1.4,0c-0.1-0.5-0.2-1-0.3-1.5c-0.5,0-1,0-1.5,0c-0.1,0.5-0.2,1-0.2,1.5c-0.9,0-1.8,0-2.8,0c-0.4-1.2-0.9-2.5-1.3-3.7
			c0,1.2,0,2.5,0,3.7c-0.5,0-0.9,0-1.4,0C49.1,26.2,49.1,23.4,49.1,20.7 M50.5,21.8c0,0.9,0,1.7,0,2.6c0.4,0,1,0.1,1.1-0.4
			c0.1-0.6,0.1-1.2,0-1.8C51.5,21.7,50.9,21.8,50.5,21.8 M55.6,23.1c-0.2,1.1-0.4,2.2-0.5,3.2c0.4,0,0.7,0,1.1,0
			C55.9,25.3,55.8,24.2,55.6,23.1z"/>
		<path id="XMLID_24_" class="st1" d="M62,20.7c1.2,0,2.5,0,3.7,0c0,0.4,0,0.8,0,1.1c-0.4,0-0.8,0-1.1,0c0,2.4,0,4.8,0,7.2
			c-0.5,0-0.9,0-1.4,0c0-2.4,0-4.8,0-7.2c-0.4,0-0.8,0-1.1,0C62,21.4,62,21.1,62,20.7z"/>
		<path id="XMLID_21_" class="st1" d="M66,20.7c0.8,0,1.6,0,2.3,0c0.6,0,1.3,0.4,1.5,1c0.2,0.7,0.1,1.5,0.1,2.3
			c0,0.6-0.5,1.1-1.1,1.3c0.4,1.2,0.9,2.5,1.3,3.7c-0.5,0-1,0-1.5,0c-0.4-1.2-0.8-2.5-1.3-3.7c0,1.2,0,2.5,0,3.7c-0.5,0-0.9,0-1.4,0
			C66,26.2,66,23.4,66,20.7 M67.4,21.8c0,0.9,0,1.7,0,2.6c0.4,0,1,0.1,1.1-0.4c0.1-0.6,0.1-1.2,0-1.8C68.4,21.7,67.8,21.8,67.4,21.8
			z"/>
		<path id="XMLID_20_" class="st1" d="M70.4,20.7c0.5,0,0.9,0,1.4,0c0,2.2,0,4.4,0,6.7c0,0.8,1.3,0.8,1.3,0c0.1-2.2,0-4.4,0-6.7
			c0.4,0,0.9,0,1.3,0c0,2.1,0,4.2,0,6.4c0,0.7-0.2,1.5-0.9,1.8c-0.7,0.3-1.6,0.3-2.3,0c-0.6-0.3-0.9-1.1-0.9-1.8
			C70.4,24.9,70.4,22.8,70.4,20.7z"/>
		<path id="XMLID_19_" class="st1" d="M79,20.7c1.2,0,2.5,0,3.7,0c0,0.4,0,0.8,0,1.1c-0.4,0-0.8,0-1.2,0c0,2.4,0,4.8,0,7.1
			c-0.5,0-0.9,0-1.4,0c0-2.4,0-4.8,0-7.1c-0.4,0-0.8,0-1.1,0C79,21.4,79,21.1,79,20.7z"/>
		<path id="XMLID_18_" class="st1" d="M83,20.7c0.5,0,0.9,0,1.4,0c0,2.2,0,4.4,0,6.7c0,0.8,1.3,0.7,1.3,0c0-2.2,0-4.4,0-6.6
			c0.4,0,0.9,0,1.3,0c0,2.1,0,4.3,0,6.4c0,0.7-0.2,1.4-0.8,1.8c-0.7,0.3-1.5,0.3-2.2,0.1c-0.7-0.3-1-1-1-1.7C83,25,83,22.8,83,20.7z
			"/>
		<path id="XMLID_15_" class="st1" d="M87.5,20.7c0.8,0,1.7,0,2.5,0c0.6,0,1.3,0.5,1.4,1.2c0.1,0.7,0.1,1.4,0,2.1
			c0,0.6-0.5,1.1-1.1,1.2c0.4,1.2,0.9,2.5,1.3,3.7c-0.5,0-1,0-1.5,0c-0.4-1.2-0.8-2.5-1.3-3.7c0,1.2,0,2.5,0,3.7c-0.5,0-0.9,0-1.4,0
			C87.5,26.2,87.5,23.4,87.5,20.7 M88.9,21.8c0,0.9,0,1.7,0,2.6c0.4,0,1,0.1,1.1-0.4c0.1-0.6,0.1-1.2,0-1.7
			C90,21.7,89.3,21.8,88.9,21.8z"/>
		<path id="XMLID_14_" class="st1" d="M91.9,20.7c1.1,0,2.2,0,3.3,0c0,0.4,0,0.8,0,1.1c-0.6,0-1.3,0-1.9,0c0,0.8,0,1.6,0,2.4
			c0.5,0,0.9,0,1.4,0c0,0.4,0,0.8,0,1.1c-0.5,0-0.9,0-1.4,0c0,0.8,0,1.7,0,2.5c0.6,0,1.3,0,1.9,0c0,0.4,0,0.8,0,1.1
			c-1.1,0-2.2,0-3.3,0C91.9,26.2,91.9,23.4,91.9,20.7z"/>
		<path id="XMLID_3_" class="st1" d="M50.1,37.6c0.3-0.2,0.6-0.2,0.9,0c4,2.3,8,4.6,12,6.9c0.3,0.2,0.5,0.5,0.4,0.8
			c0,4.5,0,8.9,0,13.4c3.9,2.3,7.8,4.5,11.6,6.7c0.3,0.1,0.5,0.4,0.4,0.8c0,4.6,0,9.2,0,13.9c0,0.3-0.2,0.6-0.4,0.8
			c-4,2.3-8,4.6-12,6.9c-0.3,0.2-0.6,0.2-0.9,0c-3.9-2.2-7.8-4.5-11.7-6.7c-3.9,2.2-7.8,4.5-11.7,6.7c-0.3,0.2-0.6,0.1-0.9,0
			c-4-2.3-8-4.6-12-6.9c-0.3-0.2-0.5-0.5-0.4-0.9c0-4.6,0-9.2,0-13.8c0-0.3,0.2-0.6,0.4-0.8c3.9-2.2,7.8-4.5,11.7-6.7
			c0-4.5,0-9,0-13.5c0-0.3,0.2-0.6,0.5-0.7C42.1,42.2,46.1,39.9,50.1,37.6 M39.3,46.6c0,3.7,0,7.4,0,11.2c3.2-1.9,6.5-3.7,9.7-5.6
			C45.7,50.3,42.5,48.5,39.3,46.6 M52.2,52.2c3.2,1.9,6.5,3.7,9.7,5.6c0-3.7,0-7.4,0-11.2C58.6,48.5,55.4,50.3,52.2,52.2 M51.4,53.6
			c0,3.7,0,7.4,0,11.2c3.2-1.9,6.5-3.7,9.7-5.6C57.8,57.3,54.6,55.5,51.4,53.6 M40.1,59.2c3.2,1.9,6.4,3.7,9.7,5.6
			c0-3.7,0-7.4,0-11.2C46.5,55.5,43.3,57.3,40.1,59.2 M52.2,66.2c3.5,2,7,4,10.5,6.1c3.5-2,7-4,10.5-6.1c-3.5-2-7-4-10.5-6.1
			C59.1,62.1,55.6,64.1,52.2,66.2 M27.2,67.6c0,4,0,8.1,0,12.1c3.5,2,7,4,10.5,6.1c0-4,0-8.1,0-12.1C34.2,71.6,30.7,69.6,27.2,67.6
			 M63.4,73.6c0,4,0,8.1,0,12.1c3.5-2,7-4,10.5-6c0-4,0-8.1,0-12.1C70.4,69.6,66.9,71.6,63.4,73.6 M40.1,73.2
			c3.2,1.9,6.4,3.7,9.7,5.6c0-3.7,0-7.4,0-11.2C46.5,69.4,43.3,71.3,40.1,73.2 M39.3,74.5c0,3.7,0,7.4,0,11.2
			c3.2-1.9,6.5-3.7,9.7-5.6C45.7,78.3,42.5,76.4,39.3,74.5z"/>
	</g>
</g>
<g id="XMLID_74_">
	<g id="XMLID_75_">
		<rect id="XMLID_146_" x="100" class="st1" width="100" height="100"/>
		<path id="XMLID_143_" class="st0" d="M109.9,10.5c0.8-1.2,2.2-1.7,3.6-1.7c1.4-0.1,3,0.2,4.1,1.2c1.1,1.1,1.4,2.7,1.3,4.2
			c0,3.2,0,6.4,0,9.6c0,1.5-0.4,3-1.5,4.1c-1.1,1-2.7,1.3-4.2,1.1c-1.2-0.1-2.5-0.6-3.2-1.6c-0.9-1.3-0.8-2.9-0.8-4.4c1,0,2,0,3.1,0
			c0,0.8-0.1,1.7,0.2,2.5c0.4,0.8,1.5,1,2.2,0.6c0.6-0.3,0.9-1.1,0.9-1.7c0-1.5,0-2.9,0-4.4c-1.1,2.2-4.7,2.1-5.8,0
			c-0.9-1.6-0.7-3.4-0.7-5.1C109,13.4,109,11.8,109.9,10.5 M113.6,11.5c-0.9,0.1-1.3,1.1-1.2,1.9c0,1.5-0.1,2.9,0.1,4.4
			c0.2,1.3,2.2,1.5,2.8,0.5c0.4-0.7,0.3-1.6,0.3-2.5c0-1.1,0.1-2.1-0.1-3.2C115.3,11.7,114.4,11.3,113.6,11.5z"/>
		<path id="XMLID_142_" class="st0" d="M124.5,9c0.5,0,0.9,0,1.4,0c0,2.8,0,5.5,0,8.3c-0.5,0-0.9,0-1.4,0
			C124.5,14.6,124.5,11.8,124.5,9z"/>
		<path id="XMLID_141_" class="st0" d="M126.4,9c0.5,0,0.9,0,1.4,0c0.5,1.6,1,3.1,1.5,4.7c0-1.6,0-3.1,0-4.7c0.4,0,0.8,0,1.2,0
			c0,2.8,0,5.5,0,8.3c-0.4,0-0.8,0-1.2,0c-0.5-1.7-1.1-3.4-1.6-5.1c0,1.7,0,3.4,0,5.1c-0.4,0-0.8,0-1.2,0
			C126.3,14.6,126.4,11.8,126.4,9z"/>
		<path id="XMLID_140_" class="st0" d="M135.5,9c0.5,0,0.9,0,1.4,0c0,2.2-0.1,4.5,0,6.7c0,0.7,1.3,0.7,1.3,0c0.1-2.2,0-4.4,0-6.7
			c0.4,0,0.9,0,1.3,0c0,2,0,4,0,6.1c0,0.7-0.1,1.5-0.6,1.9c-1.1,0.9-3.3,0.4-3.4-1.2C135.4,13.6,135.5,11.3,135.5,9z"/>
		<path id="XMLID_139_" class="st0" d="M140.4,9.4c0.7-0.6,1.9-0.6,2.7-0.2c0.8,0.5,0.7,1.5,0.7,2.3c-0.4,0-0.8,0-1.3,0
			c0-0.5,0.2-1.4-0.6-1.4c-0.7-0.1-0.9,0.8-0.6,1.3c0.7,1.1,2,1.7,2.5,3c0.2,0.9,0.2,2.2-0.7,2.7c-0.8,0.4-1.9,0.4-2.7-0.1
			c-0.7-0.6-0.5-1.7-0.5-2.6c0.4,0,0.9,0,1.3,0c0,0.5-0.1,1.1,0.1,1.6c0.3,0.5,1.2,0.4,1.2-0.3c0.3-1.3-1.1-2-1.8-2.8
			C139.7,12.1,139.5,10.4,140.4,9.4z"/>
		<path id="XMLID_138_" class="st0" d="M143.9,9c1.2,0,2.5,0,3.7,0c0,0.4,0,0.8,0,1.2c-0.4,0-0.8,0-1.2,0c0,2.4,0,4.8,0,7.2
			c-0.5,0-0.9,0-1.4,0c0-2.4,0-4.8,0-7.2c-0.4,0-0.8,0-1.2,0C143.9,9.8,143.9,9.4,143.9,9z"/>
		<path id="XMLID_137_" class="st0" d="M160.4,9c0.5,0,0.9,0,1.4,0c0.5,1.5,1,3.1,1.5,4.6c0-1.5,0-3.1,0-4.6c0.4,0,0.8,0,1.2,0
			c0,2.8,0,5.5,0,8.3c-0.4,0-0.8,0-1.2,0c-0.5-1.7-1-3.4-1.6-5c0,1.7,0,3.4,0,5c-0.4,0-0.8,0-1.2,0C160.4,14.6,160.4,11.8,160.4,9z"
			/>
		<path id="XMLID_136_" class="st0" d="M164.9,9c0.5,0,0.9,0,1.4,0c0.5,1.5,0.9,3.1,1.5,4.6c0-1.5,0-3,0-4.6c0.4,0,0.8,0,1.2,0
			c0,2.8,0,5.5,0,8.3c-0.4,0-0.8,0-1.2,0c-0.5-1.7-1.1-3.4-1.6-5.1c0,1.7,0,3.4,0,5.1c-0.4,0-0.8,0-1.2,0
			C164.9,14.6,164.9,11.8,164.9,9z"/>
		<path id="XMLID_133_" class="st0" d="M170.7,9c0.7-0.2,1.6-0.1,2.2,0.4c0.5,0.5,0.6,1.2,0.6,1.9c0,1.3,0,2.5,0,3.8
			c0,0.7-0.1,1.4-0.6,1.8c-1.1,1-3.2,0.6-3.5-1c-0.2-1.6,0-3.2-0.1-4.8C169.3,10.3,169.8,9.2,170.7,9 M171.1,10.2
			c-0.5,0.2-0.4,0.8-0.4,1.3c0,1.4-0.1,2.8,0,4.3c0,0.7,1.3,0.8,1.3,0c0.1-1.6,0-3.2,0-4.8C172.2,10.4,171.6,9.9,171.1,10.2z"/>
		<path id="XMLID_132_" class="st0" d="M181.7,9c1.2,0,2.5,0,3.7,0c0,0.4,0,0.8,0,1.2c-0.4,0-0.8,0-1.2,0c0,2.4,0,4.8,0,7.2
			c-0.5,0-0.9,0-1.4,0c0-2.4,0-4.8,0-7.2c-0.4,0-0.8,0-1.2,0C181.7,9.8,181.7,9.4,181.7,9z"/>
		<path id="XMLID_131_" class="st0" d="M185.7,9c0.5,0,0.9,0,1.4,0c0,2.8,0,5.5,0,8.3c-0.5,0-0.9,0-1.4,0
			C185.7,14.6,185.7,11.8,185.7,9z"/>
		<path id="XMLID_128_" class="st0" d="M189,9c1-0.2,2.2,0.1,2.6,1.1c0.3,1.1,0.1,2.2,0.2,3.3c0,1,0.2,2-0.2,3
			c-0.7,1.6-3.7,1.4-3.9-0.5c-0.2-1.6,0-3.2-0.1-4.7C187.5,10.3,188,9.2,189,9 M189.4,10.2c-0.5,0.2-0.4,0.8-0.4,1.3
			c0,1.4-0.1,2.9,0,4.3c0.1,0.7,1.3,0.7,1.3,0c0.1-1.6,0-3.2,0-4.8C190.4,10.4,189.9,10,189.4,10.2z"/>
		<path id="XMLID_125_" class="st0" d="M130.8,9.1c1,0,2-0.1,3,0.1c0.8,0.2,1.2,1.1,1.2,1.9c0,1.4,0,2.9,0,4.3
			c0,0.8-0.5,1.7-1.3,1.9c-0.9,0.2-1.9,0.1-2.9,0.1C130.8,14.6,130.8,11.8,130.8,9.1 M132.2,10.2c0,2,0,4,0,6c0.5,0,1.3,0.1,1.3-0.6
			c0.1-1.6,0.1-3.2,0-4.8C133.5,10.1,132.7,10.2,132.2,10.2z"/>
		<path id="XMLID_122_" class="st0" d="M147.9,9.1c1.1,0.1,2.2-0.2,3.2,0.3c1,0.6,0.7,2,0.7,2.9c0,0.7-0.5,1.2-1.1,1.4
			c0.4,1.2,0.9,2.5,1.3,3.7c-0.5,0-1,0-1.5,0c-0.4-1.2-0.9-2.5-1.3-3.7c0,1.2,0,2.5,0,3.7c-0.5,0-0.9,0-1.4,0
			C147.9,14.6,147.9,11.8,147.9,9.1 M149.3,10.2c0,0.9,0,1.8,0,2.6c0.4-0.1,0.9,0.1,1.1-0.3c0.1-0.6,0.1-1.3,0-1.9
			C150.2,10.1,149.7,10.2,149.3,10.2z"/>
		<path id="XMLID_121_" class="st0" d="M151.8,9.1c0.5,0,1,0,1.5,0c0.3,1,0.5,2.1,0.8,3.1c0.3-1,0.6-2.1,0.8-3.1c0.5,0,0.9,0,1.4,0
			c-0.5,1.6-1,3.3-1.5,4.9c-0.2,1.1,0,2.3-0.1,3.4c-0.5,0-0.9,0-1.4,0c-0.1-1.4,0.2-2.8-0.3-4.1C152.7,11.9,152.3,10.5,151.8,9.1z"
			/>
		<path id="XMLID_120_" class="st0" d="M158.5,9c0.5,0,0.9,0,1.4,0c0,2.8,0,5.5,0,8.3c-0.5,0-0.9,0-1.4,0
			C158.5,14.6,158.5,11.8,158.5,9z"/>
		<path id="XMLID_119_" class="st0" d="M173.5,9.1c0.5,0,1,0,1.4,0c0.3,1.9,0.6,3.8,1,5.7c0.4-1.9,0.6-3.8,1-5.7c0.4,0,0.9,0,1.3,0
			c-0.5,2.8-1.1,5.5-1.6,8.3c-0.5,0-1,0-1.5,0C174.6,14.6,174.1,11.8,173.5,9.1z"/>
		<path id="XMLID_116_" class="st0" d="M179,9c0.5,0,1.1,0,1.6,0c0.5,2.8,1.1,5.5,1.6,8.3c-0.5,0-1,0-1.4,0c-0.1-0.5-0.1-1-0.3-1.4
			c-0.5-0.1-1,0-1.5-0.1c-0.1,0.5-0.2,1-0.2,1.5c-0.4,0-0.9,0-1.3,0C178,14.6,178.5,11.8,179,9 M179.8,11.5
			c-0.2,1.1-0.4,2.2-0.5,3.2c0.4,0,0.7,0,1.1,0C180.2,13.6,180,12.6,179.8,11.5z"/>
		<path id="XMLID_115_" class="st0" d="M192.2,9c0.5,0,0.9,0,1.4,0c0.5,1.5,1,3.1,1.5,4.6c0-1.5,0-3.1,0-4.6c0.4,0,0.8,0,1.2,0
			c0,2.8,0,5.5,0,8.3c-0.5-0.1-1.3,0.3-1.4-0.4c-0.5-1.6-1-3.1-1.5-4.7c0,1.7,0,3.4,0,5.1c-0.4,0-0.8,0-1.2,0
			C192.2,14.6,192.2,11.8,192.2,9z"/>
		<path id="XMLID_114_" class="st0" d="M155.8,16c0.5,0,0.9,0,1.4,0c-0.2,0.7-0.5,1.3-0.7,2c-0.3,0-0.5,0-0.8,0
			C155.7,17.3,155.8,16.7,155.8,16z"/>
		<path id="XMLID_113_" class="st0" d="M158.8,20.9c0.8-0.4,1.8-0.4,2.5,0c0.7,0.5,0.7,1.5,0.7,2.2c-0.4,0-0.8,0-1.3,0
			c0-0.4,0-0.8-0.1-1.1c-0.2-0.4-1.1-0.4-1.2,0.1c-0.1,0.4,0,0.8,0.2,1.1c0.7,0.9,1.9,1.6,2.3,2.7c0.2,1,0.2,2.3-0.8,2.9
			c-0.8,0.4-1.9,0.4-2.6-0.2c-0.7-0.7-0.5-1.7-0.5-2.5c0.4,0,0.9,0,1.3,0c0,0.5-0.1,1,0.1,1.5c0.2,0.6,1.3,0.4,1.2-0.2
			c0.2-1.8-2.1-2.4-2.5-3.9C157.9,22.5,157.9,21.4,158.8,20.9z"/>
		<path id="XMLID_112_" class="st0" d="M175,21.8c0.4-1.3,2.2-1.5,3.3-0.9c0.8,0.6,0.6,1.8,0.6,2.7c-0.4,0-0.9,0-1.3,0
			c0-0.5,0.1-1.1-0.1-1.6c-0.3-0.5-1.3-0.3-1.3,0.3c0,1.6,0,3.2,0,4.8c-0.1,0.7,1,1,1.3,0.3c0.2-0.6,0.1-1.3,0.1-2
			c0.4,0,0.9,0,1.3,0c-0.1,1,0.3,2.3-0.6,3.1c-1,0.7-2.7,0.5-3.2-0.7c-0.4-1-0.2-2-0.2-3C174.9,23.9,174.7,22.8,175,21.8z"/>
		<path id="XMLID_109_" class="st0" d="M125.9,20.7c0.5,0,1.1,0,1.6,0c0.5,2.8,1.1,5.5,1.6,8.3c-0.5,0-1,0-1.4,0
			c-0.1-0.5-0.2-1-0.3-1.5c-0.5,0-1,0-1.5,0c-0.1,0.5-0.2,1-0.2,1.5c-0.4,0-0.9,0-1.3,0C124.8,26.2,125.3,23.5,125.9,20.7
			 M126.1,26.3c0.4,0,0.7,0,1.1,0c-0.2-1.1-0.3-2.2-0.5-3.3C126.4,24.2,126.2,25.3,126.1,26.3z"/>
		<path id="XMLID_108_" class="st0" d="M129.3,20.7c0.5,0,0.9,0,1.4,0c0.5,1.5,1,3.1,1.5,4.7c0-1.6,0-3.1,0-4.7c0.4,0,0.8,0,1.2,0
			c0,2.8,0,5.5,0,8.3c-0.4,0-0.8,0-1.2,0c-0.5-1.7-1-3.4-1.6-5c-0.1,1.7,0,3.3,0,5c-0.4,0-0.8,0-1.2,0
			C129.3,26.2,129.2,23.4,129.3,20.7z"/>
		<path id="XMLID_105_" class="st0" d="M133.7,20.7c1,0,2-0.1,2.9,0.1c0.9,0.2,1.3,1.2,1.3,2c0,1.4,0,2.9,0,4.3
			c0,0.8-0.5,1.6-1.3,1.8c-0.9,0.2-1.9,0-2.9,0.1C133.7,26.2,133.7,23.4,133.7,20.7 M135.1,21.8c0,2,0,4,0,6c0.5,0,1.3,0,1.3-0.6
			c0-1.6,0.1-3.2,0-4.8C136.4,21.7,135.6,21.8,135.1,21.8z"/>
		<path id="XMLID_104_" class="st0" d="M139.3,20.7c0.5,0,0.9,0,1.4,0c0,2.8,0,5.5,0,8.3c-0.5,0-0.9,0-1.4,0
			C139.3,26.2,139.3,23.4,139.3,20.7z"/>
		<path id="XMLID_103_" class="st0" d="M141.1,20.7c0.5,0,0.9,0,1.4,0c0.5,1.5,1,3.1,1.5,4.6c0-1.5,0-3.1,0-4.6c0.4,0,0.8,0,1.2,0
			c0,2.8,0,5.5,0,8.3c-0.4,0-0.8,0-1.2,0c-0.5-1.7-1-3.4-1.6-5c0,1.7,0,3.4,0,5c-0.4,0-0.8,0-1.2,0
			C141.1,26.2,141.1,23.4,141.1,20.7z"/>
		<path id="XMLID_102_" class="st0" d="M145.6,20.7c1.1,0,2.2,0,3.3,0c0,0.4,0,0.8,0,1.1c-0.6,0-1.2,0-1.9,0c0,0.8,0,1.6,0,2.4
			c0.5,0,0.9,0,1.4,0c0,0.4,0,0.8,0,1.1c-0.5,0-0.9,0-1.4,0c0,1.2,0,2.4,0,3.7c-0.5,0-0.9,0-1.4,0C145.6,26.2,145.6,23.4,145.6,20.7
			z"/>
		<path id="XMLID_98_" class="st0" d="M149.1,20.7c1,0.1,2.2-0.2,3.2,0.2c1,0.6,0.8,1.9,0.8,2.9c0,0.7-0.5,1.2-1.1,1.4
			c0.4,1.2,0.8,2.4,1.3,3.6c0.5-2.7,1-5.4,1.6-8.2c0.5,0,1.1,0,1.6,0c0.5,2.8,1.1,5.5,1.6,8.3c-0.5,0-1,0-1.4,0
			c-0.1-0.5-0.2-1-0.3-1.5c-0.5,0-1,0-1.5,0c-0.1,0.5-0.2,1-0.2,1.5c-0.9,0-1.8,0-2.8,0c-0.4-1.2-0.8-2.5-1.3-3.7c0,1.2,0,2.5,0,3.7
			c-0.5,0-0.9,0-1.4,0C149.1,26.2,149.1,23.4,149.1,20.7 M150.5,21.8c0,0.9,0,1.8,0,2.6c0.4-0.1,1,0,1.1-0.4c0.1-0.6,0.1-1.2,0-1.8
			C151.5,21.7,150.9,21.9,150.5,21.8 M155.5,23.1c-0.2,1.1-0.4,2.2-0.5,3.3c0.4,0,0.7,0,1.1,0C155.9,25.3,155.8,24.2,155.5,23.1z"/>
		<path id="XMLID_97_" class="st0" d="M162,20.7c1.2,0,2.5,0,3.7,0c0,0.4,0,0.8,0,1.1c-0.4,0-0.8,0-1.2,0c0,2.4,0,4.8,0,7.2
			c-0.5,0-0.9,0-1.4,0c0-2.4,0-4.8,0-7.2c-0.4,0-0.8,0-1.2,0C162,21.4,162,21.1,162,20.7z"/>
		<path id="XMLID_94_" class="st0" d="M166,20.7c1,0.1,2.2-0.2,3.2,0.2c1,0.6,0.8,1.9,0.8,2.9c0,0.7-0.5,1.2-1.1,1.4
			c0.4,1.2,0.9,2.5,1.3,3.7c-0.5,0-1,0-1.5,0c-0.4-1.2-0.8-2.5-1.3-3.7c0,1.2,0,2.5,0,3.7c-0.5,0-0.9,0-1.4,0
			C166,26.2,166,23.4,166,20.7 M167.5,21.8c0,0.9,0,1.8,0,2.6c0.4-0.1,1,0,1.1-0.4c0.1-0.6,0.1-1.2,0-1.8
			C168.4,21.7,167.8,21.9,167.5,21.8z"/>
		<path id="XMLID_93_" class="st0" d="M170.4,20.7c0.5,0,0.9,0,1.4,0c0,2.2,0,4.4,0,6.6c0,0.8,1.3,0.8,1.3,0c0.1-2.2,0-4.4,0-6.7
			c0.4,0,0.9,0,1.3,0c0,2.1,0,4.3,0,6.4c0,0.7-0.3,1.5-1,1.8c-0.8,0.3-1.7,0.3-2.4-0.2c-0.6-0.4-0.7-1.2-0.7-1.9
			C170.4,24.8,170.4,22.7,170.4,20.7z"/>
		<path id="XMLID_92_" class="st0" d="M179,20.7c1.2,0,2.5,0,3.7,0c0,0.4,0,0.8,0,1.1c-0.4,0-0.8,0-1.2,0c0,2.4,0,4.8,0,7.2
			c-0.5,0-0.9,0-1.4,0c0-2.4,0-4.8,0-7.2c-0.4,0-0.8,0-1.2,0C179,21.4,179,21.1,179,20.7z"/>
		<path id="XMLID_91_" class="st0" d="M183,20.7c0.5,0,0.9,0,1.4,0c0,2.2,0,4.4,0,6.7c0,0.8,1.3,0.7,1.3,0c0.1-2.2,0-4.4,0-6.7
			c0.4,0,0.9,0,1.3,0c0,2.1,0,4.2,0,6.3c0,0.7-0.2,1.5-0.9,1.9c-0.7,0.4-1.6,0.3-2.3,0c-0.7-0.3-0.9-1.2-0.9-1.9
			C183,24.9,183,22.8,183,20.7z"/>
		<path id="XMLID_88_" class="st0" d="M187.5,20.7c1.1,0.1,2.2-0.2,3.2,0.3c1,0.6,0.7,1.9,0.7,2.9c0,0.7-0.5,1.2-1.1,1.4
			c0.4,1.2,0.9,2.5,1.3,3.7c-0.5,0-1,0-1.5,0c-0.4-1.2-0.8-2.5-1.3-3.7c0,1.2,0,2.5,0,3.7c-0.5,0-0.9,0-1.4,0
			C187.5,26.2,187.5,23.4,187.5,20.7 M188.9,21.8c0,0.9,0,1.8,0,2.6c0.4-0.1,1,0,1.1-0.4c0.1-0.6,0.1-1.2,0-1.8
			C189.9,21.7,189.3,21.9,188.9,21.8z"/>
		<path id="XMLID_87_" class="st0" d="M191.9,20.7c1.1,0,2.2,0,3.3,0c0,0.4,0,0.8,0,1.1c-0.6,0-1.3,0-1.9,0c0,0.8,0,1.6,0,2.4
			c0.5,0,0.9,0,1.4,0c0,0.4,0,0.8,0,1.1c-0.5,0-0.9,0-1.4,0c0,0.8,0,1.7,0,2.5c0.6,0,1.3,0,1.9,0c0,0.4,0,0.8,0,1.1
			c-1.1,0-2.2,0-3.3,0C191.9,26.2,191.9,23.4,191.9,20.7z"/>
		<path id="XMLID_76_" class="st0" d="M150,37.6c0.3-0.2,0.7-0.2,1.1,0c3.9,2.3,7.9,4.5,11.8,6.8c0.3,0.2,0.6,0.5,0.6,0.9
			c0,4.5,0,8.9,0,13.4c3.8,2.2,7.7,4.4,11.6,6.7c0.3,0.2,0.6,0.5,0.5,0.9c0,4.6,0,9.1,0,13.7c0,0.4-0.1,0.8-0.5,0.9
			c-3.9,2.3-7.9,4.5-11.8,6.8c-0.3,0.2-0.8,0.3-1.1,0c-3.9-2.2-7.7-4.5-11.6-6.7c-3.8,2.2-7.6,4.4-11.4,6.6
			c-0.4,0.2-0.8,0.3-1.2,0.1c-4-2.3-7.9-4.6-11.9-6.9c-0.4-0.2-0.5-0.5-0.5-0.9c0-4.6,0-9.1,0-13.7c0-0.4,0.2-0.7,0.5-0.9
			c3.9-2.2,7.7-4.5,11.6-6.7c0-4.5,0-8.9,0-13.4c0-0.4,0.2-0.7,0.5-0.9C142.1,42.2,146.1,39.9,150,37.6 M152.2,52.2
			c3.2,1.9,6.4,3.7,9.7,5.6c0-3.7,0-7.4,0-11.2C158.6,48.5,155.4,50.3,152.2,52.2 M139.3,46.6c0,3.7,0,7.4,0,11.2
			c3.2-1.9,6.4-3.7,9.7-5.6C145.7,50.3,142.5,48.5,139.3,46.6 M140.1,59.2c3.2,1.9,6.4,3.7,9.7,5.6c0-3.7,0-7.4,0-11.2
			C146.5,55.5,143.3,57.3,140.1,59.2 M151.4,53.6c0,3.7,0,7.4,0,11.2c3.2-1.9,6.4-3.7,9.7-5.6C157.8,57.3,154.6,55.5,151.4,53.6
			 M152.2,66.2c3.5,2,7,4,10.5,6.1c3.5-2,7-4,10.5-6.1c-3.5-2-7-4-10.5-6C159.1,62.1,155.7,64.1,152.2,66.2 M140.1,73.2
			c3.2,1.9,6.4,3.7,9.7,5.6c0-3.7,0-7.4,0-11.2C146.5,69.4,143.3,71.3,140.1,73.2 M163.4,73.6c0,4,0,8.1,0,12.1c3.5-2,7-4,10.5-6.1
			c0-4,0-8.1,0-12.1C170.4,69.6,166.9,71.6,163.4,73.6 M127.2,67.6c0,4,0,8.1,0,12.1c3.5,2,7,4,10.5,6c0-4,0-8.1,0-12.1
			C134.1,71.6,130.7,69.6,127.2,67.6 M139.3,74.6c0,3.7,0,7.4,0,11.2c3.2-1.9,6.4-3.7,9.7-5.6C145.7,78.3,142.5,76.4,139.3,74.6z"/>
	</g>
</g>
</svg>
