<?xml version="1.0" encoding="utf-8"?>
<!-- Generator: Adobe Illustrator 19.0.0, SVG Export Plug-In . SVG Version: 6.00 Build 0)  -->
<svg version="1.1" id="Layer_1" xmlns="http://www.w3.org/2000/svg" xmlns:xlink="http://www.w3.org/1999/xlink" x="0px" y="0px"
	 viewBox="568 246 300 300" style="enable-background:new 568 246 300 300;" xml:space="preserve">
<style type="text/css">
	.st0{fill:#FFFFFF;}
	.st1{fill:#ccc;}
</style>
<g>
	<rect x="568" y="246" class="st0" width="300" height="300"/>
	<path class="st1" d="M599.2,316.4c5.7-14.4,11.4-28.9,17.1-43.3c3.3,0,6.6,0,9.8,0c0,14,0,28,0,42.1c1.4,0,2.7,0,4,0
		c0,2.6,0,5.2,0,7.8c-1.3,0-2.7,0-4,0c0,3.2,0,6.4,0,9.7c-3.2,0-6.3,0-9.5,0c0-3.2,0-6.4,0-9.7c-5.9,0-11.8,0-17.6,0
		C599.1,320.8,598.8,318.6,599.2,316.4 M607.8,315.2c3,0,6,0,9,0c0-8.2,0-16.4,0-24.5C613.8,298.8,610.8,307,607.8,315.2z"/>
	<path class="st1" d="M660.2,274.3c2.1-1.1,4.8-1.1,6.9,0c2.1,1.1,2.9,3.5,2.9,5.7c0,4.3,0,8.6,0,12.9c0,2.1-1,4.2-2.9,5.3
		c1,0.2,2,0.4,2.9,0.6c0,1,0,2.1,0,3.1c-2.6-0.5-5.3-1-7.9-1.5c0-0.5,0-1.1,0-1.6c-2.6-0.4-4.6-2.7-4.7-5.3c-0.2-4.4,0-8.8-0.1-13.2
		C657.3,278,658.1,275.5,660.2,274.3 M663,277.1c-1.1,0.3-1.5,1.5-1.4,2.6c0,4.6,0,9.2,0,13.8c0,1.2,0.9,2.4,2.2,2.3
		c1.3,0.1,2.2-1.3,2.1-2.5c0-4.7,0.1-9.4,0-14.1C665.8,277.7,664.3,276.6,663,277.1z"/>
	<path class="st1" d="M672.4,273.8c1.4,0,2.8,0,4.2,0c0,6.6-0.1,13.3,0.1,19.9c0,2.3,4,2.3,4-0.1c0.1-6.6,0-13.3,0.1-19.9
		c1.3,0,2.6,0,3.9,0c0,6.4,0,12.7,0,19.1c0,2.1-0.7,4.5-2.7,5.4c-2.1,1-4.7,0.9-6.7-0.1c-2-1-2.7-3.3-2.7-5.4
		C672.4,286.5,672.4,280.2,672.4,273.8z"/>
	<path class="st1" d="M690.4,273.8c1.6,0,3.2,0,4.8,0c1.6,8.3,3.2,16.6,4.7,24.9c-1.4,0-2.9,0-4.3,0c-0.3-1.5-0.5-3-0.8-4.5
		c-1.5,0-2.9,0-4.4,0c-0.2,1.5-0.5,3-0.7,4.5c-1.3,0-2.7,0-4,0C687.3,290.4,688.9,282.1,690.4,273.8 M692.6,281
		c-0.6,3.3-1.1,6.5-1.6,9.8c1.1,0,2.2,0,3.3,0C693.7,287.5,693.3,284.3,692.6,281z"/>
	<path class="st1" d="M701.6,273.8c1.4,0,2.8,0,4.2,0c0,7.2,0,14.3,0,21.5c1.7,0,3.3,0,5,0c0,1.1,0,2.3,0,3.4c-3.1,0-6.1,0-9.2,0
		C701.6,290.4,701.6,282.1,701.6,273.8z"/>
	<path class="st1" d="M712.7,273.8c1.4,0,2.8,0,4.2,0c0,8.3,0,16.6,0,24.9c-1.4,0-2.8,0-4.2,0C712.7,290.4,712.7,282.1,712.7,273.8z
		"/>
	<path class="st1" d="M718.9,273.8c3.7,0,7.4,0,11.1,0c0,1.1,0,2.3,0,3.4c-1.1,0-2.3,0-3.4,0c0,7.2,0,14.3,0,21.5
		c-1.4,0-2.8,0-4.2,0c0-7.2,0-14.3,0-21.5c-1.1,0-2.3,0-3.4,0C718.9,276.1,718.9,275,718.9,273.8z"/>
	<path class="st1" d="M731.2,273.8c1.5,0,2.9,0,4.4,0c0.9,3.1,1.7,6.3,2.5,9.4c0.9-3.1,1.7-6.3,2.5-9.4c1.3,0,2.7,0,4,0
		c-1.5,5.1-3.1,10.1-4.5,15.2c-0.2,3.2,0,6.5-0.1,9.7c-1.4,0-2.8,0-4.2,0c-0.3-4.1,0.7-8.4-0.9-12.3
		C733.8,282.2,732.5,278,731.2,273.8z"/>
	<path class="st1" d="M703,308.7c2.4-0.6,5.4-0.5,7,1.6c1.5,2.1,1,4.9,1.1,7.3c-1.3,0-2.6,0-3.8,0c0-1.4,0.1-2.9-0.1-4.3
		c-0.3-1.8-3.1-1.9-3.7-0.3c-0.4,1.2-0.2,2.4-0.3,3.6c0.1,4-0.1,8,0.1,12c0.1,2,3.2,2.4,3.9,0.6c0.4-1.9,0.1-3.9,0.2-5.9
		c1.3,0,2.6,0,3.8,0c-0.2,2.9,0.6,6.2-1.2,8.7c-1.9,2.3-5.6,2.3-8.1,1.1c-2.1-1.1-2.9-3.7-2.8-5.9c0-4.3,0-8.6,0-12.9
		C699.1,311.8,700.5,309.3,703,308.7z"/>
	<path class="st1" d="M750.3,308.5c2.1-0.4,4.5-0.2,6.1,1.3c1.5,1.3,2,3.4,1.9,5.3c0,4.1,0,8.2,0,12.3c0,2.2-0.9,4.6-3,5.7
		c-2.1,1-4.6,1-6.7,0c-2.1-1.1-3-3.5-3-5.7c0-4.4,0-8.8,0-13.2C745.7,311.6,747.6,308.9,750.3,308.5 M751.2,312
		c-1,0.4-1.3,1.6-1.3,2.5c0,4.2,0,8.4,0,12.6c0,0.8,0,1.6,0.4,2.3c0.7,1.3,2.9,1.2,3.6-0.1c0.4-0.9,0.3-1.8,0.3-2.7
		c-0.1-4.2,0.1-8.4-0.1-12.6C754.2,312.5,752.5,311.4,751.2,312z"/>
	<path class="st1" d="M657.4,308.7c3.3,0,6.7,0,10,0c0,1.1,0,2.3,0,3.4c-1.9,0-3.9,0-5.8,0c0,2.4,0,4.7,0,7.1c1.4,0,2.8,0,4.2,0
		c0,1.1,0,2.3,0,3.4c-1.4,0-2.8,0-4.1,0c0,2.5,0,5,0,7.5c1.9,0,3.9,0,5.8,0c0,1.1,0,2.3,0,3.4c-3.3,0-6.7,0-10,0
		C657.4,325.3,657.4,317,657.4,308.7z"/>
	<path class="st1" d="M669.6,308.7c3.2,0.2,6.6-0.6,9.7,0.7c2,1,2.8,3.4,2.8,5.5c0,4.1,0,8.2,0,12.3c0,2.2-0.8,4.7-2.9,5.8
		c-3,1.3-6.4,0.4-9.6,0.7C669.6,325.3,669.6,317,669.6,308.7 M673.8,312.1c0,6,0,12,0,18.1c1.5,0.1,3.9,0.2,4.1-1.8
		c0.2-4.2,0-8.4,0.1-12.6c0-1.1,0.1-2.5-0.9-3.2C676,311.9,674.9,312.1,673.8,312.1z"/>
	<path class="st1" d="M684.5,308.7c1.4,0,2.8,0,4.2,0c0,6.6-0.1,13.1,0,19.7c-0.1,1.3,1.3,2.3,2.6,1.9c1.2-0.2,1.5-1.5,1.5-2.5
		c0-6.4,0-12.7,0-19.1c1.3,0,2.6,0,3.9,0c0,6.4,0,12.7,0,19.1c0,2.1-0.7,4.5-2.7,5.5c-2,0.9-4.5,0.9-6.5,0c-2.1-0.9-2.9-3.3-2.9-5.5
		C684.5,321.4,684.5,315,684.5,308.7z"/>
	<path class="st1" d="M717.1,308.7c1.6,0,3.2,0,4.8,0c1.6,8.3,3.2,16.6,4.7,24.9c-1.4,0-2.9,0-4.3,0c-0.3-1.5-0.5-3-0.8-4.6
		c-1.5,0-2.9,0-4.4,0c-0.2,1.5-0.5,3-0.7,4.6c-1.3,0-2.7,0-4,0C714,325.3,715.5,317,717.1,308.7 M719.3,315.7
		c-0.6,3.3-1.1,6.6-1.6,9.9c1.1,0,2.2,0,3.3,0C720.4,322.4,719.9,319,719.3,315.7z"/>
	<path class="st1" d="M726,308.7c3.7,0,7.4,0,11.1,0c0,1.1,0,2.3,0,3.4c-1.1,0-2.3,0-3.4,0c0,7.2,0,14.3,0,21.5c-1.4,0-2.8,0-4.3,0
		c0-7.2,0-14.3,0-21.5c-1.1,0-2.3,0-3.4,0C726,311,726,309.8,726,308.7z"/>
	<path class="st1" d="M739.1,308.7c1.4,0,2.8,0,4.2,0c0,8.3,0,16.6,0,24.9c-1.4,0-2.8,0-4.2,0C739.1,325.3,739.1,317,739.1,308.7z"
		/>
	<path class="st1" d="M760.7,308.7c1.4,0,2.7,0,4.1,0c1.5,4.6,2.9,9.3,4.5,13.9c0.1-4.6,0-9.3,0-13.9c1.2,0,2.3,0,3.5,0
		c0,8.3,0,16.6,0,24.9c-1.2,0-2.5,0-3.7,0c-1.6-5.1-3.2-10.2-4.8-15.3c-0.1,5.1,0,10.2,0,15.3c-1.2,0-2.4,0-3.5,0
		C760.7,325.3,760.7,317,760.7,308.7z"/>
	<path class="st1" d="M789.5,373.1c0.1-3.2,3-5.8,6.2-5.8c3.2-0.1,6.2,2.6,6.3,5.8c0.1,2.4,0,4.8,0,7.2c-4.2,0-8.4,0-12.5,0
		C789.5,378,789.4,375.5,789.5,373.1z"/>
	<path class="st1" d="M637.1,380.4c1.7-1.7,3.8-3,5.7-4.6c0,34.8,0,69.6,0,104.5c18.7,5.2,37.4,10.4,56.1,15.7
		c2.8,1,5.8,0.7,8.7,0.6c19.5-6.3,39-12.6,58.5-18.9c0-33.9,0-67.9,0-101.8c1.9,1.5,3.8,3,5.7,4.5c0,33.8,0,67.6,0,101.4
		c-21.4,6.5-42.7,13.6-64.1,20.2c-2.4,0.1-4.8,0.2-7.2-0.1c-21.2-5.9-42.3-11.7-63.5-17.6C637.1,449.7,637,415.1,637.1,380.4z"/>
	<path class="st1" d="M648.3,376.1c17.7,10.2,35.3,20.4,52.9,30.6c0,28.1,0,56.2,0,84.3c-17.7-5.3-35.3-10.6-53-16
		C648.3,442,648.3,409.1,648.3,376.1z"/>
	<path class="st1" d="M707.1,406.9c17.8-10.3,35.5-20.5,53.3-30.8c0,33,0,65.9,0,98.9c-17.8,5.3-35.5,10.7-53.3,16
		C707.1,463,707.1,434.9,707.1,406.9z"/>
	<path class="st1" d="M789.4,385.3c4.2,0,8.4,0,12.5,0c0,28.3,0,56.6,0,84.9c0,1.4,0.1,2.7-0.3,4.1c-2,7-4,14-6,21
		c-1.9-6.5-3.7-13-5.6-19.5c-0.3-1-0.7-2.1-0.7-3.2C789.4,443.4,789.4,414.3,789.4,385.3z"/>
</g>
</svg>
