<?xml version="1.0" encoding="utf-8"?>
<!-- Generator: Adobe Illustrator 19.0.0, SVG Export Plug-In . SVG Version: 6.00 Build 0)  -->
<svg version="1.1" id="Layer_1" xmlns="http://www.w3.org/2000/svg" xmlns:xlink="http://www.w3.org/1999/xlink" x="0px" y="0px"
	 viewBox="568 246 300 300" style="enable-background:new 568 246 300 300;" xml:space="preserve">
<style type="text/css">
	.st0{fill:#FFFFFF;}
	.st1{fill:#ccc;}
</style>
<g>
	<rect x="568" y="246" class="st0" width="300" height="300"/>
	<path class="st1" d="M616,277.3c2.3-3.6,6.8-5,10.9-5c4.2-0.2,9,0.9,11.5,4.6c3.1,4.4,2.3,10,2.3,15c-0.1,4-2.9,7.6-6.7,8.8
		c2.2,0.6,4.3,1.7,5.5,3.7c1.8,2.7,1.7,6.1,1.7,9.3c-0.1,4.7,0.6,9.9-2.1,14.1c-2.3,3.8-6.9,5.3-11.2,5.4c-4.3,0.2-9.3-0.6-12.1-4.2
		c-4-5.3-2.7-12.3-2.9-18.5c3,0,6.1,0,9.1,0c0,3,0,6,0,9c0,1.7,0.5,3.7,2.1,4.7c1.4,0.8,3.3,0.9,4.8,0.1c1.6-0.9,2.2-2.8,2.2-4.5
		c0.1-3.4,0-6.9,0-10.3c0.1-1.7-0.7-3.7-2.5-4.3c-2.1-0.7-4.4-0.3-6.6-0.4c0-2.5,0-5.1,0-7.6c2.6-0.1,5.6,0.6,7.8-1.3
		c1.8-1.6,1.3-4.2,1.4-6.3c-0.1-2.3,0.3-4.7-0.6-6.8c-1.3-3.1-6.7-2.9-7.6,0.5c-0.8,3-0.3,6.1-0.4,9.2c-3,0-6.1,0-9.1,0
		C613.6,287.4,613.1,281.8,616,277.3z"/>
	<path class="st1" d="M665,273c2.4-0.8,5.4-0.8,7.3,1c1.9,2.1,1.3,5.1,1.4,7.7c-1.3,0-2.6,0-3.8,0c-0.1-1.5,0.2-3-0.2-4.5
		c-0.5-1.6-3.2-1.6-3.7,0c-0.4,1.2-0.2,2.4-0.2,3.6c0.1,4-0.2,8,0.1,12c0.1,1.9,3.3,2.3,3.9,0.4c0.4-1.9,0.1-3.9,0.2-5.8
		c1.3,0,2.6,0,3.8,0c-0.2,2.8,0.6,5.9-1.1,8.4c-1.7,2.4-5.2,2.5-7.7,1.6c-2.3-0.9-3.4-3.5-3.4-5.8c0-4.3,0-8.6,0-12.9
		C661.6,276.5,662.7,273.9,665,273z"/>
	<path class="st1" d="M599.4,273.5c0.2-0.2,0.5-0.6,0.8-0.5c2.5,0,5.1,0,7.6,0c0,19.8-0.1,39.7-0.1,59.5c-3.3,0-6.7,0-10,0
		c0-15.2,0.1-30.4,0-45.6c-2.4,2.4-4.8,5-7.2,7.4c0-3.3,0-6.6,0-10c-0.1-0.5,0.2-0.8,0.5-1.2C593.9,280,596.6,276.8,599.4,273.5z"/>
	<path class="st1" d="M676,272.8c1.4,0,2.8,0,4.2,0c0,7.2,0,14.3,0,21.5c1.7,0,3.3,0,5,0c0,1.1,0,2.3,0,3.4c-3.1,0-6.1,0-9.2,0
		C676,289.4,676,281.1,676,272.8z"/>
	<path class="st1" d="M687.1,272.8c1.4,0,2.8,0,4.2,0c-0.1,8.3,0,16.6,0,24.9c-1.4,0-2.8,0-4.2,0
		C687.1,289.4,687.1,281.1,687.1,272.8z"/>
	<path class="st1" d="M693.7,272.9c1.6,0,3.3,0,4.9,0c0.9,4.6,1.7,9.3,2.7,13.9c0.9-4.6,1.6-9.3,2.5-13.9c1.8,0,3.5,0,5.3,0
		c0,8.3,0,16.6,0,24.9c-1.3,0-2.6,0-3.9,0c0-5.4,0-10.8,0-16.3c-1.1,5.4-1.9,10.8-2.9,16.2c-0.7,0-1.3,0-2,0c-1.1-5.3-2-10.7-3.1-16
		c-0.1,5.3,0,10.7-0.1,16c-1.2,0-2.3,0-3.5,0C693.7,289.5,693.7,281.2,693.7,272.9z"/>
	<path class="st1" d="M715.5,272.9c1.6,0,3.2,0,4.8,0c1.6,8.3,3.1,16.6,4.7,24.9c-1.4,0-2.9,0-4.3,0c-0.3-1.5-0.5-3-0.8-4.5
		c-1.5,0-2.9,0-4.4,0c-0.2,1.5-0.5,3-0.7,4.5c-1.3,0-2.7,0-4,0C712.3,289.5,713.9,281.2,715.5,272.9 M717.7,280.1
		c-0.6,3.2-1.1,6.5-1.7,9.8c1.1,0,2.2,0,3.3,0C718.8,286.6,718.3,283.3,717.7,280.1z"/>
	<path class="st1" d="M724.4,272.9c3.7,0,7.4,0,11.1,0c0,1.1,0,2.3,0,3.4c-1.1,0-2.3,0-3.4,0c0,7.2,0,14.3,0,21.5
		c-1.4,0-2.8,0-4.2,0c0-7.2,0.1-14.3,0-21.5c-1.1,0-2.3,0-3.4,0C724.4,275.2,724.4,274,724.4,272.9z"/>
	<path class="st1" d="M737.5,272.9c3.3,0,6.7,0,10,0c0,1.1,0,2.3,0,3.4c-1.9,0-3.9,0-5.8,0c0,2.4,0,4.7,0,7.1c1.4,0,2.8,0,4.1,0
		c0,1.1,0,2.3,0,3.4c-1.4,0-2.8,0-4.2,0c0,2.5,0,5,0,7.5c1.9,0,3.9,0,5.8,0c0,1.1,0,2.3,0,3.4c-3.3,0-6.7,0-10,0
		C737.4,289.5,737.4,281.2,737.5,272.9z"/>
	<path class="st1" d="M680.1,307.7c2.4-0.6,5.5-0.6,7.2,1.5c1.6,2.1,1.1,4.9,1.2,7.4c-1.3,0-2.6,0-3.9,0c0-1.4,0.1-2.9-0.1-4.3
		c-0.3-1.8-3.2-1.8-3.8-0.2c-0.5,5.1-0.2,10.4-0.2,15.6c0.1,1.9,3.3,2.3,3.9,0.5c0.4-1.9,0.1-3.9,0.2-5.8c1.3,0,2.5,0,3.8,0
		c-0.1,2.7,0.5,5.8-0.9,8.3c-1.6,2.5-5.3,2.7-7.8,1.7c-2.3-0.9-3.4-3.5-3.4-5.8c0-4.3,0-8.6,0-12.9
		C676.3,311.2,677.6,308.4,680.1,307.7z"/>
	<path class="st1" d="M714,307.6c2.1-0.4,4.5-0.2,6.2,1.2c1.5,1.3,2,3.5,2,5.4c0,4.1,0,8.2,0,12.3c0,2.3-1,4.7-3.1,5.7
		c-2.1,0.9-4.8,0.9-6.8-0.2c-2-1.2-2.8-3.6-2.7-5.8c0-4.4-0.1-8.8,0.1-13.2C709.7,310.6,711.4,308.1,714,307.6 M714.9,311.1
		c-1,0.5-1.2,1.8-1.2,2.8c0,4.3,0,8.6,0,12.9c-0.1,1.2,0.7,2.6,2,2.5c1.3,0.2,2.3-1,2.2-2.3c0-4.7,0.1-9.4,0-14.1
		C718,311.5,716.3,310.4,714.9,311.1z"/>
	<path class="st1" d="M665.6,307.7c1.6,0,3.2,0,4.8,0c1.6,8.3,3.1,16.6,4.7,24.9c-1.4,0-2.9,0-4.3,0c-0.3-1.5-0.5-3-0.8-4.5
		c-1.5,0-2.9,0-4.4,0c-0.2,1.5-0.5,3-0.7,4.5c-1.3,0-2.7,0-4,0C662.5,324.3,664,316,665.6,307.7 M667.8,314.8
		c-0.6,3.3-1.1,6.6-1.7,9.9c1.1,0,2.2,0,3.3,0C668.9,321.4,668.4,318.1,667.8,314.8z"/>
	<path class="st1" d="M689.9,307.7c3.7,0,7.4,0,11.1,0c0,1.1,0,2.3,0,3.4c-1.2,0-2.3,0-3.5,0c0,7.2,0,14.3,0,21.5
		c-1.4,0-2.8,0-4.2,0c0.1-7.2,0-14.3,0.1-21.5c-1.2,0-2.3,0-3.5,0C689.8,310,689.8,308.8,689.9,307.7z"/>
	<path class="st1" d="M702.9,332.6c0-8.3,0-16.6,0-24.9c1.4,0,2.8,0,4.2,0c0,8.3,0,16.6-0.1,24.9
		C705.7,332.6,704.3,332.6,702.9,332.6z"/>
	<path class="st1" d="M724.6,307.7c1.4,0.1,2.8-0.2,4.1,0.1c1.6,4.7,2.9,9.4,4.5,14c0-4.7,0-9.4,0-14.1c1.2,0,2.3,0,3.5,0
		c0,8.3,0,16.6,0,24.9c-1.2,0-2.5,0-3.7,0c-1.6-5.1-3.2-10.3-4.9-15.5c0,5.2,0,10.3,0,15.5c-1.2,0-2.4,0-3.5,0
		C724.5,324.3,724.6,316,724.6,307.7z"/>
	<path class="st1" d="M673.4,386.8c22.2-8.2,46.6-10.1,69.9-6.2c34.3,5.7,65.9,25.6,86.1,53.9c-15.4,21.5-37.4,38.1-62.1,47.3
		c-22.2,8.2-46.7,10.2-70,6.4c-34.4-5.6-66.1-25.6-86.3-54C626.4,412.7,648.5,396,673.4,386.8 M695.8,396.2
		c3.6-0.3,7.2-0.8,10.7-0.6c1.2,0.1,2.6,0.3,3.6,1.2c1,1.1-0.2,2.6,0.6,3.8c0.8,1.6,2.6,2.1,3.6,3.4c0.4,0.6-0.4,1.1-0.9,1.4
		c-2.3,1.2-4.4,2.9-6.9,3.7c-0.6,0.3-1.2-0.2-1.6-0.6c1.2-2.1,3.9-2.3,5.6-3.9c-2.5-2.1-5.8,0.1-8.6,0.4c-4.1,0.5-9.3,0-12,3.9
		c-0.4,2.7,3.3,3.1,5.2,3.8c2.1,1,4-0.6,5.3-2.2c0.9-1.3,2.9-1.4,3.8-0.1c-1.8,1-3.1,2.7-4.7,3.9c-1.9,1.2-3.8-0.5-5.7-0.5
		c-1.9,0-4-0.1-5.6,1.2c-1.2,0.9-2.5,1.4-3.7,2.1c0.7,1.4,0.2,3.2-1.5,3.4c-1.8-0.8-4.1-1.1-5.8,0.1c-0.8,1.2-0.6,3,0.4,4
		c1.1,0.7,2.1-0.5,3.1-0.7c2.3-0.5,4.8-0.8,6.7-2.4c0.6-0.6,1.5-1.2,2.4-0.6c2.1,1.4,2,4.7,4.5,5.7c-0.2-1.4-0.9-2.7-1-4.1
		c1.6,0.1,2.1,1.8,3.2,2.7c0.9-0.4,1.9-1.1,2.8-0.6c1.2,0.8,1.1,2.8-0.1,3.5c-1.7,1.6-4.3,1.7-6.4,0.8c-4-1.5-8-3.3-12.3-3.7
		c-1.1,0.3-2.6,0.4-3.1,1.7c-0.7,1.5-2.4,2.5-2.4,4.3c-0.5,7.2,0.6,14.5,3.5,21.2c2.8,1.5,4.8-2,7.5-1.9c1.4,1.2,3.6,2.2,3.6,4.4
		c0.1,1.5,2-0.5,2.6,0.6c0.7,1.6,0.4,3.6,1.4,5.1c0.3,0,0.7,0,1,0c0.1,2.4,0.1,4.8,0.8,7c0.3,0.8,0.9,1.8,1.9,1.6
		c2.6-0.2,5.4-1.3,6.7-3.6c1.2-1.7,1.6-3.8,2.2-5.7c0.3-1.1,1.8-1.3,1.9-2.4c0.3-1.7,1.2-3.2,1.1-5c0-1.6-0.2-3.4,0.9-4.7
		c1.2-1.7,3.8-2.8,3.5-5.3c-0.8-1.8-3.1-2-4.3-3.4c-2-2-3.7-4.8-3.1-7.7c2.4,1.6,3.8,4.2,6,6c1.5,1.1,3.4,0.1,4.8-0.8
		c1.2-0.8,2.5-2.4,1.5-3.9c-2.1-2.7-5-4.6-7-7.4c-0.5-0.5-0.1-1.4,0.7-1.2c1.3,0.4,2.2,1.5,3.3,2.2c1.1,0.8,2.5,1.1,3.6,1.9
		c1.9,1.2,1.1,4,3,5.2c2.9,2,6.9,1.9,9.5,4.5c0.8,0.6,1.7,2.3,2.8,1.3c1.2-1.6,2.5-3.6,1.9-5.7c-0.8-2.5,3.5-3.3,4.5-1.3
		c1.3,2.7,2.1,5.6,3.5,8.3c1.5,2.2,3.8,3.8,6,5.2c0.5,0.4,1.8,0.5,1.8-0.5c-0.3-2.3-2.4-3.9-2.6-6.1c0.1-1.8,0.7-3.8,2.3-4.8
		c2.2-0.5,4.4-1.2,6-2.9c0.6-0.7-0.2-1.5-0.5-2.1c-0.7-1.2-1.2-3-0.2-4.1c1.8,0,2.2,2.5,3.9,2.6c2.2,0.4,3.9-1.8,3.4-3.8
		c-3.8-17.4-18.9-31.6-36.5-34.4C717,387.9,705.2,390.2,695.8,396.2 M686.8,402.3c-1.2,1.3-2.3,2.8-3.3,4.2c1.3,1.9,3.7,0.7,5.2-0.3
		c1.5-0.7,1.9-2.5,1.7-4C689.4,401.3,687.8,401.7,686.8,402.3 M681.8,410.5c-1.7,2.2-2.8,4.8-3.8,7.3c2.5,0.3,3.9-2.2,5.5-3.6
		c1.3-1.7,3.5-2.1,4.7-3.8C686.5,408.6,683.6,409.2,681.8,410.5 M761.6,428.9c0.3,1,1.6,2.2,0.8,3.3c-2.9,3.7-0.8,9.1,2.4,11.9
		c0.8-3.8,1.1-7.7,1-11.5C765.6,430.5,763.8,428.6,761.6,428.9 M751.7,440.5c0.5,1.4,2.5,1.6,3.5,0.7c-0.6-1.2-1.5-2.6-2.9-2.8
		C751.2,438.5,751.3,439.8,751.7,440.5 M729.2,438.9c-0.8,0.4-1.9,1.7-0.8,2.4c1.2,0.7,3.3,1.3,4.3,0
		C732.7,439.7,730.7,438.4,729.2,438.9 M754.1,443.2c-0.7,0.4-1.8,1.4-0.9,2.2c1.2,0.9,3.2,1.4,4.5,0.3
		C757.8,444.1,755.6,442.6,754.1,443.2 M758.3,447.7c-4.2,2.7-9.5,2.2-13.8,4.6c-3,2-5,6.1-3.4,9.6c0.7,1.5,0.5,3.5,1.7,4.7
		c1.7,0.2,2.8-1.5,4.4-1.9c0.1,0.6-0.3,1.4,0.2,1.9c0.8,0.3,1.4-0.8,2.2-0.7c0.9,0.2,1.8,0.6,2.7,1c4.5-4.5,8.1-9.9,10.4-15.9
		c0.3-1.7-0.5-3.3-1.5-4.7C760.2,446,759.2,447.3,758.3,447.7 M713.4,446.8c-1.3,0.6-2.2,2-2.5,3.4c-0.5,2.5-1.1,5-0.7,7.5
		c0,0.6,0.7,0.9,0.9,0.3c1.4-2.2,1.7-4.9,2.7-7.2c0.5-1.1,1.3-2.2,1.2-3.5C714.9,446.5,714,446.5,713.4,446.8 M736.8,472.8
		c-1.1,0.8-2.1,2.4-3.7,1.9c-5.5-1.5-11-4.2-16.8-4c-3.5,0.2-7.4,1.6-9.1,4.9c-0.6,0.9-0.6,2.4,0.6,2.8c13.5,4,29,1.2,40.1-7.5
		C744.2,468.9,739.6,470.1,736.8,472.8z"/>
</g>
</svg>
