<?xml version="1.0" encoding="utf-8"?>
<!-- Generator: Adobe Illustrator 19.0.0, SVG Export Plug-In . SVG Version: 6.00 Build 0)  -->
<svg version="1.1" id="Layer_1" xmlns="http://www.w3.org/2000/svg" xmlns:xlink="http://www.w3.org/1999/xlink" x="0px" y="0px"
	 viewBox="568 246 300 300" style="enable-background:new 568 246 300 300;" xml:space="preserve">
<style type="text/css">
	.st0{fill:#FFFFFF;}
	.st1{fill:#ccc;}
</style>
<g>
	<rect x="568" y="246" class="st0" width="300" height="300"/>
	<path class="st1" d="M613.7,273.2c2.7,0,5.3,0,8,0c0,19.8,0,39.7,0,59.5c-3.3,0-6.7,0-10,0c0-15.2,0-30.4,0-45.6
		c-2.4,2.4-4.8,5-7.2,7.4c0-3.3,0-6.6,0-9.9c0-0.7,0.5-1.1,0.8-1.6C608.1,279.8,610.9,276.5,613.7,273.2z"/>
	<path class="st1" d="M673.9,273.7c2.1-0.4,4.6-0.2,6.3,1.4c1.4,1.3,1.9,3.4,1.9,5.2c0,4.1,0,8.2,0,12.3c0,2.2-0.9,4.7-3.1,5.7
		c-2.1,1-4.7,1-6.7-0.1c-2.1-1.1-2.9-3.7-2.9-5.9c0-4.3,0-8.6,0-12.9C669.4,276.8,671.2,274.1,673.9,273.7 M674.7,277.2
		c-1,0.4-1.2,1.5-1.2,2.5c0,4.1,0,8.2,0,12.3c0,0.8,0,1.7,0.4,2.5c0.7,1.3,2.9,1.3,3.6,0c0.5-1,0.3-2.1,0.4-3.1
		c-0.1-4.1,0.1-8.2-0.1-12.3C677.8,277.6,676.1,276.5,674.7,277.2z"/>
	<path class="st1" d="M654.8,273.8c1.4,0,2.8,0,4.1,0c1.5,4.7,2.9,9.4,4.5,14c0-4.7,0-9.4,0-14c1.2,0,2.3,0,3.5,0
		c0,8.3,0,16.6,0,24.9c-1.2,0-2.5,0-3.7,0c-1.6-5.1-3.2-10.3-4.9-15.4c0,5.1,0,10.3,0,15.4c-1.2,0-2.4,0-3.5,0
		C654.8,290.4,654.8,282.1,654.8,273.8z"/>
	<path class="st1" d="M673.6,308.5c2.1-0.4,4.5-0.2,6.1,1.3c1.5,1.3,2,3.4,2,5.3c0,4.1,0,8.2,0,12.3c0,2.2-0.9,4.7-3,5.7
		c-2.1,1-4.8,1-6.9-0.2c-2-1.2-2.8-3.6-2.7-5.8c0-4.3,0-8.6,0-12.9C669,311.6,670.8,308.9,673.6,308.5 M674.4,312
		c-1,0.4-1.3,1.5-1.3,2.5c0,4.1,0,8.2,0,12.3c0,0.9-0.1,1.8,0.4,2.6c0.7,1.3,2.9,1.3,3.6-0.1c0.4-0.9,0.3-1.8,0.3-2.8
		c-0.1-4.2,0.1-8.4,0-12.5C677.5,312.5,675.8,311.4,674.4,312z"/>
	<path class="st1" d="M654.8,308.7c2.4,0,4.8-0.1,7.2,0c1.7,0.1,3.5,0.9,4.2,2.5c0.9,2,0.5,4.2,0.6,6.3c0,2.1,0.2,4.7-1.4,6.3
		c-1.7,1.6-4.2,1.4-6.4,1.4c0,2.8,0,5.6,0,8.4c-1.4,0-2.8,0-4.2,0C654.8,325.3,654.8,317,654.8,308.7 M659,312.1c0,3.3,0,6.6,0,9.8
		c1.2-0.1,3.1,0.3,3.5-1.3c0.2-2.4,0.2-4.8,0-7.2C662.2,311.8,660.2,312.1,659,312.1z"/>
	<path class="st1" d="M682.6,308.7c1.4,0,2.9,0,4.3,0c1,5.7,1.9,11.5,2.9,17.2c1-5.7,2-11.5,2.9-17.2c1.3,0,2.6,0,4,0
		c-1.6,8.3-3.2,16.6-4.7,24.9c-1.5,0-3.1,0-4.6,0C685.8,325.3,684.2,317,682.6,308.7z"/>
	<path class="st1" d="M698.4,308.7c3.3,0,6.7,0,10,0c0,1.1,0,2.3,0,3.4c-1.9,0-3.9,0-5.8,0c0,2.4,0,4.7,0,7.1c1.4,0,2.8,0,4.2,0
		c0,1.1,0,2.3,0,3.4c-1.4,0-2.8,0-4.2,0c0,2.5,0,5,0,7.5c1.9,0,3.9,0,5.8,0c0,1.1,0,2.3,0,3.4c-3.3,0-6.7,0-10,0
		C698.4,325.3,698.4,317,698.4,308.7z"/>
	<path class="st1" d="M710.6,308.7c2.5,0,4.9-0.1,7.4,0.1c1.8,0.1,3.7,1.3,4.2,3.1c0.5,2.3,0.4,4.7,0.2,7.1
		c-0.2,1.7-1.6,2.9-3.2,3.4c1.3,3.7,2.7,7.5,4,11.2c-1.5,0-3,0-4.4,0c-1.3-3.7-2.5-7.5-3.9-11.2c0,3.7,0,7.4,0,11.2
		c-1.4,0-2.8,0-4.2,0C710.6,325.3,710.6,317,710.6,308.7 M714.8,312.1c0,2.6,0,5.2,0,7.8c1.2-0.1,3,0.2,3.3-1.3
		c0.2-1.7,0.2-3.6,0-5.3C717.7,311.8,716,312.1,714.8,312.1z"/>
	<path class="st1" d="M723.9,308.7c3.7,0,7.4,0,11.2,0c0,1.1,0,2.3,0,3.4c-1.2,0-2.3,0-3.5,0c0,7.2,0,14.3,0,21.5
		c-1.4,0-2.8,0-4.2,0c0-7.2,0-14.3,0-21.5c-1.1,0-2.3,0-3.4,0C723.9,311,723.9,309.8,723.9,308.7z"/>
	<path class="st1" d="M736.2,308.7c1.5,0,2.9,0,4.4,0c0.9,3.1,1.6,6.2,2.5,9.3c0.9-3.1,1.7-6.2,2.5-9.3c1.3,0,2.7,0,4,0
		c-1.5,5.1-3.1,10.2-4.5,15.3c-0.2,3.2,0,6.4-0.1,9.6c-1.4,0-2.8,0-4.2,0c-0.2-4.1,0.7-8.4-0.9-12.3
		C738.8,317,737.5,312.9,736.2,308.7z"/>
	<path class="st1" d="M624.1,381.2c4.7-1,9.6,3,9.6,7.8c0.3,4.8-4.3,9.1-9.1,8.4c-4.8-0.4-8.3-5.5-7-10.1
		C618.3,384.2,620.9,381.7,624.1,381.2z"/>
	<path class="st1" d="M804.5,381.2c4.1-0.8,8.4,2,9.3,6c1.2,4.1-1.5,8.8-5.7,9.9c-4.3,1.4-9.4-1.6-10.3-6.1
		C796.8,386.6,800,381.8,804.5,381.2z"/>
	<path class="st1" d="M693.8,385.9c4.8-1,9.6,3.5,9,8.4c-0.3,4.8-5.7,8.3-10.2,6.6c-3.3-1-5.6-4.4-5.3-7.8
		C687.4,389.6,690.3,386.4,693.8,385.9z"/>
	<path class="st1" d="M740.1,385.9c4.8-1,9.7,3.5,9,8.4c-0.3,4.8-5.7,8.3-10.2,6.6c-3.3-1.1-5.6-4.6-5.2-8.1
		C734,389.4,736.7,386.4,740.1,385.9z"/>
	<path class="st1" d="M606.1,410.9c0.1-5.4,4.8-10.2,10.2-10.4c6.1-0.1,12.1,0,18.2,0c5.5,0.1,10.3,4.9,10.4,10.4
		c0,7.4,0,14.8,0,22.2c1.1-0.8,2.8-1.1,3.7,0.1c1.6,2.1,2.7,4.7,4.4,6.7c0.6,0.8,1.6,1,2.6,1c2.3,0,4.7,0,7,0c0.9,0,1.7-0.4,2.2-1
		c1.7-2.1,2.8-4.6,4.4-6.7c0.9-1.1,2.5-0.8,3.5-0.1c2-7.1,4.3-14.2,6.4-21.3c1.1-3.4,3.9-6.8,7.7-6.7c5.5,0,10.9,0,16.4,0
		c3.5,0,6.2,3.1,7.3,6.2c2.1,6.6,4.1,13.3,6.2,20c0.4,1.2,0.7,2.5,0.2,3.8c-0.6,1.9-3.3,2.7-4.9,1.5c-0.9-0.7-1.3-1.8-1.6-2.8
		c-1.6-5.6-3.3-11.1-4.9-16.7c-0.2-0.6-0.5-1.6-1.3-1.4c-1,0.2-0.8,1.4-0.6,2.1c3,10.8,6,21.6,8.9,32.4c-2.8,0-5.6,0-8.4,0
		c0,7.8,0,15.6,0,23.4c0.1,2.2-1.9,4.2-4.2,4.1c-2.2,0-4-2-3.9-4.1c0-7.8,0-15.6,0-23.4c-0.8,0-1.5,0-2.3,0c0,7.8,0,15.6,0,23.4
		c0.1,2.2-1.9,4.2-4,4.1c-2.2,0.1-4.1-1.9-4-4.1c0-7.8,0-15.6,0-23.4c-2.8,0-5.6,0-8.4,0c3-11,6.1-22,9.1-33
		c0.5-1.1-1.2-2.2-1.7-0.9c-1.9,6-3.6,12.1-5.4,18.1c-0.4,1.4-1.6,2.9-3.2,2.8c-1.2,0-2.1-0.7-2.9-1.5c-2,4-4.3,7.9-6.4,11.8
		c-0.8,1.5-0.6,3.3-0.3,4.9c1.1,3.9,2.1,7.8,3.2,11.8c-1.2,0-2.3,0-3.5,0c0,3.5,0,7.1,0,10.6c0,1.8-1.9,3.2-3.6,2.9
		c-1.6-0.2-2.8-1.6-2.8-3.2c0-3.4,0-6.9,0-10.3c-0.6,0-1.3,0-1.9,0c0,3.4,0,6.9,0,10.3c0.1,1.8-1.5,3.3-3.3,3.2
		c-1.7,0-3.2-1.5-3.1-3.2c0-3.4,0-6.9,0-10.3c-1.1,0-2.3,0-3.4,0c1.1-3.9,2.1-7.9,3.2-11.8c0.3-1.7,0.5-3.6-0.5-5.2
		c-2.1-3.8-4.2-7.5-6.2-11.4c-1.4,2.5-5.6,2-6-1c-0.2-6.8,0.1-13.7-0.1-20.5c0-1.8-2.9-1.6-2.6,0.3c-0.1,19.5,0,39.1,0,58.6
		c0,2.4-2.3,4.4-4.6,4.3c-2.3,0-4.4-2-4.4-4.3c-0.1-11.3,0-22.6-0.1-34c0.1-1.6-2.6-1.6-2.5,0c-0.1,11.2,0,22.5,0,33.7
		c0.1,2.5-2.2,4.7-4.7,4.6c-2.4,0-4.6-2.2-4.5-4.6c0-19.3,0-38.7,0-58c0-0.8-0.3-2-1.4-1.8c-1,0-1.3,1-1.3,1.8c0,6.5,0,12.9,0,19.4
		c0.1,1.8-1.6,3.3-3.4,3.1c-1.7,0-3.1-1.7-3-3.4C606.1,426.2,606,418.6,606.1,410.9z"/>
	<path class="st1" d="M796.1,400.6c6.2-0.2,12.4,0,18.6-0.1c5.6,0,10.6,4.9,10.6,10.5c0.1,7.6,0,15.2,0,22.8
		c0.1,1.8-1.3,3.5-3.1,3.5c-1.7,0.1-3.3-1.4-3.3-3.1c-0.1-6.6,0.1-13.3-0.1-19.9c0-1.6-2.7-1.8-2.6,0c-0.1,19.5,0,39.1-0.1,58.6
		c0.1,2.4-1.9,4.5-4.3,4.6c-2.4,0.2-4.8-1.9-4.8-4.3c-0.1-11.3,0.1-22.7-0.1-34c0.1-1.6-2.6-1.5-2.5,0c-0.1,11.2,0,22.5,0,33.7
		c0.1,2.3-1.8,4.4-4.1,4.6c-2.5,0.4-5-1.8-5.1-4.3c-0.1-19.5,0-39.1,0-58.6c0.4-1.9-2.6-2-2.6-0.2c-0.1,6.6,0,13.3-0.1,19.9
		c0.1,1.8-1.7,3.4-3.6,3.1c-1.7-0.1-2.9-1.8-2.8-3.4c0-7.6,0-15.2,0-22.8C786.6,405.8,790.9,401.1,796.1,400.6z"/>
	<path class="st1" d="M725.7,411.3c1.2-3.2,3.9-6.3,7.5-6.3c5.5,0,10.9,0,16.4,0c3.6,0,6.3,3.2,7.5,6.4c2.1,6.7,4.1,13.3,6.2,20
		c0.4,1.2,0.6,2.4,0.2,3.6c-0.5,1.6-2.6,2.4-4.1,1.8c-1.2-0.5-1.9-1.8-2.3-3c-1.7-5.7-3.4-11.3-5-17c-0.2-0.6-0.5-1.5-1.3-1.3
		c-0.9,0.2-0.8,1.3-0.6,2c3,10.8,6,21.6,8.9,32.5c-2.8,0-5.6,0-8.4,0c0,7.8,0,15.6,0,23.4c0.1,2.1-1.8,4.1-3.9,4.1
		c-2.2,0.1-4.3-1.9-4.2-4.1c0-7.8,0-15.6,0-23.4c-0.8,0-1.5,0-2.3,0c0,7.8,0,15.6,0,23.4c0.1,2.2-1.9,4.2-4.1,4.1
		c-2.2,0-4.1-1.9-4-4.1c0-7.8,0-15.6,0-23.4c-2.8,0-5.6,0-8.4,0c3-10.8,6-21.7,9-32.5c0.2-0.7,0.3-1.7-0.5-2
		c-0.8-0.3-1.2,0.7-1.3,1.3c-1.6,5.6-3.3,11.1-5,16.7c-0.3,1-0.7,2.1-1.6,2.8c-1.5,1.3-4.2,0.6-4.9-1.3c-0.5-1.2-0.2-2.5,0.2-3.7
		C721.7,424.6,723.7,418,725.7,411.3z"/>
	<path class="st1" d="M656.9,424.3c2.6-0.9,5.7,0.1,7.3,2.4c1.9,2.6,1.4,6.5-1,8.6c-2.8,2.7-8,1.9-9.8-1.6
		C651.2,430.3,653.1,425.4,656.9,424.3z"/>
	<path class="st1" d="M773.2,424.2c2.6-0.9,5.7,0.2,7.3,2.5c1.8,2.6,1.4,6.4-1,8.5c-2.8,2.7-7.9,2-9.9-1.5
		C767.4,430.4,769.3,425.3,773.2,424.2z"/>
	<path class="st1" d="M765.3,443c0.8-1.7,2.2-3.5,4.3-3.6c3.8-0.1,7.6-0.2,11.4,0c2,0.1,3.8,1.4,4.5,3.3c1.7,4.4,3.5,8.8,5.3,13.2
		c0.8,1.9-2,4.1-3.5,2.6c-1.8-3.6-2.7-7.7-4.4-11.3c-0.2,9,0,18-0.1,27c0,1.7-1.5,3.2-3.2,3.2c-1.7,0.1-3.3-1.3-3.4-2.9
		c-0.1-3.8,0.1-7.6-0.1-11.4c0-1-1.8-1.1-1.8,0c-0.3,4,0.2,8.1-0.2,12c-0.8,3.2-6,3-6.4-0.3c-0.3-9.2,0.1-18.4-0.2-27.5
		c-1.9,3.8-2.5,8-4.1,11.9c-0.8,1.4-3,1.2-3.7-0.2c-0.5-1.2,0.2-2.4,0.5-3.5C761.9,451.3,763.3,447,765.3,443z"/>
</g>
</svg>
