<?xml version="1.0" encoding="utf-8"?>
<!-- Generator: Adobe Illustrator 19.0.0, SVG Export Plug-In . SVG Version: 6.00 Build 0)  -->
<svg version="1.1" id="Layer_1" xmlns="http://www.w3.org/2000/svg" xmlns:xlink="http://www.w3.org/1999/xlink" x="0px" y="0px"
	 viewBox="568 246 300 300" style="enable-background:new 568 246 300 300;" xml:space="preserve">
<style type="text/css">
	.st0{fill:#FFFFFF;}
	.st1{fill:#ccc;}
</style>
<g>
	<rect x="568" y="246" class="st0" width="300" height="300"/>
	<path class="st1" d="M697,273.1c2.2-0.5,4.8-0.2,6.5,1.4c1.4,1.4,1.8,3.5,1.8,5.5c0,4.1,0,8.2,0,12.3c0,2.3-1.2,4.7-3.4,5.5
		c-2.2,0.8-5,0.8-7-0.6c-1.8-1.3-2.3-3.7-2.3-5.8c0-4.2,0-8.4,0-12.6C692.7,276.2,694.3,273.6,697,273.1 M698.2,276.5
		c-1.1,0.3-1.4,1.6-1.3,2.6c0,4.2,0,8.4,0,12.6c0,0.8,0,1.6,0.4,2.3c0.8,1.2,2.9,1.1,3.5-0.2c0.4-0.8,0.3-1.8,0.3-2.7
		c-0.1-4.2,0-8.4,0-12.6C701.1,277,699.5,276,698.2,276.5z"/>
	<path class="st1" d="M600.7,281.3c0-2.7,0-5.5,0-8.2c8.4,0,16.8,0,25.1,0c-0.1,3.2,0.2,6.5-0.1,9.7c-4.3,16.6-8.6,33.2-12.9,49.8
		c-3.3,0-6.6,0-10,0c4.4-17.1,8.9-34.2,13.3-51.3C611,281.3,605.8,281.3,600.7,281.3z"/>
	<path class="st1" d="M658.5,273.2c1.6,0,3.2,0,4.8,0c1.6,8.3,3.2,16.6,4.7,24.9c-1.4,0-2.9,0-4.3,0c-0.3-1.5-0.5-3-0.8-4.5
		c-1.5,0-2.9,0-4.4,0c-0.2,1.5-0.5,3-0.7,4.5c-1.3,0-2.7,0-4,0C655.4,289.8,656.9,281.5,658.5,273.2 M660.7,280.3
		c-0.6,3.3-1.1,6.6-1.6,9.9c1.1,0,2.2,0,3.3,0C661.8,286.9,661.3,283.6,660.7,280.3z"/>
	<path class="st1" d="M669.7,273.2c3.3,0,6.5,0,9.8,0c0,1.1,0,2.3,0,3.4c-1.9,0-3.7,0-5.6,0c0,2.4,0,4.7,0,7.1c1.4,0,2.8,0,4.2,0
		c0,1.1,0,2.3,0,3.4c-1.4,0-2.8,0-4.2,0c0,3.7,0,7.3,0,11c-1.4,0-2.8,0-4.2,0C669.7,289.8,669.7,281.5,669.7,273.2z"/>
	<path class="st1" d="M681.4,273.2c3.3,0,6.5,0,9.8,0c0,1.1,0,2.3,0,3.4c-1.9,0-3.7,0-5.6,0c0,2.4,0,4.7,0,7.1c1.4,0,2.8,0,4.2,0
		c0,1.1,0,2.3,0,3.4c-1.4,0-2.8,0-4.2,0c0,3.7,0,7.3,0,11c-1.4,0-2.8,0-4.2,0C681.3,289.8,681.3,281.5,681.4,273.2z"/>
	<path class="st1" d="M707.7,273.2c3.2,0.2,6.6-0.6,9.7,0.8c2.9,1.7,2.1,5.6,2.2,8.4c0.1,2.1-1.2,4-3.3,4.5c1.3,3.7,2.7,7.5,4,11.2
		c-1.5,0-3,0-4.4,0c-1.3-3.7-2.5-7.5-3.9-11.2c0,3.7,0,7.5,0,11.2c-1.4,0-2.8,0-4.2,0C707.6,289.8,707.6,281.5,707.7,273.2
		 M711.9,276.6c0,2.6,0,5.2,0,7.8c1.2,0,3,0.2,3.3-1.3c0.2-1.7,0.2-3.5,0-5.2C714.8,276.4,713,276.6,711.9,276.6z"/>
	<path class="st1" d="M721.8,273.2c3.3,0.3,7-0.7,10,0.9c1.8,1.1,2.4,3.3,2.5,5.3c0,4.1,0,8.2,0,12.3c0,2.1-0.7,4.6-2.7,5.6
		c-3.1,1.4-6.5,0.5-9.8,0.7C721.8,289.8,721.8,281.5,721.8,273.2 M726,276.6c0,6,0,12,0,18.1c1.1-0.1,2.3,0.2,3.3-0.5
		c1-0.8,0.8-2.2,0.8-3.4c-0.1-4.2,0.1-8.4-0.1-12.6C729.7,276.4,727.4,276.6,726,276.6z"/>
	<path class="st1" d="M740.2,273.2c1.6,0,3.2,0,4.8,0c1.6,8.3,3.2,16.6,4.7,24.9c-1.4,0-2.9,0-4.3,0c-0.3-1.5-0.5-3-0.8-4.5
		c-1.5,0-2.9,0-4.4,0c-0.2,1.5-0.5,3-0.7,4.5c-1.3,0-2.7,0-4,0C737,289.8,738.6,281.5,740.2,273.2 M740.7,290.2c1.1,0,2.2,0,3.3,0
		c-0.5-3.3-1.1-6.6-1.6-9.9C741.8,283.6,741.3,286.9,740.7,290.2z"/>
	<path class="st1" d="M751.4,273.2c2.3,0,4.7-0.1,7,0c1.6,0.1,3.4,0.8,4.1,2.4c0.8,1.9,0.5,4.1,0.5,6.1c0,1.5-0.9,2.8-2.2,3.4
		c1.5,0.5,2.8,1.7,2.8,3.4c0.1,2.1,0.3,4.3-0.2,6.4c-0.5,1.9-2.3,3-4.2,3.1c-2.6,0.1-5.2,0-7.8,0.1
		C751.4,289.8,751.4,281.5,751.4,273.2 M755.6,276.6c0,2.4,0,4.7,0,7.1c1.1-0.1,2.9,0.3,3.3-1.2c0.2-1.6,0.2-3.2,0-4.8
		C758.5,276.3,756.7,276.7,755.6,276.6 M755.6,294.7c1,0,2.2,0.2,3.1-0.3c0.9-0.6,0.7-1.7,0.7-2.6c-0.1-1.3,0.2-2.7-0.3-4
		c-0.8-1.2-2.4-0.7-3.6-0.8C755.6,289.5,755.6,292.1,755.6,294.7z"/>
	<path class="st1" d="M765.7,273.2c1.4,0,2.8,0,4.2,0c0,7.2,0,14.3,0,21.5c1.7,0,3.3,0,5,0c0,1.1,0,2.3,0,3.4c-3.1,0-6.1,0-9.2,0
		C765.7,289.8,765.7,281.5,765.7,273.2z"/>
	<path class="st1" d="M776.8,273.2c3.3,0,6.7,0,10,0c0,1.1,0,2.3,0,3.4c-1.9,0-3.9,0-5.8,0c0,2.4,0,4.7,0,7.1c1.4,0,2.8,0,4.1,0
		c0,1.1,0,2.3,0,3.4c-1.4,0-2.8,0-4.1,0c0,2.5,0,5,0,7.5c1.9,0,3.9,0,5.8,0c0,1.1,0,2.3,0,3.4c-3.3,0-6.7,0-10,0
		C776.8,289.8,776.8,281.5,776.8,273.2z"/>
	<path class="st1" d="M796.9,273.2c1.6,0,3.2,0,4.8,0c1.6,8.3,3.2,16.6,4.7,24.9c-1.4,0-2.9,0-4.3,0c-0.3-1.5-0.5-3-0.8-4.5
		c-1.5,0-2.9,0-4.4,0c-0.2,1.5-0.5,3-0.7,4.5c-1.3,0-2.7,0-4,0C793.8,289.8,795.3,281.5,796.9,273.2 M797.5,290.2c1.1,0,2.2,0,3.3,0
		c-0.6-3.2-1-6.5-1.7-9.7C798.5,283.7,798.1,286.9,797.5,290.2z"/>
	<path class="st1" d="M808.1,273.2c1.4,0,2.8,0,4.1,0c1.5,4.6,2.9,9.3,4.5,14c0.1-4.7,0-9.3,0-14c1.2,0,2.3,0,3.5,0
		c0,8.3,0,16.6,0,24.9c-1.2,0-2.5,0-3.7,0c-1.6-5.1-3.2-10.2-4.8-15.3c-0.1,5.1,0,10.2,0,15.3c-1.2,0-2.4,0-3.6,0
		C808.1,289.8,808.1,281.5,808.1,273.2z"/>
	<path class="st1" d="M822.6,273.2c3.2,0.2,6.6-0.6,9.6,0.7c2.1,1,2.9,3.4,2.9,5.5c0,4.1,0,8.2,0,12.4c0,2.1-0.7,4.4-2.6,5.6
		c-3.1,1.5-6.6,0.5-9.9,0.8C822.6,289.8,822.6,281.5,822.6,273.2 M826.8,276.6c0,6,0,12,0,18.1c1.1-0.1,2.3,0.2,3.3-0.4
		c1-0.7,0.8-2,0.9-3.1c-0.1-4.3,0.1-8.5-0.1-12.8C830.6,276.4,828.3,276.6,826.8,276.6z"/>
	<path class="st1" d="M657.4,308.4c2.4-1.1,5.6-1.1,7.7,0.7c2,2.1,1.5,5.2,1.5,7.8c-1.3,0-2.6,0-3.8,0c0-1.5,0.1-3-0.2-4.4
		c-0.4-1.9-3.6-1.6-3.9,0.3c-0.2,5-0.1,10-0.1,14.9c-0.1,2.1,3.2,2.8,3.9,0.8c0.4-1.9,0.1-3.9,0.2-5.9c1.3,0,2.5,0,3.8,0
		c-0.2,2.9,0.6,6.2-1.2,8.7c-1.9,2.2-5.6,2.3-8.1,1.1c-2.1-1.1-2.9-3.6-2.9-5.9c0-4.1,0-8.2,0-12.4
		C654.5,312,655.3,309.5,657.4,308.4z"/>
	<path class="st1" d="M782.7,308.1c2.3-0.6,5.2-0.6,7,1.3c1.7,1.9,1.4,4.6,1.4,6.9c-1.3,0-2.6,0-3.9,0c0-1.3,0.2-2.6-0.2-3.9
		c-0.7-1.7-3.7-1.3-3.9,0.6c-0.2,4.9-0.1,9.9-0.1,14.9c-0.1,2,3,2.8,3.8,0.9c0.5-1.9,0.1-3.8,0.2-5.7c-0.7,0-1.3,0-2,0
		c0-1.1,0-2.2,0-3.3c2,0,4,0,6,0c0,4.4,0,8.9,0,13.3c-1,0-2,0-3,0c0-0.8,0-1.5,0-2.3c-1.1,3.1-5.5,3.4-7.6,1.1
		c-1.3-1.5-1.7-3.6-1.6-5.5c0-4.2,0-8.4,0-12.6C778.9,311.3,780.3,308.8,782.7,308.1z"/>
	<path class="st1" d="M668.9,308c1.4,0,2.8,0,4.2,0c0,7.2,0,14.3,0,21.5c1.7,0,3.3,0,5,0c0,1.1,0,2.3,0,3.4c-3.1,0-6.1,0-9.2,0
		C668.9,324.6,668.9,316.3,668.9,308z"/>
	<path class="st1" d="M680,308c3.3,0,6.7,0,10,0c0,1.1,0,2.3,0,3.4c-1.9,0-3.9,0-5.8,0c0,2.4,0,4.7,0,7.1c1.4,0,2.8,0,4.1,0
		c0,1.1,0,2.3,0,3.4c-1.4,0-2.8,0-4.1,0c0,2.5,0,5,0,7.5c1.9,0,3.9,0,5.8,0c0,1.1,0,2.3,0,3.4c-3.3,0-6.7,0-10,0
		C680,324.6,680,316.3,680,308z"/>
	<path class="st1" d="M696.2,308.1c1.6,0,3.2,0,4.8,0c1.6,8.3,3.2,16.6,4.7,24.9c-1.4,0-2.9,0-4.3,0c-0.3-1.5-0.5-3-0.8-4.5
		c-1.5,0-2.9,0-4.4,0c-0.2,1.5-0.5,3-0.7,4.5c-1.3,0-2.7,0-4,0C693.1,324.6,694.7,316.4,696.2,308.1 M696.8,325c1.1,0,2.2,0,3.3,0
		c-0.5-3.3-1.1-6.6-1.6-9.9C697.9,318.4,697.3,321.7,696.8,325z"/>
	<path class="st1" d="M707.4,308c1.4,0,2.8,0,4.1,0c1.5,4.7,3,9.5,4.5,14.2c0-4.7,0-9.5,0-14.2c1.2,0,2.3,0,3.5,0
		c0,8.3,0,16.6,0,24.9c-1.2,0-2.5,0-3.7,0c-1.6-5.1-3.2-10.3-4.9-15.4c0,5.1,0,10.3,0,15.4c-1.2,0-2.4,0-3.6,0
		C707.4,324.6,707.4,316.3,707.4,308z"/>
	<path class="st1" d="M725.8,308c3.3,0,6.7,0,10,0c0,1.1,0,2.3,0,3.4c-1.9,0-3.9,0-5.8,0c0,2.4,0,4.7,0,7.1c1.4,0,2.8,0,4.1,0
		c0,1.1,0,2.3,0,3.4c-1.4,0-2.8,0-4.1,0c0,2.5,0,5,0,7.5c1.9,0,3.9,0,5.8,0c0,1.1,0,2.3,0,3.4c-3.3,0-6.7,0-10,0
		C725.8,324.6,725.8,316.3,725.8,308z"/>
	<path class="st1" d="M738,308c1.4,0,2.8,0,4.1,0c1.5,4.7,3,9.4,4.5,14.1c0-4.7,0-9.4,0-14.1c1.2,0,2.3,0,3.5,0c0,8.3,0,16.6,0,24.9
		c-1.2,0-2.5,0-3.7,0c-1.7-5.2-3.2-10.3-4.9-15.5c0,5.2,0,10.3,0,15.5c-1.2,0-2.4,0-3.5,0C738,324.6,738,316.3,738,308z"/>
	<path class="st1" d="M752.5,308c3.3,0,6.7,0,10,0c0,1.1,0,2.3,0,3.4c-1.9,0-3.9,0-5.8,0c0,2.4,0,4.7,0,7.1c1.4,0,2.8,0,4.1,0
		c0,1.1,0,2.3,0,3.4c-1.4,0-2.8,0-4.1,0c0,2.5,0,5,0,7.5c1.9,0,3.9,0,5.8,0c0,1.1,0,2.3,0,3.4c-3.3,0-6.7,0-10,0
		C752.5,324.6,752.5,316.3,752.5,308z"/>
	<path class="st1" d="M764.7,308c3.3,0.3,7-0.8,10.1,1c2.5,1.9,1.7,5.4,1.8,8.2c0.1,2.1-1.3,4-3.3,4.5c1.3,3.7,2.7,7.5,4,11.2
		c-1.5,0-3,0-4.4,0c-1.3-3.7-2.5-7.4-3.9-11.1c-0.1,3.7,0,7.4,0,11.1c-1.4,0-2.8,0-4.2,0C764.7,324.6,764.7,316.3,764.7,308
		 M768.9,311.5c0,2.6,0,5.2,0,7.8c1.1-0.1,2.9,0.2,3.3-1.2c0.2-1.8,0.2-3.7,0-5.5C771.7,311.2,770,311.5,768.9,311.5z"/>
	<path class="st1" d="M791.9,308c1.5,0,2.9,0,4.4,0c0.9,3.1,1.7,6.3,2.5,9.4c0.9-3.1,1.7-6.3,2.5-9.4c1.3,0,2.7,0,4,0
		c-1.5,5.1-3.1,10.1-4.5,15.2c-0.3,3.2,0,6.5-0.1,9.7c-1.4,0-2.8,0-4.2,0c-0.3-4.1,0.7-8.4-0.8-12.3
		C794.4,316.5,793.1,312.3,791.9,308z"/>
	<path class="st1" d="M716.9,359.2c2.2-0.9,4.9,1,4.7,3.4c0,6.2,0,12.3,0,18.5c0.1,1.9-1.6,3.5-3.4,3.6c-1.9,0.1-3.9-1.6-3.7-3.6
		c0-6.2,0-12.3,0-18.5C714.5,361.1,715.6,359.7,716.9,359.2z"/>
	<path class="st1" d="M682.1,368.6c1.5-0.1,2.9,0.7,3.6,2c3.1,5.5,6.4,10.9,9.3,16.4c1.4,3.5-3.7,6.4-6.1,3.5
		c-3.3-5.4-6.4-11-9.6-16.5C677.9,371.9,679.5,368.6,682.1,368.6z"/>
	<path class="st1" d="M753,368.6c2.8-0.8,5.4,2.6,3.9,5.1c-3.1,5.4-6.2,10.8-9.3,16.2c-0.9,1.8-3.5,2.3-5.1,1.2
		c-1.5-1-2.1-3.2-1.1-4.7c3-5.3,6.1-10.6,9.1-15.8C751,369.5,751.9,368.8,753,368.6z"/>
	<path class="st1" d="M714.9,391.5c9.3-0.7,18.8,1.7,26.6,6.7c8.1,5.2,14.4,13.2,17.5,22.3c3.6,10.3,3.1,21.9-1.4,31.8
		c-4.2,9.4-11.7,17.1-21,21.5c-9.7,4.6-21.1,5.4-31.3,2.2c-8.7-2.7-16.5-8.2-22-15.6c-6-8-9-18.2-8.5-28.2
		c0.5-9.8,4.5-19.4,11.1-26.7C693.4,397.5,703.9,392.3,714.9,391.5 M717.8,405.5c-1.6,0.2-3,1.7-2.9,3.4c0,4.8,0,9.6,0,14.4
		c0,1.6,1.4,2.9,2.9,3.1c1.7,0.2,3.5-1.3,3.5-3.1c0-4.8,0-9.6,0-14.4C721.5,407,719.7,405.3,717.8,405.5 M696.8,427.2
		c-2.2,6.6-1.2,14.2,2.9,19.9c5.1,7.6,15.2,11.4,24,9c9.5-2.3,16.8-11.4,16.9-21.2c0.4-9.8-6.4-19.3-15.8-22.1c0,2.8,0,5.5,0,8.3
		c3,1.6,5.6,4.2,6.9,7.4c2.1,4.9,1.3,10.9-2.1,15c-3.3,4.1-8.9,6.2-14.1,5.3c-5.5-0.9-10.2-5.2-11.6-10.6c-1.9-6.6,1.5-14,7.5-17
		c0-2.8,0-5.5,0-8.3C704.6,415,699,420.5,696.8,427.2z"/>
	<path class="st1" d="M655.1,395.2c1-0.3,2,0,2.8,0.5c5.3,3,10.6,6,15.8,9.1c1.8,1,2.2,3.5,1.1,5.1c-1.1,1.5-3.3,2-4.8,1
		c-5.4-3.1-10.8-6.2-16.2-9.3C651.3,400,652.1,395.7,655.1,395.2z"/>
	<path class="st1" d="M779,395.2c1.7-0.7,3.9,0.3,4.6,2c0.6,1.6,0,3.7-1.6,4.5c-5.3,3.1-10.7,6.1-16,9.2c-1.6,1-3.9,0.3-4.8-1.3
		c-1-1.7-0.4-4.2,1.4-5C768.1,401.5,773.5,398.2,779,395.2z"/>
	<path class="st1" d="M645.2,430.9c6.4-0.5,12.8-0.1,19.2-0.2c1.7-0.2,3.5,0.9,3.9,2.6c0.7,2.1-1.1,4.5-3.3,4.5
		c-6.2,0-12.3,0-18.5,0c-1.8,0.1-3.5-1.5-3.7-3.3C642.7,433,643.7,431.5,645.2,430.9z"/>
	<path class="st1" d="M770,431c0.6-0.3,1.3-0.3,1.9-0.3c6,0,11.9,0,17.9,0c2-0.1,3.7,1.7,3.6,3.6c0,1.9-1.7,3.6-3.6,3.5
		c-6.3,0-12.7,0.1-19-0.1C767.3,437.4,766.7,432.2,770,431z"/>
	<path class="st1" d="M671.2,457.3c1.5-0.3,3.1,0.4,3.9,1.8c0.9,1.6,0.3,3.9-1.3,4.8c-5.3,3.1-10.7,6.1-16,9.2
		c-1.7,1.1-4.3,0.3-5.1-1.6c-0.8-1.7,0-3.9,1.7-4.7C660,463.7,665.5,460.2,671.2,457.3z"/>
	<path class="st1" d="M763.2,457.4c1-0.3,2.1-0.2,2.9,0.3c5.3,3.1,10.7,6.1,16,9.2c1.9,1,2.3,3.8,0.9,5.4c-1.1,1.2-3,1.7-4.5,0.8
		c-5.4-3.1-10.8-6.2-16.2-9.3C759.9,462.4,760.4,458.1,763.2,457.4z"/>
	<path class="st1" d="M691.5,477c2.6-0.3,4.7,2.9,3.4,5.2c-3.1,5.4-6.2,10.8-9.3,16.2c-0.9,1.8-3.5,2.3-5.2,1.1c-1.4-1-2-3.2-1-4.7
		c3.1-5.3,6.1-10.7,9.2-16C689.1,477.7,690.3,477,691.5,477z"/>
	<path class="st1" d="M743.9,477c1.5-0.3,3.2,0.4,3.9,1.7c3.1,5.3,6.1,10.7,9.2,16c1,1.6,0.4,3.8-1.1,4.8c-1.6,1.1-4.2,0.6-5.1-1.2
		c-3.1-5.3-6.1-10.7-9.2-16C740.3,480.3,741.6,477.4,743.9,477z"/>
	<path class="st1" d="M717.5,484c2.1-0.4,4.3,1.5,4.2,3.6c0,6.2,0,12.3,0,18.5c0,1.8-1.6,3.4-3.4,3.4c-1.9,0.1-3.8-1.5-3.7-3.4
		c0-6.2,0-12.3,0-18.5C714.4,485.9,715.8,484.3,717.5,484z"/>
</g>
</svg>
