<?xml version="1.0" encoding="utf-8"?>
<!-- Generator: Adobe Illustrator 19.0.0, SVG Export Plug-In . SVG Version: 6.00 Build 0)  -->
<svg version="1.1" id="Layer_1" xmlns="http://www.w3.org/2000/svg" xmlns:xlink="http://www.w3.org/1999/xlink" x="0px" y="0px"
	 viewBox="568 246 300 300" style="enable-background:new 568 246 300 300;" xml:space="preserve">
<style type="text/css">
	.st0{fill:#FFFFFF;}
	.st1{fill:#ccc;}
</style>
<g>
	<rect x="568" y="246" class="st0" width="300" height="300"/>
	<path class="st1" d="M666.8,272.9c1.4,0,2.8,0,4.2,0c0,7.2,0,14.3,0,21.5c1.7,0,3.3,0,5,0c0,1.1,0,2.3,0,3.4c-3.1,0-6.1,0-9.2,0
		C666.8,289.5,666.8,281.2,666.8,272.9z"/>
	<path class="st1" d="M677.9,272.9c1.4,0,2.8,0,4.2,0c0,8.3,0,16.6,0,24.9c-1.4,0-2.8,0-4.2,0C677.9,289.5,677.9,281.2,677.9,272.9z
		"/>
	<path class="st1" d="M684.5,272.9c3.3,0,6.5,0,9.8,0c0,1.1,0,2.3,0,3.4c-1.9,0-3.7,0-5.6,0c0,2.4,0,4.7,0,7.1c1.4,0,2.8,0,4.2,0
		c0,1.1,0,2.3,0,3.4c-1.4,0-2.8,0-4.2,0c0,3.7,0,7.3,0,11c-1.4,0-2.8,0-4.2,0C684.5,289.5,684.5,281.2,684.5,272.9z"/>
	<path class="st1" d="M696.1,272.9c3.3,0,6.7,0,10,0c0,1.1,0,2.3,0,3.4c-1.9,0-3.9,0-5.8,0c0,2.4,0,4.7,0,7.1c1.4,0,2.8,0,4.1,0
		c0,1.1,0,2.3,0,3.4c-1.4,0-2.8,0-4.1,0c0,2.5,0,5,0,7.5c1.9,0,3.9,0,5.8,0c0,1.1,0,2.3,0,3.4c-3.3,0-6.7,0-10,0
		C696.1,289.5,696.1,281.2,696.1,272.9z"/>
	<path class="st1" d="M600.9,273.2c2.7,0,5.3,0,8,0c0,19.8,0,39.7,0,59.5c-3.3,0-6.7,0-10,0c0-15.2,0-30.4,0-45.6
		c-2.4,2.4-4.7,4.9-7.2,7.4c0-3.3,0-6.6,0-9.9c-0.1-0.6,0.3-1,0.7-1.4C595.2,279.9,598,276.6,600.9,273.2z"/>
	<path class="st1" d="M631.1,273.2c3.3,0,6.6,0,9.9,0c0,14,0,28,0,42.1c1.3,0,2.7,0,4,0c0,2.6,0,5.2,0,7.8c-1.3,0-2.7,0-4,0
		c0,3.2,0,6.4,0,9.6c-3.2,0-6.3,0-9.5,0c0-3.2,0-6.4,0-9.6c-5.9,0-11.8,0-17.6,0c0.2-2.7-0.6-5.5,0.7-8
		C620.1,301.1,625.6,287.2,631.1,273.2 M622.6,315.3c3,0,6,0,9,0c0-8.2,0.1-16.3,0-24.4C628.5,298.9,625.6,307.1,622.6,315.3z"/>
	<path class="st1" d="M708.7,307.6c2.2-0.4,4.8-0.2,6.5,1.5c1.4,1.4,1.7,3.5,1.7,5.4c0,4,0,8,0,12c0,2.3-1,4.7-3.2,5.7
		c-2.1,0.9-4.8,0.9-6.8-0.2c-2-1.2-2.7-3.6-2.7-5.8c0-4.3,0-8.6,0-12.9C704.3,310.8,706,308.1,708.7,307.6 M709.6,311.2
		c-1,0.5-1.2,1.8-1.2,2.8c0,4.4,0,8.8,0,13.2c0,1.1,0.7,2.3,2,2.3c1.3,0.2,2.3-1,2.3-2.2c0-4.7,0-9.4,0-14.1
		C712.8,311.5,711,310.4,709.6,311.2z"/>
	<path class="st1" d="M666.8,307.7c2.3,0,4.6-0.1,7,0c1.6,0.1,3.4,0.8,4.1,2.3c0.8,2,0.5,4.1,0.5,6.2c0,1.5-0.9,2.8-2.3,3.4
		c1.9,0.5,3.1,2.3,2.9,4.2c-0.1,2.7,0.6,6.5-2.3,8c-3.1,1.3-6.7,0.5-10,0.7C666.8,324.3,666.8,316,666.8,307.7 M671,311.2
		c0,2.4,0,4.7,0,7.1c1.1-0.1,2.8,0.3,3.3-1.1c0.2-1.6,0.2-3.3,0-4.9C673.8,310.9,672.1,311.2,671,311.2 M671,321.4
		c0,2.6,0,5.2,0,7.8c1.3-0.1,3.4,0.4,3.8-1.3c0.1-1.8,0.2-3.5,0-5.3C674.3,321.1,672.3,321.5,671,321.4z"/>
	<path class="st1" d="M681.1,307.7c3.3,0,6.7,0,10,0c0,1.1,0,2.3,0,3.4c-1.9,0-3.9,0-5.8,0c0,2.4,0,4.7,0,7.1c1.4,0,2.8,0,4.2,0
		c0,1.1,0,2.3,0,3.4c-1.4,0-2.8,0-4.1,0c0,2.5,0,5,0,7.5c1.9,0,3.9,0,5.8,0c0,1.1,0,2.3,0,3.4c-3.3,0-6.7,0-10,0
		C681.1,324.3,681.1,316,681.1,307.7z"/>
	<path class="st1" d="M693.4,307.7c1.4,0,2.8,0,4.2,0c0,7.2,0,14.3,0,21.5c1.7,0,3.3,0,5,0c0,1.1,0,2.3,0,3.4c-3.1,0-6.1,0-9.2,0
		C693.4,324.3,693.4,316,693.4,307.7z"/>
	<path class="st1" d="M718.3,307.7c1.4,0,2.7,0,4.1,0c0.7,5.2,1.3,10.4,1.9,15.6c0.8-5.2,1.4-10.4,2.1-15.6c1.1,0,2.3,0,3.4,0
		c0.8,5.2,1.5,10.4,2.3,15.6c0.7-5.2,1.3-10.4,1.9-15.6c1.2,0,2.4,0,3.5,0c-1.1,8.3-2.2,16.6-3.2,24.9c-1.3,0-2.7,0-4,0
		c-0.8-5-1.6-10.1-2.5-15.1c-0.9,5-1.6,10.1-2.4,15.1c-1.3,0-2.6,0-4,0C720.6,324.3,719.5,316,718.3,307.7z"/>
	<path class="st1" d="M742.7,307.7c1.4,0,2.7,0,4.1,0c0.7,5.2,1.3,10.5,1.9,15.7c0.7-5.2,1.4-10.5,2.1-15.7c1.1,0,2.3,0,3.4,0
		c0.8,5.2,1.5,10.4,2.3,15.6c0.7-5.2,1.3-10.4,1.9-15.6c1.2,0,2.4,0,3.5,0c-1.1,8.3-2.2,16.6-3.2,24.9c-1.3,0-2.7,0-4,0
		c-0.8-5.1-1.6-10.2-2.5-15.3c-0.8,5.1-1.6,10.2-2.4,15.3c-1.3,0-2.6,0-3.9,0C744.9,324.3,743.8,316,742.7,307.7z"/>
	<path class="st1" d="M766.4,307.7c1.6,0,3.2,0,4.8,0c1.6,8.3,3.1,16.6,4.7,24.9c-1.4,0-2.9,0-4.3,0c-0.2-1.5-0.5-3-0.8-4.6
		c-1.5,0-2.9,0-4.4,0c-0.2,1.5-0.5,3-0.7,4.6c-1.3,0-2.7,0-4,0C763.2,324.3,764.8,316,766.4,307.7 M768.6,314.9
		c-0.6,3.3-1.1,6.6-1.6,9.9c1.1,0,2.2,0,3.3,0C769.7,321.4,769.2,318.1,768.6,314.9z"/>
	<path class="st1" d="M775.3,307.7c3.7,0,7.4,0,11.2,0c0,1.1,0,2.3,0,3.4c-1.1,0-2.3,0-3.4,0c0,7.2,0,14.3,0,21.5
		c-1.4,0-2.8,0-4.2,0c0-7.2,0-14.3,0-21.5c-1.2,0-2.3,0-3.5,0C775.3,310,775.3,308.9,775.3,307.7z"/>
	<path class="st1" d="M788.3,307.7c3.3,0,6.7,0,10,0c0,1.1,0,2.3,0,3.4c-1.9,0-3.8,0-5.8,0c0,2.4,0,4.7,0,7.1c1.4,0,2.8,0,4.2,0
		c0,1.1,0,2.3,0,3.4c-1.4,0-2.8,0-4.2,0c0,2.5,0,5,0,7.5c1.9,0,3.9,0,5.8,0c0,1.1,0,2.3,0,3.4c-3.3,0-6.7,0-10,0
		C788.3,324.3,788.3,316,788.3,307.7z"/>
	<path class="st1" d="M800.6,307.7c2.4,0,4.7-0.1,7.1,0c1.9,0.1,3.8,1.1,4.4,2.9c0.6,2.3,0.4,4.7,0.3,7.1c-0.1,1.8-1.5,3.2-3.2,3.6
		c1.3,3.7,2.7,7.5,4,11.2c-1.5,0-3,0-4.4,0c-1.3-3.8-2.6-7.5-3.9-11.3c0,3.8,0,7.5,0,11.3c-1.4,0-2.8,0-4.2,0
		C800.6,324.3,800.6,316,800.6,307.7 M804.8,311.2c0,2.6,0,5.2,0,7.8c1.1,0,2.9,0.2,3.3-1.2c0.2-1.8,0.2-3.6,0-5.4
		C807.7,310.9,805.9,311.2,804.8,311.2z"/>
	<path class="st1" d="M674.2,365.7c0.8-0.4,1.4,0.6,2,0.9c7.2,5.2,16.4,8.6,25.3,7.1c5.4-0.9,10.3-3.7,14.3-7.4
		c0.5-0.6,1.3-0.8,1.9-0.2c4.3,4.1,9.8,7.1,15.8,7.7c9.1,1,18-2.7,25.2-8.1c0.6-0.5,1.1,0.2,1.6,0.6c4.2,4,9.6,6.9,15.4,7.8
		c6.5,1,13.2-0.4,19.1-3.3c0.6-0.5,1.5,0.2,1.4,0.9c-0.1,2.4,0.2,4.8-0.1,7.1c-4.7,4.5-11.3,7.2-17.8,6.5c-6.8-0.7-12.8-4.4-17.7-9
		c-0.7-0.8-1.4,0.1-2,0.5c-4.8,4.5-11.1,7.7-17.7,8c-8.6,0.4-16.9-3.3-23.5-8.7c-0.7-0.7-1.4,0.3-1.9,0.7
		c-6.8,5.4-15.6,8.9-24.4,7.9c-6.2-0.7-11.9-4-16.4-8.2c-0.8-1-1.8,0.2-2.4,0.8c-6.3,5.9-15.4,9.9-24,7.5c-3.7-1-7.1-3-10.1-5.5
		c-0.8-0.6-0.5-1.7-0.5-2.6c0.1-1.8-0.1-3.6,0.1-5.4c0.2-0.7,1-0.7,1.5-0.4c6.7,3.4,14.7,4.6,22,2.6
		C666.1,372.1,670.5,369.1,674.2,365.7z"/>
	<path class="st1" d="M674.4,389.9c1,0.2,1.7,1.1,2.6,1.6c7,4.7,15.7,7.9,24.3,6.5c5.6-0.8,10.7-3.7,14.7-7.6c0.6-0.7,1.5-0.3,2,0.3
		c4.7,4.4,10.8,7.4,17.3,7.6c8.1,0.3,15.9-2.9,22.4-7.5c0.6-0.4,1.4-1.4,2.1-0.6c4,3.8,8.9,6.8,14.4,7.9c7,1.5,14.4,0.1,20.7-3
		c0.7-0.5,1.5,0.4,1.3,1.1c-0.1,2.3,0.2,4.6-0.1,6.9c-4.7,4.5-11.3,7.2-17.8,6.5c-6.8-0.7-12.8-4.4-17.7-9c-0.6-0.7-1.4,0.1-1.9,0.5
		c-4.8,4.5-11.1,7.7-17.7,8c-8.6,0.4-16.9-3.4-23.5-8.7c-0.6-0.6-1.2,0.2-1.7,0.5c-6.9,5.5-15.7,9.1-24.6,8
		c-6.2-0.7-11.9-4-16.4-8.2c-0.8-1-1.7,0.2-2.4,0.8c-6.2,5.8-15.1,9.8-23.7,7.7c-3.8-0.9-7.4-2.9-10.4-5.5c-0.4-0.3-0.7-0.7-0.7-1.3
		c0-2.2-0.1-4.5,0-6.7c0-0.7,0.9-1,1.5-0.6c6.8,3.3,14.8,4.6,22.1,2.5C666.2,396.4,670.6,393.3,674.4,389.9z"/>
	<path class="st1" d="M637.9,429.1c0.2-0.7,0.9-0.9,1.6-0.8c6.3,0.6,12.4,2.8,17.7,6.3c7.6,5,13.8,12.1,18.1,20
		c7.6-6.1,15.8-11.5,24.4-16c12-6.2,25.4-11.1,39.2-10.3c11.8,0.6,23.1,5.1,32.9,11.6c9.7,6.4,18.3,14.6,25.3,23.9
		c0.6,0.5,0.3,1.3-0.2,1.8c-5.9,7.7-12.8,14.6-20.6,20.4c-10.5,7.9-22.9,13.7-36,14.7c-11.5,1-22.9-2.2-33.4-6.8
		c-11.3-5.1-21.9-11.7-31.6-19.5c-3.8,7.1-9.1,13.4-15.6,18.3c-5.9,4.5-13.1,7.5-20.5,8.1c-0.8,0.2-1.6-0.7-1-1.4
		c5.8-9.9,10.4-20.8,11.1-32.4c0.6-11.5-3.4-22.7-8.7-32.7C639.8,432.4,638.5,430.9,637.9,429.1 M753,448.8c-5,0.6-9,5.7-8.3,10.7
		c0.4,5.2,5.6,9.4,10.8,8.7c5.3-0.5,9.5-5.9,8.6-11.2C763.5,451.9,758.1,447.9,753,448.8z"/>
</g>
</svg>
