<?xml version="1.0" encoding="utf-8"?>
<!-- Generator: Adobe Illustrator 19.0.0, SVG Export Plug-In . SVG Version: 6.00 Build 0)  -->
<svg version="1.1" id="Layer_1" xmlns="http://www.w3.org/2000/svg" xmlns:xlink="http://www.w3.org/1999/xlink" x="0px" y="0px"
	 viewBox="568 246 300 300" style="enable-background:new 568 246 300 300;" xml:space="preserve">
<style type="text/css">
	.st0{fill:#FFFFFF;}
	.st1{fill:#ccc;}
</style>
<g>
	<rect x="568" y="246" class="st0" width="300" height="300"/>
	<path class="st1" d="M620.7,275.5c3.5-3,8.3-3.4,12.7-2.9c3.4,0.3,7,1.8,8.9,4.9c2.4,3.9,2.2,8.7,2.2,13.1c-3,0-6.1,0-9.1,0
		c-0.1-2.5,0.4-5.2-0.6-7.6c-1-2.3-4-2.6-6.1-1.8c-2.1,0.8-2.7,3.3-2.7,5.3c0,4.4,0,8.9,0,13.3c2.9-6.2,12.6-6.4,16.6-1.2
		c2.9,4,2.9,9.2,2.8,13.9c-0.1,5.1,0.6,10.8-2.3,15.3c-2.3,3.7-6.8,5.4-11,5.5c-4.2,0.3-8.7-0.5-11.9-3.4c-3.2-3-4.2-7.6-4.3-11.9
		c0-10.2,0-20.3,0-30.5C616.1,283.2,617.3,278.5,620.7,275.5 M629.6,303c-2.3,0.3-3.5,2.7-3.6,4.8c-0.1,3.5,0,7-0.1,10.6
		c0,1.9,0,4,1.3,5.5c1.4,1.6,3.9,1.7,5.7,0.9c1.8-0.9,2.4-3,2.4-4.9c0-3.7,0-7.4,0-11.1c0-1.6-0.2-3.3-1.3-4.5
		C632.9,303,631.2,302.8,629.6,303z"/>
	<path class="st1" d="M708.2,273.1c2.4-0.8,5.5-0.8,7.4,1.1c1.8,2.1,1.2,5,1.3,7.6c-1.3,0-2.6,0-3.8,0c-0.1-1.5,0.1-2.9-0.1-4.4
		c-0.3-1.7-3-1.8-3.7-0.3c-0.5,1-0.3,2.1-0.3,3.2c0.1,4.2-0.1,8.4,0.1,12.6c0.1,2,3.3,2.4,3.9,0.5c0.4-1.9,0.1-3.9,0.2-5.8
		c1.3,0,2.5,0,3.8,0c-0.2,2.7,0.5,5.8-0.9,8.3c-1.5,2.4-5,2.6-7.5,1.9c-2.4-0.7-3.7-3.3-3.7-5.7c0-4.4,0-8.8,0-13.2
		C704.8,276.5,705.9,273.9,708.2,273.1z"/>
	<path class="st1" d="M771.9,273.5c2.3-1.3,5.3-1.3,7.6,0c2.2,1.5,2,4.4,1.9,6.7c-1.3,0-2.6,0-3.8,0c0-1.1,0.1-2.1-0.1-3.2
		c-0.5-1.5-3.2-1.5-3.7,0c-0.3,1-0.2,2.2,0.4,3.2c2.3,3,5.9,5,7.2,8.6c0.5,2.7,0.7,6.1-1.7,8c-2.4,1.6-5.9,1.6-8.3,0
		c-2.3-1.9-1.7-5.2-1.8-7.8c1.3,0,2.6,0,3.9,0c0.1,1.4-0.1,2.9,0.1,4.3c0.4,1.7,3.3,1.7,3.7,0c0.2-1.3,0.3-2.7-0.4-3.9
		c-2.1-2.9-5.6-4.8-6.9-8.3C769.4,278.7,769.4,275.2,771.9,273.5z"/>
	<path class="st1" d="M805.8,273.1c2.4-0.9,5.5-0.9,7.5,1c1.9,2.1,1.4,5.1,1.4,7.7c-1.3,0-2.5,0-3.8,0c-0.1-1.4,0.1-2.9-0.1-4.3
		c-0.3-1.7-2.9-1.8-3.7-0.4c-0.5,0.9-0.3,2-0.3,2.9c0.1,4.3-0.1,8.6,0.1,12.9c0.1,2,3.4,2.4,3.9,0.4c0.3-1.9,0.1-3.8,0.2-5.7
		c1.3,0,2.5,0,3.8,0c-0.2,2.8,0.6,5.9-1,8.4c-1.6,2.3-4.9,2.5-7.4,1.8c-2.5-0.7-3.8-3.3-3.8-5.7c-0.1-4.3,0-8.6,0-12.9
		C802.5,276.7,803.5,274.1,805.8,273.1z"/>
	<path class="st1" d="M663.7,272.9c2.3,0,4.6,0,6.9,0c1.6,0.1,3.5,0.6,4.3,2.1c1.1,1.9,0.7,4.3,0.8,6.4c0,2.2,0.3,4.7-1.3,6.4
		c-1.7,1.7-4.3,1.5-6.5,1.5c0,2.8,0,5.6,0,8.4c-1.4,0-2.8,0-4.2,0C663.7,289.5,663.7,281.2,663.7,272.9 M667.9,276.3
		c0,3.3,0,6.5,0,9.8c1.2,0,3.3,0.3,3.5-1.4c0.1-2.3,0.1-4.7,0-7C671.1,276,669.1,276.3,667.9,276.3z"/>
	<path class="st1" d="M677.8,272.9c3.3,0,6.7,0,10,0c0,1.1,0,2.3,0,3.4c-1.9,0-3.8,0-5.8,0c0,2.4,0,4.7,0,7.1c1.4,0,2.8,0,4.1,0
		c0,1.1,0,2.3,0,3.4c-1.4,0-2.8,0-4.1,0c0,2.5,0,5,0,7.5c1.9,0,3.9,0,5.8,0c0,1.1,0,2.3,0,3.4c-3.3,0-6.7,0-10,0
		C677.8,289.5,677.8,281.2,677.8,272.9z"/>
	<path class="st1" d="M694.1,272.9c1.6,0,3.2,0,4.8,0c1.6,8.3,3.2,16.6,4.7,24.9c-1.4,0-2.9,0-4.3,0c-0.3-1.5-0.5-3-0.8-4.5
		c-1.5,0-2.9,0-4.4,0c-0.2,1.5-0.5,3-0.7,4.5c-1.3,0-2.7,0-4,0C690.9,289.5,692.5,281.2,694.1,272.9 M696.3,280.1
		c-0.6,3.3-1.1,6.5-1.6,9.8c1.1,0,2.2,0,3.3,0C697.4,286.6,696.9,283.3,696.3,280.1z"/>
	<path class="st1" d="M719.2,272.9c3.3,0,6.7,0,10,0c0,1.1,0,2.3,0,3.4c-1.9,0-3.8,0-5.8,0c0,2.4,0,4.7,0,7.1c1.4,0,2.7,0,4.1,0
		c0,1.1,0,2.3,0,3.4c-1.4,0-2.7,0-4.1,0c0,2.5,0,5,0,7.5c1.9,0,3.9,0,5.8,0c0,1.1,0,2.3,0,3.4c-3.3,0-6.7,0-10,0
		C719.1,289.5,719.1,281.2,719.2,272.9z"/>
	<path class="st1" d="M748.8,272.9c1.4,0,2.8,0,4.2,0c0,6.6,0,13.1,0,19.7c0,1.9-0.8,4-2.6,4.9c-2.6,1.1-6.5,1.1-8-1.7
		c-1.1-2.6-0.4-5.5-0.6-8.2c1.3,0,2.6,0,4,0c0.1,2-0.1,3.9,0.1,5.9c0.2,1.7,3,1.4,3-0.3C748.9,286.4,748.8,279.6,748.8,272.9z"/>
	<path class="st1" d="M755.4,272.9c1.4,0,2.8,0,4.2,0c0.1,6.7-0.1,13.3,0.1,20c0.1,2.3,3.9,2.3,4,0c0.1-6.6,0-13.3,0.1-19.9
		c1.3,0,2.6,0,3.9,0c0,6.4,0,12.7,0,19.1c0,2.1-0.7,4.5-2.8,5.4c-2,0.9-4.5,0.9-6.5,0c-2-0.9-2.9-3.3-2.9-5.4
		C755.4,285.6,755.4,279.3,755.4,272.9z"/>
	<path class="st1" d="M782.8,272.9c3.7,0,7.4,0,11.1,0c0,1.1,0,2.3,0,3.4c-1.1,0-2.3,0-3.4,0c0,7.1,0,14.3,0,21.4
		c-1.4,0-2.8,0-4.2,0c0-7.2,0-14.3,0-21.5c-1.1,0-2.3,0-3.4,0C782.8,275.2,782.8,274,782.8,272.9z"/>
	<path class="st1" d="M795.9,272.9c1.4,0,2.8,0,4.2,0c0,8.3,0,16.6,0,24.9c-1.4,0-2.8,0-4.2,0C795.9,289.5,795.9,281.2,795.9,272.9z
		"/>
	<path class="st1" d="M816.9,272.9c3.3,0,6.7,0,10,0c0,1.1,0,2.3,0,3.4c-1.9,0-3.9,0-5.8,0c0,2.4,0,4.7,0,7.1c1.4,0,2.8,0,4.1,0
		c0,1.1,0,2.3,0,3.4c-1.4,0-2.8,0-4.1,0c0,2.5,0,5,0,7.5c1.9,0,3.9,0,5.8,0c0,1.1,0,2.3,0,3.4c-3.3,0-6.7,0-10,0
		C816.9,289.5,816.9,281.2,816.9,272.9z"/>
	<path class="st1" d="M593.6,283.3c2.9-3.4,5.8-6.8,8.7-10.2c2.7,0,5.3,0,8,0c0,19.8,0,39.7,0,59.5c-3.3,0-6.7,0-10,0
		c0-15.2,0-30.4,0-45.6c-2.4,2.4-4.8,5-7.2,7.4c0-3.4,0-6.8,0-10.2C593.1,283.9,593.4,283.6,593.6,283.3z"/>
	<path class="st1" d="M731.7,293.8c1.4,0,2.7,0,4.1,0c-0.7,2-1.5,4-2.2,6c-0.8,0-1.6,0-2.4,0C731.4,297.7,731.5,295.8,731.7,293.8z"
		/>
	<path class="st1" d="M712.3,310.9c1.3-3.9,6.9-4.4,9.8-2.2c1.8,1.6,1.6,4.3,1.6,6.5c-1.3,0-2.6,0-3.9,0c0-1.1,0.1-2.1-0.1-3.2
		c-0.5-1.6-3.2-1.5-3.7,0c-0.3,1.2-0.2,2.6,0.7,3.5c1.9,2.2,4.3,4,6,6.3c1.6,2.1,1.5,5,0.9,7.5c-1.2,4-6.7,4.5-9.8,2.5
		c-2.5-1.8-1.9-5.2-1.9-7.9c1.3,0,2.6,0,3.9,0c0.1,1.4-0.1,2.9,0.1,4.3c0.4,1.7,3.3,1.7,3.7,0c0.3-1.5,0.3-3.2-0.8-4.4
		c-1.8-2-3.9-3.7-5.6-5.8C711.8,316,711.7,313.3,712.3,310.9z"/>
	<path class="st1" d="M756.8,307.6c2.1-0.4,4.5-0.2,6.2,1.2c1.5,1.3,2,3.3,2,5.1c0,4.2,0,8.4,0,12.6c0,2.2-0.9,4.6-3,5.6
		c-2,1-4.6,1-6.6,0c-2.1-1-3.1-3.4-3.1-5.7c0-4.4,0-8.8,0-13.2C752.4,310.8,754.1,308.1,756.8,307.6 M757.7,311.2
		c-1.1,0.6-1.2,2-1.1,3.1c0.1,4.5-0.1,9,0.1,13.5c0.2,2.3,3.9,2.2,4.1,0c0.2-4.9,0.1-9.8,0.1-14.6
		C760.8,311.5,759,310.4,757.7,311.2z"/>
	<path class="st1" d="M785.7,307.8c2.3-0.6,5.2-0.6,7,1.2c1.7,1.9,1.4,4.6,1.4,6.9c-1.3,0-2.5,0-3.8,0c-0.1-1.4,0.3-2.9-0.4-4.1
		c-1-1.5-3.8-0.8-3.8,1.1c-0.1,4.4,0,8.8-0.1,13.1c0,0.9-0.1,1.9,0.5,2.7c0.9,1.3,3.3,0.9,3.5-0.7c0.2-1.8,0.1-3.6,0.1-5.3
		c-0.7,0-1.3,0-2,0c0-1.1,0-2.2,0-3.3c2,0,4,0,6,0c0,4.4,0,8.9,0,13.3c-1,0-2,0-3,0c0-0.8,0-1.7,0-2.5c-0.9,3.2-5.4,3.7-7.5,1.5
		c-1.4-1.5-1.8-3.6-1.7-5.6c0-4.2,0-8.4,0-12.6C781.9,311,783.3,308.5,785.7,307.8z"/>
	<path class="st1" d="M667.7,307.8c1.6,0,3.2,0,4.8,0c1.6,8.3,3.2,16.6,4.7,24.9c-1.4,0-2.9,0-4.3,0c-0.3-1.5-0.5-3-0.8-4.6
		c-1.5,0-2.9,0-4.4,0c-0.2,1.5-0.5,3-0.7,4.6c-1.3,0-2.7,0-4,0C664.6,324.3,666.1,316,667.7,307.8 M670,314.9
		c-0.6,3.3-1.1,6.5-1.7,9.8c1.1,0,2.2,0,3.3,0C671,321.5,670.6,318.2,670,314.9z"/>
	<path class="st1" d="M678.9,307.7c1.4,0,2.8,0,4.1,0c1.5,4.6,2.9,9.3,4.5,14c0.1-4.7,0-9.3,0-14c1.2,0,2.3,0,3.5,0
		c0,8.3,0,16.6,0,24.9c-1.2,0-2.5,0-3.7,0c-1.6-5.1-3.2-10.2-4.9-15.3c-0.1,5.1,0,10.2,0,15.3c-1.2,0-2.4,0-3.6,0
		C678.9,324.3,678.9,316,678.9,307.7z"/>
	<path class="st1" d="M693.4,307.7c3.2,0.2,6.6-0.6,9.6,0.6c2.1,1,2.9,3.4,2.9,5.6c0,4.1,0,8.2,0,12.3c0,2.2-0.8,4.6-2.8,5.7
		c-3,1.3-6.5,0.5-9.7,0.7C693.4,324.3,693.4,316,693.4,307.7 M697.6,311.2c0,6,0,12,0,18c1.1-0.1,2.5,0.3,3.4-0.5
		c0.8-0.8,0.7-2,0.7-3c-0.1-4.3,0.1-8.5-0.1-12.8C701.4,311,699.1,311.1,697.6,311.2z"/>
	<path class="st1" d="M725.1,307.8c3.7,0,7.4,0,11.1,0c0,1.1,0,2.3,0,3.4c-1.1,0-2.3,0-3.4,0c0,7.2,0,14.3,0,21.5
		c-1.4,0-2.8,0-4.2,0c0-7.2,0-14.3,0-21.5c-1.1,0-2.3,0-3.4,0C725.1,310,725.1,308.9,725.1,307.8z"/>
	<path class="st1" d="M738.2,307.7c2.4,0,4.9-0.1,7.4,0.1c2,0.1,4,1.5,4.3,3.6c0.3,2.1,0.2,4.3,0.1,6.4c-0.1,1.8-1.5,3.2-3.2,3.6
		c1.3,3.7,2.7,7.5,4,11.2c-1.5,0-3,0-4.4,0c-1.3-3.8-2.6-7.5-3.9-11.3c0,3.8,0,7.5,0,11.3c-1.4,0-2.8,0-4.2,0
		C738.2,324.3,738.2,316,738.2,307.7 M742.4,311.2c0,2.6,0,5.2,0,7.7c1.2,0,2.9,0.2,3.3-1.2c0.2-1.8,0.2-3.6,0-5.4
		C745.3,310.9,743.5,311.2,742.4,311.2z"/>
	<path class="st1" d="M767.4,307.7c1.4,0,2.8,0,4.1,0c1.5,4.7,3,9.4,4.5,14.1c0-4.7,0-9.4,0-14.1c1.2,0,2.3,0,3.5,0
		c0,8.3,0,16.6,0,24.9c-1.2,0-2.5,0-3.7,0c-1.6-5.2-3.2-10.4-4.9-15.5c0,5.2,0,10.3,0,15.5c-1.2,0-2.4,0-3.5,0
		C767.4,324.3,767.4,316,767.4,307.7z"/>
	<path class="st1" d="M686.7,343.3c2.3-1.4,5.3-1.4,7.6-0.1c2.2,1.5,2.1,4.4,2,6.8c-1.3,0-2.6,0-3.8,0c0-1,0.1-2-0.1-3
		c-0.4-1.6-3.1-1.6-3.7-0.1c-0.3,1.2-0.2,2.5,0.6,3.5c2,2.3,4.5,4.2,6.2,6.7c1.4,2.1,1.3,4.9,0.7,7.3c-1.2,3.9-6.6,4.4-9.7,2.5
		c-2.6-1.8-2-5.3-2-8c1.3,0,2.6,0,3.9,0c0.1,1.4-0.1,2.9,0.1,4.3c0.3,1.7,3.2,1.9,3.7,0.2c0.4-1.5,0.3-3.3-0.8-4.6
		c-2.2-2.6-5.4-4.5-6.6-7.8C684.3,348.3,684.3,344.9,686.7,343.3z"/>
	<path class="st1" d="M768.2,342.5c2.2-0.4,4.7-0.2,6.4,1.4c1.4,1.3,1.8,3.4,1.8,5.3c0,4.1,0,8.2,0,12.3c0,2.3-1.1,4.9-3.4,5.8
		c-2.2,0.9-4.9,0.8-6.9-0.6c-1.8-1.3-2.4-3.7-2.4-5.8c0-4.2-0.1-8.4,0-12.6C763.8,345.6,765.5,342.9,768.2,342.5 M769.1,346
		c-1,0.4-1.2,1.6-1.2,2.5c0,4.6,0,9.2,0,13.7c0,1.4,1.4,2.4,2.7,2c1.2-0.2,1.6-1.7,1.6-2.8c0-4.5,0-9,0-13.5
		C772.2,346.4,770.5,345.3,769.1,346z"/>
	<path class="st1" d="M793.4,345.4c1.4-3.5,6.1-3.8,9.1-2.3c2.4,1.4,2.3,4.5,2.2,6.9c-1.3,0-2.6,0-3.8,0c0-1.1,0.1-2.3-0.2-3.3
		c-0.7-1.6-3.7-1.2-3.7,0.7c-0.5,2.2,1.4,3.8,2.9,5.2c2,2.1,4.7,4.1,5.1,7.2c0.3,2.6,0.1,5.8-2.4,7.3c-2.5,1.3-5.9,1.3-8.1-0.6
		c-2-2-1.4-5-1.5-7.6c1.3,0,2.6,0,3.9,0c0,1.4-0.1,2.8,0.1,4.2c0.3,1.7,3.2,1.9,3.7,0.2c0.4-1.5,0.3-3.4-0.8-4.6
		c-1.7-1.8-3.6-3.5-5.2-5.4C792.8,351.2,792.7,348,793.4,345.4z"/>
	<path class="st1" d="M663.7,342.6c1.4,0,2.8,0,4.2,0c0,8.3,0,16.6,0,24.9c-1.4,0-2.8,0-4.2,0C663.7,359.2,663.7,350.9,663.7,342.6z
		"/>
	<path class="st1" d="M670.3,342.6c1.4,0,2.7,0,4.1,0c1.5,4.7,3,9.4,4.5,14.1c0-4.7,0-9.4,0-14.1c1.2,0,2.3,0,3.5,0
		c0,8.3,0,16.6,0,24.9c-1.2,0-2.5,0-3.7,0c-1.7-5.1-3.2-10.3-4.9-15.4c0,5.1,0,10.3,0,15.4c-1.2,0-2.4,0-3.5,0
		C670.3,359.2,670.3,350.9,670.3,342.6z"/>
	<path class="st1" d="M697.7,342.6c3.7,0,7.4,0,11.1,0c0,1.1,0,2.3,0,3.4c-1.1,0-2.3,0-3.4,0c0,7.2,0,14.3,0,21.5
		c-1.4,0-2.8,0-4.2,0c0-7.2,0-14.3,0-21.5c-1.2,0-2.3,0-3.5,0C697.7,344.9,697.7,343.7,697.7,342.6z"/>
	<path class="st1" d="M710.8,342.6c1.4,0,2.8,0,4.2,0c0,8.3,0,16.6,0,24.9c-1.4,0-2.8,0-4.2,0C710.8,359.2,710.8,350.9,710.8,342.6z
		"/>
	<path class="st1" d="M716.9,342.6c3.7,0,7.4,0,11.1,0c0,1.1,0,2.3,0,3.4c-1.1,0-2.3,0-3.4,0c0,7.2,0,14.3,0,21.5
		c-1.4,0-2.8,0-4.2,0c0-7.2,0-14.3,0-21.5c-1.2,0-2.3,0-3.5,0C716.9,344.9,716.9,343.7,716.9,342.6z"/>
	<path class="st1" d="M730,342.6c1.4,0,2.8,0,4.2,0c0.1,6.7-0.1,13.3,0.1,20c0.1,2.2,3.8,2.3,3.9,0c0.2-6.7,0-13.3,0.1-20
		c1.3,0,2.6,0,3.9,0c0,6.4,0,12.8,0,19.1c0,2.1-0.8,4.5-2.8,5.5c-2.1,0.9-4.6,0.8-6.7-0.2c-1.9-1-2.7-3.3-2.7-5.3
		C729.9,355.3,730,349,730,342.6z"/>
	<path class="st1" d="M744,342.6c3.7,0,7.4,0,11.1,0c0,1.1,0,2.3,0,3.4c-1.1,0-2.3,0-3.4,0c0,7.2,0,14.3,0,21.5c-1.4,0-2.8,0-4.2,0
		c0-7.2,0-14.3,0-21.5c-1.1,0-2.3,0-3.4,0C744,344.9,744,343.7,744,342.6z"/>
	<path class="st1" d="M757.1,367.5c0-8.3,0-16.6,0-24.9c1.4,0,2.8,0,4.2,0c0,8.3,0,16.6,0,24.9C759.9,367.5,758.5,367.5,757.1,367.5
		z"/>
	<path class="st1" d="M778.7,342.6c1.4,0,2.7,0,4.1,0c1.5,4.7,3,9.4,4.5,14.1c0-4.7,0-9.4,0-14.1c1.2,0,2.3,0,3.5,0
		c0,8.3,0,16.6,0,24.9c-1.2,0-2.5,0-3.7,0c-1.7-5.1-3.2-10.3-4.9-15.4c0,5.1,0,10.3,0,15.4c-1.2,0-2.4,0-3.5,0
		C778.7,359.2,778.7,350.9,778.7,342.6z"/>
	<path class="st1" d="M778.4,380.8c2-2,5.1-2.5,7.8-2.5c0,2.8-0.4,5.8-2.4,7.9c-2,2-5.1,2.5-7.8,2.5
		C775.9,385.9,776.4,382.9,778.4,380.8z"/>
	<path class="st1" d="M764.4,387.2c-0.7-2.7,0.5-5.5,2-7.8c2.3,1.3,4.4,3.3,5.1,5.9c0.6,2.7-0.5,5.4-2.1,7.6
		C767.2,391.6,765.1,389.7,764.4,387.2z"/>
	<path class="st1" d="M756.6,395.2c-0.5-2.7,0.6-5.3,2.1-7.5c2.3,1.3,4.4,3.3,5.1,5.9c0.6,2.7-0.6,5.4-2,7.6
		C759.4,399.8,757.2,397.9,756.6,395.2z"/>
	<path class="st1" d="M762.8,403.3c3.1-5.1,8.2-8.5,11.5-13.5c0.4,0.3,0.9,0.6,1.3,0.8c-2.9,4.5-7.3,7.8-10.5,12.1
		c-1.8,2.4-3.1,5.2-3.6,8.2c1.6,1.3,3.2,2.5,4.9,3.5c-1.7-0.1-3.5-0.1-5.2,0.2c0.1,3.8,1,7.5,2.2,11.2c-0.5,0-1.1,0.1-1.6,0.1
		c-1.1-3.6-2-7.3-2.1-11.1c-4.1,0.7-8.5,2.2-11,5.8c-3,4.3-3.4,9.8-3.3,14.9c0.3,5.7-0.6,11.6-3.4,16.7c-2.6,4.9-6.9,8.8-11.7,11.5
		c-6.2,3.4-13.1,5.3-20.1,6.3c0,4.6,0,9.2,0,13.8c7.5,0.2,15.1,0.4,22.6,0.5c5.2-0.5,10.4-1.1,15.6-1.7c0-2.4,0-4.9,0-7.3
		c0-1.2,1.1-2.1,2.3-2c7.8,0,15.7,0,23.5,0c1.2-0.1,2.3,1.1,2.2,2.3c0,7.7,0,15.4,0,23.2c0.1,1.2-0.9,2.4-2.2,2.3
		c-7.8,0-15.7,0-23.5,0c-1.2,0.1-2.3-0.8-2.3-2c-0.1-2.4,0-4.8,0-7.2c-5.3-0.6-10.6-1.2-15.8-1.7c-26,0.6-52,1.2-77.9,1.7
		c0-3.1,0-6.2,0-9.3c14.3,0.3,28.7,0.6,43,0.9c0-4.4,0-8.8,0-13.2c-5.3-0.5-10.5-1.5-15.5-3.4c-7.6-3.2-14-8.9-21.7-12
		c6.2,1.1,13,1.4,18.7-1.7c5.5-3.3,10.5-8.1,17.2-8.7c-5.2-0.5-10.4-2.3-14.3-5.9c-5-4.4-7.8-10.7-9.3-17.1
		c-1.3-5.8-2.4-11.6-4.5-17.1c-1.4-3.9-4.1-7.6-8-9.2c6.1-0.6,12.4-0.4,18.3,1.5c8.3,2.6,15.5,8,21.5,14.2
		c4.6,4.6,10.5,8.6,17.1,9.2c5.9,0.6,11.6-1.9,16-5.7c3.9-3.5,7.8-7.3,12.5-9.8c2.6-1.4,6.1-2.2,8.8-0.4c2.1,1.5,3.6,3.8,5.6,5.4
		C760.7,407.4,761.5,405.2,762.8,403.3 M701.5,470.5c0,4.4,0,8.7,0,13.1c1.7,0,3.4,0.1,5.1,0.1c0-4.5,0-8.9,0-13.4
		C704.9,470.5,703.2,470.5,701.5,470.5z"/>
	<path class="st1" d="M779.6,393.2c2.4-0.1,4.6,1.2,6.3,2.8c-1.5,1.8-3.4,3.5-5.9,3.8c-2.5,0.3-4.9-1.1-6.7-2.7
		C775,395.2,777.1,393.4,779.6,393.2z"/>
	<path class="st1" d="M766.4,404.4c1.9-1.6,4.4-2.9,6.9-2.5c2.4,0.4,4.2,2.1,5.6,4c-1.8,1.5-4.1,2.8-6.6,2.6
		C769.9,408.2,767.9,406.4,766.4,404.4z"/>
	<path class="st1" d="M748.6,463.8c8.7-0.4,17.5,0,26.3-0.2c1.9-0.2,3.8,1.1,4.1,3c0.4,2.1-1.3,4.3-3.5,4.3c-8.6,0-17.2,0-25.8,0
		c-1.9,0.1-3.6-1.5-3.6-3.4C745.8,465.8,747,464.2,748.6,463.8z"/>
	<path class="st1" d="M646.9,480.5c1.6-0.2,3.7-0.4,4.8,1.1c1.2,1.7,0.6,3.9,0.8,5.8c0,2.1,0.5,5-1.8,6.2c-2,0.7-5.1,0.6-5.9-1.9
		c-0.5-2.4-0.1-4.9-0.2-7.3C644.4,482.8,645.2,481,646.9,480.5z"/>
	<path class="st1" d="M748.9,503.7c8.7-0.2,17.5,0,26.3-0.1c2-0.1,3.9,1.7,3.8,3.7c0,2-1.8,3.7-3.8,3.6c-8.5,0-17,0-25.5,0
		c-1.8,0-3.5-1.5-3.6-3.3C745.8,505.8,747.1,504,748.9,503.7z"/>
</g>
</svg>
