<?xml version="1.0" encoding="utf-8"?>
<!-- Generator: Adobe Illustrator 19.0.0, SVG Export Plug-In . SVG Version: 6.00 Build 0)  -->
<svg version="1.1" id="Layer_1" xmlns="http://www.w3.org/2000/svg" xmlns:xlink="http://www.w3.org/1999/xlink" x="0px" y="0px"
	 viewBox="568 246 300 300" style="enable-background:new 568 246 300 300;" xml:space="preserve">
<style type="text/css">
	.st0{fill:#FFFFFF;}
	.st1{fill:#ccc;}
</style>
<g>
	<rect x="568" y="246" class="st0" width="300" height="300"/>
	<path class="st1" d="M601.7,273.1c8.8,0,17.6,0,26.4,0c0,2.7,0,5.4,0,8.2c-5.7,0-11.5,0-17.2,0c0,4.9,0,9.9,0,14.8
		c3.4-5.6,12.9-5.6,16.4-0.1c1.7,2.6,2.3,5.8,2.3,8.9c0,5.2,0,10.3,0,15.5c-0.1,3.5-1.1,7.3-3.8,9.7c-3.1,2.8-7.5,3.3-11.5,3.2
		c-4-0.1-8.4-1.6-10.6-5.3c-2.9-4.9-2-10.9-2.2-16.3c3,0,6.1,0,9.2,0c0,2.7,0,5.4,0,8.1c0.1,1.7,0.6,3.7,2.2,4.6
		c1.5,0.7,3.3,0.8,4.8,0c1.5-1,1.9-2.9,1.9-4.5c0-5,0-10,0-15c0-1.6-0.5-3.5-2-4.4c-1.8-1-4.5-0.7-5.7,1.1c-1,1.5-1,3.4-1,5.1
		c-3,0-6.1,0-9.1,0C601.7,295.5,601.7,284.3,601.7,273.1z"/>
	<path class="st1" d="M661.9,274.3c2.3-0.6,5.2-0.6,7,1.2c1.7,1.9,1.4,4.6,1.4,6.9c-1.3,0-2.5,0-3.8,0c-0.1-1.4,0.2-2.8-0.4-4.1
		c-1-1.6-3.9-0.8-3.8,1.1c-0.1,4.3,0,8.6-0.1,12.9c0,1-0.1,2,0.5,2.9c0.9,1.3,3.3,0.9,3.5-0.7c0.2-1.7,0.1-3.5,0.1-5.3
		c-0.7,0-1.3,0-2,0c0-1.1,0-2.2,0-3.3c2,0,4,0,5.9,0c0,4.4,0,8.9,0,13.3c-1,0-2,0-3,0c0-0.8,0-1.6,0-2.4c-1,3.1-5.2,3.6-7.4,1.5
		c-1.5-1.4-1.9-3.6-1.9-5.6c0-4.2,0-8.4,0-12.6C658.1,277.5,659.4,275,661.9,274.3z"/>
	<path class="st1" d="M672.7,274.2c3.3,0,6.7,0,10,0c0,1.1,0,2.3,0,3.4c-1.9,0-3.9,0-5.8,0c0,2.4,0,4.7,0,7.1c1.4,0,2.8,0,4.1,0
		c0,1.1,0,2.3,0,3.4c-1.4,0-2.8,0-4.1,0c0,2.5,0,5,0,7.5c1.9,0,3.9,0,5.8,0c0,1.1,0,2.3,0,3.4c-3.3,0-6.7,0-10,0
		C672.7,290.8,672.7,282.5,672.7,274.2z"/>
	<path class="st1" d="M684.9,274.2c1.4,0,2.7,0,4.1,0c1.5,4.6,2.9,9.3,4.5,13.9c0.1-4.6,0-9.3,0-13.9c1.2,0,2.3,0,3.5,0
		c0,8.3,0,16.6,0,24.9c-1.2,0-2.5,0-3.7,0c-1.6-5.1-3.2-10.3-4.9-15.4c0,5.1,0,10.3,0,15.4c-1.2,0-2.4,0-3.5,0
		C684.9,290.8,684.9,282.5,684.9,274.2z"/>
	<path class="st1" d="M699.3,274.2c3.1,0.2,6.5-0.5,9.5,0.6c2.1,0.9,3,3.3,3,5.5c0,4.1,0,8.2,0,12.3c0,2.1-0.6,4.5-2.6,5.7
		c-3.1,1.5-6.7,0.6-10,0.8C699.3,290.8,699.3,282.5,699.3,274.2 M703.6,277.6c0,6,0,12,0,18c1.5,0.1,4,0.1,4.1-2
		c0.1-4.7,0.1-9.5,0-14.2C707.4,277.5,705.1,277.5,703.6,277.6z"/>
	<path class="st1" d="M714.3,274.2c3.3,0,6.7,0,10,0c0,1.1,0,2.3,0,3.4c-1.9,0-3.9,0-5.8,0c0,2.4,0,4.7,0,7.1c1.4,0,2.8,0,4.1,0
		c0,1.1,0,2.3,0,3.4c-1.4,0-2.8,0-4.1,0c0,2.5,0,5,0,7.5c1.9,0,3.9,0,5.8,0c0,1.1,0,2.3,0,3.4c-3.3,0-6.7,0-10,0
		C714.3,290.8,714.3,282.5,714.3,274.2z"/>
	<path class="st1" d="M726.5,274.2c2.4,0,4.9-0.1,7.3,0.1c1.9,0.1,3.8,1.3,4.3,3.2c0.5,2.2,0.3,4.4,0.2,6.6c0,1.9-1.5,3.3-3.2,3.8
		c1.3,3.7,2.7,7.5,4,11.2c-1.5,0-2.9,0-4.4,0c-1.3-3.7-2.6-7.5-3.9-11.3c0,3.8,0,7.5,0,11.2c-1.4,0-2.8,0-4.2,0
		C726.5,290.8,726.5,282.5,726.5,274.2 M730.7,277.6c0,2.6,0,5.2,0,7.7c1.1,0,2.8,0.3,3.3-1.1c0.3-1.8,0.2-3.6,0.1-5.4
		C733.7,277.4,731.8,277.7,730.7,277.6z"/>
	<path class="st1" d="M672.5,309.7c2-1.2,4.6-1.2,6.8-0.4c2.2,0.9,3.3,3.5,3.3,5.8c0,4.3,0,8.6,0,12.9c0,2.1-1,4.3-2.9,5.4
		c1,0.2,1.9,0.4,2.9,0.5c0,1.1,0,2.1,0,3.2c-2.6-0.5-5.3-1-7.9-1.5c0-0.5,0-1.1,0-1.6c-2.6-0.4-4.6-2.7-4.7-5.4
		c-0.2-4.3,0-8.6-0.1-12.9C669.8,313.5,670.5,311,672.5,309.7 M675.6,312.3c-1.1,0.2-1.6,1.5-1.6,2.5c0,4.6,0,9.2,0,13.8
		c0,1.1,0.8,2.4,2,2.3c1.3,0.2,2.3-1.1,2.2-2.4c0-4.7,0-9.4,0-14.1C678.4,313.1,677,311.9,675.6,312.3z"/>
	<path class="st1" d="M658,309.1c3.3,0,6.7,0,10,0c0,1.1,0,2.3,0,3.4c-1.9,0-3.9,0-5.8,0c0,2.4,0,4.7,0,7.1c1.4,0,2.8,0,4.1,0
		c0,1.1,0,2.3,0,3.4c-1.4,0-2.8,0-4.1,0c0,2.5,0,5,0,7.5c1.9,0,3.9,0,5.8,0c0,1.1,0,2.3,0,3.4c-3.3,0-6.7,0-10,0
		C658,325.7,658,317.4,658,309.1z"/>
	<path class="st1" d="M684.9,309.1c1.4,0,2.8,0,4.2,0c0,6.5,0,13,0,19.5c-0.1,1.2,1,2.3,2.2,2.1c1.3,0,1.9-1.3,1.8-2.4
		c0-6.4,0-12.8,0-19.3c1.3,0,2.6,0,3.9,0c0,6.4,0,12.8,0,19.3c0,2.1-0.9,4.5-3,5.4c-2.1,0.8-4.7,0.8-6.7-0.3
		c-1.8-1.1-2.5-3.3-2.5-5.3C684.9,321.7,684.9,315.4,684.9,309.1z"/>
	<path class="st1" d="M702.9,309.1c1.6,0,3.2,0,4.8,0c1.6,8.3,3.2,16.6,4.7,24.9c-1.4,0-2.9,0-4.3,0c-0.3-1.5-0.5-3-0.8-4.5
		c-1.4,0-2.9-0.1-4.3,0c-0.6,1.4-0.5,3-0.9,4.5c-1.3,0-2.7,0-4,0C699.8,325.7,701.4,317.4,702.9,309.1 M703.5,326c1.1,0,2.2,0,3.3,0
		c-0.5-3.3-1.1-6.6-1.6-9.8C704.5,319.5,704.1,322.8,703.5,326z"/>
	<path class="st1" d="M714.1,309.1c1.4,0,2.8,0,4.2,0c0,7.2,0,14.3,0,21.5c1.7,0,3.3,0,5,0c0,1.1,0,2.3,0,3.4c-3.1,0-6.1,0-9.2,0
		C714.1,325.7,714.1,317.4,714.1,309.1z"/>
	<path class="st1" d="M725.2,309.1c1.4,0,2.8,0,4.2,0c0,8.3,0,16.6,0,24.9c-1.4,0-2.8,0-4.2,0C725.2,325.7,725.2,317.4,725.2,309.1z
		"/>
	<path class="st1" d="M731.4,309.1c3.7,0,7.4,0,11.1,0c0,1.1,0,2.3,0,3.4c-1.1,0-2.3,0-3.4,0c0,7.2,0,14.3,0,21.5
		c-1.4,0-2.8,0-4.2,0c0-7.2,0-14.3,0-21.5c-1.1,0-2.3,0-3.4,0C731.4,311.4,731.4,310.2,731.4,309.1z"/>
	<path class="st1" d="M743.7,309.1c1.5,0,2.9,0,4.4,0c0.9,3.1,1.7,6.3,2.5,9.4c0.9-3.1,1.7-6.3,2.5-9.4c1.3,0,2.7,0,4,0
		c-1.5,5.1-3.1,10.2-4.5,15.3c-0.2,3.2,0,6.4-0.1,9.6c-1.4,0-2.8,0-4.2,0c-0.3-4.1,0.7-8.4-0.9-12.3
		C746.3,317.5,745,313.3,743.7,309.1z"/>
	<path class="st1" d="M748.3,360.2c12.5-0.2,25.1-0.2,37.6,0c0,12.5,0,25,0,37.5c-4.3,0.1-8.7,0.1-13,0c-0.2-4.7,0-9.3-0.1-14
		c-5.3,5.3-10.6,10.6-15.9,15.9c6.1,8.6,9.2,19.3,8.7,29.8c-0.4,10.5-4.4,20.7-11.2,28.7c-7.3,8.7-17.8,14.7-29,16.6
		c0,4.7,0,9.5,0,14.2c5,0,9.9-0.1,14.9,0c0.1,4.6,0.1,9.3,0,13.9c-5,0.1-9.9,0-14.9,0.1c0,4.8,0.1,9.5-0.1,14.3
		c-4.6,0.1-9.3,0.1-13.9,0c-0.1-4.7,0-9.5-0.1-14.3c-5,0-9.9,0.1-14.9-0.1c-0.1-4.6-0.1-9.3,0-13.9c5-0.1,9.9,0,14.9,0
		c0-4.7,0-9.3,0-14c-18-2.2-34-15.5-39.5-32.7c-3.5-10.7-3.1-22.6,1.1-33c3.9-9.5,10.9-17.8,19.7-23.1c8.6-5.3,18.9-7.7,28.9-6.8
		c9.3,0.7,18.3,4.3,25.6,10.1c5.4-5.4,10.8-10.8,16.2-16.2c-5-0.1-10,0.1-15-0.1C748.2,368.9,748.3,364.5,748.3,360.2 M714.3,392
		c-13.6,1.1-25.9,10.8-30.2,23.6c-2.5,7.3-2.6,15.3-0.2,22.6c2.8,8.7,9.1,16.1,17.2,20.3c8.6,4.5,19,5.3,28.1,2
		c9.4-3.3,17.3-10.8,21-20c3.8-9.3,3.4-20.2-1.1-29.1C742.9,398.7,728.5,390.5,714.3,392z"/>
	<path class="st1" d="M695.8,412.8c14.6,0,29.2-0.1,43.8,0c0.1,3.7,0,7.4,0,11.1c-14.6,0.1-29.2,0.1-43.8,0
		C695.7,420.2,695.7,416.5,695.8,412.8z"/>
	<path class="st1" d="M695.7,431.3c14.2-0.2,28.3,0,42.5-0.1c0.4,0.1,1.3-0.2,1.3,0.5c0,3.6,0,7.1,0,10.7c-14.6,0.1-29.2,0.1-43.8,0
		C695.6,438.8,695.7,435,695.7,431.3z"/>
</g>
</svg>
