<?xml version="1.0" encoding="utf-8"?>
<!-- Generator: Adobe Illustrator 19.0.0, SVG Export Plug-In . SVG Version: 6.00 Build 0)  -->
<svg version="1.1" id="Layer_1" xmlns="http://www.w3.org/2000/svg" xmlns:xlink="http://www.w3.org/1999/xlink" x="0px" y="0px"
	 viewBox="568 246 300 300" style="enable-background:new 568 246 300 300;" xml:space="preserve">
<style type="text/css">
	.st0{fill:#FFFFFF;}
	.st1{fill:#ccc;}
</style>
<g>
	<rect x="568" y="246" class="st0" width="300" height="300"/>
	<path class="st1" d="M761.4,275.9c1.3-3.6,6.2-4.1,9.2-2.5c2.4,1.4,2.3,4.5,2.2,6.9c-1.3,0-2.6,0-3.8,0c0-1,0.1-2.1-0.1-3.1
		c-0.4-1.7-3.3-1.6-3.7,0.1c-0.2,1-0.2,2.1,0.4,3c2.2,3,5.9,5,7.2,8.6c0.6,2.9,0.7,6.8-2.3,8.5c-2.4,1.2-5.8,1.2-7.9-0.6
		c-2.1-2-1.5-5.1-1.5-7.6c1.3,0,2.6,0,3.9,0c0,1.4-0.1,2.9,0.1,4.3c0.3,1.7,3.2,1.8,3.7,0.1c0.3-1.5,0.3-3.3-0.8-4.5
		c-1.7-1.9-3.7-3.5-5.3-5.5C760.8,281.4,760.7,278.4,761.4,275.9z"/>
	<path class="st1" d="M812.8,273.5c2.2-1.2,5.2-1.2,7.4,0c2.2,1.5,2.1,4.4,2,6.8c-1.3,0-2.6,0-3.9,0c0-1,0.1-2.1-0.1-3.1
		c-0.4-1.7-3.3-1.6-3.7,0c-0.2,1.1-0.2,2.3,0.5,3.2c2.3,2.9,5.8,4.9,7.1,8.4c0.6,2.9,0.7,6.8-2.3,8.5c-2.5,1.2-5.8,1.2-7.9-0.6
		c-2.1-2-1.4-5-1.5-7.6c1.3,0,2.6,0,3.9,0c0,1.4-0.1,2.9,0.1,4.3c0.3,1.7,3.2,1.8,3.7,0.2c0.3-1.4,0.3-3-0.6-4.2
		c-2.1-2.7-5.4-4.6-6.7-7.9C810.2,278.7,810.2,275.1,812.8,273.5z"/>
	<path class="st1" d="M666.3,272.9c2.3,0,4.6,0,6.9,0c1.6,0.1,3.5,0.6,4.3,2.1c1.1,1.9,0.7,4.3,0.8,6.4c0,2.2,0.3,4.7-1.3,6.4
		c-1.7,1.7-4.3,1.5-6.4,1.5c0,2.8,0,5.6,0,8.4c-1.4,0-2.8,0-4.2,0C666.3,289.5,666.3,281.2,666.3,272.9 M670.5,276.3
		c0,3.3,0,6.5,0,9.8c1.2,0,3.3,0.3,3.5-1.5c0.1-2.3,0.1-4.7,0-7C673.7,276,671.7,276.3,670.5,276.3z"/>
	<path class="st1" d="M683,272.9c1.6,0,3.2,0,4.8,0c1.6,8.3,3.2,16.6,4.7,24.9c-1.4,0-2.9,0-4.3,0c-0.2-1.5-0.5-3-0.8-4.5
		c-1.5,0-2.9,0-4.4,0c-0.2,1.5-0.5,3-0.7,4.5c-1.3,0-2.7,0-4,0C679.9,289.5,681.4,281.2,683,272.9 M683.6,289.9c1.1,0,2.2,0,3.3,0
		c-0.6-3.3-1.1-6.6-1.6-9.9C684.6,283.3,684.1,286.6,683.6,289.9z"/>
	<path class="st1" d="M694.2,272.9c2.7,0.1,5.5-0.2,8.2,0.2c2.1,0.3,3.6,2.2,3.7,4.3c0,2.1,0.2,4.3-0.2,6.4
		c-0.3,1.5-1.7,2.4-3.1,2.9c1.4,3.7,2.7,7.5,4,11.2c-1.5,0-3,0-4.4,0c-1.3-3.8-2.6-7.5-3.9-11.3c0,3.8,0,7.5,0,11.3
		c-1.4,0-2.8,0-4.2,0C694.2,289.5,694.2,281.2,694.2,272.9 M698.4,276.3c0,2.6,0,5.2,0,7.8c1.2,0,2.9,0.2,3.3-1.2
		c0.2-1.8,0.2-3.6,0-5.4C701.3,276,699.6,276.4,698.4,276.3z"/>
	<path class="st1" d="M707.5,272.9c3.7,0,7.4,0,11.1,0c0,1.1,0,2.3,0,3.4c-1.1,0-2.3,0-3.4,0c0,7.2,0,14.3,0,21.5
		c-1.4,0-2.8,0-4.2,0c0-7.2,0-14.3,0-21.5c-1.1,0-2.3,0-3.4,0C707.5,275.2,707.5,274,707.5,272.9z"/>
	<path class="st1" d="M720.6,272.9c1.4,0,2.8,0,4.1,0c1.5,4.7,2.9,9.4,4.5,14.1c0-4.7,0-9.4,0-14.1c1.2,0,2.3,0,3.5,0
		c0,8.3,0,16.6,0,24.9c-1.2,0-2.5,0-3.7,0c-1.6-5.1-3.2-10.3-4.9-15.4c0,5.1,0,10.3,0,15.4c-1.2,0-2.4,0-3.5,0
		C720.6,289.5,720.6,281.2,720.6,272.9z"/>
	<path class="st1" d="M735,272.9c3.3,0,6.7,0,10,0c0,1.1,0,2.3,0,3.4c-1.9,0-3.9,0-5.8,0c0,2.4,0,4.7,0,7.1c1.4,0,2.8,0,4.2,0
		c0,1.1,0,2.3,0,3.4c-1.4,0-2.8,0-4.2,0c0,2.5,0,5,0,7.5c1.9,0,3.9,0,5.8,0c0,1.1,0,2.3,0,3.4c-3.3,0-6.7,0-10,0
		C735,289.5,735,281.2,735,272.9z"/>
	<path class="st1" d="M747.3,272.9c2.5,0.1,5.1-0.1,7.6,0.1c2,0.2,3.9,1.7,4.1,3.8c0.2,2.1,0.2,4.3,0,6.4c-0.2,1.7-1.6,2.9-3.2,3.4
		c1.4,3.7,2.7,7.5,4,11.2c-1.5,0-3,0-4.4,0c-1.3-3.8-2.6-7.5-3.9-11.3c0,3.8,0,7.5,0,11.3c-1.4,0-2.8,0-4.2,0
		C747.3,289.5,747.3,281.2,747.3,272.9 M751.5,276.3c0,2.6,0,5.2,0,7.8c1.2,0,2.9,0.2,3.3-1.2c0.2-1.8,0.2-3.6,0-5.4
		C754.3,276,752.6,276.4,751.5,276.3z"/>
	<path class="st1" d="M775.2,272.9c1.4,0,2.8,0,4.2,0c0,3.5,0,7,0,10.5c1.3,0,2.7,0,4,0c0-3.5,0-7,0-10.5c1.4,0,2.8,0,4.2,0
		c0,8.3,0,16.6,0,24.9c-1.4,0-2.8,0-4.2,0c0-3.7,0-7.3,0-11c-1.3,0-2.7,0-4,0c0,3.7,0,7.3,0,11c-1.4,0-2.8,0-4.2,0
		C775.2,289.5,775.2,281.2,775.2,272.9z"/>
	<path class="st1" d="M790,272.9c1.4,0,2.8,0,4.2,0c0,8.3,0,16.6,0,24.9c-1.4,0-2.8,0-4.2,0C790,289.5,790,281.2,790,272.9z"/>
	<path class="st1" d="M796.6,272.9c2.3,0,4.6,0,6.9,0c1.6,0.1,3.4,0.7,4.3,2.2c1.1,1.9,0.7,4.2,0.8,6.4c0,2.2,0.3,4.7-1.3,6.4
		c-1.7,1.7-4.3,1.5-6.5,1.5c0,2.8,0,5.6,0,8.4c-1.4,0-2.8,0-4.2,0C796.6,289.5,796.6,281.2,796.6,272.9 M800.8,276.3
		c0,3.3,0,6.5,0,9.8c1-0.1,2.1,0.2,2.9-0.4c0.8-0.7,0.6-1.9,0.7-2.8c-0.1-1.8,0.1-3.7-0.1-5.5C803.8,276,802,276.4,800.8,276.3z"/>
	<path class="st1" d="M597.3,283.9c3.1-3.6,6.1-7.2,9.2-10.8c2.7,0,5.3,0,8,0c0,19.8,0,39.7,0,59.5c-3.3,0-6.7,0-10,0
		c0-15.2,0-30.4,0-45.6c-2.4,2.5-4.8,5-7.2,7.4C597.3,291,597.3,287.4,597.3,283.9z"/>
	<path class="st1" d="M619.1,273.1c8.4,0,16.8,0,25.1,0c-0.2,4,0.6,8.2-0.7,12.1c-4.1,15.8-8.2,31.6-12.3,47.5c-3.3,0-6.6,0-10,0
		c4.4-17.1,8.9-34.2,13.3-51.4c-5.1,0-10.3,0-15.4,0C619.1,278.6,619.1,275.9,619.1,273.1z"/>
	<path class="st1" d="M682.1,307.6c2.1-0.4,4.5-0.2,6.2,1.2c1.5,1.3,2,3.5,2,5.4c0,4.1,0,8.2,0,12.3c0,2.2-1,4.7-3.1,5.7
		c-2.1,0.9-4.8,0.9-6.8-0.2c-2-1.2-2.8-3.6-2.7-5.8c0-4.3,0-8.6,0-12.9C677.6,310.7,679.4,308.1,682.1,307.6 M683,311.1
		c-1.1,0.5-1.2,1.8-1.2,2.8c0,4.4,0,8.8,0,13.2c-0.1,1.2,0.9,2.4,2.2,2.3c1.2,0,2.1-1.1,2-2.3c0-4.7,0.1-9.4,0-14.1
		C686.1,311.5,684.3,310.5,683,311.1z"/>
	<path class="st1" d="M758.1,307.7c2.3-0.6,5.2-0.5,7,1.4c1.6,1.9,1.3,4.5,1.3,6.8c-1.3,0-2.6,0-3.8,0c-0.1-1.4,0.3-2.9-0.4-4.2
		c-1-1.5-3.8-0.8-3.8,1.2c-0.1,4.9-0.1,9.8,0,14.7c0,2,3.2,2.5,3.8,0.6c0.4-1.8,0.1-3.7,0.2-5.6c-0.7,0-1.3,0-2,0c0-1.1,0-2.2,0-3.3
		c2,0,4,0,6,0c0,4.4,0,8.9,0,13.3c-1,0-2,0-3,0c0-0.8,0-1.7,0-2.5c-0.9,3.1-5.2,3.7-7.4,1.6c-1.5-1.5-1.9-3.7-1.9-5.7
		c0-4.2,0-8.4,0-12.6C754.1,310.9,755.6,308.4,758.1,307.7z"/>
	<path class="st1" d="M773.2,307.6c2.2-0.4,4.7-0.2,6.4,1.3c1.4,1.3,1.9,3.4,1.9,5.3c0,4.1,0,8.2,0,12.3c0,2.3-1,4.7-3.1,5.7
		c-2.2,1-4.9,0.9-7-0.3c-2-1.3-2.6-3.7-2.5-5.9c0-4.2-0.1-8.4,0-12.6C768.8,310.8,770.5,308.1,773.2,307.6 M774.1,311.1
		c-1.2,0.5-1.2,2-1.2,3.1c0.1,4.5-0.1,8.9,0.1,13.4c0.1,2.3,3.9,2.4,4.1,0.1c0.2-4.9,0.1-9.8,0.1-14.6
		C777.2,311.5,775.4,310.5,774.1,311.1z"/>
	<path class="st1" d="M811.4,308.4c2.2-1.3,5.2-1.2,7.4,0c2.3,1.4,2.1,4.4,2.1,6.8c-1.3,0-2.6,0-3.9,0c0-1.1,0.1-2.3-0.2-3.3
		c-0.7-1.6-3.7-1.1-3.7,0.7c-0.5,2.1,1.2,3.6,2.5,4.9c2,2.2,4.8,4.1,5.4,7.2c0.3,2.6,0.3,5.8-2.1,7.4c-2.4,1.4-5.9,1.4-8.1-0.3
		c-2.2-1.9-1.6-5.1-1.6-7.7c1.3,0,2.6,0,3.9,0c0,1.4-0.1,2.8,0.1,4.2c0.3,1.7,3.1,1.9,3.7,0.3c0.3-1.5,0.3-3.2-0.7-4.5
		c-2.1-2.6-5.3-4.5-6.6-7.8C808.8,313.6,808.8,310,811.4,308.4z"/>
	<path class="st1" d="M666.3,307.7c3.3,0,6.6,0,9.8,0c0,1.1,0,2.3,0,3.4c-1.9,0-3.7,0-5.6,0c0,2.4,0,4.7,0,7.1c1.4,0,2.8,0,4.2,0
		c0,1.1,0,2.3,0,3.4c-1.4,0-2.8,0-4.2,0c0,3.7,0,7.3,0,11c-1.4,0-2.8,0-4.2,0C666.3,324.3,666.3,316,666.3,307.7z"/>
	<path class="st1" d="M692.6,307.7c2.4,0,4.8-0.1,7.2,0.1c1.9,0.1,3.9,1.3,4.4,3.3c0.5,2.2,0.3,4.4,0.2,6.6
		c-0.1,1.8-1.5,3.2-3.2,3.7c1.3,3.7,2.7,7.5,4,11.2c-1.5,0-3,0-4.4,0c-1.3-3.7-2.6-7.5-3.9-11.2c0,3.7,0,7.5,0,11.2
		c-1.4,0-2.8,0-4.2,0C692.6,324.3,692.6,316,692.6,307.7 M696.8,311.2c0,2.6,0,5.2,0,7.8c1.1-0.1,2.9,0.2,3.3-1.2
		c0.2-1.7,0.2-3.5,0-5.2C699.9,310.9,698,311.2,696.8,311.2z"/>
	<path class="st1" d="M710.1,307.7c3.7,0,7.4,0,11.1,0c0,1.1,0,2.3,0,3.4c-1.1,0-2.3,0-3.4,0c0,7.2,0,14.3,0,21.5
		c-1.4,0-2.8,0-4.2,0c0-7.2,0-14.3,0-21.5c-1.1,0-2.3,0-3.4,0C710.1,310,710.1,308.9,710.1,307.7z"/>
	<path class="st1" d="M723.2,307.7c1.4,0,2.8,0,4.2,0c0,3.5,0,7,0,10.5c1.3,0,2.7,0,4,0c0-3.5,0-7,0-10.5c1.4,0,2.8,0,4.2,0
		c0,8.3,0,16.6,0,24.9c-1.4,0-2.8,0-4.2,0c0-3.7,0-7.3,0-11c-1.3,0-2.7,0-4,0c0,3.7,0,7.3,0,11c-1.4,0-2.8,0-4.2,0
		C723.2,324.3,723.2,316,723.2,307.7z"/>
	<path class="st1" d="M738,307.7c3.3,0,6.7,0,10,0c0,1.1,0,2.3,0,3.4c-1.9,0-3.9,0-5.8,0c0,2.4,0,4.7,0,7.1c1.4,0,2.8,0,4.2,0
		c0,1.1,0,2.3,0,3.4c-1.4,0-2.8,0-4.1,0c0,2.5,0,5,0,7.5c1.9,0,3.9,0,5.8,0c0,1.1,0,2.3,0,3.4c-3.3,0-6.7,0-10,0
		C738,324.3,738,316,738,307.7z"/>
	<path class="st1" d="M787.2,307.7c1.6,0,3.2,0,4.8,0c1.6,8.3,3.2,16.6,4.7,24.9c-1.4,0-2.9,0-4.3,0c-0.3-1.5-0.5-3-0.8-4.5
		c-1.5,0-3,0-4.4,0c-0.2,1.5-0.5,3-0.7,4.5c-1.3,0-2.7,0-4,0C784.1,324.3,785.7,316,787.2,307.7 M789.4,314.9
		c-0.6,3.3-1.1,6.6-1.6,9.9c1.1,0,2.2,0,3.3,0C790.6,321.4,790,318.1,789.4,314.9z"/>
	<path class="st1" d="M798.4,307.7c1.4,0,2.8,0,4.2,0c0,7.2,0,14.3,0,21.5c1.7,0,3.3,0,5,0c0,1.1,0,2.3,0,3.4c-3.1,0-6.1,0-9.2,0
		C798.4,324.3,798.4,316,798.4,307.7z"/>
	<path class="st1" d="M703,367.2c9.5-4.7,20.9-5.1,30.7-1.2c10.3,4,18.6,12.6,22.3,23c10.1,0.3,19.9,4.9,26.7,12.3
		c7.1,7.6,10.9,18.1,10.2,28.4c-0.6,10.9-6.1,21.3-14.7,28c3.2,11.5,0.9,24.3-6.5,33.8c-6.1,8.1-15.5,13.6-25.6,14.8
		c-9.1,1.2-18.7-1-26.3-6.1c-11.9,8.3-28.6,9-41.1,1.5c-7.8-4.5-13.9-11.9-16.9-20.3c-2.7-7.5-2.9-15.9-0.7-23.5
		c-7.9-6.2-13.3-15.5-14.5-25.4c-1.4-10.3,1.7-21,8.2-29c6.9-8.6,17.5-14,28.5-14.3C686.8,379.6,694,371.6,703,367.2 M708.9,373.1
		c-7.7,2.9-14,9-17.3,16.4c12.1,2.1,22.9,10.4,28.1,21.6c5.2-11.2,16-19.5,28.1-21.6c-3.2-7.3-9.2-13.2-16.6-16.2
		C724.2,370.5,716,370.4,708.9,373.1 M757.9,396.9c1.6,12.1-3,24.8-12,33.1c12.3,1.4,23.5,9.2,29.3,20.1c3.3-3,6-6.7,7.7-10.9
		c3.8-8.8,3-19.4-2-27.6C776.1,403.5,767.3,397.9,757.9,396.9 M654.8,421.3c-2.2,10.4,1.6,21.8,9.5,28.9c5.8-10.9,17.1-18.6,29.4-20
		c-9.1-8.3-13.9-21.1-12.2-33.3C668.6,398.2,657.3,408.5,654.8,421.3 M689.4,397.1c-1.2,7.4,0.5,15.3,4.7,21.6
		c4.7,7.2,12.6,12.2,21.1,13.5c1.3-7.5-0.5-15.5-4.8-21.8C705.7,403.3,697.9,398.3,689.4,397.1 M727.3,413.5c-2.9,5.7-4,12.3-3,18.7
		c9.7-1.4,18.6-7.8,22.9-16.6c2.8-5.6,3.9-12.2,2.9-18.4C740.4,398.5,731.7,404.8,727.3,413.5 M727.1,441c3,6,8,11,14,14
		c8.6,4.3,19.2,4.2,27.7-0.3c-2.9-5.9-7.8-10.9-13.8-13.9C746.4,436.3,735.6,436.4,727.1,441 M689.3,439.1
		c-8,2.4-14.8,8.2-18.5,15.6c7,3.7,15.5,4.5,23,2.1c7.9-2.4,14.7-8.2,18.5-15.6C705.3,437.5,696.9,436.7,689.3,439.1 M719.6,446.4
		c-4.9,4.9-8.1,11.5-8.9,18.4c-1.1,9.3,2.4,18.8,9.1,25.3c4.9-4.9,8.1-11.4,8.9-18.3C729.8,462.5,726.3,452.9,719.6,446.4
		 M668.2,462.1c-2.8,12.5,3.3,26.3,14.3,32.7c9.3,5.7,21.7,5.7,31.1,0.1c-8.6-8.8-12.5-21.7-10.2-33.8
		C692.7,467.1,679.2,467.5,668.2,462.1 M736,461.1c2.4,12-1.4,24.9-9.8,33.7c6.9,3.9,15.4,5.1,23,3c8.7-2.3,16.2-8.6,19.9-16.7
		c2.8-5.9,3.5-12.7,2.2-19C760.3,467.5,746.7,467.1,736,461.1z"/>
</g>
</svg>
