<?xml version="1.0" encoding="utf-8"?>
<!-- Generator: Adobe Illustrator 19.0.0, SVG Export Plug-In . SVG Version: 6.00 Build 0)  -->
<svg version="1.1" id="Layer_1" xmlns="http://www.w3.org/2000/svg" xmlns:xlink="http://www.w3.org/1999/xlink" x="0px" y="0px"
	 viewBox="568 246 300 300" style="enable-background:new 568 246 300 300;" xml:space="preserve">
<style type="text/css">
	.st0{fill:#FFFFFF;}
	.st1{fill:#ccc;}
</style>
<g>
	<rect x="568" y="246" class="st0" width="300" height="300"/>
	<path class="st1" d="M601.1,277.9c2-3.3,5.7-5,9.4-5.3c4.2-0.4,8.8,0.1,12.1,2.9c3,2.5,4.2,6.6,4.3,10.3c0,3.1,0.3,6.5-1.2,9.4
		c-0.9,2-2.6,3.4-4.5,4.5c4.3,1.9,6.6,6.6,6.5,11.1c-0.1,5.2,0.7,10.8-1.6,15.7c-1.8,3.9-5.9,6.4-10.1,6.9c-5,0.6-10.7,0-14.3-3.8
		c-3.2-3.4-3.9-8.4-3.7-12.9c0.1-3.9-0.4-7.9,1.2-11.6c1-2.4,3-4.2,5.3-5.3c-3.2-1.6-5.2-5-5.4-8.5
		C598.8,286.7,598.7,281.9,601.1,277.9 M611.4,280.7c-2.4,0.5-3.2,3.3-3.1,5.5c0.1,2.5-0.4,5.2,0.6,7.6c1.1,2.4,4.5,2.7,6.5,1.5
		c1.9-1.3,1.9-3.9,1.9-5.9c-0.1-2.3,0.4-4.8-0.8-7C615.6,280.6,613.3,280.3,611.4,280.7 M611.4,303.5c-2.2,0.5-3.3,2.8-3.4,4.9
		c-0.1,3.3,0,6.6-0.1,10c0,1.8,0.1,3.8,1.2,5.3c1.4,1.8,4,1.9,5.9,1.1c1.8-0.9,2.5-3.1,2.5-5c0-3.4,0-6.9,0-10.3
		c0-1.7-0.2-3.6-1.5-4.9C615.1,303.4,613.1,303.1,611.4,303.5z"/>
	<path class="st1" d="M678.8,273.6c2.4-1.1,5.6-1.1,7.7,0.6c2.1,2,1.5,5.2,1.6,7.8c-1.3,0-2.5,0-3.8,0c-0.1-1.6,0.2-3.2-0.2-4.7
		c-0.8-1.7-3.8-1.1-3.8,0.8c-0.1,4.9-0.1,9.8,0,14.7c-0.1,2.1,3.1,2.8,3.9,0.9c0.4-1.9,0.1-3.9,0.2-5.9c1.3,0,2.5,0,3.8,0
		c-0.2,2.9,0.6,6.2-1.2,8.7c-2,2.2-5.6,2.3-8.1,1c-2-1.1-2.8-3.4-2.8-5.6c0-4.2,0-8.4,0-12.6C675.9,277.2,676.8,274.7,678.8,273.6z"
		/>
	<path class="st1" d="M758.2,273.1c2-0.4,4.3-0.2,6,1.1c1.5,1.2,2.1,3.3,2.1,5.2c0,4.2,0,8.4,0,12.6c0,2.2-1,4.7-3.1,5.7
		c-2,0.9-4.4,0.9-6.4,0c-2.2-1-3.2-3.5-3.1-5.7c0-4.4,0-8.8,0-13.2C753.7,276.2,755.5,273.5,758.2,273.1 M759.1,276.6
		c-1,0.4-1.3,1.6-1.2,2.5c0,4.2,0,8.4,0,12.6c0,0.8,0,1.6,0.4,2.2c0.7,1.3,2.9,1.2,3.6-0.1c0.4-0.8,0.3-1.8,0.3-2.8
		c-0.1-4.3,0.1-8.5-0.1-12.8C762,276.9,760.4,276,759.1,276.6z"/>
	<path class="st1" d="M649.2,273.2c3.3,0.3,6.9-0.7,10,0.9c1.9,1.2,2.5,3.5,2.5,5.6c0,4,0,8,0,12c0,2.1-0.7,4.5-2.6,5.6
		c-3.1,1.5-6.6,0.5-9.9,0.8C649.2,289.8,649.2,281.5,649.2,273.2 M653.4,276.6c0,6,0,12,0,18c1.5,0.1,3.9,0.1,4.1-1.9
		c0.1-4.7,0.1-9.5,0-14.2C657.4,276.5,654.9,276.5,653.4,276.6z"/>
	<path class="st1" d="M664.1,273.2c3.3,0,6.7,0,10,0c0,1.1,0,2.3,0,3.4c-1.9,0-3.8,0-5.8,0c0,2.4,0,4.7,0,7.1c1.3,0,2.7-0.1,4,0
		c0.4,1,0.1,2.3,0.1,3.4c-1.4,0-2.8,0-4.1,0c0,2.5,0,5,0,7.5c1.9,0,3.9,0,5.8,0c0,1.1,0,2.3,0,3.4c-3.3,0-6.7,0-10,0
		C664.1,289.8,664.1,281.5,664.1,273.2z"/>
	<path class="st1" d="M690.3,273.2c3.3,0,6.7,0,10,0c0,1.1,0,2.3,0,3.4c-1.9,0-3.9,0-5.8,0c0,2.4,0,4.7,0,7.1c1.4,0,2.8,0,4.1,0
		c0,1.1,0,2.3,0,3.4c-1.4,0-2.8,0-4.1,0c0,2.5,0,5,0,7.5c1.9,0,3.9,0,5.8,0c0,1.1,0,2.3,0,3.4c-3.3,0-6.7,0-10,0
		C690.3,289.8,690.3,281.5,690.3,273.2z"/>
	<path class="st1" d="M702.6,273.2c1.4,0,2.7,0,4.1,0c1.6,4.7,2.9,9.4,4.5,14.1c0-4.7,0-9.4,0-14.1c1.2,0,2.3,0,3.5,0
		c0,8.3,0,16.6,0,24.9c-1.2,0-2.5,0-3.7,0c-1.7-5.1-3.2-10.3-4.9-15.4c0,5.1,0,10.3,0,15.4c-1.2,0-2.4,0-3.5,0
		C702.6,289.8,702.6,281.5,702.6,273.2z"/>
	<path class="st1" d="M716.6,273.2c3.7,0,7.4,0,11.1,0c0,1.1,0,2.3,0,3.4c-1.1,0-2.3,0-3.4,0c0,7.2,0,14.3,0,21.5
		c-1.4,0-2.8,0-4.2,0c0-7.2,0-14.3,0-21.5c-1.1,0-2.3,0-3.4,0C716.6,275.5,716.6,274.3,716.6,273.2z"/>
	<path class="st1" d="M732.9,273.2c1.4,0,2.7,0,4.1,0c0.7,5.2,1.3,10.4,1.9,15.6c0.8-5.2,1.4-10.4,2.1-15.6c1.1,0,2.3,0,3.4,0
		c0.8,5.2,1.5,10.5,2.3,15.7c0.7-5.2,1.3-10.5,1.9-15.7c1.2,0,2.4,0,3.5,0c-1.1,8.3-2.1,16.6-3.2,24.9c-1.3,0-2.7,0-4,0
		c-0.8-5.1-1.6-10.1-2.5-15.2c-0.8,5-1.6,10.1-2.3,15.2c-1.3,0-2.6,0-3.9,0C735.1,289.8,734,281.5,732.9,273.2z"/>
	<path class="st1" d="M768.7,273.2c2.4,0,4.9-0.1,7.3,0.1c1.8,0.1,3.7,1.2,4.2,3.1c0.6,2.1,0.3,4.4,0.3,6.6c0,1.9-1.4,3.5-3.3,3.9
		c1.3,3.7,2.7,7.5,4,11.2c-1.5,0-3,0-4.4,0c-1.3-3.7-2.5-7.5-3.9-11.2c0,3.7,0,7.5,0,11.2c-1.4,0-2.8,0-4.2,0
		C768.7,289.8,768.7,281.5,768.7,273.2 M772.9,276.6c0,2.6,0,5.1,0,7.7c1.2,0,2.9,0.3,3.3-1.2c0.2-1.7,0.1-3.5,0-5.2
		C776,276.4,774.1,276.6,772.9,276.6z"/>
	<path class="st1" d="M782.8,273.2c1.4,0,2.8,0,4.2,0c0,3.6,0,7.2,0,10.8c1.5-3.6,3-7.2,4.5-10.8c1.4,0,2.8,0,4.1,0
		c-1.6,3.7-3.2,7.5-4.8,11.2c1.6,4.6,3.3,9.1,4.9,13.7c-1.5,0-3,0-4.4,0c-1.4-4-2.9-8-4.3-12c0,4,0,8,0,12c-1.4,0-2.8,0-4.2,0
		C782.8,289.8,782.8,281.5,782.8,273.2z"/>
	<path class="st1" d="M805.2,273.2c1.6,0,3.2,0,4.8,0c1.6,8.3,3.2,16.6,4.7,24.9c-1.4,0-2.9,0-4.3,0c-0.3-1.5-0.5-3-0.8-4.5
		c-1.5,0-2.9,0-4.4,0c-0.3,1.5-0.5,3-0.7,4.5c-1.3,0-2.7,0-4,0C802.1,289.8,803.6,281.5,805.2,273.2 M805.8,290.2c1.1,0,2.2,0,3.3,0
		c-0.5-3.3-1.1-6.6-1.6-9.8C806.9,283.6,806.4,286.9,805.8,290.2z"/>
	<path class="st1" d="M816.4,273.2c1.4,0,2.8,0,4.1,0c1.5,4.7,3,9.5,4.5,14.2c0-4.7,0-9.5,0-14.2c1.2,0,2.3,0,3.5,0
		c0,8.3,0,16.6,0,24.9c-1.2,0-2.4,0-3.6,0c-1.7-5.1-3.2-10.3-4.9-15.4c0,5.1,0,10.2,0,15.4c-1.2,0-2.4,0-3.6,0
		C816.4,289.8,816.4,281.5,816.4,273.2z"/>
	<path class="st1" d="M831,273.3c2.5-0.3,5.2-0.2,7.7-0.1c2.8,0.2,4.7,2.9,4.7,5.5c0.1,4.5,0,9,0,13.5c0,2.5-1.5,5.1-4.1,5.6
		c-2.8,0.4-5.6,0.1-8.4,0.2C831,289.8,830.9,281.6,831,273.3 M835.1,276.6c0,6,0,12,0,18c1.5,0.1,3.8,0.2,4.1-1.8
		c0.1-4.8,0.1-9.5,0-14.3C839.1,276.5,836.7,276.5,835.1,276.6z"/>
	<path class="st1" d="M664.9,308.1c2.4-0.6,5.4-0.5,7.1,1.5c1.6,2.1,1.1,4.9,1.2,7.4c-1.3,0-2.5,0-3.8,0c-0.1-1.4,0.1-2.9-0.1-4.4
		c-0.3-1.7-3-1.8-3.7-0.4c-0.5,1-0.3,2.1-0.3,3.2c0.1,4.2-0.1,8.4,0.1,12.6c0.1,2,3.4,2.4,3.9,0.4c0.3-1.9,0.1-3.8,0.2-5.7
		c1.3,0,2.5,0,3.8,0c-0.2,2.7,0.5,5.7-0.9,8.2c-1.5,2.4-5,2.7-7.5,1.9c-2.4-0.7-3.7-3.3-3.7-5.7c0-4.4,0-8.8,0-13.2
		C661,311.5,662.4,308.7,664.9,308.1z"/>
	<path class="st1" d="M680,307.9c2.1-0.4,4.5-0.2,6.2,1.3c1.5,1.3,2,3.4,2,5.4c0,4.1,0,8.2,0,12.3c0,2.2-1,4.7-3.1,5.7
		c-2.1,1-4.8,0.9-6.8-0.2c-2-1.2-2.8-3.6-2.8-5.8c0-4.3-0.1-8.6,0-12.9C675.5,311,677.3,308.3,680,307.9 M680.9,311.4
		c-1.1,0.5-1.3,1.8-1.2,2.8c0.1,4.6-0.1,9.2,0.1,13.7c0.2,2.3,4,2.2,4.1-0.1c0.2-4.8,0.1-9.7,0-14.5
		C684,311.8,682.3,310.8,680.9,311.4z"/>
	<path class="st1" d="M709.3,308c2.2-0.5,4.7-0.3,6.4,1.2c1.5,1.3,2,3.4,1.9,5.4c0,3.9,0,7.8,0,11.7c0,1.9-0.4,3.9-1.7,5.3
		c-3.2,3.1-10.1,1.9-10.8-3c-0.5-4.7-0.1-9.5-0.2-14.3C704.9,311.5,706.4,308.5,709.3,308 M710.4,311.4c-1.1,0.4-1.3,1.8-1.3,2.9
		c0,4.4,0,8.8,0,13.2c0,1.1,0.8,2.3,2,2.3c1.3,0.1,2.3-1.1,2.2-2.3c0-4.7,0-9.4,0-14.1C713.5,311.8,711.8,310.8,710.4,311.4z"/>
	<path class="st1" d="M747.9,308.2c2.4-0.8,5.6-0.7,7.4,1.3c1.6,2.1,1.1,5,1.2,7.5c-1.3,0-2.6,0-3.8,0c-0.1-1.5,0.1-3-0.1-4.4
		c-0.4-1.7-3.1-1.7-3.7-0.2c-0.4,0.9-0.3,1.9-0.3,2.8c0.1,4.3-0.1,8.5,0.1,12.8c0,2,3.3,2.5,3.9,0.6c0.4-1.9,0.1-3.9,0.2-5.8
		c1.3,0,2.6,0,3.8,0c-0.1,2.7,0.5,5.6-0.8,8.1c-1.5,2.6-5,2.8-7.6,2c-2.4-0.7-3.6-3.3-3.7-5.7c-0.1-4.3,0-8.6,0-12.9
		C744.3,311.8,745.4,309,747.9,308.2z"/>
	<path class="st1" d="M766.4,308.1c2.3-0.7,5.2-0.6,7,1.1c1.8,1.9,1.5,4.6,1.5,7c-1.3,0-2.5,0-3.8,0c0-1.2,0.1-2.4-0.1-3.6
		c-0.4-1.7-3.2-1.8-3.8-0.2c-0.4,1.1-0.2,2.2-0.3,3.3c0.1,4.1-0.1,8.2,0.1,12.3c0.1,2,3.4,2.3,3.9,0.4c0.3-1.8,0.1-3.7,0.1-5.5
		c-0.6,0-1.3,0-1.9,0c0-1.1,0-2.2,0-3.3c2,0,4,0,6,0c0,4.4,0,8.9,0,13.3c-1,0-2,0-3,0c0-0.8,0-1.7,0-2.5c-0.9,3.1-5.3,3.6-7.5,1.5
		c-1.4-1.4-1.8-3.5-1.8-5.4c0-4.2,0-8.4,0-12.6C762.6,311.5,763.9,308.9,766.4,308.1z"/>
	<path class="st1" d="M795.7,308c2.2-0.5,4.7-0.3,6.4,1.3c1.5,1.3,1.9,3.4,1.9,5.3c0,4.1,0,8.2,0,12.3c0,2.2-1,4.6-3,5.7
		c-2.1,1-4.8,1-6.8-0.1c-2-1.2-2.8-3.6-2.8-5.8c0-4.3,0-8.6,0-12.9C791.4,311.1,793.1,308.5,795.7,308 M796.9,311.4
		c-1,0.4-1.3,1.6-1.3,2.6c0,4.4,0,8.8,0,13.2c-0.1,1.1,0.6,2.5,1.8,2.5c1.3,0.2,2.5-1,2.4-2.3c0-4.7,0-9.4,0-14.1
		C799.9,311.9,798.2,310.8,796.9,311.4z"/>
	<path class="st1" d="M649.2,308c3.3,0,6.7,0,10,0c-0.1,1.1,0.2,2.4-0.1,3.4c-1.9,0.1-3.8,0-5.6,0c0,2.4,0,4.7,0,7.1
		c1.4,0,2.8,0,4.2,0.1c0,1.1,0,2.2,0,3.3c-1.4,0.1-2.8,0-4.2,0.1c0,2.5,0,5,0,7.5c1.9,0,3.9,0,5.8,0c0,1.1,0,2.3,0,3.4
		c-3.3,0-6.7,0-10,0C649.2,324.6,649.2,316.3,649.2,308z"/>
	<path class="st1" d="M690.5,308c1.4,0,2.8,0,4.1,0c1.5,4.7,2.9,9.4,4.5,14.1c0-4.7,0-9.4,0-14.1c1.2,0,2.3,0,3.5,0
		c0,8.3,0,16.6,0,24.9c-1.2,0-2.5,0-3.7,0c-1.7-5.1-3.2-10.3-4.9-15.4c0,5.1,0,10.3,0,15.4c-1.2,0-2.4,0-3.6,0
		C690.5,324.6,690.5,316.3,690.5,308z"/>
	<path class="st1" d="M720,308c1.6,0,3.3,0,4.9,0c0.9,4.5,1.7,9.1,2.7,13.6c1-4.5,1.6-9.1,2.5-13.6c1.8,0,3.5,0,5.3,0
		c0,8.3,0,16.6,0,24.9c-1.3,0-2.6,0-3.8,0c0-5.4,0-10.8,0-16.1c-1,5.4-1.9,10.8-2.9,16.1c-0.7,0-1.3,0-2,0c-1.1-5.4-2-10.8-3.1-16.1
		c-0.1,5.4,0,10.7,0,16.1c-1.2,0-2.3,0-3.5,0C720,324.6,720,316.3,720,308z"/>
	<path class="st1" d="M737.7,308.1c1.4-0.1,2.8,0,4.2,0c0,8.3,0,16.6,0,24.9c-1.4,0-2.8,0-4.2,0
		C737.7,324.7,737.8,316.4,737.7,308.1z"/>
	<path class="st1" d="M777.3,308c2.4,0,4.8-0.1,7.3,0.1c1.8,0.1,3.8,1.2,4.3,3c0.6,2.1,0.3,4.4,0.3,6.6c0,1.9-1.4,3.5-3.3,3.9
		c1.3,3.8,2.7,7.5,4,11.2c-1.5,0-2.9,0-4.4,0c-1.3-3.7-2.5-7.4-3.9-11c-0.1,3.7,0,7.3,0,11c-1.4,0-2.8,0-4.2,0
		C777.3,324.6,777.2,316.3,777.3,308 M781.5,311.5c0,2.6,0,5.1,0,7.7c1.2,0,3.1,0.2,3.3-1.4c0.1-1.7,0.2-3.5-0.1-5.2
		C784.3,311.2,782.6,311.5,781.5,311.5z"/>
	<path class="st1" d="M805.5,308c1.3,0,2.7,0,4,0c0.8,5.2,1.1,10.5,2.1,15.6c0.5-5.2,1.3-10.4,2-15.5c1.1,0,2.3,0,3.4,0
		c0.8,5.2,1.5,10.5,2.3,15.7c0.7-5.2,1.3-10.4,1.9-15.6c1.2-0.1,2.4-0.1,3.6,0c-1.1,8.3-2.2,16.6-3.2,24.9c-1.3,0-2.7,0-4,0
		c-0.8-5-1.6-10-2.4-15c-1,5-1.6,10-2.4,15c-1.3,0-2.6,0-3.9,0C807.7,324.6,806.6,316.3,805.5,308z"/>
	<path class="st1" d="M826.1,308c3.7,0,7.4,0,11.1,0c0,1.1,0,2.3,0,3.4c-1.1,0-2.3,0-3.4,0c0,7.2,0,14.3,0,21.5c-1.4,0-2.8,0-4.2,0
		c0-7.2,0-14.3,0-21.5c-1.1,0-2.3,0-3.4,0C826.1,310.3,826.1,309.2,826.1,308z"/>
	<path class="st1" d="M839.2,308.2c1.3-0.4,2.8-0.1,4.2-0.2c0,3.5,0,7,0,10.5c1.3,0,2.7,0,4,0c0-3.5,0-7,0-10.5c1.4,0,2.8,0,4.2,0
		c0,8.3,0,16.6,0,24.9c-1.4,0-2.8,0-4.2,0c0-3.7,0-7.3,0-11c-1.3,0-2.7,0-4,0c0,3.7,0,7.3,0,11c-1.4,0-2.8,0-4.2,0
		C839.2,324.7,839.1,316.4,839.2,308.2z"/>
	<path class="st1" d="M763.1,363.4c7.7-1.7,15.5-3.5,23.2-5.2c0.7-0.3,1.6,0.3,1.4,1.1c-1.7,7.9-3.4,15.8-5.1,23.6
		c-0.1,0.7-1.1,0.9-1.5,0.4c-1.9-1.8-3.6-3.6-5.5-5.4c-19.7,19.6-39.3,39.3-59,58.9c-0.5,0.6-1.1,0.2-1.5-0.2
		c-7.9-7.9-15.8-15.8-23.6-23.7c-12.7,12.6-25.3,25.3-38,37.9c-0.3,0.4-0.9,0.4-1.2,0c-2.1-2.1-4.2-4.2-6.3-6.3
		c-0.5-0.4-0.3-1,0.2-1.4c14.9-14.9,29.8-29.8,44.7-44.7c0.4-0.5,1-0.3,1.3,0.1c7.9,7.9,15.9,15.8,23.8,23.8
		c17.4-17.3,34.7-34.7,52.1-52c-1.8-1.8-3.7-3.6-5.5-5.5C762.1,364.4,762.3,363.4,763.1,363.4z"/>
	<path class="st1" d="M774.9,392.9c1.1-0.7,1.9,0.7,1.8,1.6c0,37.2,0,74.4,0,111.6c0.2,1.1-0.7,2.1-1.9,2c-10.2,0-20.3,0-30.5,0
		c-1,0.1-2.1-0.6-2-1.7c0-26.8,0-53.5,0-80.3c-0.1-1.5,0.5-3,1.6-3.9c10-9.5,20-19,30-28.6C774.3,393.4,774.6,393.1,774.9,392.9z"/>
	<path class="st1" d="M688.5,430.1c1.1-0.7,1.9,0.7,1.8,1.7c0,24.8,0,49.6,0,74.4c0.1,1.1-0.7,2.1-1.9,2c-10.3,0-20.5,0-30.8,0
		c-1.1,0.1-1.9-1-1.8-2c0-14.3,0-28.5,0-42.8c-0.1-1.5,0.5-3,1.6-4c9.7-9.2,19.4-18.5,29.1-27.7
		C687.2,431.1,687.8,430.5,688.5,430.1z"/>
	<path class="st1" d="M732.5,434.8c0.9-0.2,1.4,0.8,1.4,1.6c0,23.3,0,46.5,0,69.8c0.1,1-0.7,2.1-1.8,2c-10.3,0-20.5,0-30.8,0
		c-1.1,0.1-2-0.9-1.9-2c0-23,0-45.9,0-68.9c-0.2-1.5,1.6-1.8,2.4-0.8c4.6,4.5,9.1,9.3,13.7,13.9c0.4,0.5,0.9,0.1,1.2-0.2
		c4.7-4.7,9.3-9.4,14-14.1C731.3,435.5,731.8,435,732.5,434.8z"/>
</g>
</svg>
