<?xml version="1.0" encoding="utf-8"?>
<!-- Generator: Adobe Illustrator 19.0.0, SVG Export Plug-In . SVG Version: 6.00 Build 0)  -->
<svg version="1.1" id="Layer_1" xmlns="http://www.w3.org/2000/svg" xmlns:xlink="http://www.w3.org/1999/xlink" x="0px" y="0px"
	 viewBox="568 246 300 300" style="enable-background:new 568 246 300 300;" xml:space="preserve">
<style type="text/css">
	.st0{fill:#FFFFFF;}
	.st1{fill:#E11484;}
</style>
<g>
	<rect x="568" y="246" class="st0" width="300" height="300"/>
	<path class="st1" d="M628.5,272.5c4.4-0.4,9.3,0.4,12.6,3.6c3.4,3.3,4.5,8.2,4.4,12.7c0,9.7,0,19.3,0,29c0,4.4-1.3,9.1-4.7,12.1
		c-3.2,2.9-7.7,3.8-11.9,3.4c-3.5-0.2-6.9-1.6-9.3-4.2c-2.8-3.1-3.8-7.5-3.8-11.6c0-9.8,0-19.5,0-29.3c0-4.1,1-8.3,3.7-11.4
		C621.8,274.2,625.1,272.8,628.5,272.5 M629,281c-2.4,0.7-3.2,3.5-3.2,5.8c0,10.7,0,21.5,0,32.2c0,2,0.4,4.4,2.3,5.5
		c1.9,1,4.7,0.8,6.1-1c1-1.4,1.2-3.1,1.2-4.7c0-10.5,0-21.1,0-31.6c0-1.7-0.2-3.5-1.4-4.9C632.9,280.7,630.7,280.5,629,281z"/>
	<path class="st1" d="M600.9,273.1c2.7,0,5.3,0,8,0c0,19.9,0,39.7,0,59.6c-3.4,0-6.7,0-10.1,0c0-15.2,0-30.4,0-45.6
		c-2.4,2.5-4.8,5-7.2,7.4c0-3.3,0-6.6,0-9.8c-0.1-0.6,0.2-1.1,0.6-1.5C595.2,279.8,598,276.4,600.9,273.1z"/>
	<path class="st1" d="M725.1,273.3c2.4-0.7,5.4-0.7,7.2,1.2c1.8,2.1,1.3,5.1,1.3,7.6c-1.3,0-2.5,0-3.8,0c-0.1-1.5,0.2-3.1-0.2-4.6
		c-0.7-1.8-3.9-1.2-3.8,0.8c-0.1,4.9-0.1,9.7,0,14.6c-0.1,2,3,2.8,3.8,1c0.5-1.9,0.1-4,0.3-6c1.3,0,2.5,0,3.8,0
		c-0.1,2.7,0.5,5.8-1,8.3c-1.6,2.4-5,2.6-7.5,1.8c-2.4-0.7-3.7-3.3-3.7-5.7c-0.1-4.3,0-8.6,0-12.9
		C721.4,276.9,722.6,274.1,725.1,273.3z"/>
	<path class="st1" d="M665.7,273.2c2.5,0,5-0.1,7.5,0.1c1.8,0.1,3.7,1.3,4.1,3.2c0.5,2.2,0.3,4.5,0.2,6.7c-0.1,1.8-1.5,3.2-3.2,3.7
		c1.3,3.7,2.7,7.5,4,11.2c-1.5,0-3,0-4.4,0c-1.3-3.7-2.5-7.5-3.9-11.2c-0.1,3.7,0,7.5,0,11.2c-1.4,0-2.8,0-4.2,0
		C665.7,289.8,665.7,281.5,665.7,273.2 M669.9,276.6c0,2.6,0,5.2,0,7.7c1.2,0,3,0.2,3.3-1.3c0.2-1.7,0.2-3.5,0-5.2
		C672.9,276.4,671.1,276.6,669.9,276.6z"/>
	<path class="st1" d="M679.8,273.2c3.3,0,6.7,0,10,0c0,1.1,0,2.3,0,3.4c-1.9,0-3.9,0-5.8,0c0,2.4,0,4.7,0,7.1c1.4,0,2.8,0,4.1,0
		c0,1.1,0,2.3,0,3.4c-1.4,0-2.8,0-4.1,0c0,2.5,0,5,0,7.5c1.9,0,3.9,0,5.8,0c0,1.1,0,2.3,0,3.4c-3.3,0-6.7,0-10,0
		C679.8,289.8,679.8,281.5,679.8,273.2z"/>
	<path class="st1" d="M692.1,273.2c3.4,0.3,7-0.8,10.1,0.9c1.9,1.2,2.4,3.7,2.4,5.9c0,4.2,0.1,8.4-0.1,12.6c-0.1,2.5-1.7,5-4.3,5.3
		c-2.7,0.3-5.5,0.1-8.2,0.1C692,289.8,692,281.5,692.1,273.2 M696.3,276.6c0,6,0,12,0,18.1c1.5,0.1,3.8,0.2,4-1.8
		c0.2-4.3,0-8.6,0.1-12.9c0-1,0.1-2.2-0.8-2.9C698.6,276.4,697.4,276.7,696.3,276.6z"/>
	<path class="st1" d="M706.9,273.2c1.4,0,2.8,0,4.2,0c0,6.5,0,12.9,0,19.4c-0.1,1.2,0.8,2.4,2.1,2.3c1.2,0.1,2-1.2,1.9-2.3
		c0-6.5,0-12.9,0-19.4c1.3,0,2.6,0,3.9,0c0,6.4,0,12.8,0,19.1c0,2.1-0.7,4.4-2.7,5.4c-2.1,1-4.8,0.9-6.9-0.2c-1.8-1-2.6-3.2-2.6-5.2
		C706.9,285.9,706.9,279.6,706.9,273.2z"/>
	<path class="st1" d="M735.9,273.2c3.3,0,6.7,0,10,0c0,1.1,0,2.3,0,3.4c-1.9,0-3.9,0-5.8,0c0,2.4,0,4.7,0,7.1c1.4,0,2.8,0,4.1,0
		c0,1.1,0,2.3,0,3.4c-1.4,0-2.8,0-4.1,0c0,2.5,0,5,0,7.5c1.9,0,3.9,0,5.8,0c0,1.1,0,2.3,0,3.4c-3.3,0-6.7,0-10,0
		C735.9,289.8,735.9,281.5,735.9,273.2z"/>
	<path class="st1" d="M748.1,273.2c3.2,0.2,6.7-0.6,9.7,0.7c2,1,2.8,3.4,2.8,5.5c0,4.1,0,8.2,0,12.3c0,2.1-0.7,4.6-2.7,5.6
		c-3.1,1.4-6.6,0.5-9.8,0.7C748.1,289.8,748.1,281.5,748.1,273.2 M752.3,276.6c0,6,0,12,0,18.1c1.5,0.1,3.8,0.2,4-1.8
		c0.2-4.3,0-8.6,0.1-12.9c0-1,0.1-2.3-0.9-3C754.6,276.4,753.4,276.7,752.3,276.6z"/>
	<path class="st1" d="M701.9,308.4c2.1-0.9,4.6-0.9,6.6,0.2c2,1.1,2.9,3.5,2.8,5.7c0,4.3,0,8.6,0,12.9c0,2.1-1.1,4.2-2.9,5.2
		c1,0.2,2,0.4,3,0.6c0,1,0,2.1,0,3.1c-2.6-0.5-5.3-1-7.9-1.5c0-0.5,0-1.1,0-1.6c-2.6-0.4-4.6-2.7-4.7-5.3c-0.1-4.5,0-9-0.1-13.5
		C698.6,311.9,699.6,309.3,701.9,308.4 M704,311.4c-1.1,0.5-1.2,1.8-1.2,2.8c0,4.5,0,9,0,13.5c0,1.2,1,2.4,2.2,2.2
		c1.3,0,2.1-1.3,2-2.5c0-4.7,0.1-9.4,0-14.1C707.2,311.8,705.4,310.7,704,311.4z"/>
	<path class="st1" d="M794,308.6c2.3-1.2,5.2-1.2,7.4,0.2c2.1,1.5,2,4.4,1.9,6.7c-1.3,0-2.6,0-3.9,0c0-1.1,0.2-2.3-0.2-3.4
		c-0.8-1.5-3.6-1.1-3.7,0.7c-0.5,2.5,1.8,4,3.2,5.5c1.9,2,4.4,3.9,4.7,6.8c0.2,2.5,0.2,5.7-2.2,7.2c-2.4,1.4-5.9,1.4-8.1-0.4
		c-2.2-1.9-1.5-5.1-1.6-7.7c1.3,0,2.6,0,3.9,0c0,1.4-0.1,2.9,0.1,4.3c0.4,1.7,3.3,1.7,3.7,0c0.2-1.3,0.3-2.8-0.5-4
		c-2.1-2.7-5.4-4.6-6.8-7.9C791.3,313.9,791.3,310.2,794,308.6z"/>
	<path class="st1" d="M665.7,308c1.4,0,2.8,0,4.2,0c0,8.3,0,16.6,0,24.9c-1.4,0-2.8,0-4.2,0C665.7,324.6,665.7,316.3,665.7,308z"/>
	<path class="st1" d="M672.3,308c1.4,0,2.7,0,4.1,0c1.5,4.7,3,9.4,4.5,14.1c0-4.7,0-9.4,0-14.1c1.2,0,2.3,0,3.5,0
		c0,8.3,0,16.6,0,24.9c-1.2,0-2.5,0-3.7,0c-1.6-5.1-3.2-10.3-4.9-15.5c0,5.2,0,10.3,0,15.5c-1.2,0-2.4,0-3.5,0
		C672.3,324.6,672.3,316.3,672.3,308z"/>
	<path class="st1" d="M686.8,308c3.3,0,6.7,0,10,0c0,1.1,0,2.3,0,3.4c-1.9,0-3.8,0-5.8,0c0,2.4,0,4.7,0,7.1c1.4,0,2.7,0,4.1,0
		c0,1.1,0,2.3,0,3.4c-1.4,0-2.7,0-4.1,0c0,2.5,0,5,0,7.5c1.9,0,3.9,0,5.8,0c0,1.1,0,2.3,0,3.4c-3.3,0-6.7,0-10,0
		C686.8,324.6,686.8,316.3,686.8,308z"/>
	<path class="st1" d="M713.7,308c1.4,0,2.8,0,4.2,0c0.1,6.7-0.1,13.3,0.1,20c0.1,2.4,4.2,2.1,4-0.3c0.1-6.6,0-13.1,0-19.7
		c1.3,0,2.6,0,3.9,0c0,6.4,0,12.8,0,19.1c0,2.1-0.7,4.4-2.7,5.4c-2.1,1-4.8,0.9-6.9-0.2c-1.8-1-2.6-3.2-2.6-5.2
		C713.7,320.8,713.7,314.4,713.7,308z"/>
	<path class="st1" d="M731.7,308c1.6,0,3.2,0,4.8,0c1.6,8.3,3.2,16.6,4.7,24.9c-1.4,0-2.9,0-4.3,0c-0.3-1.5-0.5-3-0.8-4.5
		c-1.5,0-2.9,0-4.4,0c-0.3,1.5-0.5,3-0.7,4.5c-1.3,0-2.7,0-4,0C728.6,324.6,730.1,316.3,731.7,308 M733.9,315.1
		c-0.6,3.3-1.1,6.6-1.6,9.9c1.1,0,2.2,0,3.3,0C735,321.7,734.5,318.4,733.9,315.1z"/>
	<path class="st1" d="M742.9,308c1.4,0,2.8,0,4.2,0c0,7.2,0,14.3,0,21.5c1.7,0,3.3,0,5,0c0,1.1,0,2.3,0,3.4c-3.1,0-6.1,0-9.2,0
		C742.9,324.6,742.9,316.3,742.9,308z"/>
	<path class="st1" d="M754,308c1.4,0,2.8,0,4.2,0c0,8.3,0,16.6,0,24.9c-1.4,0-2.8,0-4.2,0C754,324.6,754,316.3,754,308z"/>
	<path class="st1" d="M760.1,308c3.7,0,7.4,0,11.2,0c0,1.1,0,2.3,0,3.4c-1.2,0-2.3,0-3.5,0c0,7.2,0,14.3,0,21.5c-1.4,0-2.8,0-4.2,0
		c0-7.1,0-14.3,0-21.5c-1.2,0-2.3,0-3.5,0C760.1,310.3,760.1,309.2,760.1,308z"/>
	<path class="st1" d="M773.2,308c1.4,0,2.8,0,4.2,0c0,8.3,0,16.6,0,24.9c-1.4,0-2.8,0-4.2,0C773.2,324.6,773.2,316.3,773.2,308z"/>
	<path class="st1" d="M779.8,308c3.3,0,6.7,0,10,0c0,1.1,0,2.3,0,3.4c-1.9,0-3.9,0-5.8,0c0,2.4,0,4.7,0,7.1c1.4,0,2.8,0,4.1,0
		c0,1.1,0,2.3,0,3.4c-1.4,0-2.8,0-4.1,0c0,2.5,0,5,0,7.5c1.9,0,3.9,0,5.8,0c0,1.1,0,2.3,0,3.4c-3.3,0-6.7,0-10,0
		C779.8,324.6,779.8,316.3,779.8,308z"/>
	<path class="st1" d="M682.2,373.3c10.7-6.1,22.9-9.4,35.2-9.5c18-0.2,35.9,6.6,49.3,18.7c1,0.8,1,2.5,0,3.3
		c-2.6,2.6-5.2,5.2-7.8,7.7c-0.8,0.9-2.3,0.9-3.2,0c-8.5-7.6-19.2-12.6-30.5-14.3c-18-2.8-37.1,3.3-50.1,16.1
		c-8,7.7-13.7,17.8-16.3,28.6c-4.2,17.1-0.2,35.9,10.5,49.7c7.3,10.3,17.8,18.4,29.8,22.7c11.7,4.3,24.8,5,36.9,1.8
		c17-4.3,32-16.1,40-31.7c8.5-16,9.5-35.7,2.5-52.5c-2.3-5.3-5-10.5-8-15.4c14.3,17.5,18.5,42.6,11.2,63.9
		c-5.7,17.3-18.6,32.1-35.1,40c-11.5,5.6-24.5,7.9-37.2,6.5c-13.4-1.4-26.3-6.9-36.7-15.5c-14.3-11.3-24-28.3-26.6-46.4
		c-1.8-12.4-0.3-25.4,4.3-37C656.5,394.6,667.8,381.5,682.2,373.3z"/>
	<path class="st1" d="M689,418.3c19.5-0.1,39.1,0,58.7-0.1c0.5,0.1,1.5-0.2,1.5,0.6c0,4.5,0.1,9,0,13.5c0,0.8-1,0.5-1.5,0.6
		c-19.6-0.1-39.1,0.1-58.7-0.1C688.7,428,688.7,423.1,689,418.3z"/>
	<path class="st1" d="M688.9,443.4c19.7-0.1,39.3,0,59,0c0.5,0,1.3,0,1.2,0.7c0.1,4.6,0,9.3,0,13.9c-1.8,0.3-3.6,0.1-5.3,0.1
		c-18.1,0-36.1,0-54.2,0c-0.9,0.1-0.7-1.1-0.8-1.7C688.9,452.1,688.7,447.7,688.9,443.4z"/>
</g>
</svg>
