<?xml version="1.0" encoding="utf-8"?>
<!-- Generator: Adobe Illustrator 19.0.0, SVG Export Plug-In . SVG Version: 6.00 Build 0)  -->
<svg version="1.1" id="Layer_1" xmlns="http://www.w3.org/2000/svg" xmlns:xlink="http://www.w3.org/1999/xlink" x="0px" y="0px"
	 viewBox="568 246 300 300" style="enable-background:new 568 246 300 300;" xml:space="preserve">
<style type="text/css">
	.st0{fill:#FFFFFF;}
	.st1{fill:#279B48;}
</style>
<g>
	<rect x="568" y="246" class="st0" width="300" height="300"/>
	<path class="st1" d="M603.7,278.7c1.8-3.8,6-5.8,10-6.1c4.6-0.4,10.1,0.4,13,4.4c3.2,4.3,2.4,10,2.5,15c0,4-2.8,7.8-6.7,9
		c3.6,0.7,6.6,3.7,7,7.4c0.4,3.5,0.1,7,0.2,10.5c0.1,3.8-0.6,8-3.4,10.8c-3.2,3.2-7.9,3.9-12.2,3.7c-4.1-0.1-8.6-1.8-10.7-5.6
		c-2.8-5.2-1.7-11.4-2-17c3,0,6.1,0,9.1,0c0,3,0,6,0,9.1c0,1.8,0.5,3.8,2.2,4.7c1.6,0.8,3.7,0.8,5.1-0.3c1.5-1.1,1.8-3.1,1.8-4.8
		c0-3.3,0-6.6,0-10c0-1.7-0.8-3.5-2.5-4.1c-2.1-0.7-4.4-0.2-6.7-0.4c0-2.6,0-5.1,0-7.7c2.6-0.1,5.7,0.6,7.8-1.4
		c1.7-1.7,1.2-4.3,1.3-6.4c-0.1-2.2,0.3-4.7-0.6-6.8c-1-2.1-3.8-2.4-5.7-1.6c-1.6,0.8-2.1,2.6-2.2,4.2c-0.1,2.4,0,4.8-0.1,7.2
		c-3,0-6.1,0-9.1,0C602,288.1,601.4,283.1,603.7,278.7z"/>
	<path class="st1" d="M661.8,273.9c2.3-0.6,5.1-0.6,7,1.1c1.8,1.9,1.5,4.6,1.5,7c-1.3,0-2.6,0-3.8,0c-0.1-1.3,0.2-2.7-0.3-4
		c-0.9-1.6-3.8-1-3.9,0.9c-0.2,4.3,0,8.6-0.1,12.9c0,1-0.1,2.1,0.4,3c0.8,1.4,3.4,1,3.6-0.6c0.2-1.7,0-3.5,0.1-5.3c-0.7,0-1.3,0-2,0
		c0-1.1,0-2.2,0-3.3c2,0,4,0,6,0c0,4.4,0,8.9,0,13.3c-1,0-2,0-3,0c0-0.8,0-1.6,0-2.5c-1,3.2-5.5,3.6-7.6,1.3
		c-1.4-1.5-1.7-3.6-1.7-5.6c0-4.1,0-8.2,0-12.3C658,277.2,659.3,274.6,661.8,273.9z"/>
	<path class="st1" d="M677.4,273.7c2.1-0.3,4.4-0.1,6,1.4c1.4,1.3,1.9,3.4,1.9,5.3c0,4.1,0,8.2,0,12.3c0,2.2-0.9,4.6-2.9,5.7
		c-2.1,1.1-4.8,1.1-6.9,0c-2.1-1.1-2.9-3.7-2.8-5.9c0-4.3,0-8.6,0-12.9C672.7,276.7,674.6,274,677.4,273.7 M678.2,277.1
		c-1.1,0.3-1.4,1.5-1.4,2.5c0,4.5,0,9,0,13.5c0,1.1,0.7,2.3,1.9,2.3c1.3,0.2,2.4-1,2.3-2.3c0-4.7,0.1-9.4,0-14.1
		C681.1,277.7,679.6,276.6,678.2,277.1z"/>
	<path class="st1" d="M692.3,273.7c2.1-0.4,4.4-0.1,6.1,1.3c1.5,1.3,1.9,3.4,1.9,5.3c0,4.1,0,8.2,0,12.3c0,2.2-0.9,4.6-3,5.7
		c-2.1,1-4.8,1-6.9-0.1c-2-1.2-2.8-3.6-2.8-5.9c0-4.3,0-8.6,0-12.9C687.7,276.7,689.6,274.1,692.3,273.7 M693.2,277.2
		c-1.2,0.4-1.4,1.8-1.3,2.8c0,4.4,0,8.8,0,13.2c-0.1,1.2,0.8,2.4,2.1,2.3c1.3,0.1,2.2-1.1,2.1-2.3c0-4.7,0-9.4,0-14.1
		C696.1,277.6,694.5,276.6,693.2,277.2z"/>
	<path class="st1" d="M702.7,273.8c3.2,0.2,6.6-0.6,9.7,0.7c2,1,2.8,3.4,2.9,5.5c0,4.1,0,8.2,0,12.3c0,2.1-0.7,4.6-2.7,5.6
		c-3.1,1.4-6.6,0.5-9.8,0.8C702.7,290.4,702.7,282.1,702.7,273.8 M706.9,277.2c0,6,0,12,0,18c1.5,0.1,3.9,0.2,4-1.8
		c0.1-4.8,0.1-9.6,0-14.4C710.8,277.1,708.4,277.2,706.9,277.2z"/>
	<path class="st1" d="M721.4,273.8c1.4,0,2.8,0,4.2,0c0,3.5,0,7,0,10.5c1.3,0,2.7,0,4,0c0-3.5,0-7,0-10.5c1.4,0,2.8,0,4.2,0
		c0,8.3,0,16.6,0,24.9c-1.4,0-2.8,0-4.2,0c0-3.7,0-7.3,0-11c-1.3,0-2.7,0-4,0c0,3.7,0,7.3,0,11c-1.4,0-2.8,0-4.2,0
		C721.4,290.4,721.4,282.1,721.4,273.8z"/>
	<path class="st1" d="M736.3,273.8c3.3,0,6.7,0,10,0c0,1.1,0,2.3,0,3.4c-1.9,0-3.9,0-5.8,0c0,2.4,0,4.7,0,7.1c1.4,0,2.7,0,4.1,0
		c0,1.1,0,2.3,0,3.4c-1.4,0-2.7,0-4.1,0c0,2.5,0,5,0,7.5c1.9,0,3.9,0,5.8,0c0,1.1,0,2.3,0,3.4c-3.3,0-6.7,0-10,0
		C736.3,290.4,736.3,282.1,736.3,273.8z"/>
	<path class="st1" d="M752.5,273.8c1.6,0,3.2,0,4.8,0c1.6,8.3,3.2,16.6,4.7,24.9c-1.4,0-2.9,0-4.3,0c-0.3-1.5-0.5-3-0.8-4.6
		c-1.5,0-2.9,0-4.4,0c-0.3,1.5-0.5,3-0.7,4.6c-1.3,0-2.7,0-4,0C749.4,290.4,751,282.1,752.5,273.8 M754.8,280.9
		c-0.6,3.3-1.1,6.6-1.6,9.9c1.1,0,2.2,0,3.3,0C755.9,287.5,755.3,284.2,754.8,280.9z"/>
	<path class="st1" d="M763.8,273.8c1.4,0,2.8,0,4.2,0c0,7.2,0,14.3,0,21.5c1.7,0,3.3,0,5,0c0,1.1,0,2.3,0,3.4c-3.1,0-6.1,0-9.2,0
		C763.8,290.4,763.7,282.1,763.8,273.8z"/>
	<path class="st1" d="M772,273.8c3.7,0,7.4,0,11.1,0c0,1.1,0,2.3,0,3.4c-1.1,0-2.3,0-3.4,0c0,7.2,0,14.3,0,21.5c-1.4,0-2.8,0-4.2,0
		c0-7.2,0-14.3,0-21.5c-1.2,0-2.3,0-3.5,0C772,276.1,772,275,772,273.8z"/>
	<path class="st1" d="M785,273.8c1.4,0,2.8,0,4.2,0c0,3.5,0,7,0,10.5c1.3,0,2.7,0,4,0c0-3.5,0-7,0-10.5c1.4,0,2.8,0,4.2,0
		c0,8.3,0,16.6,0,24.9c-1.4,0-2.8,0-4.2,0c0-3.7,0-7.3,0-11c-1.3,0-2.7,0-4,0c0,3.7,0,7.3,0,11c-1.4,0-2.8,0-4.2,0
		C785,290.4,785,282.1,785,273.8z"/>
	<path class="st1" d="M818.7,308.6c2.3-0.5,5.2-0.4,6.8,1.5c1.5,1.9,1.2,4.5,1.3,6.7c-1.3,0-2.6,0-3.8,0c0-1.2,0.1-2.5-0.2-3.7
		c-0.4-1.3-2.1-1.6-3.2-0.9c-0.8,0.6-0.9,1.7-0.9,2.6c0,4.1,0,8.2,0,12.3c0,0.8,0,1.7,0.5,2.5c0.8,1.2,3.1,0.9,3.5-0.6
		c0.3-1.8,0.1-3.6,0.1-5.4c-0.7,0-1.3,0-2,0c0-1.1,0-2.2,0-3.3c2,0,4,0,6,0c0,4.4,0,8.9,0,13.3c-1,0-2,0-3,0c0-0.8,0-1.6,0-2.4
		c-1,3.2-5.6,3.5-7.6,1.2c-1.4-1.6-1.7-3.8-1.6-5.8c0-4.1,0-8.2,0-12.3C814.6,311.8,816.2,309.2,818.7,308.6z"/>
	<path class="st1" d="M662,308.7c1.6,0,3.2,0,4.8,0c1.6,8.3,3.2,16.6,4.7,24.9c-1.4,0-2.9,0-4.3,0c-0.3-1.5-0.5-3-0.8-4.5
		c-1.5,0-2.9,0-4.4,0c-0.3,1.5-0.5,3-0.7,4.5c-1.3,0-2.7,0-4,0C658.9,325.3,660.4,317,662,308.7 M664.2,315.7
		c-0.6,3.3-1.1,6.6-1.6,9.9c1.1,0,2.2,0,3.3,0C665.3,322.4,664.8,319,664.2,315.7z"/>
	<path class="st1" d="M673.3,308.7c1.4,0,2.8,0,4.2,0c1.4,4.7,2.9,9.4,4.4,14.1c0-4.7,0-9.4,0-14.1c1.2,0,2.3,0,3.5,0
		c0,8.3,0,16.6,0,24.9c-1.2,0-2.5,0-3.7,0c-1.6-5.1-3.2-10.3-4.9-15.5c0,5.2,0,10.3,0,15.5c-1.2,0-2.4,0-3.5,0
		C673.3,325.3,673.2,317,673.3,308.7z"/>
	<path class="st1" d="M687.7,308.7c3.2,0.2,6.6-0.6,9.7,0.7c2,1,2.8,3.4,2.8,5.5c0,4.1,0,8.2,0,12.3c0,2.1-0.7,4.6-2.7,5.7
		c-3.1,1.4-6.6,0.5-9.9,0.8C687.7,325.3,687.7,317,687.7,308.7 M691.9,312.1c0,6,0,12,0,18c1.5,0.1,3.9,0.2,4.1-1.8
		c0.2-4.3,0-8.6,0.1-12.9c0-1,0.1-2.3-0.9-2.9C694.2,311.9,693,312.2,691.9,312.1z"/>
	<path class="st1" d="M705.9,308.7c1.4,0,2.7,0,4.1,0c0.7,5.2,1.3,10.4,2,15.6c0.8-5.2,1.4-10.4,2.1-15.6c1.1,0,2.3,0,3.4,0
		c0.8,5.1,1.5,10.3,2.3,15.4c0.7-5.1,1.3-10.3,1.9-15.5c1.2,0,2.4,0,3.5,0c-1.1,8.3-2.2,16.6-3.2,24.9c-1.3,0-2.7,0-4,0
		c-0.8-5.1-1.6-10.2-2.5-15.3c-0.8,5.1-1.6,10.2-2.4,15.3c-1.3,0-2.6,0-3.9,0C708.1,325.3,707,317,705.9,308.7z"/>
	<path class="st1" d="M727,308.7c3.3,0,6.7,0,10,0c0,1.1,0,2.3,0,3.4c-1.9,0-3.9,0-5.8,0c0,2.4,0,4.7,0,7.1c1.4,0,2.8,0,4.1,0
		c0,1.1,0,2.3,0,3.4c-1.4,0-2.8,0-4.1,0c0,2.5,0,5,0,7.5c1.9,0,3.9,0,5.8,0c0,1.1,0,2.3,0,3.4c-3.3,0-6.7,0-10,0
		C727,325.3,727,317,727,308.7z"/>
	<path class="st1" d="M739.2,308.7c1.4,0,2.8,0,4.2,0c0,7.1,0,14.3,0,21.4c1.7,0,3.3,0,5,0c0,1.1,0,2.3,0,3.4c-3.1,0-6.1,0-9.2,0
		C739.2,325.3,739.2,317,739.2,308.7z"/>
	<path class="st1" d="M750.3,308.7c1.4,0,2.8,0,4.2,0c0,7.1,0,14.3,0,21.4c1.7,0,3.3,0,5,0c0,1.1,0,2.3,0,3.4c-3.1,0-6.1,0-9.2,0
		C750.3,325.3,750.3,317,750.3,308.7z"/>
	<path class="st1" d="M766.9,308.7c2.3,0,4.5,0,6.8,0c1.6,0,3.4,0.6,4.2,2.2c1,2,0.6,4.2,0.6,6.3c0,1.5-0.9,2.8-2.2,3.4
		c1.8,0.5,3,2.3,2.9,4.1c-0.1,2.7,0.6,6.4-2.2,8c-3.2,1.4-6.7,0.5-10.1,0.7C766.9,325.3,766.9,317,766.9,308.7 M771.1,312.1
		c0,2.4,0,4.7,0,7.1c1.1,0,2.9,0.3,3.3-1.2c0.2-1.6,0.2-3.2,0-4.8C773.9,311.8,772.2,312.1,771.1,312.1 M771.1,322.4
		c0,2.6,0,5.2,0,7.7c1.3-0.1,3.3,0.4,3.8-1.2c0.2-1.7,0.2-3.5,0-5.2C774.5,322,772.4,322.4,771.1,322.4z"/>
	<path class="st1" d="M781.2,308.7c3.3,0,6.7,0,10,0c0,1.1,0,2.3,0,3.4c-1.9,0-3.9,0-5.8,0c0,2.4,0,4.7,0,7.1c1.4,0,2.8,0,4.1,0
		c0,1.1,0,2.3,0,3.4c-1.4,0-2.8,0-4.1,0c0,2.5,0,5,0,7.5c1.9,0,3.9,0,5.8,0c0,1.1,0,2.3,0,3.4c-3.3,0-6.7,0-10,0
		C781.2,325.3,781.2,317,781.2,308.7z"/>
	<path class="st1" d="M793.5,308.7c1.4,0,2.8,0,4.2,0c0,8.3,0,16.6,0,24.9c-1.4,0-2.8,0-4.2,0C793.5,325.3,793.5,317,793.5,308.7z"
		/>
	<path class="st1" d="M800.1,308.7c1.4,0,2.8,0,4.1,0c1.5,4.7,3,9.5,4.5,14.2c0-4.7,0-9.4,0-14.2c1.2,0,2.3,0,3.5,0
		c0,8.3,0,16.6,0,24.9c-1.2,0-2.5,0-3.7,0c-1.6-5.1-3.2-10.3-4.9-15.4c0,5.1,0,10.3,0,15.4c-1.2,0-2.4,0-3.6,0
		C800.1,325.3,800.1,317,800.1,308.7z"/>
	<path class="st1" d="M758.9,320.3c2,0,3.9,0,5.9,0c0,1.1,0,2.3,0,3.4c-2,0-3.9,0-5.9,0C758.9,322.6,758.9,321.4,758.9,320.3z"/>
	<path class="st1" d="M766.8,360.2c1.6-1.1,4.1-0.4,4.9,1.4c6.2,12.8,12.4,25.7,18.6,38.6c0.7,1.2,0.5,2.9-0.5,3.9
		c-1.5,1.8-4.7,1.4-5.6-0.8c-5-10.3-9.9-20.5-14.9-30.8c-12.4,41-24.7,82.1-37.1,123.1c-0.5,2.1-3.1,3.2-5,2.1
		c-1.2-0.6-1.7-1.9-1.8-3.2c-3.4-20.1-6.9-40.3-10.4-60.4c-5,9.3-10.1,18.7-15.1,28c-0.6,1.2-1.2,2.6-2.6,3
		c-1.9,0.8-4.4-0.6-4.6-2.7c-2.3-15.7-4.5-31.5-6.8-47.2c-4.1,9.2-8.2,18.5-12.3,27.7c-0.5,1.3-1.9,2.1-3.3,2c-15.9,0-31.8,0-47.8,0
		c-1.8,0.1-3.6-1.4-3.6-3.3c-0.1-1.9,1.6-3.6,3.5-3.5c15.2,0,30.5,0,45.7,0c5.5-12.2,10.9-24.5,16.4-36.7c1.2-2.8,5.9-2.2,6.3,0.8
		c2.4,16.3,4.7,32.6,7,48.9c4.9-9.1,9.9-18.3,14.8-27.4c0.7-1.2,1.2-2.7,2.7-3.2c2-0.8,4.4,0.6,4.6,2.7c3.2,18.8,6.5,37.7,9.7,56.5
		c11.6-38.5,23.2-77,34.8-115.5C765.2,362.8,765.4,361,766.8,360.2z"/>
	<path class="st1" d="M772.8,420.6c3.3-2.5,8.2-3.8,12-1.7c2.8,1.5,5.2,3.8,7.4,6c2.9-2.8,6-5.8,9.9-6.9c4.1-0.8,8.4,0.9,11.1,4
		c5.2,5.9,5.2,15.8-0.3,21.5c-6.9,7-13.8,13.9-20.7,20.8c-6.9-6.9-13.8-13.8-20.7-20.7C765.3,437.4,765.9,426,772.8,420.6z"/>
</g>
</svg>
