<?xml version="1.0" encoding="utf-8"?>
<!-- Generator: Adobe Illustrator 19.0.0, SVG Export Plug-In . SVG Version: 6.00 Build 0)  -->
<svg version="1.1" id="Layer_1" xmlns="http://www.w3.org/2000/svg" xmlns:xlink="http://www.w3.org/1999/xlink" x="0px" y="0px"
	 viewBox="568 246 300 300" style="enable-background:new 568 246 300 300;" xml:space="preserve">
<style type="text/css">
	.st0{fill:#FFFFFF;}
	.st1{fill:#CF8D2A;}
</style>
<g>
	<rect x="568" y="246" class="st0" width="300" height="300"/>
	<path class="st1" d="M627.5,272.6c3.9-0.2,8.3,0.1,11.3,2.8c2.9,2.5,3.5,6.6,3.5,10.2c-0.1,4.5,0.5,9.2-1.4,13.4
		c-2.3,5-6.6,8.5-10.1,12.4c-1.7,1.9-3.8,3.7-4.7,6.1c-0.9,2.2-0.7,4.7-0.7,7c5.5,0,10.9,0,16.4,0c0,2.7,0,5.5,0,8.2
		c-8.7,0-17.3,0-26,0c0.1-4.5-0.2-9.1,0.1-13.6c0.7-6.5,5.7-11.2,9.9-15.6c2-2.4,4.6-4.4,5.9-7.3c1.2-3.1,0.7-6.5,0.8-9.8
		c0-1.8,0.2-3.9-1.3-5.2c-2.2-1.5-5.8-0.3-6,2.6c-0.2,3,0,5.9-0.1,8.9c-3,0-6.1,0-9.1,0c0.2-4.8-0.8-10,1.6-14.5
		C619.4,274.6,623.6,272.8,627.5,272.6z"/>
	<path class="st1" d="M692.4,273.8c2.3-1.2,5.4-1.2,7.6,0.1c2.1,1.5,1.9,4.4,1.8,6.7c-1.3,0-2.5,0-3.8,0c0-1,0.1-2.1-0.1-3.1
		c-0.4-1.7-3.4-1.6-3.7,0.1c-0.2,1-0.1,2.2,0.5,3.1c2.2,2.7,5.3,4.6,6.9,7.8c0.8,2.1,0.8,4.6,0.1,6.8c-1.5,3.5-6.4,3.8-9.3,2.2
		c-2.7-1.7-2.2-5.3-2.2-8.1c1.3,0,2.6,0,3.9,0c0.1,1.4-0.1,2.8,0.1,4.2c0.3,1.7,3.2,1.9,3.7,0.2c0.3-1.5,0.3-3.2-0.7-4.4
		c-2.2-2.6-5.3-4.5-6.6-7.7C689.8,279,689.8,275.4,692.4,273.8z"/>
	<path class="st1" d="M721.9,273.1c2.2-0.4,4.7-0.2,6.3,1.3c1.4,1.3,1.9,3.4,1.9,5.3c0,4.1,0,8.2,0,12.3c0,2.3-1.1,4.9-3.3,5.8
		c-2.2,0.9-5,0.8-7-0.6c-1.8-1.3-2.4-3.7-2.4-5.8c0-4.2-0.1-8.4,0-12.6C717.5,276.2,719.2,273.5,721.9,273.1 M722.8,276.6
		c-0.9,0.4-1.2,1.6-1.2,2.5c0,4.6,0,9.2,0,13.7c0,1.4,1.4,2.4,2.7,2c1.3-0.2,1.6-1.7,1.6-2.8c0-4.5,0.1-9,0-13.5
		C725.9,276.9,724.2,275.9,722.8,276.6z"/>
	<path class="st1" d="M747.9,273.9c2.3-1.3,5.3-1.3,7.6,0c2.2,1.5,2,4.4,2,6.7c-1.3,0-2.5,0-3.8,0c0-1.1,0.1-2.2-0.2-3.2
		c-0.6-1.7-3.7-1.3-3.8,0.6c-0.4,1.8,0.9,3.3,2.2,4.5c2.1,2.3,5,4.2,5.7,7.4c0.3,2.6,0.4,6-2.2,7.6c-2.5,1.3-5.9,1.3-8.1-0.5
		c-2.1-2-1.5-5.1-1.6-7.6c1.3,0,2.6,0,3.9,0c0.1,1.4-0.1,2.9,0.1,4.3c0.4,1.7,3.3,1.8,3.7,0c0.2-1.3,0.3-2.7-0.4-3.9
		c-2.1-2.9-5.7-4.8-6.9-8.3C745.5,278.9,745.4,275.5,747.9,273.9z"/>
	<path class="st1" d="M593.5,283.2c2.9-3.3,5.7-6.7,8.5-9.9c2.7,0,5.3,0,8,0c0,19.8,0,39.7,0,59.5c-3.3,0-6.7,0-10,0
		c0-15.2,0-30.4,0-45.6c-2.4,2.4-4.7,5-7.2,7.4c0-3.3,0-6.6,0-9.9C592.6,284,593.1,283.6,593.5,283.2z"/>
	<path class="st1" d="M665.2,273.2c2.6,0,5.1-0.1,7.7,0.1c1.9,0.2,3.7,1.6,4,3.5c0.3,2.1,0.2,4.3,0.1,6.4c-0.1,1.8-1.5,3.2-3.2,3.6
		c1.3,3.7,2.6,7.5,4,11.2c-1.5,0-3,0-4.4,0c-1.3-3.7-2.5-7.5-3.9-11.2c0,3.7,0,7.5,0,11.2c-1.4,0-2.8,0-4.2,0
		C665.2,289.8,665.2,281.5,665.2,273.2 M669.4,276.6c0,2.6,0,5.1,0,7.7c1.2,0,2.9,0.2,3.3-1.2c0.2-1.8,0.2-3.6,0-5.4
		C672.3,276.4,670.6,276.6,669.4,276.6z"/>
	<path class="st1" d="M678.8,273.2c3.3,0,6.7,0,10,0c0,1.1,0,2.3,0,3.4c-1.9,0.1-3.9-0.1-5.8,0.1c0,2.3,0,4.7,0,7c1.4,0,2.8,0,4.1,0
		c0,1.1,0,2.2,0,3.4c-1.4,0-2.7,0-4.1,0c-0.1,2.5,0,5,0,7.5c1.9,0,3.8,0,5.8,0c0,1.1,0,2.3,0,3.4c-3.3,0-6.7,0-10,0
		C678.8,289.8,678.8,281.5,678.8,273.2z"/>
	<path class="st1" d="M703.8,273.2c2.3,0,4.6,0,6.8,0c1.6,0.1,3.5,0.6,4.3,2.1c1.1,1.9,0.7,4.3,0.8,6.4c0,2.2,0.3,4.7-1.3,6.4
		c-1.7,1.7-4.3,1.5-6.4,1.5c0,2.8,0,5.6,0,8.4c-1.4,0-2.8,0-4.2,0C703.8,289.8,703.8,281.5,703.8,273.2 M708,276.6
		c0,3.3,0,6.5,0,9.8c1.2,0,3,0.3,3.5-1.2c0.2-2.4,0.1-4.8,0-7.2C711.2,276.3,709.2,276.6,708,276.6z"/>
	<path class="st1" d="M732,273.2c1.4,0,2.8,0,4.1,0c1.5,4.6,2.9,9.3,4.5,13.9c0.1-4.6,0-9.3,0.1-13.9c1.2,0,2.3,0,3.5,0
		c0,8.3,0,16.6,0,24.9c-1.2,0-2.5,0-3.7,0c-1.6-5-3.1-10.1-4.8-15.1c-0.1,5,0,10-0.1,15.1c-1.2,0-2.4,0-3.5,0
		C731.9,289.8,731.9,281.5,732,273.2z"/>
	<path class="st1" d="M759.4,273.2c1.4,0,2.8,0,4.2,0c0,8.3,0,16.6,0,24.9c-1.4,0-2.8,0-4.2,0C759.4,289.8,759.4,281.5,759.4,273.2z
		"/>
	<path class="st1" d="M765.5,273.2c2.2,0,4.5,0,6.7,0c1.6,0,3.5,0.6,4.3,2.2c1,2,0.6,4.2,0.6,6.4c0,1.5-0.9,2.9-2.3,3.4
		c1.8,0.4,3,2.1,2.9,3.9c-0.1,2.2,0.3,4.5-0.5,6.5c-0.7,1.7-2.7,2.5-4.4,2.5c-2.4,0-4.9,0-7.3,0
		C765.5,289.8,765.5,281.5,765.5,273.2 M769.7,276.6c0,2.3,0,4.7,0,7.1c1.1,0,2.9,0.3,3.3-1.1c0.2-1.6,0.2-3.2,0-4.8
		C772.5,276.3,770.8,276.6,769.7,276.6 M769.7,294.6c1.3,0,3.4,0.4,3.8-1.4c0.1-1.7,0.2-3.4,0-5.2c-0.4-1.6-2.5-1.2-3.7-1.2
		C769.7,289.5,769.7,292.1,769.7,294.6z"/>
	<path class="st1" d="M779.3,273.2c1.4,0,2.8,0,4.2,0c0,7.2,0,14.3,0,21.5c1.7,0,3.3,0,5,0c0,1.1,0,2.3,0,3.4c-3.1,0-6.1,0-9.2,0
		C779.3,289.8,779.3,281.5,779.3,273.2z"/>
	<path class="st1" d="M789.9,273.2c3.3,0,6.7,0,10,0c0,1.1,0,2.3,0,3.4c-1.9,0-3.8,0-5.7,0c-0.1,2.4,0,4.7,0,7.1c1.4,0,2.7,0,4.1,0
		c0,1.1,0,2.2,0,3.4c-1.4,0-2.7,0-4.1,0c0,2.5,0,5,0,7.5c1.9,0,3.8,0,5.8,0c0,1.1,0,2.3,0,3.4c-3.3,0-6.7,0-10,0
		C789.9,289.8,789.9,281.5,789.9,273.2z"/>
	<path class="st1" d="M668.8,308.2c2.4-0.7,5.4-0.7,7.2,1.2c1.8,2.1,1.3,5.1,1.3,7.6c-1.3,0-2.5,0-3.8,0c-0.1-1.5,0.1-2.9-0.1-4.4
		c-0.4-1.7-3-1.7-3.7-0.3c-0.4,1-0.3,2.1-0.3,3.1c0.1,4.2-0.1,8.3,0.1,12.5c0.1,2,3.3,2.5,3.9,0.6c0.4-1.9,0.1-3.9,0.2-5.8
		c1.3,0,2.5,0,3.8,0c-0.1,2.8,0.6,5.8-0.9,8.3c-1.6,2.4-5,2.6-7.5,1.8c-2.4-0.7-3.7-3.3-3.7-5.7c0-4.4,0-8.8,0-13.2
		C665.2,311.6,666.4,309,668.8,308.2z"/>
	<path class="st1" d="M683.5,307.9c2.2-0.4,4.7-0.3,6.4,1.3c1.5,1.3,1.9,3.4,1.9,5.3c0,4.1,0,8.2,0,12.3c0,2.2-0.9,4.6-3,5.6
		c-2.1,1-4.7,1-6.8-0.1c-2.1-1.1-2.9-3.6-2.9-5.8c0-4.3-0.1-8.6,0-12.9C679.2,311.1,680.9,308.4,683.5,307.9 M684.4,311.5
		c-0.9,0.5-1.1,1.6-1.1,2.5c0,4.5,0,9,0,13.5c-0.1,1.3,1,2.5,2.4,2.3c1.3,0,1.9-1.4,1.9-2.6c0-4.6,0.1-9.2,0-13.8
		C687.6,311.8,685.8,310.7,684.4,311.5z"/>
	<path class="st1" d="M709.9,308.5c2.3-1.1,5.2-1.1,7.4,0.3c2.1,1.5,1.9,4.4,1.9,6.7c-1.3,0-2.5,0-3.8,0c0-1,0.1-2.1-0.1-3.1
		c-0.4-1.7-3.4-1.6-3.7,0.1c-0.2,1-0.1,2.2,0.5,3.1c2.2,2.8,5.4,4.7,7,8c0.7,2.1,0.7,4.5,0,6.6c-1.5,3.5-6.4,3.8-9.3,2.2
		c-2.7-1.7-2.2-5.3-2.2-8.1c1.3,0,2.6,0,3.9,0c0.1,1.4-0.1,2.8,0.1,4.2c0.3,1.8,3.3,1.9,3.7,0.1c0.3-1.3,0.3-2.8-0.5-4
		c-2.1-2.8-5.5-4.7-6.8-8.1C707.1,313.8,707.1,310.1,709.9,308.5z"/>
	<path class="st1" d="M788.4,307.9c2.2-0.4,4.7-0.2,6.4,1.4c1.4,1.3,1.8,3.4,1.8,5.3c0,4.1,0,8.2,0,12.3c0,2.2-1,4.7-3.1,5.7
		c-2.1,1-4.8,0.9-6.8-0.2c-2-1.2-2.8-3.6-2.7-5.8c0-4.3-0.1-8.6,0-12.9C784,311,785.7,308.4,788.4,307.9 M789.3,311.4
		c-1.1,0.5-1.2,1.8-1.2,2.8c0.1,4.6-0.1,9.1,0.1,13.7c0.1,2.4,4,2.4,4.1,0c0.1-4.8,0.1-9.7,0-14.6
		C792.4,311.8,790.7,310.7,789.3,311.4z"/>
	<path class="st1" d="M693.6,308c1.4,0,2.7,0,4.1,0c1.5,4.7,3,9.4,4.5,14.2c0-4.7,0-9.4,0-14.1c1.2,0,2.3,0,3.5,0
		c0,8.3,0,16.6,0,24.9c-1.2,0-2.5,0-3.7,0c-1.6-5.1-3.2-10.2-4.9-15.3c-0.1,5.1,0,10.2,0,15.4c-1.2,0-2.4,0-3.5,0
		C693.6,324.6,693.6,316.3,693.6,308z"/>
	<path class="st1" d="M721.1,308c1.4,0,2.8,0,4.2,0c0.1,6.7-0.1,13.3,0.1,20c0.1,2.3,3.9,2.3,4,0c0.1-6.6,0-13.3,0.1-19.9
		c1.3,0,2.6,0,3.9,0c0,6.4,0,12.7,0,19.1c0,2.1-0.7,4.5-2.8,5.5c-2.1,0.9-4.6,0.9-6.7-0.1c-1.9-1-2.7-3.3-2.7-5.3
		C721.1,320.8,721.1,314.4,721.1,308z"/>
	<path class="st1" d="M735.1,308.1c1.6-0.1,3.3,0,4.9,0c1,4.6,1.7,9.3,2.7,13.9c0.8-4.6,1.6-9.3,2.4-13.9c1.8,0,3.5,0,5.3,0
		c0,8.3,0,16.6,0,24.9c-1.3,0-2.6,0-3.8,0c0-5.4,0-10.8,0-16.2c-1.1,5.4-1.9,10.8-2.9,16.2c-0.7,0-1.3,0-1.9,0
		c-1.1-5.3-2-10.7-3.2-16c-0.1,5.3,0,10.6,0,16c-1.2,0-2.3,0-3.5,0C735.1,324.6,735.1,316.4,735.1,308.1z"/>
	<path class="st1" d="M752.3,308c2.2,0,4.5,0,6.7,0c1.7,0,3.7,0.6,4.6,2.2c1.1,1.9,0.6,4.2,0.7,6.3c0,2.2,0.3,4.8-1.4,6.5
		c-1.7,1.6-4.2,1.3-6.4,1.4c0,2.8,0,5.6,0,8.4c-1.4,0-2.8,0-4.2,0C752.3,324.6,752.3,316.3,752.3,308 M756.5,311.5
		c0,3.3,0,6.5,0,9.8c1,0,2.1,0.2,2.9-0.4c0.8-0.7,0.6-1.9,0.7-2.8c-0.1-1.8,0.1-3.6-0.1-5.4C759.6,311.2,757.7,311.5,756.5,311.5z"
		/>
	<path class="st1" d="M765.3,308.1c3.7,0,7.4,0,11.1,0c0,1.1,0,2.3,0,3.4c-1.1,0-2.3,0-3.4,0c0,7.1,0,14.3,0,21.4
		c-1.4,0-2.8,0-4.2,0c0-7.1,0-14.3,0-21.4c-1.1,0-2.3,0-3.4,0C765.3,310.3,765.3,309.2,765.3,308.1z"/>
	<path class="st1" d="M777.8,308c1.4,0,2.8,0,4.2,0c0,8.3,0,16.6,0,24.9c-1.4,0-2.8,0-4.2,0C777.8,324.6,777.8,316.3,777.8,308z"/>
	<path class="st1" d="M798.4,308.1c1.4-0.1,2.8-0.1,4.2,0c1.5,4.7,2.9,9.4,4.5,14c0.1-4.7,0-9.4,0-14.1c1.2,0,2.3,0,3.5,0
		c0,8.3,0,16.6,0,24.9c-1.2,0-2.5,0-3.7,0c-1.6-5-3.1-10.1-4.8-15.1c-0.1,5,0,10-0.1,15.1c-1.2,0-2.4,0-3.6,0
		C798.4,324.6,798.4,316.4,798.4,308.1z"/>
	<path class="st1" d="M743.3,342.8c2.2-0.4,4.7-0.3,6.4,1.3c1.5,1.3,1.9,3.4,1.9,5.3c0,4.1,0,8.2,0,12.3c0,2.2-0.9,4.6-3,5.6
		c-2.1,1-4.7,1-6.8-0.1c-2.1-1.1-2.9-3.6-2.9-5.8c0-4.3-0.1-8.6,0-12.9C739,345.9,740.6,343.3,743.3,342.8 M744.2,346.3
		c-1.1,0.6-1.1,2-1.1,3.1c0.1,4.5-0.1,9,0.1,13.5c0.2,2.2,3.9,2.2,4.1,0c0.2-4.9,0.1-9.8,0.1-14.6
		C747.4,346.6,745.6,345.6,744.2,346.3z"/>
	<path class="st1" d="M785.2,343.1c2.4-0.8,5.6-0.8,7.4,1.1c1.8,2.1,1.3,5,1.3,7.6c-1.3,0-2.5,0-3.8,0c-0.1-1.5,0.1-2.9-0.1-4.4
		c-0.3-1.6-2.8-1.7-3.6-0.5c-0.5,0.8-0.4,1.8-0.4,2.8c0.1,4.4-0.1,8.7,0.1,13.1c0.1,2,3.3,2.5,3.9,0.6c0.4-1.9,0.1-3.9,0.2-5.8
		c1.3,0,2.5,0,3.8,0c-0.1,2.7,0.5,5.8-0.9,8.3c-1.6,2.4-5,2.6-7.5,1.9c-2.4-0.7-3.7-3.3-3.7-5.7c-0.1-4.3,0-8.6,0-12.9
		C781.8,346.7,782.8,344,785.2,343.1z"/>
	<path class="st1" d="M818,342.8c2-0.4,4.4-0.2,6,1.1c1.6,1.2,2.1,3.3,2.1,5.3c0,4.2,0,8.4,0,12.6c0,2.3-1,4.7-3.1,5.7
		c-2.1,0.9-4.8,0.9-6.8-0.2c-2-1.2-2.8-3.6-2.7-5.8c0-4.3,0-8.6,0-12.9C813.6,345.9,815.3,343.2,818,342.8 M818.9,346.3
		c-1,0.4-1.2,1.6-1.2,2.5c0,4.5,0,9,0,13.5c0,1.1,0.8,2.3,2,2.3c1.3,0.2,2.3-1,2.2-2.3c0-4.7,0-9.4,0-14.1
		C822,346.7,820.3,345.6,818.9,346.3z"/>
	<path class="st1" d="M669.2,343c1.6-0.2,3.2,0,4.8-0.1c1.6,8.3,3.2,16.6,4.7,24.9c-1.4,0-2.9,0-4.3,0c-0.3-1.5-0.5-3-0.8-4.5
		c-1.5,0-2.9,0-4.4,0c-0.4,1.5-0.5,3.1-0.8,4.6c-1.3,0-2.6,0-3.9,0C666,359.5,667.7,351.3,669.2,343 M669.9,359.9c1.1,0,2.2,0,3.3,0
		c-0.5-3.3-1.1-6.6-1.6-9.8C670.9,353.3,670.3,356.6,669.9,359.9z"/>
	<path class="st1" d="M680,342.9c1.4,0,2.7,0,4.1,0c1.6,4.6,2.9,9.4,4.5,14c0.1-4.7,0-9.3,0-14c1.2,0,2.3,0,3.5,0
		c0,8.3,0,16.6,0,24.9c-1.2,0-2.4,0-3.7,0c-1.7-5.1-3.2-10.3-4.9-15.4c-0.1,5.1,0,10.3,0,15.4c-1.2,0-2.3,0-3.5,0
		C680,359.5,680,351.2,680,342.9z"/>
	<path class="st1" d="M693.9,342.9c3.2,0.2,6.6-0.6,9.7,0.7c2,1,2.8,3.4,2.8,5.5c0,4.1,0,8.2,0,12.3c0,2.1-0.7,4.6-2.8,5.6
		c-3.1,1.4-6.5,0.5-9.8,0.7C693.9,359.5,693.9,351.2,693.9,342.9 M698.2,346.3c0,6,0,12,0,18c1.5,0.1,3.8,0.2,4-1.8
		c0.2-4.2,0-8.4,0.1-12.6c0-1.1,0.2-2.4-0.7-3.2C700.6,346.1,699.3,346.4,698.2,346.3z"/>
	<path class="st1" d="M711.7,342.9c2.2,0,4.4,0,6.6,0c1.7,0,3.5,0.5,4.5,2c1.2,1.9,0.8,4.2,0.9,6.3c-0.1,2.2,0.4,4.9-1.3,6.7
		c-1.7,1.7-4.3,1.5-6.5,1.5c0,2.8,0,5.6,0,8.4c-1.4,0-2.8,0-4.2,0C711.6,359.5,711.7,351.2,711.7,342.9 M715.9,346.3
		c-0.1,3.3,0,6.5,0,9.8c0.9,0,2,0.2,2.9-0.4c0.9-0.7,0.6-1.9,0.7-2.8c-0.1-1.8,0.1-3.7-0.1-5.5C718.9,346,717.1,346.4,715.9,346.3z"
		/>
	<path class="st1" d="M725.3,342.9c2.4,0,4.7-0.1,7.1,0c1.9,0.1,4,1.2,4.5,3.2c0.5,2.1,0.3,4.4,0.3,6.6c0,1.9-1.5,3.5-3.3,3.9
		c1.3,3.7,2.7,7.5,4,11.2c-1.5,0-3,0-4.4,0c-1.3-3.7-2.5-7.5-3.9-11.2c0,3.7,0,7.5,0,11.2c-1.4,0-2.8,0-4.2,0
		C725.3,359.5,725.3,351.2,725.3,342.9 M729.5,346.3c0,2.6,0,5.1,0,7.7c1.2,0,2.9,0.2,3.3-1.2c0.2-1.8,0.2-3.6,0-5.4
		C732.4,346.1,730.6,346.3,729.5,346.3z"/>
	<path class="st1" d="M753.4,342.9c3.2,0.2,6.6-0.6,9.7,0.7c2,1,2.8,3.4,2.8,5.5c0,4.1,0,8.2,0,12.3c0,2.1-0.7,4.6-2.8,5.6
		c-3.1,1.4-6.5,0.5-9.8,0.7C753.4,359.5,753.4,351.2,753.4,342.9 M757.6,346.3c0,6,0,12,0,18c1.5,0.1,3.8,0.2,4-1.8
		c0.2-4.2,0-8.4,0.1-12.6c0-1.1,0.1-2.4-0.7-3.2C760.1,346.1,758.8,346.4,757.6,346.3z"/>
	<path class="st1" d="M767.8,342.9c1.4,0,2.8,0,4.2,0c0.1,6.6-0.1,13.3,0.1,19.9c0.1,2.4,4.2,2.2,4-0.2c0.1-6.6,0-13.1,0-19.7
		c1.3,0,2.6,0,3.9,0c0,6.4,0,12.7,0,19.1c0,2.1-0.7,4.4-2.7,5.4c-2.1,1-4.6,0.9-6.7,0c-2-0.9-2.8-3.3-2.8-5.4
		C767.8,355.7,767.8,349.3,767.8,342.9z"/>
	<path class="st1" d="M794.9,342.9c3.7,0,7.4,0,11.1,0c0,1.1,0,2.3,0,3.4c-1.1,0-2.3,0-3.4,0c0,7.2,0,14.3,0,21.5
		c-1.4,0-2.8,0-4.2,0c0-7.2,0-14.3,0-21.5c-1.1,0-2.3,0-3.4,0C794.8,345.2,794.8,344.1,794.9,342.9z"/>
	<path class="st1" d="M807.4,342.9c1.4,0,2.8,0,4.2,0c0,8.3,0,16.6,0,24.9c-1.4,0-2.8,0-4.2,0C807.4,359.5,807.4,351.2,807.4,342.9z
		"/>
	<path class="st1" d="M828,342.9c1.4,0,2.8,0,4.1,0c1.5,4.7,2.9,9.3,4.5,14c0.1-4.7,0-9.3,0-14c1.2,0,2.3,0,3.5,0
		c0,8.3,0,16.6,0,24.9c-1.2,0-2.5,0-3.7,0c-1.6-5.2-3.2-10.3-4.9-15.5c0,5.2,0,10.3,0,15.5c-1.2,0-2.4,0-3.5,0
		C828,359.5,828,351.2,828,342.9z"/>
	<path class="st1" d="M641.7,400.3c9.4-6.7,21.3-9.3,32.7-8.1c5.9,1,11.9,2.7,17.2,5.7c6.6,3.7,12,9.1,16.7,14.9
		c6.9,8.6,12.2,18.2,17.1,28c5.8,11.2,14.1,21.9,26,27c9.7,4.9,22.1,5.5,31.4-0.7c7.7-4.9,11.5-14,12.3-22.8
		c0.9-9.7-0.2-20.3-6.4-28.1c-6.4-8-17.3-11.2-27.2-10.8c-5.6,0.8-11.2,2.7-16,5.9c-5.9,4-10.6,9.4-14.8,15.1
		c-0.4,0.8-1.7,0.7-2-0.1c-1.9-3.5-3.9-7-6-10.4c-0.4-0.5-0.2-1.2,0.2-1.7c6-7.5,13.2-14.2,22-18.2c6.4-2.7,13.3-4.6,20.3-4.3
		c10.2,0.4,20.5,3.7,28.5,10.2c6.4,5.3,10.9,12.7,13.1,20.6c2.1,7.3,2.5,15,1.8,22.5c-0.8,8.4-3.4,16.7-8.4,23.6
		c-5.6,7.8-14.2,13.4-23.5,15.4c-10.7,2.4-22.1,0.5-31.8-4.4c-11.9-5.5-21.3-15.3-28-26.4c-3.3-5.3-5.8-11-8.8-16.4
		c-3.7-6.6-7.7-13-12.8-18.6c-4-4.5-8.9-8.5-14.6-10.6c-4.6-1.6-9.4-2.9-14.3-2.3c-9.3,0.7-19,5.1-23.8,13.5
		c-3.1,5.2-4.3,11.4-4.5,17.4c-0.1,4.7,0,9.6,1.4,14.1c2.4,7.6,8.1,14.1,15.4,17.4c9.6,4.3,21.6,4,30.5-1.9c-2-1.9-4.2-3.7-6.2-5.7
		c-0.6-0.5-0.4-1.6,0.4-1.7c9-2.5,18-5.1,27.1-7.5c0.9-0.4,1.9,0.5,1.5,1.5c-1.5,9.3-3,18.6-4.5,27.8c0,0.8-1.2,1.2-1.7,0.6
		c-2.1-1.8-4.1-3.7-6.2-5.6c-4.9,3.6-10.4,6.5-16.4,7.9c-7.5,1.6-15.3,1.7-22.7-0.3c-12.3-3.2-23.1-12-28.3-23.6
		c-2.7-5.9-3.7-12.4-3.8-18.8c-0.2-9,1.2-18.1,5.2-26.2C632.5,408.8,636.6,403.9,641.7,400.3z"/>
</g>
</svg>
