<?xml version="1.0" encoding="utf-8"?>
<!-- Generator: Adobe Illustrator 19.0.0, SVG Export Plug-In . SVG Version: 6.00 Build 0)  -->
<svg version="1.1" id="Layer_1" xmlns="http://www.w3.org/2000/svg" xmlns:xlink="http://www.w3.org/1999/xlink" x="0px" y="0px"
	 viewBox="568 246 300 300" style="enable-background:new 568 246 300 300;" xml:space="preserve">
<style type="text/css">
	.st0{fill:#FFFFFF;}
	.st1{fill:#3EB049;}
</style>
<g>
	<rect x="568" y="246" class="st0" width="300" height="300"/>
	<path class="st1" d="M601.2,273.1c2.7,0,5.3,0,8,0c0,19.8,0,39.7,0,59.5c-3.3,0-6.7,0-10,0c0-15.2,0-30.4,0-45.6
		c-2.4,2.4-4.8,5-7.2,7.4c0-3.1,0-6.1,0-9.2c0-0.7-0.1-1.4,0.5-1.9C595.4,279.9,598.3,276.5,601.2,273.1z"/>
	<path class="st1" d="M664.7,272.9c1.4,0,2.8,0,4.2,0c0,7.1,0,14.3,0,21.4c1.7,0,3.3,0,5,0c0,1.1,0,2.3,0,3.4c-3.1,0-6.1,0-9.2,0
		C664.7,289.5,664.7,281.2,664.7,272.9z"/>
	<path class="st1" d="M675.8,272.9c1.4,0,2.8,0,4.2,0c0,8.3,0,16.6,0,24.9c-1.4,0-2.8,0-4.2,0C675.8,289.5,675.8,281.2,675.8,272.9z
		"/>
	<path class="st1" d="M682.4,272.9c3.3,0,6.5,0,9.8,0c0,1.1,0,2.3,0,3.4c-1.9,0-3.7,0-5.6,0c0,2.4,0,4.7,0,7.1c1.4,0,2.8,0,4.2,0
		c0,1.1,0,2.3,0,3.4c-1.4,0-2.8,0-4.2,0c0,3.7,0,7.3,0,11c-1.4,0-2.8,0-4.2,0C682.4,289.5,682.4,281.2,682.4,272.9z"/>
	<path class="st1" d="M694,272.9c3.3,0,6.7,0,10,0c0,1.1,0,2.3,0,3.4c-1.9,0-3.8,0-5.8,0c0,2.4,0,4.7,0,7.1c1.4,0,2.8,0,4.1,0
		c0,1.1,0,2.3,0,3.4c-1.4,0-2.8,0-4.1,0c0,2.5,0,5,0,7.5c1.9,0,3.9,0,5.8,0c0,1.1,0,2.3,0,3.4c-3.3,0-6.7,0-10,0
		C694,289.5,694,281.2,694,272.9z"/>
	<path class="st1" d="M615.4,273.1c8.8,0,17.6,0,26.3,0c0,2.7,0,5.4,0,8.2c-5.7,0-11.5,0-17.2,0c0,4.9,0,9.9,0,14.8
		c3.5-5.5,12.7-5.6,16.3-0.2c1.8,2.6,2.3,5.8,2.4,9c0,5,0,10,0,14.9c0,3.6-0.9,7.5-3.6,10.1c-3,2.8-7.3,3.5-11.2,3.4
		c-4.2,0-8.7-1.5-11-5.2c-3-4.9-2.1-10.9-2.2-16.4c3.1,0,6.1,0,9.2,0c0,2.7,0,5.4,0,8.1c0,1.7,0.6,3.8,2.3,4.6
		c1.5,0.7,3.5,0.8,4.9-0.3c1.4-1.1,1.6-3,1.6-4.7c0-4.8,0-9.6,0-14.3c0-1.7-0.4-3.7-1.9-4.7c-1.9-1.1-4.7-0.8-5.9,1.1
		c-1,1.5-0.9,3.3-0.9,5c-3,0-6.1,0-9.1,0C615.4,295.5,615.4,284.3,615.4,273.1z"/>
	<path class="st1" d="M669.2,307.6c2.1-0.4,4.5-0.2,6.2,1.2c1.5,1.3,2,3.5,2,5.4c0,4.1,0,8.2,0,12.3c0,2.2-0.9,4.6-3,5.6
		c-2.1,1-4.7,1-6.8,0c-2.1-1.1-2.9-3.6-2.9-5.9c0-4.3,0-8.6,0-12.9C664.8,310.8,666.5,308.1,669.2,307.6 M670.1,311.2
		c-1.1,0.5-1.2,1.8-1.2,2.8c0,4.4,0,8.8,0,13.2c-0.3,2.9,4.5,3,4.2,0c0-4.7,0.1-9.4,0-14.1C673.2,311.5,671.4,310.5,670.1,311.2z"/>
	<path class="st1" d="M679.7,307.7c1.4,0,2.8,0,4.2,0c1.5,4.7,2.9,9.4,4.4,14.1c0-4.7,0-9.4,0-14.1c1.2,0,2.3,0,3.5,0
		c0,8.3,0,16.6,0,24.9c-1.2,0-2.5,0-3.7,0c-1.6-5.2-3.2-10.4-4.9-15.5c0,5.2,0,10.3,0,15.5c-1.2,0-2.4,0-3.5,0
		C679.7,324.3,679.7,316,679.7,307.7z"/>
	<path class="st1" d="M701.9,307.7c1.4,0,2.8,0,4.2,0c0,7.2,0,14.3,0,21.5c1.7,0,3.3,0,5,0c0,1.1,0,2.3,0,3.4c-3.1,0-6.1,0-9.2,0
		C701.9,324.3,701.9,316,701.9,307.7z"/>
	<path class="st1" d="M717.1,307.7c1.6,0,3.2,0,4.8,0c1.6,8.3,3.2,16.6,4.7,24.9c-1.4,0-2.9,0-4.3,0c-0.3-1.5-0.5-3-0.8-4.5
		c-1.5,0-2.9,0-4.4,0c-0.3,1.5-0.5,3-0.7,4.5c-1.3,0-2.7,0-4,0C713.9,324.3,715.5,316,717.1,307.7 M717.6,324.7c1.1,0,2.2,0,3.3,0
		c-0.5-3.3-1.1-6.6-1.6-9.9C718.7,318.1,718.2,321.4,717.6,324.7z"/>
	<path class="st1" d="M728.3,307.7c1.4,0,2.7,0,4.1,0c1.5,4.7,3,9.4,4.5,14.1c0-4.7,0-9.4,0-14.1c1.2,0,2.3,0,3.5,0
		c0,8.3,0,16.6,0,24.9c-1.2,0-2.5,0-3.7,0c-1.6-5.2-3.2-10.3-4.9-15.5c0,5.2,0,10.3,0,15.5c-1.2,0-2.4,0-3.5,0
		C728.3,324.3,728.3,316,728.3,307.7z"/>
	<path class="st1" d="M742.8,307.7c2.8,0.1,5.5-0.2,8.3,0.2c2.6,0.4,4.2,3,4.2,5.5c0.1,4.2,0,8.4,0,12.6c0,2.1-0.6,4.6-2.5,5.8
		c-3.1,1.6-6.7,0.6-10,0.9C742.8,324.3,742.8,316,742.8,307.7 M747,311.2c0,6,0,12,0,18c1.5,0.1,3.8,0.2,4-1.8
		c0.2-4.2,0-8.4,0.1-12.6c0-1.1,0.1-2.5-0.9-3.3C749.3,311,748.1,311.2,747,311.2z"/>
	<path class="st1" d="M665.7,385.1c0.6-9.7,8.7-18.2,18.3-19.2c9.1-1.3,18.6,4.2,22.1,12.8c2.3,5.5,2.1,11.9-0.5,17.2
		c8.2,1.8,15.2,8.3,17.5,16.5c1.9,6.7,0.7,14.2-3.3,19.9c-4.2,6.1-11.5,10-19,10c-10.6-0.1-21.3-0.1-31.9-0.2
		c-6.2,0-12.1-3.9-14.7-9.4c-3-6-1.8-13.7,2.8-18.6c-6-3.4-9.2-10.9-7.2-17.6C651.5,389.6,658.5,384.5,665.7,385.1z"/>
	<path class="st1" d="M752,367.1c2.8-1.5,6.2-1.8,9.1-0.7c2.4,0.9,4.4,2.7,5.9,4.7c2.6-0.9,5.4-1.3,8.1-0.6c2.9,0.7,5.4,2.9,6.8,5.5
		c0.6,1-0.5,2.8-1.7,2.1c-3.5-3.5-9.2-3.4-13.4-1.3c-0.9,0.6-2.2,0.4-2.6-0.7c-2.3-4.1-7.1-7.3-11.9-6.3
		C750.8,369.8,750.9,367.6,752,367.1z"/>
	<path class="st1" d="M750.2,382.4c4.1-0.8,8.4,0.6,11.5,3.4c1,0.8,0.6,2.9-0.8,2.8c-5.8-2.7-12.7-0.1-16.9,4.3
		c-0.7,1-2.1,1.5-3,0.5c-4.7-4-12.1-6-17.7-2.5c-1.5,0.3-2-1.9-1.1-2.8c2.4-2.6,5.8-4.4,9.3-4.6c3.7-0.2,7.3,1.2,10.3,3.1
		C744.2,384.6,747,383,750.2,382.4z"/>
	<path class="st1" d="M736.9,424.6c3.1-3.1,7.5-5.2,11.9-5c4.4,0.1,8.6,2,12.1,4.6c3.6-2.7,7.9-4.7,12.5-4.6c4.4,0,8.5,2,11.6,5.1
		c0.8,0.9,0.5,3-1,2.8c-7.1-3.9-16.1-0.8-21.7,4.4c-0.9,1.1-2.4,0.6-3.2-0.4c-5.5-5-14.3-7.8-21.2-4.1
		C736.4,427.5,736.2,425.5,736.9,424.6z"/>
	<path class="st1" d="M683.3,449c-0.1-0.5,0.2-1.1,0.8-1c2.9,0,5.8-0.1,8.7,0c0.8,0.1,0.5,1.1,0.6,1.6c-0.1,7.1,0.2,14.1-0.2,21.2
		c-3.3,0-6.6,0.2-9.9-0.1C683.3,463.4,683.3,456.2,683.3,449z"/>
	<path class="st1" d="M644.2,480.7c0-0.6,0.7-0.7,1.1-0.7c47.8,0,95.6,0,143.3,0c0.3,3.3,0.3,6.7,0,10.1c-47.8,0-95.6,0-143.4,0
		c-0.5,0-1.2,0-1.1-0.7C644.1,486.5,644.1,483.6,644.2,480.7z"/>
	<path class="st1" d="M644.2,497.6c1.3-0.3,2.5-0.2,3.8-0.2c45.1,0,90.2,0,135.4,0c1.8,0,3.6-0.1,5.4,0.1c0.1,3.3,0.2,6.6,0,10
		c-2.4,0.1-4.8,0-7.2,0.1c-45.8,0-91.5,0.1-137.3,0C644,504.2,644.2,500.9,644.2,497.6z"/>
</g>
</svg>
