<?xml version="1.0" encoding="utf-8"?>
<!-- Generator: Adobe Illustrator 19.0.0, SVG Export Plug-In . SVG Version: 6.00 Build 0)  -->
<svg version="1.1" id="Layer_1" xmlns="http://www.w3.org/2000/svg" xmlns:xlink="http://www.w3.org/1999/xlink" x="0px" y="0px"
	 viewBox="568 246 300 300" style="enable-background:new 568 246 300 300;" xml:space="preserve">
<style type="text/css">
	.st0{fill:#FFFFFF;}
	.st1{fill:#00AED9;}
</style>
<g>
	<rect x="568" y="246" class="st0" width="300" height="300"/>
	<path class="st1" d="M604,276.7c2.7-3.2,7.1-4.3,11.1-4.2c3.9,0,8.2,0.9,10.8,4c3.2,3.9,3,9.3,3,14.1c-3,0-6.1,0-9.1,0
		c-0.1-2.5,0.4-5.2-0.6-7.6c-1-2.2-4-2.5-6-1.8c-2.1,0.8-2.7,3.2-2.7,5.2c0,4.5,0,8.9,0,13.4c3-6.3,12.8-6.4,16.7-1
		c2.8,3.9,2.8,8.9,2.7,13.4c-0.1,5.1,0.7,10.5-1.9,15.1c-1.9,3.6-5.9,5.6-9.8,6c-4.7,0.5-10,0-13.5-3.5c-3.5-3.4-4.2-8.6-4.1-13.2
		c0-9,0-18,0-27C600.4,285.2,601,280.3,604,276.7 M613.5,303.2c-2.2,0.6-3,3.1-3.1,5.2c0,3.7,0,7.4,0,11.2c0,1.8,0.4,3.8,1.9,4.9
		c1.5,1,3.5,1,5.2,0.3c1.8-0.9,2.4-3.1,2.4-4.9c0-3.6,0-7.2,0-10.9c0-1.7-0.2-3.5-1.4-4.8C617.2,302.9,615.2,302.8,613.5,303.2z"/>
	<path class="st1" d="M659.5,274c2.4-0.8,5.5-0.8,7.4,1.2c1.8,2.1,1.3,5,1.3,7.6c-1.3,0-2.6,0-3.8,0c-0.1-1.5,0.1-2.9-0.1-4.4
		c-0.4-1.7-3.1-1.7-3.7-0.2c-0.4,1-0.2,2-0.3,3c0.1,4.2-0.1,8.4,0.1,12.6c0,2,3.4,2.5,3.9,0.5c0.3-1.9,0-3.8,0.1-5.7
		c1.3,0,2.6,0,3.8,0c-0.2,2.8,0.5,5.9-1,8.4c-1.8,2.5-5.4,2.6-8,1.5c-2.2-1-3.1-3.5-3.1-5.8c0-4.3,0-8.6,0-12.9
		C656.1,277.4,657.2,274.8,659.5,274z"/>
	<path class="st1" d="M670.5,273.8c1.4,0,2.8,0,4.2,0c0,7.1,0,14.3,0,21.4c1.7,0,3.3,0,5,0c0,1.1,0,2.3,0,3.4c-3.1,0-6.1,0-9.2,0
		C670.5,290.4,670.5,282.1,670.5,273.8z"/>
	<path class="st1" d="M681.6,273.8c3.3,0,6.7,0,10,0c0,1.1,0,2.3,0,3.4c-1.9,0-3.9,0-5.8,0c0,2.4,0,4.7,0,7.1c1.4,0,2.8,0,4.1,0
		c0,1.1,0,2.3,0,3.4c-1.4,0-2.8,0-4.1,0c0,2.5,0,5,0,7.5c1.9,0,3.9,0,5.8,0c0,1.1,0,2.3,0,3.4c-3.3,0-6.7,0-10,0
		C681.5,290.4,681.5,282.1,681.6,273.8z"/>
	<path class="st1" d="M697.8,273.8c1.6,0,3.2,0,4.8,0c1.6,8.3,3.2,16.6,4.7,24.9c-1.4,0-2.9,0-4.3,0c-0.3-1.5-0.5-3-0.8-4.5
		c-1.5,0-2.9,0-4.4,0c-0.3,1.5-0.5,3-0.7,4.5c-1.3,0-2.7,0-4,0C694.7,290.4,696.2,282.1,697.8,273.8 M700,280.9
		c-0.6,3.3-1.1,6.6-1.6,9.9c1.1,0,2.2,0,3.3,0C701.1,287.5,700.6,284.2,700,280.9z"/>
	<path class="st1" d="M709,273.8c1.4,0,2.8,0,4.1,0c1.5,4.7,3,9.4,4.5,14.1c0-4.7,0-9.4,0-14.1c1.2,0,2.3,0,3.5,0
		c0,8.3,0,16.6,0,24.9c-1.2,0-2.5,0-3.7,0c-1.6-5.1-3.2-10.3-4.9-15.4c0,5.1,0,10.3,0,15.4c-1.2,0-2.4,0-3.6,0
		C709,290.4,709,282.1,709,273.8z"/>
	<path class="st1" d="M726.8,273.8c1.4,0,2.7,0,4.1,0c0.7,5.2,1.3,10.5,2,15.7c0.7-5.2,1.4-10.5,2.1-15.7c1.1,0,2.3,0,3.4,0
		c0.8,5.2,1.5,10.5,2.3,15.7c0.7-5.2,1.3-10.5,1.9-15.7c1.2,0,2.4,0,3.5,0c-1.1,8.3-2.2,16.6-3.2,24.9c-1.3,0-2.7,0-4,0
		c-0.8-5.1-1.6-10.1-2.5-15.2c-0.8,5.1-1.6,10.1-2.4,15.2c-1.3,0-2.6,0-4,0C729,290.4,727.9,282.1,726.8,273.8z"/>
	<path class="st1" d="M750.4,273.8c1.6,0,3.2,0,4.8,0c1.6,8.3,3.2,16.6,4.7,24.9c-1.4,0-2.9,0-4.3,0c-0.3-1.5-0.5-3-0.8-4.5
		c-1.5,0-2.9,0-4.4,0c-0.3,1.5-0.5,3-0.7,4.5c-1.3,0-2.7,0-4,0C747.3,290.4,748.9,282.1,750.4,273.8 M751,290.8c1.1,0,2.2,0,3.3,0
		c-0.5-3.3-1.1-6.6-1.6-9.9C752.1,284.2,751.6,287.5,751,290.8z"/>
	<path class="st1" d="M759.4,273.8c3.7,0,7.4,0,11.1,0c0,1.1,0,2.3,0,3.4c-1.1,0-2.3,0-3.4,0c0,7.2,0,14.3,0,21.5
		c-1.4,0-2.8,0-4.2,0c0-7.2,0-14.3,0-21.5c-1.1,0-2.3,0-3.4,0C759.4,276.1,759.4,275,759.4,273.8z"/>
	<path class="st1" d="M772.4,273.8c3.3,0,6.7,0,10,0c0,1.1,0,2.3,0,3.4c-1.9,0-3.9,0-5.8,0c0,2.4,0,4.7,0,7.1c1.4,0,2.8,0,4.1,0
		c0,1.1,0,2.3,0,3.4c-1.4,0-2.8,0-4.1,0c0,2.5,0,5,0,7.5c1.9,0,3.9,0,5.8,0c0,1.1,0,2.3,0,3.4c-3.3,0-6.7,0-10,0
		C772.4,290.4,772.4,282.1,772.4,273.8z"/>
	<path class="st1" d="M784.6,273.8c2.4,0,4.8-0.1,7.2,0c1.8,0.1,3.8,1.1,4.3,3c0.6,2.2,0.4,4.6,0.3,6.9c-0.1,1.8-1.5,3.2-3.2,3.7
		c1.3,3.7,2.7,7.5,4,11.2c-1.5,0-2.9,0-4.4,0c-1.3-3.7-2.5-7.5-3.9-11.2c0,3.7,0,7.5,0,11.2c-1.4,0-2.8,0-4.2,0
		C784.6,290.4,784.6,282.1,784.6,273.8 M788.9,277.2c0,2.6,0,5.2,0,7.7c1.1,0,2.9,0.2,3.3-1.2c0.2-1.7,0.2-3.5,0-5.2
		C791.9,277,790,277.3,788.9,277.2z"/>
	<path class="st1" d="M706.4,309.4c2.3-1.4,5.6-1.4,7.9,0.1c2,1.5,1.8,4.3,1.8,6.6c-1.3,0-2.6,0-3.8,0c0-1.1,0.1-2.1-0.1-3.2
		c-0.6-1.7-3.7-1.4-3.8,0.5c-0.4,1.9,0.9,3.4,2.2,4.5c2.1,2.3,5.1,4.2,5.7,7.5c0.3,2.6,0.3,5.9-2.2,7.5c-2.5,1.4-5.9,1.4-8.2-0.4
		c-2.1-1.9-1.5-5.1-1.6-7.6c1.3,0,2.6,0,3.9,0c0,1.4-0.1,2.9,0.1,4.3c0.4,1.7,3.4,1.8,3.7,0c0.2-1.3,0.3-2.9-0.5-4
		c-2.1-2.7-5.4-4.6-6.8-7.9C704,314.7,704,311.1,706.4,309.4z"/>
	<path class="st1" d="M802.5,308.5c2-0.4,4.3-0.2,6,1.1c1.5,1.2,2.1,3.3,2.1,5.2c0,4.2,0,8.4,0,12.6c0,2.3-1,4.8-3.2,5.8
		c-2.2,0.9-4.8,0.9-6.9-0.4c-1.9-1.2-2.6-3.6-2.6-5.7c0-4.3,0-8.6,0-12.9C797.9,311.6,799.7,308.9,802.5,308.5 M803.4,312
		c-1.1,0.4-1.3,1.8-1.3,2.8c0,4.4,0,8.8,0,13.2c0,1.1,0.8,2.4,2,2.3c1.3,0.1,2.3-1.1,2.2-2.3c0-4.7,0-9.3,0-14
		C806.4,312.5,804.7,311.4,803.4,312z"/>
	<path class="st1" d="M660.1,308.7c1.6,0,3.2,0,4.8,0c1.6,8.3,3.2,16.6,4.7,24.9c-1.4,0-2.9,0-4.3,0c-0.3-1.5-0.5-3-0.8-4.6
		c-1.5,0-2.9,0-4.4,0c-0.2,1.5-0.5,3-0.7,4.6c-1.3,0-2.7,0-4,0C656.9,325.3,658.5,317,660.1,308.7 M662.3,315.8
		c-0.6,3.3-1.1,6.6-1.6,9.9c1.1,0,2.2,0,3.3,0C663.4,322.4,662.9,319.1,662.3,315.8z"/>
	<path class="st1" d="M671.3,308.7c1.4,0,2.8,0,4.1,0c1.5,4.7,2.9,9.4,4.5,14.1c0-4.7,0-9.4,0-14.1c1.2,0,2.3,0,3.5,0
		c0,8.3,0,16.6,0,24.9c-1.2,0-2.5,0-3.7,0c-1.6-5.1-3.2-10.2-4.9-15.3c-0.1,5.1,0,10.2,0,15.3c-1.2,0-2.4,0-3.6,0
		C671.3,325.3,671.3,317,671.3,308.7z"/>
	<path class="st1" d="M685.8,308.7c3.2,0.2,6.6-0.6,9.6,0.6c2.1,1,2.9,3.4,2.9,5.5c0,4.1,0,8.2,0,12.4c0,2.2-0.7,4.6-2.8,5.7
		c-3.1,1.4-6.5,0.5-9.8,0.7C685.8,325.3,685.8,317,685.8,308.7 M690,330.1c1.5,0.1,3.9,0.2,4.1-1.8c0.2-4.3,0-8.6,0.1-12.9
		c0-1,0.1-2.2-0.8-2.9c-1-0.7-2.2-0.4-3.3-0.5C690,318.1,690,324.1,690,330.1z"/>
	<path class="st1" d="M722.2,308.7c1.6,0,3.2,0,4.8,0c1.6,8.3,3.2,16.6,4.7,24.9c-1.4,0-2.9,0-4.3,0c-0.3-1.5-0.5-3-0.8-4.6
		c-1.5,0-2.9,0-4.4,0c-0.3,1.5-0.5,3-0.7,4.6c-1.3,0-2.7,0-4,0C719.1,325.3,720.6,317,722.2,308.7 M724.4,315.8
		c-0.6,3.3-1.1,6.6-1.6,9.8c1.1,0,2.2,0,3.3,0C725.5,322.4,725,319.1,724.4,315.8z"/>
	<path class="st1" d="M733.4,308.7c1.4,0,2.8,0,4.1,0c1.5,4.7,2.9,9.4,4.5,14.1c0.1-4.7,0-9.4,0-14.1c1.2,0,2.3,0,3.5,0
		c0,8.3,0,16.6,0,24.9c-1.2,0-2.5,0-3.7,0c-1.6-5.1-3.2-10.2-4.9-15.3c-0.1,5.1,0,10.2,0,15.3c-1.2,0-2.4,0-3.6,0
		C733.4,325.3,733.4,317,733.4,308.7z"/>
	<path class="st1" d="M747.9,308.7c1.4,0,2.8,0,4.2,0c0,8.3,0,16.6,0,24.9c-1.4,0-2.8,0-4.2,0C747.9,325.3,747.9,317,747.9,308.7z"
		/>
	<path class="st1" d="M754,308.7c3.7,0,7.4,0,11.1,0c0,1.1,0,2.3,0,3.4c-1.1,0-2.3,0-3.4,0c0,7.2,0,14.3,0,21.5c-1.4,0-2.8,0-4.2,0
		c0-7.2,0-14.3,0-21.5c-1.1,0-2.3,0-3.4,0C754,311,754,309.8,754,308.7z"/>
	<path class="st1" d="M769.3,308.7c1.6,0,3.2,0,4.8,0c1.6,8.3,3.2,16.6,4.7,24.9c-1.4,0-2.9,0-4.3,0c-0.3-1.5-0.5-3-0.8-4.6
		c-1.5,0-2.9,0-4.4,0c-0.3,1.5-0.5,3-0.7,4.6c-1.3,0-2.7,0-4,0C766.2,325.3,767.7,317,769.3,308.7 M771.5,315.7
		c-0.6,3.3-1.1,6.6-1.6,9.9c1.1,0,2.2,0,3.3,0C772.6,322.3,772.1,319,771.5,315.7z"/>
	<path class="st1" d="M778.2,308.7c3.7,0,7.4,0,11.2,0c0,1.1,0,2.3,0,3.4c-1.1,0-2.3,0-3.4,0c0,7.2,0,14.3,0,21.5
		c-1.4,0-2.8,0-4.2,0c0-7.2,0-14.3,0-21.5c-1.2,0-2.3,0-3.5,0C778.2,310.9,778.2,309.8,778.2,308.7z"/>
	<path class="st1" d="M791.3,308.7c1.4,0,2.8,0,4.2,0c0,8.3,0,16.6,0,24.9c-1.4,0-2.8,0-4.2,0C791.3,325.3,791.3,317,791.3,308.7z"
		/>
	<path class="st1" d="M812.9,308.7c1.4,0,2.8,0,4.1,0c1.5,4.7,3,9.4,4.5,14.1c0-4.7,0-9.4,0-14.1c1.2,0,2.3,0,3.5,0
		c0,8.3,0,16.6,0,24.9c-1.2,0-2.5,0-3.7,0c-1.6-5.2-3.2-10.3-4.9-15.5c0,5.2,0,10.3,0,15.5c-1.2,0-2.4,0-3.5,0
		C812.9,325.3,812.9,317,812.9,308.7z"/>
	<path class="st1" d="M663.1,368.9c-0.3-1,0.7-1.7,1.6-1.5c35.6,0,71.1,0,106.7,0c0.8-0.1,1.5,0.7,1.3,1.5
		c-5.6,36.1-11.2,72.2-16.8,108.3c0,0.8-0.7,1.5-1.5,1.4c-7.4,0-14.8,0-22.2,0c-0.5,5.9-1,11.8-1.5,17.7c3.1,0,6.2,0,9.3,0
		c-7.2,7.2-14.5,14.5-21.7,21.7c-7.2-7.2-14.4-14.4-21.6-21.7c3.1,0,6.2,0,9.3,0c-0.5-5.9-1-11.8-1.5-17.7c-7.3,0-14.6,0-21.8,0
		c-0.9,0.1-1.5-0.6-1.5-1.4C675,441.1,669,405,663.1,368.9 M667.8,372.1c1.4,7.2,2.8,14.4,4.2,21.6c6.7,0.1,13.2-2.1,19.4-4.4
		c3.3-1.3,7-1.5,10.4-0.9c5.9,1.1,11.3,4.1,17,5.9c5.4,1.7,11.1,2.7,16.8,2.2c6.8-0.5,13.2-2.8,19.5-5.4c3.1-1.2,6.7-1.8,9.9-0.6
		c1-6.2,2-12.3,3-18.5C734.6,372.1,701.2,372.1,667.8,372.1 M703.4,431.2c-3.9,6.6-4.7,15.6,0.4,21.8c4.5,6.1,12.9,7.4,19.9,5.8
		c5.4-1.3,9.9-5.6,11.7-10.9c2-5.9,0.3-12.5-2.9-17.7c-4.6-7.4-9.4-14.6-14.2-21.8C713.2,415.9,708.1,423.5,703.4,431.2z"/>
</g>
</svg>
