<?xml version="1.0" encoding="utf-8"?>
<!-- Generator: Adobe Illustrator 19.0.0, SVG Export Plug-In . SVG Version: 6.00 Build 0)  -->
<svg version="1.1" id="Layer_1" xmlns="http://www.w3.org/2000/svg" xmlns:xlink="http://www.w3.org/1999/xlink" x="0px" y="0px"
	 viewBox="568 246 300 300" style="enable-background:new 568 246 300 300;" xml:space="preserve">
<style type="text/css">
	.st0{fill:#FFFFFF;}
	.st1{fill:#F36D25;}
</style>
<g>
	<rect x="568" y="246" class="st0" width="300" height="300"/>
	<path class="st1" d="M608.4,272.3c4.1-0.2,8.6,0.5,11.7,3.4c3.2,3,4.3,7.5,4.3,11.7c0,10.2,0,20.3,0,30.5
		c-0.1,4.4-1.3,9.2-4.7,12.2c-3.5,3-8.4,3.5-12.8,3c-3.5-0.3-7.2-1.8-9.1-4.9c-2.5-3.8-2.4-8.6-2.3-13.1c3,0,6.1,0,9.1,0
		c0.1,2.5-0.4,5.2,0.7,7.6c1.1,2.2,4.1,2.5,6.2,1.8c2.1-0.8,2.9-3.1,3-5.2c0-4.5,0-8.9,0-13.4c-3,6.1-12.5,6.4-16.5,1.2
		c-3-4-2.9-9.2-2.9-13.9c0.1-5.2-0.6-10.8,2.3-15.4C599.7,274,604.2,272.4,608.4,272.3 M609.4,280.4c-2.3,0-4.1,2-4.2,4.2
		c-0.3,3.4,0,6.8-0.1,10.3c0,2.1-0.2,4.3,1,6.1c1.2,1.7,3.8,1.9,5.6,1.3c2-0.8,2.7-3.1,2.8-5c0-3.5,0-7,0-10.6
		c0-1.7-0.1-3.5-1.2-4.9C612.4,280.7,610.8,280.3,609.4,280.4z"/>
	<path class="st1" d="M689.9,273.8c2.3-1.3,5.3-1.3,7.6,0.1c2.1,1.5,2,4.4,1.9,6.7c-1.3,0-2.5,0-3.8,0c0-1.1,0.1-2.1-0.1-3.2
		c-0.5-1.5-3.1-1.5-3.6,0c-0.3,1.2-0.2,2.6,0.7,3.6c2,2.2,4.4,4.1,6.1,6.5c1.4,2.1,1.3,4.8,0.8,7.2c-1.1,4-6.7,4.6-9.8,2.6
		c-2.5-1.8-1.9-5.3-2-7.9c1.3,0,2.6,0,3.9,0c0,1.4-0.1,2.9,0.1,4.4c0.4,1.7,3.4,1.7,3.7-0.1c0.2-1.3,0.3-2.8-0.5-4
		c-2.1-2.8-5.5-4.7-6.8-8.1C687.3,279,687.3,275.4,689.9,273.8z"/>
	<path class="st1" d="M780.5,273.1c2.2-0.4,4.7-0.2,6.3,1.4c1.4,1.3,1.9,3.4,1.9,5.3c0,4.1,0,8.2,0,12.3c0,2.3-1,4.7-3.1,5.7
		c-2.1,0.9-4.6,0.9-6.6-0.1c-2.1-1.1-2.9-3.6-2.9-5.9c0-4.3,0-8.6,0-12.9C776.1,276.2,777.8,273.5,780.5,273.1 M781.4,276.6
		c-1.1,0.5-1.2,1.8-1.2,2.8c0,4.4,0,8.8,0,13.2c0,1.1,0.7,2.3,1.9,2.3c1.3,0.2,2.4-1,2.3-2.3c0-4.7,0-9.4,0-14.1
		C784.5,277,782.8,275.9,781.4,276.6z"/>
	<path class="st1" d="M835,273.1c2.2-0.4,4.7-0.2,6.4,1.3c1.4,1.3,1.9,3.4,1.9,5.3c0,4.1,0,8.2,0,12.3c0,2.3-1,4.8-3.2,5.7
		c-2.1,0.9-4.8,0.9-6.8-0.2c-2-1.2-2.7-3.6-2.7-5.8c0-4.3,0-8.6,0-12.9C830.6,276.2,832.3,273.5,835,273.1 M835.9,276.6
		c-1,0.5-1.2,1.8-1.2,2.8c0,4.4,0,8.8,0,13.2c0,1.1,0.7,2.3,1.9,2.3c1.3,0.2,2.4-1,2.3-2.3c0-4.7,0-9.4,0-14.1
		C839,276.9,837.3,275.9,835.9,276.6z"/>
	<path class="st1" d="M641.6,273.2c1.4,0,2.8,0,4.2,0c0,8.3,0,16.6,0,24.9c-1.4,0-2.8,0-4.2,0C641.6,289.8,641.6,281.5,641.6,273.2z
		"/>
	<path class="st1" d="M647.1,273.2c1.4,0,2.7,0,4.1,0c1.5,4.7,3,9.5,4.5,14.2c0-4.7,0-9.4,0-14.2c1.2,0,2.3,0,3.5,0
		c0,8.3,0,16.6,0,24.9c-1.2,0-2.5,0-3.7,0c-1.6-5.1-3.2-10.3-4.9-15.4c0,5.1,0,10.3,0,15.4c-1.2,0-2.4,0-3.5,0
		C647.1,289.8,647.1,281.5,647.1,273.2z"/>
	<path class="st1" d="M660.5,273.2c3.2,0.2,6.7-0.6,9.7,0.7c2,1,2.8,3.4,2.8,5.5c0,4.1,0,8.2,0,12.4c0,2.1-0.7,4.6-2.7,5.6
		c-3.1,1.4-6.6,0.5-9.8,0.7C660.5,289.8,660.5,281.5,660.5,273.2 M664.7,276.6c0,6,0,12,0,18c1.5,0.1,3.8,0.2,4-1.8
		c0.2-4.2,0-8.4,0.1-12.6c0-1.1,0.1-2.4-0.7-3.1C667.2,276.4,665.9,276.7,664.7,276.6z"/>
	<path class="st1" d="M674.4,273.2c1.4,0,2.8,0,4.2,0c0,6.5,0,12.9,0,19.4c-0.1,1.1,0.7,2.4,2,2.3c1.3,0.2,2.2-1.1,2.1-2.3
		c0-6.5,0-12.9,0-19.4c1.3,0,2.6,0,3.9,0c0,6.4,0,12.8,0,19.1c0,2.1-0.7,4.4-2.7,5.4c-2,0.9-4.4,0.9-6.5,0.1c-2.1-0.9-3-3.3-3-5.5
		C674.3,285.9,674.3,279.6,674.4,273.2z"/>
	<path class="st1" d="M699.7,273.2c3.7,0,7.4,0,11.1,0c0,1.1,0,2.3,0,3.4c-1.1,0-2.3,0-3.4,0c0,7.1,0,14.3,0,21.4
		c-1.4,0-2.8,0-4.2,0c0-7.1,0-14.3,0-21.4c-1.2,0-2.3,0-3.5,0C699.7,275.5,699.7,274.3,699.7,273.2z"/>
	<path class="st1" d="M711.7,273.2c2.6,0,5.2-0.1,7.7,0.1c1.9,0.2,3.7,1.7,4,3.6c0.3,2.1,0.2,4.3,0.1,6.5c-0.2,1.7-1.6,3-3.2,3.4
		c1.3,3.7,2.7,7.5,4,11.2c-1.5,0-2.9,0-4.4,0c-1.3-3.7-2.5-7.4-3.9-11.1c-0.1,3.7,0,7.4,0,11.1c-1.4,0-2.8,0-4.2,0
		C711.7,289.8,711.7,281.5,711.7,273.2 M715.9,276.6c0,2.6,0,5.1,0,7.7c1.1,0,2.9,0.3,3.3-1.2c0.2-1.7,0.1-3.5,0-5.2
		C719,276.4,717.1,276.6,715.9,276.6z"/>
	<path class="st1" d="M723.5,273.2c1.5,0,2.9,0,4.4,0c0.9,3.1,1.7,6.3,2.6,9.4c0.9-3.1,1.7-6.3,2.5-9.4c1.3,0,2.7,0,4,0
		c-1.5,5.1-3.1,10.2-4.6,15.3c-0.2,3.2,0,6.4-0.1,9.5c-1.4,0-2.8,0-4.2,0c-0.3-4.1,0.7-8.5-0.9-12.4
		C726,281.5,724.7,277.4,723.5,273.2z"/>
	<path class="st1" d="M743.6,273.2c1.4,0,2.8,0,4.2,0c0,8.3,0,16.6,0,24.9c-1.4,0-2.8,0-4.2,0C743.6,289.8,743.6,281.5,743.6,273.2z
		"/>
	<path class="st1" d="M749.2,273.2c1.4,0,2.7,0,4.1,0c1.6,4.7,3,9.4,4.5,14.1c0-4.7,0-9.4,0-14.1c1.2,0,2.3,0,3.5,0
		c0,8.3,0,16.6,0,24.9c-1.2,0-2.5,0-3.7,0c-1.7-5.1-3.2-10.3-4.9-15.4c0,5.1,0,10.3,0,15.4c-1.2,0-2.3,0-3.5,0
		C749.2,289.8,749.1,281.5,749.2,273.2z"/>
	<path class="st1" d="M762.6,273.2c1.4,0,2.7,0,4.1,0c1.5,4.7,2.9,9.4,4.5,14.1c0-4.7,0-9.4,0-14.1c1.2,0,2.3,0,3.5,0
		c0,8.3,0,16.6,0,24.9c-1.2,0-2.5,0-3.7,0c-1.7-5.1-3.2-10.3-4.9-15.4c0,5.1,0,10.3,0,15.4c-1.2,0-2.4,0-3.5,0
		C762.6,289.8,762.6,281.5,762.6,273.2z"/>
	<path class="st1" d="M788.6,273.2c1.4,0,2.8,0,4.3,0c1,5.8,1.9,11.5,2.9,17.3c1-5.8,2-11.5,2.9-17.3c1.3-0.1,2.6,0,4,0
		c-1.6,8.3-3.1,16.6-4.7,24.9c-1.5,0-3,0-4.6,0C791.8,289.8,790.2,281.5,788.6,273.2z"/>
	<path class="st1" d="M805.1,273.2c1.6,0,3.2,0,4.8,0c1.6,8.3,3.2,16.6,4.7,24.9c-1.4,0-2.9,0-4.3,0c-0.3-1.5-0.5-3-0.8-4.5
		c-1.5,0-2.9,0-4.4,0c-0.3,1.5-0.5,3-0.7,4.5c-1.3,0-2.7,0-4,0C802,289.8,803.6,281.5,805.1,273.2 M805.7,290.2c1.1,0,2.2,0,3.3,0
		c-0.5-3.2-1-6.5-1.6-9.7C806.7,283.7,806.3,286.9,805.7,290.2z"/>
	<path class="st1" d="M813,273.2c3.7,0,7.4,0,11.1,0c0,1.1,0,2.3,0,3.4c-1.1,0-2.3,0-3.4,0c0,7.2,0,14.3,0,21.5c-1.4,0-2.8,0-4.2,0
		c0-7.2,0-14.3,0-21.5c-1.1,0-2.3,0-3.4,0C813,275.5,813,274.3,813,273.2z"/>
	<path class="st1" d="M825,273.2c1.4,0,2.8,0,4.2,0c0,8.3,0,16.6,0,24.9c-1.4,0-2.8,0-4.2,0C825,289.8,825,281.5,825,273.2z"/>
	<path class="st1" d="M844.5,273.2c1.4,0,2.7,0,4.1,0c1.5,4.6,2.9,9.3,4.5,13.9c0.1-4.6,0-9.2,0.1-13.9c1.2,0,2.3,0,3.5,0
		c0,8.3,0,16.6,0,24.9c-1.2,0-2.5,0-3.7,0c-1.6-5.1-3.2-10.2-4.8-15.3c-0.1,5.1,0,10.2,0,15.3c-1.2,0-2.4,0-3.5,0
		C844.5,289.8,844.5,281.5,844.5,273.2z"/>
	<path class="st1" d="M735.5,294.1c1.4,0,2.7,0,4.1,0c-0.7,2-1.5,4-2.2,5.9c-0.8,0-1.6,0-2.4,0C735.2,298,735.4,296.1,735.5,294.1z"
		/>
	<path class="st1" d="M744.3,308.6c2.2-1.2,5.2-1.2,7.4,0c2.2,1.5,2.1,4.4,2,6.8c-1.3,0-2.6,0-3.8,0c0-1.1,0.1-2.3-0.2-3.3
		c-0.7-1.6-3.7-1.2-3.7,0.7c-0.5,2.1,1.2,3.6,2.6,4.9c2,2.1,4.6,4,5.3,7c0.3,2.6,0.4,6-2.1,7.6c-2.4,1.4-5.9,1.4-8.1-0.3
		c-2.2-1.9-1.6-5.1-1.7-7.7c1.3,0,2.6,0,3.9,0c0,1.4-0.1,2.8,0.1,4.2c0.3,1.7,3.2,1.9,3.7,0.2c0.3-1.3,0.3-2.9-0.4-4
		c-2.1-2.8-5.5-4.7-6.9-8.1C741.7,313.9,741.7,310.3,744.3,308.6z"/>
	<path class="st1" d="M796.3,308.2c2.4-0.7,5.4-0.7,7.2,1.2c1.8,2.1,1.2,5,1.3,7.6c-1.3,0-2.5,0-3.8,0c-0.1-1.5,0.1-2.9-0.1-4.4
		c-0.4-1.7-3-1.7-3.7-0.3c-0.5,1-0.3,2.1-0.3,3.2c0.1,4.2-0.1,8.4,0.1,12.5c0.1,2,3.3,2.5,3.9,0.6c0.4-1.9,0.1-3.9,0.2-5.8
		c1.3,0,2.5,0,3.8,0c-0.1,2.7,0.5,5.8-0.9,8.2c-1.6,2.4-5,2.6-7.5,1.9c-2.4-0.7-3.7-3.3-3.7-5.7c0-4.4,0-8.8,0-13.2
		C792.6,311.6,793.8,308.9,796.3,308.2z"/>
	<path class="st1" d="M645.6,308c1.6,0,3.2,0,4.8,0c1.6,8.3,3.2,16.6,4.7,24.9c-1.4,0-2.9,0-4.3,0c-0.3-1.5-0.5-3-0.8-4.5
		c-1.5,0-2.9,0-4.4,0c-0.3,1.5-0.5,3-0.7,4.5c-1.3,0-2.7,0-4,0C642.4,324.6,644,316.3,645.6,308 M646.2,325c1.1,0,2.2,0,3.3,0
		c-0.5-3.3-1.1-6.6-1.6-9.9C647.2,318.4,646.7,321.7,646.2,325z"/>
	<path class="st1" d="M655.8,308c1.4,0,2.8,0,4.1,0c1.5,4.7,2.9,9.4,4.5,14c0-4.7,0-9.4,0-14.1c1.2,0,2.3,0,3.5,0
		c0,8.3,0,16.6,0,24.9c-1.2,0-2.5,0-3.7,0c-1.6-5.2-3.2-10.4-4.9-15.5c0,5.2,0,10.3,0,15.5c-1.2,0-2.4,0-3.5,0
		C655.7,324.6,655.7,316.3,655.8,308z"/>
	<path class="st1" d="M669.2,308c3.4,0.3,7.1-0.8,10.2,0.9c1.8,1.2,2.4,3.5,2.4,5.6c0,4,0,8,0,12c0,2.1-0.7,4.5-2.7,5.6
		c-3.1,1.5-6.6,0.5-9.9,0.8C669.2,324.6,669.2,316.3,669.2,308 M673.4,311.5c0,6,0,12,0,18c1.5,0.1,3.9,0.2,4.1-1.8
		c0.1-4.8,0.1-9.7,0-14.5C677.2,311.2,674.8,311.4,673.4,311.5z"/>
	<path class="st1" d="M685.8,308c1.4,0,2.8,0,4.2,0c0,8.3,0,16.6,0,24.9c-1.4,0-2.8,0-4.2,0C685.8,324.6,685.8,316.3,685.8,308z"/>
	<path class="st1" d="M691.3,308c1.4,0,2.7,0,4.1,0c1.5,4.7,3,9.4,4.5,14.2c0-4.7,0-9.4,0-14.2c1.2,0,2.3,0,3.5,0
		c0,8.3,0,16.6,0,24.9c-1.3-0.3-3.7,0.9-4-1c-1.5-4.8-3-9.6-4.6-14.4c0,5.1,0,10.3,0,15.4c-1.2,0-2.3,0-3.5,0
		C691.3,324.6,691.3,316.3,691.3,308z"/>
	<path class="st1" d="M704.8,308c3.3,0,6.5,0,9.8,0c0,1.1,0,2.3,0,3.4c-1.9,0-3.7,0-5.6,0c0,2.4,0,4.7,0,7.1c1.4,0,2.8,0,4.2,0
		c0,1.1,0,2.3,0,3.4c-1.4,0-2.8,0-4.2,0c0,3.7,0,7.3,0,11c-1.4,0-2.8,0-4.2,0C704.8,324.6,704.8,316.3,704.8,308z"/>
	<path class="st1" d="M715.3,308c2.5,0,4.9-0.1,7.4,0.1c1.9,0.1,3.8,1.4,4.2,3.3c0.4,2.2,0.3,4.4,0.2,6.6c-0.1,1.8-1.5,3.2-3.2,3.6
		c1.3,3.6,2.6,7.3,3.9,10.9c1.6-8.2,3.1-16.4,4.6-24.6c1.6,0,3.2,0,4.8,0c1.6,8.3,3.2,16.6,4.7,24.9c-1.4,0-2.9,0-4.3,0
		c-0.3-1.5-0.5-3-0.8-4.5c-1.5,0-2.9,0-4.4,0c-0.3,1.5-0.5,3-0.7,4.5c-2.8,0-5.5,0-8.3,0c-1.3-3.7-2.6-7.5-3.9-11.2
		c0,3.7,0,7.5,0,11.2c-1.4,0-2.8,0-4.2,0C715.3,324.6,715.3,316.3,715.3,308 M719.5,311.5c0,2.6,0,5.2,0,7.7c1.2,0,2.9,0.2,3.3-1.2
		c0.2-1.8,0.2-3.6,0-5.4C722.4,311.2,720.7,311.5,719.5,311.5 M734.7,315.3c-0.6,3.2-1.1,6.5-1.6,9.7c1.1,0,2.2,0,3.3,0
		C735.7,321.8,735.3,318.5,734.7,315.3z"/>
	<path class="st1" d="M754.1,308c3.7,0,7.4,0,11.1,0c0,1.1,0,2.3,0,3.4c-1.1,0-2.3,0-3.4,0c0,7.2,0,14.3,0,21.5c-1.4,0-2.8,0-4.2,0
		c0-7.2,0-14.3,0-21.5c-1.1,0-2.3,0-3.4,0C754.1,310.3,754.1,309.2,754.1,308z"/>
	<path class="st1" d="M766.1,308c2.3,0,4.7-0.1,7,0c1.9,0,4,1.1,4.5,3.1c0.6,2.2,0.3,4.5,0.3,6.8c-0.1,1.9-1.5,3.3-3.2,3.8
		c1.3,3.7,2.7,7.5,4,11.2c-1.5,0-2.9,0-4.4,0c-1.3-3.7-2.5-7.4-3.9-11c-0.1,3.7,0,7.4,0,11c-1.4,0-2.8,0-4.2,0
		C766.1,324.6,766.1,316.3,766.1,308 M770.3,311.5c0,2.6,0,5.1,0,7.7c1.1,0,2.9,0.2,3.3-1.2c0.2-1.8,0.2-3.7,0-5.5
		C773.2,311.2,771.5,311.5,770.3,311.5z"/>
	<path class="st1" d="M779.2,308c1.4,0,2.8,0,4.2,0c0.1,6.6-0.1,13.3,0.1,20c0.1,2.3,3.9,2.3,4,0c0.2-6.7,0-13.3,0.1-20
		c1.3,0,2.6,0,3.9,0c0,6.4,0,12.7,0,19.1c0,2-0.7,4.4-2.6,5.4c-2.1,1-4.8,1-6.9-0.1c-1.9-1-2.7-3.3-2.7-5.3
		C779.1,320.8,779.2,314.4,779.2,308z"/>
	<path class="st1" d="M805.1,308c3.7,0,7.4,0,11.1,0c0,1.1,0,2.3,0,3.4c-1.2,0-2.3,0-3.5,0c0,7.1,0,14.3,0,21.4c-1.4,0-2.8,0-4.2,0
		c0-7.2,0-14.3,0-21.4c-1.1,0-2.3,0-3.4,0C805.1,310.3,805.1,309.2,805.1,308z"/>
	<path class="st1" d="M817.1,308.1c1.4,0,2.8,0,4.2,0c0.1,6.7-0.1,13.3,0.1,20c0.1,2.3,3.9,2.2,4,0c0.1-6.6,0-13.3,0.1-19.9
		c1.3,0,2.6,0,3.9,0c0,6.4,0,12.8,0,19.1c0,2-0.7,4.3-2.5,5.3c-2,1-4.4,1-6.5,0.2c-2.1-0.8-3.1-3.1-3.1-5.2
		C817.1,321,817.1,314.5,817.1,308.1z"/>
	<path class="st1" d="M830.6,308c2.5,0,5-0.1,7.5,0.1c1.9,0.1,3.8,1.5,4.1,3.5c0.4,2.1,0.2,4.3,0.1,6.4c-0.1,1.8-1.5,3.2-3.2,3.7
		c1.3,3.7,2.7,7.5,4,11.2c-1.5,0-2.9,0-4.4,0c-1.3-3.7-2.5-7.4-3.9-11.1c-0.1,3.7,0,7.4,0,11.1c-1.4,0-2.8,0-4.2,0
		C830.6,324.6,830.6,316.3,830.6,308 M834.8,311.5c0,2.6,0,5.1,0,7.7c1.1,0,2.9,0.2,3.3-1.2c0.2-1.7,0.2-3.5,0.1-5.2
		C837.9,311.2,836,311.5,834.8,311.5z"/>
	<path class="st1" d="M843.7,308c3.3,0,6.7,0,10,0c0,1.1,0,2.3,0,3.4c-1.9,0-3.9,0-5.8,0c0,2.4,0,4.7,0,7.1c1.4,0,2.8,0,4.1,0
		c0,1.1,0,2.3,0,3.4c-1.4,0-2.8,0-4.1,0c0,2.5,0,5,0,7.5c1.9,0,3.9,0,5.8,0c0,1.1,0,2.3,0,3.4c-3.3,0-6.7,0-10,0
		C843.7,324.6,843.7,316.3,843.7,308z"/>
	<path class="st1" d="M718.2,358.7c0.8-0.6,1.9-0.6,2.8,0c12,6.9,24,13.9,36,20.8c0.9,0.5,1.4,1.4,1.3,2.4c0,13.4,0,26.8,0,40.2
		c11.6,6.8,23.3,13.5,34.9,20.2c0.8,0.4,1.4,1.3,1.3,2.3c0,13.9,0,27.7,0,41.6c0.1,1-0.5,1.9-1.3,2.3c-12,6.9-24,13.9-36,20.8
		c-0.8,0.5-1.8,0.5-2.6,0c-11.7-6.7-23.3-13.5-35-20.2c-11.7,6.7-23.4,13.5-35,20.2c-0.8,0.5-1.8,0.4-2.6-0.1
		c-12-6.9-24-13.9-36-20.8c-1-0.5-1.4-1.6-1.3-2.6c0-13.8,0-27.6,0-41.3c0-0.9,0.5-1.8,1.3-2.3c11.7-6.7,23.3-13.5,35-20.2
		c0-13.5,0-27,0-40.5c0-1,0.6-1.8,1.4-2.2C694.3,372.5,706.3,365.6,718.2,358.7 M685.8,385.8c0,11.2,0,22.3,0,33.5
		c9.7-5.6,19.4-11.2,29-16.8C705.1,397,695.5,391.4,685.8,385.8 M724.5,402.6c9.7,5.6,19.4,11.2,29,16.8c0-11.2,0-22.3,0-33.5
		C743.8,391.4,734.2,397,724.5,402.6 M722.1,406.8c0,11.2,0,22.3,0,33.5c9.7-5.6,19.4-11.2,29-16.7
		C741.4,418,731.7,412.4,722.1,406.8 M688.2,423.6c9.7,5.6,19.3,11.2,29,16.8c0-11.2,0-22.3,0-33.5
		C707.5,412.4,697.9,418,688.2,423.6 M724.5,444.5c10.5,6.1,21,12.1,31.4,18.2c10.5-6,21-12.1,31.5-18.2
		c-10.5-6.1-21-12.1-31.5-18.2C745.4,432.4,734.9,438.4,724.5,444.5 M649.5,448.7c0,12.1,0,24.2,0,36.3c10.5,6.1,21,12.1,31.5,18.2
		c0-12.1,0-24.2,0-36.3C670.5,460.8,660,454.7,649.5,448.7 M758.3,466.9c0,12.1,0,24.2,0,36.3c10.5-6,21-12.1,31.4-18.1
		c0-12.1,0-24.2,0-36.3C779.3,454.7,768.8,460.8,758.3,466.9 M688.2,465.5c9.7,5.6,19.3,11.2,29,16.8c0-11.2,0-22.3,0-33.5
		C707.5,454.3,697.9,459.8,688.2,465.5 M685.8,469.6c0,11.2,0,22.3,0,33.5c9.7-5.6,19.4-11.2,29-16.8
		C705.1,480.8,695.5,475.2,685.8,469.6z"/>
</g>
</svg>
