<?xml version="1.0" encoding="utf-8"?>
<!-- Generator: Adobe Illustrator 19.0.0, SVG Export Plug-In . SVG Version: 6.00 Build 0)  -->
<svg version="1.1" id="Layer_1" xmlns="http://www.w3.org/2000/svg" xmlns:xlink="http://www.w3.org/1999/xlink" x="0px" y="0px"
	 viewBox="568 246 300 300" style="enable-background:new 568 246 300 300;" xml:space="preserve">
<style type="text/css">
	.st0{fill:#FFFFFF;}
	.st1{fill:#F99D26;}
</style>
<g>
	<rect x="568" y="246" class="st0" width="300" height="300"/>
	<path class="st1" d="M652.6,276.1c1.4-3.7,6.8-4.1,9.7-2c1.9,1.6,1.6,4.3,1.6,6.5c-1.3,0-2.6,0-3.9,0c0-1.1,0.1-2.2-0.2-3.2
		c-0.5-1.5-3.1-1.5-3.6,0c-0.3,1.2-0.2,2.5,0.7,3.5c2,2.4,4.6,4.2,6.3,6.9c1.2,2.1,1.1,4.7,0.6,7c-1.2,3.9-6.5,4.5-9.6,2.6
		c-2.6-1.8-2-5.3-2.1-8c1.3,0,2.6,0,3.9,0c0,1.4-0.1,2.9,0.1,4.4c0.4,1.7,3.3,1.7,3.7,0c0.3-1.5,0.3-3.2-0.8-4.4
		c-1.7-2-3.8-3.6-5.4-5.7C652,281.6,651.9,278.6,652.6,276.1z"/>
	<path class="st1" d="M682.2,273.8c2.3-1.3,5.4-1.3,7.6,0.1c2.1,1.5,1.9,4.4,1.9,6.7c-1.3,0-2.6,0-3.8,0c0-1.1,0.1-2.3-0.2-3.4
		c-0.7-1.6-3.6-1.2-3.7,0.7c-0.5,2.2,1.3,3.7,2.7,5c2,2.1,4.8,4.1,5.2,7.3c0.3,2.5,0.2,5.8-2.3,7.3c-2.4,1.3-5.7,1.3-8-0.4
		c-2.2-1.9-1.6-5.1-1.7-7.7c1.3,0,2.6,0,3.9,0c0,1.4-0.1,2.8,0.1,4.2c0.3,1.7,3.2,1.9,3.7,0.2c0.3-1.4,0.3-3-0.6-4.2
		c-2.1-2.7-5.4-4.6-6.7-7.9C679.6,279,679.6,275.4,682.2,273.8z"/>
	<path class="st1" d="M796.5,273.5c2.4-1,5.5-1,7.5,0.8c2,2.1,1.5,5.2,1.5,7.8c-1.3,0-2.6,0-3.8,0c-0.1-1.6,0.2-3.2-0.3-4.7
		c-0.8-1.7-3.8-1.1-3.8,0.8c-0.2,4,0,8-0.1,12c0,1.2-0.2,2.5,0.3,3.6c0.7,1.5,3.4,1.4,3.7-0.3c0.3-1.9,0.1-3.8,0.1-5.6
		c1.3,0,2.6,0,3.8,0c-0.1,2.8,0.5,5.9-1,8.4c-1.7,2.4-5.2,2.6-7.8,1.6c-2.3-0.9-3.4-3.5-3.4-5.9c0-4.2,0-8.4,0-12.6
		C793.4,277.1,794.3,274.5,796.5,273.5z"/>
	<path class="st1" d="M843.8,276c1.4-3.5,6.1-3.8,9.1-2.3c2.4,1.4,2.3,4.5,2.2,6.9c-1.3,0-2.6,0-3.9,0c0-1,0.1-2.1-0.1-3.2
		c-0.5-1.6-3.1-1.5-3.6,0c-0.4,1.3-0.1,2.8,0.8,3.8c1.8,2,3.9,3.7,5.6,5.8c1.8,2.2,1.7,5.3,1.1,7.9c-1.2,3.9-6.6,4.4-9.7,2.5
		c-2.5-1.8-1.9-5.3-2-8c1.3,0,2.6,0,3.9,0c0,1.4-0.1,2.8,0.1,4.2c0.2,1.8,3.2,1.9,3.7,0.2c0.4-1.5,0.3-3.3-0.8-4.6
		c-1.7-1.9-3.7-3.5-5.3-5.5C843.2,281.6,843,278.5,843.8,276z"/>
	<path class="st1" d="M592.4,282.9c2.8-3.2,5.6-6.6,8.4-9.8c2.7,0,5.3,0,8,0c0,19.8,0,39.7,0,59.5c-3.3,0-6.7,0-10,0
		c0-15.2,0-30.4,0-45.6c-2.4,2.5-4.8,5-7.2,7.4c0-3.3,0-6.6,0-9.8C591.5,284,591.9,283.4,592.4,282.9z"/>
	<path class="st1" d="M615.2,282.9c2.8-3.2,5.6-6.6,8.4-9.8c2.7,0,5.3,0,8,0c0,19.8,0,39.7,0,59.5c-3.3,0-6.7,0-10,0
		c0-15.2,0-30.4,0-45.6c-2.4,2.5-4.8,5-7.2,7.4c0-3.3,0-6.6,0-9.8C614.3,284,614.8,283.4,615.2,282.9z"/>
	<path class="st1" d="M666,273.2c1.4,0,2.8,0,4.2,0c0,6.5,0,13,0,19.4c-0.1,1.2,0.8,2.4,2.1,2.3c1.2,0.1,2-1.1,2-2.3
		c0-6.5,0-13,0-19.4c1.3,0,2.6,0,3.9,0c0,6.4,0,12.8,0,19.1c0,2.1-0.7,4.5-2.7,5.4c-2.1,0.9-4.6,0.9-6.7-0.1c-1.9-1-2.7-3.3-2.7-5.3
		C666,285.9,666,279.5,666,273.2z"/>
	<path class="st1" d="M692.7,273.2c3.7,0,7.4,0,11.2,0c0,1.1,0,2.3,0,3.4c-1.2,0-2.3,0-3.5,0c0,7.2,0,14.3,0,21.5
		c-1.4,0-2.8,0-4.2,0c0-7.2,0-14.3,0-21.5c-1.1,0-2.3,0-3.4,0C692.7,275.5,692.7,274.3,692.7,273.2z"/>
	<path class="st1" d="M707.5,273.2c1.6,0,3.2,0,4.8,0c1.6,8.3,3.2,16.6,4.7,24.9c-1.4,0-2.9,0-4.3,0c-0.2-1.5-0.5-3-0.8-4.5
		c-1.5,0-2.9,0-4.4,0c-0.2,1.5-0.5,3-0.7,4.5c-1.3,0-2.7,0-4,0C704.4,289.8,706,281.5,707.5,273.2 M709.8,280.4
		c-0.6,3.2-1.1,6.5-1.6,9.7c1.1,0,2.2,0,3.3,0C710.8,286.9,710.4,283.7,709.8,280.4z"/>
	<path class="st1" d="M718.3,273.2c1.4,0,2.8,0,4.2,0c0,8.3,0,16.6,0,24.9c-1.4,0-2.8,0-4.2,0C718.3,289.8,718.3,281.5,718.3,273.2z
		"/>
	<path class="st1" d="M724.5,273.2c1.4,0,2.7,0,4.1,0c1.5,4.7,3,9.4,4.5,14.1c0-4.7,0-9.4,0-14.1c1.2,0,2.3,0,3.5,0
		c0,8.3,0,16.6,0,24.9c-1.2,0-2.5,0-3.7,0c-1.6-5.2-3.2-10.4-4.9-15.5c0,5.2,0,10.3,0,15.5c-1.2,0-2.4,0-3.5,0
		C724.5,289.8,724.5,281.5,724.5,273.2z"/>
	<path class="st1" d="M742.7,273.2c1.6,0,3.2,0,4.8,0c1.6,8.3,3.2,16.6,4.7,24.9c-1.4,0-2.9,0-4.3,0c-0.3-1.5-0.5-3-0.8-4.5
		c-1.5,0-2.9,0-4.4,0c-0.2,1.5-0.5,3-0.7,4.5c-1.3,0-2.7,0-4,0C739.5,289.8,741.1,281.5,742.7,273.2 M744.9,280.3
		c-0.6,3.3-1.1,6.6-1.6,9.8c1.1,0,2.2,0,3.3,0C746,286.9,745.5,283.6,744.9,280.3z"/>
	<path class="st1" d="M753.5,273.2c2.4,0,4.9-0.1,7.3,0.1c1.7,0.1,3.5,1,4,2.7c0.6,1.9,0.4,4,0.3,6c0,1.4-1,2.5-2.2,3.1
		c1.8,0.5,3,2.3,2.9,4.2c-0.1,2.7,0.6,6.5-2.3,8c-3.1,1.3-6.7,0.4-10,0.7C753.5,289.8,753.5,281.5,753.5,273.2 M757.7,283.7
		c1.1-0.1,2.9,0.3,3.3-1.2c0.2-1.6,0.2-3.2,0-4.8c-0.4-1.4-2.2-1-3.3-1.1C757.7,279,757.7,281.3,757.7,283.7 M757.7,286.9
		c0,2.6,0,5.2,0,7.8c1.2-0.1,3.2,0.4,3.7-1.2c0.3-1.8,0.2-3.6,0-5.4C761,286.5,758.9,287,757.7,286.9z"/>
	<path class="st1" d="M767.4,273.2c1.4,0,2.8,0,4.2,0c0,7.2,0,14.3,0,21.5c1.7,0,3.3,0,5,0c0,1.1,0,2.3,0,3.4c-3.1,0-6.1,0-9.2,0
		C767.4,289.8,767.4,281.5,767.4,273.2z"/>
	<path class="st1" d="M778.1,273.2c3.3,0,6.7,0,10,0c0,1.1,0,2.3,0,3.4c-1.9,0-3.9,0-5.8,0c0,2.4,0,4.7,0,7.1c1.4,0,2.7,0,4.1,0
		c0,1.1,0,2.3,0,3.4c-1.4,0-2.7,0-4.1,0c0,2.5,0,5,0,7.5c1.9,0,3.9,0,5.8,0c0,1.1,0,2.3,0,3.4c-3.3,0-6.7,0-10,0
		C778.1,289.8,778.1,281.5,778.1,273.2z"/>
	<path class="st1" d="M807.4,273.2c1.4,0,2.8,0,4.2,0c0,8.3,0,16.6,0,24.9c-1.4,0-2.8,0-4.2,0C807.4,289.8,807.4,281.5,807.4,273.2z
		"/>
	<path class="st1" d="M813.1,273.2c3.7,0,7.4,0,11.1,0c0,1.1,0,2.3,0,3.4c-1.1,0-2.3,0-3.4,0c0,7.2,0,14.3,0,21.5
		c-1.4,0-2.8,0-4.2,0c0-7.2,0-14.3,0-21.5c-1.1,0-2.3,0-3.4,0C813.1,275.5,813.1,274.3,813.1,273.2z"/>
	<path class="st1" d="M825.8,273.2c1.4,0,2.8,0,4.2,0c0,8.3,0,16.6,0,24.9c-1.4,0-2.8,0-4.2,0C825.8,289.8,825.8,281.5,825.8,273.2z
		"/>
	<path class="st1" d="M832,273.2c3.3,0,6.7,0,10,0c0,1.1,0,2.3,0,3.4c-1.9,0-3.9,0-5.8,0c0,2.4,0,4.7,0,7.1c1.4,0,2.8,0,4.1,0
		c0,1.1,0,2.3,0,3.4c-1.4,0-2.7,0-4.1,0c0,2.5,0,5,0,7.5c1.9,0,3.9,0,5.8,0c0,1.1,0,2.3,0,3.4c-3.3,0-6.7,0-10,0
		C832,289.8,832,281.5,832,273.2z"/>
	<path class="st1" d="M702.2,308.5c2.4-1.1,5.6-1.1,7.7,0.7c2,2.1,1.5,5.2,1.5,7.8c-1.3,0-2.6,0-3.9,0c-0.1-1.6,0.3-3.3-0.3-4.9
		c-1-1.7-4-0.7-3.8,1.3c0,4.8-0.1,9.6,0,14.4c-0.1,2.1,3.2,2.8,3.9,0.9c0.4-1.9,0.1-3.9,0.2-5.9c1.3,0,2.6,0,3.9,0
		c-0.2,2.8,0.5,5.9-1,8.4c-1.7,2.5-5.4,2.6-7.9,1.6c-2.2-0.9-3.2-3.5-3.2-5.8c0-4.2,0-8.4,0-12.6C699.3,312,700.1,309.5,702.2,308.5
		z"/>
	<path class="st1" d="M717.8,307.9c2.2-0.4,4.7-0.2,6.4,1.4c1.4,1.3,1.9,3.4,1.9,5.3c0,4,0,8,0,12c0,2.1-0.6,4.4-2.4,5.6
		c-2.1,1.4-4.9,1.4-7.2,0.4c-2.2-1.1-3.1-3.7-3.1-6c0-4.3-0.1-8.6,0-12.9C713.4,311,715.1,308.4,717.8,307.9 M718.7,311.4
		c-1.1,0.5-1.2,1.8-1.2,2.8c0,4.4,0,8.8,0,13.2c-0.1,1.2,0.9,2.4,2.2,2.3c1.4,0.1,2.1-1.3,2.1-2.5c0-4.6,0.1-9.2,0-13.8
		C721.8,311.8,720.1,310.7,718.7,311.4z"/>
	<path class="st1" d="M827.5,310.4c1.7-3,6-3.2,8.8-1.9c2.5,1.3,2.3,4.5,2.3,6.9c-1.3,0-2.6,0-3.8,0c0-1.1,0.1-2.1-0.2-3.2
		c-0.5-1.6-3.2-1.5-3.6,0c-0.3,1.2-0.2,2.6,0.7,3.5c2,2.3,4.5,4.1,6.2,6.7c1.3,2.2,1.2,5,0.6,7.4c-1.3,3.7-6.5,4.2-9.5,2.4
		c-2.6-1.8-2.1-5.3-2.1-8c1.3,0,2.6,0,3.9,0c0,1.5-0.2,3.1,0.2,4.6c0.7,1.7,3.8,1.2,3.7-0.7c0.8-3.7-3-5.7-5.1-8.1
		C826.8,317.6,826.1,313.6,827.5,310.4z"/>
	<path class="st1" d="M656.5,308c1.6,0,3.2,0,4.8,0c1.6,8.3,3.2,16.6,4.7,24.9c-1.4,0-2.9,0-4.3,0c-0.2-1.5-0.5-3-0.8-4.5
		c-1.5,0-2.9,0-4.4,0c-0.2,1.5-0.5,3-0.7,4.5c-1.3,0-2.7,0-4,0C653.3,324.6,654.9,316.3,656.5,308 M658.7,315.2
		c-0.6,3.3-1.1,6.6-1.6,9.9c1.1,0,2.2,0,3.3,0C659.8,321.7,659.3,318.4,658.7,315.2z"/>
	<path class="st1" d="M667.3,308c1.4,0,2.8,0,4.1,0c1.5,4.7,3,9.5,4.5,14.2c0-4.7,0-9.5,0-14.2c1.2,0,2.3,0,3.5,0
		c0,8.3,0,16.6,0,24.9c-1.2,0-2.5,0-3.7,0c-1.6-5.1-3.2-10.3-4.9-15.4c0,5.1,0,10.3,0,15.4c-1.2,0-2.4,0-3.6,0
		C667.3,324.6,667.3,316.3,667.3,308z"/>
	<path class="st1" d="M681.4,308c3.3,0.3,6.8-0.7,9.9,0.8c2,1.1,2.7,3.6,2.7,5.7c0,4,0,8,0,12.1c0,2.1-0.7,4.6-2.8,5.6
		c-3.1,1.4-6.5,0.5-9.8,0.7C681.4,324.6,681.4,316.3,681.4,308 M685.6,311.5c0,6,0,12,0,18.1c1-0.1,2.2,0.1,3.1-0.3
		c0.9-0.5,1-1.7,1-2.6c0-4,0-8,0-12c0-1,0-2.2-0.9-2.7C687.8,311.3,686.6,311.5,685.6,311.5z"/>
	<path class="st1" d="M728,308c1.6,0,3.3,0,4.9,0c0.9,4.6,1.7,9.2,2.7,13.8c0.9-4.6,1.6-9.2,2.4-13.8c1.8,0,3.5,0,5.3,0
		c0,8.3,0,16.6,0,24.9c-1.3,0-2.6,0-3.8,0c0-5.4,0-10.8,0-16.2c-1,5.4-1.9,10.8-2.9,16.2c-0.7,0-1.3,0-2,0c-1.1-5.3-2-10.6-3.1-15.8
		c-0.1,5.3,0,10.5-0.1,15.8c-1.2,0-2.3,0-3.5,0C728,324.6,728,316.3,728,308z"/>
	<path class="st1" d="M745.3,308c1.6,0,3.3,0,4.9,0c0.9,4.6,1.7,9.3,2.7,13.9c0.9-4.6,1.6-9.2,2.4-13.9c1.8,0,3.5,0,5.3,0
		c0,8.3,0,16.6,0,24.9c-1.3,0-2.6,0-3.8,0c0-5.4,0-10.8,0-16.2c-1,5.4-1.9,10.8-2.9,16.2c-0.7,0-1.3,0-2,0c-1-5.3-2-10.6-3.1-15.9
		c-0.2,5.3,0,10.6-0.1,15.9c-1.2,0-2.3,0-3.5,0C745.3,324.6,745.3,316.3,745.3,308z"/>
	<path class="st1" d="M762.6,308c1.4,0,2.8,0,4.2,0c0,6.6-0.1,13.1,0,19.7c-0.1,1.4,1.3,2.3,2.6,1.9c1.1-0.2,1.5-1.5,1.4-2.5
		c0-6.4,0-12.8,0-19.1c1.3,0,2.6,0,3.9,0c0,6.4,0,12.8,0,19.1c0,2.1-0.7,4.4-2.7,5.4c-2.1,0.9-4.6,0.9-6.7-0.1c-2-1-2.8-3.3-2.8-5.3
		C762.6,320.8,762.6,314.4,762.6,308z"/>
	<path class="st1" d="M776.7,308c1.4,0,2.8,0,4.2,0c1.5,4.7,2.9,9.4,4.4,14c0-4.7,0-9.4,0-14.1c1.2,0,2.3,0,3.5,0
		c0,8.3,0,16.6,0,24.9c-1.2,0-2.5,0-3.7,0c-1.6-5.2-3.2-10.4-4.9-15.5c0,5.2,0,10.3,0,15.5c-1.2,0-2.4,0-3.5,0
		C776.7,324.6,776.7,316.3,776.7,308z"/>
	<path class="st1" d="M790.8,308c1.4,0,2.8,0,4.2,0c0,8.3,0,16.6,0,24.9c-1.4,0-2.8,0-4.2,0C790.8,324.6,790.8,316.3,790.8,308z"/>
	<path class="st1" d="M796.5,308c3.7,0,7.4,0,11.1,0c0,1.1,0,2.3,0,3.4c-1.1,0-2.3,0-3.4,0c0,7.2,0,14.3,0,21.5c-1.4,0-2.8,0-4.2,0
		c0-7.2,0-14.3,0-21.5c-1.1,0-2.3,0-3.4,0C796.5,310.3,796.5,309.2,796.5,308z"/>
	<path class="st1" d="M809.2,308c1.4,0,2.8,0,4.2,0c0,8.3,0,16.6,0,24.9c-1.4,0-2.8,0-4.2,0C809.2,324.6,809.2,316.3,809.2,308z"/>
	<path class="st1" d="M815.4,308c3.3,0,6.7,0,10,0c0,1.1,0,2.3,0,3.4c-1.9,0-3.9,0-5.8,0c0,2.4,0,4.7,0,7.1c1.4,0,2.8,0,4.1,0
		c0,1.1,0,2.3,0,3.4c-1.4,0-2.8,0-4.1,0c0,2.5,0,5,0,7.5c1.9,0,3.9,0,5.8,0c0,1.1,0,2.3,0,3.4c-3.3,0-6.7,0-10,0
		C815.4,324.6,815.4,316.3,815.4,308z"/>
	<path class="st1" d="M673.2,365c14.1-0.3,28.3,0,42.4-0.1c0.9-0.1,2.4,0,2.3,1.3c0,48.8,0,97.7,0,146.5c0.2,0.9-0.4,1.8-1.4,1.6
		c-14.2,0-28.3,0-42.5,0c-0.8,0.1-1.5-0.5-1.3-1.3c0-48.8,0-97.7,0-146.5C672.7,365.9,672.7,365.2,673.2,365 M680.2,386.3
		c0,3.5,0,7.1,0.1,10.6c3.6,0.1,7.2,0.1,10.9,0c0.1-4,0.1-8,0-12c-3.4-0.1-6.7-0.1-10.1-0.1C680.2,384.7,680.2,385.7,680.2,386.3
		 M699.7,384.9c-0.2,4-0.1,8-0.1,12c3.6,0.1,7.2,0.1,10.9,0c0.1-4,0.1-8,0-12C706.9,384.8,703.3,384.9,699.7,384.9 M680.2,410.2
		c0,4-0.1,8,0.1,12c3.6,0.1,7.2,0.1,10.9,0c0.1-4,0.1-8,0-12C687.5,410.1,683.9,410,680.2,410.2 M699.6,410.9c0,3.8-0.1,7.5,0,11.3
		c3.6,0.1,7.2,0.1,10.9,0c0.1-4,0.1-8,0-12c-3.2-0.1-6.4,0-9.5-0.1C700.4,410.1,699.4,410.1,699.6,410.9 M680.3,435.4
		c-0.1,3.8-0.1,7.5-0.1,11.3c-0.2,0.8,0.9,0.8,1.4,0.8c3.2,0,6.3,0,9.5-0.1c0.1-4,0.1-8,0-12C687.5,435.3,683.9,435.4,680.3,435.4
		 M699.7,435.4c-0.1,3.8-0.1,7.5,0,11.3c-0.2,0.8,0.8,0.8,1.4,0.8c3.2,0,6.4,0,9.5-0.1c0.1-4,0.1-8,0-12
		C706.9,435.3,703.3,435.4,699.7,435.4 M680.3,460.7c-0.1,3.7-0.1,7.5,0,11.2c-0.1,1,1,0.9,1.7,0.9c3.1-0.1,6.2,0.1,9.2-0.1
		c0-4,0.1-8,0-12C687.5,460.6,683.9,460.6,680.3,460.7 M699.7,460.9c-0.2,3.4,0,6.8-0.1,10.2c0,0.6-0.2,1.9,0.8,1.7
		c3.4,0,6.8,0.1,10.1-0.1c0-4,0.1-8,0-12C706.9,460.8,703.2,460.4,699.7,460.9 M680.3,486c-0.1,4-0.2,8,0.1,12c3.6,0,7.2,0,10.8,0
		c0.2-4,0.1-8,0-12C687.6,485.8,683.9,485.8,680.3,486 M699.6,486c-0.1,4-0.1,8,0,11.9c3.6,0.2,7.2,0.1,10.8,0.1c0.1-4,0.1-8,0-12.1
		C706.9,485.9,703.2,485.8,699.6,486z"/>
	<path class="st1" d="M767.3,392c1.1-0.6,1.9,0.7,1.7,1.7c0,39.8,0,79.5,0,119.3c0.1,0.8-0.3,1.6-1.2,1.5c-14.2,0-28.4,0-42.5,0
		c-1,0.2-1.6-0.6-1.5-1.5c0-21.6,0-43.2,0-64.8c0-0.7,0.1-1.3,0.5-1.8c13.7-17.3,27.3-34.6,40.9-51.9
		C766,393.6,766.5,392.6,767.3,392 M762.3,408.1c-3.9,4.2-7.3,8.9-11,13.4c-0.8,0.7-0.6,2.2,0.6,2.2c3.5,0.1,7,0,10.5,0
		c0.8,0.1,1.5-0.5,1.4-1.4c0-4.3,0-8.6,0-12.9C764.1,408.6,763.2,407.6,762.3,408.1 M749.7,428.7c-0.8,0.2-0.6,1.3-0.7,1.9
		c0.1,2.4-0.1,4.9,0.1,7.3c0.1,0.8,1,0.8,1.6,0.8c3.9,0,7.8,0,11.8,0c0.7,0.1,1.5-0.3,1.4-1.1c0-2.7,0.1-5.5,0-8.2
		c-0.1-1-1.3-0.8-2-0.9C757.9,428.7,753.8,428.4,749.7,428.7 M742.7,433.5c-4.5,5-8.6,10.4-12.7,15.8c-0.8,1.3-1.1,4.6,1.2,4.3
		c4,0,8,0,12,0c0.9,0.1,1.3-0.8,1.2-1.6c0-5.8,0-11.6,0-17.3C744.5,433.8,743.5,433,742.7,433.5 M749.7,443.5
		c-0.7,0.2-0.6,1.1-0.6,1.7c0,2.5-0.1,4.9,0,7.4c-0.1,0.8,0.8,1,1.4,1c3.9,0,7.8,0,11.8,0c0.7,0,1.8-0.1,1.7-1
		c0.1-2.7,0.1-5.5,0-8.2c0-1-1.3-0.9-2-0.9C757.9,443.5,753.8,443.3,749.7,443.5 M729.8,458.5c-0.6,0.5-0.3,1.3-0.4,1.9
		c0.1,2.3-0.1,4.7,0.1,7c0,0.9,1,1,1.7,0.9c3.8,0,7.6,0,11.5,0c0.7,0,1.7,0,1.7-0.9c0.1-2.7,0.1-5.5,0-8.2c-0.1-1.3-1.7-0.9-2.6-1
		C737.8,458.4,733.7,458,729.8,458.5 M749.5,458.5c-0.6,0.5-0.3,1.3-0.4,1.9c0.1,2.3-0.1,4.7,0.1,7c0,0.9,1,1,1.7,0.9
		c3.8,0,7.6,0,11.5,0c0.7,0,1.7,0,1.7-0.9c0.1-2.7,0.1-5.5,0-8.2c-0.1-1.3-1.7-0.9-2.6-1C757.4,458.4,753.4,458,749.5,458.5
		 M730.1,473.2c-0.8,0.2-0.6,1.2-0.7,1.9c0.1,2.4-0.1,4.9,0.1,7.3c0,0.8,1,0.9,1.7,0.9c3.8,0,7.6,0,11.5,0c0.6,0,1.6,0,1.7-0.9
		c0.1-2.7,0.1-5.5,0-8.2c0.1-1.1-1.2-1.1-2-1.1C738.3,473.2,734.2,473,730.1,473.2 M749.8,473.2c-0.8,0.2-0.6,1.2-0.7,1.9
		c0.1,2.4-0.1,4.9,0.1,7.3c0,0.8,1,0.9,1.7,0.9c3.8,0,7.6,0,11.5,0c0.6,0,1.6,0,1.7-0.9c0.1-2.7,0.1-5.5,0-8.2
		c0.1-1.1-1.2-1.1-2-1.1C757.9,473.2,753.8,473,749.8,473.2 M730.1,488.1c-0.8,0.3-0.6,1.3-0.7,1.9c0.1,2.4-0.1,4.9,0.1,7.3
		c0.1,0.9,1.3,0.8,1.9,0.8c4-0.1,8,0.1,12-0.1c1,0,0.9-1.2,0.9-1.9c-0.1-2.4,0.1-4.9-0.1-7.3c-0.1-1-1.3-0.9-2-0.9
		C738.2,488.1,734.2,487.8,730.1,488.1 M749.7,488.1c-0.7,0.2-0.6,1.1-0.7,1.6c0,2.5-0.1,4.9,0,7.4c-0.1,0.8,0.7,1.1,1.4,1
		c3.9,0,7.8,0,11.8,0c0.7,0,1.8-0.1,1.7-1c0.1-2.7,0.1-5.5,0-8.2c-0.1-1.1-1.5-0.8-2.3-0.9C757.7,488.1,753.7,487.8,749.7,488.1z"/>
	<path class="st1" d="M642.9,442.1c0.7-0.3,1.2,0.3,1.6,0.7c6.8,8.8,13.6,17.6,20.4,26.5c0.6,0.8,1.4,1.6,1.8,2.6
		c0.2,1-0.9,1.3-1.7,1.2c-14.6,0-29.1,0-43.7,0c-1,0.1-1.6-1.2-0.9-1.9c6.8-9,13.7-18,20.5-26.9C641.5,443.6,642,442.7,642.9,442.1z
		"/>
	<path class="st1" d="M774.7,453.9c14.5-0.3,29,0,43.5-0.1c0.8,0,2.2-0.1,2,1.1c0,2.9,0.1,5.9,0,8.8c0,0.8-0.9,0.8-1.4,0.8
		c-14.4,0-28.7,0-43.1,0c-0.6,0-1.5,0-1.5-0.8c-0.1-2.7,0-5.5-0.1-8.2C774.2,455,774,454.1,774.7,453.9z"/>
	<path class="st1" d="M774.6,468.2c0.9-0.2,1.9-0.1,2.8-0.1c13.9,0,27.8,0,41.6,0c0.9-0.1,1.3,0.7,1.2,1.4c0,14.6,0,29.1,0,43.7
		c0.1,0.8-0.4,1.5-1.2,1.4c-14.5,0-28.9,0-43.4,0c-0.7,0.1-1.7-0.2-1.6-1.1c-0.1-14.6,0-29.1,0-43.7
		C774.1,469.3,774,468.5,774.6,468.2 M780.5,473.4c-0.7,0.2-0.6,1.1-0.6,1.7c0.1,2.4-0.1,4.9,0.1,7.3c0,0.9,1,0.9,1.7,0.9
		c3.9,0,7.8,0,11.8,0c0.7,0,1.7,0,1.8-0.9c0.1-2.7,0.1-5.5,0-8.2c0-1.1-1.3-0.9-2.1-1C788.8,473.4,784.6,473.1,780.5,473.4
		 M800.4,473.4c-0.7,0.4-0.5,1.3-0.5,2c0.1,2.3-0.1,4.7,0.1,7c0,0.9,1.1,0.9,1.8,0.9c3.9,0,7.8,0,11.8,0c0.7,0,1.7-0.1,1.6-1
		c0.1-2.7,0.1-5.4,0-8.2c0-1.2-1.5-1-2.3-1C808.8,473.4,804.6,473,800.4,473.4 M780.5,488.1c-0.8,0.2-0.6,1.2-0.7,1.9
		c0.1,2.4-0.1,4.7,0,7.1c-0.1,0.8,0.7,1.1,1.4,1c4.1,0,8.2,0,12.4,0c0.7,0,1.5-0.2,1.5-1c0.1-2.6,0.1-5.3,0-7.9
		c0-1.3-1.5-1.1-2.4-1.1C788.6,488.1,784.6,487.9,780.5,488.1 M800.7,488.1c-0.9,0.2-0.8,1.2-0.8,1.9c0.1,2.4-0.1,4.9,0.1,7.3
		c0.1,0.8,1.1,0.8,1.8,0.8c4.1,0,8.2,0,12.3,0c0.7,0.1,1.2-0.6,1.1-1.3c0-2.6,0.1-5.3,0-7.9c-0.1-1-1.2-0.8-1.9-0.9
		C809.1,488.1,804.9,487.9,800.7,488.1z"/>
	<path class="st1" d="M619.9,478.6c-0.1-0.9,0.6-1.6,1.4-1.4c14.6,0,29.1,0,43.7,0c0.9-0.1,1.7,0.5,1.6,1.4c0,11.3,0,22.7,0,34
		c0.1,0.8-0.4,1.7-1.3,1.6c-4.8,0-9.7,0-14.5,0c0-7.2,0-14.4,0-21.5c0.1-0.8-0.4-1.6-1.3-1.5c-4.3,0-8.6,0-13,0
		c-0.8-0.1-1.3,0.7-1.2,1.4c0,7.2,0,14.4,0,21.5c-4.7-0.1-9.5,0-14.2,0c-0.9,0.1-1.2-0.8-1.2-1.5
		C619.9,501.3,619.8,489.9,619.9,478.6z"/>
</g>
</svg>
